G04 EAGLE Gerber RS-274X export*
G75*
%MOMM*%
%FSLAX34Y34*%
%LPD*%
%IN*%
%IPPOS*%
%AMOC8*
5,1,8,0,0,1.08239X$1,22.5*%
G01*
%ADD10C,0.203200*%
%ADD11C,0.050800*%
%ADD12C,0.000000*%
%ADD13C,0.600000*%
%ADD14C,0.254000*%


D10*
X0Y0D02*
X850900Y0D01*
X850900Y609600D02*
X0Y609600D01*
X0Y0D01*
X850900Y0D02*
X850900Y609600D01*
X502920Y579120D02*
X502920Y359410D01*
X502920Y579120D02*
X502922Y579261D01*
X502928Y579402D01*
X502938Y579543D01*
X502951Y579684D01*
X502969Y579824D01*
X502991Y579963D01*
X503016Y580102D01*
X503045Y580241D01*
X503078Y580378D01*
X503115Y580514D01*
X503156Y580649D01*
X503200Y580784D01*
X503248Y580916D01*
X503300Y581048D01*
X503355Y581178D01*
X503414Y581306D01*
X503477Y581433D01*
X503543Y581557D01*
X503612Y581680D01*
X503685Y581801D01*
X503761Y581920D01*
X503841Y582037D01*
X503924Y582151D01*
X504009Y582264D01*
X504098Y582373D01*
X504190Y582481D01*
X504285Y582585D01*
X504383Y582687D01*
X504484Y582786D01*
X504587Y582883D01*
X504693Y582976D01*
X504801Y583066D01*
X504912Y583154D01*
X505025Y583238D01*
X505141Y583319D01*
X505259Y583397D01*
X505379Y583472D01*
X505501Y583543D01*
X505625Y583611D01*
X505751Y583675D01*
X505878Y583736D01*
X506007Y583793D01*
X506138Y583846D01*
X506270Y583896D01*
X506403Y583943D01*
X506538Y583985D01*
X506674Y584024D01*
X506811Y584059D01*
X506948Y584090D01*
X507087Y584117D01*
X507226Y584141D01*
X507366Y584160D01*
X507506Y584176D01*
X507647Y584188D01*
X507788Y584196D01*
X507929Y584200D01*
X508071Y584200D01*
X508212Y584196D01*
X508353Y584188D01*
X508494Y584176D01*
X508634Y584160D01*
X508774Y584141D01*
X508913Y584117D01*
X509052Y584090D01*
X509189Y584059D01*
X509326Y584024D01*
X509462Y583985D01*
X509597Y583943D01*
X509730Y583896D01*
X509862Y583846D01*
X509993Y583793D01*
X510122Y583736D01*
X510249Y583675D01*
X510375Y583611D01*
X510499Y583543D01*
X510621Y583472D01*
X510741Y583397D01*
X510859Y583319D01*
X510975Y583238D01*
X511088Y583154D01*
X511199Y583066D01*
X511307Y582976D01*
X511413Y582883D01*
X511516Y582786D01*
X511617Y582687D01*
X511715Y582585D01*
X511810Y582481D01*
X511902Y582373D01*
X511991Y582264D01*
X512076Y582151D01*
X512159Y582037D01*
X512239Y581920D01*
X512315Y581801D01*
X512388Y581680D01*
X512457Y581557D01*
X512523Y581433D01*
X512586Y581306D01*
X512645Y581178D01*
X512700Y581048D01*
X512752Y580916D01*
X512800Y580784D01*
X512844Y580649D01*
X512885Y580514D01*
X512922Y580378D01*
X512955Y580241D01*
X512984Y580102D01*
X513009Y579963D01*
X513031Y579824D01*
X513049Y579684D01*
X513062Y579543D01*
X513072Y579402D01*
X513078Y579261D01*
X513080Y579120D01*
X513080Y359410D02*
X513061Y359269D01*
X513037Y359128D01*
X513010Y358989D01*
X512979Y358850D01*
X512943Y358712D01*
X512904Y358575D01*
X512862Y358439D01*
X512815Y358304D01*
X512765Y358171D01*
X512711Y358039D01*
X512653Y357909D01*
X512592Y357780D01*
X512527Y357654D01*
X512459Y357529D01*
X512387Y357406D01*
X512312Y357285D01*
X512234Y357166D01*
X512152Y357049D01*
X512067Y356935D01*
X511979Y356823D01*
X511888Y356713D01*
X511794Y356607D01*
X511697Y356502D01*
X511597Y356401D01*
X511494Y356302D01*
X511388Y356207D01*
X511280Y356114D01*
X511170Y356024D01*
X511057Y355938D01*
X510941Y355854D01*
X510824Y355774D01*
X510704Y355697D01*
X510582Y355624D01*
X510458Y355553D01*
X510332Y355487D01*
X510204Y355424D01*
X510075Y355364D01*
X509944Y355308D01*
X509811Y355256D01*
X509677Y355208D01*
X509542Y355163D01*
X509406Y355122D01*
X509268Y355085D01*
X509130Y355051D01*
X508991Y355022D01*
X508851Y354996D01*
X508710Y354974D01*
X508569Y354957D01*
X508427Y354943D01*
X508285Y354933D01*
X508142Y354927D01*
X508000Y354925D01*
X507858Y354927D01*
X507715Y354933D01*
X507573Y354943D01*
X507431Y354957D01*
X507290Y354974D01*
X507149Y354996D01*
X507009Y355022D01*
X506870Y355051D01*
X506732Y355085D01*
X506594Y355122D01*
X506458Y355163D01*
X506323Y355208D01*
X506189Y355256D01*
X506056Y355308D01*
X505925Y355364D01*
X505796Y355424D01*
X505668Y355487D01*
X505542Y355553D01*
X505418Y355624D01*
X505296Y355697D01*
X505176Y355774D01*
X505059Y355854D01*
X504943Y355938D01*
X504830Y356024D01*
X504720Y356114D01*
X504612Y356207D01*
X504506Y356302D01*
X504403Y356401D01*
X504303Y356502D01*
X504206Y356607D01*
X504112Y356713D01*
X504021Y356823D01*
X503933Y356935D01*
X503848Y357049D01*
X503766Y357166D01*
X503688Y357285D01*
X503613Y357406D01*
X503541Y357529D01*
X503473Y357654D01*
X503408Y357780D01*
X503347Y357909D01*
X503289Y358039D01*
X503235Y358171D01*
X503185Y358304D01*
X503138Y358439D01*
X503096Y358575D01*
X503057Y358712D01*
X503021Y358850D01*
X502990Y358989D01*
X502963Y359128D01*
X502939Y359269D01*
X502920Y359410D01*
X502920Y275590D02*
X502939Y275731D01*
X502963Y275872D01*
X502990Y276011D01*
X503021Y276150D01*
X503057Y276288D01*
X503096Y276425D01*
X503138Y276561D01*
X503185Y276696D01*
X503235Y276829D01*
X503289Y276961D01*
X503347Y277091D01*
X503408Y277220D01*
X503473Y277346D01*
X503541Y277471D01*
X503613Y277594D01*
X503688Y277715D01*
X503766Y277834D01*
X503848Y277951D01*
X503933Y278065D01*
X504021Y278177D01*
X504112Y278287D01*
X504206Y278393D01*
X504303Y278498D01*
X504403Y278599D01*
X504506Y278698D01*
X504612Y278793D01*
X504720Y278886D01*
X504830Y278976D01*
X504943Y279062D01*
X505059Y279146D01*
X505176Y279226D01*
X505296Y279303D01*
X505418Y279376D01*
X505542Y279447D01*
X505668Y279513D01*
X505796Y279576D01*
X505925Y279636D01*
X506056Y279692D01*
X506189Y279744D01*
X506323Y279792D01*
X506458Y279837D01*
X506594Y279878D01*
X506732Y279915D01*
X506870Y279949D01*
X507009Y279978D01*
X507149Y280004D01*
X507290Y280026D01*
X507431Y280043D01*
X507573Y280057D01*
X507715Y280067D01*
X507858Y280073D01*
X508000Y280075D01*
X508142Y280073D01*
X508285Y280067D01*
X508427Y280057D01*
X508569Y280043D01*
X508710Y280026D01*
X508851Y280004D01*
X508991Y279978D01*
X509130Y279949D01*
X509268Y279915D01*
X509406Y279878D01*
X509542Y279837D01*
X509677Y279792D01*
X509811Y279744D01*
X509944Y279692D01*
X510075Y279636D01*
X510204Y279576D01*
X510332Y279513D01*
X510458Y279447D01*
X510582Y279376D01*
X510704Y279303D01*
X510824Y279226D01*
X510941Y279146D01*
X511057Y279062D01*
X511170Y278976D01*
X511280Y278886D01*
X511388Y278793D01*
X511494Y278698D01*
X511597Y278599D01*
X511697Y278498D01*
X511794Y278393D01*
X511888Y278287D01*
X511979Y278177D01*
X512067Y278065D01*
X512152Y277951D01*
X512234Y277834D01*
X512312Y277715D01*
X512387Y277594D01*
X512459Y277471D01*
X512527Y277346D01*
X512592Y277220D01*
X512653Y277091D01*
X512711Y276961D01*
X512765Y276829D01*
X512815Y276696D01*
X512862Y276561D01*
X512904Y276425D01*
X512943Y276288D01*
X512979Y276150D01*
X513010Y276011D01*
X513037Y275872D01*
X513061Y275731D01*
X513080Y275590D01*
X513080Y118110D02*
X513061Y117969D01*
X513037Y117828D01*
X513010Y117689D01*
X512979Y117550D01*
X512943Y117412D01*
X512904Y117275D01*
X512862Y117139D01*
X512815Y117004D01*
X512765Y116871D01*
X512711Y116739D01*
X512653Y116609D01*
X512592Y116480D01*
X512527Y116354D01*
X512459Y116229D01*
X512387Y116106D01*
X512312Y115985D01*
X512234Y115866D01*
X512152Y115749D01*
X512067Y115635D01*
X511979Y115523D01*
X511888Y115413D01*
X511794Y115307D01*
X511697Y115202D01*
X511597Y115101D01*
X511494Y115002D01*
X511388Y114907D01*
X511280Y114814D01*
X511170Y114724D01*
X511057Y114638D01*
X510941Y114554D01*
X510824Y114474D01*
X510704Y114397D01*
X510582Y114324D01*
X510458Y114253D01*
X510332Y114187D01*
X510204Y114124D01*
X510075Y114064D01*
X509944Y114008D01*
X509811Y113956D01*
X509677Y113908D01*
X509542Y113863D01*
X509406Y113822D01*
X509268Y113785D01*
X509130Y113751D01*
X508991Y113722D01*
X508851Y113696D01*
X508710Y113674D01*
X508569Y113657D01*
X508427Y113643D01*
X508285Y113633D01*
X508142Y113627D01*
X508000Y113625D01*
X507858Y113627D01*
X507715Y113633D01*
X507573Y113643D01*
X507431Y113657D01*
X507290Y113674D01*
X507149Y113696D01*
X507009Y113722D01*
X506870Y113751D01*
X506732Y113785D01*
X506594Y113822D01*
X506458Y113863D01*
X506323Y113908D01*
X506189Y113956D01*
X506056Y114008D01*
X505925Y114064D01*
X505796Y114124D01*
X505668Y114187D01*
X505542Y114253D01*
X505418Y114324D01*
X505296Y114397D01*
X505176Y114474D01*
X505059Y114554D01*
X504943Y114638D01*
X504830Y114724D01*
X504720Y114814D01*
X504612Y114907D01*
X504506Y115002D01*
X504403Y115101D01*
X504303Y115202D01*
X504206Y115307D01*
X504112Y115413D01*
X504021Y115523D01*
X503933Y115635D01*
X503848Y115749D01*
X503766Y115866D01*
X503688Y115985D01*
X503613Y116106D01*
X503541Y116229D01*
X503473Y116354D01*
X503408Y116480D01*
X503347Y116609D01*
X503289Y116739D01*
X503235Y116871D01*
X503185Y117004D01*
X503138Y117139D01*
X503096Y117275D01*
X503057Y117412D01*
X503021Y117550D01*
X502990Y117689D01*
X502963Y117828D01*
X502939Y117969D01*
X502920Y118110D01*
X502920Y85090D02*
X502939Y85231D01*
X502963Y85372D01*
X502990Y85511D01*
X503021Y85650D01*
X503057Y85788D01*
X503096Y85925D01*
X503138Y86061D01*
X503185Y86196D01*
X503235Y86329D01*
X503289Y86461D01*
X503347Y86591D01*
X503408Y86720D01*
X503473Y86846D01*
X503541Y86971D01*
X503613Y87094D01*
X503688Y87215D01*
X503766Y87334D01*
X503848Y87451D01*
X503933Y87565D01*
X504021Y87677D01*
X504112Y87787D01*
X504206Y87893D01*
X504303Y87998D01*
X504403Y88099D01*
X504506Y88198D01*
X504612Y88293D01*
X504720Y88386D01*
X504830Y88476D01*
X504943Y88562D01*
X505059Y88646D01*
X505176Y88726D01*
X505296Y88803D01*
X505418Y88876D01*
X505542Y88947D01*
X505668Y89013D01*
X505796Y89076D01*
X505925Y89136D01*
X506056Y89192D01*
X506189Y89244D01*
X506323Y89292D01*
X506458Y89337D01*
X506594Y89378D01*
X506732Y89415D01*
X506870Y89449D01*
X507009Y89478D01*
X507149Y89504D01*
X507290Y89526D01*
X507431Y89543D01*
X507573Y89557D01*
X507715Y89567D01*
X507858Y89573D01*
X508000Y89575D01*
X508142Y89573D01*
X508285Y89567D01*
X508427Y89557D01*
X508569Y89543D01*
X508710Y89526D01*
X508851Y89504D01*
X508991Y89478D01*
X509130Y89449D01*
X509268Y89415D01*
X509406Y89378D01*
X509542Y89337D01*
X509677Y89292D01*
X509811Y89244D01*
X509944Y89192D01*
X510075Y89136D01*
X510204Y89076D01*
X510332Y89013D01*
X510458Y88947D01*
X510582Y88876D01*
X510704Y88803D01*
X510824Y88726D01*
X510941Y88646D01*
X511057Y88562D01*
X511170Y88476D01*
X511280Y88386D01*
X511388Y88293D01*
X511494Y88198D01*
X511597Y88099D01*
X511697Y87998D01*
X511794Y87893D01*
X511888Y87787D01*
X511979Y87677D01*
X512067Y87565D01*
X512152Y87451D01*
X512234Y87334D01*
X512312Y87215D01*
X512387Y87094D01*
X512459Y86971D01*
X512527Y86846D01*
X512592Y86720D01*
X512653Y86591D01*
X512711Y86461D01*
X512765Y86329D01*
X512815Y86196D01*
X512862Y86061D01*
X512904Y85925D01*
X512943Y85788D01*
X512979Y85650D01*
X513010Y85511D01*
X513037Y85372D01*
X513061Y85231D01*
X513080Y85090D01*
X513080Y16510D02*
X513061Y16369D01*
X513037Y16228D01*
X513010Y16089D01*
X512979Y15950D01*
X512943Y15812D01*
X512904Y15675D01*
X512862Y15539D01*
X512815Y15404D01*
X512765Y15271D01*
X512711Y15139D01*
X512653Y15009D01*
X512592Y14880D01*
X512527Y14754D01*
X512459Y14629D01*
X512387Y14506D01*
X512312Y14385D01*
X512234Y14266D01*
X512152Y14149D01*
X512067Y14035D01*
X511979Y13923D01*
X511888Y13813D01*
X511794Y13707D01*
X511697Y13602D01*
X511597Y13501D01*
X511494Y13402D01*
X511388Y13307D01*
X511280Y13214D01*
X511170Y13124D01*
X511057Y13038D01*
X510941Y12954D01*
X510824Y12874D01*
X510704Y12797D01*
X510582Y12724D01*
X510458Y12653D01*
X510332Y12587D01*
X510204Y12524D01*
X510075Y12464D01*
X509944Y12408D01*
X509811Y12356D01*
X509677Y12308D01*
X509542Y12263D01*
X509406Y12222D01*
X509268Y12185D01*
X509130Y12151D01*
X508991Y12122D01*
X508851Y12096D01*
X508710Y12074D01*
X508569Y12057D01*
X508427Y12043D01*
X508285Y12033D01*
X508142Y12027D01*
X508000Y12025D01*
X507858Y12027D01*
X507715Y12033D01*
X507573Y12043D01*
X507431Y12057D01*
X507290Y12074D01*
X507149Y12096D01*
X507009Y12122D01*
X506870Y12151D01*
X506732Y12185D01*
X506594Y12222D01*
X506458Y12263D01*
X506323Y12308D01*
X506189Y12356D01*
X506056Y12408D01*
X505925Y12464D01*
X505796Y12524D01*
X505668Y12587D01*
X505542Y12653D01*
X505418Y12724D01*
X505296Y12797D01*
X505176Y12874D01*
X505059Y12954D01*
X504943Y13038D01*
X504830Y13124D01*
X504720Y13214D01*
X504612Y13307D01*
X504506Y13402D01*
X504403Y13501D01*
X504303Y13602D01*
X504206Y13707D01*
X504112Y13813D01*
X504021Y13923D01*
X503933Y14035D01*
X503848Y14149D01*
X503766Y14266D01*
X503688Y14385D01*
X503613Y14506D01*
X503541Y14629D01*
X503473Y14754D01*
X503408Y14880D01*
X503347Y15009D01*
X503289Y15139D01*
X503235Y15271D01*
X503185Y15404D01*
X503138Y15539D01*
X503096Y15675D01*
X503057Y15812D01*
X503021Y15950D01*
X502990Y16089D01*
X502963Y16228D01*
X502939Y16369D01*
X502920Y16510D01*
X502920Y85090D01*
X513080Y85090D02*
X513080Y16510D01*
X513080Y118110D02*
X513080Y275590D01*
X502920Y275590D02*
X502920Y118110D01*
D11*
X505714Y456184D02*
X510286Y456184D01*
X505714Y456184D02*
X505714Y457454D01*
X505716Y457524D01*
X505722Y457594D01*
X505731Y457663D01*
X505745Y457732D01*
X505762Y457800D01*
X505783Y457866D01*
X505807Y457932D01*
X505835Y457996D01*
X505867Y458058D01*
X505902Y458119D01*
X505940Y458178D01*
X505982Y458234D01*
X506026Y458288D01*
X506074Y458340D01*
X506124Y458388D01*
X506177Y458434D01*
X506232Y458477D01*
X506289Y458517D01*
X506349Y458554D01*
X506411Y458587D01*
X506474Y458617D01*
X506539Y458643D01*
X506605Y458666D01*
X506672Y458685D01*
X506741Y458700D01*
X506810Y458712D01*
X506879Y458720D01*
X506949Y458724D01*
X507019Y458724D01*
X507089Y458720D01*
X507158Y458712D01*
X507227Y458700D01*
X507296Y458685D01*
X507363Y458666D01*
X507429Y458643D01*
X507494Y458617D01*
X507557Y458587D01*
X507619Y458554D01*
X507679Y458517D01*
X507736Y458477D01*
X507791Y458434D01*
X507844Y458388D01*
X507894Y458340D01*
X507942Y458288D01*
X507986Y458234D01*
X508028Y458178D01*
X508066Y458119D01*
X508101Y458058D01*
X508133Y457996D01*
X508161Y457932D01*
X508185Y457866D01*
X508206Y457800D01*
X508223Y457732D01*
X508237Y457663D01*
X508246Y457594D01*
X508252Y457524D01*
X508254Y457454D01*
X508254Y456184D01*
X508254Y457708D02*
X510286Y458724D01*
X509016Y460723D02*
X506984Y460723D01*
X506914Y460725D01*
X506844Y460731D01*
X506775Y460740D01*
X506706Y460754D01*
X506638Y460771D01*
X506572Y460792D01*
X506506Y460816D01*
X506442Y460844D01*
X506380Y460876D01*
X506319Y460911D01*
X506260Y460949D01*
X506204Y460991D01*
X506150Y461035D01*
X506098Y461083D01*
X506050Y461133D01*
X506004Y461186D01*
X505961Y461241D01*
X505921Y461298D01*
X505884Y461358D01*
X505851Y461420D01*
X505821Y461483D01*
X505795Y461548D01*
X505772Y461614D01*
X505753Y461681D01*
X505738Y461750D01*
X505726Y461819D01*
X505718Y461888D01*
X505714Y461958D01*
X505714Y462028D01*
X505718Y462098D01*
X505726Y462167D01*
X505738Y462236D01*
X505753Y462305D01*
X505772Y462372D01*
X505795Y462438D01*
X505821Y462503D01*
X505851Y462566D01*
X505884Y462628D01*
X505921Y462688D01*
X505961Y462745D01*
X506004Y462800D01*
X506050Y462853D01*
X506098Y462903D01*
X506150Y462951D01*
X506204Y462995D01*
X506260Y463037D01*
X506319Y463075D01*
X506380Y463110D01*
X506442Y463142D01*
X506506Y463170D01*
X506572Y463194D01*
X506638Y463215D01*
X506706Y463232D01*
X506775Y463246D01*
X506844Y463255D01*
X506914Y463261D01*
X506984Y463263D01*
X509016Y463263D01*
X509086Y463261D01*
X509156Y463255D01*
X509225Y463246D01*
X509294Y463232D01*
X509362Y463215D01*
X509428Y463194D01*
X509494Y463170D01*
X509558Y463142D01*
X509620Y463110D01*
X509681Y463075D01*
X509740Y463037D01*
X509796Y462995D01*
X509850Y462951D01*
X509902Y462903D01*
X509950Y462853D01*
X509996Y462800D01*
X510039Y462745D01*
X510079Y462688D01*
X510116Y462628D01*
X510149Y462566D01*
X510179Y462503D01*
X510205Y462438D01*
X510228Y462372D01*
X510247Y462305D01*
X510262Y462236D01*
X510274Y462167D01*
X510282Y462098D01*
X510286Y462028D01*
X510286Y461958D01*
X510282Y461888D01*
X510274Y461819D01*
X510262Y461750D01*
X510247Y461681D01*
X510228Y461614D01*
X510205Y461548D01*
X510179Y461483D01*
X510149Y461420D01*
X510116Y461358D01*
X510079Y461298D01*
X510039Y461241D01*
X509996Y461186D01*
X509950Y461133D01*
X509902Y461083D01*
X509850Y461035D01*
X509796Y460991D01*
X509740Y460949D01*
X509681Y460911D01*
X509620Y460876D01*
X509558Y460844D01*
X509494Y460816D01*
X509428Y460792D01*
X509362Y460771D01*
X509294Y460754D01*
X509225Y460740D01*
X509156Y460731D01*
X509086Y460725D01*
X509016Y460723D01*
X509016Y465447D02*
X505714Y465447D01*
X509016Y465447D02*
X509086Y465449D01*
X509156Y465455D01*
X509225Y465464D01*
X509294Y465478D01*
X509362Y465495D01*
X509428Y465516D01*
X509494Y465540D01*
X509558Y465568D01*
X509620Y465600D01*
X509681Y465635D01*
X509740Y465673D01*
X509796Y465715D01*
X509850Y465759D01*
X509902Y465807D01*
X509950Y465857D01*
X509996Y465910D01*
X510039Y465965D01*
X510079Y466022D01*
X510116Y466082D01*
X510149Y466144D01*
X510179Y466207D01*
X510205Y466272D01*
X510228Y466338D01*
X510247Y466405D01*
X510262Y466474D01*
X510274Y466543D01*
X510282Y466612D01*
X510286Y466682D01*
X510286Y466752D01*
X510282Y466822D01*
X510274Y466891D01*
X510262Y466960D01*
X510247Y467029D01*
X510228Y467096D01*
X510205Y467162D01*
X510179Y467227D01*
X510149Y467290D01*
X510116Y467352D01*
X510079Y467412D01*
X510039Y467469D01*
X509996Y467524D01*
X509950Y467577D01*
X509902Y467627D01*
X509850Y467675D01*
X509796Y467719D01*
X509740Y467761D01*
X509681Y467799D01*
X509620Y467834D01*
X509558Y467866D01*
X509494Y467894D01*
X509428Y467918D01*
X509362Y467939D01*
X509294Y467956D01*
X509225Y467970D01*
X509156Y467979D01*
X509086Y467985D01*
X509016Y467987D01*
X505714Y467987D01*
X505714Y471137D02*
X510286Y471137D01*
X505714Y469867D02*
X505714Y472407D01*
X510286Y474297D02*
X510286Y476329D01*
X510286Y474297D02*
X505714Y474297D01*
X505714Y476329D01*
X507746Y475821D02*
X507746Y474297D01*
X506984Y480535D02*
X509016Y480535D01*
X506984Y480535D02*
X506914Y480537D01*
X506844Y480543D01*
X506775Y480552D01*
X506706Y480566D01*
X506638Y480583D01*
X506572Y480604D01*
X506506Y480628D01*
X506442Y480656D01*
X506380Y480688D01*
X506319Y480723D01*
X506260Y480761D01*
X506204Y480803D01*
X506150Y480847D01*
X506098Y480895D01*
X506050Y480945D01*
X506004Y480998D01*
X505961Y481053D01*
X505921Y481110D01*
X505884Y481170D01*
X505851Y481232D01*
X505821Y481295D01*
X505795Y481360D01*
X505772Y481426D01*
X505753Y481493D01*
X505738Y481562D01*
X505726Y481631D01*
X505718Y481700D01*
X505714Y481770D01*
X505714Y481840D01*
X505718Y481910D01*
X505726Y481979D01*
X505738Y482048D01*
X505753Y482117D01*
X505772Y482184D01*
X505795Y482250D01*
X505821Y482315D01*
X505851Y482378D01*
X505884Y482440D01*
X505921Y482500D01*
X505961Y482557D01*
X506004Y482612D01*
X506050Y482665D01*
X506098Y482715D01*
X506150Y482763D01*
X506204Y482807D01*
X506260Y482849D01*
X506319Y482887D01*
X506380Y482922D01*
X506442Y482954D01*
X506506Y482982D01*
X506572Y483006D01*
X506638Y483027D01*
X506706Y483044D01*
X506775Y483058D01*
X506844Y483067D01*
X506914Y483073D01*
X506984Y483075D01*
X509016Y483075D01*
X509086Y483073D01*
X509156Y483067D01*
X509225Y483058D01*
X509294Y483044D01*
X509362Y483027D01*
X509428Y483006D01*
X509494Y482982D01*
X509558Y482954D01*
X509620Y482922D01*
X509681Y482887D01*
X509740Y482849D01*
X509796Y482807D01*
X509850Y482763D01*
X509902Y482715D01*
X509950Y482665D01*
X509996Y482612D01*
X510039Y482557D01*
X510079Y482500D01*
X510116Y482440D01*
X510149Y482378D01*
X510179Y482315D01*
X510205Y482250D01*
X510228Y482184D01*
X510247Y482117D01*
X510262Y482048D01*
X510274Y481979D01*
X510282Y481910D01*
X510286Y481840D01*
X510286Y481770D01*
X510282Y481700D01*
X510274Y481631D01*
X510262Y481562D01*
X510247Y481493D01*
X510228Y481426D01*
X510205Y481360D01*
X510179Y481295D01*
X510149Y481232D01*
X510116Y481170D01*
X510079Y481110D01*
X510039Y481053D01*
X509996Y480998D01*
X509950Y480945D01*
X509902Y480895D01*
X509850Y480847D01*
X509796Y480803D01*
X509740Y480761D01*
X509681Y480723D01*
X509620Y480688D01*
X509558Y480656D01*
X509494Y480628D01*
X509428Y480604D01*
X509362Y480583D01*
X509294Y480566D01*
X509225Y480552D01*
X509156Y480543D01*
X509086Y480537D01*
X509016Y480535D01*
X509016Y485259D02*
X505714Y485259D01*
X509016Y485259D02*
X509086Y485261D01*
X509156Y485267D01*
X509225Y485276D01*
X509294Y485290D01*
X509362Y485307D01*
X509428Y485328D01*
X509494Y485352D01*
X509558Y485380D01*
X509620Y485412D01*
X509681Y485447D01*
X509740Y485485D01*
X509796Y485527D01*
X509850Y485571D01*
X509902Y485619D01*
X509950Y485669D01*
X509996Y485722D01*
X510039Y485777D01*
X510079Y485834D01*
X510116Y485894D01*
X510149Y485956D01*
X510179Y486019D01*
X510205Y486084D01*
X510228Y486150D01*
X510247Y486217D01*
X510262Y486286D01*
X510274Y486355D01*
X510282Y486424D01*
X510286Y486494D01*
X510286Y486564D01*
X510282Y486634D01*
X510274Y486703D01*
X510262Y486772D01*
X510247Y486841D01*
X510228Y486908D01*
X510205Y486974D01*
X510179Y487039D01*
X510149Y487102D01*
X510116Y487164D01*
X510079Y487224D01*
X510039Y487281D01*
X509996Y487336D01*
X509950Y487389D01*
X509902Y487439D01*
X509850Y487487D01*
X509796Y487531D01*
X509740Y487573D01*
X509681Y487611D01*
X509620Y487646D01*
X509558Y487678D01*
X509494Y487706D01*
X509428Y487730D01*
X509362Y487751D01*
X509294Y487768D01*
X509225Y487782D01*
X509156Y487791D01*
X509086Y487797D01*
X509016Y487799D01*
X505714Y487799D01*
X505714Y490949D02*
X510286Y490949D01*
X505714Y489679D02*
X505714Y492219D01*
X505714Y185674D02*
X510286Y185674D01*
X505714Y185674D02*
X505714Y186944D01*
X505716Y187014D01*
X505722Y187084D01*
X505731Y187153D01*
X505745Y187222D01*
X505762Y187290D01*
X505783Y187356D01*
X505807Y187422D01*
X505835Y187486D01*
X505867Y187548D01*
X505902Y187609D01*
X505940Y187668D01*
X505982Y187724D01*
X506026Y187778D01*
X506074Y187830D01*
X506124Y187878D01*
X506177Y187924D01*
X506232Y187967D01*
X506289Y188007D01*
X506349Y188044D01*
X506411Y188077D01*
X506474Y188107D01*
X506539Y188133D01*
X506605Y188156D01*
X506672Y188175D01*
X506741Y188190D01*
X506810Y188202D01*
X506879Y188210D01*
X506949Y188214D01*
X507019Y188214D01*
X507089Y188210D01*
X507158Y188202D01*
X507227Y188190D01*
X507296Y188175D01*
X507363Y188156D01*
X507429Y188133D01*
X507494Y188107D01*
X507557Y188077D01*
X507619Y188044D01*
X507679Y188007D01*
X507736Y187967D01*
X507791Y187924D01*
X507844Y187878D01*
X507894Y187830D01*
X507942Y187778D01*
X507986Y187724D01*
X508028Y187668D01*
X508066Y187609D01*
X508101Y187548D01*
X508133Y187486D01*
X508161Y187422D01*
X508185Y187356D01*
X508206Y187290D01*
X508223Y187222D01*
X508237Y187153D01*
X508246Y187084D01*
X508252Y187014D01*
X508254Y186944D01*
X508254Y185674D01*
X508254Y187198D02*
X510286Y188214D01*
X509016Y190213D02*
X506984Y190213D01*
X506914Y190215D01*
X506844Y190221D01*
X506775Y190230D01*
X506706Y190244D01*
X506638Y190261D01*
X506572Y190282D01*
X506506Y190306D01*
X506442Y190334D01*
X506380Y190366D01*
X506319Y190401D01*
X506260Y190439D01*
X506204Y190481D01*
X506150Y190525D01*
X506098Y190573D01*
X506050Y190623D01*
X506004Y190676D01*
X505961Y190731D01*
X505921Y190788D01*
X505884Y190848D01*
X505851Y190910D01*
X505821Y190973D01*
X505795Y191038D01*
X505772Y191104D01*
X505753Y191171D01*
X505738Y191240D01*
X505726Y191309D01*
X505718Y191378D01*
X505714Y191448D01*
X505714Y191518D01*
X505718Y191588D01*
X505726Y191657D01*
X505738Y191726D01*
X505753Y191795D01*
X505772Y191862D01*
X505795Y191928D01*
X505821Y191993D01*
X505851Y192056D01*
X505884Y192118D01*
X505921Y192178D01*
X505961Y192235D01*
X506004Y192290D01*
X506050Y192343D01*
X506098Y192393D01*
X506150Y192441D01*
X506204Y192485D01*
X506260Y192527D01*
X506319Y192565D01*
X506380Y192600D01*
X506442Y192632D01*
X506506Y192660D01*
X506572Y192684D01*
X506638Y192705D01*
X506706Y192722D01*
X506775Y192736D01*
X506844Y192745D01*
X506914Y192751D01*
X506984Y192753D01*
X509016Y192753D01*
X509086Y192751D01*
X509156Y192745D01*
X509225Y192736D01*
X509294Y192722D01*
X509362Y192705D01*
X509428Y192684D01*
X509494Y192660D01*
X509558Y192632D01*
X509620Y192600D01*
X509681Y192565D01*
X509740Y192527D01*
X509796Y192485D01*
X509850Y192441D01*
X509902Y192393D01*
X509950Y192343D01*
X509996Y192290D01*
X510039Y192235D01*
X510079Y192178D01*
X510116Y192118D01*
X510149Y192056D01*
X510179Y191993D01*
X510205Y191928D01*
X510228Y191862D01*
X510247Y191795D01*
X510262Y191726D01*
X510274Y191657D01*
X510282Y191588D01*
X510286Y191518D01*
X510286Y191448D01*
X510282Y191378D01*
X510274Y191309D01*
X510262Y191240D01*
X510247Y191171D01*
X510228Y191104D01*
X510205Y191038D01*
X510179Y190973D01*
X510149Y190910D01*
X510116Y190848D01*
X510079Y190788D01*
X510039Y190731D01*
X509996Y190676D01*
X509950Y190623D01*
X509902Y190573D01*
X509850Y190525D01*
X509796Y190481D01*
X509740Y190439D01*
X509681Y190401D01*
X509620Y190366D01*
X509558Y190334D01*
X509494Y190306D01*
X509428Y190282D01*
X509362Y190261D01*
X509294Y190244D01*
X509225Y190230D01*
X509156Y190221D01*
X509086Y190215D01*
X509016Y190213D01*
X509016Y194937D02*
X505714Y194937D01*
X509016Y194937D02*
X509086Y194939D01*
X509156Y194945D01*
X509225Y194954D01*
X509294Y194968D01*
X509362Y194985D01*
X509428Y195006D01*
X509494Y195030D01*
X509558Y195058D01*
X509620Y195090D01*
X509681Y195125D01*
X509740Y195163D01*
X509796Y195205D01*
X509850Y195249D01*
X509902Y195297D01*
X509950Y195347D01*
X509996Y195400D01*
X510039Y195455D01*
X510079Y195512D01*
X510116Y195572D01*
X510149Y195634D01*
X510179Y195697D01*
X510205Y195762D01*
X510228Y195828D01*
X510247Y195895D01*
X510262Y195964D01*
X510274Y196033D01*
X510282Y196102D01*
X510286Y196172D01*
X510286Y196242D01*
X510282Y196312D01*
X510274Y196381D01*
X510262Y196450D01*
X510247Y196519D01*
X510228Y196586D01*
X510205Y196652D01*
X510179Y196717D01*
X510149Y196780D01*
X510116Y196842D01*
X510079Y196902D01*
X510039Y196959D01*
X509996Y197014D01*
X509950Y197067D01*
X509902Y197117D01*
X509850Y197165D01*
X509796Y197209D01*
X509740Y197251D01*
X509681Y197289D01*
X509620Y197324D01*
X509558Y197356D01*
X509494Y197384D01*
X509428Y197408D01*
X509362Y197429D01*
X509294Y197446D01*
X509225Y197460D01*
X509156Y197469D01*
X509086Y197475D01*
X509016Y197477D01*
X505714Y197477D01*
X505714Y200627D02*
X510286Y200627D01*
X505714Y199357D02*
X505714Y201897D01*
X510286Y203787D02*
X510286Y205819D01*
X510286Y203787D02*
X505714Y203787D01*
X505714Y205819D01*
X507746Y205311D02*
X507746Y203787D01*
X506984Y210025D02*
X509016Y210025D01*
X506984Y210025D02*
X506914Y210027D01*
X506844Y210033D01*
X506775Y210042D01*
X506706Y210056D01*
X506638Y210073D01*
X506572Y210094D01*
X506506Y210118D01*
X506442Y210146D01*
X506380Y210178D01*
X506319Y210213D01*
X506260Y210251D01*
X506204Y210293D01*
X506150Y210337D01*
X506098Y210385D01*
X506050Y210435D01*
X506004Y210488D01*
X505961Y210543D01*
X505921Y210600D01*
X505884Y210660D01*
X505851Y210722D01*
X505821Y210785D01*
X505795Y210850D01*
X505772Y210916D01*
X505753Y210983D01*
X505738Y211052D01*
X505726Y211121D01*
X505718Y211190D01*
X505714Y211260D01*
X505714Y211330D01*
X505718Y211400D01*
X505726Y211469D01*
X505738Y211538D01*
X505753Y211607D01*
X505772Y211674D01*
X505795Y211740D01*
X505821Y211805D01*
X505851Y211868D01*
X505884Y211930D01*
X505921Y211990D01*
X505961Y212047D01*
X506004Y212102D01*
X506050Y212155D01*
X506098Y212205D01*
X506150Y212253D01*
X506204Y212297D01*
X506260Y212339D01*
X506319Y212377D01*
X506380Y212412D01*
X506442Y212444D01*
X506506Y212472D01*
X506572Y212496D01*
X506638Y212517D01*
X506706Y212534D01*
X506775Y212548D01*
X506844Y212557D01*
X506914Y212563D01*
X506984Y212565D01*
X509016Y212565D01*
X509086Y212563D01*
X509156Y212557D01*
X509225Y212548D01*
X509294Y212534D01*
X509362Y212517D01*
X509428Y212496D01*
X509494Y212472D01*
X509558Y212444D01*
X509620Y212412D01*
X509681Y212377D01*
X509740Y212339D01*
X509796Y212297D01*
X509850Y212253D01*
X509902Y212205D01*
X509950Y212155D01*
X509996Y212102D01*
X510039Y212047D01*
X510079Y211990D01*
X510116Y211930D01*
X510149Y211868D01*
X510179Y211805D01*
X510205Y211740D01*
X510228Y211674D01*
X510247Y211607D01*
X510262Y211538D01*
X510274Y211469D01*
X510282Y211400D01*
X510286Y211330D01*
X510286Y211260D01*
X510282Y211190D01*
X510274Y211121D01*
X510262Y211052D01*
X510247Y210983D01*
X510228Y210916D01*
X510205Y210850D01*
X510179Y210785D01*
X510149Y210722D01*
X510116Y210660D01*
X510079Y210600D01*
X510039Y210543D01*
X509996Y210488D01*
X509950Y210435D01*
X509902Y210385D01*
X509850Y210337D01*
X509796Y210293D01*
X509740Y210251D01*
X509681Y210213D01*
X509620Y210178D01*
X509558Y210146D01*
X509494Y210118D01*
X509428Y210094D01*
X509362Y210073D01*
X509294Y210056D01*
X509225Y210042D01*
X509156Y210033D01*
X509086Y210027D01*
X509016Y210025D01*
X509016Y214749D02*
X505714Y214749D01*
X509016Y214749D02*
X509086Y214751D01*
X509156Y214757D01*
X509225Y214766D01*
X509294Y214780D01*
X509362Y214797D01*
X509428Y214818D01*
X509494Y214842D01*
X509558Y214870D01*
X509620Y214902D01*
X509681Y214937D01*
X509740Y214975D01*
X509796Y215017D01*
X509850Y215061D01*
X509902Y215109D01*
X509950Y215159D01*
X509996Y215212D01*
X510039Y215267D01*
X510079Y215324D01*
X510116Y215384D01*
X510149Y215446D01*
X510179Y215509D01*
X510205Y215574D01*
X510228Y215640D01*
X510247Y215707D01*
X510262Y215776D01*
X510274Y215845D01*
X510282Y215914D01*
X510286Y215984D01*
X510286Y216054D01*
X510282Y216124D01*
X510274Y216193D01*
X510262Y216262D01*
X510247Y216331D01*
X510228Y216398D01*
X510205Y216464D01*
X510179Y216529D01*
X510149Y216592D01*
X510116Y216654D01*
X510079Y216714D01*
X510039Y216771D01*
X509996Y216826D01*
X509950Y216879D01*
X509902Y216929D01*
X509850Y216977D01*
X509796Y217021D01*
X509740Y217063D01*
X509681Y217101D01*
X509620Y217136D01*
X509558Y217168D01*
X509494Y217196D01*
X509428Y217220D01*
X509362Y217241D01*
X509294Y217258D01*
X509225Y217272D01*
X509156Y217281D01*
X509086Y217287D01*
X509016Y217289D01*
X505714Y217289D01*
X505714Y220439D02*
X510286Y220439D01*
X505714Y219169D02*
X505714Y221709D01*
X505714Y34544D02*
X510286Y34544D01*
X505714Y34544D02*
X505714Y35814D01*
X505716Y35884D01*
X505722Y35954D01*
X505731Y36023D01*
X505745Y36092D01*
X505762Y36160D01*
X505783Y36226D01*
X505807Y36292D01*
X505835Y36356D01*
X505867Y36418D01*
X505902Y36479D01*
X505940Y36538D01*
X505982Y36594D01*
X506026Y36648D01*
X506074Y36700D01*
X506124Y36748D01*
X506177Y36794D01*
X506232Y36837D01*
X506289Y36877D01*
X506349Y36914D01*
X506411Y36947D01*
X506474Y36977D01*
X506539Y37003D01*
X506605Y37026D01*
X506672Y37045D01*
X506741Y37060D01*
X506810Y37072D01*
X506879Y37080D01*
X506949Y37084D01*
X507019Y37084D01*
X507089Y37080D01*
X507158Y37072D01*
X507227Y37060D01*
X507296Y37045D01*
X507363Y37026D01*
X507429Y37003D01*
X507494Y36977D01*
X507557Y36947D01*
X507619Y36914D01*
X507679Y36877D01*
X507736Y36837D01*
X507791Y36794D01*
X507844Y36748D01*
X507894Y36700D01*
X507942Y36648D01*
X507986Y36594D01*
X508028Y36538D01*
X508066Y36479D01*
X508101Y36418D01*
X508133Y36356D01*
X508161Y36292D01*
X508185Y36226D01*
X508206Y36160D01*
X508223Y36092D01*
X508237Y36023D01*
X508246Y35954D01*
X508252Y35884D01*
X508254Y35814D01*
X508254Y34544D01*
X508254Y36068D02*
X510286Y37084D01*
X509016Y39083D02*
X506984Y39083D01*
X506914Y39085D01*
X506844Y39091D01*
X506775Y39100D01*
X506706Y39114D01*
X506638Y39131D01*
X506572Y39152D01*
X506506Y39176D01*
X506442Y39204D01*
X506380Y39236D01*
X506319Y39271D01*
X506260Y39309D01*
X506204Y39351D01*
X506150Y39395D01*
X506098Y39443D01*
X506050Y39493D01*
X506004Y39546D01*
X505961Y39601D01*
X505921Y39658D01*
X505884Y39718D01*
X505851Y39780D01*
X505821Y39843D01*
X505795Y39908D01*
X505772Y39974D01*
X505753Y40041D01*
X505738Y40110D01*
X505726Y40179D01*
X505718Y40248D01*
X505714Y40318D01*
X505714Y40388D01*
X505718Y40458D01*
X505726Y40527D01*
X505738Y40596D01*
X505753Y40665D01*
X505772Y40732D01*
X505795Y40798D01*
X505821Y40863D01*
X505851Y40926D01*
X505884Y40988D01*
X505921Y41048D01*
X505961Y41105D01*
X506004Y41160D01*
X506050Y41213D01*
X506098Y41263D01*
X506150Y41311D01*
X506204Y41355D01*
X506260Y41397D01*
X506319Y41435D01*
X506380Y41470D01*
X506442Y41502D01*
X506506Y41530D01*
X506572Y41554D01*
X506638Y41575D01*
X506706Y41592D01*
X506775Y41606D01*
X506844Y41615D01*
X506914Y41621D01*
X506984Y41623D01*
X509016Y41623D01*
X509086Y41621D01*
X509156Y41615D01*
X509225Y41606D01*
X509294Y41592D01*
X509362Y41575D01*
X509428Y41554D01*
X509494Y41530D01*
X509558Y41502D01*
X509620Y41470D01*
X509681Y41435D01*
X509740Y41397D01*
X509796Y41355D01*
X509850Y41311D01*
X509902Y41263D01*
X509950Y41213D01*
X509996Y41160D01*
X510039Y41105D01*
X510079Y41048D01*
X510116Y40988D01*
X510149Y40926D01*
X510179Y40863D01*
X510205Y40798D01*
X510228Y40732D01*
X510247Y40665D01*
X510262Y40596D01*
X510274Y40527D01*
X510282Y40458D01*
X510286Y40388D01*
X510286Y40318D01*
X510282Y40248D01*
X510274Y40179D01*
X510262Y40110D01*
X510247Y40041D01*
X510228Y39974D01*
X510205Y39908D01*
X510179Y39843D01*
X510149Y39780D01*
X510116Y39718D01*
X510079Y39658D01*
X510039Y39601D01*
X509996Y39546D01*
X509950Y39493D01*
X509902Y39443D01*
X509850Y39395D01*
X509796Y39351D01*
X509740Y39309D01*
X509681Y39271D01*
X509620Y39236D01*
X509558Y39204D01*
X509494Y39176D01*
X509428Y39152D01*
X509362Y39131D01*
X509294Y39114D01*
X509225Y39100D01*
X509156Y39091D01*
X509086Y39085D01*
X509016Y39083D01*
X509016Y43807D02*
X505714Y43807D01*
X509016Y43807D02*
X509086Y43809D01*
X509156Y43815D01*
X509225Y43824D01*
X509294Y43838D01*
X509362Y43855D01*
X509428Y43876D01*
X509494Y43900D01*
X509558Y43928D01*
X509620Y43960D01*
X509681Y43995D01*
X509740Y44033D01*
X509796Y44075D01*
X509850Y44119D01*
X509902Y44167D01*
X509950Y44217D01*
X509996Y44270D01*
X510039Y44325D01*
X510079Y44382D01*
X510116Y44442D01*
X510149Y44504D01*
X510179Y44567D01*
X510205Y44632D01*
X510228Y44698D01*
X510247Y44765D01*
X510262Y44834D01*
X510274Y44903D01*
X510282Y44972D01*
X510286Y45042D01*
X510286Y45112D01*
X510282Y45182D01*
X510274Y45251D01*
X510262Y45320D01*
X510247Y45389D01*
X510228Y45456D01*
X510205Y45522D01*
X510179Y45587D01*
X510149Y45650D01*
X510116Y45712D01*
X510079Y45772D01*
X510039Y45829D01*
X509996Y45884D01*
X509950Y45937D01*
X509902Y45987D01*
X509850Y46035D01*
X509796Y46079D01*
X509740Y46121D01*
X509681Y46159D01*
X509620Y46194D01*
X509558Y46226D01*
X509494Y46254D01*
X509428Y46278D01*
X509362Y46299D01*
X509294Y46316D01*
X509225Y46330D01*
X509156Y46339D01*
X509086Y46345D01*
X509016Y46347D01*
X505714Y46347D01*
X505714Y49497D02*
X510286Y49497D01*
X505714Y48227D02*
X505714Y50767D01*
X510286Y52657D02*
X510286Y54689D01*
X510286Y52657D02*
X505714Y52657D01*
X505714Y54689D01*
X507746Y54181D02*
X507746Y52657D01*
X506984Y58895D02*
X509016Y58895D01*
X506984Y58895D02*
X506914Y58897D01*
X506844Y58903D01*
X506775Y58912D01*
X506706Y58926D01*
X506638Y58943D01*
X506572Y58964D01*
X506506Y58988D01*
X506442Y59016D01*
X506380Y59048D01*
X506319Y59083D01*
X506260Y59121D01*
X506204Y59163D01*
X506150Y59207D01*
X506098Y59255D01*
X506050Y59305D01*
X506004Y59358D01*
X505961Y59413D01*
X505921Y59470D01*
X505884Y59530D01*
X505851Y59592D01*
X505821Y59655D01*
X505795Y59720D01*
X505772Y59786D01*
X505753Y59853D01*
X505738Y59922D01*
X505726Y59991D01*
X505718Y60060D01*
X505714Y60130D01*
X505714Y60200D01*
X505718Y60270D01*
X505726Y60339D01*
X505738Y60408D01*
X505753Y60477D01*
X505772Y60544D01*
X505795Y60610D01*
X505821Y60675D01*
X505851Y60738D01*
X505884Y60800D01*
X505921Y60860D01*
X505961Y60917D01*
X506004Y60972D01*
X506050Y61025D01*
X506098Y61075D01*
X506150Y61123D01*
X506204Y61167D01*
X506260Y61209D01*
X506319Y61247D01*
X506380Y61282D01*
X506442Y61314D01*
X506506Y61342D01*
X506572Y61366D01*
X506638Y61387D01*
X506706Y61404D01*
X506775Y61418D01*
X506844Y61427D01*
X506914Y61433D01*
X506984Y61435D01*
X509016Y61435D01*
X509086Y61433D01*
X509156Y61427D01*
X509225Y61418D01*
X509294Y61404D01*
X509362Y61387D01*
X509428Y61366D01*
X509494Y61342D01*
X509558Y61314D01*
X509620Y61282D01*
X509681Y61247D01*
X509740Y61209D01*
X509796Y61167D01*
X509850Y61123D01*
X509902Y61075D01*
X509950Y61025D01*
X509996Y60972D01*
X510039Y60917D01*
X510079Y60860D01*
X510116Y60800D01*
X510149Y60738D01*
X510179Y60675D01*
X510205Y60610D01*
X510228Y60544D01*
X510247Y60477D01*
X510262Y60408D01*
X510274Y60339D01*
X510282Y60270D01*
X510286Y60200D01*
X510286Y60130D01*
X510282Y60060D01*
X510274Y59991D01*
X510262Y59922D01*
X510247Y59853D01*
X510228Y59786D01*
X510205Y59720D01*
X510179Y59655D01*
X510149Y59592D01*
X510116Y59530D01*
X510079Y59470D01*
X510039Y59413D01*
X509996Y59358D01*
X509950Y59305D01*
X509902Y59255D01*
X509850Y59207D01*
X509796Y59163D01*
X509740Y59121D01*
X509681Y59083D01*
X509620Y59048D01*
X509558Y59016D01*
X509494Y58988D01*
X509428Y58964D01*
X509362Y58943D01*
X509294Y58926D01*
X509225Y58912D01*
X509156Y58903D01*
X509086Y58897D01*
X509016Y58895D01*
X509016Y63619D02*
X505714Y63619D01*
X509016Y63619D02*
X509086Y63621D01*
X509156Y63627D01*
X509225Y63636D01*
X509294Y63650D01*
X509362Y63667D01*
X509428Y63688D01*
X509494Y63712D01*
X509558Y63740D01*
X509620Y63772D01*
X509681Y63807D01*
X509740Y63845D01*
X509796Y63887D01*
X509850Y63931D01*
X509902Y63979D01*
X509950Y64029D01*
X509996Y64082D01*
X510039Y64137D01*
X510079Y64194D01*
X510116Y64254D01*
X510149Y64316D01*
X510179Y64379D01*
X510205Y64444D01*
X510228Y64510D01*
X510247Y64577D01*
X510262Y64646D01*
X510274Y64715D01*
X510282Y64784D01*
X510286Y64854D01*
X510286Y64924D01*
X510282Y64994D01*
X510274Y65063D01*
X510262Y65132D01*
X510247Y65201D01*
X510228Y65268D01*
X510205Y65334D01*
X510179Y65399D01*
X510149Y65462D01*
X510116Y65524D01*
X510079Y65584D01*
X510039Y65641D01*
X509996Y65696D01*
X509950Y65749D01*
X509902Y65799D01*
X509850Y65847D01*
X509796Y65891D01*
X509740Y65933D01*
X509681Y65971D01*
X509620Y66006D01*
X509558Y66038D01*
X509494Y66066D01*
X509428Y66090D01*
X509362Y66111D01*
X509294Y66128D01*
X509225Y66142D01*
X509156Y66151D01*
X509086Y66157D01*
X509016Y66159D01*
X505714Y66159D01*
X505714Y69309D02*
X510286Y69309D01*
X505714Y68039D02*
X505714Y70579D01*
D10*
X513080Y359410D02*
X513080Y579120D01*
D12*
X808990Y25400D02*
X808995Y25805D01*
X809010Y26210D01*
X809035Y26615D01*
X809070Y27018D01*
X809114Y27421D01*
X809169Y27823D01*
X809233Y28223D01*
X809307Y28621D01*
X809391Y29017D01*
X809485Y29412D01*
X809588Y29803D01*
X809701Y30193D01*
X809823Y30579D01*
X809955Y30962D01*
X810096Y31342D01*
X810247Y31718D01*
X810406Y32091D01*
X810575Y32459D01*
X810753Y32823D01*
X810939Y33183D01*
X811135Y33538D01*
X811339Y33888D01*
X811551Y34233D01*
X811772Y34572D01*
X812002Y34907D01*
X812239Y35235D01*
X812484Y35557D01*
X812738Y35874D01*
X812998Y36184D01*
X813267Y36487D01*
X813543Y36784D01*
X813826Y37074D01*
X814116Y37357D01*
X814413Y37633D01*
X814716Y37902D01*
X815026Y38162D01*
X815343Y38416D01*
X815665Y38661D01*
X815993Y38898D01*
X816328Y39128D01*
X816667Y39349D01*
X817012Y39561D01*
X817362Y39765D01*
X817717Y39961D01*
X818077Y40147D01*
X818441Y40325D01*
X818809Y40494D01*
X819182Y40653D01*
X819558Y40804D01*
X819938Y40945D01*
X820321Y41077D01*
X820707Y41199D01*
X821097Y41312D01*
X821488Y41415D01*
X821883Y41509D01*
X822279Y41593D01*
X822677Y41667D01*
X823077Y41731D01*
X823479Y41786D01*
X823882Y41830D01*
X824285Y41865D01*
X824690Y41890D01*
X825095Y41905D01*
X825500Y41910D01*
X825905Y41905D01*
X826310Y41890D01*
X826715Y41865D01*
X827118Y41830D01*
X827521Y41786D01*
X827923Y41731D01*
X828323Y41667D01*
X828721Y41593D01*
X829117Y41509D01*
X829512Y41415D01*
X829903Y41312D01*
X830293Y41199D01*
X830679Y41077D01*
X831062Y40945D01*
X831442Y40804D01*
X831818Y40653D01*
X832191Y40494D01*
X832559Y40325D01*
X832923Y40147D01*
X833283Y39961D01*
X833638Y39765D01*
X833988Y39561D01*
X834333Y39349D01*
X834672Y39128D01*
X835007Y38898D01*
X835335Y38661D01*
X835657Y38416D01*
X835974Y38162D01*
X836284Y37902D01*
X836587Y37633D01*
X836884Y37357D01*
X837174Y37074D01*
X837457Y36784D01*
X837733Y36487D01*
X838002Y36184D01*
X838262Y35874D01*
X838516Y35557D01*
X838761Y35235D01*
X838998Y34907D01*
X839228Y34572D01*
X839449Y34233D01*
X839661Y33888D01*
X839865Y33538D01*
X840061Y33183D01*
X840247Y32823D01*
X840425Y32459D01*
X840594Y32091D01*
X840753Y31718D01*
X840904Y31342D01*
X841045Y30962D01*
X841177Y30579D01*
X841299Y30193D01*
X841412Y29803D01*
X841515Y29412D01*
X841609Y29017D01*
X841693Y28621D01*
X841767Y28223D01*
X841831Y27823D01*
X841886Y27421D01*
X841930Y27018D01*
X841965Y26615D01*
X841990Y26210D01*
X842005Y25805D01*
X842010Y25400D01*
X842005Y24995D01*
X841990Y24590D01*
X841965Y24185D01*
X841930Y23782D01*
X841886Y23379D01*
X841831Y22977D01*
X841767Y22577D01*
X841693Y22179D01*
X841609Y21783D01*
X841515Y21388D01*
X841412Y20997D01*
X841299Y20607D01*
X841177Y20221D01*
X841045Y19838D01*
X840904Y19458D01*
X840753Y19082D01*
X840594Y18709D01*
X840425Y18341D01*
X840247Y17977D01*
X840061Y17617D01*
X839865Y17262D01*
X839661Y16912D01*
X839449Y16567D01*
X839228Y16228D01*
X838998Y15893D01*
X838761Y15565D01*
X838516Y15243D01*
X838262Y14926D01*
X838002Y14616D01*
X837733Y14313D01*
X837457Y14016D01*
X837174Y13726D01*
X836884Y13443D01*
X836587Y13167D01*
X836284Y12898D01*
X835974Y12638D01*
X835657Y12384D01*
X835335Y12139D01*
X835007Y11902D01*
X834672Y11672D01*
X834333Y11451D01*
X833988Y11239D01*
X833638Y11035D01*
X833283Y10839D01*
X832923Y10653D01*
X832559Y10475D01*
X832191Y10306D01*
X831818Y10147D01*
X831442Y9996D01*
X831062Y9855D01*
X830679Y9723D01*
X830293Y9601D01*
X829903Y9488D01*
X829512Y9385D01*
X829117Y9291D01*
X828721Y9207D01*
X828323Y9133D01*
X827923Y9069D01*
X827521Y9014D01*
X827118Y8970D01*
X826715Y8935D01*
X826310Y8910D01*
X825905Y8895D01*
X825500Y8890D01*
X825095Y8895D01*
X824690Y8910D01*
X824285Y8935D01*
X823882Y8970D01*
X823479Y9014D01*
X823077Y9069D01*
X822677Y9133D01*
X822279Y9207D01*
X821883Y9291D01*
X821488Y9385D01*
X821097Y9488D01*
X820707Y9601D01*
X820321Y9723D01*
X819938Y9855D01*
X819558Y9996D01*
X819182Y10147D01*
X818809Y10306D01*
X818441Y10475D01*
X818077Y10653D01*
X817717Y10839D01*
X817362Y11035D01*
X817012Y11239D01*
X816667Y11451D01*
X816328Y11672D01*
X815993Y11902D01*
X815665Y12139D01*
X815343Y12384D01*
X815026Y12638D01*
X814716Y12898D01*
X814413Y13167D01*
X814116Y13443D01*
X813826Y13726D01*
X813543Y14016D01*
X813267Y14313D01*
X812998Y14616D01*
X812738Y14926D01*
X812484Y15243D01*
X812239Y15565D01*
X812002Y15893D01*
X811772Y16228D01*
X811551Y16567D01*
X811339Y16912D01*
X811135Y17262D01*
X810939Y17617D01*
X810753Y17977D01*
X810575Y18341D01*
X810406Y18709D01*
X810247Y19082D01*
X810096Y19458D01*
X809955Y19838D01*
X809823Y20221D01*
X809701Y20607D01*
X809588Y20997D01*
X809485Y21388D01*
X809391Y21783D01*
X809307Y22179D01*
X809233Y22577D01*
X809169Y22977D01*
X809114Y23379D01*
X809070Y23782D01*
X809035Y24185D01*
X809010Y24590D01*
X808995Y24995D01*
X808990Y25400D01*
X808990Y584200D02*
X808995Y584605D01*
X809010Y585010D01*
X809035Y585415D01*
X809070Y585818D01*
X809114Y586221D01*
X809169Y586623D01*
X809233Y587023D01*
X809307Y587421D01*
X809391Y587817D01*
X809485Y588212D01*
X809588Y588603D01*
X809701Y588993D01*
X809823Y589379D01*
X809955Y589762D01*
X810096Y590142D01*
X810247Y590518D01*
X810406Y590891D01*
X810575Y591259D01*
X810753Y591623D01*
X810939Y591983D01*
X811135Y592338D01*
X811339Y592688D01*
X811551Y593033D01*
X811772Y593372D01*
X812002Y593707D01*
X812239Y594035D01*
X812484Y594357D01*
X812738Y594674D01*
X812998Y594984D01*
X813267Y595287D01*
X813543Y595584D01*
X813826Y595874D01*
X814116Y596157D01*
X814413Y596433D01*
X814716Y596702D01*
X815026Y596962D01*
X815343Y597216D01*
X815665Y597461D01*
X815993Y597698D01*
X816328Y597928D01*
X816667Y598149D01*
X817012Y598361D01*
X817362Y598565D01*
X817717Y598761D01*
X818077Y598947D01*
X818441Y599125D01*
X818809Y599294D01*
X819182Y599453D01*
X819558Y599604D01*
X819938Y599745D01*
X820321Y599877D01*
X820707Y599999D01*
X821097Y600112D01*
X821488Y600215D01*
X821883Y600309D01*
X822279Y600393D01*
X822677Y600467D01*
X823077Y600531D01*
X823479Y600586D01*
X823882Y600630D01*
X824285Y600665D01*
X824690Y600690D01*
X825095Y600705D01*
X825500Y600710D01*
X825905Y600705D01*
X826310Y600690D01*
X826715Y600665D01*
X827118Y600630D01*
X827521Y600586D01*
X827923Y600531D01*
X828323Y600467D01*
X828721Y600393D01*
X829117Y600309D01*
X829512Y600215D01*
X829903Y600112D01*
X830293Y599999D01*
X830679Y599877D01*
X831062Y599745D01*
X831442Y599604D01*
X831818Y599453D01*
X832191Y599294D01*
X832559Y599125D01*
X832923Y598947D01*
X833283Y598761D01*
X833638Y598565D01*
X833988Y598361D01*
X834333Y598149D01*
X834672Y597928D01*
X835007Y597698D01*
X835335Y597461D01*
X835657Y597216D01*
X835974Y596962D01*
X836284Y596702D01*
X836587Y596433D01*
X836884Y596157D01*
X837174Y595874D01*
X837457Y595584D01*
X837733Y595287D01*
X838002Y594984D01*
X838262Y594674D01*
X838516Y594357D01*
X838761Y594035D01*
X838998Y593707D01*
X839228Y593372D01*
X839449Y593033D01*
X839661Y592688D01*
X839865Y592338D01*
X840061Y591983D01*
X840247Y591623D01*
X840425Y591259D01*
X840594Y590891D01*
X840753Y590518D01*
X840904Y590142D01*
X841045Y589762D01*
X841177Y589379D01*
X841299Y588993D01*
X841412Y588603D01*
X841515Y588212D01*
X841609Y587817D01*
X841693Y587421D01*
X841767Y587023D01*
X841831Y586623D01*
X841886Y586221D01*
X841930Y585818D01*
X841965Y585415D01*
X841990Y585010D01*
X842005Y584605D01*
X842010Y584200D01*
X842005Y583795D01*
X841990Y583390D01*
X841965Y582985D01*
X841930Y582582D01*
X841886Y582179D01*
X841831Y581777D01*
X841767Y581377D01*
X841693Y580979D01*
X841609Y580583D01*
X841515Y580188D01*
X841412Y579797D01*
X841299Y579407D01*
X841177Y579021D01*
X841045Y578638D01*
X840904Y578258D01*
X840753Y577882D01*
X840594Y577509D01*
X840425Y577141D01*
X840247Y576777D01*
X840061Y576417D01*
X839865Y576062D01*
X839661Y575712D01*
X839449Y575367D01*
X839228Y575028D01*
X838998Y574693D01*
X838761Y574365D01*
X838516Y574043D01*
X838262Y573726D01*
X838002Y573416D01*
X837733Y573113D01*
X837457Y572816D01*
X837174Y572526D01*
X836884Y572243D01*
X836587Y571967D01*
X836284Y571698D01*
X835974Y571438D01*
X835657Y571184D01*
X835335Y570939D01*
X835007Y570702D01*
X834672Y570472D01*
X834333Y570251D01*
X833988Y570039D01*
X833638Y569835D01*
X833283Y569639D01*
X832923Y569453D01*
X832559Y569275D01*
X832191Y569106D01*
X831818Y568947D01*
X831442Y568796D01*
X831062Y568655D01*
X830679Y568523D01*
X830293Y568401D01*
X829903Y568288D01*
X829512Y568185D01*
X829117Y568091D01*
X828721Y568007D01*
X828323Y567933D01*
X827923Y567869D01*
X827521Y567814D01*
X827118Y567770D01*
X826715Y567735D01*
X826310Y567710D01*
X825905Y567695D01*
X825500Y567690D01*
X825095Y567695D01*
X824690Y567710D01*
X824285Y567735D01*
X823882Y567770D01*
X823479Y567814D01*
X823077Y567869D01*
X822677Y567933D01*
X822279Y568007D01*
X821883Y568091D01*
X821488Y568185D01*
X821097Y568288D01*
X820707Y568401D01*
X820321Y568523D01*
X819938Y568655D01*
X819558Y568796D01*
X819182Y568947D01*
X818809Y569106D01*
X818441Y569275D01*
X818077Y569453D01*
X817717Y569639D01*
X817362Y569835D01*
X817012Y570039D01*
X816667Y570251D01*
X816328Y570472D01*
X815993Y570702D01*
X815665Y570939D01*
X815343Y571184D01*
X815026Y571438D01*
X814716Y571698D01*
X814413Y571967D01*
X814116Y572243D01*
X813826Y572526D01*
X813543Y572816D01*
X813267Y573113D01*
X812998Y573416D01*
X812738Y573726D01*
X812484Y574043D01*
X812239Y574365D01*
X812002Y574693D01*
X811772Y575028D01*
X811551Y575367D01*
X811339Y575712D01*
X811135Y576062D01*
X810939Y576417D01*
X810753Y576777D01*
X810575Y577141D01*
X810406Y577509D01*
X810247Y577882D01*
X810096Y578258D01*
X809955Y578638D01*
X809823Y579021D01*
X809701Y579407D01*
X809588Y579797D01*
X809485Y580188D01*
X809391Y580583D01*
X809307Y580979D01*
X809233Y581377D01*
X809169Y581777D01*
X809114Y582179D01*
X809070Y582582D01*
X809035Y582985D01*
X809010Y583390D01*
X808995Y583795D01*
X808990Y584200D01*
X8890Y584200D02*
X8895Y584605D01*
X8910Y585010D01*
X8935Y585415D01*
X8970Y585818D01*
X9014Y586221D01*
X9069Y586623D01*
X9133Y587023D01*
X9207Y587421D01*
X9291Y587817D01*
X9385Y588212D01*
X9488Y588603D01*
X9601Y588993D01*
X9723Y589379D01*
X9855Y589762D01*
X9996Y590142D01*
X10147Y590518D01*
X10306Y590891D01*
X10475Y591259D01*
X10653Y591623D01*
X10839Y591983D01*
X11035Y592338D01*
X11239Y592688D01*
X11451Y593033D01*
X11672Y593372D01*
X11902Y593707D01*
X12139Y594035D01*
X12384Y594357D01*
X12638Y594674D01*
X12898Y594984D01*
X13167Y595287D01*
X13443Y595584D01*
X13726Y595874D01*
X14016Y596157D01*
X14313Y596433D01*
X14616Y596702D01*
X14926Y596962D01*
X15243Y597216D01*
X15565Y597461D01*
X15893Y597698D01*
X16228Y597928D01*
X16567Y598149D01*
X16912Y598361D01*
X17262Y598565D01*
X17617Y598761D01*
X17977Y598947D01*
X18341Y599125D01*
X18709Y599294D01*
X19082Y599453D01*
X19458Y599604D01*
X19838Y599745D01*
X20221Y599877D01*
X20607Y599999D01*
X20997Y600112D01*
X21388Y600215D01*
X21783Y600309D01*
X22179Y600393D01*
X22577Y600467D01*
X22977Y600531D01*
X23379Y600586D01*
X23782Y600630D01*
X24185Y600665D01*
X24590Y600690D01*
X24995Y600705D01*
X25400Y600710D01*
X25805Y600705D01*
X26210Y600690D01*
X26615Y600665D01*
X27018Y600630D01*
X27421Y600586D01*
X27823Y600531D01*
X28223Y600467D01*
X28621Y600393D01*
X29017Y600309D01*
X29412Y600215D01*
X29803Y600112D01*
X30193Y599999D01*
X30579Y599877D01*
X30962Y599745D01*
X31342Y599604D01*
X31718Y599453D01*
X32091Y599294D01*
X32459Y599125D01*
X32823Y598947D01*
X33183Y598761D01*
X33538Y598565D01*
X33888Y598361D01*
X34233Y598149D01*
X34572Y597928D01*
X34907Y597698D01*
X35235Y597461D01*
X35557Y597216D01*
X35874Y596962D01*
X36184Y596702D01*
X36487Y596433D01*
X36784Y596157D01*
X37074Y595874D01*
X37357Y595584D01*
X37633Y595287D01*
X37902Y594984D01*
X38162Y594674D01*
X38416Y594357D01*
X38661Y594035D01*
X38898Y593707D01*
X39128Y593372D01*
X39349Y593033D01*
X39561Y592688D01*
X39765Y592338D01*
X39961Y591983D01*
X40147Y591623D01*
X40325Y591259D01*
X40494Y590891D01*
X40653Y590518D01*
X40804Y590142D01*
X40945Y589762D01*
X41077Y589379D01*
X41199Y588993D01*
X41312Y588603D01*
X41415Y588212D01*
X41509Y587817D01*
X41593Y587421D01*
X41667Y587023D01*
X41731Y586623D01*
X41786Y586221D01*
X41830Y585818D01*
X41865Y585415D01*
X41890Y585010D01*
X41905Y584605D01*
X41910Y584200D01*
X41905Y583795D01*
X41890Y583390D01*
X41865Y582985D01*
X41830Y582582D01*
X41786Y582179D01*
X41731Y581777D01*
X41667Y581377D01*
X41593Y580979D01*
X41509Y580583D01*
X41415Y580188D01*
X41312Y579797D01*
X41199Y579407D01*
X41077Y579021D01*
X40945Y578638D01*
X40804Y578258D01*
X40653Y577882D01*
X40494Y577509D01*
X40325Y577141D01*
X40147Y576777D01*
X39961Y576417D01*
X39765Y576062D01*
X39561Y575712D01*
X39349Y575367D01*
X39128Y575028D01*
X38898Y574693D01*
X38661Y574365D01*
X38416Y574043D01*
X38162Y573726D01*
X37902Y573416D01*
X37633Y573113D01*
X37357Y572816D01*
X37074Y572526D01*
X36784Y572243D01*
X36487Y571967D01*
X36184Y571698D01*
X35874Y571438D01*
X35557Y571184D01*
X35235Y570939D01*
X34907Y570702D01*
X34572Y570472D01*
X34233Y570251D01*
X33888Y570039D01*
X33538Y569835D01*
X33183Y569639D01*
X32823Y569453D01*
X32459Y569275D01*
X32091Y569106D01*
X31718Y568947D01*
X31342Y568796D01*
X30962Y568655D01*
X30579Y568523D01*
X30193Y568401D01*
X29803Y568288D01*
X29412Y568185D01*
X29017Y568091D01*
X28621Y568007D01*
X28223Y567933D01*
X27823Y567869D01*
X27421Y567814D01*
X27018Y567770D01*
X26615Y567735D01*
X26210Y567710D01*
X25805Y567695D01*
X25400Y567690D01*
X24995Y567695D01*
X24590Y567710D01*
X24185Y567735D01*
X23782Y567770D01*
X23379Y567814D01*
X22977Y567869D01*
X22577Y567933D01*
X22179Y568007D01*
X21783Y568091D01*
X21388Y568185D01*
X20997Y568288D01*
X20607Y568401D01*
X20221Y568523D01*
X19838Y568655D01*
X19458Y568796D01*
X19082Y568947D01*
X18709Y569106D01*
X18341Y569275D01*
X17977Y569453D01*
X17617Y569639D01*
X17262Y569835D01*
X16912Y570039D01*
X16567Y570251D01*
X16228Y570472D01*
X15893Y570702D01*
X15565Y570939D01*
X15243Y571184D01*
X14926Y571438D01*
X14616Y571698D01*
X14313Y571967D01*
X14016Y572243D01*
X13726Y572526D01*
X13443Y572816D01*
X13167Y573113D01*
X12898Y573416D01*
X12638Y573726D01*
X12384Y574043D01*
X12139Y574365D01*
X11902Y574693D01*
X11672Y575028D01*
X11451Y575367D01*
X11239Y575712D01*
X11035Y576062D01*
X10839Y576417D01*
X10653Y576777D01*
X10475Y577141D01*
X10306Y577509D01*
X10147Y577882D01*
X9996Y578258D01*
X9855Y578638D01*
X9723Y579021D01*
X9601Y579407D01*
X9488Y579797D01*
X9385Y580188D01*
X9291Y580583D01*
X9207Y580979D01*
X9133Y581377D01*
X9069Y581777D01*
X9014Y582179D01*
X8970Y582582D01*
X8935Y582985D01*
X8910Y583390D01*
X8895Y583795D01*
X8890Y584200D01*
X8890Y25400D02*
X8895Y25805D01*
X8910Y26210D01*
X8935Y26615D01*
X8970Y27018D01*
X9014Y27421D01*
X9069Y27823D01*
X9133Y28223D01*
X9207Y28621D01*
X9291Y29017D01*
X9385Y29412D01*
X9488Y29803D01*
X9601Y30193D01*
X9723Y30579D01*
X9855Y30962D01*
X9996Y31342D01*
X10147Y31718D01*
X10306Y32091D01*
X10475Y32459D01*
X10653Y32823D01*
X10839Y33183D01*
X11035Y33538D01*
X11239Y33888D01*
X11451Y34233D01*
X11672Y34572D01*
X11902Y34907D01*
X12139Y35235D01*
X12384Y35557D01*
X12638Y35874D01*
X12898Y36184D01*
X13167Y36487D01*
X13443Y36784D01*
X13726Y37074D01*
X14016Y37357D01*
X14313Y37633D01*
X14616Y37902D01*
X14926Y38162D01*
X15243Y38416D01*
X15565Y38661D01*
X15893Y38898D01*
X16228Y39128D01*
X16567Y39349D01*
X16912Y39561D01*
X17262Y39765D01*
X17617Y39961D01*
X17977Y40147D01*
X18341Y40325D01*
X18709Y40494D01*
X19082Y40653D01*
X19458Y40804D01*
X19838Y40945D01*
X20221Y41077D01*
X20607Y41199D01*
X20997Y41312D01*
X21388Y41415D01*
X21783Y41509D01*
X22179Y41593D01*
X22577Y41667D01*
X22977Y41731D01*
X23379Y41786D01*
X23782Y41830D01*
X24185Y41865D01*
X24590Y41890D01*
X24995Y41905D01*
X25400Y41910D01*
X25805Y41905D01*
X26210Y41890D01*
X26615Y41865D01*
X27018Y41830D01*
X27421Y41786D01*
X27823Y41731D01*
X28223Y41667D01*
X28621Y41593D01*
X29017Y41509D01*
X29412Y41415D01*
X29803Y41312D01*
X30193Y41199D01*
X30579Y41077D01*
X30962Y40945D01*
X31342Y40804D01*
X31718Y40653D01*
X32091Y40494D01*
X32459Y40325D01*
X32823Y40147D01*
X33183Y39961D01*
X33538Y39765D01*
X33888Y39561D01*
X34233Y39349D01*
X34572Y39128D01*
X34907Y38898D01*
X35235Y38661D01*
X35557Y38416D01*
X35874Y38162D01*
X36184Y37902D01*
X36487Y37633D01*
X36784Y37357D01*
X37074Y37074D01*
X37357Y36784D01*
X37633Y36487D01*
X37902Y36184D01*
X38162Y35874D01*
X38416Y35557D01*
X38661Y35235D01*
X38898Y34907D01*
X39128Y34572D01*
X39349Y34233D01*
X39561Y33888D01*
X39765Y33538D01*
X39961Y33183D01*
X40147Y32823D01*
X40325Y32459D01*
X40494Y32091D01*
X40653Y31718D01*
X40804Y31342D01*
X40945Y30962D01*
X41077Y30579D01*
X41199Y30193D01*
X41312Y29803D01*
X41415Y29412D01*
X41509Y29017D01*
X41593Y28621D01*
X41667Y28223D01*
X41731Y27823D01*
X41786Y27421D01*
X41830Y27018D01*
X41865Y26615D01*
X41890Y26210D01*
X41905Y25805D01*
X41910Y25400D01*
X41905Y24995D01*
X41890Y24590D01*
X41865Y24185D01*
X41830Y23782D01*
X41786Y23379D01*
X41731Y22977D01*
X41667Y22577D01*
X41593Y22179D01*
X41509Y21783D01*
X41415Y21388D01*
X41312Y20997D01*
X41199Y20607D01*
X41077Y20221D01*
X40945Y19838D01*
X40804Y19458D01*
X40653Y19082D01*
X40494Y18709D01*
X40325Y18341D01*
X40147Y17977D01*
X39961Y17617D01*
X39765Y17262D01*
X39561Y16912D01*
X39349Y16567D01*
X39128Y16228D01*
X38898Y15893D01*
X38661Y15565D01*
X38416Y15243D01*
X38162Y14926D01*
X37902Y14616D01*
X37633Y14313D01*
X37357Y14016D01*
X37074Y13726D01*
X36784Y13443D01*
X36487Y13167D01*
X36184Y12898D01*
X35874Y12638D01*
X35557Y12384D01*
X35235Y12139D01*
X34907Y11902D01*
X34572Y11672D01*
X34233Y11451D01*
X33888Y11239D01*
X33538Y11035D01*
X33183Y10839D01*
X32823Y10653D01*
X32459Y10475D01*
X32091Y10306D01*
X31718Y10147D01*
X31342Y9996D01*
X30962Y9855D01*
X30579Y9723D01*
X30193Y9601D01*
X29803Y9488D01*
X29412Y9385D01*
X29017Y9291D01*
X28621Y9207D01*
X28223Y9133D01*
X27823Y9069D01*
X27421Y9014D01*
X27018Y8970D01*
X26615Y8935D01*
X26210Y8910D01*
X25805Y8895D01*
X25400Y8890D01*
X24995Y8895D01*
X24590Y8910D01*
X24185Y8935D01*
X23782Y8970D01*
X23379Y9014D01*
X22977Y9069D01*
X22577Y9133D01*
X22179Y9207D01*
X21783Y9291D01*
X21388Y9385D01*
X20997Y9488D01*
X20607Y9601D01*
X20221Y9723D01*
X19838Y9855D01*
X19458Y9996D01*
X19082Y10147D01*
X18709Y10306D01*
X18341Y10475D01*
X17977Y10653D01*
X17617Y10839D01*
X17262Y11035D01*
X16912Y11239D01*
X16567Y11451D01*
X16228Y11672D01*
X15893Y11902D01*
X15565Y12139D01*
X15243Y12384D01*
X14926Y12638D01*
X14616Y12898D01*
X14313Y13167D01*
X14016Y13443D01*
X13726Y13726D01*
X13443Y14016D01*
X13167Y14313D01*
X12898Y14616D01*
X12638Y14926D01*
X12384Y15243D01*
X12139Y15565D01*
X11902Y15893D01*
X11672Y16228D01*
X11451Y16567D01*
X11239Y16912D01*
X11035Y17262D01*
X10839Y17617D01*
X10653Y17977D01*
X10475Y18341D01*
X10306Y18709D01*
X10147Y19082D01*
X9996Y19458D01*
X9855Y19838D01*
X9723Y20221D01*
X9601Y20607D01*
X9488Y20997D01*
X9385Y21388D01*
X9291Y21783D01*
X9207Y22179D01*
X9133Y22577D01*
X9069Y22977D01*
X9014Y23379D01*
X8970Y23782D01*
X8935Y24185D01*
X8910Y24590D01*
X8895Y24995D01*
X8890Y25400D01*
X48340Y435300D02*
X48342Y435413D01*
X48348Y435527D01*
X48358Y435640D01*
X48372Y435752D01*
X48389Y435864D01*
X48411Y435976D01*
X48437Y436086D01*
X48466Y436196D01*
X48499Y436304D01*
X48536Y436412D01*
X48577Y436517D01*
X48621Y436622D01*
X48669Y436725D01*
X48720Y436826D01*
X48775Y436925D01*
X48834Y437022D01*
X48896Y437117D01*
X48961Y437210D01*
X49029Y437301D01*
X49100Y437389D01*
X49175Y437475D01*
X49252Y437558D01*
X49332Y437638D01*
X49415Y437715D01*
X49501Y437790D01*
X49589Y437861D01*
X49680Y437929D01*
X49773Y437994D01*
X49868Y438056D01*
X49965Y438115D01*
X50064Y438170D01*
X50165Y438221D01*
X50268Y438269D01*
X50373Y438313D01*
X50478Y438354D01*
X50586Y438391D01*
X50694Y438424D01*
X50804Y438453D01*
X50914Y438479D01*
X51026Y438501D01*
X51138Y438518D01*
X51250Y438532D01*
X51363Y438542D01*
X51477Y438548D01*
X51590Y438550D01*
X51703Y438548D01*
X51817Y438542D01*
X51930Y438532D01*
X52042Y438518D01*
X52154Y438501D01*
X52266Y438479D01*
X52376Y438453D01*
X52486Y438424D01*
X52594Y438391D01*
X52702Y438354D01*
X52807Y438313D01*
X52912Y438269D01*
X53015Y438221D01*
X53116Y438170D01*
X53215Y438115D01*
X53312Y438056D01*
X53407Y437994D01*
X53500Y437929D01*
X53591Y437861D01*
X53679Y437790D01*
X53765Y437715D01*
X53848Y437638D01*
X53928Y437558D01*
X54005Y437475D01*
X54080Y437389D01*
X54151Y437301D01*
X54219Y437210D01*
X54284Y437117D01*
X54346Y437022D01*
X54405Y436925D01*
X54460Y436826D01*
X54511Y436725D01*
X54559Y436622D01*
X54603Y436517D01*
X54644Y436412D01*
X54681Y436304D01*
X54714Y436196D01*
X54743Y436086D01*
X54769Y435976D01*
X54791Y435864D01*
X54808Y435752D01*
X54822Y435640D01*
X54832Y435527D01*
X54838Y435413D01*
X54840Y435300D01*
X54838Y435187D01*
X54832Y435073D01*
X54822Y434960D01*
X54808Y434848D01*
X54791Y434736D01*
X54769Y434624D01*
X54743Y434514D01*
X54714Y434404D01*
X54681Y434296D01*
X54644Y434188D01*
X54603Y434083D01*
X54559Y433978D01*
X54511Y433875D01*
X54460Y433774D01*
X54405Y433675D01*
X54346Y433578D01*
X54284Y433483D01*
X54219Y433390D01*
X54151Y433299D01*
X54080Y433211D01*
X54005Y433125D01*
X53928Y433042D01*
X53848Y432962D01*
X53765Y432885D01*
X53679Y432810D01*
X53591Y432739D01*
X53500Y432671D01*
X53407Y432606D01*
X53312Y432544D01*
X53215Y432485D01*
X53116Y432430D01*
X53015Y432379D01*
X52912Y432331D01*
X52807Y432287D01*
X52702Y432246D01*
X52594Y432209D01*
X52486Y432176D01*
X52376Y432147D01*
X52266Y432121D01*
X52154Y432099D01*
X52042Y432082D01*
X51930Y432068D01*
X51817Y432058D01*
X51703Y432052D01*
X51590Y432050D01*
X51477Y432052D01*
X51363Y432058D01*
X51250Y432068D01*
X51138Y432082D01*
X51026Y432099D01*
X50914Y432121D01*
X50804Y432147D01*
X50694Y432176D01*
X50586Y432209D01*
X50478Y432246D01*
X50373Y432287D01*
X50268Y432331D01*
X50165Y432379D01*
X50064Y432430D01*
X49965Y432485D01*
X49868Y432544D01*
X49773Y432606D01*
X49680Y432671D01*
X49589Y432739D01*
X49501Y432810D01*
X49415Y432885D01*
X49332Y432962D01*
X49252Y433042D01*
X49175Y433125D01*
X49100Y433211D01*
X49029Y433299D01*
X48961Y433390D01*
X48896Y433483D01*
X48834Y433578D01*
X48775Y433675D01*
X48720Y433774D01*
X48669Y433875D01*
X48621Y433978D01*
X48577Y434083D01*
X48536Y434188D01*
X48499Y434296D01*
X48466Y434404D01*
X48437Y434514D01*
X48411Y434624D01*
X48389Y434736D01*
X48372Y434848D01*
X48358Y434960D01*
X48348Y435073D01*
X48342Y435187D01*
X48340Y435300D01*
X48340Y377500D02*
X48342Y377613D01*
X48348Y377727D01*
X48358Y377840D01*
X48372Y377952D01*
X48389Y378064D01*
X48411Y378176D01*
X48437Y378286D01*
X48466Y378396D01*
X48499Y378504D01*
X48536Y378612D01*
X48577Y378717D01*
X48621Y378822D01*
X48669Y378925D01*
X48720Y379026D01*
X48775Y379125D01*
X48834Y379222D01*
X48896Y379317D01*
X48961Y379410D01*
X49029Y379501D01*
X49100Y379589D01*
X49175Y379675D01*
X49252Y379758D01*
X49332Y379838D01*
X49415Y379915D01*
X49501Y379990D01*
X49589Y380061D01*
X49680Y380129D01*
X49773Y380194D01*
X49868Y380256D01*
X49965Y380315D01*
X50064Y380370D01*
X50165Y380421D01*
X50268Y380469D01*
X50373Y380513D01*
X50478Y380554D01*
X50586Y380591D01*
X50694Y380624D01*
X50804Y380653D01*
X50914Y380679D01*
X51026Y380701D01*
X51138Y380718D01*
X51250Y380732D01*
X51363Y380742D01*
X51477Y380748D01*
X51590Y380750D01*
X51703Y380748D01*
X51817Y380742D01*
X51930Y380732D01*
X52042Y380718D01*
X52154Y380701D01*
X52266Y380679D01*
X52376Y380653D01*
X52486Y380624D01*
X52594Y380591D01*
X52702Y380554D01*
X52807Y380513D01*
X52912Y380469D01*
X53015Y380421D01*
X53116Y380370D01*
X53215Y380315D01*
X53312Y380256D01*
X53407Y380194D01*
X53500Y380129D01*
X53591Y380061D01*
X53679Y379990D01*
X53765Y379915D01*
X53848Y379838D01*
X53928Y379758D01*
X54005Y379675D01*
X54080Y379589D01*
X54151Y379501D01*
X54219Y379410D01*
X54284Y379317D01*
X54346Y379222D01*
X54405Y379125D01*
X54460Y379026D01*
X54511Y378925D01*
X54559Y378822D01*
X54603Y378717D01*
X54644Y378612D01*
X54681Y378504D01*
X54714Y378396D01*
X54743Y378286D01*
X54769Y378176D01*
X54791Y378064D01*
X54808Y377952D01*
X54822Y377840D01*
X54832Y377727D01*
X54838Y377613D01*
X54840Y377500D01*
X54838Y377387D01*
X54832Y377273D01*
X54822Y377160D01*
X54808Y377048D01*
X54791Y376936D01*
X54769Y376824D01*
X54743Y376714D01*
X54714Y376604D01*
X54681Y376496D01*
X54644Y376388D01*
X54603Y376283D01*
X54559Y376178D01*
X54511Y376075D01*
X54460Y375974D01*
X54405Y375875D01*
X54346Y375778D01*
X54284Y375683D01*
X54219Y375590D01*
X54151Y375499D01*
X54080Y375411D01*
X54005Y375325D01*
X53928Y375242D01*
X53848Y375162D01*
X53765Y375085D01*
X53679Y375010D01*
X53591Y374939D01*
X53500Y374871D01*
X53407Y374806D01*
X53312Y374744D01*
X53215Y374685D01*
X53116Y374630D01*
X53015Y374579D01*
X52912Y374531D01*
X52807Y374487D01*
X52702Y374446D01*
X52594Y374409D01*
X52486Y374376D01*
X52376Y374347D01*
X52266Y374321D01*
X52154Y374299D01*
X52042Y374282D01*
X51930Y374268D01*
X51817Y374258D01*
X51703Y374252D01*
X51590Y374250D01*
X51477Y374252D01*
X51363Y374258D01*
X51250Y374268D01*
X51138Y374282D01*
X51026Y374299D01*
X50914Y374321D01*
X50804Y374347D01*
X50694Y374376D01*
X50586Y374409D01*
X50478Y374446D01*
X50373Y374487D01*
X50268Y374531D01*
X50165Y374579D01*
X50064Y374630D01*
X49965Y374685D01*
X49868Y374744D01*
X49773Y374806D01*
X49680Y374871D01*
X49589Y374939D01*
X49501Y375010D01*
X49415Y375085D01*
X49332Y375162D01*
X49252Y375242D01*
X49175Y375325D01*
X49100Y375411D01*
X49029Y375499D01*
X48961Y375590D01*
X48896Y375683D01*
X48834Y375778D01*
X48775Y375875D01*
X48720Y375974D01*
X48669Y376075D01*
X48621Y376178D01*
X48577Y376283D01*
X48536Y376388D01*
X48499Y376496D01*
X48466Y376604D01*
X48437Y376714D01*
X48411Y376824D01*
X48389Y376936D01*
X48372Y377048D01*
X48358Y377160D01*
X48348Y377273D01*
X48342Y377387D01*
X48340Y377500D01*
D13*
X51390Y449580D02*
X62390Y449580D01*
X62390Y363220D02*
X51390Y363220D01*
X18240Y449580D02*
X12040Y449580D01*
X12040Y363220D02*
X18240Y363220D01*
D12*
X588142Y216350D02*
X588145Y216568D01*
X588153Y216786D01*
X588166Y217004D01*
X588185Y217221D01*
X588209Y217438D01*
X588238Y217654D01*
X588273Y217870D01*
X588313Y218084D01*
X588358Y218298D01*
X588408Y218510D01*
X588464Y218721D01*
X588525Y218931D01*
X588591Y219139D01*
X588662Y219345D01*
X588738Y219549D01*
X588819Y219752D01*
X588905Y219953D01*
X588996Y220151D01*
X589091Y220347D01*
X589192Y220541D01*
X589297Y220732D01*
X589407Y220920D01*
X589521Y221106D01*
X589640Y221289D01*
X589764Y221469D01*
X589891Y221646D01*
X590024Y221819D01*
X590160Y221990D01*
X590300Y222157D01*
X590445Y222320D01*
X590593Y222480D01*
X590746Y222636D01*
X590902Y222789D01*
X591062Y222937D01*
X591225Y223082D01*
X591392Y223222D01*
X591563Y223358D01*
X591736Y223491D01*
X591913Y223618D01*
X592093Y223742D01*
X592276Y223861D01*
X592462Y223975D01*
X592650Y224085D01*
X592841Y224190D01*
X593035Y224291D01*
X593231Y224386D01*
X593429Y224477D01*
X593630Y224563D01*
X593833Y224644D01*
X594037Y224720D01*
X594243Y224791D01*
X594451Y224857D01*
X594661Y224918D01*
X594872Y224974D01*
X595084Y225024D01*
X595298Y225069D01*
X595512Y225109D01*
X595728Y225144D01*
X595944Y225173D01*
X596161Y225197D01*
X596378Y225216D01*
X596596Y225229D01*
X596814Y225237D01*
X597032Y225240D01*
X597250Y225237D01*
X597468Y225229D01*
X597686Y225216D01*
X597903Y225197D01*
X598120Y225173D01*
X598336Y225144D01*
X598552Y225109D01*
X598766Y225069D01*
X598980Y225024D01*
X599192Y224974D01*
X599403Y224918D01*
X599613Y224857D01*
X599821Y224791D01*
X600027Y224720D01*
X600231Y224644D01*
X600434Y224563D01*
X600635Y224477D01*
X600833Y224386D01*
X601029Y224291D01*
X601223Y224190D01*
X601414Y224085D01*
X601602Y223975D01*
X601788Y223861D01*
X601971Y223742D01*
X602151Y223618D01*
X602328Y223491D01*
X602501Y223358D01*
X602672Y223222D01*
X602839Y223082D01*
X603002Y222937D01*
X603162Y222789D01*
X603318Y222636D01*
X603471Y222480D01*
X603619Y222320D01*
X603764Y222157D01*
X603904Y221990D01*
X604040Y221819D01*
X604173Y221646D01*
X604300Y221469D01*
X604424Y221289D01*
X604543Y221106D01*
X604657Y220920D01*
X604767Y220732D01*
X604872Y220541D01*
X604973Y220347D01*
X605068Y220151D01*
X605159Y219953D01*
X605245Y219752D01*
X605326Y219549D01*
X605402Y219345D01*
X605473Y219139D01*
X605539Y218931D01*
X605600Y218721D01*
X605656Y218510D01*
X605706Y218298D01*
X605751Y218084D01*
X605791Y217870D01*
X605826Y217654D01*
X605855Y217438D01*
X605879Y217221D01*
X605898Y217004D01*
X605911Y216786D01*
X605919Y216568D01*
X605922Y216350D01*
X605919Y216132D01*
X605911Y215914D01*
X605898Y215696D01*
X605879Y215479D01*
X605855Y215262D01*
X605826Y215046D01*
X605791Y214830D01*
X605751Y214616D01*
X605706Y214402D01*
X605656Y214190D01*
X605600Y213979D01*
X605539Y213769D01*
X605473Y213561D01*
X605402Y213355D01*
X605326Y213151D01*
X605245Y212948D01*
X605159Y212747D01*
X605068Y212549D01*
X604973Y212353D01*
X604872Y212159D01*
X604767Y211968D01*
X604657Y211780D01*
X604543Y211594D01*
X604424Y211411D01*
X604300Y211231D01*
X604173Y211054D01*
X604040Y210881D01*
X603904Y210710D01*
X603764Y210543D01*
X603619Y210380D01*
X603471Y210220D01*
X603318Y210064D01*
X603162Y209911D01*
X603002Y209763D01*
X602839Y209618D01*
X602672Y209478D01*
X602501Y209342D01*
X602328Y209209D01*
X602151Y209082D01*
X601971Y208958D01*
X601788Y208839D01*
X601602Y208725D01*
X601414Y208615D01*
X601223Y208510D01*
X601029Y208409D01*
X600833Y208314D01*
X600635Y208223D01*
X600434Y208137D01*
X600231Y208056D01*
X600027Y207980D01*
X599821Y207909D01*
X599613Y207843D01*
X599403Y207782D01*
X599192Y207726D01*
X598980Y207676D01*
X598766Y207631D01*
X598552Y207591D01*
X598336Y207556D01*
X598120Y207527D01*
X597903Y207503D01*
X597686Y207484D01*
X597468Y207471D01*
X597250Y207463D01*
X597032Y207460D01*
X596814Y207463D01*
X596596Y207471D01*
X596378Y207484D01*
X596161Y207503D01*
X595944Y207527D01*
X595728Y207556D01*
X595512Y207591D01*
X595298Y207631D01*
X595084Y207676D01*
X594872Y207726D01*
X594661Y207782D01*
X594451Y207843D01*
X594243Y207909D01*
X594037Y207980D01*
X593833Y208056D01*
X593630Y208137D01*
X593429Y208223D01*
X593231Y208314D01*
X593035Y208409D01*
X592841Y208510D01*
X592650Y208615D01*
X592462Y208725D01*
X592276Y208839D01*
X592093Y208958D01*
X591913Y209082D01*
X591736Y209209D01*
X591563Y209342D01*
X591392Y209478D01*
X591225Y209618D01*
X591062Y209763D01*
X590902Y209911D01*
X590746Y210064D01*
X590593Y210220D01*
X590445Y210380D01*
X590300Y210543D01*
X590160Y210710D01*
X590024Y210881D01*
X589891Y211054D01*
X589764Y211231D01*
X589640Y211411D01*
X589521Y211594D01*
X589407Y211780D01*
X589297Y211968D01*
X589192Y212159D01*
X589091Y212353D01*
X588996Y212549D01*
X588905Y212747D01*
X588819Y212948D01*
X588738Y213151D01*
X588662Y213355D01*
X588591Y213561D01*
X588525Y213769D01*
X588464Y213979D01*
X588408Y214190D01*
X588358Y214402D01*
X588313Y214616D01*
X588273Y214830D01*
X588238Y215046D01*
X588209Y215262D01*
X588185Y215479D01*
X588166Y215696D01*
X588153Y215914D01*
X588145Y216132D01*
X588142Y216350D01*
X676910Y62600D02*
X676913Y62818D01*
X676921Y63036D01*
X676934Y63254D01*
X676953Y63471D01*
X676977Y63688D01*
X677006Y63904D01*
X677041Y64120D01*
X677081Y64334D01*
X677126Y64548D01*
X677176Y64760D01*
X677232Y64971D01*
X677293Y65181D01*
X677359Y65389D01*
X677430Y65595D01*
X677506Y65799D01*
X677587Y66002D01*
X677673Y66203D01*
X677764Y66401D01*
X677859Y66597D01*
X677960Y66791D01*
X678065Y66982D01*
X678175Y67170D01*
X678289Y67356D01*
X678408Y67539D01*
X678532Y67719D01*
X678659Y67896D01*
X678792Y68069D01*
X678928Y68240D01*
X679068Y68407D01*
X679213Y68570D01*
X679361Y68730D01*
X679514Y68886D01*
X679670Y69039D01*
X679830Y69187D01*
X679993Y69332D01*
X680160Y69472D01*
X680331Y69608D01*
X680504Y69741D01*
X680681Y69868D01*
X680861Y69992D01*
X681044Y70111D01*
X681230Y70225D01*
X681418Y70335D01*
X681609Y70440D01*
X681803Y70541D01*
X681999Y70636D01*
X682197Y70727D01*
X682398Y70813D01*
X682601Y70894D01*
X682805Y70970D01*
X683011Y71041D01*
X683219Y71107D01*
X683429Y71168D01*
X683640Y71224D01*
X683852Y71274D01*
X684066Y71319D01*
X684280Y71359D01*
X684496Y71394D01*
X684712Y71423D01*
X684929Y71447D01*
X685146Y71466D01*
X685364Y71479D01*
X685582Y71487D01*
X685800Y71490D01*
X686018Y71487D01*
X686236Y71479D01*
X686454Y71466D01*
X686671Y71447D01*
X686888Y71423D01*
X687104Y71394D01*
X687320Y71359D01*
X687534Y71319D01*
X687748Y71274D01*
X687960Y71224D01*
X688171Y71168D01*
X688381Y71107D01*
X688589Y71041D01*
X688795Y70970D01*
X688999Y70894D01*
X689202Y70813D01*
X689403Y70727D01*
X689601Y70636D01*
X689797Y70541D01*
X689991Y70440D01*
X690182Y70335D01*
X690370Y70225D01*
X690556Y70111D01*
X690739Y69992D01*
X690919Y69868D01*
X691096Y69741D01*
X691269Y69608D01*
X691440Y69472D01*
X691607Y69332D01*
X691770Y69187D01*
X691930Y69039D01*
X692086Y68886D01*
X692239Y68730D01*
X692387Y68570D01*
X692532Y68407D01*
X692672Y68240D01*
X692808Y68069D01*
X692941Y67896D01*
X693068Y67719D01*
X693192Y67539D01*
X693311Y67356D01*
X693425Y67170D01*
X693535Y66982D01*
X693640Y66791D01*
X693741Y66597D01*
X693836Y66401D01*
X693927Y66203D01*
X694013Y66002D01*
X694094Y65799D01*
X694170Y65595D01*
X694241Y65389D01*
X694307Y65181D01*
X694368Y64971D01*
X694424Y64760D01*
X694474Y64548D01*
X694519Y64334D01*
X694559Y64120D01*
X694594Y63904D01*
X694623Y63688D01*
X694647Y63471D01*
X694666Y63254D01*
X694679Y63036D01*
X694687Y62818D01*
X694690Y62600D01*
X694687Y62382D01*
X694679Y62164D01*
X694666Y61946D01*
X694647Y61729D01*
X694623Y61512D01*
X694594Y61296D01*
X694559Y61080D01*
X694519Y60866D01*
X694474Y60652D01*
X694424Y60440D01*
X694368Y60229D01*
X694307Y60019D01*
X694241Y59811D01*
X694170Y59605D01*
X694094Y59401D01*
X694013Y59198D01*
X693927Y58997D01*
X693836Y58799D01*
X693741Y58603D01*
X693640Y58409D01*
X693535Y58218D01*
X693425Y58030D01*
X693311Y57844D01*
X693192Y57661D01*
X693068Y57481D01*
X692941Y57304D01*
X692808Y57131D01*
X692672Y56960D01*
X692532Y56793D01*
X692387Y56630D01*
X692239Y56470D01*
X692086Y56314D01*
X691930Y56161D01*
X691770Y56013D01*
X691607Y55868D01*
X691440Y55728D01*
X691269Y55592D01*
X691096Y55459D01*
X690919Y55332D01*
X690739Y55208D01*
X690556Y55089D01*
X690370Y54975D01*
X690182Y54865D01*
X689991Y54760D01*
X689797Y54659D01*
X689601Y54564D01*
X689403Y54473D01*
X689202Y54387D01*
X688999Y54306D01*
X688795Y54230D01*
X688589Y54159D01*
X688381Y54093D01*
X688171Y54032D01*
X687960Y53976D01*
X687748Y53926D01*
X687534Y53881D01*
X687320Y53841D01*
X687104Y53806D01*
X686888Y53777D01*
X686671Y53753D01*
X686454Y53734D01*
X686236Y53721D01*
X686018Y53713D01*
X685800Y53710D01*
X685582Y53713D01*
X685364Y53721D01*
X685146Y53734D01*
X684929Y53753D01*
X684712Y53777D01*
X684496Y53806D01*
X684280Y53841D01*
X684066Y53881D01*
X683852Y53926D01*
X683640Y53976D01*
X683429Y54032D01*
X683219Y54093D01*
X683011Y54159D01*
X682805Y54230D01*
X682601Y54306D01*
X682398Y54387D01*
X682197Y54473D01*
X681999Y54564D01*
X681803Y54659D01*
X681609Y54760D01*
X681418Y54865D01*
X681230Y54975D01*
X681044Y55089D01*
X680861Y55208D01*
X680681Y55332D01*
X680504Y55459D01*
X680331Y55592D01*
X680160Y55728D01*
X679993Y55868D01*
X679830Y56013D01*
X679670Y56161D01*
X679514Y56314D01*
X679361Y56470D01*
X679213Y56630D01*
X679068Y56793D01*
X678928Y56960D01*
X678792Y57131D01*
X678659Y57304D01*
X678532Y57481D01*
X678408Y57661D01*
X678289Y57844D01*
X678175Y58030D01*
X678065Y58218D01*
X677960Y58409D01*
X677859Y58603D01*
X677764Y58799D01*
X677673Y58997D01*
X677587Y59198D01*
X677506Y59401D01*
X677430Y59605D01*
X677359Y59811D01*
X677293Y60019D01*
X677232Y60229D01*
X677176Y60440D01*
X677126Y60652D01*
X677081Y60866D01*
X677041Y61080D01*
X677006Y61296D01*
X676977Y61512D01*
X676953Y61729D01*
X676934Y61946D01*
X676921Y62164D01*
X676913Y62382D01*
X676910Y62600D01*
X765678Y216350D02*
X765681Y216568D01*
X765689Y216786D01*
X765702Y217004D01*
X765721Y217221D01*
X765745Y217438D01*
X765774Y217654D01*
X765809Y217870D01*
X765849Y218084D01*
X765894Y218298D01*
X765944Y218510D01*
X766000Y218721D01*
X766061Y218931D01*
X766127Y219139D01*
X766198Y219345D01*
X766274Y219549D01*
X766355Y219752D01*
X766441Y219953D01*
X766532Y220151D01*
X766627Y220347D01*
X766728Y220541D01*
X766833Y220732D01*
X766943Y220920D01*
X767057Y221106D01*
X767176Y221289D01*
X767300Y221469D01*
X767427Y221646D01*
X767560Y221819D01*
X767696Y221990D01*
X767836Y222157D01*
X767981Y222320D01*
X768129Y222480D01*
X768282Y222636D01*
X768438Y222789D01*
X768598Y222937D01*
X768761Y223082D01*
X768928Y223222D01*
X769099Y223358D01*
X769272Y223491D01*
X769449Y223618D01*
X769629Y223742D01*
X769812Y223861D01*
X769998Y223975D01*
X770186Y224085D01*
X770377Y224190D01*
X770571Y224291D01*
X770767Y224386D01*
X770965Y224477D01*
X771166Y224563D01*
X771369Y224644D01*
X771573Y224720D01*
X771779Y224791D01*
X771987Y224857D01*
X772197Y224918D01*
X772408Y224974D01*
X772620Y225024D01*
X772834Y225069D01*
X773048Y225109D01*
X773264Y225144D01*
X773480Y225173D01*
X773697Y225197D01*
X773914Y225216D01*
X774132Y225229D01*
X774350Y225237D01*
X774568Y225240D01*
X774786Y225237D01*
X775004Y225229D01*
X775222Y225216D01*
X775439Y225197D01*
X775656Y225173D01*
X775872Y225144D01*
X776088Y225109D01*
X776302Y225069D01*
X776516Y225024D01*
X776728Y224974D01*
X776939Y224918D01*
X777149Y224857D01*
X777357Y224791D01*
X777563Y224720D01*
X777767Y224644D01*
X777970Y224563D01*
X778171Y224477D01*
X778369Y224386D01*
X778565Y224291D01*
X778759Y224190D01*
X778950Y224085D01*
X779138Y223975D01*
X779324Y223861D01*
X779507Y223742D01*
X779687Y223618D01*
X779864Y223491D01*
X780037Y223358D01*
X780208Y223222D01*
X780375Y223082D01*
X780538Y222937D01*
X780698Y222789D01*
X780854Y222636D01*
X781007Y222480D01*
X781155Y222320D01*
X781300Y222157D01*
X781440Y221990D01*
X781576Y221819D01*
X781709Y221646D01*
X781836Y221469D01*
X781960Y221289D01*
X782079Y221106D01*
X782193Y220920D01*
X782303Y220732D01*
X782408Y220541D01*
X782509Y220347D01*
X782604Y220151D01*
X782695Y219953D01*
X782781Y219752D01*
X782862Y219549D01*
X782938Y219345D01*
X783009Y219139D01*
X783075Y218931D01*
X783136Y218721D01*
X783192Y218510D01*
X783242Y218298D01*
X783287Y218084D01*
X783327Y217870D01*
X783362Y217654D01*
X783391Y217438D01*
X783415Y217221D01*
X783434Y217004D01*
X783447Y216786D01*
X783455Y216568D01*
X783458Y216350D01*
X783455Y216132D01*
X783447Y215914D01*
X783434Y215696D01*
X783415Y215479D01*
X783391Y215262D01*
X783362Y215046D01*
X783327Y214830D01*
X783287Y214616D01*
X783242Y214402D01*
X783192Y214190D01*
X783136Y213979D01*
X783075Y213769D01*
X783009Y213561D01*
X782938Y213355D01*
X782862Y213151D01*
X782781Y212948D01*
X782695Y212747D01*
X782604Y212549D01*
X782509Y212353D01*
X782408Y212159D01*
X782303Y211968D01*
X782193Y211780D01*
X782079Y211594D01*
X781960Y211411D01*
X781836Y211231D01*
X781709Y211054D01*
X781576Y210881D01*
X781440Y210710D01*
X781300Y210543D01*
X781155Y210380D01*
X781007Y210220D01*
X780854Y210064D01*
X780698Y209911D01*
X780538Y209763D01*
X780375Y209618D01*
X780208Y209478D01*
X780037Y209342D01*
X779864Y209209D01*
X779687Y209082D01*
X779507Y208958D01*
X779324Y208839D01*
X779138Y208725D01*
X778950Y208615D01*
X778759Y208510D01*
X778565Y208409D01*
X778369Y208314D01*
X778171Y208223D01*
X777970Y208137D01*
X777767Y208056D01*
X777563Y207980D01*
X777357Y207909D01*
X777149Y207843D01*
X776939Y207782D01*
X776728Y207726D01*
X776516Y207676D01*
X776302Y207631D01*
X776088Y207591D01*
X775872Y207556D01*
X775656Y207527D01*
X775439Y207503D01*
X775222Y207484D01*
X775004Y207471D01*
X774786Y207463D01*
X774568Y207460D01*
X774350Y207463D01*
X774132Y207471D01*
X773914Y207484D01*
X773697Y207503D01*
X773480Y207527D01*
X773264Y207556D01*
X773048Y207591D01*
X772834Y207631D01*
X772620Y207676D01*
X772408Y207726D01*
X772197Y207782D01*
X771987Y207843D01*
X771779Y207909D01*
X771573Y207980D01*
X771369Y208056D01*
X771166Y208137D01*
X770965Y208223D01*
X770767Y208314D01*
X770571Y208409D01*
X770377Y208510D01*
X770186Y208615D01*
X769998Y208725D01*
X769812Y208839D01*
X769629Y208958D01*
X769449Y209082D01*
X769272Y209209D01*
X769099Y209342D01*
X768928Y209478D01*
X768761Y209618D01*
X768598Y209763D01*
X768438Y209911D01*
X768282Y210064D01*
X768129Y210220D01*
X767981Y210380D01*
X767836Y210543D01*
X767696Y210710D01*
X767560Y210881D01*
X767427Y211054D01*
X767300Y211231D01*
X767176Y211411D01*
X767057Y211594D01*
X766943Y211780D01*
X766833Y211968D01*
X766728Y212159D01*
X766627Y212353D01*
X766532Y212549D01*
X766441Y212747D01*
X766355Y212948D01*
X766274Y213151D01*
X766198Y213355D01*
X766127Y213561D01*
X766061Y213769D01*
X766000Y213979D01*
X765944Y214190D01*
X765894Y214402D01*
X765849Y214616D01*
X765809Y214830D01*
X765774Y215046D01*
X765745Y215262D01*
X765721Y215479D01*
X765702Y215696D01*
X765689Y215914D01*
X765681Y216132D01*
X765678Y216350D01*
D14*
X0Y0D02*
X850900Y0D01*
X850900Y609600D01*
X0Y609600D01*
X0Y0D01*
X502920Y16510D02*
X502995Y16070D01*
X503107Y15638D01*
X503257Y15217D01*
X503444Y14811D01*
X503664Y14423D01*
X503918Y14055D01*
X504203Y13711D01*
X504517Y13393D01*
X504857Y13104D01*
X505221Y12845D01*
X505606Y12620D01*
X506010Y12428D01*
X506429Y12273D01*
X506859Y12154D01*
X507299Y12074D01*
X507743Y12032D01*
X508190Y12029D01*
X508635Y12065D01*
X509075Y12140D01*
X509508Y12252D01*
X509928Y12402D01*
X510334Y12589D01*
X510722Y12809D01*
X511090Y13063D01*
X511434Y13348D01*
X511752Y13662D01*
X512041Y14002D01*
X512300Y14366D01*
X512526Y14751D01*
X512717Y15155D01*
X512872Y15574D01*
X512991Y16004D01*
X513071Y16444D01*
X513080Y16510D01*
X513080Y85090D01*
X513005Y85530D01*
X512893Y85963D01*
X512743Y86383D01*
X512556Y86789D01*
X512336Y87177D01*
X512082Y87545D01*
X511797Y87889D01*
X511483Y88207D01*
X511143Y88496D01*
X510779Y88755D01*
X510394Y88981D01*
X509990Y89172D01*
X509571Y89327D01*
X509141Y89446D01*
X508701Y89526D01*
X508257Y89568D01*
X507810Y89571D01*
X507365Y89535D01*
X506925Y89460D01*
X506492Y89348D01*
X506072Y89198D01*
X505666Y89011D01*
X505278Y88791D01*
X504910Y88537D01*
X504566Y88252D01*
X504248Y87938D01*
X503959Y87598D01*
X503700Y87234D01*
X503474Y86849D01*
X503283Y86445D01*
X503128Y86026D01*
X503009Y85596D01*
X502929Y85156D01*
X502920Y85090D01*
X502920Y16510D01*
X502920Y118110D02*
X502995Y117670D01*
X503107Y117238D01*
X503257Y116817D01*
X503444Y116411D01*
X503664Y116023D01*
X503918Y115655D01*
X504203Y115311D01*
X504517Y114993D01*
X504857Y114704D01*
X505221Y114445D01*
X505606Y114220D01*
X506010Y114028D01*
X506429Y113873D01*
X506859Y113754D01*
X507299Y113674D01*
X507743Y113632D01*
X508190Y113629D01*
X508635Y113665D01*
X509075Y113740D01*
X509508Y113852D01*
X509928Y114002D01*
X510334Y114189D01*
X510722Y114409D01*
X511090Y114663D01*
X511434Y114948D01*
X511752Y115262D01*
X512041Y115602D01*
X512300Y115966D01*
X512526Y116351D01*
X512717Y116755D01*
X512872Y117174D01*
X512991Y117604D01*
X513071Y118044D01*
X513080Y118110D01*
X513080Y275590D01*
X513005Y276030D01*
X512893Y276463D01*
X512743Y276883D01*
X512556Y277289D01*
X512336Y277677D01*
X512082Y278045D01*
X511797Y278389D01*
X511483Y278707D01*
X511143Y278996D01*
X510779Y279255D01*
X510394Y279481D01*
X509990Y279672D01*
X509571Y279827D01*
X509141Y279946D01*
X508701Y280026D01*
X508257Y280068D01*
X507810Y280071D01*
X507365Y280035D01*
X506925Y279960D01*
X506492Y279848D01*
X506072Y279698D01*
X505666Y279511D01*
X505278Y279291D01*
X504910Y279037D01*
X504566Y278752D01*
X504248Y278438D01*
X503959Y278098D01*
X503700Y277734D01*
X503474Y277349D01*
X503283Y276945D01*
X503128Y276526D01*
X503009Y276096D01*
X502929Y275656D01*
X502920Y275590D01*
X502920Y118110D01*
X502920Y359410D02*
X502929Y359344D01*
X503009Y358904D01*
X503128Y358474D01*
X503283Y358055D01*
X503475Y357651D01*
X503700Y357266D01*
X503959Y356902D01*
X504248Y356562D01*
X504566Y356248D01*
X504910Y355963D01*
X505278Y355709D01*
X505666Y355489D01*
X506072Y355302D01*
X506493Y355152D01*
X506925Y355040D01*
X507365Y354965D01*
X507810Y354929D01*
X508257Y354932D01*
X508701Y354974D01*
X509141Y355054D01*
X509571Y355173D01*
X509990Y355328D01*
X510394Y355520D01*
X510779Y355745D01*
X511143Y356004D01*
X511483Y356293D01*
X511797Y356611D01*
X512082Y356955D01*
X512336Y357323D01*
X512556Y357711D01*
X512743Y358117D01*
X512893Y358538D01*
X513005Y358970D01*
X513080Y359410D01*
X513080Y579120D01*
X513061Y579563D01*
X513003Y580002D01*
X512907Y580435D01*
X512774Y580857D01*
X512604Y581267D01*
X512399Y581660D01*
X512161Y582034D01*
X511892Y582385D01*
X511592Y582712D01*
X511265Y583012D01*
X510914Y583281D01*
X510540Y583519D01*
X510147Y583724D01*
X509737Y583894D01*
X509315Y584027D01*
X508882Y584123D01*
X508443Y584181D01*
X508000Y584200D01*
X507557Y584181D01*
X507118Y584123D01*
X506685Y584027D01*
X506263Y583894D01*
X505853Y583724D01*
X505460Y583519D01*
X505086Y583281D01*
X504735Y583012D01*
X504408Y582712D01*
X504109Y582385D01*
X503839Y582034D01*
X503601Y581660D01*
X503396Y581267D01*
X503226Y580857D01*
X503093Y580435D01*
X502997Y580002D01*
X502939Y579563D01*
X502920Y579120D01*
X502920Y359410D01*
X842010Y24860D02*
X841939Y23781D01*
X841798Y22709D01*
X841587Y21649D01*
X841308Y20605D01*
X840960Y19581D01*
X840546Y18583D01*
X840068Y17613D01*
X839528Y16677D01*
X838927Y15778D01*
X838269Y14921D01*
X837557Y14108D01*
X836792Y13344D01*
X835979Y12631D01*
X835122Y11973D01*
X834223Y11372D01*
X833287Y10832D01*
X832317Y10354D01*
X831319Y9940D01*
X830295Y9592D01*
X829251Y9313D01*
X828191Y9102D01*
X827119Y8961D01*
X826040Y8890D01*
X824960Y8890D01*
X823881Y8961D01*
X822809Y9102D01*
X821749Y9313D01*
X820705Y9592D01*
X819681Y9940D01*
X818683Y10354D01*
X817713Y10832D01*
X816777Y11372D01*
X815878Y11973D01*
X815021Y12631D01*
X814208Y13344D01*
X813444Y14108D01*
X812731Y14921D01*
X812073Y15778D01*
X811472Y16677D01*
X810932Y17613D01*
X810454Y18583D01*
X810040Y19581D01*
X809692Y20605D01*
X809413Y21649D01*
X809202Y22709D01*
X809061Y23781D01*
X808990Y24860D01*
X808990Y25940D01*
X809061Y27019D01*
X809202Y28091D01*
X809413Y29151D01*
X809692Y30195D01*
X810040Y31219D01*
X810454Y32217D01*
X810932Y33187D01*
X811472Y34123D01*
X812073Y35022D01*
X812731Y35879D01*
X813444Y36692D01*
X814208Y37457D01*
X815021Y38169D01*
X815878Y38827D01*
X816777Y39428D01*
X817713Y39968D01*
X818683Y40446D01*
X819681Y40860D01*
X820705Y41208D01*
X821749Y41487D01*
X822809Y41698D01*
X823881Y41839D01*
X824960Y41910D01*
X826040Y41910D01*
X827119Y41839D01*
X828191Y41698D01*
X829251Y41487D01*
X830295Y41208D01*
X831319Y40860D01*
X832317Y40446D01*
X833287Y39968D01*
X834223Y39428D01*
X835122Y38827D01*
X835979Y38169D01*
X836792Y37457D01*
X837557Y36692D01*
X838269Y35879D01*
X838927Y35022D01*
X839528Y34123D01*
X840068Y33187D01*
X840546Y32217D01*
X840960Y31219D01*
X841308Y30195D01*
X841587Y29151D01*
X841798Y28091D01*
X841939Y27019D01*
X842010Y25940D01*
X842010Y24860D01*
X842010Y583660D02*
X841939Y582581D01*
X841798Y581509D01*
X841587Y580449D01*
X841308Y579405D01*
X840960Y578381D01*
X840546Y577383D01*
X840068Y576413D01*
X839528Y575477D01*
X838927Y574578D01*
X838269Y573721D01*
X837557Y572908D01*
X836792Y572144D01*
X835979Y571431D01*
X835122Y570773D01*
X834223Y570172D01*
X833287Y569632D01*
X832317Y569154D01*
X831319Y568740D01*
X830295Y568392D01*
X829251Y568113D01*
X828191Y567902D01*
X827119Y567761D01*
X826040Y567690D01*
X824960Y567690D01*
X823881Y567761D01*
X822809Y567902D01*
X821749Y568113D01*
X820705Y568392D01*
X819681Y568740D01*
X818683Y569154D01*
X817713Y569632D01*
X816777Y570172D01*
X815878Y570773D01*
X815021Y571431D01*
X814208Y572144D01*
X813444Y572908D01*
X812731Y573721D01*
X812073Y574578D01*
X811472Y575477D01*
X810932Y576413D01*
X810454Y577383D01*
X810040Y578381D01*
X809692Y579405D01*
X809413Y580449D01*
X809202Y581509D01*
X809061Y582581D01*
X808990Y583660D01*
X808990Y584740D01*
X809061Y585819D01*
X809202Y586891D01*
X809413Y587951D01*
X809692Y588995D01*
X810040Y590019D01*
X810454Y591017D01*
X810932Y591987D01*
X811472Y592923D01*
X812073Y593822D01*
X812731Y594679D01*
X813444Y595492D01*
X814208Y596257D01*
X815021Y596969D01*
X815878Y597627D01*
X816777Y598228D01*
X817713Y598768D01*
X818683Y599246D01*
X819681Y599660D01*
X820705Y600008D01*
X821749Y600287D01*
X822809Y600498D01*
X823881Y600639D01*
X824960Y600710D01*
X826040Y600710D01*
X827119Y600639D01*
X828191Y600498D01*
X829251Y600287D01*
X830295Y600008D01*
X831319Y599660D01*
X832317Y599246D01*
X833287Y598768D01*
X834223Y598228D01*
X835122Y597627D01*
X835979Y596969D01*
X836792Y596257D01*
X837557Y595492D01*
X838269Y594679D01*
X838927Y593822D01*
X839528Y592923D01*
X840068Y591987D01*
X840546Y591017D01*
X840960Y590019D01*
X841308Y588995D01*
X841587Y587951D01*
X841798Y586891D01*
X841939Y585819D01*
X842010Y584740D01*
X842010Y583660D01*
X41910Y583660D02*
X41839Y582581D01*
X41698Y581509D01*
X41487Y580449D01*
X41208Y579405D01*
X40860Y578381D01*
X40446Y577383D01*
X39968Y576413D01*
X39428Y575477D01*
X38827Y574578D01*
X38169Y573721D01*
X37457Y572908D01*
X36692Y572144D01*
X35879Y571431D01*
X35022Y570773D01*
X34123Y570172D01*
X33187Y569632D01*
X32217Y569154D01*
X31219Y568740D01*
X30195Y568392D01*
X29151Y568113D01*
X28091Y567902D01*
X27019Y567761D01*
X25940Y567690D01*
X24860Y567690D01*
X23781Y567761D01*
X22709Y567902D01*
X21649Y568113D01*
X20605Y568392D01*
X19581Y568740D01*
X18583Y569154D01*
X17613Y569632D01*
X16677Y570172D01*
X15778Y570773D01*
X14921Y571431D01*
X14108Y572144D01*
X13344Y572908D01*
X12631Y573721D01*
X11973Y574578D01*
X11372Y575477D01*
X10832Y576413D01*
X10354Y577383D01*
X9940Y578381D01*
X9592Y579405D01*
X9313Y580449D01*
X9102Y581509D01*
X8961Y582581D01*
X8890Y583660D01*
X8890Y584740D01*
X8961Y585819D01*
X9102Y586891D01*
X9313Y587951D01*
X9592Y588995D01*
X9940Y590019D01*
X10354Y591017D01*
X10832Y591987D01*
X11372Y592923D01*
X11973Y593822D01*
X12631Y594679D01*
X13344Y595492D01*
X14108Y596257D01*
X14921Y596969D01*
X15778Y597627D01*
X16677Y598228D01*
X17613Y598768D01*
X18583Y599246D01*
X19581Y599660D01*
X20605Y600008D01*
X21649Y600287D01*
X22709Y600498D01*
X23781Y600639D01*
X24860Y600710D01*
X25940Y600710D01*
X27019Y600639D01*
X28091Y600498D01*
X29151Y600287D01*
X30195Y600008D01*
X31219Y599660D01*
X32217Y599246D01*
X33187Y598768D01*
X34123Y598228D01*
X35022Y597627D01*
X35879Y596969D01*
X36692Y596257D01*
X37457Y595492D01*
X38169Y594679D01*
X38827Y593822D01*
X39428Y592923D01*
X39968Y591987D01*
X40446Y591017D01*
X40860Y590019D01*
X41208Y588995D01*
X41487Y587951D01*
X41698Y586891D01*
X41839Y585819D01*
X41910Y584740D01*
X41910Y583660D01*
X41910Y24860D02*
X41839Y23781D01*
X41698Y22709D01*
X41487Y21649D01*
X41208Y20605D01*
X40860Y19581D01*
X40446Y18583D01*
X39968Y17613D01*
X39428Y16677D01*
X38827Y15778D01*
X38169Y14921D01*
X37457Y14108D01*
X36692Y13344D01*
X35879Y12631D01*
X35022Y11973D01*
X34123Y11372D01*
X33187Y10832D01*
X32217Y10354D01*
X31219Y9940D01*
X30195Y9592D01*
X29151Y9313D01*
X28091Y9102D01*
X27019Y8961D01*
X25940Y8890D01*
X24860Y8890D01*
X23781Y8961D01*
X22709Y9102D01*
X21649Y9313D01*
X20605Y9592D01*
X19581Y9940D01*
X18583Y10354D01*
X17613Y10832D01*
X16677Y11372D01*
X15778Y11973D01*
X14921Y12631D01*
X14108Y13344D01*
X13344Y14108D01*
X12631Y14921D01*
X11973Y15778D01*
X11372Y16677D01*
X10832Y17613D01*
X10354Y18583D01*
X9940Y19581D01*
X9592Y20605D01*
X9313Y21649D01*
X9102Y22709D01*
X8961Y23781D01*
X8890Y24860D01*
X8890Y25940D01*
X8961Y27019D01*
X9102Y28091D01*
X9313Y29151D01*
X9592Y30195D01*
X9940Y31219D01*
X10354Y32217D01*
X10832Y33187D01*
X11372Y34123D01*
X11973Y35022D01*
X12631Y35879D01*
X13344Y36692D01*
X14108Y37457D01*
X14921Y38169D01*
X15778Y38827D01*
X16677Y39428D01*
X17613Y39968D01*
X18583Y40446D01*
X19581Y40860D01*
X20605Y41208D01*
X21649Y41487D01*
X22709Y41698D01*
X23781Y41839D01*
X24860Y41910D01*
X25940Y41910D01*
X27019Y41839D01*
X28091Y41698D01*
X29151Y41487D01*
X30195Y41208D01*
X31219Y40860D01*
X32217Y40446D01*
X33187Y39968D01*
X34123Y39428D01*
X35022Y38827D01*
X35879Y38169D01*
X36692Y37457D01*
X37457Y36692D01*
X38169Y35879D01*
X38827Y35022D01*
X39428Y34123D01*
X39968Y33187D01*
X40446Y32217D01*
X40860Y31219D01*
X41208Y30195D01*
X41487Y29151D01*
X41698Y28091D01*
X41839Y27019D01*
X41910Y25940D01*
X41910Y24860D01*
X51377Y432050D02*
X50955Y432106D01*
X50543Y432216D01*
X50149Y432379D01*
X49781Y432592D01*
X49443Y432851D01*
X49141Y433153D01*
X48882Y433491D01*
X48669Y433859D01*
X48506Y434253D01*
X48396Y434665D01*
X48340Y435087D01*
X48340Y435513D01*
X48396Y435935D01*
X48506Y436347D01*
X48669Y436741D01*
X48882Y437109D01*
X49141Y437447D01*
X49443Y437749D01*
X49781Y438008D01*
X50149Y438221D01*
X50543Y438384D01*
X50955Y438494D01*
X51377Y438550D01*
X51803Y438550D01*
X52225Y438494D01*
X52637Y438384D01*
X53031Y438221D01*
X53399Y438008D01*
X53737Y437749D01*
X54039Y437447D01*
X54298Y437109D01*
X54511Y436741D01*
X54674Y436347D01*
X54784Y435935D01*
X54840Y435513D01*
X54840Y435087D01*
X54784Y434665D01*
X54674Y434253D01*
X54511Y433859D01*
X54298Y433491D01*
X54039Y433153D01*
X53737Y432851D01*
X53399Y432592D01*
X53031Y432379D01*
X52637Y432216D01*
X52225Y432106D01*
X51803Y432050D01*
X51377Y432050D01*
X51377Y374250D02*
X50955Y374306D01*
X50543Y374416D01*
X50149Y374579D01*
X49781Y374792D01*
X49443Y375051D01*
X49141Y375353D01*
X48882Y375691D01*
X48669Y376059D01*
X48506Y376453D01*
X48396Y376865D01*
X48340Y377287D01*
X48340Y377713D01*
X48396Y378135D01*
X48506Y378547D01*
X48669Y378941D01*
X48882Y379309D01*
X49141Y379647D01*
X49443Y379949D01*
X49781Y380208D01*
X50149Y380421D01*
X50543Y380584D01*
X50955Y380694D01*
X51377Y380750D01*
X51803Y380750D01*
X52225Y380694D01*
X52637Y380584D01*
X53031Y380421D01*
X53399Y380208D01*
X53737Y379949D01*
X54039Y379647D01*
X54298Y379309D01*
X54511Y378941D01*
X54674Y378547D01*
X54784Y378135D01*
X54840Y377713D01*
X54840Y377287D01*
X54784Y376865D01*
X54674Y376453D01*
X54511Y376059D01*
X54298Y375691D01*
X54039Y375353D01*
X53737Y375051D01*
X53399Y374792D01*
X53031Y374579D01*
X52637Y374416D01*
X52225Y374306D01*
X51803Y374250D01*
X51377Y374250D01*
X605922Y215962D02*
X605855Y215189D01*
X605720Y214424D01*
X605519Y213674D01*
X605254Y212945D01*
X604925Y212241D01*
X604537Y211569D01*
X604092Y210933D01*
X603593Y210338D01*
X603044Y209789D01*
X602449Y209290D01*
X601814Y208845D01*
X601141Y208457D01*
X600438Y208129D01*
X599708Y207863D01*
X598958Y207662D01*
X598194Y207528D01*
X597421Y207460D01*
X596644Y207460D01*
X595871Y207528D01*
X595106Y207662D01*
X594357Y207863D01*
X593627Y208129D01*
X592924Y208457D01*
X592251Y208845D01*
X591615Y209290D01*
X591021Y209789D01*
X590472Y210338D01*
X589973Y210933D01*
X589528Y211569D01*
X589139Y212241D01*
X588811Y212945D01*
X588546Y213674D01*
X588345Y214424D01*
X588210Y215189D01*
X588142Y215962D01*
X588142Y216738D01*
X588210Y217511D01*
X588345Y218276D01*
X588546Y219026D01*
X588811Y219755D01*
X589139Y220459D01*
X589528Y221131D01*
X589973Y221767D01*
X590472Y222362D01*
X591021Y222911D01*
X591615Y223410D01*
X592251Y223855D01*
X592924Y224243D01*
X593627Y224571D01*
X594357Y224837D01*
X595106Y225038D01*
X595871Y225172D01*
X596644Y225240D01*
X597421Y225240D01*
X598194Y225172D01*
X598958Y225038D01*
X599708Y224837D01*
X600438Y224571D01*
X601141Y224243D01*
X601814Y223855D01*
X602449Y223410D01*
X603044Y222911D01*
X603593Y222362D01*
X604092Y221767D01*
X604537Y221131D01*
X604925Y220459D01*
X605254Y219755D01*
X605519Y219026D01*
X605720Y218276D01*
X605855Y217511D01*
X605922Y216738D01*
X605922Y215962D01*
X694690Y62212D02*
X694622Y61439D01*
X694488Y60674D01*
X694287Y59924D01*
X694021Y59195D01*
X693693Y58491D01*
X693305Y57819D01*
X692860Y57183D01*
X692361Y56588D01*
X691812Y56039D01*
X691217Y55540D01*
X690581Y55095D01*
X689909Y54707D01*
X689205Y54379D01*
X688476Y54113D01*
X687726Y53912D01*
X686961Y53778D01*
X686188Y53710D01*
X685412Y53710D01*
X684639Y53778D01*
X683874Y53912D01*
X683124Y54113D01*
X682395Y54379D01*
X681691Y54707D01*
X681019Y55095D01*
X680383Y55540D01*
X679788Y56039D01*
X679239Y56588D01*
X678740Y57183D01*
X678295Y57819D01*
X677907Y58491D01*
X677579Y59195D01*
X677313Y59924D01*
X677112Y60674D01*
X676978Y61439D01*
X676910Y62212D01*
X676910Y62988D01*
X676978Y63761D01*
X677112Y64526D01*
X677313Y65276D01*
X677579Y66005D01*
X677907Y66709D01*
X678295Y67381D01*
X678740Y68017D01*
X679239Y68612D01*
X679788Y69161D01*
X680383Y69660D01*
X681019Y70105D01*
X681691Y70493D01*
X682395Y70821D01*
X683124Y71087D01*
X683874Y71288D01*
X684639Y71422D01*
X685412Y71490D01*
X686188Y71490D01*
X686961Y71422D01*
X687726Y71288D01*
X688476Y71087D01*
X689205Y70821D01*
X689909Y70493D01*
X690581Y70105D01*
X691217Y69660D01*
X691812Y69161D01*
X692361Y68612D01*
X692860Y68017D01*
X693305Y67381D01*
X693693Y66709D01*
X694021Y66005D01*
X694287Y65276D01*
X694488Y64526D01*
X694622Y63761D01*
X694690Y62988D01*
X694690Y62212D01*
X783458Y215962D02*
X783390Y215189D01*
X783255Y214424D01*
X783054Y213674D01*
X782789Y212945D01*
X782461Y212241D01*
X782073Y211569D01*
X781627Y210933D01*
X781128Y210338D01*
X780579Y209789D01*
X779985Y209290D01*
X779349Y208845D01*
X778676Y208457D01*
X777973Y208129D01*
X777243Y207863D01*
X776494Y207662D01*
X775729Y207528D01*
X774956Y207460D01*
X774179Y207460D01*
X773406Y207528D01*
X772642Y207662D01*
X771892Y207863D01*
X771162Y208129D01*
X770459Y208457D01*
X769786Y208845D01*
X769151Y209290D01*
X768556Y209789D01*
X768007Y210338D01*
X767508Y210933D01*
X767063Y211569D01*
X766675Y212241D01*
X766346Y212945D01*
X766081Y213674D01*
X765880Y214424D01*
X765745Y215189D01*
X765678Y215962D01*
X765678Y216738D01*
X765745Y217511D01*
X765880Y218276D01*
X766081Y219026D01*
X766346Y219755D01*
X766675Y220459D01*
X767063Y221131D01*
X767508Y221767D01*
X768007Y222362D01*
X768556Y222911D01*
X769151Y223410D01*
X769786Y223855D01*
X770459Y224243D01*
X771162Y224571D01*
X771892Y224837D01*
X772642Y225038D01*
X773406Y225172D01*
X774179Y225240D01*
X774956Y225240D01*
X775729Y225172D01*
X776494Y225038D01*
X777243Y224837D01*
X777973Y224571D01*
X778676Y224243D01*
X779349Y223855D01*
X779985Y223410D01*
X780579Y222911D01*
X781128Y222362D01*
X781627Y221767D01*
X782073Y221131D01*
X782461Y220459D01*
X782789Y219755D01*
X783054Y219026D01*
X783255Y218276D01*
X783390Y217511D01*
X783458Y216738D01*
X783458Y215962D01*
M02*
