G04 EAGLE Gerber RS-274X export*
G75*
%MOMM*%
%FSLAX34Y34*%
%LPD*%
%INSoldermask Bottom*%
%IPPOS*%
%AMOC8*
5,1,8,0,0,1.08239X$1,22.5*%
G01*
%ADD10C,0.228344*%
%ADD11C,0.762000*%
%ADD12C,3.429000*%
%ADD13C,0.777000*%
%ADD14C,2.006600*%
%ADD15C,1.143000*%
%ADD16C,1.905000*%
%ADD17C,0.228600*%

G36*
X283910Y359803D02*
X283910Y359803D01*
X283976Y359805D01*
X284019Y359823D01*
X284066Y359831D01*
X284123Y359865D01*
X284183Y359890D01*
X284218Y359921D01*
X284259Y359946D01*
X284301Y359997D01*
X284349Y360041D01*
X284371Y360083D01*
X284400Y360120D01*
X284421Y360182D01*
X284452Y360241D01*
X284460Y360295D01*
X284472Y360332D01*
X284471Y360372D01*
X284479Y360426D01*
X284479Y373634D01*
X284468Y373699D01*
X284466Y373765D01*
X284448Y373808D01*
X284440Y373855D01*
X284406Y373912D01*
X284381Y373972D01*
X284350Y374007D01*
X284325Y374048D01*
X284274Y374090D01*
X284230Y374138D01*
X284188Y374160D01*
X284151Y374189D01*
X284089Y374210D01*
X284030Y374241D01*
X283976Y374249D01*
X283939Y374261D01*
X283899Y374260D01*
X283845Y374268D01*
X280035Y374268D01*
X279970Y374257D01*
X279904Y374255D01*
X279861Y374237D01*
X279814Y374229D01*
X279757Y374195D01*
X279697Y374170D01*
X279662Y374139D01*
X279621Y374114D01*
X279580Y374063D01*
X279531Y374019D01*
X279509Y373977D01*
X279480Y373940D01*
X279459Y373878D01*
X279428Y373819D01*
X279420Y373765D01*
X279408Y373728D01*
X279409Y373688D01*
X279401Y373634D01*
X279401Y360426D01*
X279412Y360361D01*
X279414Y360295D01*
X279432Y360252D01*
X279440Y360205D01*
X279474Y360148D01*
X279499Y360088D01*
X279530Y360053D01*
X279555Y360012D01*
X279606Y359971D01*
X279650Y359922D01*
X279692Y359900D01*
X279729Y359871D01*
X279791Y359850D01*
X279850Y359819D01*
X279904Y359811D01*
X279941Y359799D01*
X279981Y359800D01*
X280035Y359792D01*
X283845Y359792D01*
X283910Y359803D01*
G37*
G36*
X411545Y558812D02*
X411545Y558812D01*
X411611Y558814D01*
X411654Y558832D01*
X411701Y558840D01*
X411758Y558874D01*
X411818Y558899D01*
X411853Y558930D01*
X411894Y558955D01*
X411936Y559006D01*
X411984Y559050D01*
X412006Y559092D01*
X412035Y559129D01*
X412056Y559191D01*
X412087Y559250D01*
X412095Y559304D01*
X412107Y559341D01*
X412106Y559381D01*
X412114Y559435D01*
X412114Y563245D01*
X412103Y563310D01*
X412101Y563376D01*
X412083Y563419D01*
X412075Y563466D01*
X412041Y563523D01*
X412016Y563583D01*
X411985Y563618D01*
X411960Y563659D01*
X411909Y563701D01*
X411865Y563749D01*
X411823Y563771D01*
X411786Y563800D01*
X411724Y563821D01*
X411665Y563852D01*
X411611Y563860D01*
X411574Y563872D01*
X411534Y563871D01*
X411480Y563879D01*
X408940Y563879D01*
X408875Y563868D01*
X408809Y563866D01*
X408766Y563848D01*
X408719Y563840D01*
X408662Y563806D01*
X408602Y563781D01*
X408567Y563750D01*
X408526Y563725D01*
X408485Y563674D01*
X408436Y563630D01*
X408414Y563588D01*
X408385Y563551D01*
X408364Y563489D01*
X408333Y563430D01*
X408325Y563376D01*
X408313Y563339D01*
X408313Y563335D01*
X408313Y563334D01*
X408314Y563299D01*
X408306Y563245D01*
X408306Y559435D01*
X408317Y559370D01*
X408319Y559304D01*
X408337Y559261D01*
X408345Y559214D01*
X408379Y559157D01*
X408404Y559097D01*
X408435Y559062D01*
X408460Y559021D01*
X408511Y558980D01*
X408555Y558931D01*
X408597Y558909D01*
X408634Y558880D01*
X408696Y558859D01*
X408755Y558828D01*
X408809Y558820D01*
X408846Y558808D01*
X408886Y558809D01*
X408940Y558801D01*
X411480Y558801D01*
X411545Y558812D01*
G37*
G36*
X411545Y548652D02*
X411545Y548652D01*
X411611Y548654D01*
X411654Y548672D01*
X411701Y548680D01*
X411758Y548714D01*
X411818Y548739D01*
X411853Y548770D01*
X411894Y548795D01*
X411936Y548846D01*
X411984Y548890D01*
X412006Y548932D01*
X412035Y548969D01*
X412056Y549031D01*
X412087Y549090D01*
X412095Y549144D01*
X412107Y549181D01*
X412106Y549221D01*
X412114Y549275D01*
X412114Y553085D01*
X412103Y553150D01*
X412101Y553216D01*
X412083Y553259D01*
X412075Y553306D01*
X412041Y553363D01*
X412016Y553423D01*
X411985Y553458D01*
X411960Y553499D01*
X411909Y553541D01*
X411865Y553589D01*
X411823Y553611D01*
X411786Y553640D01*
X411724Y553661D01*
X411665Y553692D01*
X411611Y553700D01*
X411574Y553712D01*
X411534Y553711D01*
X411480Y553719D01*
X408940Y553719D01*
X408875Y553708D01*
X408809Y553706D01*
X408766Y553688D01*
X408719Y553680D01*
X408662Y553646D01*
X408602Y553621D01*
X408567Y553590D01*
X408526Y553565D01*
X408485Y553514D01*
X408436Y553470D01*
X408414Y553428D01*
X408385Y553391D01*
X408364Y553329D01*
X408333Y553270D01*
X408325Y553216D01*
X408313Y553179D01*
X408313Y553175D01*
X408313Y553174D01*
X408314Y553139D01*
X408306Y553085D01*
X408306Y549275D01*
X408317Y549210D01*
X408319Y549144D01*
X408337Y549101D01*
X408345Y549054D01*
X408379Y548997D01*
X408404Y548937D01*
X408435Y548902D01*
X408460Y548861D01*
X408511Y548820D01*
X408555Y548771D01*
X408597Y548749D01*
X408634Y548720D01*
X408696Y548699D01*
X408755Y548668D01*
X408809Y548660D01*
X408846Y548648D01*
X408886Y548649D01*
X408940Y548641D01*
X411480Y548641D01*
X411545Y548652D01*
G37*
G36*
X527115Y530872D02*
X527115Y530872D01*
X527181Y530874D01*
X527224Y530892D01*
X527271Y530900D01*
X527328Y530934D01*
X527388Y530959D01*
X527423Y530990D01*
X527464Y531015D01*
X527506Y531066D01*
X527554Y531110D01*
X527576Y531152D01*
X527605Y531189D01*
X527626Y531251D01*
X527657Y531310D01*
X527665Y531364D01*
X527677Y531401D01*
X527676Y531441D01*
X527684Y531495D01*
X527684Y535305D01*
X527673Y535370D01*
X527671Y535436D01*
X527653Y535479D01*
X527645Y535526D01*
X527611Y535583D01*
X527586Y535643D01*
X527555Y535678D01*
X527530Y535719D01*
X527479Y535761D01*
X527435Y535809D01*
X527393Y535831D01*
X527356Y535860D01*
X527294Y535881D01*
X527235Y535912D01*
X527181Y535920D01*
X527144Y535932D01*
X527104Y535931D01*
X527050Y535939D01*
X524510Y535939D01*
X524445Y535928D01*
X524379Y535926D01*
X524336Y535908D01*
X524289Y535900D01*
X524232Y535866D01*
X524172Y535841D01*
X524137Y535810D01*
X524096Y535785D01*
X524055Y535734D01*
X524006Y535690D01*
X523984Y535648D01*
X523955Y535611D01*
X523934Y535549D01*
X523903Y535490D01*
X523895Y535436D01*
X523883Y535399D01*
X523883Y535395D01*
X523883Y535394D01*
X523884Y535359D01*
X523876Y535305D01*
X523876Y531495D01*
X523887Y531430D01*
X523889Y531364D01*
X523907Y531321D01*
X523915Y531274D01*
X523949Y531217D01*
X523974Y531157D01*
X524005Y531122D01*
X524030Y531081D01*
X524081Y531040D01*
X524125Y530991D01*
X524167Y530969D01*
X524204Y530940D01*
X524266Y530919D01*
X524325Y530888D01*
X524379Y530880D01*
X524416Y530868D01*
X524456Y530869D01*
X524510Y530861D01*
X527050Y530861D01*
X527115Y530872D01*
G37*
G36*
X35625Y355612D02*
X35625Y355612D01*
X35691Y355614D01*
X35734Y355632D01*
X35781Y355640D01*
X35838Y355674D01*
X35898Y355699D01*
X35933Y355730D01*
X35974Y355755D01*
X36016Y355806D01*
X36064Y355850D01*
X36086Y355892D01*
X36115Y355929D01*
X36136Y355991D01*
X36167Y356050D01*
X36175Y356104D01*
X36187Y356141D01*
X36186Y356181D01*
X36194Y356235D01*
X36194Y360045D01*
X36183Y360110D01*
X36181Y360176D01*
X36163Y360219D01*
X36155Y360266D01*
X36121Y360323D01*
X36096Y360383D01*
X36065Y360418D01*
X36040Y360459D01*
X35989Y360501D01*
X35945Y360549D01*
X35903Y360571D01*
X35866Y360600D01*
X35804Y360621D01*
X35745Y360652D01*
X35691Y360660D01*
X35654Y360672D01*
X35614Y360671D01*
X35560Y360679D01*
X33020Y360679D01*
X32955Y360668D01*
X32889Y360666D01*
X32846Y360648D01*
X32799Y360640D01*
X32742Y360606D01*
X32682Y360581D01*
X32647Y360550D01*
X32606Y360525D01*
X32565Y360474D01*
X32516Y360430D01*
X32494Y360388D01*
X32465Y360351D01*
X32444Y360289D01*
X32413Y360230D01*
X32405Y360176D01*
X32393Y360139D01*
X32393Y360135D01*
X32393Y360134D01*
X32394Y360099D01*
X32386Y360045D01*
X32386Y356235D01*
X32397Y356170D01*
X32399Y356104D01*
X32417Y356061D01*
X32425Y356014D01*
X32459Y355957D01*
X32484Y355897D01*
X32515Y355862D01*
X32540Y355821D01*
X32591Y355780D01*
X32635Y355731D01*
X32677Y355709D01*
X32714Y355680D01*
X32776Y355659D01*
X32835Y355628D01*
X32889Y355620D01*
X32926Y355608D01*
X32966Y355609D01*
X33020Y355601D01*
X35560Y355601D01*
X35625Y355612D01*
G37*
G36*
X535370Y572147D02*
X535370Y572147D01*
X535436Y572149D01*
X535479Y572167D01*
X535526Y572175D01*
X535583Y572209D01*
X535643Y572234D01*
X535678Y572265D01*
X535719Y572290D01*
X535761Y572341D01*
X535809Y572385D01*
X535831Y572427D01*
X535860Y572464D01*
X535881Y572526D01*
X535912Y572585D01*
X535920Y572639D01*
X535932Y572676D01*
X535931Y572716D01*
X535939Y572770D01*
X535939Y575310D01*
X535928Y575375D01*
X535926Y575441D01*
X535908Y575484D01*
X535900Y575531D01*
X535866Y575588D01*
X535841Y575648D01*
X535810Y575683D01*
X535785Y575724D01*
X535734Y575766D01*
X535690Y575814D01*
X535648Y575836D01*
X535611Y575865D01*
X535549Y575886D01*
X535490Y575917D01*
X535436Y575925D01*
X535399Y575937D01*
X535359Y575936D01*
X535305Y575944D01*
X531495Y575944D01*
X531430Y575933D01*
X531364Y575931D01*
X531321Y575913D01*
X531274Y575905D01*
X531217Y575871D01*
X531157Y575846D01*
X531122Y575815D01*
X531081Y575790D01*
X531040Y575739D01*
X530991Y575695D01*
X530969Y575653D01*
X530940Y575616D01*
X530919Y575554D01*
X530888Y575495D01*
X530880Y575441D01*
X530868Y575404D01*
X530868Y575401D01*
X530869Y575364D01*
X530861Y575310D01*
X530861Y572770D01*
X530872Y572705D01*
X530874Y572639D01*
X530892Y572596D01*
X530900Y572549D01*
X530934Y572492D01*
X530959Y572432D01*
X530990Y572397D01*
X531015Y572356D01*
X531066Y572315D01*
X531110Y572266D01*
X531152Y572244D01*
X531189Y572215D01*
X531251Y572194D01*
X531310Y572163D01*
X531364Y572155D01*
X531401Y572143D01*
X531441Y572144D01*
X531495Y572136D01*
X535305Y572136D01*
X535370Y572147D01*
G37*
G36*
X319470Y480707D02*
X319470Y480707D01*
X319536Y480709D01*
X319579Y480727D01*
X319626Y480735D01*
X319683Y480769D01*
X319743Y480794D01*
X319778Y480825D01*
X319819Y480850D01*
X319861Y480901D01*
X319909Y480945D01*
X319931Y480987D01*
X319960Y481024D01*
X319981Y481086D01*
X320012Y481145D01*
X320020Y481199D01*
X320032Y481236D01*
X320031Y481276D01*
X320039Y481330D01*
X320039Y483870D01*
X320028Y483935D01*
X320026Y484001D01*
X320008Y484044D01*
X320000Y484091D01*
X319966Y484148D01*
X319941Y484208D01*
X319910Y484243D01*
X319885Y484284D01*
X319834Y484326D01*
X319790Y484374D01*
X319748Y484396D01*
X319711Y484425D01*
X319649Y484446D01*
X319590Y484477D01*
X319536Y484485D01*
X319499Y484497D01*
X319459Y484496D01*
X319405Y484504D01*
X315595Y484504D01*
X315530Y484493D01*
X315464Y484491D01*
X315421Y484473D01*
X315374Y484465D01*
X315317Y484431D01*
X315257Y484406D01*
X315222Y484375D01*
X315181Y484350D01*
X315140Y484299D01*
X315091Y484255D01*
X315069Y484213D01*
X315040Y484176D01*
X315019Y484114D01*
X314988Y484055D01*
X314980Y484001D01*
X314968Y483964D01*
X314968Y483961D01*
X314969Y483924D01*
X314961Y483870D01*
X314961Y481330D01*
X314972Y481265D01*
X314974Y481199D01*
X314992Y481156D01*
X315000Y481109D01*
X315034Y481052D01*
X315059Y480992D01*
X315090Y480957D01*
X315115Y480916D01*
X315166Y480875D01*
X315210Y480826D01*
X315252Y480804D01*
X315289Y480775D01*
X315351Y480754D01*
X315410Y480723D01*
X315464Y480715D01*
X315501Y480703D01*
X315541Y480704D01*
X315595Y480696D01*
X319405Y480696D01*
X319470Y480707D01*
G37*
G36*
X255970Y474357D02*
X255970Y474357D01*
X256036Y474359D01*
X256079Y474377D01*
X256126Y474385D01*
X256183Y474419D01*
X256243Y474444D01*
X256278Y474475D01*
X256319Y474500D01*
X256361Y474551D01*
X256409Y474595D01*
X256431Y474637D01*
X256460Y474674D01*
X256481Y474736D01*
X256512Y474795D01*
X256520Y474849D01*
X256532Y474886D01*
X256531Y474926D01*
X256539Y474980D01*
X256539Y477520D01*
X256528Y477585D01*
X256526Y477651D01*
X256508Y477694D01*
X256500Y477741D01*
X256466Y477798D01*
X256441Y477858D01*
X256410Y477893D01*
X256385Y477934D01*
X256334Y477976D01*
X256290Y478024D01*
X256248Y478046D01*
X256211Y478075D01*
X256149Y478096D01*
X256090Y478127D01*
X256036Y478135D01*
X255999Y478147D01*
X255959Y478146D01*
X255905Y478154D01*
X252095Y478154D01*
X252030Y478143D01*
X251964Y478141D01*
X251921Y478123D01*
X251874Y478115D01*
X251817Y478081D01*
X251757Y478056D01*
X251722Y478025D01*
X251681Y478000D01*
X251640Y477949D01*
X251591Y477905D01*
X251569Y477863D01*
X251540Y477826D01*
X251519Y477764D01*
X251488Y477705D01*
X251480Y477651D01*
X251468Y477614D01*
X251468Y477611D01*
X251469Y477574D01*
X251461Y477520D01*
X251461Y474980D01*
X251472Y474915D01*
X251474Y474849D01*
X251492Y474806D01*
X251500Y474759D01*
X251534Y474702D01*
X251559Y474642D01*
X251590Y474607D01*
X251615Y474566D01*
X251666Y474525D01*
X251710Y474476D01*
X251752Y474454D01*
X251789Y474425D01*
X251851Y474404D01*
X251910Y474373D01*
X251964Y474365D01*
X252001Y474353D01*
X252041Y474354D01*
X252095Y474346D01*
X255905Y474346D01*
X255970Y474357D01*
G37*
G36*
X476950Y131457D02*
X476950Y131457D01*
X477016Y131459D01*
X477059Y131477D01*
X477106Y131485D01*
X477163Y131519D01*
X477223Y131544D01*
X477258Y131575D01*
X477299Y131600D01*
X477341Y131651D01*
X477389Y131695D01*
X477411Y131737D01*
X477440Y131774D01*
X477461Y131836D01*
X477492Y131895D01*
X477500Y131949D01*
X477512Y131986D01*
X477511Y132026D01*
X477519Y132080D01*
X477519Y134620D01*
X477508Y134685D01*
X477506Y134751D01*
X477488Y134794D01*
X477480Y134841D01*
X477446Y134898D01*
X477421Y134958D01*
X477390Y134993D01*
X477365Y135034D01*
X477314Y135076D01*
X477270Y135124D01*
X477228Y135146D01*
X477191Y135175D01*
X477129Y135196D01*
X477070Y135227D01*
X477016Y135235D01*
X476979Y135247D01*
X476939Y135246D01*
X476885Y135254D01*
X473075Y135254D01*
X473010Y135243D01*
X472944Y135241D01*
X472901Y135223D01*
X472854Y135215D01*
X472797Y135181D01*
X472737Y135156D01*
X472702Y135125D01*
X472661Y135100D01*
X472620Y135049D01*
X472571Y135005D01*
X472549Y134963D01*
X472520Y134926D01*
X472499Y134864D01*
X472468Y134805D01*
X472460Y134751D01*
X472448Y134714D01*
X472448Y134711D01*
X472449Y134674D01*
X472441Y134620D01*
X472441Y132080D01*
X472452Y132015D01*
X472454Y131949D01*
X472472Y131906D01*
X472480Y131859D01*
X472514Y131802D01*
X472539Y131742D01*
X472570Y131707D01*
X472595Y131666D01*
X472646Y131625D01*
X472690Y131576D01*
X472732Y131554D01*
X472769Y131525D01*
X472831Y131504D01*
X472890Y131473D01*
X472944Y131465D01*
X472981Y131453D01*
X473021Y131454D01*
X473075Y131446D01*
X476885Y131446D01*
X476950Y131457D01*
G37*
D10*
X535811Y579884D02*
X541403Y579884D01*
X541403Y568196D01*
X535811Y568196D01*
X535811Y579884D01*
X535811Y570365D02*
X541403Y570365D01*
X541403Y572534D02*
X535811Y572534D01*
X535811Y574703D02*
X541403Y574703D01*
X541403Y576872D02*
X535811Y576872D01*
X535811Y579041D02*
X541403Y579041D01*
X530989Y579884D02*
X525397Y579884D01*
X530989Y579884D02*
X530989Y568196D01*
X525397Y568196D01*
X525397Y579884D01*
X525397Y570365D02*
X530989Y570365D01*
X530989Y572534D02*
X525397Y572534D01*
X525397Y574703D02*
X530989Y574703D01*
X530989Y576872D02*
X525397Y576872D01*
X525397Y579041D02*
X530989Y579041D01*
D11*
X787400Y12700D03*
X63500Y596900D03*
D12*
X825500Y25400D03*
X825500Y584200D03*
X25400Y584200D03*
X25400Y25400D03*
D13*
X51590Y435300D03*
X51590Y377500D03*
D14*
X76200Y25400D03*
X101600Y25400D03*
X127000Y25400D03*
X152400Y25400D03*
X177800Y25400D03*
X203200Y25400D03*
X228600Y25400D03*
X254000Y25400D03*
X304800Y25400D03*
X330200Y25400D03*
X355600Y25400D03*
X381000Y25400D03*
X406400Y25400D03*
X431800Y25400D03*
X457200Y25400D03*
X482600Y25400D03*
D10*
X531624Y525397D02*
X531624Y530989D01*
X531624Y525397D02*
X519936Y525397D01*
X519936Y530989D01*
X531624Y530989D01*
X531624Y527566D02*
X519936Y527566D01*
X519936Y529735D02*
X531624Y529735D01*
X531624Y535811D02*
X531624Y541403D01*
X531624Y535811D02*
X519936Y535811D01*
X519936Y541403D01*
X531624Y541403D01*
X531624Y537980D02*
X519936Y537980D01*
X519936Y540149D02*
X531624Y540149D01*
X40134Y355729D02*
X40134Y350137D01*
X28446Y350137D01*
X28446Y355729D01*
X40134Y355729D01*
X40134Y352306D02*
X28446Y352306D01*
X28446Y354475D02*
X40134Y354475D01*
X40134Y360551D02*
X40134Y366143D01*
X40134Y360551D02*
X28446Y360551D01*
X28446Y366143D01*
X40134Y366143D01*
X40134Y362720D02*
X28446Y362720D01*
X28446Y364889D02*
X40134Y364889D01*
D15*
X368300Y254000D03*
X203200Y317500D03*
X190500Y279400D03*
X177800Y330200D03*
X76200Y266700D03*
X165100Y317500D03*
X215900Y279400D03*
X749300Y342900D03*
D10*
X472569Y127506D02*
X466977Y127506D01*
X466977Y139194D01*
X472569Y139194D01*
X472569Y127506D01*
X472569Y129675D02*
X466977Y129675D01*
X466977Y131844D02*
X472569Y131844D01*
X472569Y134013D02*
X466977Y134013D01*
X466977Y136182D02*
X472569Y136182D01*
X472569Y138351D02*
X466977Y138351D01*
X477391Y127506D02*
X482983Y127506D01*
X477391Y127506D02*
X477391Y139194D01*
X482983Y139194D01*
X482983Y127506D01*
X482983Y129675D02*
X477391Y129675D01*
X477391Y131844D02*
X482983Y131844D01*
X482983Y134013D02*
X477391Y134013D01*
X477391Y136182D02*
X482983Y136182D01*
X482983Y138351D02*
X477391Y138351D01*
X262003Y482094D02*
X256411Y482094D01*
X262003Y482094D02*
X262003Y470406D01*
X256411Y470406D01*
X256411Y482094D01*
X256411Y472575D02*
X262003Y472575D01*
X262003Y474744D02*
X256411Y474744D01*
X256411Y476913D02*
X262003Y476913D01*
X262003Y479082D02*
X256411Y479082D01*
X256411Y481251D02*
X262003Y481251D01*
X251589Y482094D02*
X245997Y482094D01*
X251589Y482094D02*
X251589Y470406D01*
X245997Y470406D01*
X245997Y482094D01*
X245997Y472575D02*
X251589Y472575D01*
X251589Y474744D02*
X245997Y474744D01*
X245997Y476913D02*
X251589Y476913D01*
X251589Y479082D02*
X245997Y479082D01*
X245997Y481251D02*
X251589Y481251D01*
D15*
X584200Y469900D03*
X127000Y152400D03*
X165100Y279400D03*
X444500Y101600D03*
D16*
X597032Y216350D03*
X685800Y62600D03*
X774568Y216350D03*
D10*
X404366Y563878D02*
X404366Y569470D01*
X416054Y569470D01*
X416054Y563878D01*
X404366Y563878D01*
X404366Y566047D02*
X416054Y566047D01*
X416054Y568216D02*
X404366Y568216D01*
X404366Y559056D02*
X404366Y553464D01*
X404366Y559056D02*
X416054Y559056D01*
X416054Y553464D01*
X404366Y553464D01*
X404366Y555633D02*
X416054Y555633D01*
X416054Y557802D02*
X404366Y557802D01*
X404366Y548642D02*
X404366Y543050D01*
X404366Y548642D02*
X416054Y548642D01*
X416054Y543050D01*
X404366Y543050D01*
X404366Y545219D02*
X416054Y545219D01*
X416054Y547388D02*
X404366Y547388D01*
D17*
X331343Y386588D02*
X326009Y386588D01*
X326009Y398272D01*
X331343Y398272D01*
X331343Y386588D01*
X331343Y388760D02*
X326009Y388760D01*
X326009Y390932D02*
X331343Y390932D01*
X331343Y393104D02*
X326009Y393104D01*
X326009Y395276D02*
X331343Y395276D01*
X331343Y397448D02*
X326009Y397448D01*
X334137Y386588D02*
X339471Y386588D01*
X334137Y386588D02*
X334137Y398272D01*
X339471Y398272D01*
X339471Y386588D01*
X339471Y388760D02*
X334137Y388760D01*
X334137Y390932D02*
X339471Y390932D01*
X339471Y393104D02*
X334137Y393104D01*
X334137Y395276D02*
X339471Y395276D01*
X339471Y397448D02*
X334137Y397448D01*
X279527Y361188D02*
X274193Y361188D01*
X274193Y372872D01*
X279527Y372872D01*
X279527Y361188D01*
X279527Y363360D02*
X274193Y363360D01*
X274193Y365532D02*
X279527Y365532D01*
X279527Y367704D02*
X274193Y367704D01*
X274193Y369876D02*
X279527Y369876D01*
X279527Y372048D02*
X274193Y372048D01*
X284353Y361188D02*
X289687Y361188D01*
X284353Y361188D02*
X284353Y372872D01*
X289687Y372872D01*
X289687Y361188D01*
X289687Y363360D02*
X284353Y363360D01*
X284353Y365532D02*
X289687Y365532D01*
X289687Y367704D02*
X284353Y367704D01*
X284353Y369876D02*
X289687Y369876D01*
X289687Y372048D02*
X284353Y372048D01*
D14*
X269240Y367030D03*
X294640Y367030D03*
D10*
X319911Y488444D02*
X325503Y488444D01*
X325503Y476756D01*
X319911Y476756D01*
X319911Y488444D01*
X319911Y478925D02*
X325503Y478925D01*
X325503Y481094D02*
X319911Y481094D01*
X319911Y483263D02*
X325503Y483263D01*
X325503Y485432D02*
X319911Y485432D01*
X319911Y487601D02*
X325503Y487601D01*
X315089Y488444D02*
X309497Y488444D01*
X315089Y488444D02*
X315089Y476756D01*
X309497Y476756D01*
X309497Y488444D01*
X309497Y478925D02*
X315089Y478925D01*
X315089Y481094D02*
X309497Y481094D01*
X309497Y483263D02*
X315089Y483263D01*
X315089Y485432D02*
X309497Y485432D01*
X309497Y487601D02*
X315089Y487601D01*
M02*
