M48
;GenerationSoftware,Autodesk,EAGLE,9.6.2*%
;CreationDate,2023-05-01T16:57:57Z*%
FMAT,2
ICI,OFF
METRIC,TZ,000.000
T6C0.305
T5C0.400
T4C0.650
T3C1.016
T2C1.778
T1C3.302
%
G90
M71
T1
X82550Y2540
X82550Y58420
X2540Y58420
X2540Y2540
T2
X59703Y21635
X68580Y6260
X77457Y21635
T3
X29464Y36703
X7620Y2540
X10160Y2540
X12700Y2540
X15240Y2540
X17780Y2540
X20320Y2540
X22860Y2540
X25400Y2540
X30480Y2540
X33020Y2540
X35560Y2540
X38100Y2540
X40640Y2540
X43180Y2540
X45720Y2540
X48260Y2540
X26924Y36703
T4
X5159Y43530
X5159Y37750
T5
X1509Y44958
X1509Y36322
X5689Y36322
X5689Y44958
T6
X39370Y59690
X3810Y50800
X34290Y59690
X33655Y25908
X48260Y52070
X45720Y12700
X7493Y27940
X6604Y15240
X6604Y19050
X6604Y24130
X48260Y59690
X82550Y26670
X75184Y40386
X33020Y55880
X2540Y40640
X889Y40640
X68834Y14097
X70358Y14986
X72390Y58166
X55880Y52451
X61849Y60325
X27686Y48514
X27940Y2540
X4191Y8255
X5080Y5080
X1270Y7620
X28321Y9779
X64135Y50927
X63373Y60325
X74930Y54610
X72390Y54229
X74422Y37211
X28321Y11811
X34544Y9652
X26797Y14605
X34544Y17272
X28956Y17145
X26289Y44323
X23241Y45974
X37338Y34544
X59690Y59690
X82550Y54610
X7620Y19050
X77470Y58420
X54610Y3810
X53340Y7620
X83820Y6350
X19050Y25400
X16510Y25400
X58420Y1270
X57150Y59690
X53340Y59690
X45339Y45720
X36830Y52070
X17145Y45720
X63500Y53340
X62992Y52832
X64008Y52832
X64008Y53848
X62992Y53848
X44704Y34290
X35560Y39243
X8255Y35560
X53213Y51689
X62230Y39370
X57785Y41402
X61722Y48260
X33020Y43561
X36830Y19050
X46990Y17780
X12700Y46990
X10160Y46990
X13970Y6350
X11430Y6350
X13970Y8890
X19050Y6350
X41910Y17018
X31750Y34290
X35560Y43180
X45466Y40767
X3810Y46990
X82550Y31750
X57150Y36830
X82550Y41910
X82550Y36830
X45720Y26670
X41910Y26670
X41529Y40894
X26670Y12700
X52451Y46482
X52451Y43180
X52451Y39370
X72517Y56642
X57785Y35306
X73152Y51943
X75057Y41783
X72390Y50546
X65913Y46177
X7366Y40894
X7366Y39878
X52451Y51816
X66040Y51562
X66459Y54737
X67818Y57912
X65024Y49530
X69977Y38735
X67056Y45720
X55626Y58293
X7366Y36576
X7366Y38862
X9906Y40640
X30099Y42672
X28448Y39370
X4699Y40640
X7239Y43053
X10541Y36449
X23749Y15113
X27051Y20828
X66548Y18034
X13970Y30734
X49530Y11176
X10795Y26162
X28702Y54737
X67310Y14351
X27710Y54102
X10160Y30607
X48768Y11811
X9525Y25654
X35687Y34671
X24765Y40005
X36449Y9779
X34290Y4699
X36449Y26924
X63500Y56388
X21590Y31369
X59817Y53213
X23241Y27686
X22352Y26162
X17780Y14732
X46990Y11811
X73203Y34671
X16510Y14224
X26670Y6731
X56718Y31623
X68326Y50165
X65913Y46990
X68453Y51689
X74422Y38786
X68453Y56642
X57150Y38100
X41529Y6731
X24384Y13208
X68326Y19050
X46990Y9398
X11303Y9906
X70485Y44450
X14605Y27432
X49784Y33782
X11354Y13589
X14605Y26289
X27305Y46990
X26924Y24765
X24130Y9906
X61468Y51816
X19050Y32004
X26924Y26035
X59817Y54737
X20320Y27813
X62738Y56388
X17653Y31369
X61722Y55910
X16510Y30734
X70104Y18415
X8890Y27686
X19050Y9398
X21463Y10033
X20193Y10033
X27305Y29718
X15113Y12700
X58928Y45593
X24384Y23114
X39116Y15469
X28448Y15875
X27559Y6731
X28194Y5512
X14605Y13208
X60388Y49974
X54991Y58928
X55951Y28900
X52560Y30879
X41021Y53340
X38608Y58293
X31750Y39243
X35814Y37338
X40005Y41402
X36449Y34290
X40005Y25400
X39370Y889
X66929Y59309
X67183Y53594
X56642Y47244
X68326Y54229
X35179Y48387
X36703Y48387
X42545Y50292
X37465Y50292
X59817Y51689
X42545Y45720
X43815Y45720
X33655Y48895
X48006Y20447
X29718Y57404
X29337Y25908
X20320Y44958
X6985Y12573
X8001Y9779
X29337Y26924
X48006Y16002
X24892Y46084
X42926Y56261
X46990Y8255
X43688Y40513
X69850Y40005
X56896Y29845
X48514Y27305
X57023Y34290
X56134Y32512
X60706Y53194
X11430Y22860
X13970Y22860
X16510Y22860
X19050Y22860
X19050Y15875
X16510Y15748
X13970Y15240
X11430Y15240
X19050Y20320
X19050Y17780
X7620Y31115
X36830Y59690
X35941Y49911
M30