G04 EAGLE Gerber RS-274X export*
G75*
%MOMM*%
%FSLAX34Y34*%
%LPD*%
%INInner Layer 2*%
%IPPOS*%
%AMOC8*
5,1,8,0,0,1.08239X$1,22.5*%
G01*
%ADD10C,0.654000*%
%ADD11C,1.524000*%
%ADD12C,0.558800*%

G36*
X387524Y4071D02*
X387524Y4071D01*
X387574Y4069D01*
X387681Y4091D01*
X387791Y4105D01*
X387837Y4123D01*
X387885Y4133D01*
X387984Y4181D01*
X388086Y4222D01*
X388126Y4251D01*
X388171Y4273D01*
X388255Y4344D01*
X388344Y4408D01*
X388375Y4447D01*
X388413Y4479D01*
X388476Y4569D01*
X388546Y4653D01*
X388568Y4698D01*
X388596Y4739D01*
X388635Y4842D01*
X388682Y4941D01*
X388691Y4990D01*
X388709Y5036D01*
X388721Y5146D01*
X388742Y5253D01*
X388739Y5303D01*
X388744Y5352D01*
X388729Y5461D01*
X388722Y5571D01*
X388707Y5618D01*
X388700Y5667D01*
X388648Y5820D01*
X387857Y7728D01*
X387857Y10052D01*
X388747Y12200D01*
X390390Y13843D01*
X392538Y14733D01*
X394862Y14733D01*
X397010Y13843D01*
X398653Y12200D01*
X399543Y10052D01*
X399543Y7728D01*
X398752Y5820D01*
X398739Y5772D01*
X398718Y5727D01*
X398697Y5619D01*
X398668Y5513D01*
X398668Y5463D01*
X398658Y5414D01*
X398665Y5305D01*
X398663Y5195D01*
X398675Y5147D01*
X398678Y5097D01*
X398712Y4993D01*
X398738Y4886D01*
X398761Y4842D01*
X398776Y4795D01*
X398835Y4702D01*
X398886Y4605D01*
X398920Y4568D01*
X398946Y4526D01*
X399026Y4451D01*
X399100Y4369D01*
X399142Y4342D01*
X399178Y4308D01*
X399274Y4255D01*
X399366Y4195D01*
X399413Y4178D01*
X399456Y4154D01*
X399563Y4127D01*
X399667Y4091D01*
X399716Y4087D01*
X399764Y4075D01*
X399925Y4065D01*
X819518Y4065D01*
X819587Y4073D01*
X819657Y4072D01*
X819744Y4093D01*
X819833Y4105D01*
X819898Y4130D01*
X819966Y4147D01*
X820045Y4189D01*
X820129Y4222D01*
X820185Y4263D01*
X820247Y4295D01*
X820313Y4356D01*
X820386Y4408D01*
X820431Y4462D01*
X820482Y4509D01*
X820532Y4584D01*
X820589Y4653D01*
X820619Y4717D01*
X820657Y4775D01*
X820686Y4860D01*
X820724Y4941D01*
X820738Y5010D01*
X820760Y5076D01*
X820767Y5165D01*
X820784Y5253D01*
X820780Y5323D01*
X820785Y5393D01*
X820770Y5481D01*
X820764Y5571D01*
X820743Y5637D01*
X820731Y5706D01*
X820694Y5788D01*
X820666Y5873D01*
X820629Y5932D01*
X820600Y5996D01*
X820544Y6066D01*
X820496Y6142D01*
X820445Y6190D01*
X820402Y6244D01*
X820330Y6299D01*
X820265Y6360D01*
X820204Y6394D01*
X820148Y6436D01*
X820003Y6507D01*
X814421Y8819D01*
X808919Y14321D01*
X805941Y21509D01*
X805941Y29291D01*
X808919Y36479D01*
X814421Y41981D01*
X821609Y44959D01*
X829391Y44959D01*
X836579Y41981D01*
X842081Y36479D01*
X844393Y30897D01*
X844428Y30836D01*
X844454Y30771D01*
X844506Y30699D01*
X844551Y30620D01*
X844600Y30570D01*
X844640Y30514D01*
X844710Y30457D01*
X844772Y30392D01*
X844832Y30356D01*
X844885Y30311D01*
X844967Y30273D01*
X845043Y30226D01*
X845110Y30205D01*
X845173Y30176D01*
X845261Y30159D01*
X845347Y30132D01*
X845417Y30129D01*
X845486Y30116D01*
X845575Y30121D01*
X845665Y30117D01*
X845733Y30131D01*
X845803Y30136D01*
X845888Y30163D01*
X845976Y30181D01*
X846039Y30212D01*
X846105Y30234D01*
X846181Y30282D01*
X846262Y30321D01*
X846315Y30366D01*
X846374Y30404D01*
X846436Y30469D01*
X846504Y30527D01*
X846544Y30585D01*
X846592Y30635D01*
X846635Y30714D01*
X846687Y30787D01*
X846712Y30853D01*
X846746Y30914D01*
X846768Y31001D01*
X846800Y31085D01*
X846808Y31154D01*
X846825Y31222D01*
X846835Y31382D01*
X846835Y578218D01*
X846827Y578287D01*
X846828Y578357D01*
X846807Y578444D01*
X846795Y578533D01*
X846770Y578598D01*
X846753Y578666D01*
X846711Y578745D01*
X846678Y578829D01*
X846637Y578885D01*
X846605Y578947D01*
X846544Y579013D01*
X846492Y579086D01*
X846438Y579131D01*
X846391Y579182D01*
X846316Y579232D01*
X846247Y579289D01*
X846183Y579319D01*
X846125Y579357D01*
X846040Y579386D01*
X845959Y579424D01*
X845890Y579438D01*
X845824Y579460D01*
X845735Y579467D01*
X845647Y579484D01*
X845577Y579480D01*
X845507Y579485D01*
X845419Y579470D01*
X845329Y579464D01*
X845263Y579443D01*
X845194Y579431D01*
X845112Y579394D01*
X845027Y579366D01*
X844968Y579329D01*
X844904Y579300D01*
X844834Y579244D01*
X844758Y579196D01*
X844710Y579145D01*
X844656Y579102D01*
X844601Y579030D01*
X844540Y578965D01*
X844506Y578904D01*
X844464Y578848D01*
X844393Y578703D01*
X842081Y573121D01*
X836579Y567619D01*
X829391Y564641D01*
X821609Y564641D01*
X814421Y567619D01*
X808919Y573121D01*
X805941Y580309D01*
X805941Y588091D01*
X808919Y595279D01*
X814421Y600781D01*
X820003Y603093D01*
X820064Y603128D01*
X820129Y603154D01*
X820201Y603206D01*
X820280Y603251D01*
X820330Y603300D01*
X820386Y603340D01*
X820443Y603410D01*
X820508Y603472D01*
X820544Y603532D01*
X820589Y603585D01*
X820627Y603667D01*
X820674Y603743D01*
X820695Y603810D01*
X820724Y603873D01*
X820741Y603961D01*
X820768Y604047D01*
X820771Y604117D01*
X820784Y604186D01*
X820779Y604275D01*
X820783Y604365D01*
X820769Y604433D01*
X820764Y604503D01*
X820737Y604588D01*
X820719Y604676D01*
X820688Y604739D01*
X820666Y604805D01*
X820618Y604881D01*
X820579Y604962D01*
X820534Y605015D01*
X820496Y605074D01*
X820431Y605136D01*
X820373Y605204D01*
X820315Y605244D01*
X820265Y605292D01*
X820186Y605335D01*
X820113Y605387D01*
X820047Y605412D01*
X819986Y605446D01*
X819899Y605468D01*
X819815Y605500D01*
X819746Y605508D01*
X819678Y605525D01*
X819518Y605535D01*
X31382Y605535D01*
X31313Y605527D01*
X31243Y605528D01*
X31156Y605507D01*
X31067Y605495D01*
X31002Y605470D01*
X30934Y605453D01*
X30855Y605411D01*
X30771Y605378D01*
X30715Y605337D01*
X30653Y605305D01*
X30587Y605244D01*
X30514Y605192D01*
X30469Y605138D01*
X30418Y605091D01*
X30368Y605016D01*
X30311Y604947D01*
X30281Y604883D01*
X30243Y604825D01*
X30214Y604740D01*
X30176Y604659D01*
X30162Y604590D01*
X30140Y604524D01*
X30133Y604435D01*
X30116Y604347D01*
X30120Y604277D01*
X30115Y604207D01*
X30130Y604119D01*
X30136Y604029D01*
X30157Y603963D01*
X30169Y603894D01*
X30206Y603812D01*
X30234Y603727D01*
X30271Y603668D01*
X30300Y603604D01*
X30356Y603534D01*
X30404Y603458D01*
X30455Y603410D01*
X30498Y603356D01*
X30570Y603301D01*
X30635Y603240D01*
X30696Y603206D01*
X30752Y603164D01*
X30897Y603093D01*
X36479Y600781D01*
X41981Y595279D01*
X44959Y588091D01*
X44959Y580309D01*
X41981Y573121D01*
X36479Y567619D01*
X29291Y564641D01*
X21509Y564641D01*
X14321Y567619D01*
X8819Y573121D01*
X6507Y578703D01*
X6472Y578764D01*
X6446Y578829D01*
X6394Y578901D01*
X6349Y578980D01*
X6300Y579030D01*
X6260Y579086D01*
X6190Y579143D01*
X6128Y579208D01*
X6068Y579244D01*
X6015Y579289D01*
X5933Y579327D01*
X5857Y579374D01*
X5790Y579395D01*
X5727Y579424D01*
X5639Y579441D01*
X5553Y579468D01*
X5483Y579471D01*
X5414Y579484D01*
X5325Y579479D01*
X5235Y579483D01*
X5167Y579469D01*
X5097Y579464D01*
X5012Y579437D01*
X4924Y579419D01*
X4861Y579388D01*
X4795Y579366D01*
X4719Y579318D01*
X4638Y579279D01*
X4585Y579234D01*
X4526Y579196D01*
X4464Y579131D01*
X4396Y579073D01*
X4356Y579015D01*
X4308Y578965D01*
X4265Y578886D01*
X4213Y578813D01*
X4188Y578747D01*
X4154Y578686D01*
X4132Y578599D01*
X4100Y578515D01*
X4092Y578446D01*
X4075Y578378D01*
X4065Y578218D01*
X4065Y452761D01*
X4073Y452694D01*
X4072Y452625D01*
X4093Y452536D01*
X4105Y452446D01*
X4130Y452382D01*
X4145Y452316D01*
X4188Y452235D01*
X4222Y452150D01*
X4262Y452095D01*
X4294Y452034D01*
X4355Y451967D01*
X4408Y451893D01*
X4461Y451849D01*
X4507Y451799D01*
X4583Y451748D01*
X4653Y451690D01*
X4715Y451661D01*
X4772Y451623D01*
X4859Y451593D01*
X4941Y451555D01*
X5008Y451542D01*
X5073Y451519D01*
X5164Y451512D01*
X5253Y451495D01*
X5322Y451499D01*
X5390Y451493D01*
X5480Y451509D01*
X5571Y451514D01*
X5636Y451536D01*
X5703Y451547D01*
X5787Y451584D01*
X5873Y451613D01*
X5931Y451649D01*
X5993Y451677D01*
X6125Y451769D01*
X6163Y451799D01*
X6170Y451807D01*
X6180Y451813D01*
X6281Y451921D01*
X6385Y452027D01*
X6390Y452036D01*
X6398Y452044D01*
X6469Y452174D01*
X6543Y452303D01*
X6546Y452313D01*
X6551Y452323D01*
X6588Y452466D01*
X6628Y452609D01*
X6628Y452620D01*
X6631Y452631D01*
X6636Y452717D01*
X6655Y452734D01*
X6719Y452829D01*
X6789Y452920D01*
X6807Y452961D01*
X6832Y452998D01*
X6872Y453093D01*
X6946Y453143D01*
X7071Y453224D01*
X7078Y453232D01*
X7087Y453238D01*
X7186Y453348D01*
X7287Y453458D01*
X7292Y453467D01*
X7299Y453475D01*
X7367Y453607D01*
X7437Y453738D01*
X7440Y453748D01*
X7445Y453758D01*
X7470Y453841D01*
X7492Y453853D01*
X7575Y453932D01*
X7664Y454004D01*
X7690Y454041D01*
X7723Y454072D01*
X7783Y454155D01*
X7867Y454187D01*
X8006Y454238D01*
X8015Y454244D01*
X8026Y454248D01*
X8146Y454334D01*
X8269Y454418D01*
X8276Y454426D01*
X8285Y454433D01*
X8381Y454546D01*
X8478Y454658D01*
X8483Y454667D01*
X8490Y454676D01*
X8532Y454751D01*
X8557Y454758D01*
X8613Y454791D01*
X8648Y454805D01*
X8681Y454829D01*
X8758Y454867D01*
X8792Y454897D01*
X8831Y454920D01*
X8908Y454988D01*
X8997Y455001D01*
X9144Y455019D01*
X9154Y455023D01*
X9165Y455025D01*
X9302Y455082D01*
X9440Y455136D01*
X9449Y455142D01*
X9459Y455147D01*
X9576Y455235D01*
X9697Y455323D01*
X9704Y455331D01*
X9713Y455338D01*
X9771Y455402D01*
X9796Y455403D01*
X9906Y455438D01*
X10017Y455465D01*
X10056Y455486D01*
X10099Y455500D01*
X10240Y455576D01*
X10304Y455586D01*
X10386Y455589D01*
X10461Y455610D01*
X10537Y455622D01*
X10565Y455634D01*
X10853Y455634D01*
X10985Y455650D01*
X11117Y455662D01*
X11153Y455672D01*
X11168Y455674D01*
X11189Y455682D01*
X11272Y455705D01*
X11558Y455805D01*
X11575Y455796D01*
X11685Y455760D01*
X11792Y455715D01*
X11835Y455709D01*
X11877Y455695D01*
X11993Y455687D01*
X12107Y455671D01*
X12173Y455674D01*
X12194Y455673D01*
X12213Y455676D01*
X12268Y455679D01*
X13356Y455801D01*
X13362Y455801D01*
X13404Y455807D01*
X13445Y455805D01*
X13560Y455829D01*
X13677Y455845D01*
X13736Y455865D01*
X13757Y455870D01*
X13775Y455878D01*
X13829Y455897D01*
X13833Y455899D01*
X16347Y455899D01*
X16417Y455870D01*
X16530Y455839D01*
X16641Y455801D01*
X16683Y455797D01*
X16723Y455786D01*
X16841Y455784D01*
X16958Y455774D01*
X16999Y455782D01*
X17041Y455781D01*
X17062Y455786D01*
X18012Y455679D01*
X18128Y455680D01*
X18244Y455674D01*
X18286Y455682D01*
X18330Y455683D01*
X18442Y455713D01*
X18556Y455736D01*
X18616Y455761D01*
X18637Y455766D01*
X18654Y455776D01*
X18705Y455796D01*
X18722Y455805D01*
X19008Y455705D01*
X19138Y455677D01*
X19266Y455644D01*
X19304Y455642D01*
X19319Y455638D01*
X19341Y455639D01*
X19427Y455634D01*
X19713Y455634D01*
X19736Y455624D01*
X19818Y455611D01*
X19897Y455588D01*
X19974Y455586D01*
X20043Y455575D01*
X20080Y455558D01*
X20117Y455532D01*
X20224Y455491D01*
X20327Y455443D01*
X20372Y455434D01*
X20414Y455418D01*
X20515Y455400D01*
X20581Y455338D01*
X20687Y455235D01*
X20696Y455230D01*
X20704Y455222D01*
X20834Y455151D01*
X20963Y455077D01*
X20973Y455074D01*
X20983Y455069D01*
X21126Y455032D01*
X21269Y454992D01*
X21280Y454992D01*
X21291Y454989D01*
X21377Y454984D01*
X21394Y454965D01*
X21476Y454910D01*
X21496Y454892D01*
X21516Y454880D01*
X21580Y454831D01*
X21621Y454813D01*
X21658Y454788D01*
X21753Y454748D01*
X21803Y454674D01*
X21884Y454549D01*
X21892Y454542D01*
X21898Y454533D01*
X22008Y454434D01*
X22118Y454333D01*
X22127Y454328D01*
X22135Y454321D01*
X22267Y454253D01*
X22398Y454183D01*
X22408Y454180D01*
X22418Y454175D01*
X22501Y454150D01*
X22513Y454128D01*
X22592Y454045D01*
X22664Y453956D01*
X22701Y453930D01*
X22732Y453897D01*
X22815Y453837D01*
X22847Y453753D01*
X22898Y453614D01*
X22904Y453605D01*
X22908Y453594D01*
X22994Y453474D01*
X23078Y453351D01*
X23086Y453344D01*
X23093Y453335D01*
X23206Y453240D01*
X23318Y453142D01*
X23327Y453137D01*
X23336Y453130D01*
X23411Y453088D01*
X23418Y453063D01*
X23476Y452965D01*
X23527Y452862D01*
X23557Y452828D01*
X23580Y452789D01*
X23648Y452712D01*
X23661Y452622D01*
X23679Y452476D01*
X23683Y452466D01*
X23685Y452455D01*
X23742Y452318D01*
X23796Y452180D01*
X23802Y452171D01*
X23807Y452161D01*
X23896Y452043D01*
X23983Y451923D01*
X23991Y451916D01*
X23998Y451907D01*
X24062Y451849D01*
X24063Y451824D01*
X24098Y451714D01*
X24125Y451603D01*
X24146Y451564D01*
X24160Y451521D01*
X24209Y451430D01*
X24202Y451340D01*
X24187Y451193D01*
X24189Y451182D01*
X24188Y451171D01*
X24213Y451026D01*
X24235Y450879D01*
X24240Y450868D01*
X24241Y450858D01*
X24301Y450724D01*
X24360Y450586D01*
X24367Y450577D01*
X24371Y450568D01*
X24421Y450497D01*
X24417Y450471D01*
X24426Y450357D01*
X24428Y450243D01*
X24440Y450200D01*
X24443Y450155D01*
X24471Y450056D01*
X24450Y449988D01*
X24439Y449964D01*
X24434Y449940D01*
X24397Y449829D01*
X24396Y449818D01*
X24393Y449808D01*
X24386Y449691D01*
X24379Y449652D01*
X24381Y449613D01*
X24374Y449512D01*
X24376Y449501D01*
X24375Y449490D01*
X24395Y449391D01*
X24399Y449335D01*
X24416Y449282D01*
X24431Y449199D01*
X24435Y449189D01*
X24437Y449178D01*
X24470Y449098D01*
X24460Y449075D01*
X24444Y448961D01*
X24420Y448849D01*
X24422Y448805D01*
X24416Y448760D01*
X24421Y448657D01*
X24375Y448579D01*
X24298Y448453D01*
X24295Y448442D01*
X24289Y448433D01*
X24248Y448291D01*
X24205Y448149D01*
X24205Y448138D01*
X24202Y448127D01*
X24197Y447980D01*
X24191Y447831D01*
X24193Y447820D01*
X24193Y447809D01*
X24207Y447724D01*
X24192Y447703D01*
X24151Y447596D01*
X24103Y447493D01*
X24094Y447448D01*
X24078Y447406D01*
X24060Y447305D01*
X23999Y447239D01*
X23895Y447133D01*
X23890Y447124D01*
X23882Y447116D01*
X23811Y446986D01*
X23737Y446857D01*
X23734Y446847D01*
X23729Y446837D01*
X23692Y446695D01*
X23652Y446551D01*
X23652Y446540D01*
X23649Y446529D01*
X23644Y446443D01*
X23625Y446426D01*
X23561Y446331D01*
X23491Y446240D01*
X23473Y446199D01*
X23448Y446162D01*
X23408Y446067D01*
X23333Y446016D01*
X23209Y445936D01*
X23202Y445928D01*
X23193Y445922D01*
X23094Y445811D01*
X22993Y445702D01*
X22988Y445693D01*
X22981Y445685D01*
X22913Y445553D01*
X22843Y445422D01*
X22840Y445412D01*
X22835Y445402D01*
X22810Y445319D01*
X22788Y445307D01*
X22705Y445228D01*
X22616Y445156D01*
X22590Y445119D01*
X22557Y445088D01*
X22497Y445005D01*
X22413Y444973D01*
X22274Y444922D01*
X22265Y444916D01*
X22254Y444912D01*
X22134Y444826D01*
X22011Y444742D01*
X22004Y444734D01*
X21995Y444727D01*
X21900Y444614D01*
X21802Y444502D01*
X21797Y444493D01*
X21790Y444484D01*
X21748Y444409D01*
X21723Y444402D01*
X21636Y444351D01*
X21604Y444338D01*
X21584Y444324D01*
X21522Y444293D01*
X21488Y444263D01*
X21449Y444240D01*
X21372Y444172D01*
X21283Y444159D01*
X21136Y444141D01*
X21126Y444137D01*
X21115Y444135D01*
X20978Y444078D01*
X20840Y444024D01*
X20831Y444018D01*
X20821Y444013D01*
X20703Y443924D01*
X20583Y443837D01*
X20576Y443829D01*
X20567Y443822D01*
X20509Y443758D01*
X20484Y443757D01*
X20374Y443722D01*
X20263Y443695D01*
X20224Y443674D01*
X20181Y443660D01*
X20040Y443584D01*
X19976Y443574D01*
X19894Y443571D01*
X19819Y443550D01*
X19743Y443538D01*
X19715Y443526D01*
X19427Y443526D01*
X19295Y443510D01*
X19163Y443498D01*
X19127Y443488D01*
X19112Y443486D01*
X19091Y443478D01*
X19008Y443455D01*
X18722Y443355D01*
X18705Y443364D01*
X18595Y443400D01*
X18488Y443445D01*
X18445Y443451D01*
X18403Y443465D01*
X18287Y443473D01*
X18173Y443489D01*
X18107Y443486D01*
X18086Y443487D01*
X18067Y443484D01*
X18012Y443481D01*
X17040Y443372D01*
X17001Y443374D01*
X16884Y443387D01*
X16843Y443381D01*
X16801Y443383D01*
X16685Y443359D01*
X16569Y443342D01*
X16510Y443322D01*
X16490Y443318D01*
X16472Y443309D01*
X16417Y443290D01*
X16347Y443261D01*
X13833Y443261D01*
X13829Y443263D01*
X13715Y443294D01*
X13602Y443333D01*
X13562Y443336D01*
X13522Y443347D01*
X13451Y443348D01*
X12268Y443481D01*
X12152Y443480D01*
X12036Y443486D01*
X11994Y443478D01*
X11950Y443477D01*
X11838Y443447D01*
X11724Y443424D01*
X11664Y443399D01*
X11643Y443394D01*
X11626Y443384D01*
X11575Y443364D01*
X11558Y443355D01*
X11272Y443455D01*
X11142Y443483D01*
X11014Y443516D01*
X10976Y443518D01*
X10961Y443522D01*
X10939Y443521D01*
X10853Y443526D01*
X10567Y443526D01*
X10544Y443536D01*
X10462Y443549D01*
X10383Y443572D01*
X10306Y443574D01*
X10237Y443585D01*
X10200Y443602D01*
X10163Y443628D01*
X10056Y443669D01*
X9953Y443717D01*
X9908Y443726D01*
X9866Y443742D01*
X9765Y443760D01*
X9699Y443821D01*
X9593Y443925D01*
X9584Y443930D01*
X9576Y443938D01*
X9446Y444009D01*
X9317Y444083D01*
X9307Y444086D01*
X9297Y444091D01*
X9155Y444128D01*
X9011Y444168D01*
X9000Y444168D01*
X8989Y444171D01*
X8903Y444176D01*
X8886Y444195D01*
X8838Y444227D01*
X8812Y444251D01*
X8771Y444274D01*
X8700Y444329D01*
X8659Y444347D01*
X8622Y444372D01*
X8527Y444412D01*
X8476Y444487D01*
X8396Y444611D01*
X8388Y444618D01*
X8382Y444627D01*
X8271Y444726D01*
X8162Y444827D01*
X8153Y444832D01*
X8145Y444839D01*
X8013Y444907D01*
X7882Y444977D01*
X7872Y444980D01*
X7862Y444985D01*
X7779Y445010D01*
X7767Y445032D01*
X7688Y445115D01*
X7616Y445204D01*
X7579Y445230D01*
X7548Y445263D01*
X7465Y445323D01*
X7433Y445406D01*
X7382Y445546D01*
X7376Y445555D01*
X7372Y445566D01*
X7286Y445686D01*
X7202Y445809D01*
X7194Y445816D01*
X7187Y445825D01*
X7074Y445921D01*
X6962Y446018D01*
X6953Y446023D01*
X6944Y446030D01*
X6869Y446072D01*
X6862Y446097D01*
X6804Y446195D01*
X6753Y446298D01*
X6723Y446332D01*
X6700Y446371D01*
X6632Y446448D01*
X6620Y446537D01*
X6601Y446684D01*
X6597Y446694D01*
X6595Y446705D01*
X6538Y446842D01*
X6484Y446980D01*
X6478Y446989D01*
X6473Y446999D01*
X6384Y447117D01*
X6297Y447237D01*
X6289Y447244D01*
X6282Y447253D01*
X6163Y447361D01*
X6125Y447391D01*
X6072Y447423D01*
X6052Y447440D01*
X6049Y447442D01*
X6015Y447470D01*
X5932Y447509D01*
X5854Y447556D01*
X5789Y447576D01*
X5727Y447605D01*
X5637Y447623D01*
X5550Y447649D01*
X5482Y447652D01*
X5414Y447665D01*
X5323Y447660D01*
X5232Y447664D01*
X5165Y447650D01*
X5097Y447646D01*
X5010Y447617D01*
X4921Y447599D01*
X4859Y447568D01*
X4795Y447547D01*
X4717Y447499D01*
X4635Y447458D01*
X4584Y447414D01*
X4526Y447377D01*
X4463Y447311D01*
X4394Y447251D01*
X4355Y447195D01*
X4308Y447146D01*
X4264Y447066D01*
X4211Y446991D01*
X4187Y446927D01*
X4154Y446867D01*
X4132Y446779D01*
X4099Y446693D01*
X4092Y446625D01*
X4075Y446559D01*
X4065Y446399D01*
X4065Y366401D01*
X4073Y366334D01*
X4072Y366265D01*
X4093Y366176D01*
X4105Y366086D01*
X4130Y366022D01*
X4145Y365956D01*
X4188Y365875D01*
X4222Y365790D01*
X4262Y365735D01*
X4294Y365674D01*
X4355Y365607D01*
X4408Y365533D01*
X4461Y365489D01*
X4507Y365439D01*
X4583Y365388D01*
X4653Y365330D01*
X4715Y365301D01*
X4772Y365263D01*
X4859Y365233D01*
X4941Y365195D01*
X5008Y365182D01*
X5073Y365159D01*
X5164Y365152D01*
X5253Y365135D01*
X5322Y365139D01*
X5390Y365133D01*
X5480Y365149D01*
X5571Y365154D01*
X5636Y365176D01*
X5703Y365187D01*
X5787Y365224D01*
X5873Y365253D01*
X5931Y365289D01*
X5993Y365317D01*
X6125Y365409D01*
X6163Y365439D01*
X6170Y365447D01*
X6180Y365453D01*
X6281Y365561D01*
X6385Y365667D01*
X6390Y365676D01*
X6398Y365684D01*
X6469Y365814D01*
X6543Y365943D01*
X6546Y365953D01*
X6551Y365963D01*
X6588Y366106D01*
X6628Y366249D01*
X6628Y366260D01*
X6631Y366271D01*
X6636Y366357D01*
X6655Y366374D01*
X6719Y366469D01*
X6789Y366560D01*
X6807Y366601D01*
X6832Y366638D01*
X6872Y366733D01*
X6946Y366783D01*
X7071Y366864D01*
X7078Y366872D01*
X7087Y366878D01*
X7186Y366988D01*
X7287Y367098D01*
X7292Y367107D01*
X7299Y367115D01*
X7367Y367247D01*
X7437Y367378D01*
X7440Y367388D01*
X7445Y367398D01*
X7470Y367481D01*
X7492Y367493D01*
X7575Y367572D01*
X7664Y367644D01*
X7690Y367681D01*
X7723Y367712D01*
X7783Y367795D01*
X7867Y367827D01*
X8006Y367878D01*
X8015Y367884D01*
X8026Y367888D01*
X8146Y367974D01*
X8269Y368058D01*
X8276Y368066D01*
X8285Y368073D01*
X8381Y368186D01*
X8478Y368298D01*
X8483Y368307D01*
X8490Y368316D01*
X8532Y368391D01*
X8557Y368398D01*
X8655Y368456D01*
X8758Y368507D01*
X8792Y368537D01*
X8831Y368560D01*
X8908Y368628D01*
X8997Y368641D01*
X9144Y368659D01*
X9154Y368663D01*
X9165Y368665D01*
X9302Y368722D01*
X9440Y368776D01*
X9449Y368782D01*
X9459Y368787D01*
X9576Y368875D01*
X9697Y368963D01*
X9704Y368971D01*
X9713Y368978D01*
X9771Y369042D01*
X9796Y369043D01*
X9906Y369078D01*
X10017Y369105D01*
X10056Y369126D01*
X10099Y369140D01*
X10240Y369216D01*
X10304Y369226D01*
X10386Y369229D01*
X10461Y369250D01*
X10537Y369262D01*
X10565Y369274D01*
X10853Y369274D01*
X10985Y369290D01*
X11117Y369302D01*
X11153Y369312D01*
X11168Y369314D01*
X11189Y369322D01*
X11272Y369345D01*
X11558Y369445D01*
X11575Y369436D01*
X11685Y369400D01*
X11792Y369355D01*
X11835Y369349D01*
X11877Y369335D01*
X11993Y369327D01*
X12107Y369311D01*
X12173Y369314D01*
X12194Y369313D01*
X12213Y369316D01*
X12268Y369319D01*
X13356Y369441D01*
X13362Y369441D01*
X13404Y369447D01*
X13445Y369445D01*
X13560Y369469D01*
X13677Y369485D01*
X13736Y369505D01*
X13757Y369510D01*
X13775Y369518D01*
X13829Y369537D01*
X13833Y369539D01*
X16347Y369539D01*
X16417Y369510D01*
X16530Y369479D01*
X16642Y369440D01*
X16683Y369437D01*
X16723Y369426D01*
X16841Y369424D01*
X16959Y369414D01*
X17000Y369422D01*
X17041Y369421D01*
X17062Y369426D01*
X18012Y369319D01*
X18128Y369320D01*
X18244Y369314D01*
X18286Y369322D01*
X18330Y369323D01*
X18442Y369353D01*
X18556Y369376D01*
X18616Y369401D01*
X18637Y369406D01*
X18654Y369416D01*
X18705Y369436D01*
X18722Y369445D01*
X19008Y369345D01*
X19138Y369317D01*
X19266Y369284D01*
X19304Y369282D01*
X19319Y369278D01*
X19341Y369279D01*
X19427Y369274D01*
X19713Y369274D01*
X19736Y369264D01*
X19818Y369251D01*
X19897Y369228D01*
X19974Y369226D01*
X20043Y369215D01*
X20080Y369198D01*
X20117Y369172D01*
X20224Y369131D01*
X20327Y369083D01*
X20372Y369074D01*
X20414Y369058D01*
X20515Y369040D01*
X20581Y368978D01*
X20687Y368875D01*
X20696Y368870D01*
X20704Y368862D01*
X20834Y368791D01*
X20963Y368717D01*
X20973Y368714D01*
X20983Y368709D01*
X21126Y368672D01*
X21269Y368632D01*
X21280Y368632D01*
X21291Y368629D01*
X21377Y368624D01*
X21394Y368605D01*
X21489Y368541D01*
X21580Y368471D01*
X21621Y368453D01*
X21658Y368428D01*
X21753Y368388D01*
X21804Y368313D01*
X21884Y368189D01*
X21892Y368182D01*
X21898Y368173D01*
X22009Y368074D01*
X22118Y367973D01*
X22127Y367968D01*
X22135Y367961D01*
X22267Y367893D01*
X22398Y367823D01*
X22408Y367820D01*
X22418Y367815D01*
X22501Y367790D01*
X22513Y367768D01*
X22592Y367685D01*
X22664Y367596D01*
X22701Y367570D01*
X22732Y367537D01*
X22815Y367477D01*
X22847Y367393D01*
X22898Y367254D01*
X22904Y367245D01*
X22908Y367234D01*
X22994Y367114D01*
X23078Y366991D01*
X23086Y366984D01*
X23093Y366975D01*
X23206Y366880D01*
X23318Y366782D01*
X23327Y366777D01*
X23336Y366770D01*
X23411Y366728D01*
X23418Y366703D01*
X23476Y366605D01*
X23527Y366502D01*
X23557Y366468D01*
X23580Y366429D01*
X23648Y366352D01*
X23661Y366262D01*
X23679Y366116D01*
X23683Y366106D01*
X23685Y366095D01*
X23742Y365958D01*
X23796Y365820D01*
X23802Y365811D01*
X23807Y365801D01*
X23896Y365683D01*
X23983Y365563D01*
X23991Y365556D01*
X23998Y365547D01*
X24062Y365489D01*
X24063Y365464D01*
X24098Y365354D01*
X24125Y365243D01*
X24146Y365204D01*
X24160Y365161D01*
X24209Y365070D01*
X24202Y364980D01*
X24187Y364833D01*
X24189Y364822D01*
X24188Y364811D01*
X24213Y364666D01*
X24235Y364519D01*
X24240Y364508D01*
X24241Y364498D01*
X24301Y364364D01*
X24360Y364226D01*
X24367Y364217D01*
X24371Y364208D01*
X24421Y364137D01*
X24417Y364111D01*
X24426Y363997D01*
X24428Y363883D01*
X24440Y363840D01*
X24443Y363795D01*
X24471Y363696D01*
X24465Y363677D01*
X24455Y363655D01*
X24450Y363628D01*
X24444Y363610D01*
X24397Y363469D01*
X24396Y363458D01*
X24393Y363448D01*
X24385Y363300D01*
X24374Y363152D01*
X24376Y363141D01*
X24375Y363130D01*
X24404Y362984D01*
X24431Y362839D01*
X24435Y362829D01*
X24437Y362818D01*
X24470Y362738D01*
X24460Y362715D01*
X24444Y362601D01*
X24420Y362489D01*
X24422Y362445D01*
X24416Y362400D01*
X24421Y362297D01*
X24375Y362219D01*
X24298Y362093D01*
X24295Y362082D01*
X24289Y362073D01*
X24248Y361931D01*
X24205Y361789D01*
X24205Y361778D01*
X24202Y361767D01*
X24197Y361620D01*
X24191Y361471D01*
X24193Y361460D01*
X24193Y361449D01*
X24207Y361364D01*
X24192Y361343D01*
X24151Y361236D01*
X24103Y361133D01*
X24094Y361088D01*
X24078Y361046D01*
X24060Y360945D01*
X23999Y360879D01*
X23895Y360773D01*
X23890Y360764D01*
X23882Y360756D01*
X23811Y360626D01*
X23737Y360497D01*
X23734Y360487D01*
X23729Y360477D01*
X23692Y360335D01*
X23652Y360191D01*
X23652Y360180D01*
X23649Y360169D01*
X23644Y360083D01*
X23625Y360066D01*
X23561Y359971D01*
X23491Y359880D01*
X23473Y359839D01*
X23448Y359802D01*
X23408Y359707D01*
X23333Y359656D01*
X23209Y359576D01*
X23202Y359568D01*
X23193Y359562D01*
X23094Y359451D01*
X22993Y359342D01*
X22988Y359333D01*
X22981Y359325D01*
X22913Y359193D01*
X22843Y359062D01*
X22840Y359052D01*
X22835Y359042D01*
X22810Y358959D01*
X22788Y358947D01*
X22705Y358868D01*
X22616Y358796D01*
X22590Y358759D01*
X22557Y358728D01*
X22497Y358645D01*
X22413Y358613D01*
X22274Y358562D01*
X22265Y358556D01*
X22254Y358552D01*
X22134Y358466D01*
X22011Y358382D01*
X22004Y358374D01*
X21995Y358367D01*
X21900Y358254D01*
X21802Y358142D01*
X21797Y358133D01*
X21790Y358124D01*
X21748Y358049D01*
X21723Y358042D01*
X21625Y357984D01*
X21522Y357933D01*
X21488Y357903D01*
X21449Y357880D01*
X21372Y357812D01*
X21283Y357799D01*
X21136Y357781D01*
X21126Y357777D01*
X21115Y357775D01*
X20978Y357718D01*
X20840Y357664D01*
X20831Y357658D01*
X20821Y357653D01*
X20703Y357564D01*
X20583Y357477D01*
X20576Y357469D01*
X20567Y357462D01*
X20509Y357398D01*
X20484Y357397D01*
X20374Y357362D01*
X20263Y357335D01*
X20224Y357314D01*
X20181Y357300D01*
X20040Y357224D01*
X19976Y357214D01*
X19894Y357211D01*
X19819Y357190D01*
X19743Y357178D01*
X19715Y357166D01*
X19427Y357166D01*
X19295Y357150D01*
X19163Y357138D01*
X19127Y357128D01*
X19112Y357126D01*
X19091Y357118D01*
X19008Y357095D01*
X18722Y356995D01*
X18705Y357004D01*
X18595Y357040D01*
X18488Y357085D01*
X18445Y357091D01*
X18403Y357105D01*
X18287Y357113D01*
X18173Y357129D01*
X18107Y357126D01*
X18086Y357127D01*
X18067Y357124D01*
X18012Y357121D01*
X17040Y357012D01*
X17001Y357014D01*
X16884Y357027D01*
X16843Y357021D01*
X16801Y357023D01*
X16685Y356999D01*
X16569Y356982D01*
X16510Y356962D01*
X16490Y356958D01*
X16472Y356949D01*
X16417Y356930D01*
X16347Y356901D01*
X13833Y356901D01*
X13829Y356903D01*
X13716Y356934D01*
X13605Y356972D01*
X13563Y356976D01*
X13523Y356987D01*
X13451Y356988D01*
X12268Y357121D01*
X12152Y357120D01*
X12036Y357126D01*
X11994Y357118D01*
X11950Y357117D01*
X11838Y357087D01*
X11724Y357064D01*
X11664Y357039D01*
X11643Y357034D01*
X11626Y357024D01*
X11575Y357004D01*
X11558Y356995D01*
X11272Y357095D01*
X11142Y357123D01*
X11014Y357156D01*
X10976Y357158D01*
X10961Y357162D01*
X10939Y357161D01*
X10853Y357166D01*
X10567Y357166D01*
X10544Y357176D01*
X10462Y357189D01*
X10383Y357212D01*
X10306Y357214D01*
X10237Y357225D01*
X10200Y357242D01*
X10163Y357268D01*
X10056Y357309D01*
X9953Y357357D01*
X9908Y357366D01*
X9866Y357382D01*
X9765Y357400D01*
X9699Y357461D01*
X9593Y357565D01*
X9584Y357570D01*
X9576Y357578D01*
X9446Y357649D01*
X9317Y357723D01*
X9307Y357726D01*
X9297Y357731D01*
X9155Y357768D01*
X9011Y357808D01*
X9000Y357808D01*
X8989Y357811D01*
X8903Y357816D01*
X8886Y357835D01*
X8791Y357899D01*
X8700Y357969D01*
X8659Y357987D01*
X8622Y358012D01*
X8527Y358052D01*
X8476Y358127D01*
X8396Y358251D01*
X8388Y358258D01*
X8382Y358267D01*
X8271Y358366D01*
X8162Y358467D01*
X8153Y358472D01*
X8145Y358479D01*
X8013Y358547D01*
X7882Y358617D01*
X7872Y358620D01*
X7862Y358625D01*
X7779Y358650D01*
X7767Y358672D01*
X7688Y358755D01*
X7616Y358844D01*
X7579Y358870D01*
X7548Y358903D01*
X7465Y358963D01*
X7433Y359046D01*
X7382Y359186D01*
X7376Y359195D01*
X7372Y359206D01*
X7286Y359326D01*
X7202Y359449D01*
X7194Y359456D01*
X7187Y359465D01*
X7074Y359561D01*
X6962Y359658D01*
X6953Y359663D01*
X6944Y359670D01*
X6869Y359712D01*
X6862Y359737D01*
X6804Y359835D01*
X6753Y359938D01*
X6723Y359972D01*
X6700Y360011D01*
X6632Y360088D01*
X6620Y360177D01*
X6601Y360324D01*
X6597Y360334D01*
X6595Y360345D01*
X6538Y360482D01*
X6484Y360620D01*
X6478Y360629D01*
X6473Y360639D01*
X6384Y360757D01*
X6297Y360877D01*
X6289Y360884D01*
X6282Y360893D01*
X6163Y361001D01*
X6125Y361031D01*
X6072Y361063D01*
X6052Y361080D01*
X6049Y361082D01*
X6015Y361110D01*
X5932Y361149D01*
X5854Y361196D01*
X5789Y361216D01*
X5727Y361245D01*
X5637Y361263D01*
X5550Y361289D01*
X5482Y361292D01*
X5414Y361305D01*
X5323Y361300D01*
X5232Y361304D01*
X5165Y361290D01*
X5097Y361286D01*
X5010Y361257D01*
X4921Y361239D01*
X4859Y361208D01*
X4795Y361187D01*
X4717Y361139D01*
X4635Y361098D01*
X4584Y361054D01*
X4526Y361017D01*
X4463Y360951D01*
X4394Y360891D01*
X4355Y360835D01*
X4308Y360786D01*
X4264Y360706D01*
X4211Y360631D01*
X4187Y360567D01*
X4154Y360507D01*
X4132Y360419D01*
X4099Y360333D01*
X4092Y360265D01*
X4075Y360199D01*
X4065Y360039D01*
X4065Y317500D01*
X4080Y317382D01*
X4087Y317263D01*
X4100Y317225D01*
X4105Y317184D01*
X4148Y317074D01*
X4185Y316961D01*
X4207Y316926D01*
X4222Y316889D01*
X4291Y316793D01*
X4355Y316692D01*
X4385Y316664D01*
X4408Y316631D01*
X4500Y316556D01*
X4587Y316474D01*
X4622Y316454D01*
X4653Y316429D01*
X4761Y316378D01*
X4865Y316320D01*
X4905Y316310D01*
X4941Y316293D01*
X5058Y316271D01*
X5173Y316241D01*
X5233Y316237D01*
X5253Y316233D01*
X5274Y316235D01*
X5334Y316231D01*
X59691Y316231D01*
X59691Y90169D01*
X5334Y90169D01*
X5216Y90154D01*
X5097Y90147D01*
X5059Y90134D01*
X5018Y90129D01*
X4908Y90086D01*
X4795Y90049D01*
X4760Y90027D01*
X4723Y90012D01*
X4627Y89943D01*
X4526Y89879D01*
X4498Y89849D01*
X4465Y89826D01*
X4389Y89734D01*
X4308Y89647D01*
X4288Y89612D01*
X4263Y89581D01*
X4212Y89473D01*
X4154Y89369D01*
X4144Y89329D01*
X4127Y89293D01*
X4105Y89176D01*
X4075Y89061D01*
X4071Y89001D01*
X4067Y88981D01*
X4069Y88960D01*
X4065Y88900D01*
X4065Y31382D01*
X4073Y31313D01*
X4072Y31243D01*
X4093Y31156D01*
X4105Y31067D01*
X4130Y31002D01*
X4147Y30934D01*
X4189Y30855D01*
X4222Y30771D01*
X4263Y30715D01*
X4295Y30653D01*
X4356Y30587D01*
X4408Y30514D01*
X4462Y30469D01*
X4509Y30418D01*
X4584Y30368D01*
X4653Y30311D01*
X4717Y30281D01*
X4775Y30243D01*
X4860Y30214D01*
X4941Y30176D01*
X5010Y30162D01*
X5076Y30140D01*
X5165Y30133D01*
X5253Y30116D01*
X5323Y30120D01*
X5393Y30115D01*
X5481Y30130D01*
X5571Y30136D01*
X5637Y30157D01*
X5706Y30169D01*
X5788Y30206D01*
X5873Y30234D01*
X5932Y30271D01*
X5996Y30300D01*
X6066Y30356D01*
X6142Y30404D01*
X6190Y30455D01*
X6244Y30498D01*
X6299Y30570D01*
X6360Y30635D01*
X6394Y30696D01*
X6436Y30752D01*
X6507Y30897D01*
X8819Y36479D01*
X14321Y41981D01*
X21509Y44959D01*
X29291Y44959D01*
X36479Y41981D01*
X41981Y36479D01*
X44959Y29291D01*
X44959Y21509D01*
X41981Y14321D01*
X36479Y8819D01*
X30897Y6507D01*
X30836Y6472D01*
X30771Y6446D01*
X30699Y6394D01*
X30620Y6349D01*
X30570Y6300D01*
X30514Y6260D01*
X30457Y6190D01*
X30392Y6128D01*
X30356Y6068D01*
X30311Y6015D01*
X30273Y5933D01*
X30226Y5857D01*
X30205Y5790D01*
X30176Y5727D01*
X30159Y5639D01*
X30132Y5553D01*
X30129Y5483D01*
X30116Y5414D01*
X30121Y5325D01*
X30117Y5235D01*
X30131Y5167D01*
X30136Y5097D01*
X30163Y5012D01*
X30181Y4924D01*
X30212Y4861D01*
X30234Y4795D01*
X30282Y4719D01*
X30321Y4638D01*
X30366Y4585D01*
X30404Y4526D01*
X30469Y4464D01*
X30527Y4396D01*
X30585Y4356D01*
X30635Y4308D01*
X30714Y4265D01*
X30787Y4213D01*
X30853Y4188D01*
X30914Y4154D01*
X31001Y4132D01*
X31085Y4100D01*
X31154Y4092D01*
X31222Y4075D01*
X31382Y4065D01*
X387475Y4065D01*
X387524Y4071D01*
G37*
%LPC*%
G36*
X505742Y350861D02*
X505742Y350861D01*
X501741Y352955D01*
X499167Y356665D01*
X499114Y357090D01*
X499109Y357109D01*
X499108Y357130D01*
X499104Y357145D01*
X499103Y357153D01*
X499085Y357208D01*
X499069Y357263D01*
X499035Y357398D01*
X499025Y357416D01*
X499020Y357435D01*
X498949Y357555D01*
X498882Y357677D01*
X498868Y357692D01*
X498858Y357709D01*
X498855Y357712D01*
X498855Y359078D01*
X498855Y359081D01*
X498845Y359235D01*
X498674Y360606D01*
X498679Y360614D01*
X498750Y360734D01*
X498756Y360754D01*
X498766Y360772D01*
X498800Y360906D01*
X498839Y361040D01*
X498840Y361060D01*
X498845Y361079D01*
X498855Y361240D01*
X498855Y581570D01*
X501306Y585814D01*
X505550Y588265D01*
X510450Y588265D01*
X514694Y585814D01*
X517145Y581570D01*
X517145Y522027D01*
X517153Y521958D01*
X517152Y521888D01*
X517173Y521801D01*
X517185Y521712D01*
X517210Y521647D01*
X517227Y521579D01*
X517269Y521500D01*
X517302Y521416D01*
X517343Y521360D01*
X517375Y521298D01*
X517436Y521232D01*
X517488Y521159D01*
X517542Y521114D01*
X517589Y521063D01*
X517664Y521013D01*
X517733Y520956D01*
X517797Y520926D01*
X517855Y520888D01*
X517940Y520859D01*
X518021Y520821D01*
X518090Y520807D01*
X518156Y520785D01*
X518245Y520778D01*
X518333Y520761D01*
X518403Y520765D01*
X518473Y520760D01*
X518561Y520775D01*
X518651Y520780D01*
X518717Y520802D01*
X518786Y520814D01*
X518868Y520851D01*
X518953Y520879D01*
X519012Y520916D01*
X519076Y520945D01*
X519146Y521001D01*
X519222Y521049D01*
X519270Y521100D01*
X519325Y521143D01*
X519379Y521215D01*
X519440Y521280D01*
X519474Y521342D01*
X519516Y521397D01*
X519546Y521459D01*
X521200Y523113D01*
X523348Y524003D01*
X525672Y524003D01*
X527820Y523113D01*
X529463Y521470D01*
X530353Y519322D01*
X530353Y516998D01*
X529463Y514850D01*
X527820Y513207D01*
X525672Y512317D01*
X523348Y512317D01*
X521200Y513207D01*
X519541Y514866D01*
X519526Y514904D01*
X519474Y514976D01*
X519429Y515054D01*
X519381Y515105D01*
X519340Y515161D01*
X519270Y515219D01*
X519208Y515283D01*
X519148Y515319D01*
X519095Y515364D01*
X519013Y515402D01*
X518937Y515449D01*
X518870Y515470D01*
X518807Y515499D01*
X518719Y515516D01*
X518633Y515543D01*
X518563Y515546D01*
X518494Y515559D01*
X518405Y515554D01*
X518315Y515558D01*
X518247Y515544D01*
X518177Y515540D01*
X518092Y515512D01*
X518004Y515494D01*
X517941Y515463D01*
X517875Y515441D01*
X517799Y515394D01*
X517718Y515354D01*
X517665Y515309D01*
X517606Y515271D01*
X517544Y515206D01*
X517476Y515148D01*
X517436Y515091D01*
X517388Y515040D01*
X517345Y514961D01*
X517293Y514888D01*
X517268Y514822D01*
X517234Y514761D01*
X517212Y514674D01*
X517180Y514590D01*
X517172Y514521D01*
X517155Y514453D01*
X517145Y514293D01*
X517145Y361240D01*
X517147Y361220D01*
X517145Y361200D01*
X517167Y361062D01*
X517185Y360925D01*
X517192Y360906D01*
X517195Y360886D01*
X517250Y360758D01*
X517302Y360629D01*
X517313Y360613D01*
X517322Y360594D01*
X517324Y360590D01*
X517155Y359235D01*
X517155Y359232D01*
X517145Y359078D01*
X517145Y357697D01*
X517139Y357689D01*
X517053Y357579D01*
X517045Y357560D01*
X517033Y357544D01*
X516982Y357414D01*
X516927Y357287D01*
X516924Y357267D01*
X516916Y357248D01*
X516886Y357090D01*
X516833Y356665D01*
X514259Y352955D01*
X510258Y350861D01*
X505742Y350861D01*
G37*
%LPD*%
%LPC*%
G36*
X494138Y105917D02*
X494138Y105917D01*
X491990Y106807D01*
X490347Y108450D01*
X489457Y110598D01*
X489457Y110998D01*
X489442Y111116D01*
X489435Y111235D01*
X489422Y111273D01*
X489417Y111314D01*
X489374Y111424D01*
X489337Y111537D01*
X489315Y111572D01*
X489300Y111609D01*
X489231Y111705D01*
X489167Y111806D01*
X489137Y111834D01*
X489114Y111867D01*
X489022Y111943D01*
X488935Y112024D01*
X488900Y112044D01*
X488869Y112069D01*
X488761Y112120D01*
X488657Y112178D01*
X488617Y112188D01*
X488581Y112205D01*
X488464Y112227D01*
X488349Y112257D01*
X488289Y112261D01*
X488269Y112265D01*
X488248Y112263D01*
X488188Y112267D01*
X486518Y112267D01*
X484370Y113157D01*
X482727Y114800D01*
X481837Y116948D01*
X481837Y119272D01*
X482727Y121420D01*
X484370Y123063D01*
X486518Y123953D01*
X488842Y123953D01*
X490990Y123063D01*
X492633Y121420D01*
X493523Y119272D01*
X493523Y118872D01*
X493538Y118754D01*
X493545Y118635D01*
X493558Y118597D01*
X493563Y118556D01*
X493606Y118446D01*
X493643Y118333D01*
X493665Y118298D01*
X493680Y118261D01*
X493749Y118165D01*
X493813Y118064D01*
X493843Y118036D01*
X493866Y118003D01*
X493958Y117927D01*
X494045Y117846D01*
X494080Y117826D01*
X494111Y117801D01*
X494219Y117750D01*
X494323Y117692D01*
X494363Y117682D01*
X494399Y117665D01*
X494516Y117643D01*
X494631Y117613D01*
X494691Y117609D01*
X494711Y117605D01*
X494732Y117607D01*
X494792Y117603D01*
X496462Y117603D01*
X497004Y117378D01*
X497127Y117345D01*
X497249Y117305D01*
X497280Y117303D01*
X497310Y117295D01*
X497438Y117292D01*
X497567Y117284D01*
X497597Y117290D01*
X497628Y117289D01*
X497753Y117319D01*
X497879Y117343D01*
X497907Y117356D01*
X497938Y117364D01*
X498051Y117424D01*
X498167Y117478D01*
X498191Y117498D01*
X498219Y117512D01*
X498314Y117599D01*
X498413Y117680D01*
X498431Y117705D01*
X498454Y117726D01*
X498525Y117833D01*
X498600Y117937D01*
X498612Y117966D01*
X498629Y117992D01*
X498670Y118113D01*
X498718Y118232D01*
X498722Y118263D01*
X498732Y118293D01*
X498742Y118421D01*
X498759Y118548D01*
X498756Y118592D01*
X498757Y118610D01*
X498754Y118631D01*
X498749Y118709D01*
X498674Y119306D01*
X498679Y119314D01*
X498750Y119434D01*
X498756Y119454D01*
X498766Y119472D01*
X498800Y119606D01*
X498839Y119740D01*
X498840Y119760D01*
X498845Y119779D01*
X498855Y119940D01*
X498855Y273760D01*
X498853Y273780D01*
X498855Y273800D01*
X498833Y273938D01*
X498815Y274075D01*
X498808Y274094D01*
X498805Y274114D01*
X498750Y274242D01*
X498698Y274371D01*
X498687Y274387D01*
X498678Y274406D01*
X498676Y274410D01*
X498845Y275765D01*
X498845Y275768D01*
X498855Y275922D01*
X498855Y277303D01*
X498861Y277311D01*
X498947Y277421D01*
X498955Y277440D01*
X498967Y277456D01*
X499018Y277585D01*
X499073Y277713D01*
X499076Y277733D01*
X499084Y277752D01*
X499114Y277910D01*
X499167Y278335D01*
X501741Y282045D01*
X505742Y284139D01*
X510258Y284139D01*
X514259Y282045D01*
X516833Y278335D01*
X516886Y277910D01*
X516891Y277891D01*
X516892Y277870D01*
X516931Y277737D01*
X516965Y277602D01*
X516975Y277584D01*
X516980Y277565D01*
X517051Y277445D01*
X517118Y277323D01*
X517132Y277308D01*
X517142Y277291D01*
X517145Y277288D01*
X517145Y275922D01*
X517145Y275919D01*
X517155Y275765D01*
X517326Y274394D01*
X517321Y274385D01*
X517250Y274266D01*
X517244Y274246D01*
X517234Y274229D01*
X517200Y274094D01*
X517161Y273960D01*
X517160Y273940D01*
X517155Y273921D01*
X517145Y273760D01*
X517145Y119940D01*
X517147Y119920D01*
X517145Y119900D01*
X517167Y119762D01*
X517185Y119625D01*
X517192Y119606D01*
X517195Y119586D01*
X517250Y119458D01*
X517302Y119329D01*
X517313Y119313D01*
X517322Y119294D01*
X517324Y119290D01*
X517155Y117935D01*
X517155Y117932D01*
X517145Y117778D01*
X517145Y116397D01*
X517139Y116388D01*
X517053Y116279D01*
X517045Y116260D01*
X517033Y116244D01*
X516982Y116114D01*
X516927Y115987D01*
X516924Y115967D01*
X516916Y115948D01*
X516886Y115790D01*
X516833Y115365D01*
X514259Y111655D01*
X510258Y109561D01*
X505742Y109561D01*
X502839Y111080D01*
X502823Y111086D01*
X502810Y111095D01*
X502675Y111141D01*
X502541Y111191D01*
X502524Y111193D01*
X502509Y111198D01*
X502367Y111209D01*
X502225Y111224D01*
X502208Y111222D01*
X502192Y111223D01*
X502051Y111199D01*
X501910Y111178D01*
X501895Y111172D01*
X501878Y111169D01*
X501748Y111110D01*
X501617Y111055D01*
X501604Y111045D01*
X501588Y111038D01*
X501477Y110949D01*
X501363Y110863D01*
X501353Y110850D01*
X501340Y110840D01*
X501254Y110726D01*
X501166Y110614D01*
X501159Y110599D01*
X501149Y110586D01*
X501078Y110441D01*
X500253Y108450D01*
X498610Y106807D01*
X496462Y105917D01*
X494138Y105917D01*
G37*
%LPD*%
%LPC*%
G36*
X505742Y7961D02*
X505742Y7961D01*
X501741Y10055D01*
X499167Y13765D01*
X499114Y14190D01*
X499109Y14209D01*
X499108Y14230D01*
X499069Y14363D01*
X499035Y14498D01*
X499025Y14516D01*
X499020Y14535D01*
X498949Y14655D01*
X498882Y14777D01*
X498868Y14792D01*
X498858Y14809D01*
X498855Y14812D01*
X498855Y16178D01*
X498855Y16181D01*
X498845Y16335D01*
X498674Y17706D01*
X498679Y17715D01*
X498750Y17834D01*
X498756Y17854D01*
X498766Y17871D01*
X498800Y18006D01*
X498839Y18140D01*
X498840Y18160D01*
X498845Y18179D01*
X498855Y18340D01*
X498855Y83260D01*
X498853Y83280D01*
X498855Y83300D01*
X498833Y83438D01*
X498815Y83575D01*
X498808Y83594D01*
X498805Y83614D01*
X498750Y83742D01*
X498698Y83871D01*
X498687Y83887D01*
X498678Y83906D01*
X498676Y83910D01*
X498845Y85265D01*
X498845Y85268D01*
X498855Y85422D01*
X498855Y86803D01*
X498861Y86811D01*
X498947Y86921D01*
X498955Y86940D01*
X498967Y86956D01*
X499018Y87085D01*
X499073Y87213D01*
X499076Y87233D01*
X499084Y87252D01*
X499114Y87410D01*
X499167Y87835D01*
X501741Y91545D01*
X505742Y93639D01*
X510258Y93639D01*
X514259Y91545D01*
X516833Y87835D01*
X516886Y87410D01*
X516891Y87391D01*
X516892Y87370D01*
X516931Y87237D01*
X516965Y87102D01*
X516975Y87084D01*
X516980Y87065D01*
X517051Y86945D01*
X517118Y86823D01*
X517132Y86808D01*
X517142Y86791D01*
X517145Y86788D01*
X517145Y85422D01*
X517145Y85419D01*
X517155Y85265D01*
X517326Y83894D01*
X517321Y83885D01*
X517250Y83766D01*
X517244Y83746D01*
X517234Y83729D01*
X517200Y83594D01*
X517161Y83460D01*
X517160Y83440D01*
X517155Y83421D01*
X517145Y83260D01*
X517145Y18340D01*
X517147Y18320D01*
X517145Y18300D01*
X517167Y18162D01*
X517185Y18025D01*
X517192Y18006D01*
X517195Y17986D01*
X517250Y17858D01*
X517302Y17729D01*
X517313Y17713D01*
X517322Y17694D01*
X517324Y17690D01*
X517155Y16335D01*
X517155Y16332D01*
X517145Y16178D01*
X517145Y14797D01*
X517139Y14789D01*
X517053Y14679D01*
X517045Y14660D01*
X517033Y14644D01*
X516982Y14515D01*
X516927Y14387D01*
X516924Y14367D01*
X516916Y14348D01*
X516886Y14190D01*
X516833Y13765D01*
X514259Y10055D01*
X510258Y7961D01*
X505742Y7961D01*
G37*
%LPD*%
%LPC*%
G36*
X55633Y356901D02*
X55633Y356901D01*
X55227Y357070D01*
X55218Y357072D01*
X55210Y357077D01*
X55064Y357114D01*
X54920Y357154D01*
X54911Y357154D01*
X54902Y357156D01*
X54741Y357166D01*
X52903Y357166D01*
X52875Y357163D01*
X52847Y357165D01*
X52717Y357143D01*
X52587Y357126D01*
X52561Y357116D01*
X52534Y357111D01*
X52413Y357058D01*
X52362Y357037D01*
X51618Y357121D01*
X51502Y357120D01*
X51386Y357126D01*
X51344Y357118D01*
X51300Y357117D01*
X51188Y357087D01*
X51074Y357064D01*
X51014Y357039D01*
X50993Y357034D01*
X50976Y357024D01*
X50925Y357004D01*
X50908Y356995D01*
X50622Y357095D01*
X50492Y357123D01*
X50364Y357156D01*
X50326Y357158D01*
X50311Y357162D01*
X50289Y357161D01*
X50203Y357166D01*
X49917Y357166D01*
X49894Y357176D01*
X49812Y357189D01*
X49733Y357212D01*
X49656Y357214D01*
X49587Y357225D01*
X49550Y357242D01*
X49513Y357268D01*
X49406Y357309D01*
X49303Y357357D01*
X49258Y357366D01*
X49216Y357382D01*
X49115Y357400D01*
X49049Y357461D01*
X48943Y357565D01*
X48934Y357570D01*
X48926Y357578D01*
X48796Y357649D01*
X48667Y357723D01*
X48657Y357726D01*
X48647Y357731D01*
X48505Y357768D01*
X48361Y357808D01*
X48350Y357808D01*
X48339Y357811D01*
X48253Y357816D01*
X48236Y357835D01*
X48141Y357899D01*
X48050Y357969D01*
X48009Y357987D01*
X47972Y358012D01*
X47877Y358052D01*
X47827Y358126D01*
X47746Y358251D01*
X47738Y358258D01*
X47732Y358267D01*
X47622Y358366D01*
X47512Y358467D01*
X47503Y358472D01*
X47495Y358479D01*
X47363Y358547D01*
X47232Y358617D01*
X47222Y358620D01*
X47212Y358625D01*
X47129Y358650D01*
X47117Y358672D01*
X47038Y358755D01*
X46966Y358844D01*
X46929Y358870D01*
X46898Y358903D01*
X46815Y358963D01*
X46783Y359046D01*
X46732Y359186D01*
X46726Y359195D01*
X46722Y359206D01*
X46636Y359326D01*
X46552Y359449D01*
X46544Y359456D01*
X46537Y359465D01*
X46424Y359561D01*
X46312Y359658D01*
X46303Y359663D01*
X46294Y359670D01*
X46219Y359712D01*
X46212Y359737D01*
X46154Y359835D01*
X46103Y359938D01*
X46073Y359972D01*
X46050Y360011D01*
X45982Y360088D01*
X45969Y360177D01*
X45951Y360324D01*
X45947Y360334D01*
X45945Y360345D01*
X45888Y360482D01*
X45834Y360620D01*
X45828Y360629D01*
X45823Y360639D01*
X45734Y360757D01*
X45647Y360877D01*
X45639Y360884D01*
X45632Y360893D01*
X45568Y360951D01*
X45568Y360961D01*
X45567Y360962D01*
X45567Y360976D01*
X45532Y361085D01*
X45505Y361197D01*
X45484Y361236D01*
X45470Y361279D01*
X45421Y361370D01*
X45428Y361460D01*
X45443Y361607D01*
X45441Y361618D01*
X45442Y361629D01*
X45417Y361774D01*
X45395Y361921D01*
X45390Y361932D01*
X45389Y361942D01*
X45329Y362076D01*
X45270Y362214D01*
X45263Y362223D01*
X45259Y362232D01*
X45209Y362303D01*
X45213Y362328D01*
X45204Y362443D01*
X45202Y362557D01*
X45190Y362600D01*
X45187Y362645D01*
X45159Y362744D01*
X45186Y362830D01*
X45233Y362971D01*
X45234Y362982D01*
X45237Y362992D01*
X45245Y363140D01*
X45256Y363288D01*
X45254Y363299D01*
X45255Y363310D01*
X45226Y363455D01*
X45199Y363601D01*
X45195Y363611D01*
X45193Y363621D01*
X45160Y363702D01*
X45170Y363725D01*
X45186Y363839D01*
X45210Y363951D01*
X45208Y363995D01*
X45214Y364040D01*
X45209Y364143D01*
X45255Y364221D01*
X45332Y364347D01*
X45335Y364358D01*
X45341Y364367D01*
X45382Y364509D01*
X45425Y364651D01*
X45425Y364662D01*
X45428Y364673D01*
X45433Y364820D01*
X45439Y364969D01*
X45437Y364980D01*
X45437Y364991D01*
X45423Y365076D01*
X45438Y365097D01*
X45479Y365204D01*
X45527Y365307D01*
X45536Y365352D01*
X45552Y365394D01*
X45570Y365495D01*
X45631Y365561D01*
X45735Y365667D01*
X45740Y365676D01*
X45748Y365684D01*
X45819Y365814D01*
X45893Y365943D01*
X45896Y365953D01*
X45901Y365963D01*
X45938Y366105D01*
X45978Y366249D01*
X45978Y366260D01*
X45981Y366271D01*
X45986Y366357D01*
X46005Y366374D01*
X46069Y366469D01*
X46139Y366560D01*
X46157Y366601D01*
X46182Y366638D01*
X46222Y366733D01*
X46296Y366783D01*
X46421Y366864D01*
X46428Y366872D01*
X46437Y366878D01*
X46536Y366988D01*
X46637Y367098D01*
X46642Y367107D01*
X46649Y367115D01*
X46717Y367247D01*
X46787Y367378D01*
X46790Y367388D01*
X46795Y367398D01*
X46820Y367481D01*
X46842Y367493D01*
X46925Y367572D01*
X47014Y367644D01*
X47040Y367681D01*
X47073Y367712D01*
X47133Y367795D01*
X47217Y367827D01*
X47356Y367878D01*
X47365Y367884D01*
X47376Y367888D01*
X47496Y367974D01*
X47619Y368058D01*
X47626Y368066D01*
X47635Y368073D01*
X47730Y368185D01*
X47828Y368298D01*
X47833Y368307D01*
X47840Y368316D01*
X47882Y368391D01*
X47907Y368398D01*
X48005Y368456D01*
X48108Y368507D01*
X48142Y368537D01*
X48181Y368560D01*
X48258Y368628D01*
X48347Y368641D01*
X48494Y368659D01*
X48504Y368663D01*
X48515Y368665D01*
X48652Y368722D01*
X48790Y368776D01*
X48799Y368782D01*
X48809Y368787D01*
X48926Y368875D01*
X49047Y368963D01*
X49054Y368971D01*
X49063Y368978D01*
X49121Y369042D01*
X49146Y369043D01*
X49255Y369078D01*
X49367Y369105D01*
X49406Y369126D01*
X49449Y369140D01*
X49591Y369217D01*
X49710Y369292D01*
X49736Y369313D01*
X49765Y369328D01*
X49858Y369413D01*
X49956Y369494D01*
X49976Y369520D01*
X50000Y369542D01*
X50070Y369648D01*
X50145Y369750D01*
X50157Y369780D01*
X50175Y369808D01*
X50216Y369927D01*
X50263Y370045D01*
X50267Y370077D01*
X50278Y370108D01*
X50288Y370235D01*
X50304Y370360D01*
X50301Y370393D01*
X50303Y370425D01*
X50281Y370551D01*
X50266Y370676D01*
X50254Y370706D01*
X50249Y370739D01*
X50197Y370854D01*
X50151Y370972D01*
X50132Y370999D01*
X50118Y371029D01*
X50039Y371128D01*
X49965Y371231D01*
X49940Y371252D01*
X49920Y371277D01*
X49818Y371354D01*
X49721Y371435D01*
X49692Y371449D01*
X49665Y371468D01*
X49521Y371539D01*
X48022Y372160D01*
X46250Y373932D01*
X45291Y376247D01*
X45291Y378753D01*
X46250Y381068D01*
X48022Y382840D01*
X50337Y383799D01*
X52843Y383799D01*
X55158Y382840D01*
X56930Y381068D01*
X57889Y378753D01*
X57889Y376247D01*
X56930Y373932D01*
X55158Y372160D01*
X54085Y371716D01*
X54024Y371681D01*
X53959Y371655D01*
X53887Y371603D01*
X53808Y371558D01*
X53758Y371510D01*
X53702Y371469D01*
X53644Y371399D01*
X53580Y371337D01*
X53544Y371277D01*
X53499Y371224D01*
X53461Y371142D01*
X53414Y371066D01*
X53393Y370999D01*
X53363Y370936D01*
X53347Y370848D01*
X53320Y370762D01*
X53317Y370692D01*
X53304Y370623D01*
X53309Y370534D01*
X53305Y370444D01*
X53319Y370376D01*
X53323Y370306D01*
X53351Y370221D01*
X53369Y370133D01*
X53400Y370070D01*
X53421Y370004D01*
X53469Y369928D01*
X53509Y369847D01*
X53554Y369794D01*
X53592Y369735D01*
X53657Y369673D01*
X53715Y369605D01*
X53772Y369565D01*
X53823Y369517D01*
X53902Y369474D01*
X53975Y369422D01*
X54041Y369397D01*
X54102Y369363D01*
X54189Y369341D01*
X54273Y369309D01*
X54342Y369301D01*
X54410Y369284D01*
X54570Y369274D01*
X54741Y369274D01*
X54750Y369275D01*
X54759Y369274D01*
X54908Y369295D01*
X55056Y369314D01*
X55065Y369317D01*
X55074Y369318D01*
X55227Y369370D01*
X55633Y369539D01*
X58147Y369539D01*
X58553Y369370D01*
X58562Y369368D01*
X58571Y369363D01*
X58716Y369326D01*
X58860Y369286D01*
X58869Y369286D01*
X58878Y369284D01*
X59039Y369274D01*
X60877Y369274D01*
X60905Y369277D01*
X60933Y369275D01*
X61063Y369297D01*
X61193Y369314D01*
X61219Y369324D01*
X61246Y369329D01*
X61367Y369382D01*
X61418Y369403D01*
X62162Y369319D01*
X62278Y369320D01*
X62394Y369314D01*
X62436Y369322D01*
X62480Y369323D01*
X62592Y369353D01*
X62706Y369376D01*
X62766Y369401D01*
X62787Y369406D01*
X62804Y369416D01*
X62855Y369436D01*
X62872Y369445D01*
X63158Y369345D01*
X63288Y369317D01*
X63416Y369284D01*
X63454Y369282D01*
X63469Y369278D01*
X63491Y369279D01*
X63577Y369274D01*
X63863Y369274D01*
X63886Y369264D01*
X63968Y369251D01*
X64047Y369228D01*
X64124Y369226D01*
X64193Y369215D01*
X64230Y369198D01*
X64267Y369172D01*
X64374Y369131D01*
X64477Y369083D01*
X64522Y369074D01*
X64564Y369058D01*
X64665Y369040D01*
X64731Y368978D01*
X64837Y368875D01*
X64846Y368870D01*
X64854Y368862D01*
X64984Y368791D01*
X65113Y368717D01*
X65123Y368714D01*
X65133Y368709D01*
X65276Y368672D01*
X65419Y368632D01*
X65430Y368632D01*
X65441Y368629D01*
X65527Y368624D01*
X65544Y368605D01*
X65639Y368541D01*
X65730Y368471D01*
X65771Y368453D01*
X65808Y368428D01*
X65903Y368388D01*
X65953Y368314D01*
X66034Y368189D01*
X66042Y368182D01*
X66048Y368173D01*
X66159Y368074D01*
X66268Y367973D01*
X66277Y367968D01*
X66285Y367961D01*
X66417Y367893D01*
X66548Y367823D01*
X66558Y367820D01*
X66568Y367815D01*
X66722Y367769D01*
X66998Y367706D01*
X67011Y367705D01*
X67022Y367701D01*
X67169Y367689D01*
X67315Y367675D01*
X67327Y367677D01*
X67340Y367676D01*
X67484Y367701D01*
X67629Y367723D01*
X67641Y367728D01*
X67653Y367730D01*
X67787Y367791D01*
X67922Y367848D01*
X67931Y367856D01*
X67943Y367861D01*
X68058Y367953D01*
X68174Y368042D01*
X68181Y368052D01*
X68191Y368059D01*
X68280Y368177D01*
X68370Y368292D01*
X68375Y368303D01*
X68382Y368313D01*
X68453Y368458D01*
X68707Y369070D01*
X70350Y370713D01*
X72498Y371603D01*
X74822Y371603D01*
X76970Y370713D01*
X78613Y369070D01*
X79503Y366922D01*
X79503Y364598D01*
X78613Y362450D01*
X76970Y360807D01*
X74822Y359917D01*
X72498Y359917D01*
X70350Y360807D01*
X70120Y361037D01*
X70082Y361067D01*
X70050Y361102D01*
X69957Y361164D01*
X69869Y361232D01*
X69825Y361251D01*
X69784Y361278D01*
X69679Y361314D01*
X69577Y361358D01*
X69529Y361366D01*
X69484Y361382D01*
X69373Y361391D01*
X69263Y361408D01*
X69215Y361404D01*
X69167Y361408D01*
X69057Y361389D01*
X68946Y361378D01*
X68901Y361362D01*
X68853Y361354D01*
X68752Y361309D01*
X68647Y361271D01*
X68607Y361244D01*
X68563Y361224D01*
X68431Y361132D01*
X68267Y361001D01*
X68260Y360993D01*
X68250Y360987D01*
X68149Y360879D01*
X68045Y360773D01*
X68040Y360764D01*
X68032Y360756D01*
X67961Y360626D01*
X67887Y360497D01*
X67884Y360487D01*
X67879Y360477D01*
X67842Y360333D01*
X67802Y360191D01*
X67802Y360180D01*
X67799Y360169D01*
X67794Y360083D01*
X67775Y360066D01*
X67711Y359971D01*
X67641Y359880D01*
X67623Y359839D01*
X67598Y359802D01*
X67558Y359707D01*
X67483Y359656D01*
X67359Y359576D01*
X67352Y359568D01*
X67343Y359562D01*
X67244Y359451D01*
X67143Y359342D01*
X67138Y359333D01*
X67131Y359325D01*
X67063Y359193D01*
X66993Y359062D01*
X66990Y359052D01*
X66985Y359042D01*
X66960Y358959D01*
X66938Y358947D01*
X66855Y358868D01*
X66766Y358796D01*
X66740Y358759D01*
X66707Y358728D01*
X66647Y358645D01*
X66563Y358613D01*
X66424Y358562D01*
X66415Y358556D01*
X66404Y358552D01*
X66284Y358466D01*
X66161Y358382D01*
X66154Y358374D01*
X66145Y358367D01*
X66050Y358254D01*
X65952Y358142D01*
X65947Y358133D01*
X65940Y358124D01*
X65898Y358049D01*
X65873Y358042D01*
X65775Y357984D01*
X65672Y357933D01*
X65638Y357903D01*
X65599Y357880D01*
X65522Y357812D01*
X65433Y357799D01*
X65286Y357781D01*
X65276Y357777D01*
X65265Y357775D01*
X65128Y357718D01*
X64990Y357664D01*
X64981Y357658D01*
X64971Y357653D01*
X64853Y357564D01*
X64733Y357477D01*
X64726Y357469D01*
X64717Y357462D01*
X64659Y357398D01*
X64634Y357397D01*
X64524Y357362D01*
X64413Y357335D01*
X64374Y357314D01*
X64331Y357300D01*
X64190Y357224D01*
X64126Y357214D01*
X64044Y357211D01*
X63969Y357190D01*
X63893Y357178D01*
X63865Y357166D01*
X63577Y357166D01*
X63445Y357150D01*
X63313Y357138D01*
X63277Y357128D01*
X63262Y357126D01*
X63241Y357118D01*
X63158Y357095D01*
X62872Y356995D01*
X62855Y357004D01*
X62745Y357040D01*
X62638Y357085D01*
X62595Y357091D01*
X62553Y357105D01*
X62437Y357113D01*
X62323Y357129D01*
X62257Y357126D01*
X62236Y357127D01*
X62217Y357124D01*
X62162Y357121D01*
X61425Y357038D01*
X61397Y357055D01*
X61370Y357063D01*
X61346Y357077D01*
X61219Y357109D01*
X61093Y357148D01*
X61065Y357149D01*
X61038Y357156D01*
X60877Y357166D01*
X59039Y357166D01*
X59030Y357165D01*
X59021Y357166D01*
X58872Y357145D01*
X58724Y357126D01*
X58715Y357123D01*
X58706Y357122D01*
X58553Y357070D01*
X58147Y356901D01*
X55633Y356901D01*
G37*
%LPD*%
%LPC*%
G36*
X683425Y50661D02*
X683425Y50661D01*
X679037Y52479D01*
X675679Y55837D01*
X673861Y60225D01*
X673861Y64975D01*
X675679Y69363D01*
X679037Y72721D01*
X683425Y74539D01*
X688175Y74539D01*
X692563Y72721D01*
X695921Y69363D01*
X697739Y64975D01*
X697739Y60225D01*
X695921Y55837D01*
X692563Y52479D01*
X688175Y50661D01*
X683425Y50661D01*
G37*
%LPD*%
%LPC*%
G36*
X594658Y204411D02*
X594658Y204411D01*
X590270Y206229D01*
X586911Y209587D01*
X585094Y213975D01*
X585094Y218725D01*
X586911Y223113D01*
X590270Y226471D01*
X594658Y228289D01*
X599407Y228289D01*
X603795Y226471D01*
X607154Y223113D01*
X608971Y218725D01*
X608971Y213975D01*
X607154Y209587D01*
X603795Y206229D01*
X599407Y204411D01*
X594658Y204411D01*
G37*
%LPD*%
%LPC*%
G36*
X772193Y204411D02*
X772193Y204411D01*
X767805Y206229D01*
X764446Y209587D01*
X762629Y213975D01*
X762629Y218725D01*
X764446Y223113D01*
X767805Y226471D01*
X772193Y228289D01*
X776942Y228289D01*
X781330Y226471D01*
X784689Y223113D01*
X786506Y218725D01*
X786506Y213975D01*
X784689Y209587D01*
X781330Y206229D01*
X776942Y204411D01*
X772193Y204411D01*
G37*
%LPD*%
%LPC*%
G36*
X50337Y429001D02*
X50337Y429001D01*
X48022Y429960D01*
X46250Y431732D01*
X45291Y434047D01*
X45291Y436553D01*
X46250Y438868D01*
X48022Y440640D01*
X49521Y441261D01*
X49549Y441277D01*
X49580Y441287D01*
X49687Y441355D01*
X49797Y441418D01*
X49821Y441441D01*
X49848Y441459D01*
X49934Y441551D01*
X50026Y441639D01*
X50043Y441667D01*
X50065Y441691D01*
X50125Y441802D01*
X50192Y441911D01*
X50201Y441942D01*
X50217Y441970D01*
X50248Y442093D01*
X50285Y442215D01*
X50287Y442247D01*
X50295Y442279D01*
X50295Y442406D01*
X50301Y442532D01*
X50294Y442564D01*
X50294Y442597D01*
X50262Y442720D01*
X50236Y442844D01*
X50222Y442873D01*
X50214Y442905D01*
X50152Y443015D01*
X50097Y443129D01*
X50075Y443154D01*
X50060Y443183D01*
X49973Y443275D01*
X49890Y443371D01*
X49863Y443390D01*
X49841Y443414D01*
X49711Y443508D01*
X49591Y443583D01*
X49550Y443602D01*
X49513Y443628D01*
X49406Y443669D01*
X49302Y443717D01*
X49258Y443726D01*
X49216Y443742D01*
X49115Y443760D01*
X49049Y443821D01*
X48943Y443925D01*
X48934Y443930D01*
X48926Y443938D01*
X48796Y444009D01*
X48667Y444083D01*
X48657Y444086D01*
X48647Y444091D01*
X48505Y444128D01*
X48361Y444168D01*
X48350Y444168D01*
X48339Y444171D01*
X48253Y444176D01*
X48236Y444195D01*
X48188Y444227D01*
X48162Y444251D01*
X48121Y444274D01*
X48050Y444329D01*
X48009Y444347D01*
X47972Y444372D01*
X47877Y444412D01*
X47826Y444487D01*
X47746Y444611D01*
X47738Y444618D01*
X47732Y444627D01*
X47621Y444726D01*
X47512Y444827D01*
X47503Y444832D01*
X47495Y444839D01*
X47363Y444907D01*
X47232Y444977D01*
X47222Y444980D01*
X47212Y444985D01*
X47129Y445010D01*
X47117Y445032D01*
X47038Y445115D01*
X46966Y445204D01*
X46929Y445230D01*
X46898Y445263D01*
X46815Y445323D01*
X46783Y445406D01*
X46732Y445546D01*
X46726Y445555D01*
X46722Y445566D01*
X46636Y445686D01*
X46552Y445809D01*
X46544Y445816D01*
X46537Y445825D01*
X46424Y445921D01*
X46312Y446018D01*
X46303Y446023D01*
X46294Y446030D01*
X46219Y446072D01*
X46212Y446097D01*
X46154Y446195D01*
X46103Y446298D01*
X46073Y446332D01*
X46050Y446371D01*
X45982Y446448D01*
X45969Y446537D01*
X45951Y446684D01*
X45947Y446694D01*
X45945Y446705D01*
X45888Y446842D01*
X45834Y446980D01*
X45828Y446989D01*
X45823Y446999D01*
X45734Y447117D01*
X45647Y447237D01*
X45639Y447244D01*
X45632Y447253D01*
X45568Y447311D01*
X45567Y447336D01*
X45532Y447446D01*
X45505Y447557D01*
X45484Y447596D01*
X45470Y447639D01*
X45421Y447730D01*
X45428Y447820D01*
X45443Y447967D01*
X45441Y447978D01*
X45442Y447989D01*
X45417Y448134D01*
X45395Y448281D01*
X45390Y448292D01*
X45389Y448302D01*
X45329Y448436D01*
X45270Y448574D01*
X45263Y448583D01*
X45259Y448592D01*
X45209Y448663D01*
X45213Y448688D01*
X45204Y448803D01*
X45202Y448917D01*
X45190Y448960D01*
X45187Y449005D01*
X45159Y449104D01*
X45164Y449120D01*
X45191Y449179D01*
X45204Y449243D01*
X45233Y449331D01*
X45234Y449342D01*
X45237Y449352D01*
X45242Y449444D01*
X45251Y449491D01*
X45248Y449539D01*
X45256Y449648D01*
X45254Y449659D01*
X45255Y449670D01*
X45233Y449776D01*
X45231Y449808D01*
X45221Y449840D01*
X45199Y449961D01*
X45195Y449971D01*
X45193Y449981D01*
X45160Y450062D01*
X45170Y450085D01*
X45186Y450199D01*
X45210Y450311D01*
X45208Y450355D01*
X45214Y450400D01*
X45209Y450503D01*
X45255Y450581D01*
X45332Y450707D01*
X45335Y450718D01*
X45341Y450727D01*
X45382Y450869D01*
X45425Y451011D01*
X45425Y451022D01*
X45428Y451033D01*
X45433Y451180D01*
X45439Y451329D01*
X45437Y451340D01*
X45437Y451351D01*
X45423Y451436D01*
X45438Y451457D01*
X45479Y451564D01*
X45527Y451667D01*
X45536Y451712D01*
X45552Y451754D01*
X45570Y451855D01*
X45631Y451921D01*
X45735Y452027D01*
X45740Y452036D01*
X45748Y452044D01*
X45819Y452174D01*
X45893Y452303D01*
X45896Y452313D01*
X45901Y452323D01*
X45938Y452465D01*
X45978Y452609D01*
X45978Y452620D01*
X45981Y452631D01*
X45986Y452717D01*
X46005Y452734D01*
X46069Y452829D01*
X46139Y452920D01*
X46157Y452961D01*
X46182Y452998D01*
X46222Y453093D01*
X46296Y453143D01*
X46421Y453224D01*
X46428Y453232D01*
X46437Y453238D01*
X46536Y453348D01*
X46637Y453458D01*
X46642Y453467D01*
X46649Y453475D01*
X46717Y453607D01*
X46787Y453738D01*
X46790Y453748D01*
X46795Y453758D01*
X46820Y453841D01*
X46842Y453853D01*
X46925Y453932D01*
X47014Y454004D01*
X47040Y454041D01*
X47073Y454072D01*
X47133Y454155D01*
X47217Y454187D01*
X47356Y454238D01*
X47365Y454244D01*
X47376Y454248D01*
X47496Y454334D01*
X47619Y454418D01*
X47626Y454426D01*
X47635Y454433D01*
X47731Y454546D01*
X47828Y454658D01*
X47833Y454667D01*
X47840Y454676D01*
X47882Y454751D01*
X47907Y454758D01*
X47963Y454791D01*
X47998Y454805D01*
X48031Y454829D01*
X48108Y454867D01*
X48142Y454897D01*
X48181Y454920D01*
X48258Y454988D01*
X48347Y455001D01*
X48494Y455019D01*
X48504Y455023D01*
X48515Y455025D01*
X48652Y455082D01*
X48790Y455136D01*
X48799Y455142D01*
X48809Y455147D01*
X48926Y455235D01*
X49047Y455323D01*
X49054Y455331D01*
X49063Y455338D01*
X49121Y455402D01*
X49146Y455403D01*
X49256Y455438D01*
X49367Y455465D01*
X49406Y455486D01*
X49449Y455500D01*
X49590Y455576D01*
X49654Y455586D01*
X49736Y455589D01*
X49811Y455610D01*
X49887Y455622D01*
X49915Y455634D01*
X50203Y455634D01*
X50335Y455650D01*
X50467Y455662D01*
X50503Y455672D01*
X50518Y455674D01*
X50539Y455682D01*
X50622Y455705D01*
X50908Y455805D01*
X50925Y455796D01*
X51035Y455760D01*
X51142Y455715D01*
X51185Y455709D01*
X51227Y455695D01*
X51343Y455687D01*
X51457Y455671D01*
X51523Y455674D01*
X51544Y455673D01*
X51563Y455676D01*
X51618Y455679D01*
X52355Y455762D01*
X52383Y455745D01*
X52410Y455737D01*
X52434Y455723D01*
X52561Y455691D01*
X52687Y455652D01*
X52715Y455651D01*
X52742Y455644D01*
X52903Y455634D01*
X54741Y455634D01*
X54750Y455635D01*
X54759Y455634D01*
X54908Y455655D01*
X55056Y455674D01*
X55065Y455677D01*
X55074Y455678D01*
X55227Y455730D01*
X55633Y455899D01*
X58147Y455899D01*
X58553Y455730D01*
X58562Y455728D01*
X58570Y455723D01*
X58716Y455686D01*
X58860Y455646D01*
X58869Y455646D01*
X58878Y455644D01*
X59039Y455634D01*
X60877Y455634D01*
X60905Y455637D01*
X60933Y455635D01*
X61063Y455657D01*
X61193Y455674D01*
X61219Y455684D01*
X61246Y455689D01*
X61367Y455742D01*
X61418Y455763D01*
X62162Y455679D01*
X62278Y455680D01*
X62394Y455674D01*
X62436Y455682D01*
X62480Y455683D01*
X62592Y455713D01*
X62706Y455736D01*
X62766Y455761D01*
X62787Y455766D01*
X62804Y455776D01*
X62855Y455796D01*
X62872Y455805D01*
X63158Y455705D01*
X63288Y455677D01*
X63416Y455644D01*
X63454Y455642D01*
X63469Y455638D01*
X63491Y455639D01*
X63577Y455634D01*
X63863Y455634D01*
X63886Y455624D01*
X63968Y455611D01*
X64047Y455588D01*
X64124Y455586D01*
X64193Y455575D01*
X64230Y455558D01*
X64267Y455532D01*
X64374Y455491D01*
X64477Y455443D01*
X64522Y455434D01*
X64564Y455418D01*
X64665Y455400D01*
X64731Y455338D01*
X64837Y455235D01*
X64846Y455230D01*
X64854Y455222D01*
X64984Y455151D01*
X65113Y455077D01*
X65123Y455074D01*
X65133Y455069D01*
X65276Y455032D01*
X65419Y454992D01*
X65430Y454992D01*
X65441Y454989D01*
X65527Y454984D01*
X65544Y454965D01*
X65626Y454910D01*
X65646Y454892D01*
X65666Y454880D01*
X65730Y454831D01*
X65771Y454813D01*
X65808Y454788D01*
X65903Y454748D01*
X65953Y454674D01*
X66034Y454549D01*
X66042Y454542D01*
X66048Y454533D01*
X66158Y454434D01*
X66268Y454333D01*
X66277Y454328D01*
X66285Y454321D01*
X66417Y454253D01*
X66548Y454183D01*
X66558Y454180D01*
X66568Y454175D01*
X66651Y454150D01*
X66663Y454128D01*
X66742Y454045D01*
X66814Y453956D01*
X66851Y453930D01*
X66882Y453897D01*
X66965Y453837D01*
X66997Y453753D01*
X67048Y453614D01*
X67054Y453605D01*
X67058Y453594D01*
X67144Y453474D01*
X67228Y453351D01*
X67236Y453344D01*
X67243Y453335D01*
X67356Y453240D01*
X67468Y453142D01*
X67477Y453137D01*
X67486Y453130D01*
X67561Y453088D01*
X67568Y453063D01*
X67626Y452965D01*
X67677Y452862D01*
X67707Y452828D01*
X67730Y452789D01*
X67798Y452712D01*
X67811Y452622D01*
X67829Y452476D01*
X67833Y452466D01*
X67835Y452455D01*
X67892Y452318D01*
X67946Y452180D01*
X67952Y452171D01*
X67957Y452161D01*
X68046Y452043D01*
X68133Y451923D01*
X68141Y451916D01*
X68148Y451907D01*
X68212Y451849D01*
X68213Y451824D01*
X68248Y451714D01*
X68275Y451603D01*
X68296Y451564D01*
X68310Y451521D01*
X68359Y451430D01*
X68352Y451340D01*
X68337Y451193D01*
X68339Y451182D01*
X68338Y451171D01*
X68363Y451026D01*
X68385Y450879D01*
X68390Y450868D01*
X68391Y450858D01*
X68451Y450724D01*
X68510Y450586D01*
X68517Y450577D01*
X68521Y450568D01*
X68571Y450497D01*
X68567Y450471D01*
X68576Y450357D01*
X68578Y450243D01*
X68590Y450200D01*
X68593Y450155D01*
X68621Y450056D01*
X68600Y449988D01*
X68589Y449964D01*
X68584Y449940D01*
X68547Y449829D01*
X68546Y449818D01*
X68543Y449808D01*
X68536Y449691D01*
X68529Y449652D01*
X68531Y449613D01*
X68524Y449512D01*
X68526Y449501D01*
X68525Y449490D01*
X68545Y449391D01*
X68549Y449335D01*
X68566Y449282D01*
X68581Y449199D01*
X68585Y449189D01*
X68587Y449178D01*
X68620Y449098D01*
X68610Y449075D01*
X68594Y448961D01*
X68570Y448849D01*
X68572Y448805D01*
X68566Y448760D01*
X68571Y448657D01*
X68525Y448579D01*
X68448Y448453D01*
X68445Y448442D01*
X68439Y448433D01*
X68398Y448291D01*
X68355Y448149D01*
X68355Y448138D01*
X68352Y448127D01*
X68347Y447980D01*
X68341Y447831D01*
X68343Y447820D01*
X68343Y447809D01*
X68357Y447724D01*
X68342Y447703D01*
X68301Y447596D01*
X68253Y447493D01*
X68244Y447448D01*
X68228Y447406D01*
X68210Y447305D01*
X68149Y447239D01*
X68045Y447133D01*
X68040Y447124D01*
X68032Y447116D01*
X67961Y446986D01*
X67887Y446857D01*
X67884Y446847D01*
X67879Y446837D01*
X67842Y446695D01*
X67802Y446551D01*
X67802Y446540D01*
X67799Y446529D01*
X67794Y446443D01*
X67775Y446426D01*
X67711Y446331D01*
X67641Y446240D01*
X67623Y446199D01*
X67598Y446162D01*
X67558Y446067D01*
X67483Y446016D01*
X67359Y445936D01*
X67352Y445928D01*
X67343Y445922D01*
X67244Y445811D01*
X67143Y445702D01*
X67138Y445693D01*
X67131Y445685D01*
X67063Y445553D01*
X66993Y445422D01*
X66990Y445412D01*
X66985Y445402D01*
X66960Y445319D01*
X66938Y445307D01*
X66855Y445228D01*
X66766Y445156D01*
X66740Y445119D01*
X66707Y445088D01*
X66647Y445005D01*
X66563Y444973D01*
X66424Y444922D01*
X66415Y444916D01*
X66404Y444912D01*
X66284Y444826D01*
X66161Y444742D01*
X66154Y444734D01*
X66145Y444727D01*
X66050Y444614D01*
X65952Y444502D01*
X65947Y444493D01*
X65940Y444484D01*
X65898Y444409D01*
X65873Y444402D01*
X65786Y444351D01*
X65754Y444338D01*
X65734Y444324D01*
X65672Y444293D01*
X65638Y444263D01*
X65599Y444240D01*
X65522Y444172D01*
X65433Y444159D01*
X65286Y444141D01*
X65276Y444137D01*
X65265Y444135D01*
X65128Y444078D01*
X64990Y444024D01*
X64981Y444018D01*
X64971Y444013D01*
X64853Y443924D01*
X64733Y443837D01*
X64726Y443829D01*
X64717Y443822D01*
X64659Y443758D01*
X64634Y443757D01*
X64524Y443722D01*
X64413Y443695D01*
X64374Y443674D01*
X64331Y443660D01*
X64190Y443584D01*
X64126Y443574D01*
X64044Y443571D01*
X63969Y443550D01*
X63893Y443538D01*
X63865Y443526D01*
X63577Y443526D01*
X63445Y443510D01*
X63313Y443498D01*
X63277Y443488D01*
X63262Y443486D01*
X63241Y443478D01*
X63158Y443455D01*
X62872Y443355D01*
X62855Y443364D01*
X62745Y443400D01*
X62638Y443445D01*
X62595Y443451D01*
X62553Y443465D01*
X62437Y443473D01*
X62323Y443489D01*
X62257Y443486D01*
X62236Y443487D01*
X62217Y443484D01*
X62162Y443481D01*
X61425Y443398D01*
X61397Y443415D01*
X61370Y443423D01*
X61346Y443437D01*
X61219Y443469D01*
X61093Y443508D01*
X61065Y443509D01*
X61038Y443516D01*
X60877Y443526D01*
X59039Y443526D01*
X59030Y443525D01*
X59021Y443526D01*
X58872Y443505D01*
X58724Y443486D01*
X58715Y443483D01*
X58706Y443482D01*
X58553Y443430D01*
X58147Y443261D01*
X55633Y443261D01*
X55227Y443430D01*
X55218Y443432D01*
X55210Y443437D01*
X55064Y443474D01*
X54920Y443514D01*
X54911Y443514D01*
X54902Y443516D01*
X54741Y443526D01*
X54570Y443526D01*
X54501Y443518D01*
X54431Y443519D01*
X54344Y443498D01*
X54255Y443486D01*
X54190Y443461D01*
X54122Y443444D01*
X54043Y443402D01*
X53959Y443369D01*
X53903Y443328D01*
X53841Y443296D01*
X53774Y443235D01*
X53702Y443183D01*
X53657Y443129D01*
X53606Y443082D01*
X53556Y443007D01*
X53499Y442938D01*
X53469Y442874D01*
X53431Y442816D01*
X53402Y442731D01*
X53363Y442650D01*
X53350Y442581D01*
X53328Y442515D01*
X53321Y442426D01*
X53304Y442338D01*
X53308Y442268D01*
X53302Y442198D01*
X53318Y442110D01*
X53323Y442020D01*
X53345Y441954D01*
X53357Y441885D01*
X53394Y441803D01*
X53421Y441718D01*
X53459Y441659D01*
X53487Y441595D01*
X53544Y441525D01*
X53592Y441449D01*
X53642Y441401D01*
X53686Y441347D01*
X53758Y441292D01*
X53823Y441231D01*
X53884Y441197D01*
X53940Y441155D01*
X54085Y441084D01*
X55158Y440640D01*
X56930Y438868D01*
X57889Y436553D01*
X57889Y434047D01*
X56930Y431732D01*
X55158Y429960D01*
X52843Y429001D01*
X50337Y429001D01*
G37*
%LPD*%
%LPC*%
G36*
X302678Y14731D02*
X302678Y14731D01*
X298757Y16355D01*
X295755Y19357D01*
X294131Y23278D01*
X294131Y27522D01*
X295755Y31443D01*
X298757Y34445D01*
X302678Y36069D01*
X306922Y36069D01*
X310843Y34445D01*
X313845Y31443D01*
X315469Y27522D01*
X315469Y23278D01*
X313845Y19357D01*
X310843Y16355D01*
X306922Y14731D01*
X302678Y14731D01*
G37*
%LPD*%
%LPC*%
G36*
X328078Y14731D02*
X328078Y14731D01*
X324157Y16355D01*
X321155Y19357D01*
X319531Y23278D01*
X319531Y27522D01*
X321155Y31443D01*
X324157Y34445D01*
X328078Y36069D01*
X332322Y36069D01*
X336243Y34445D01*
X339245Y31443D01*
X340869Y27522D01*
X340869Y23278D01*
X339245Y19357D01*
X336243Y16355D01*
X332322Y14731D01*
X328078Y14731D01*
G37*
%LPD*%
%LPC*%
G36*
X378878Y14731D02*
X378878Y14731D01*
X374957Y16355D01*
X371955Y19357D01*
X370331Y23278D01*
X370331Y27522D01*
X371955Y31443D01*
X374957Y34445D01*
X378878Y36069D01*
X383122Y36069D01*
X387043Y34445D01*
X390045Y31443D01*
X391669Y27522D01*
X391669Y23278D01*
X390045Y19357D01*
X387043Y16355D01*
X383122Y14731D01*
X378878Y14731D01*
G37*
%LPD*%
%LPC*%
G36*
X404278Y14731D02*
X404278Y14731D01*
X400357Y16355D01*
X397355Y19357D01*
X395731Y23278D01*
X395731Y27522D01*
X397355Y31443D01*
X400357Y34445D01*
X404278Y36069D01*
X408522Y36069D01*
X412443Y34445D01*
X415445Y31443D01*
X417069Y27522D01*
X417069Y23278D01*
X415445Y19357D01*
X412443Y16355D01*
X408522Y14731D01*
X404278Y14731D01*
G37*
%LPD*%
%LPC*%
G36*
X353478Y14731D02*
X353478Y14731D01*
X349557Y16355D01*
X346555Y19357D01*
X344931Y23278D01*
X344931Y27522D01*
X346555Y31443D01*
X349557Y34445D01*
X353478Y36069D01*
X357722Y36069D01*
X361643Y34445D01*
X364645Y31443D01*
X366269Y27522D01*
X366269Y23278D01*
X364645Y19357D01*
X361643Y16355D01*
X357722Y14731D01*
X353478Y14731D01*
G37*
%LPD*%
%LPC*%
G36*
X429678Y14731D02*
X429678Y14731D01*
X425757Y16355D01*
X422755Y19357D01*
X421131Y23278D01*
X421131Y27522D01*
X422755Y31443D01*
X425757Y34445D01*
X429678Y36069D01*
X433922Y36069D01*
X437843Y34445D01*
X440845Y31443D01*
X442469Y27522D01*
X442469Y23278D01*
X440845Y19357D01*
X437843Y16355D01*
X433922Y14731D01*
X429678Y14731D01*
G37*
%LPD*%
%LPC*%
G36*
X455078Y14731D02*
X455078Y14731D01*
X451157Y16355D01*
X448155Y19357D01*
X446531Y23278D01*
X446531Y27522D01*
X448155Y31443D01*
X451157Y34445D01*
X455078Y36069D01*
X459322Y36069D01*
X463243Y34445D01*
X466245Y31443D01*
X467869Y27522D01*
X467869Y23278D01*
X466245Y19357D01*
X463243Y16355D01*
X459322Y14731D01*
X455078Y14731D01*
G37*
%LPD*%
%LPC*%
G36*
X480478Y14731D02*
X480478Y14731D01*
X476557Y16355D01*
X473555Y19357D01*
X471931Y23278D01*
X471931Y27522D01*
X473555Y31443D01*
X476557Y34445D01*
X480478Y36069D01*
X484722Y36069D01*
X488643Y34445D01*
X491645Y31443D01*
X493269Y27522D01*
X493269Y23278D01*
X491645Y19357D01*
X488643Y16355D01*
X484722Y14731D01*
X480478Y14731D01*
G37*
%LPD*%
%LPC*%
G36*
X124878Y14731D02*
X124878Y14731D01*
X120957Y16355D01*
X117955Y19357D01*
X116331Y23278D01*
X116331Y27522D01*
X117955Y31443D01*
X120957Y34445D01*
X124878Y36069D01*
X129122Y36069D01*
X133043Y34445D01*
X136045Y31443D01*
X137669Y27522D01*
X137669Y23278D01*
X136045Y19357D01*
X133043Y16355D01*
X129122Y14731D01*
X124878Y14731D01*
G37*
%LPD*%
%LPC*%
G36*
X150278Y14731D02*
X150278Y14731D01*
X146357Y16355D01*
X143355Y19357D01*
X141731Y23278D01*
X141731Y27522D01*
X143355Y31443D01*
X146357Y34445D01*
X150278Y36069D01*
X154522Y36069D01*
X158443Y34445D01*
X161445Y31443D01*
X163069Y27522D01*
X163069Y23278D01*
X161445Y19357D01*
X158443Y16355D01*
X154522Y14731D01*
X150278Y14731D01*
G37*
%LPD*%
%LPC*%
G36*
X292518Y356361D02*
X292518Y356361D01*
X288597Y357985D01*
X285595Y360987D01*
X283971Y364908D01*
X283971Y369152D01*
X285595Y373073D01*
X288597Y376075D01*
X292518Y377699D01*
X296762Y377699D01*
X300683Y376075D01*
X303685Y373073D01*
X305309Y369152D01*
X305309Y364908D01*
X303685Y360987D01*
X300683Y357985D01*
X296762Y356361D01*
X292518Y356361D01*
G37*
%LPD*%
%LPC*%
G36*
X267118Y356361D02*
X267118Y356361D01*
X263197Y357985D01*
X260195Y360987D01*
X258571Y364908D01*
X258571Y369152D01*
X260195Y373073D01*
X263197Y376075D01*
X267118Y377699D01*
X271362Y377699D01*
X275283Y376075D01*
X278285Y373073D01*
X279909Y369152D01*
X279909Y364908D01*
X278285Y360987D01*
X275283Y357985D01*
X271362Y356361D01*
X267118Y356361D01*
G37*
%LPD*%
%LPC*%
G36*
X99478Y14731D02*
X99478Y14731D01*
X95557Y16355D01*
X92555Y19357D01*
X90931Y23278D01*
X90931Y27522D01*
X92555Y31443D01*
X95557Y34445D01*
X99478Y36069D01*
X103722Y36069D01*
X107643Y34445D01*
X110645Y31443D01*
X112269Y27522D01*
X112269Y23278D01*
X110645Y19357D01*
X107643Y16355D01*
X103722Y14731D01*
X99478Y14731D01*
G37*
%LPD*%
%LPC*%
G36*
X251878Y14731D02*
X251878Y14731D01*
X247957Y16355D01*
X244955Y19357D01*
X243331Y23278D01*
X243331Y27522D01*
X244955Y31443D01*
X247957Y34445D01*
X251878Y36069D01*
X256122Y36069D01*
X260043Y34445D01*
X263045Y31443D01*
X264669Y27522D01*
X264669Y23278D01*
X263045Y19357D01*
X260043Y16355D01*
X256122Y14731D01*
X251878Y14731D01*
G37*
%LPD*%
%LPC*%
G36*
X226478Y14731D02*
X226478Y14731D01*
X222557Y16355D01*
X219555Y19357D01*
X217931Y23278D01*
X217931Y27522D01*
X219555Y31443D01*
X222557Y34445D01*
X226478Y36069D01*
X230722Y36069D01*
X234643Y34445D01*
X237645Y31443D01*
X239269Y27522D01*
X239269Y23278D01*
X237645Y19357D01*
X234643Y16355D01*
X230722Y14731D01*
X226478Y14731D01*
G37*
%LPD*%
%LPC*%
G36*
X201078Y14731D02*
X201078Y14731D01*
X197157Y16355D01*
X194155Y19357D01*
X192531Y23278D01*
X192531Y27522D01*
X194155Y31443D01*
X197157Y34445D01*
X201078Y36069D01*
X205322Y36069D01*
X209243Y34445D01*
X212245Y31443D01*
X213869Y27522D01*
X213869Y23278D01*
X212245Y19357D01*
X209243Y16355D01*
X205322Y14731D01*
X201078Y14731D01*
G37*
%LPD*%
%LPC*%
G36*
X175678Y14731D02*
X175678Y14731D01*
X171757Y16355D01*
X168755Y19357D01*
X167131Y23278D01*
X167131Y27522D01*
X168755Y31443D01*
X171757Y34445D01*
X175678Y36069D01*
X179922Y36069D01*
X183843Y34445D01*
X186845Y31443D01*
X188469Y27522D01*
X188469Y23278D01*
X186845Y19357D01*
X183843Y16355D01*
X179922Y14731D01*
X175678Y14731D01*
G37*
%LPD*%
%LPC*%
G36*
X670668Y530097D02*
X670668Y530097D01*
X668520Y530987D01*
X666877Y532630D01*
X665987Y534778D01*
X665987Y537102D01*
X666877Y539250D01*
X667047Y539420D01*
X667090Y539475D01*
X667140Y539524D01*
X667187Y539601D01*
X667242Y539672D01*
X667270Y539736D01*
X667307Y539795D01*
X667333Y539881D01*
X667369Y539963D01*
X667380Y540032D01*
X667400Y540099D01*
X667404Y540189D01*
X667419Y540277D01*
X667412Y540347D01*
X667415Y540417D01*
X667397Y540505D01*
X667389Y540594D01*
X667365Y540660D01*
X667351Y540728D01*
X667312Y540809D01*
X667281Y540893D01*
X667242Y540951D01*
X667211Y541014D01*
X667153Y541082D01*
X667103Y541156D01*
X667050Y541203D01*
X667005Y541256D01*
X666931Y541308D01*
X666864Y541367D01*
X666802Y541399D01*
X666745Y541439D01*
X666661Y541471D01*
X666581Y541512D01*
X666513Y541527D01*
X666448Y541552D01*
X666358Y541562D01*
X666271Y541581D01*
X666201Y541579D01*
X666131Y541587D01*
X666042Y541574D01*
X665953Y541572D01*
X665886Y541552D01*
X665817Y541542D01*
X665772Y541527D01*
X663429Y541527D01*
X661281Y542417D01*
X659638Y544060D01*
X658748Y546208D01*
X658748Y548532D01*
X659638Y550680D01*
X661281Y552323D01*
X663429Y553213D01*
X665753Y553213D01*
X667901Y552323D01*
X669544Y550680D01*
X670434Y548532D01*
X670434Y546208D01*
X669544Y544060D01*
X669374Y543890D01*
X669331Y543835D01*
X669281Y543786D01*
X669234Y543709D01*
X669179Y543638D01*
X669151Y543574D01*
X669114Y543515D01*
X669088Y543429D01*
X669052Y543347D01*
X669041Y543278D01*
X669021Y543211D01*
X669017Y543121D01*
X669002Y543033D01*
X669009Y542963D01*
X669006Y542893D01*
X669024Y542805D01*
X669032Y542716D01*
X669056Y542650D01*
X669070Y542582D01*
X669109Y542501D01*
X669140Y542417D01*
X669179Y542359D01*
X669210Y542296D01*
X669268Y542228D01*
X669318Y542154D01*
X669371Y542107D01*
X669416Y542054D01*
X669490Y542002D01*
X669557Y541943D01*
X669619Y541911D01*
X669676Y541871D01*
X669760Y541839D01*
X669840Y541798D01*
X669908Y541783D01*
X669973Y541758D01*
X670063Y541748D01*
X670150Y541729D01*
X670220Y541731D01*
X670290Y541723D01*
X670379Y541736D01*
X670468Y541738D01*
X670535Y541758D01*
X670604Y541768D01*
X670649Y541783D01*
X672992Y541783D01*
X675140Y540893D01*
X675250Y540782D01*
X675360Y540697D01*
X675467Y540608D01*
X675486Y540600D01*
X675502Y540587D01*
X675630Y540532D01*
X675755Y540473D01*
X675775Y540469D01*
X675794Y540461D01*
X675931Y540439D01*
X676068Y540413D01*
X676088Y540414D01*
X676108Y540411D01*
X676246Y540424D01*
X676385Y540433D01*
X676404Y540439D01*
X676424Y540441D01*
X676555Y540488D01*
X676687Y540531D01*
X676705Y540542D01*
X676724Y540549D01*
X676838Y540627D01*
X676956Y540701D01*
X676970Y540716D01*
X676987Y540727D01*
X677079Y540831D01*
X677174Y540933D01*
X677184Y540950D01*
X677197Y540966D01*
X677261Y541090D01*
X677328Y541211D01*
X677333Y541231D01*
X677342Y541249D01*
X677372Y541385D01*
X677407Y541519D01*
X677409Y541547D01*
X677412Y541559D01*
X677411Y541580D01*
X677417Y541680D01*
X677417Y543452D01*
X678307Y545600D01*
X679950Y547243D01*
X682098Y548133D01*
X684422Y548133D01*
X686570Y547243D01*
X688213Y545600D01*
X689103Y543452D01*
X689103Y541128D01*
X688213Y538980D01*
X686570Y537337D01*
X684422Y536447D01*
X682098Y536447D01*
X679950Y537337D01*
X679840Y537448D01*
X679730Y537533D01*
X679623Y537622D01*
X679604Y537630D01*
X679588Y537643D01*
X679460Y537698D01*
X679335Y537757D01*
X679315Y537761D01*
X679296Y537769D01*
X679159Y537791D01*
X679022Y537817D01*
X679002Y537816D01*
X678982Y537819D01*
X678844Y537806D01*
X678705Y537797D01*
X678686Y537791D01*
X678666Y537789D01*
X678535Y537742D01*
X678403Y537699D01*
X678385Y537688D01*
X678366Y537681D01*
X678251Y537603D01*
X678134Y537529D01*
X678120Y537514D01*
X678103Y537503D01*
X678011Y537399D01*
X677916Y537297D01*
X677906Y537280D01*
X677893Y537264D01*
X677829Y537140D01*
X677762Y537019D01*
X677757Y536999D01*
X677748Y536981D01*
X677718Y536845D01*
X677683Y536711D01*
X677681Y536683D01*
X677678Y536671D01*
X677679Y536650D01*
X677673Y536550D01*
X677673Y534778D01*
X676783Y532630D01*
X675140Y530987D01*
X672992Y530097D01*
X670668Y530097D01*
G37*
%LPD*%
%LPC*%
G36*
X189338Y88137D02*
X189338Y88137D01*
X187190Y89027D01*
X185547Y90670D01*
X184657Y92818D01*
X184657Y95142D01*
X185547Y97290D01*
X187190Y98933D01*
X189338Y99823D01*
X191662Y99823D01*
X193810Y98933D01*
X193920Y98822D01*
X194030Y98737D01*
X194137Y98648D01*
X194156Y98640D01*
X194172Y98627D01*
X194300Y98572D01*
X194425Y98513D01*
X194445Y98509D01*
X194464Y98501D01*
X194601Y98479D01*
X194738Y98453D01*
X194758Y98454D01*
X194778Y98451D01*
X194916Y98464D01*
X195055Y98473D01*
X195074Y98479D01*
X195094Y98481D01*
X195225Y98528D01*
X195357Y98571D01*
X195375Y98582D01*
X195394Y98589D01*
X195509Y98667D01*
X195626Y98741D01*
X195640Y98756D01*
X195657Y98767D01*
X195749Y98871D01*
X195844Y98973D01*
X195854Y98990D01*
X195867Y99006D01*
X195931Y99130D01*
X195998Y99251D01*
X196003Y99271D01*
X196012Y99289D01*
X196042Y99425D01*
X196077Y99559D01*
X196079Y99587D01*
X196082Y99599D01*
X196081Y99620D01*
X196087Y99720D01*
X196087Y101492D01*
X196977Y103640D01*
X198620Y105283D01*
X200768Y106173D01*
X203092Y106173D01*
X205240Y105283D01*
X206883Y103640D01*
X207107Y103099D01*
X207176Y102978D01*
X207241Y102855D01*
X207255Y102840D01*
X207265Y102822D01*
X207362Y102722D01*
X207455Y102620D01*
X207472Y102608D01*
X207486Y102594D01*
X207605Y102521D01*
X207721Y102445D01*
X207740Y102438D01*
X207757Y102428D01*
X207890Y102387D01*
X208022Y102342D01*
X208042Y102340D01*
X208061Y102334D01*
X208200Y102327D01*
X208339Y102316D01*
X208359Y102320D01*
X208379Y102319D01*
X208515Y102347D01*
X208652Y102371D01*
X208671Y102379D01*
X208690Y102383D01*
X208815Y102444D01*
X208942Y102501D01*
X208958Y102514D01*
X208976Y102523D01*
X209082Y102613D01*
X209190Y102700D01*
X209203Y102716D01*
X209218Y102729D01*
X209298Y102843D01*
X209382Y102954D01*
X209394Y102979D01*
X209401Y102989D01*
X209408Y103008D01*
X209453Y103099D01*
X209677Y103640D01*
X211320Y105283D01*
X213468Y106173D01*
X215792Y106173D01*
X217940Y105283D01*
X219583Y103640D01*
X220473Y101492D01*
X220473Y99168D01*
X219583Y97020D01*
X217940Y95377D01*
X215792Y94487D01*
X213468Y94487D01*
X211320Y95377D01*
X209677Y97020D01*
X209453Y97561D01*
X209384Y97682D01*
X209319Y97805D01*
X209305Y97820D01*
X209295Y97838D01*
X209199Y97937D01*
X209105Y98040D01*
X209088Y98052D01*
X209074Y98066D01*
X208956Y98139D01*
X208839Y98215D01*
X208820Y98222D01*
X208803Y98232D01*
X208670Y98273D01*
X208538Y98318D01*
X208518Y98320D01*
X208499Y98326D01*
X208360Y98333D01*
X208221Y98344D01*
X208201Y98340D01*
X208181Y98341D01*
X208045Y98313D01*
X207908Y98289D01*
X207890Y98281D01*
X207870Y98277D01*
X207745Y98216D01*
X207618Y98159D01*
X207602Y98146D01*
X207584Y98137D01*
X207478Y98047D01*
X207370Y97960D01*
X207357Y97944D01*
X207342Y97931D01*
X207262Y97817D01*
X207178Y97706D01*
X207166Y97681D01*
X207159Y97671D01*
X207152Y97652D01*
X207107Y97561D01*
X206883Y97020D01*
X205240Y95377D01*
X203092Y94487D01*
X200768Y94487D01*
X198620Y95377D01*
X198510Y95488D01*
X198400Y95573D01*
X198293Y95662D01*
X198274Y95670D01*
X198258Y95683D01*
X198130Y95738D01*
X198005Y95797D01*
X197985Y95801D01*
X197966Y95809D01*
X197829Y95831D01*
X197692Y95857D01*
X197672Y95856D01*
X197652Y95859D01*
X197514Y95846D01*
X197375Y95837D01*
X197356Y95831D01*
X197336Y95829D01*
X197205Y95782D01*
X197073Y95739D01*
X197055Y95728D01*
X197036Y95721D01*
X196921Y95643D01*
X196804Y95569D01*
X196790Y95554D01*
X196773Y95543D01*
X196681Y95439D01*
X196586Y95337D01*
X196576Y95320D01*
X196563Y95304D01*
X196499Y95180D01*
X196432Y95059D01*
X196427Y95039D01*
X196418Y95021D01*
X196388Y94885D01*
X196353Y94751D01*
X196351Y94723D01*
X196348Y94711D01*
X196349Y94690D01*
X196343Y94590D01*
X196343Y92818D01*
X195453Y90670D01*
X193810Y89027D01*
X191662Y88137D01*
X189338Y88137D01*
G37*
%LPD*%
%LPC*%
G36*
X280778Y49275D02*
X280778Y49275D01*
X278630Y50165D01*
X276987Y51808D01*
X276097Y53956D01*
X276097Y56280D01*
X276987Y58428D01*
X277860Y59301D01*
X277944Y59410D01*
X278034Y59517D01*
X278042Y59536D01*
X278055Y59552D01*
X278110Y59679D01*
X278169Y59805D01*
X278173Y59825D01*
X278181Y59844D01*
X278203Y59982D01*
X278229Y60118D01*
X278228Y60138D01*
X278231Y60158D01*
X278218Y60297D01*
X278209Y60435D01*
X278203Y60454D01*
X278201Y60474D01*
X278154Y60606D01*
X278111Y60737D01*
X278100Y60755D01*
X278093Y60774D01*
X278015Y60889D01*
X277941Y61006D01*
X277926Y61020D01*
X277915Y61037D01*
X277811Y61128D01*
X277709Y61224D01*
X277692Y61234D01*
X277676Y61247D01*
X277553Y61310D01*
X277431Y61378D01*
X277411Y61383D01*
X277393Y61392D01*
X277257Y61422D01*
X277123Y61457D01*
X277095Y61459D01*
X277083Y61462D01*
X277062Y61461D01*
X276962Y61467D01*
X274428Y61467D01*
X272280Y62357D01*
X272043Y62595D01*
X271948Y62668D01*
X271859Y62746D01*
X271823Y62765D01*
X271791Y62790D01*
X271682Y62837D01*
X271576Y62891D01*
X271536Y62900D01*
X271499Y62916D01*
X271382Y62935D01*
X271266Y62961D01*
X271225Y62959D01*
X271185Y62966D01*
X271067Y62955D01*
X270948Y62951D01*
X270909Y62940D01*
X270869Y62936D01*
X270756Y62896D01*
X270642Y62863D01*
X270608Y62842D01*
X270569Y62828D01*
X270471Y62761D01*
X270368Y62701D01*
X270323Y62661D01*
X270306Y62650D01*
X270293Y62635D01*
X270248Y62595D01*
X270010Y62357D01*
X267862Y61467D01*
X265538Y61467D01*
X263390Y62357D01*
X261747Y64000D01*
X260857Y66148D01*
X260857Y68472D01*
X261747Y70620D01*
X263390Y72263D01*
X265538Y73153D01*
X267862Y73153D01*
X270010Y72263D01*
X270248Y72025D01*
X270342Y71952D01*
X270431Y71874D01*
X270467Y71855D01*
X270499Y71830D01*
X270608Y71783D01*
X270714Y71729D01*
X270754Y71720D01*
X270791Y71704D01*
X270908Y71685D01*
X271024Y71659D01*
X271065Y71661D01*
X271105Y71654D01*
X271224Y71665D01*
X271342Y71669D01*
X271381Y71680D01*
X271421Y71684D01*
X271533Y71724D01*
X271648Y71757D01*
X271683Y71778D01*
X271721Y71792D01*
X271819Y71858D01*
X271922Y71919D01*
X271967Y71959D01*
X271984Y71970D01*
X271997Y71985D01*
X272043Y72025D01*
X272280Y72263D01*
X274428Y73153D01*
X276752Y73153D01*
X278900Y72263D01*
X280543Y70620D01*
X281433Y68472D01*
X281433Y66148D01*
X280543Y64000D01*
X279670Y63127D01*
X279586Y63018D01*
X279496Y62911D01*
X279488Y62892D01*
X279475Y62876D01*
X279420Y62749D01*
X279361Y62623D01*
X279357Y62603D01*
X279349Y62584D01*
X279327Y62446D01*
X279301Y62310D01*
X279302Y62290D01*
X279299Y62270D01*
X279312Y62131D01*
X279321Y61993D01*
X279327Y61974D01*
X279329Y61954D01*
X279376Y61822D01*
X279419Y61691D01*
X279430Y61673D01*
X279437Y61654D01*
X279515Y61539D01*
X279589Y61422D01*
X279604Y61408D01*
X279615Y61391D01*
X279719Y61299D01*
X279821Y61204D01*
X279838Y61194D01*
X279854Y61181D01*
X279977Y61118D01*
X280099Y61050D01*
X280119Y61045D01*
X280137Y61036D01*
X280273Y61006D01*
X280407Y60971D01*
X280435Y60969D01*
X280447Y60966D01*
X280468Y60967D01*
X280568Y60961D01*
X283102Y60961D01*
X285250Y60071D01*
X286893Y58428D01*
X287783Y56280D01*
X287783Y53956D01*
X286893Y51808D01*
X285250Y50165D01*
X283102Y49275D01*
X280778Y49275D01*
G37*
%LPD*%
%LPC*%
G36*
X72498Y382777D02*
X72498Y382777D01*
X70350Y383667D01*
X68707Y385310D01*
X67817Y387458D01*
X67817Y389782D01*
X68707Y391930D01*
X69580Y392802D01*
X69652Y392896D01*
X69731Y392986D01*
X69750Y393022D01*
X69775Y393054D01*
X69822Y393163D01*
X69876Y393269D01*
X69885Y393308D01*
X69901Y393346D01*
X69920Y393463D01*
X69946Y393579D01*
X69944Y393620D01*
X69951Y393660D01*
X69940Y393778D01*
X69936Y393897D01*
X69925Y393936D01*
X69921Y393976D01*
X69881Y394089D01*
X69848Y394203D01*
X69827Y394237D01*
X69813Y394276D01*
X69747Y394374D01*
X69686Y394477D01*
X69646Y394522D01*
X69635Y394539D01*
X69620Y394552D01*
X69580Y394597D01*
X68707Y395470D01*
X67817Y397618D01*
X67817Y399942D01*
X68707Y402090D01*
X69580Y402963D01*
X69653Y403057D01*
X69731Y403146D01*
X69750Y403182D01*
X69775Y403214D01*
X69822Y403323D01*
X69876Y403429D01*
X69885Y403468D01*
X69901Y403506D01*
X69920Y403623D01*
X69946Y403739D01*
X69944Y403780D01*
X69951Y403820D01*
X69940Y403938D01*
X69936Y404057D01*
X69925Y404096D01*
X69921Y404136D01*
X69881Y404248D01*
X69848Y404363D01*
X69827Y404398D01*
X69813Y404436D01*
X69747Y404534D01*
X69686Y404637D01*
X69646Y404682D01*
X69635Y404699D01*
X69619Y404712D01*
X69580Y404758D01*
X68707Y405630D01*
X67817Y407778D01*
X67817Y410102D01*
X68707Y412250D01*
X70350Y413893D01*
X72498Y414783D01*
X74822Y414783D01*
X76970Y413893D01*
X78613Y412250D01*
X79503Y410102D01*
X79503Y407778D01*
X78613Y405630D01*
X77740Y404758D01*
X77668Y404664D01*
X77589Y404574D01*
X77570Y404538D01*
X77545Y404506D01*
X77498Y404397D01*
X77444Y404291D01*
X77435Y404252D01*
X77419Y404214D01*
X77400Y404097D01*
X77374Y403981D01*
X77376Y403940D01*
X77369Y403900D01*
X77380Y403782D01*
X77384Y403663D01*
X77395Y403624D01*
X77399Y403584D01*
X77439Y403471D01*
X77472Y403357D01*
X77493Y403323D01*
X77507Y403284D01*
X77573Y403186D01*
X77634Y403083D01*
X77674Y403038D01*
X77685Y403021D01*
X77700Y403008D01*
X77740Y402963D01*
X78613Y402090D01*
X79503Y399942D01*
X79503Y397618D01*
X78613Y395470D01*
X77740Y394597D01*
X77667Y394503D01*
X77589Y394414D01*
X77570Y394378D01*
X77545Y394346D01*
X77498Y394237D01*
X77444Y394131D01*
X77435Y394092D01*
X77419Y394054D01*
X77400Y393937D01*
X77374Y393821D01*
X77376Y393780D01*
X77369Y393740D01*
X77380Y393622D01*
X77384Y393503D01*
X77395Y393464D01*
X77399Y393424D01*
X77439Y393312D01*
X77472Y393197D01*
X77493Y393162D01*
X77507Y393124D01*
X77573Y393026D01*
X77634Y392923D01*
X77674Y392878D01*
X77685Y392861D01*
X77701Y392848D01*
X77740Y392802D01*
X78613Y391930D01*
X79503Y389782D01*
X79503Y387458D01*
X78613Y385310D01*
X76970Y383667D01*
X74822Y382777D01*
X72498Y382777D01*
G37*
%LPD*%
%LPC*%
G36*
X669398Y451357D02*
X669398Y451357D01*
X667250Y452247D01*
X665607Y453890D01*
X664716Y456040D01*
X664700Y456170D01*
X664687Y456309D01*
X664680Y456328D01*
X664677Y456348D01*
X664626Y456477D01*
X664579Y456608D01*
X664568Y456625D01*
X664560Y456643D01*
X664479Y456756D01*
X664401Y456871D01*
X664385Y456884D01*
X664374Y456901D01*
X664266Y456989D01*
X664162Y457081D01*
X664144Y457091D01*
X664129Y457104D01*
X664003Y457163D01*
X663879Y457226D01*
X663859Y457230D01*
X663841Y457239D01*
X663705Y457265D01*
X663569Y457296D01*
X663548Y457295D01*
X663529Y457299D01*
X663390Y457290D01*
X663251Y457286D01*
X663231Y457280D01*
X663211Y457279D01*
X663079Y457236D01*
X662945Y457198D01*
X662928Y457187D01*
X662909Y457181D01*
X662791Y457107D01*
X662671Y457036D01*
X662650Y457017D01*
X662640Y457011D01*
X662626Y456996D01*
X662550Y456930D01*
X662440Y456819D01*
X660292Y455929D01*
X657968Y455929D01*
X655820Y456819D01*
X654177Y458462D01*
X653287Y460610D01*
X653287Y462934D01*
X654213Y465170D01*
X654229Y465190D01*
X654276Y465299D01*
X654330Y465406D01*
X654339Y465445D01*
X654355Y465482D01*
X654374Y465600D01*
X654400Y465716D01*
X654398Y465756D01*
X654405Y465796D01*
X654394Y465915D01*
X654390Y466034D01*
X654379Y466072D01*
X654375Y466112D01*
X654335Y466225D01*
X654301Y466339D01*
X654281Y466374D01*
X654267Y466412D01*
X654225Y466474D01*
X653287Y468738D01*
X653287Y471062D01*
X654177Y473210D01*
X655820Y474853D01*
X657968Y475743D01*
X660292Y475743D01*
X662440Y474853D01*
X664083Y473210D01*
X664973Y471062D01*
X664973Y468738D01*
X664047Y466502D01*
X664032Y466483D01*
X663984Y466373D01*
X663930Y466267D01*
X663921Y466228D01*
X663905Y466191D01*
X663886Y466073D01*
X663860Y465957D01*
X663862Y465917D01*
X663855Y465877D01*
X663866Y465758D01*
X663870Y465639D01*
X663881Y465600D01*
X663885Y465560D01*
X663925Y465448D01*
X663958Y465333D01*
X663979Y465299D01*
X663992Y465261D01*
X664035Y465198D01*
X664974Y462932D01*
X664990Y462802D01*
X665003Y462663D01*
X665010Y462644D01*
X665013Y462624D01*
X665064Y462495D01*
X665111Y462364D01*
X665122Y462347D01*
X665130Y462329D01*
X665211Y462216D01*
X665289Y462101D01*
X665305Y462088D01*
X665316Y462071D01*
X665424Y461983D01*
X665528Y461891D01*
X665546Y461881D01*
X665561Y461868D01*
X665687Y461809D01*
X665811Y461746D01*
X665831Y461742D01*
X665849Y461733D01*
X665985Y461707D01*
X666121Y461676D01*
X666142Y461677D01*
X666161Y461673D01*
X666300Y461682D01*
X666439Y461686D01*
X666459Y461692D01*
X666479Y461693D01*
X666611Y461736D01*
X666745Y461774D01*
X666762Y461785D01*
X666781Y461791D01*
X666899Y461865D01*
X667019Y461936D01*
X667040Y461955D01*
X667050Y461961D01*
X667064Y461976D01*
X667140Y462042D01*
X667250Y462153D01*
X669398Y463043D01*
X671722Y463043D01*
X673870Y462153D01*
X675513Y460510D01*
X676403Y458362D01*
X676403Y456038D01*
X675513Y453890D01*
X673870Y452247D01*
X671722Y451357D01*
X669398Y451357D01*
G37*
%LPD*%
%LPC*%
G36*
X616058Y553258D02*
X616058Y553258D01*
X613910Y554148D01*
X612267Y555791D01*
X611377Y557939D01*
X611377Y560263D01*
X612267Y562411D01*
X613910Y564054D01*
X616058Y564944D01*
X618382Y564944D01*
X619868Y564328D01*
X619982Y564297D01*
X620095Y564258D01*
X620136Y564255D01*
X620175Y564244D01*
X620293Y564243D01*
X620412Y564233D01*
X620452Y564240D01*
X620492Y564239D01*
X620608Y564267D01*
X620726Y564288D01*
X620762Y564304D01*
X620802Y564314D01*
X620907Y564369D01*
X621016Y564418D01*
X621047Y564443D01*
X621083Y564462D01*
X621171Y564542D01*
X621264Y564617D01*
X621288Y564649D01*
X621318Y564676D01*
X621384Y564776D01*
X621455Y564871D01*
X621482Y564925D01*
X621493Y564942D01*
X621500Y564961D01*
X621526Y565015D01*
X622427Y567190D01*
X624070Y568833D01*
X626218Y569723D01*
X628542Y569723D01*
X630704Y568827D01*
X630800Y568801D01*
X630892Y568766D01*
X630953Y568759D01*
X631011Y568743D01*
X631110Y568742D01*
X631208Y568731D01*
X631268Y568739D01*
X631329Y568738D01*
X631425Y568761D01*
X631523Y568775D01*
X631618Y568808D01*
X631638Y568812D01*
X631649Y568818D01*
X631676Y568827D01*
X633838Y569723D01*
X636162Y569723D01*
X638310Y568833D01*
X639953Y567190D01*
X640843Y565042D01*
X640843Y562718D01*
X639953Y560570D01*
X638310Y558927D01*
X636162Y558037D01*
X633838Y558037D01*
X631676Y558933D01*
X631580Y558959D01*
X631488Y558994D01*
X631427Y559001D01*
X631369Y559017D01*
X631270Y559018D01*
X631172Y559029D01*
X631112Y559021D01*
X631051Y559022D01*
X630955Y558999D01*
X630857Y558985D01*
X630762Y558952D01*
X630742Y558948D01*
X630731Y558942D01*
X630704Y558933D01*
X628542Y558037D01*
X626218Y558037D01*
X624732Y558653D01*
X624618Y558684D01*
X624505Y558723D01*
X624464Y558726D01*
X624425Y558737D01*
X624307Y558738D01*
X624188Y558748D01*
X624148Y558741D01*
X624108Y558742D01*
X623992Y558714D01*
X623874Y558693D01*
X623838Y558677D01*
X623798Y558667D01*
X623693Y558612D01*
X623584Y558563D01*
X623553Y558538D01*
X623517Y558519D01*
X623429Y558439D01*
X623336Y558364D01*
X623312Y558332D01*
X623282Y558305D01*
X623216Y558205D01*
X623145Y558110D01*
X623118Y558056D01*
X623107Y558039D01*
X623100Y558020D01*
X623074Y557966D01*
X622173Y555791D01*
X620530Y554148D01*
X618382Y553258D01*
X616058Y553258D01*
G37*
%LPD*%
%LPC*%
G36*
X698608Y381507D02*
X698608Y381507D01*
X696460Y382397D01*
X694817Y384040D01*
X693927Y386188D01*
X693927Y388512D01*
X694817Y390660D01*
X696494Y392337D01*
X696610Y392398D01*
X696625Y392412D01*
X696643Y392422D01*
X696742Y392518D01*
X696845Y392612D01*
X696857Y392629D01*
X696871Y392643D01*
X696944Y392762D01*
X697020Y392878D01*
X697027Y392897D01*
X697037Y392914D01*
X697078Y393047D01*
X697123Y393179D01*
X697125Y393199D01*
X697131Y393218D01*
X697138Y393357D01*
X697149Y393496D01*
X697145Y393516D01*
X697146Y393536D01*
X697118Y393672D01*
X697094Y393809D01*
X697086Y393828D01*
X697082Y393847D01*
X697021Y393972D01*
X696964Y394099D01*
X696951Y394115D01*
X696942Y394133D01*
X696852Y394239D01*
X696765Y394347D01*
X696749Y394360D01*
X696736Y394375D01*
X696622Y394455D01*
X696511Y394539D01*
X696486Y394551D01*
X696476Y394558D01*
X696457Y394565D01*
X696366Y394610D01*
X695190Y395097D01*
X693547Y396740D01*
X692657Y398888D01*
X692657Y401212D01*
X693547Y403360D01*
X695190Y405003D01*
X697338Y405893D01*
X699662Y405893D01*
X701810Y405003D01*
X703453Y403360D01*
X704343Y401212D01*
X704343Y398888D01*
X703453Y396740D01*
X701776Y395063D01*
X701660Y395002D01*
X701645Y394988D01*
X701627Y394978D01*
X701528Y394882D01*
X701425Y394788D01*
X701413Y394771D01*
X701399Y394757D01*
X701326Y394638D01*
X701250Y394522D01*
X701243Y394503D01*
X701233Y394486D01*
X701192Y394353D01*
X701147Y394221D01*
X701145Y394201D01*
X701139Y394182D01*
X701132Y394043D01*
X701121Y393904D01*
X701125Y393884D01*
X701124Y393864D01*
X701152Y393728D01*
X701176Y393591D01*
X701184Y393572D01*
X701188Y393553D01*
X701249Y393428D01*
X701306Y393301D01*
X701319Y393285D01*
X701328Y393267D01*
X701418Y393161D01*
X701505Y393053D01*
X701521Y393040D01*
X701534Y393025D01*
X701648Y392945D01*
X701759Y392861D01*
X701784Y392849D01*
X701794Y392842D01*
X701813Y392835D01*
X701904Y392790D01*
X703080Y392303D01*
X704723Y390660D01*
X705613Y388512D01*
X705613Y386188D01*
X704723Y384040D01*
X703080Y382397D01*
X700932Y381507D01*
X698608Y381507D01*
G37*
%LPD*%
%LPC*%
G36*
X163938Y301497D02*
X163938Y301497D01*
X161790Y302387D01*
X160147Y304030D01*
X159257Y306178D01*
X159257Y308502D01*
X160147Y310650D01*
X161790Y312293D01*
X163938Y313183D01*
X166262Y313183D01*
X168410Y312293D01*
X168520Y312182D01*
X168630Y312097D01*
X168737Y312008D01*
X168756Y312000D01*
X168772Y311987D01*
X168900Y311932D01*
X169025Y311873D01*
X169045Y311869D01*
X169064Y311861D01*
X169201Y311839D01*
X169338Y311813D01*
X169358Y311814D01*
X169378Y311811D01*
X169516Y311824D01*
X169655Y311833D01*
X169674Y311839D01*
X169694Y311841D01*
X169825Y311888D01*
X169957Y311931D01*
X169975Y311942D01*
X169994Y311949D01*
X170109Y312027D01*
X170226Y312101D01*
X170240Y312116D01*
X170257Y312127D01*
X170349Y312231D01*
X170444Y312333D01*
X170454Y312350D01*
X170467Y312366D01*
X170531Y312490D01*
X170598Y312611D01*
X170603Y312631D01*
X170612Y312649D01*
X170642Y312785D01*
X170677Y312919D01*
X170679Y312947D01*
X170682Y312959D01*
X170681Y312980D01*
X170687Y313080D01*
X170687Y314852D01*
X171577Y317000D01*
X173220Y318643D01*
X175368Y319533D01*
X177692Y319533D01*
X179840Y318643D01*
X181483Y317000D01*
X182373Y314852D01*
X182373Y312528D01*
X181483Y310380D01*
X179840Y308737D01*
X177692Y307847D01*
X175368Y307847D01*
X173220Y308737D01*
X173110Y308848D01*
X173000Y308933D01*
X172893Y309022D01*
X172874Y309030D01*
X172858Y309043D01*
X172730Y309098D01*
X172605Y309157D01*
X172585Y309161D01*
X172566Y309169D01*
X172429Y309191D01*
X172292Y309217D01*
X172272Y309216D01*
X172252Y309219D01*
X172114Y309206D01*
X171975Y309197D01*
X171956Y309191D01*
X171936Y309189D01*
X171805Y309142D01*
X171673Y309099D01*
X171655Y309088D01*
X171636Y309081D01*
X171521Y309003D01*
X171404Y308929D01*
X171390Y308914D01*
X171373Y308903D01*
X171281Y308799D01*
X171186Y308697D01*
X171176Y308680D01*
X171163Y308664D01*
X171099Y308540D01*
X171032Y308419D01*
X171027Y308399D01*
X171018Y308381D01*
X170988Y308245D01*
X170953Y308111D01*
X170951Y308083D01*
X170948Y308071D01*
X170949Y308050D01*
X170943Y307950D01*
X170943Y306178D01*
X170053Y304030D01*
X168410Y302387D01*
X166262Y301497D01*
X163938Y301497D01*
G37*
%LPD*%
%LPC*%
G36*
X569068Y337057D02*
X569068Y337057D01*
X566920Y337947D01*
X565277Y339590D01*
X564387Y341738D01*
X564387Y344062D01*
X565277Y346210D01*
X566920Y347853D01*
X569068Y348743D01*
X571415Y348743D01*
X571464Y348749D01*
X571513Y348747D01*
X571621Y348769D01*
X571730Y348783D01*
X571776Y348801D01*
X571825Y348811D01*
X571924Y348859D01*
X572026Y348900D01*
X572066Y348929D01*
X572111Y348951D01*
X572194Y349022D01*
X572283Y349086D01*
X572315Y349125D01*
X572353Y349157D01*
X572416Y349247D01*
X572486Y349331D01*
X572507Y349376D01*
X572536Y349417D01*
X572575Y349520D01*
X572621Y349619D01*
X572631Y349668D01*
X572648Y349714D01*
X572661Y349824D01*
X572681Y349931D01*
X572678Y349981D01*
X572684Y350030D01*
X572668Y350139D01*
X572662Y350249D01*
X572646Y350296D01*
X572639Y350345D01*
X572587Y350498D01*
X572007Y351898D01*
X572007Y354222D01*
X572897Y356370D01*
X574540Y358013D01*
X576688Y358903D01*
X579012Y358903D01*
X581160Y358013D01*
X582803Y356370D01*
X583693Y354222D01*
X583693Y351898D01*
X582803Y349750D01*
X581160Y348107D01*
X579012Y347217D01*
X576665Y347217D01*
X576616Y347211D01*
X576567Y347213D01*
X576459Y347191D01*
X576350Y347177D01*
X576304Y347159D01*
X576255Y347149D01*
X576156Y347101D01*
X576054Y347060D01*
X576014Y347031D01*
X575969Y347009D01*
X575886Y346938D01*
X575797Y346874D01*
X575765Y346835D01*
X575727Y346803D01*
X575664Y346713D01*
X575594Y346629D01*
X575573Y346584D01*
X575544Y346543D01*
X575505Y346440D01*
X575459Y346341D01*
X575449Y346292D01*
X575432Y346246D01*
X575419Y346136D01*
X575399Y346029D01*
X575402Y345979D01*
X575396Y345930D01*
X575412Y345821D01*
X575418Y345711D01*
X575434Y345664D01*
X575441Y345615D01*
X575493Y345462D01*
X576073Y344062D01*
X576073Y341738D01*
X575183Y339590D01*
X573540Y337947D01*
X571392Y337057D01*
X569068Y337057D01*
G37*
%LPD*%
%LPC*%
G36*
X424288Y451357D02*
X424288Y451357D01*
X422140Y452247D01*
X420497Y453890D01*
X419607Y456038D01*
X419607Y458362D01*
X420497Y460510D01*
X422140Y462153D01*
X424288Y463043D01*
X426612Y463043D01*
X428760Y462153D01*
X430403Y460510D01*
X430627Y459969D01*
X430696Y459848D01*
X430761Y459725D01*
X430775Y459710D01*
X430785Y459692D01*
X430881Y459593D01*
X430975Y459490D01*
X430992Y459478D01*
X431006Y459464D01*
X431124Y459391D01*
X431241Y459315D01*
X431260Y459308D01*
X431277Y459298D01*
X431410Y459257D01*
X431542Y459212D01*
X431562Y459210D01*
X431581Y459204D01*
X431720Y459197D01*
X431859Y459186D01*
X431879Y459190D01*
X431899Y459189D01*
X432035Y459217D01*
X432172Y459241D01*
X432190Y459249D01*
X432210Y459253D01*
X432335Y459314D01*
X432462Y459371D01*
X432478Y459384D01*
X432496Y459393D01*
X432602Y459483D01*
X432710Y459570D01*
X432723Y459586D01*
X432738Y459599D01*
X432818Y459713D01*
X432902Y459824D01*
X432914Y459849D01*
X432921Y459859D01*
X432928Y459878D01*
X432973Y459969D01*
X433197Y460510D01*
X434840Y462153D01*
X436988Y463043D01*
X439312Y463043D01*
X441460Y462153D01*
X443103Y460510D01*
X443993Y458362D01*
X443993Y456038D01*
X443103Y453890D01*
X441460Y452247D01*
X439312Y451357D01*
X436988Y451357D01*
X434840Y452247D01*
X433197Y453890D01*
X432973Y454431D01*
X432904Y454552D01*
X432839Y454675D01*
X432825Y454690D01*
X432815Y454708D01*
X432718Y454808D01*
X432625Y454910D01*
X432608Y454922D01*
X432594Y454936D01*
X432475Y455009D01*
X432359Y455085D01*
X432340Y455092D01*
X432323Y455102D01*
X432190Y455143D01*
X432058Y455188D01*
X432038Y455190D01*
X432019Y455196D01*
X431880Y455203D01*
X431741Y455214D01*
X431721Y455210D01*
X431701Y455211D01*
X431565Y455183D01*
X431428Y455159D01*
X431409Y455151D01*
X431390Y455147D01*
X431265Y455086D01*
X431138Y455029D01*
X431122Y455016D01*
X431104Y455007D01*
X430998Y454917D01*
X430890Y454830D01*
X430877Y454814D01*
X430862Y454801D01*
X430782Y454687D01*
X430698Y454576D01*
X430686Y454551D01*
X430679Y454541D01*
X430672Y454522D01*
X430627Y454431D01*
X430403Y453890D01*
X428760Y452247D01*
X426612Y451357D01*
X424288Y451357D01*
G37*
%LPD*%
%LPC*%
G36*
X268078Y241807D02*
X268078Y241807D01*
X265930Y242697D01*
X264287Y244340D01*
X263397Y246488D01*
X263397Y248812D01*
X264287Y250960D01*
X265930Y252603D01*
X266471Y252827D01*
X266592Y252896D01*
X266715Y252961D01*
X266730Y252975D01*
X266748Y252985D01*
X266848Y253082D01*
X266950Y253175D01*
X266962Y253192D01*
X266976Y253206D01*
X267049Y253325D01*
X267125Y253441D01*
X267132Y253460D01*
X267142Y253477D01*
X267183Y253610D01*
X267228Y253742D01*
X267230Y253762D01*
X267236Y253781D01*
X267243Y253920D01*
X267254Y254059D01*
X267250Y254079D01*
X267251Y254099D01*
X267223Y254235D01*
X267199Y254372D01*
X267191Y254391D01*
X267187Y254410D01*
X267126Y254535D01*
X267069Y254662D01*
X267056Y254678D01*
X267047Y254696D01*
X266957Y254802D01*
X266870Y254910D01*
X266854Y254923D01*
X266841Y254938D01*
X266727Y255018D01*
X266616Y255102D01*
X266591Y255114D01*
X266581Y255121D01*
X266562Y255128D01*
X266471Y255173D01*
X265930Y255397D01*
X264287Y257040D01*
X263397Y259188D01*
X263397Y261512D01*
X264287Y263660D01*
X265930Y265303D01*
X268078Y266193D01*
X270402Y266193D01*
X272550Y265303D01*
X274193Y263660D01*
X275083Y261512D01*
X275083Y259188D01*
X274193Y257040D01*
X272550Y255397D01*
X272009Y255173D01*
X271888Y255104D01*
X271765Y255039D01*
X271750Y255025D01*
X271732Y255015D01*
X271632Y254918D01*
X271529Y254825D01*
X271518Y254808D01*
X271504Y254794D01*
X271431Y254675D01*
X271355Y254559D01*
X271348Y254540D01*
X271338Y254523D01*
X271297Y254390D01*
X271252Y254258D01*
X271250Y254238D01*
X271244Y254219D01*
X271237Y254080D01*
X271226Y253941D01*
X271230Y253921D01*
X271229Y253901D01*
X271257Y253765D01*
X271281Y253628D01*
X271289Y253610D01*
X271293Y253590D01*
X271355Y253464D01*
X271411Y253338D01*
X271424Y253322D01*
X271433Y253304D01*
X271523Y253198D01*
X271610Y253089D01*
X271626Y253077D01*
X271639Y253062D01*
X271753Y252982D01*
X271864Y252898D01*
X271889Y252886D01*
X271899Y252879D01*
X271918Y252872D01*
X272009Y252827D01*
X272550Y252603D01*
X274193Y250960D01*
X275083Y248812D01*
X275083Y246488D01*
X274193Y244340D01*
X272550Y242697D01*
X270402Y241807D01*
X268078Y241807D01*
G37*
%LPD*%
%LPC*%
G36*
X558345Y283154D02*
X558345Y283154D01*
X556197Y284044D01*
X554554Y285687D01*
X553664Y287835D01*
X553664Y290159D01*
X554554Y292307D01*
X556197Y293950D01*
X558345Y294840D01*
X560669Y294840D01*
X562017Y294281D01*
X562151Y294245D01*
X562284Y294204D01*
X562305Y294203D01*
X562324Y294197D01*
X562464Y294195D01*
X562602Y294188D01*
X562622Y294193D01*
X562642Y294192D01*
X562778Y294225D01*
X562913Y294253D01*
X562932Y294262D01*
X562951Y294266D01*
X563075Y294332D01*
X563199Y294392D01*
X563215Y294406D01*
X563232Y294415D01*
X563336Y294509D01*
X563441Y294599D01*
X563453Y294615D01*
X563468Y294629D01*
X563544Y294745D01*
X563624Y294859D01*
X563631Y294878D01*
X563643Y294895D01*
X563688Y295026D01*
X563737Y295156D01*
X563739Y295176D01*
X563746Y295196D01*
X563757Y295334D01*
X563772Y295472D01*
X563769Y295492D01*
X563771Y295513D01*
X563747Y295650D01*
X563728Y295787D01*
X563719Y295814D01*
X563717Y295826D01*
X563708Y295844D01*
X563676Y295940D01*
X563117Y297288D01*
X563117Y299612D01*
X564007Y301760D01*
X565650Y303403D01*
X567798Y304293D01*
X570122Y304293D01*
X572270Y303403D01*
X573913Y301760D01*
X574803Y299612D01*
X574803Y297288D01*
X573913Y295140D01*
X572270Y293497D01*
X570122Y292607D01*
X567798Y292607D01*
X566450Y293166D01*
X566315Y293202D01*
X566183Y293243D01*
X566162Y293244D01*
X566143Y293250D01*
X566003Y293252D01*
X565865Y293258D01*
X565845Y293254D01*
X565825Y293255D01*
X565689Y293222D01*
X565553Y293194D01*
X565535Y293185D01*
X565516Y293181D01*
X565392Y293115D01*
X565268Y293054D01*
X565252Y293041D01*
X565234Y293032D01*
X565131Y292938D01*
X565026Y292848D01*
X565014Y292832D01*
X564999Y292818D01*
X564923Y292702D01*
X564843Y292588D01*
X564836Y292569D01*
X564824Y292552D01*
X564779Y292420D01*
X564730Y292291D01*
X564728Y292271D01*
X564721Y292251D01*
X564710Y292113D01*
X564695Y291975D01*
X564698Y291955D01*
X564696Y291934D01*
X564720Y291797D01*
X564739Y291660D01*
X564748Y291633D01*
X564750Y291621D01*
X564759Y291602D01*
X564791Y291507D01*
X565350Y290159D01*
X565350Y287835D01*
X564460Y285687D01*
X562817Y284044D01*
X560669Y283154D01*
X558345Y283154D01*
G37*
%LPD*%
%LPC*%
G36*
X163938Y136397D02*
X163938Y136397D01*
X161790Y137287D01*
X160147Y138930D01*
X159257Y141078D01*
X159257Y143402D01*
X160147Y145550D01*
X161790Y147193D01*
X163938Y148083D01*
X166262Y148083D01*
X168410Y147193D01*
X169791Y145812D01*
X169900Y145727D01*
X170007Y145638D01*
X170026Y145630D01*
X170042Y145617D01*
X170170Y145562D01*
X170295Y145503D01*
X170315Y145499D01*
X170334Y145491D01*
X170472Y145469D01*
X170608Y145443D01*
X170628Y145444D01*
X170648Y145441D01*
X170787Y145454D01*
X170925Y145463D01*
X170944Y145469D01*
X170964Y145471D01*
X171096Y145518D01*
X171227Y145561D01*
X171245Y145572D01*
X171264Y145579D01*
X171379Y145657D01*
X171496Y145731D01*
X171510Y145746D01*
X171527Y145757D01*
X171619Y145861D01*
X171714Y145963D01*
X171724Y145980D01*
X171737Y145996D01*
X171801Y146120D01*
X171868Y146241D01*
X171873Y146261D01*
X171882Y146279D01*
X171912Y146415D01*
X171947Y146549D01*
X171949Y146577D01*
X171952Y146589D01*
X171951Y146610D01*
X171957Y146710D01*
X171957Y148482D01*
X172847Y150630D01*
X174490Y152273D01*
X176638Y153163D01*
X178962Y153163D01*
X181110Y152273D01*
X182753Y150630D01*
X183643Y148482D01*
X183643Y146158D01*
X182753Y144010D01*
X181110Y142367D01*
X178962Y141477D01*
X176638Y141477D01*
X174490Y142367D01*
X173109Y143748D01*
X173000Y143833D01*
X172893Y143922D01*
X172874Y143930D01*
X172858Y143943D01*
X172730Y143998D01*
X172605Y144057D01*
X172585Y144061D01*
X172566Y144069D01*
X172428Y144091D01*
X172292Y144117D01*
X172272Y144116D01*
X172252Y144119D01*
X172113Y144106D01*
X171975Y144097D01*
X171956Y144091D01*
X171936Y144089D01*
X171804Y144042D01*
X171673Y143999D01*
X171655Y143988D01*
X171636Y143981D01*
X171521Y143903D01*
X171404Y143829D01*
X171390Y143814D01*
X171373Y143803D01*
X171281Y143699D01*
X171186Y143597D01*
X171176Y143580D01*
X171163Y143564D01*
X171099Y143440D01*
X171032Y143319D01*
X171027Y143299D01*
X171018Y143281D01*
X170988Y143145D01*
X170953Y143011D01*
X170951Y142983D01*
X170948Y142971D01*
X170949Y142950D01*
X170943Y142850D01*
X170943Y141078D01*
X170053Y138930D01*
X168410Y137287D01*
X166262Y136397D01*
X163938Y136397D01*
G37*
%LPD*%
%LPC*%
G36*
X94088Y250697D02*
X94088Y250697D01*
X91940Y251587D01*
X90297Y253230D01*
X89407Y255378D01*
X89407Y257702D01*
X90297Y259850D01*
X91940Y261493D01*
X94088Y262383D01*
X96412Y262383D01*
X98560Y261493D01*
X99941Y260112D01*
X100050Y260027D01*
X100157Y259938D01*
X100176Y259930D01*
X100192Y259917D01*
X100320Y259862D01*
X100445Y259803D01*
X100465Y259799D01*
X100484Y259791D01*
X100622Y259769D01*
X100758Y259743D01*
X100778Y259744D01*
X100798Y259741D01*
X100937Y259754D01*
X101075Y259763D01*
X101094Y259769D01*
X101114Y259771D01*
X101246Y259818D01*
X101377Y259861D01*
X101395Y259872D01*
X101414Y259879D01*
X101529Y259957D01*
X101646Y260031D01*
X101660Y260046D01*
X101677Y260057D01*
X101769Y260161D01*
X101864Y260263D01*
X101874Y260280D01*
X101887Y260296D01*
X101951Y260420D01*
X102018Y260541D01*
X102023Y260561D01*
X102032Y260579D01*
X102062Y260715D01*
X102097Y260849D01*
X102099Y260877D01*
X102102Y260889D01*
X102101Y260910D01*
X102107Y261010D01*
X102107Y262782D01*
X102997Y264930D01*
X104640Y266573D01*
X106788Y267463D01*
X109112Y267463D01*
X111260Y266573D01*
X112903Y264930D01*
X113793Y262782D01*
X113793Y260458D01*
X112903Y258310D01*
X111260Y256667D01*
X109112Y255777D01*
X106788Y255777D01*
X104640Y256667D01*
X103259Y258048D01*
X103150Y258133D01*
X103043Y258222D01*
X103024Y258230D01*
X103008Y258243D01*
X102880Y258298D01*
X102755Y258357D01*
X102735Y258361D01*
X102716Y258369D01*
X102578Y258391D01*
X102442Y258417D01*
X102422Y258416D01*
X102402Y258419D01*
X102263Y258406D01*
X102125Y258397D01*
X102106Y258391D01*
X102086Y258389D01*
X101954Y258342D01*
X101823Y258299D01*
X101805Y258288D01*
X101786Y258281D01*
X101671Y258203D01*
X101554Y258129D01*
X101540Y258114D01*
X101523Y258103D01*
X101431Y257999D01*
X101336Y257897D01*
X101326Y257880D01*
X101313Y257864D01*
X101249Y257740D01*
X101182Y257619D01*
X101177Y257599D01*
X101168Y257581D01*
X101138Y257445D01*
X101103Y257311D01*
X101101Y257283D01*
X101098Y257271D01*
X101099Y257250D01*
X101093Y257150D01*
X101093Y255378D01*
X100203Y253230D01*
X98560Y251587D01*
X96412Y250697D01*
X94088Y250697D01*
G37*
%LPD*%
%LPC*%
G36*
X275938Y535177D02*
X275938Y535177D01*
X273790Y536067D01*
X272147Y537710D01*
X271257Y539858D01*
X271257Y542182D01*
X272147Y544330D01*
X273790Y545973D01*
X275938Y546863D01*
X278262Y546863D01*
X279422Y546382D01*
X279470Y546369D01*
X279515Y546348D01*
X279623Y546327D01*
X279729Y546298D01*
X279779Y546297D01*
X279828Y546288D01*
X279937Y546295D01*
X280047Y546293D01*
X280095Y546305D01*
X280145Y546308D01*
X280249Y546342D01*
X280356Y546367D01*
X280400Y546391D01*
X280447Y546406D01*
X280540Y546465D01*
X280637Y546516D01*
X280674Y546549D01*
X280716Y546576D01*
X280791Y546656D01*
X280873Y546730D01*
X280900Y546771D01*
X280934Y546808D01*
X280987Y546904D01*
X281047Y546996D01*
X281064Y547043D01*
X281088Y547086D01*
X281115Y547192D01*
X281151Y547297D01*
X281155Y547346D01*
X281167Y547394D01*
X281177Y547555D01*
X281177Y548532D01*
X282067Y550680D01*
X283710Y552323D01*
X285858Y553213D01*
X288182Y553213D01*
X290330Y552323D01*
X291973Y550680D01*
X292863Y548532D01*
X292863Y546208D01*
X291973Y544060D01*
X290330Y542417D01*
X288182Y541527D01*
X285858Y541527D01*
X284698Y542008D01*
X284650Y542021D01*
X284605Y542042D01*
X284497Y542063D01*
X284391Y542092D01*
X284341Y542093D01*
X284292Y542102D01*
X284183Y542095D01*
X284073Y542097D01*
X284025Y542085D01*
X283975Y542082D01*
X283871Y542048D01*
X283764Y542023D01*
X283720Y541999D01*
X283673Y541984D01*
X283580Y541925D01*
X283483Y541874D01*
X283446Y541841D01*
X283404Y541814D01*
X283329Y541734D01*
X283247Y541660D01*
X283220Y541619D01*
X283186Y541582D01*
X283133Y541486D01*
X283073Y541394D01*
X283056Y541347D01*
X283032Y541304D01*
X283005Y541198D01*
X282969Y541093D01*
X282965Y541044D01*
X282953Y540996D01*
X282943Y540835D01*
X282943Y539858D01*
X282053Y537710D01*
X280410Y536067D01*
X278262Y535177D01*
X275938Y535177D01*
G37*
%LPD*%
%LPC*%
G36*
X468738Y76707D02*
X468738Y76707D01*
X466590Y77597D01*
X464947Y79240D01*
X464057Y81388D01*
X464057Y83712D01*
X464947Y85860D01*
X466455Y87368D01*
X466528Y87462D01*
X466606Y87551D01*
X466625Y87587D01*
X466650Y87619D01*
X466697Y87728D01*
X466751Y87834D01*
X466760Y87873D01*
X466776Y87911D01*
X466795Y88028D01*
X466821Y88144D01*
X466819Y88185D01*
X466826Y88225D01*
X466815Y88343D01*
X466811Y88462D01*
X466800Y88501D01*
X466796Y88541D01*
X466756Y88653D01*
X466723Y88768D01*
X466702Y88803D01*
X466688Y88841D01*
X466621Y88939D01*
X466561Y89042D01*
X466521Y89087D01*
X466510Y89104D01*
X466494Y89117D01*
X466455Y89163D01*
X464947Y90670D01*
X464057Y92818D01*
X464057Y95142D01*
X464947Y97290D01*
X466590Y98933D01*
X468738Y99823D01*
X471062Y99823D01*
X473210Y98933D01*
X474853Y97290D01*
X475743Y95142D01*
X475743Y92818D01*
X474853Y90670D01*
X473345Y89163D01*
X473272Y89068D01*
X473194Y88979D01*
X473175Y88943D01*
X473150Y88911D01*
X473103Y88802D01*
X473049Y88696D01*
X473040Y88657D01*
X473024Y88619D01*
X473005Y88502D01*
X472979Y88386D01*
X472981Y88345D01*
X472974Y88305D01*
X472985Y88187D01*
X472989Y88068D01*
X473000Y88029D01*
X473004Y87989D01*
X473044Y87876D01*
X473077Y87762D01*
X473098Y87728D01*
X473112Y87689D01*
X473178Y87591D01*
X473239Y87488D01*
X473279Y87443D01*
X473290Y87426D01*
X473305Y87413D01*
X473345Y87368D01*
X474853Y85860D01*
X475743Y83712D01*
X475743Y81388D01*
X474853Y79240D01*
X473210Y77597D01*
X471062Y76707D01*
X468738Y76707D01*
G37*
%LPD*%
%LPC*%
G36*
X144888Y257047D02*
X144888Y257047D01*
X142740Y257937D01*
X141097Y259580D01*
X140207Y261728D01*
X140207Y264052D01*
X141097Y266200D01*
X142605Y267708D01*
X142678Y267802D01*
X142756Y267891D01*
X142775Y267927D01*
X142800Y267959D01*
X142847Y268068D01*
X142901Y268174D01*
X142910Y268213D01*
X142926Y268251D01*
X142945Y268368D01*
X142971Y268484D01*
X142969Y268525D01*
X142976Y268565D01*
X142965Y268683D01*
X142961Y268802D01*
X142950Y268841D01*
X142946Y268881D01*
X142906Y268993D01*
X142873Y269108D01*
X142852Y269143D01*
X142838Y269181D01*
X142771Y269279D01*
X142711Y269382D01*
X142671Y269427D01*
X142660Y269444D01*
X142644Y269457D01*
X142605Y269503D01*
X141097Y271010D01*
X140207Y273158D01*
X140207Y275482D01*
X141097Y277630D01*
X142740Y279273D01*
X144888Y280163D01*
X147212Y280163D01*
X149360Y279273D01*
X151003Y277630D01*
X151893Y275482D01*
X151893Y273158D01*
X151003Y271010D01*
X149495Y269503D01*
X149422Y269408D01*
X149344Y269319D01*
X149325Y269283D01*
X149300Y269251D01*
X149253Y269142D01*
X149199Y269036D01*
X149190Y268997D01*
X149174Y268959D01*
X149155Y268842D01*
X149129Y268726D01*
X149131Y268685D01*
X149124Y268645D01*
X149135Y268527D01*
X149139Y268408D01*
X149150Y268369D01*
X149154Y268329D01*
X149194Y268216D01*
X149227Y268102D01*
X149248Y268068D01*
X149262Y268029D01*
X149328Y267931D01*
X149389Y267828D01*
X149429Y267783D01*
X149440Y267766D01*
X149455Y267753D01*
X149495Y267708D01*
X151003Y266200D01*
X151893Y264052D01*
X151893Y261728D01*
X151003Y259580D01*
X149360Y257937D01*
X147212Y257047D01*
X144888Y257047D01*
G37*
%LPD*%
%LPC*%
G36*
X566020Y310387D02*
X566020Y310387D01*
X563872Y311277D01*
X562229Y312920D01*
X561339Y315068D01*
X561339Y317392D01*
X561393Y317522D01*
X561406Y317570D01*
X561427Y317615D01*
X561448Y317723D01*
X561477Y317829D01*
X561478Y317879D01*
X561487Y317928D01*
X561480Y318037D01*
X561482Y318147D01*
X561471Y318195D01*
X561467Y318245D01*
X561434Y318349D01*
X561408Y318456D01*
X561385Y318500D01*
X561369Y318547D01*
X561311Y318640D01*
X561259Y318737D01*
X561226Y318774D01*
X561199Y318816D01*
X561119Y318891D01*
X561045Y318973D01*
X561004Y319000D01*
X560968Y319034D01*
X560871Y319087D01*
X560780Y319147D01*
X560733Y319164D01*
X560689Y319188D01*
X560583Y319215D01*
X560479Y319251D01*
X560429Y319255D01*
X560381Y319267D01*
X560221Y319277D01*
X560178Y319277D01*
X558030Y320167D01*
X556387Y321810D01*
X555497Y323958D01*
X555497Y326282D01*
X556387Y328430D01*
X558030Y330073D01*
X560178Y330963D01*
X562502Y330963D01*
X564650Y330073D01*
X566293Y328430D01*
X567183Y326282D01*
X567183Y323958D01*
X567129Y323828D01*
X567116Y323780D01*
X567095Y323735D01*
X567074Y323627D01*
X567045Y323521D01*
X567044Y323471D01*
X567035Y323422D01*
X567042Y323313D01*
X567040Y323203D01*
X567051Y323155D01*
X567055Y323105D01*
X567088Y323001D01*
X567114Y322894D01*
X567137Y322850D01*
X567153Y322803D01*
X567211Y322710D01*
X567263Y322613D01*
X567296Y322576D01*
X567323Y322534D01*
X567403Y322458D01*
X567477Y322377D01*
X567518Y322350D01*
X567554Y322316D01*
X567650Y322263D01*
X567742Y322203D01*
X567789Y322186D01*
X567833Y322162D01*
X567939Y322135D01*
X568043Y322099D01*
X568093Y322095D01*
X568141Y322083D01*
X568301Y322073D01*
X568344Y322073D01*
X570492Y321183D01*
X572135Y319540D01*
X573025Y317392D01*
X573025Y315068D01*
X572135Y312920D01*
X570492Y311277D01*
X568344Y310387D01*
X566020Y310387D01*
G37*
%LPD*%
%LPC*%
G36*
X292208Y253237D02*
X292208Y253237D01*
X290060Y254127D01*
X288417Y255770D01*
X287527Y257918D01*
X287527Y260242D01*
X288417Y262390D01*
X289290Y263262D01*
X289362Y263356D01*
X289441Y263446D01*
X289460Y263482D01*
X289485Y263514D01*
X289532Y263623D01*
X289586Y263729D01*
X289595Y263768D01*
X289611Y263806D01*
X289630Y263923D01*
X289656Y264039D01*
X289654Y264080D01*
X289661Y264120D01*
X289650Y264238D01*
X289646Y264357D01*
X289635Y264396D01*
X289631Y264436D01*
X289591Y264549D01*
X289558Y264663D01*
X289537Y264697D01*
X289523Y264736D01*
X289457Y264834D01*
X289396Y264937D01*
X289356Y264982D01*
X289345Y264999D01*
X289330Y265012D01*
X289290Y265057D01*
X288417Y265930D01*
X287527Y268078D01*
X287527Y270402D01*
X288417Y272550D01*
X290060Y274193D01*
X292208Y275083D01*
X294532Y275083D01*
X296680Y274193D01*
X298323Y272550D01*
X299213Y270402D01*
X299213Y268078D01*
X298323Y265930D01*
X297450Y265057D01*
X297377Y264963D01*
X297299Y264874D01*
X297280Y264838D01*
X297255Y264806D01*
X297208Y264697D01*
X297154Y264591D01*
X297145Y264552D01*
X297129Y264514D01*
X297110Y264397D01*
X297084Y264281D01*
X297086Y264240D01*
X297079Y264200D01*
X297090Y264082D01*
X297094Y263963D01*
X297105Y263924D01*
X297109Y263884D01*
X297149Y263772D01*
X297182Y263657D01*
X297203Y263622D01*
X297217Y263584D01*
X297283Y263486D01*
X297344Y263383D01*
X297384Y263338D01*
X297395Y263321D01*
X297411Y263308D01*
X297450Y263262D01*
X298323Y262390D01*
X299213Y260242D01*
X299213Y257918D01*
X298323Y255770D01*
X296680Y254127D01*
X294532Y253237D01*
X292208Y253237D01*
G37*
%LPD*%
%LPC*%
G36*
X555098Y577087D02*
X555098Y577087D01*
X552950Y577977D01*
X551307Y579620D01*
X550417Y581768D01*
X550417Y582168D01*
X550402Y582286D01*
X550395Y582405D01*
X550382Y582443D01*
X550377Y582484D01*
X550334Y582594D01*
X550297Y582707D01*
X550275Y582742D01*
X550260Y582779D01*
X550191Y582875D01*
X550127Y582976D01*
X550097Y583004D01*
X550074Y583037D01*
X549982Y583113D01*
X549895Y583194D01*
X549860Y583214D01*
X549829Y583239D01*
X549721Y583290D01*
X549617Y583348D01*
X549577Y583358D01*
X549541Y583375D01*
X549424Y583397D01*
X549309Y583427D01*
X549249Y583431D01*
X549229Y583435D01*
X549208Y583433D01*
X549148Y583437D01*
X548748Y583437D01*
X546600Y584327D01*
X544957Y585970D01*
X544067Y588118D01*
X544067Y590442D01*
X544957Y592590D01*
X546600Y594233D01*
X548748Y595123D01*
X551072Y595123D01*
X553220Y594233D01*
X554863Y592590D01*
X555753Y590442D01*
X555753Y590042D01*
X555768Y589924D01*
X555775Y589805D01*
X555788Y589767D01*
X555793Y589726D01*
X555836Y589616D01*
X555873Y589503D01*
X555895Y589468D01*
X555910Y589431D01*
X555979Y589335D01*
X556043Y589234D01*
X556073Y589206D01*
X556096Y589173D01*
X556188Y589097D01*
X556275Y589016D01*
X556310Y588996D01*
X556341Y588971D01*
X556449Y588920D01*
X556553Y588862D01*
X556593Y588852D01*
X556629Y588835D01*
X556746Y588813D01*
X556861Y588783D01*
X556921Y588779D01*
X556941Y588775D01*
X556962Y588777D01*
X557022Y588773D01*
X557422Y588773D01*
X559570Y587883D01*
X561213Y586240D01*
X562103Y584092D01*
X562103Y581768D01*
X561213Y579620D01*
X559570Y577977D01*
X557422Y577087D01*
X555098Y577087D01*
G37*
%LPD*%
%LPC*%
G36*
X363328Y337057D02*
X363328Y337057D01*
X361180Y337947D01*
X359537Y339590D01*
X359332Y340084D01*
X359318Y340109D01*
X359309Y340137D01*
X359239Y340247D01*
X359175Y340360D01*
X359154Y340381D01*
X359139Y340406D01*
X359044Y340495D01*
X358954Y340588D01*
X358928Y340604D01*
X358907Y340624D01*
X358793Y340687D01*
X358682Y340755D01*
X358654Y340763D01*
X358628Y340778D01*
X358503Y340810D01*
X358379Y340848D01*
X358349Y340850D01*
X358320Y340857D01*
X358160Y340867D01*
X355708Y340867D01*
X353560Y341757D01*
X351917Y343400D01*
X351027Y345548D01*
X351027Y347872D01*
X351917Y350020D01*
X353560Y351663D01*
X355708Y352553D01*
X358032Y352553D01*
X360180Y351663D01*
X361823Y350020D01*
X362028Y349526D01*
X362042Y349501D01*
X362051Y349473D01*
X362121Y349363D01*
X362185Y349250D01*
X362206Y349229D01*
X362221Y349204D01*
X362316Y349115D01*
X362406Y349022D01*
X362432Y349006D01*
X362453Y348986D01*
X362567Y348923D01*
X362678Y348855D01*
X362706Y348847D01*
X362732Y348832D01*
X362857Y348800D01*
X362981Y348762D01*
X363011Y348760D01*
X363040Y348753D01*
X363200Y348743D01*
X365652Y348743D01*
X367800Y347853D01*
X369443Y346210D01*
X370333Y344062D01*
X370333Y341738D01*
X369443Y339590D01*
X367800Y337947D01*
X365652Y337057D01*
X363328Y337057D01*
G37*
%LPD*%
%LPC*%
G36*
X149968Y121157D02*
X149968Y121157D01*
X147820Y122047D01*
X146177Y123690D01*
X145371Y125635D01*
X145322Y125721D01*
X145282Y125811D01*
X145244Y125858D01*
X145214Y125911D01*
X145145Y125982D01*
X145083Y126059D01*
X145035Y126096D01*
X144993Y126139D01*
X144908Y126191D01*
X144829Y126251D01*
X144739Y126295D01*
X144722Y126305D01*
X144710Y126309D01*
X144685Y126321D01*
X142740Y127127D01*
X141097Y128770D01*
X140207Y130918D01*
X140207Y133242D01*
X141097Y135390D01*
X142740Y137033D01*
X144888Y137923D01*
X147212Y137923D01*
X149360Y137033D01*
X151003Y135390D01*
X151809Y133445D01*
X151858Y133359D01*
X151898Y133269D01*
X151936Y133222D01*
X151966Y133169D01*
X152035Y133098D01*
X152097Y133021D01*
X152145Y132984D01*
X152187Y132941D01*
X152272Y132889D01*
X152351Y132829D01*
X152441Y132785D01*
X152458Y132775D01*
X152470Y132771D01*
X152495Y132759D01*
X154440Y131953D01*
X156083Y130310D01*
X156973Y128162D01*
X156973Y125838D01*
X156083Y123690D01*
X154440Y122047D01*
X152292Y121157D01*
X149968Y121157D01*
G37*
%LPD*%
%LPC*%
G36*
X677018Y573277D02*
X677018Y573277D01*
X674870Y574167D01*
X673227Y575810D01*
X672337Y577958D01*
X672337Y580282D01*
X673227Y582430D01*
X674870Y584073D01*
X677018Y584963D01*
X679342Y584963D01*
X681490Y584073D01*
X683133Y582430D01*
X684023Y580282D01*
X684023Y577958D01*
X683133Y575810D01*
X681423Y574100D01*
X681380Y574045D01*
X681330Y573997D01*
X681283Y573920D01*
X681228Y573849D01*
X681201Y573785D01*
X681164Y573725D01*
X681138Y573640D01*
X681102Y573557D01*
X681091Y573488D01*
X681070Y573422D01*
X681070Y573404D01*
X681041Y573418D01*
X680984Y573458D01*
X680900Y573490D01*
X680820Y573531D01*
X680752Y573546D01*
X680687Y573571D01*
X680598Y573581D01*
X680510Y573601D01*
X680440Y573599D01*
X680371Y573606D01*
X680282Y573594D01*
X680192Y573591D01*
X680125Y573572D01*
X680056Y573562D01*
X679904Y573510D01*
X679342Y573277D01*
X677018Y573277D01*
G37*
%LPD*%
%LPC*%
G36*
X683368Y560577D02*
X683368Y560577D01*
X681220Y561467D01*
X679577Y563110D01*
X678687Y565258D01*
X678687Y567582D01*
X679577Y569730D01*
X681287Y571440D01*
X681330Y571495D01*
X681380Y571543D01*
X681427Y571620D01*
X681482Y571691D01*
X681510Y571755D01*
X681546Y571814D01*
X681572Y571900D01*
X681608Y571983D01*
X681619Y572052D01*
X681640Y572118D01*
X681640Y572136D01*
X681669Y572122D01*
X681726Y572082D01*
X681810Y572050D01*
X681890Y572009D01*
X681958Y571994D01*
X682023Y571969D01*
X682112Y571959D01*
X682200Y571939D01*
X682270Y571941D01*
X682339Y571934D01*
X682428Y571946D01*
X682518Y571949D01*
X682585Y571968D01*
X682654Y571978D01*
X682806Y572030D01*
X683368Y572263D01*
X685692Y572263D01*
X687840Y571373D01*
X689483Y569730D01*
X690373Y567582D01*
X690373Y565258D01*
X689483Y563110D01*
X687840Y561467D01*
X685692Y560577D01*
X683368Y560577D01*
G37*
%LPD*%
%LPC*%
G36*
X398888Y248157D02*
X398888Y248157D01*
X396740Y249047D01*
X395097Y250690D01*
X394207Y252838D01*
X394207Y255162D01*
X395097Y257310D01*
X396740Y258953D01*
X398888Y259843D01*
X401212Y259843D01*
X403360Y258953D01*
X405003Y257310D01*
X405893Y255162D01*
X405893Y252838D01*
X405003Y250690D01*
X403360Y249047D01*
X401212Y248157D01*
X398888Y248157D01*
G37*
%LPD*%
%LPC*%
G36*
X202038Y443737D02*
X202038Y443737D01*
X199890Y444627D01*
X198247Y446270D01*
X197357Y448418D01*
X197357Y450742D01*
X198247Y452890D01*
X199890Y454533D01*
X202038Y455423D01*
X204362Y455423D01*
X206510Y454533D01*
X208153Y452890D01*
X209043Y450742D01*
X209043Y448418D01*
X208153Y446270D01*
X206510Y444627D01*
X204362Y443737D01*
X202038Y443737D01*
G37*
%LPD*%
%LPC*%
G36*
X703688Y438657D02*
X703688Y438657D01*
X701540Y439547D01*
X699897Y441190D01*
X699007Y443338D01*
X699007Y445662D01*
X699897Y447810D01*
X701540Y449453D01*
X703688Y450343D01*
X706012Y450343D01*
X708160Y449453D01*
X709803Y447810D01*
X710693Y445662D01*
X710693Y443338D01*
X709803Y441190D01*
X708160Y439547D01*
X706012Y438657D01*
X703688Y438657D01*
G37*
%LPD*%
%LPC*%
G36*
X71228Y424687D02*
X71228Y424687D01*
X69080Y425577D01*
X67437Y427220D01*
X66547Y429368D01*
X66547Y431692D01*
X67437Y433840D01*
X69080Y435483D01*
X71228Y436373D01*
X73552Y436373D01*
X75700Y435483D01*
X77343Y433840D01*
X78233Y431692D01*
X78233Y429368D01*
X77343Y427220D01*
X75700Y425577D01*
X73552Y424687D01*
X71228Y424687D01*
G37*
%LPD*%
%LPC*%
G36*
X299828Y420877D02*
X299828Y420877D01*
X297680Y421767D01*
X296037Y423410D01*
X295147Y425558D01*
X295147Y427882D01*
X296037Y430030D01*
X297680Y431673D01*
X299828Y432563D01*
X302152Y432563D01*
X304300Y431673D01*
X305943Y430030D01*
X306833Y427882D01*
X306833Y425558D01*
X305943Y423410D01*
X304300Y421767D01*
X302152Y420877D01*
X299828Y420877D01*
G37*
%LPD*%
%LPC*%
G36*
X749408Y411987D02*
X749408Y411987D01*
X747260Y412877D01*
X745617Y414520D01*
X744727Y416668D01*
X744727Y418992D01*
X745617Y421140D01*
X747260Y422783D01*
X749408Y423673D01*
X751732Y423673D01*
X753880Y422783D01*
X755523Y421140D01*
X756413Y418992D01*
X756413Y416668D01*
X755523Y414520D01*
X753880Y412877D01*
X751732Y411987D01*
X749408Y411987D01*
G37*
%LPD*%
%LPC*%
G36*
X398888Y408177D02*
X398888Y408177D01*
X396740Y409067D01*
X395097Y410710D01*
X394207Y412858D01*
X394207Y415182D01*
X395097Y417330D01*
X396740Y418973D01*
X398888Y419863D01*
X401212Y419863D01*
X403360Y418973D01*
X405003Y417330D01*
X405893Y415182D01*
X405893Y412858D01*
X405003Y410710D01*
X403360Y409067D01*
X401212Y408177D01*
X398888Y408177D01*
G37*
%LPD*%
%LPC*%
G36*
X45828Y400557D02*
X45828Y400557D01*
X43680Y401447D01*
X42037Y403090D01*
X41147Y405238D01*
X41147Y407562D01*
X42037Y409710D01*
X43680Y411353D01*
X45828Y412243D01*
X48152Y412243D01*
X50300Y411353D01*
X51943Y409710D01*
X52833Y407562D01*
X52833Y405238D01*
X51943Y403090D01*
X50300Y401447D01*
X48152Y400557D01*
X45828Y400557D01*
G37*
%LPD*%
%LPC*%
G36*
X97898Y400557D02*
X97898Y400557D01*
X95750Y401447D01*
X94107Y403090D01*
X93217Y405238D01*
X93217Y407562D01*
X94107Y409710D01*
X95750Y411353D01*
X97898Y412243D01*
X100222Y412243D01*
X102370Y411353D01*
X104013Y409710D01*
X104903Y407562D01*
X104903Y405238D01*
X104013Y403090D01*
X102370Y401447D01*
X100222Y400557D01*
X97898Y400557D01*
G37*
%LPD*%
%LPC*%
G36*
X435718Y399287D02*
X435718Y399287D01*
X433570Y400177D01*
X431927Y401820D01*
X431037Y403968D01*
X431037Y406292D01*
X431927Y408440D01*
X433570Y410083D01*
X435718Y410973D01*
X438042Y410973D01*
X440190Y410083D01*
X441833Y408440D01*
X442723Y406292D01*
X442723Y403968D01*
X441833Y401820D01*
X440190Y400177D01*
X438042Y399287D01*
X435718Y399287D01*
G37*
%LPD*%
%LPC*%
G36*
X246488Y394207D02*
X246488Y394207D01*
X244340Y395097D01*
X242697Y396740D01*
X241807Y398888D01*
X241807Y401212D01*
X242697Y403360D01*
X244340Y405003D01*
X246488Y405893D01*
X248812Y405893D01*
X250960Y405003D01*
X252603Y403360D01*
X253493Y401212D01*
X253493Y398888D01*
X252603Y396740D01*
X250960Y395097D01*
X248812Y394207D01*
X246488Y394207D01*
G37*
%LPD*%
%LPC*%
G36*
X316338Y386587D02*
X316338Y386587D01*
X314190Y387477D01*
X312547Y389120D01*
X311657Y391268D01*
X311657Y393592D01*
X312547Y395740D01*
X314190Y397383D01*
X316338Y398273D01*
X318662Y398273D01*
X320810Y397383D01*
X322453Y395740D01*
X323343Y393592D01*
X323343Y391268D01*
X322453Y389120D01*
X320810Y387477D01*
X318662Y386587D01*
X316338Y386587D01*
G37*
%LPD*%
%LPC*%
G36*
X743058Y382015D02*
X743058Y382015D01*
X740910Y382905D01*
X739267Y384548D01*
X738377Y386696D01*
X738377Y389020D01*
X739267Y391168D01*
X740910Y392811D01*
X743058Y393701D01*
X745382Y393701D01*
X747530Y392811D01*
X749173Y391168D01*
X750063Y389020D01*
X750063Y386696D01*
X749173Y384548D01*
X747530Y382905D01*
X745382Y382015D01*
X743058Y382015D01*
G37*
%LPD*%
%LPC*%
G36*
X570338Y375157D02*
X570338Y375157D01*
X568190Y376047D01*
X566547Y377690D01*
X565657Y379838D01*
X565657Y382162D01*
X566547Y384310D01*
X568190Y385953D01*
X570338Y386843D01*
X572662Y386843D01*
X574810Y385953D01*
X576453Y384310D01*
X577343Y382162D01*
X577343Y379838D01*
X576453Y377690D01*
X574810Y376047D01*
X572662Y375157D01*
X570338Y375157D01*
G37*
%LPD*%
%LPC*%
G36*
X356978Y367537D02*
X356978Y367537D01*
X354830Y368427D01*
X353187Y370070D01*
X352297Y372218D01*
X352297Y374542D01*
X353187Y376690D01*
X354830Y378333D01*
X356978Y379223D01*
X359302Y379223D01*
X361450Y378333D01*
X363093Y376690D01*
X363983Y374542D01*
X363983Y372218D01*
X363093Y370070D01*
X361450Y368427D01*
X359302Y367537D01*
X356978Y367537D01*
G37*
%LPD*%
%LPC*%
G36*
X104248Y358647D02*
X104248Y358647D01*
X102100Y359537D01*
X100457Y361180D01*
X99567Y363328D01*
X99567Y365652D01*
X100457Y367800D01*
X102100Y369443D01*
X104248Y370333D01*
X106572Y370333D01*
X108720Y369443D01*
X110363Y367800D01*
X111253Y365652D01*
X111253Y363328D01*
X110363Y361180D01*
X108720Y359537D01*
X106572Y358647D01*
X104248Y358647D01*
G37*
%LPD*%
%LPC*%
G36*
X730870Y340867D02*
X730870Y340867D01*
X728723Y341757D01*
X727079Y343400D01*
X726189Y345548D01*
X726189Y347872D01*
X727079Y350020D01*
X728723Y351663D01*
X730870Y352553D01*
X733194Y352553D01*
X735342Y351663D01*
X736985Y350020D01*
X737875Y347872D01*
X737875Y345548D01*
X736985Y343400D01*
X735342Y341757D01*
X733194Y340867D01*
X730870Y340867D01*
G37*
%LPD*%
%LPC*%
G36*
X496678Y331977D02*
X496678Y331977D01*
X494530Y332867D01*
X492887Y334510D01*
X491997Y336658D01*
X491997Y338982D01*
X492887Y341130D01*
X494530Y342773D01*
X496678Y343663D01*
X499002Y343663D01*
X501150Y342773D01*
X502793Y341130D01*
X503683Y338982D01*
X503683Y336658D01*
X502793Y334510D01*
X501150Y332867D01*
X499002Y331977D01*
X496678Y331977D01*
G37*
%LPD*%
%LPC*%
G36*
X189338Y314197D02*
X189338Y314197D01*
X187190Y315087D01*
X185547Y316730D01*
X184657Y318878D01*
X184657Y321202D01*
X185547Y323350D01*
X187190Y324993D01*
X189338Y325883D01*
X191662Y325883D01*
X193810Y324993D01*
X195453Y323350D01*
X196343Y321202D01*
X196343Y318878D01*
X195453Y316730D01*
X193810Y315087D01*
X191662Y314197D01*
X189338Y314197D01*
G37*
%LPD*%
%LPC*%
G36*
X613518Y512317D02*
X613518Y512317D01*
X611370Y513207D01*
X609727Y514850D01*
X608837Y516998D01*
X608837Y519322D01*
X609727Y521470D01*
X611370Y523113D01*
X613518Y524003D01*
X615842Y524003D01*
X617990Y523113D01*
X619633Y521470D01*
X620523Y519322D01*
X620523Y516998D01*
X619633Y514850D01*
X617990Y513207D01*
X615842Y512317D01*
X613518Y512317D01*
G37*
%LPD*%
%LPC*%
G36*
X524439Y302946D02*
X524439Y302946D01*
X522292Y303835D01*
X520648Y305479D01*
X519759Y307626D01*
X519759Y309951D01*
X520648Y312098D01*
X522292Y313742D01*
X524439Y314631D01*
X526764Y314631D01*
X528911Y313742D01*
X530555Y312098D01*
X531444Y309951D01*
X531444Y307626D01*
X530555Y305479D01*
X528911Y303835D01*
X526764Y302946D01*
X524439Y302946D01*
G37*
%LPD*%
%LPC*%
G36*
X138538Y301497D02*
X138538Y301497D01*
X136390Y302387D01*
X134747Y304030D01*
X133857Y306178D01*
X133857Y308502D01*
X134747Y310650D01*
X136390Y312293D01*
X138538Y313183D01*
X140862Y313183D01*
X143010Y312293D01*
X144653Y310650D01*
X145543Y308502D01*
X145543Y306178D01*
X144653Y304030D01*
X143010Y302387D01*
X140862Y301497D01*
X138538Y301497D01*
G37*
%LPD*%
%LPC*%
G36*
X100438Y300227D02*
X100438Y300227D01*
X98290Y301117D01*
X96647Y302760D01*
X95757Y304908D01*
X95757Y307232D01*
X96647Y309380D01*
X98290Y311023D01*
X100438Y311913D01*
X102762Y311913D01*
X104910Y311023D01*
X106553Y309380D01*
X107443Y307232D01*
X107443Y304908D01*
X106553Y302760D01*
X104910Y301117D01*
X102762Y300227D01*
X100438Y300227D01*
G37*
%LPD*%
%LPC*%
G36*
X271888Y291337D02*
X271888Y291337D01*
X269740Y292227D01*
X268097Y293870D01*
X267207Y296018D01*
X267207Y298342D01*
X268097Y300490D01*
X269740Y302133D01*
X271888Y303023D01*
X274212Y303023D01*
X276360Y302133D01*
X278003Y300490D01*
X278893Y298342D01*
X278893Y296018D01*
X278003Y293870D01*
X276360Y292227D01*
X274212Y291337D01*
X271888Y291337D01*
G37*
%LPD*%
%LPC*%
G36*
X202038Y272287D02*
X202038Y272287D01*
X199890Y273177D01*
X198247Y274820D01*
X197357Y276968D01*
X197357Y279292D01*
X198247Y281440D01*
X199890Y283083D01*
X202038Y283973D01*
X204362Y283973D01*
X206510Y283083D01*
X208153Y281440D01*
X209043Y279292D01*
X209043Y276968D01*
X208153Y274820D01*
X206510Y273177D01*
X204362Y272287D01*
X202038Y272287D01*
G37*
%LPD*%
%LPC*%
G36*
X87738Y271017D02*
X87738Y271017D01*
X85590Y271907D01*
X83947Y273550D01*
X83057Y275698D01*
X83057Y278022D01*
X83947Y280170D01*
X85590Y281813D01*
X87738Y282703D01*
X90062Y282703D01*
X92210Y281813D01*
X93853Y280170D01*
X94743Y278022D01*
X94743Y275698D01*
X93853Y273550D01*
X92210Y271907D01*
X90062Y271017D01*
X87738Y271017D01*
G37*
%LPD*%
%LPC*%
G36*
X231248Y271017D02*
X231248Y271017D01*
X229100Y271907D01*
X227457Y273550D01*
X226567Y275698D01*
X226567Y278022D01*
X227457Y280170D01*
X229100Y281813D01*
X231248Y282703D01*
X233572Y282703D01*
X235720Y281813D01*
X237363Y280170D01*
X238253Y278022D01*
X238253Y275698D01*
X237363Y273550D01*
X235720Y271907D01*
X233572Y271017D01*
X231248Y271017D01*
G37*
%LPD*%
%LPC*%
G36*
X483978Y267207D02*
X483978Y267207D01*
X481830Y268097D01*
X480187Y269740D01*
X479297Y271888D01*
X479297Y274212D01*
X480187Y276360D01*
X481830Y278003D01*
X483978Y278893D01*
X486302Y278893D01*
X488450Y278003D01*
X490093Y276360D01*
X490983Y274212D01*
X490983Y271888D01*
X490093Y269740D01*
X488450Y268097D01*
X486302Y267207D01*
X483978Y267207D01*
G37*
%LPD*%
%LPC*%
G36*
X668128Y587247D02*
X668128Y587247D01*
X665980Y588137D01*
X664337Y589780D01*
X663447Y591928D01*
X663447Y594252D01*
X664337Y596400D01*
X665980Y598043D01*
X668128Y598933D01*
X670452Y598933D01*
X672600Y598043D01*
X674243Y596400D01*
X675133Y594252D01*
X675133Y591928D01*
X674243Y589780D01*
X672600Y588137D01*
X670452Y587247D01*
X668128Y587247D01*
G37*
%LPD*%
%LPC*%
G36*
X363328Y263397D02*
X363328Y263397D01*
X361180Y264287D01*
X359537Y265930D01*
X358647Y268078D01*
X358647Y270402D01*
X359537Y272550D01*
X361180Y274193D01*
X363328Y275083D01*
X365652Y275083D01*
X367800Y274193D01*
X369443Y272550D01*
X370333Y270402D01*
X370333Y268078D01*
X369443Y265930D01*
X367800Y264287D01*
X365652Y263397D01*
X363328Y263397D01*
G37*
%LPD*%
%LPC*%
G36*
X384918Y577087D02*
X384918Y577087D01*
X382770Y577977D01*
X381127Y579620D01*
X380237Y581768D01*
X380237Y584092D01*
X381127Y586240D01*
X382770Y587883D01*
X384918Y588773D01*
X387242Y588773D01*
X389390Y587883D01*
X391033Y586240D01*
X391923Y584092D01*
X391923Y581768D01*
X391033Y579620D01*
X389390Y577977D01*
X387242Y577087D01*
X384918Y577087D01*
G37*
%LPD*%
%LPC*%
G36*
X222358Y255777D02*
X222358Y255777D01*
X220210Y256667D01*
X218567Y258310D01*
X217677Y260458D01*
X217677Y262782D01*
X218567Y264930D01*
X220210Y266573D01*
X222358Y267463D01*
X224682Y267463D01*
X226830Y266573D01*
X228473Y264930D01*
X229363Y262782D01*
X229363Y260458D01*
X228473Y258310D01*
X226830Y256667D01*
X224682Y255777D01*
X222358Y255777D01*
G37*
%LPD*%
%LPC*%
G36*
X214738Y307847D02*
X214738Y307847D01*
X212590Y308737D01*
X210947Y310380D01*
X210057Y312528D01*
X210057Y314852D01*
X210947Y317000D01*
X212590Y318643D01*
X214738Y319533D01*
X217062Y319533D01*
X219210Y318643D01*
X220853Y317000D01*
X221743Y314852D01*
X221743Y312528D01*
X220853Y310380D01*
X219210Y308737D01*
X217062Y307847D01*
X214738Y307847D01*
G37*
%LPD*%
%LPC*%
G36*
X296018Y568197D02*
X296018Y568197D01*
X293870Y569087D01*
X292227Y570730D01*
X291337Y572878D01*
X291337Y575202D01*
X292227Y577350D01*
X293870Y578993D01*
X296018Y579883D01*
X298342Y579883D01*
X300490Y578993D01*
X302133Y577350D01*
X303023Y575202D01*
X303023Y572878D01*
X302133Y570730D01*
X300490Y569087D01*
X298342Y568197D01*
X296018Y568197D01*
G37*
%LPD*%
%LPC*%
G36*
X242674Y225297D02*
X242674Y225297D01*
X240526Y226187D01*
X238883Y227830D01*
X237993Y229978D01*
X237993Y232302D01*
X238883Y234450D01*
X240526Y236093D01*
X242674Y236983D01*
X244998Y236983D01*
X247146Y236093D01*
X248789Y234450D01*
X249679Y232302D01*
X249679Y229978D01*
X248789Y227830D01*
X247146Y226187D01*
X244998Y225297D01*
X242674Y225297D01*
G37*
%LPD*%
%LPC*%
G36*
X724008Y560577D02*
X724008Y560577D01*
X721860Y561467D01*
X720217Y563110D01*
X719327Y565258D01*
X719327Y567582D01*
X720217Y569730D01*
X721860Y571373D01*
X724008Y572263D01*
X726332Y572263D01*
X728480Y571373D01*
X730123Y569730D01*
X731013Y567582D01*
X731013Y565258D01*
X730123Y563110D01*
X728480Y561467D01*
X726332Y560577D01*
X724008Y560577D01*
G37*
%LPD*%
%LPC*%
G36*
X428098Y556767D02*
X428098Y556767D01*
X425950Y557657D01*
X424307Y559300D01*
X423417Y561448D01*
X423417Y563772D01*
X424307Y565920D01*
X425950Y567563D01*
X428098Y568453D01*
X430422Y568453D01*
X432570Y567563D01*
X434213Y565920D01*
X435103Y563772D01*
X435103Y561448D01*
X434213Y559300D01*
X432570Y557657D01*
X430422Y556767D01*
X428098Y556767D01*
G37*
%LPD*%
%LPC*%
G36*
X269348Y202437D02*
X269348Y202437D01*
X267200Y203327D01*
X265557Y204970D01*
X264667Y207118D01*
X264667Y209442D01*
X265557Y211590D01*
X267200Y213233D01*
X269348Y214123D01*
X271672Y214123D01*
X273820Y213233D01*
X275463Y211590D01*
X276353Y209442D01*
X276353Y207118D01*
X275463Y204970D01*
X273820Y203327D01*
X271672Y202437D01*
X269348Y202437D01*
G37*
%LPD*%
%LPC*%
G36*
X478898Y198627D02*
X478898Y198627D01*
X476750Y199517D01*
X475107Y201160D01*
X474217Y203308D01*
X474217Y205632D01*
X475107Y207780D01*
X476750Y209423D01*
X478898Y210313D01*
X481222Y210313D01*
X483370Y209423D01*
X485013Y207780D01*
X485903Y205632D01*
X485903Y203308D01*
X485013Y201160D01*
X483370Y199517D01*
X481222Y198627D01*
X478898Y198627D01*
G37*
%LPD*%
%LPC*%
G36*
X682098Y184657D02*
X682098Y184657D01*
X679950Y185547D01*
X678307Y187190D01*
X677417Y189338D01*
X677417Y191662D01*
X678307Y193810D01*
X679950Y195453D01*
X682098Y196343D01*
X684422Y196343D01*
X686570Y195453D01*
X688213Y193810D01*
X689103Y191662D01*
X689103Y189338D01*
X688213Y187190D01*
X686570Y185547D01*
X684422Y184657D01*
X682098Y184657D01*
G37*
%LPD*%
%LPC*%
G36*
X699878Y178307D02*
X699878Y178307D01*
X697730Y179197D01*
X696087Y180840D01*
X695197Y182988D01*
X695197Y185312D01*
X696087Y187460D01*
X697730Y189103D01*
X699878Y189993D01*
X702202Y189993D01*
X704350Y189103D01*
X705993Y187460D01*
X706883Y185312D01*
X706883Y182988D01*
X705993Y180840D01*
X704350Y179197D01*
X702202Y178307D01*
X699878Y178307D01*
G37*
%LPD*%
%LPC*%
G36*
X664318Y174497D02*
X664318Y174497D01*
X662170Y175387D01*
X660527Y177030D01*
X659637Y179178D01*
X659637Y181502D01*
X660527Y183650D01*
X662170Y185293D01*
X664318Y186183D01*
X666642Y186183D01*
X668790Y185293D01*
X670433Y183650D01*
X671323Y181502D01*
X671323Y179178D01*
X670433Y177030D01*
X668790Y175387D01*
X666642Y174497D01*
X664318Y174497D01*
G37*
%LPD*%
%LPC*%
G36*
X478898Y154177D02*
X478898Y154177D01*
X476750Y155067D01*
X475107Y156710D01*
X474217Y158858D01*
X474217Y161182D01*
X475107Y163330D01*
X476750Y164973D01*
X478898Y165863D01*
X481222Y165863D01*
X483370Y164973D01*
X485013Y163330D01*
X485903Y161182D01*
X485903Y158858D01*
X485013Y156710D01*
X483370Y155067D01*
X481222Y154177D01*
X478898Y154177D01*
G37*
%LPD*%
%LPC*%
G36*
X283318Y152907D02*
X283318Y152907D01*
X281170Y153797D01*
X279527Y155440D01*
X278637Y157588D01*
X278637Y159912D01*
X279527Y162060D01*
X281170Y163703D01*
X283318Y164593D01*
X285642Y164593D01*
X287790Y163703D01*
X289433Y162060D01*
X290323Y159912D01*
X290323Y157588D01*
X289433Y155440D01*
X287790Y153797D01*
X285642Y152907D01*
X283318Y152907D01*
G37*
%LPD*%
%LPC*%
G36*
X389998Y148843D02*
X389998Y148843D01*
X387850Y149733D01*
X386207Y151376D01*
X385317Y153524D01*
X385317Y155848D01*
X386207Y157996D01*
X387850Y159639D01*
X389998Y160529D01*
X392322Y160529D01*
X394470Y159639D01*
X396113Y157996D01*
X397003Y155848D01*
X397003Y153524D01*
X396113Y151376D01*
X394470Y149733D01*
X392322Y148843D01*
X389998Y148843D01*
G37*
%LPD*%
%LPC*%
G36*
X236328Y145287D02*
X236328Y145287D01*
X234180Y146177D01*
X232537Y147820D01*
X231647Y149968D01*
X231647Y152292D01*
X232537Y154440D01*
X234180Y156083D01*
X236328Y156973D01*
X238652Y156973D01*
X240800Y156083D01*
X242443Y154440D01*
X243333Y152292D01*
X243333Y149968D01*
X242443Y147820D01*
X240800Y146177D01*
X238652Y145287D01*
X236328Y145287D01*
G37*
%LPD*%
%LPC*%
G36*
X597008Y541527D02*
X597008Y541527D01*
X594860Y542417D01*
X593217Y544060D01*
X592327Y546208D01*
X592327Y548532D01*
X593217Y550680D01*
X594860Y552323D01*
X597008Y553213D01*
X599332Y553213D01*
X601480Y552323D01*
X603123Y550680D01*
X604013Y548532D01*
X604013Y546208D01*
X603123Y544060D01*
X601480Y542417D01*
X599332Y541527D01*
X597008Y541527D01*
G37*
%LPD*%
%LPC*%
G36*
X671938Y137667D02*
X671938Y137667D01*
X669790Y138557D01*
X668147Y140200D01*
X667257Y142348D01*
X667257Y144672D01*
X668147Y146820D01*
X669790Y148463D01*
X671938Y149353D01*
X674262Y149353D01*
X676410Y148463D01*
X678053Y146820D01*
X678943Y144672D01*
X678943Y142348D01*
X678053Y140200D01*
X676410Y138557D01*
X674262Y137667D01*
X671938Y137667D01*
G37*
%LPD*%
%LPC*%
G36*
X112376Y130047D02*
X112376Y130047D01*
X110228Y130937D01*
X108585Y132580D01*
X107695Y134728D01*
X107695Y137052D01*
X108585Y139200D01*
X110228Y140843D01*
X112376Y141733D01*
X114700Y141733D01*
X116848Y140843D01*
X118491Y139200D01*
X119381Y137052D01*
X119381Y134728D01*
X118491Y132580D01*
X116848Y130937D01*
X114700Y130047D01*
X112376Y130047D01*
G37*
%LPD*%
%LPC*%
G36*
X409048Y527557D02*
X409048Y527557D01*
X406900Y528447D01*
X405257Y530090D01*
X404367Y532238D01*
X404367Y534562D01*
X405257Y536710D01*
X406900Y538353D01*
X409048Y539243D01*
X411372Y539243D01*
X413520Y538353D01*
X415163Y536710D01*
X416053Y534562D01*
X416053Y532238D01*
X415163Y530090D01*
X413520Y528447D01*
X411372Y527557D01*
X409048Y527557D01*
G37*
%LPD*%
%LPC*%
G36*
X242678Y126237D02*
X242678Y126237D01*
X240530Y127127D01*
X238887Y128770D01*
X237997Y130918D01*
X237997Y133242D01*
X238887Y135390D01*
X240530Y137033D01*
X242678Y137923D01*
X245002Y137923D01*
X247150Y137033D01*
X248793Y135390D01*
X249683Y133242D01*
X249683Y130918D01*
X248793Y128770D01*
X247150Y127127D01*
X245002Y126237D01*
X242678Y126237D01*
G37*
%LPD*%
%LPC*%
G36*
X68688Y119887D02*
X68688Y119887D01*
X66540Y120777D01*
X64897Y122420D01*
X64007Y124568D01*
X64007Y126892D01*
X64897Y129040D01*
X66540Y130683D01*
X68688Y131573D01*
X71012Y131573D01*
X73160Y130683D01*
X74803Y129040D01*
X75693Y126892D01*
X75693Y124568D01*
X74803Y122420D01*
X73160Y120777D01*
X71012Y119887D01*
X68688Y119887D01*
G37*
%LPD*%
%LPC*%
G36*
X468738Y112267D02*
X468738Y112267D01*
X466590Y113157D01*
X464947Y114800D01*
X464057Y116948D01*
X464057Y119272D01*
X464947Y121420D01*
X466590Y123063D01*
X468738Y123953D01*
X471062Y123953D01*
X473210Y123063D01*
X474853Y121420D01*
X475743Y119272D01*
X475743Y116948D01*
X474853Y114800D01*
X473210Y113157D01*
X471062Y112267D01*
X468738Y112267D01*
G37*
%LPD*%
%LPC*%
G36*
X597008Y526287D02*
X597008Y526287D01*
X594860Y527177D01*
X593217Y528820D01*
X592327Y530968D01*
X592327Y533292D01*
X593217Y535440D01*
X594860Y537083D01*
X597008Y537973D01*
X599332Y537973D01*
X601480Y537083D01*
X603123Y535440D01*
X604013Y533292D01*
X604013Y530968D01*
X603123Y528820D01*
X601480Y527177D01*
X599332Y526287D01*
X597008Y526287D01*
G37*
%LPD*%
%LPC*%
G36*
X111868Y93217D02*
X111868Y93217D01*
X109720Y94107D01*
X108077Y95750D01*
X107187Y97898D01*
X107187Y100222D01*
X108077Y102370D01*
X109720Y104013D01*
X111868Y104903D01*
X114192Y104903D01*
X116340Y104013D01*
X117983Y102370D01*
X118873Y100222D01*
X118873Y97898D01*
X117983Y95750D01*
X116340Y94107D01*
X114192Y93217D01*
X111868Y93217D01*
G37*
%LPD*%
%LPC*%
G36*
X240138Y93217D02*
X240138Y93217D01*
X237990Y94107D01*
X236347Y95750D01*
X235457Y97898D01*
X235457Y100222D01*
X236347Y102370D01*
X237990Y104013D01*
X240138Y104903D01*
X242462Y104903D01*
X244610Y104013D01*
X246253Y102370D01*
X247143Y100222D01*
X247143Y97898D01*
X246253Y95750D01*
X244610Y94107D01*
X242462Y93217D01*
X240138Y93217D01*
G37*
%LPD*%
%LPC*%
G36*
X363328Y91947D02*
X363328Y91947D01*
X361180Y92837D01*
X359537Y94480D01*
X358647Y96628D01*
X358647Y98952D01*
X359537Y101100D01*
X361180Y102743D01*
X363328Y103633D01*
X365652Y103633D01*
X367800Y102743D01*
X369443Y101100D01*
X370333Y98952D01*
X370333Y96628D01*
X369443Y94480D01*
X367800Y92837D01*
X365652Y91947D01*
X363328Y91947D01*
G37*
%LPD*%
%LPC*%
G36*
X78848Y91947D02*
X78848Y91947D01*
X76700Y92837D01*
X75057Y94480D01*
X74167Y96628D01*
X74167Y98952D01*
X75057Y101100D01*
X76700Y102743D01*
X78848Y103633D01*
X81172Y103633D01*
X83320Y102743D01*
X84963Y101100D01*
X85853Y98952D01*
X85853Y96628D01*
X84963Y94480D01*
X83320Y92837D01*
X81172Y91947D01*
X78848Y91947D01*
G37*
%LPD*%
%LPC*%
G36*
X730358Y513587D02*
X730358Y513587D01*
X728210Y514477D01*
X726567Y516120D01*
X725677Y518268D01*
X725677Y520592D01*
X726567Y522740D01*
X728210Y524383D01*
X730358Y525273D01*
X732682Y525273D01*
X734830Y524383D01*
X736473Y522740D01*
X737363Y520592D01*
X737363Y518268D01*
X736473Y516120D01*
X734830Y514477D01*
X732682Y513587D01*
X730358Y513587D01*
G37*
%LPD*%
%LPC*%
G36*
X683368Y511047D02*
X683368Y511047D01*
X681220Y511937D01*
X679577Y513580D01*
X678687Y515728D01*
X678687Y518052D01*
X679577Y520200D01*
X681220Y521843D01*
X683368Y522733D01*
X685692Y522733D01*
X687840Y521843D01*
X689483Y520200D01*
X690373Y518052D01*
X690373Y515728D01*
X689483Y513580D01*
X687840Y511937D01*
X685692Y511047D01*
X683368Y511047D01*
G37*
%LPD*%
%LPC*%
G36*
X597008Y511047D02*
X597008Y511047D01*
X594860Y511937D01*
X593217Y513580D01*
X592327Y515728D01*
X592327Y518052D01*
X593217Y520200D01*
X594860Y521843D01*
X597008Y522733D01*
X599332Y522733D01*
X601480Y521843D01*
X603123Y520200D01*
X604013Y518052D01*
X604013Y515728D01*
X603123Y513580D01*
X601480Y511937D01*
X599332Y511047D01*
X597008Y511047D01*
G37*
%LPD*%
%LPC*%
G36*
X659238Y509777D02*
X659238Y509777D01*
X657090Y510667D01*
X655447Y512310D01*
X654557Y514458D01*
X654557Y516782D01*
X655447Y518930D01*
X657090Y520573D01*
X659238Y521463D01*
X661562Y521463D01*
X663710Y520573D01*
X665353Y518930D01*
X666243Y516782D01*
X666243Y514458D01*
X665353Y512310D01*
X663710Y510667D01*
X661562Y509777D01*
X659238Y509777D01*
G37*
%LPD*%
%LPC*%
G36*
X414128Y61467D02*
X414128Y61467D01*
X411980Y62357D01*
X410337Y64000D01*
X409447Y66148D01*
X409447Y68472D01*
X410337Y70620D01*
X411980Y72263D01*
X414128Y73153D01*
X416452Y73153D01*
X418600Y72263D01*
X420243Y70620D01*
X421133Y68472D01*
X421133Y66148D01*
X420243Y64000D01*
X418600Y62357D01*
X416452Y61467D01*
X414128Y61467D01*
G37*
%LPD*%
%LPC*%
G36*
X341738Y41147D02*
X341738Y41147D01*
X339590Y42037D01*
X337947Y43680D01*
X337057Y45828D01*
X337057Y48152D01*
X337947Y50300D01*
X339590Y51943D01*
X341738Y52833D01*
X344062Y52833D01*
X346210Y51943D01*
X347853Y50300D01*
X348743Y48152D01*
X348743Y45828D01*
X347853Y43680D01*
X346210Y42037D01*
X344062Y41147D01*
X341738Y41147D01*
G37*
%LPD*%
%LPC*%
G36*
X722738Y499617D02*
X722738Y499617D01*
X720590Y500507D01*
X718947Y502150D01*
X718057Y504298D01*
X718057Y506622D01*
X718947Y508770D01*
X720590Y510413D01*
X722738Y511303D01*
X725062Y511303D01*
X727210Y510413D01*
X728853Y508770D01*
X729743Y506622D01*
X729743Y504298D01*
X728853Y502150D01*
X727210Y500507D01*
X725062Y499617D01*
X722738Y499617D01*
G37*
%LPD*%
%LPC*%
G36*
X424288Y497077D02*
X424288Y497077D01*
X422140Y497967D01*
X420497Y499610D01*
X419607Y501758D01*
X419607Y504082D01*
X420497Y506230D01*
X422140Y507873D01*
X424288Y508763D01*
X426612Y508763D01*
X428760Y507873D01*
X430403Y506230D01*
X431293Y504082D01*
X431293Y501758D01*
X430403Y499610D01*
X428760Y497967D01*
X426612Y497077D01*
X424288Y497077D01*
G37*
%LPD*%
%LPC*%
G36*
X283318Y387857D02*
X283318Y387857D01*
X281170Y388747D01*
X279527Y390390D01*
X278637Y392538D01*
X278637Y394862D01*
X279527Y397010D01*
X281170Y398653D01*
X283318Y399543D01*
X285642Y399543D01*
X287790Y398653D01*
X289433Y397010D01*
X290323Y394862D01*
X290323Y392538D01*
X289433Y390390D01*
X287790Y388747D01*
X285642Y387857D01*
X283318Y387857D01*
G37*
%LPD*%
%LPC*%
G36*
X373488Y497077D02*
X373488Y497077D01*
X371340Y497967D01*
X369697Y499610D01*
X368807Y501758D01*
X368807Y504082D01*
X369697Y506230D01*
X371340Y507873D01*
X373488Y508763D01*
X375812Y508763D01*
X377960Y507873D01*
X379603Y506230D01*
X380493Y504082D01*
X380493Y501758D01*
X379603Y499610D01*
X377960Y497967D01*
X375812Y497077D01*
X373488Y497077D01*
G37*
%LPD*%
%LPC*%
G36*
X682098Y495807D02*
X682098Y495807D01*
X679950Y496697D01*
X678307Y498340D01*
X677417Y500488D01*
X677417Y502812D01*
X678307Y504960D01*
X679950Y506603D01*
X682098Y507493D01*
X684422Y507493D01*
X686570Y506603D01*
X688213Y504960D01*
X689103Y502812D01*
X689103Y500488D01*
X688213Y498340D01*
X686570Y496697D01*
X684422Y495807D01*
X682098Y495807D01*
G37*
%LPD*%
%LPC*%
G36*
X602723Y493902D02*
X602723Y493902D01*
X600575Y494792D01*
X598932Y496435D01*
X598042Y498583D01*
X598042Y500907D01*
X598932Y503055D01*
X600575Y504698D01*
X602723Y505588D01*
X605047Y505588D01*
X607195Y504698D01*
X608838Y503055D01*
X609728Y500907D01*
X609728Y498583D01*
X608838Y496435D01*
X607195Y494792D01*
X605047Y493902D01*
X602723Y493902D01*
G37*
%LPD*%
%LPC*%
G36*
X358248Y493267D02*
X358248Y493267D01*
X356100Y494157D01*
X354457Y495800D01*
X353567Y497948D01*
X353567Y500272D01*
X354457Y502420D01*
X356100Y504063D01*
X358248Y504953D01*
X360572Y504953D01*
X362720Y504063D01*
X364363Y502420D01*
X365253Y500272D01*
X365253Y497948D01*
X364363Y495800D01*
X362720Y494157D01*
X360572Y493267D01*
X358248Y493267D01*
G37*
%LPD*%
%LPC*%
G36*
X649078Y489457D02*
X649078Y489457D01*
X646930Y490347D01*
X645287Y491990D01*
X644397Y494138D01*
X644397Y496462D01*
X645287Y498610D01*
X646930Y500253D01*
X649078Y501143D01*
X651402Y501143D01*
X653550Y500253D01*
X655193Y498610D01*
X656083Y496462D01*
X656083Y494138D01*
X655193Y491990D01*
X653550Y490347D01*
X651402Y489457D01*
X649078Y489457D01*
G37*
%LPD*%
%LPC*%
G36*
X335388Y483107D02*
X335388Y483107D01*
X333240Y483997D01*
X331597Y485640D01*
X330707Y487788D01*
X330707Y490112D01*
X331597Y492260D01*
X333240Y493903D01*
X335388Y494793D01*
X337712Y494793D01*
X339860Y493903D01*
X341503Y492260D01*
X342393Y490112D01*
X342393Y487788D01*
X341503Y485640D01*
X339860Y483997D01*
X337712Y483107D01*
X335388Y483107D01*
G37*
%LPD*%
%LPC*%
G36*
X350628Y478027D02*
X350628Y478027D01*
X348480Y478917D01*
X346837Y480560D01*
X345947Y482708D01*
X345947Y485032D01*
X346837Y487180D01*
X348480Y488823D01*
X350628Y489713D01*
X352952Y489713D01*
X355100Y488823D01*
X356743Y487180D01*
X357633Y485032D01*
X357633Y482708D01*
X356743Y480560D01*
X355100Y478917D01*
X352952Y478027D01*
X350628Y478027D01*
G37*
%LPD*%
%LPC*%
G36*
X365868Y478027D02*
X365868Y478027D01*
X363720Y478917D01*
X362077Y480560D01*
X361187Y482708D01*
X361187Y485032D01*
X362077Y487180D01*
X363720Y488823D01*
X365868Y489713D01*
X368192Y489713D01*
X370340Y488823D01*
X371983Y487180D01*
X372873Y485032D01*
X372873Y482708D01*
X371983Y480560D01*
X370340Y478917D01*
X368192Y478027D01*
X365868Y478027D01*
G37*
%LPD*%
%LPC*%
G36*
X565258Y466597D02*
X565258Y466597D01*
X563110Y467487D01*
X561467Y469130D01*
X560577Y471278D01*
X560577Y473602D01*
X561467Y475750D01*
X563110Y477393D01*
X565258Y478283D01*
X567582Y478283D01*
X569730Y477393D01*
X571373Y475750D01*
X572263Y473602D01*
X572263Y471278D01*
X571373Y469130D01*
X569730Y467487D01*
X567582Y466597D01*
X565258Y466597D01*
G37*
%LPD*%
%LPC*%
G36*
X271888Y464057D02*
X271888Y464057D01*
X269740Y464947D01*
X268097Y466590D01*
X267207Y468738D01*
X267207Y471062D01*
X268097Y473210D01*
X269740Y474853D01*
X271888Y475743D01*
X274212Y475743D01*
X276360Y474853D01*
X278003Y473210D01*
X278893Y471062D01*
X278893Y468738D01*
X278003Y466590D01*
X276360Y464947D01*
X274212Y464057D01*
X271888Y464057D01*
G37*
%LPD*%
%LPC*%
G36*
X247758Y454993D02*
X247758Y454993D01*
X245610Y455883D01*
X243967Y457526D01*
X243077Y459674D01*
X243077Y461998D01*
X243967Y464146D01*
X245610Y465789D01*
X247758Y466679D01*
X250082Y466679D01*
X252230Y465789D01*
X253873Y464146D01*
X254763Y461998D01*
X254763Y459674D01*
X253873Y457526D01*
X252230Y455883D01*
X250082Y454993D01*
X247758Y454993D01*
G37*
%LPD*%
%LPC*%
G36*
X588118Y450087D02*
X588118Y450087D01*
X585970Y450977D01*
X584327Y452620D01*
X583437Y454768D01*
X583437Y457092D01*
X584327Y459240D01*
X585970Y460883D01*
X588118Y461773D01*
X590442Y461773D01*
X592590Y460883D01*
X594233Y459240D01*
X595123Y457092D01*
X595123Y454768D01*
X594233Y452620D01*
X592590Y450977D01*
X590442Y450087D01*
X588118Y450087D01*
G37*
%LPD*%
G36*
X62390Y360216D02*
X62390Y360216D01*
X63058Y360291D01*
X63058Y360292D01*
X63059Y360291D01*
X63693Y360513D01*
X63693Y360514D01*
X63694Y360514D01*
X64263Y360871D01*
X64263Y360872D01*
X64739Y361347D01*
X65097Y361916D01*
X65096Y361917D01*
X65097Y361917D01*
X65319Y362551D01*
X65319Y362552D01*
X65320Y362557D01*
X65320Y362561D01*
X65321Y362570D01*
X65321Y362574D01*
X65322Y362574D01*
X65321Y362574D01*
X65322Y362582D01*
X65322Y362583D01*
X65323Y362587D01*
X65324Y362595D01*
X65324Y362599D01*
X65324Y362600D01*
X65325Y362608D01*
X65326Y362612D01*
X65327Y362621D01*
X65327Y362625D01*
X65328Y362633D01*
X65328Y362634D01*
X65329Y362638D01*
X65330Y362646D01*
X65330Y362650D01*
X65330Y362651D01*
X65331Y362655D01*
X65331Y362659D01*
X65332Y362663D01*
X65332Y362667D01*
X65332Y362668D01*
X65333Y362672D01*
X65333Y362676D01*
X65333Y362680D01*
X65334Y362689D01*
X65335Y362693D01*
X65336Y362701D01*
X65336Y362702D01*
X65336Y362706D01*
X65337Y362714D01*
X65338Y362718D01*
X65338Y362719D01*
X65339Y362727D01*
X65339Y362731D01*
X65340Y362740D01*
X65341Y362744D01*
X65342Y362752D01*
X65342Y362753D01*
X65342Y362757D01*
X65343Y362765D01*
X65344Y362769D01*
X65344Y362770D01*
X65344Y362778D01*
X65345Y362778D01*
X65344Y362778D01*
X65345Y362782D01*
X65346Y362791D01*
X65346Y362795D01*
X65347Y362799D01*
X65347Y362803D01*
X65347Y362804D01*
X65348Y362808D01*
X65348Y362812D01*
X65349Y362816D01*
X65349Y362820D01*
X65349Y362821D01*
X65350Y362825D01*
X65351Y362833D01*
X65351Y362837D01*
X65351Y362838D01*
X65352Y362846D01*
X65353Y362850D01*
X65354Y362859D01*
X65354Y362863D01*
X65355Y362871D01*
X65355Y362872D01*
X65355Y362876D01*
X65356Y362876D01*
X65355Y362876D01*
X65356Y362884D01*
X65357Y362888D01*
X65357Y362889D01*
X65358Y362897D01*
X65358Y362901D01*
X65359Y362910D01*
X65360Y362914D01*
X65361Y362922D01*
X65361Y362923D01*
X65361Y362927D01*
X65362Y362935D01*
X65363Y362939D01*
X65363Y362940D01*
X65364Y362948D01*
X65364Y362952D01*
X65365Y362956D01*
X65365Y362957D01*
X65365Y362961D01*
X65366Y362965D01*
X65366Y362969D01*
X65367Y362973D01*
X65367Y362974D01*
X65367Y362978D01*
X65367Y362982D01*
X65368Y362990D01*
X65368Y362991D01*
X65369Y362995D01*
X65370Y363003D01*
X65370Y363007D01*
X65370Y363008D01*
X65371Y363016D01*
X65372Y363020D01*
X65373Y363029D01*
X65373Y363033D01*
X65374Y363041D01*
X65374Y363042D01*
X65375Y363046D01*
X65376Y363054D01*
X65376Y363058D01*
X65376Y363059D01*
X65377Y363067D01*
X65378Y363071D01*
X65378Y363080D01*
X65379Y363080D01*
X65378Y363080D01*
X65379Y363084D01*
X65380Y363092D01*
X65380Y363093D01*
X65380Y363097D01*
X65381Y363105D01*
X65382Y363109D01*
X65382Y363110D01*
X65382Y363114D01*
X65383Y363118D01*
X65383Y363122D01*
X65384Y363126D01*
X65384Y363127D01*
X65385Y363135D01*
X65385Y363139D01*
X65386Y363148D01*
X65387Y363152D01*
X65388Y363160D01*
X65388Y363161D01*
X65388Y363165D01*
X65389Y363173D01*
X65389Y363177D01*
X65390Y363177D01*
X65389Y363178D01*
X65390Y363186D01*
X65391Y363190D01*
X65392Y363199D01*
X65392Y363203D01*
X65393Y363211D01*
X65393Y363212D01*
X65394Y363216D01*
X65394Y363220D01*
X65319Y363888D01*
X65319Y363889D01*
X65097Y364523D01*
X65096Y364523D01*
X65097Y364524D01*
X64739Y365093D01*
X64738Y365093D01*
X64739Y365093D01*
X64263Y365569D01*
X63694Y365927D01*
X63693Y365926D01*
X63693Y365927D01*
X63059Y366149D01*
X63058Y366149D01*
X62390Y366224D01*
X51390Y366224D01*
X50722Y366149D01*
X50721Y366149D01*
X50087Y365927D01*
X50087Y365926D01*
X50086Y365927D01*
X49517Y365569D01*
X49517Y365568D01*
X49517Y365569D01*
X49042Y365093D01*
X49041Y365093D01*
X48684Y364524D01*
X48684Y364523D01*
X48683Y364523D01*
X48461Y363889D01*
X48461Y363888D01*
X48461Y363884D01*
X48460Y363876D01*
X48459Y363871D01*
X48458Y363863D01*
X48458Y363859D01*
X48457Y363850D01*
X48456Y363846D01*
X48455Y363837D01*
X48455Y363833D01*
X48454Y363825D01*
X48453Y363820D01*
X48452Y363812D01*
X48452Y363808D01*
X48451Y363799D01*
X48451Y363795D01*
X48450Y363795D01*
X48451Y363795D01*
X48450Y363786D01*
X48449Y363782D01*
X48448Y363774D01*
X48448Y363769D01*
X48447Y363765D01*
X48447Y363761D01*
X48446Y363757D01*
X48446Y363752D01*
X48445Y363748D01*
X48445Y363744D01*
X48444Y363740D01*
X48443Y363731D01*
X48443Y363727D01*
X48442Y363718D01*
X48441Y363714D01*
X48440Y363706D01*
X48440Y363701D01*
X48439Y363693D01*
X48439Y363689D01*
X48438Y363680D01*
X48437Y363676D01*
X48436Y363667D01*
X48436Y363663D01*
X48435Y363655D01*
X48434Y363650D01*
X48433Y363642D01*
X48433Y363638D01*
X48432Y363629D01*
X48431Y363625D01*
X48430Y363616D01*
X48430Y363612D01*
X48429Y363608D01*
X48429Y363604D01*
X48428Y363599D01*
X48428Y363595D01*
X48428Y363591D01*
X48427Y363591D01*
X48428Y363591D01*
X48427Y363587D01*
X48427Y363582D01*
X48426Y363574D01*
X48425Y363570D01*
X48424Y363561D01*
X48424Y363557D01*
X48423Y363548D01*
X48422Y363544D01*
X48421Y363536D01*
X48421Y363531D01*
X48420Y363523D01*
X48419Y363519D01*
X48418Y363510D01*
X48418Y363506D01*
X48417Y363497D01*
X48417Y363493D01*
X48416Y363493D01*
X48417Y363493D01*
X48416Y363485D01*
X48415Y363480D01*
X48414Y363472D01*
X48414Y363468D01*
X48413Y363459D01*
X48412Y363455D01*
X48412Y363451D01*
X48411Y363446D01*
X48411Y363442D01*
X48410Y363438D01*
X48409Y363429D01*
X48409Y363425D01*
X48408Y363417D01*
X48407Y363412D01*
X48406Y363404D01*
X48406Y363400D01*
X48405Y363391D01*
X48405Y363387D01*
X48404Y363378D01*
X48403Y363374D01*
X48402Y363366D01*
X48402Y363361D01*
X48401Y363353D01*
X48400Y363349D01*
X48399Y363340D01*
X48399Y363336D01*
X48398Y363327D01*
X48397Y363323D01*
X48396Y363315D01*
X48396Y363310D01*
X48395Y363306D01*
X48395Y363302D01*
X48394Y363298D01*
X48394Y363293D01*
X48394Y363289D01*
X48393Y363289D01*
X48394Y363289D01*
X48393Y363285D01*
X48393Y363281D01*
X48392Y363272D01*
X48391Y363268D01*
X48390Y363259D01*
X48390Y363255D01*
X48389Y363247D01*
X48388Y363242D01*
X48387Y363234D01*
X48387Y363230D01*
X48386Y363221D01*
X48386Y363220D01*
X48461Y362552D01*
X48462Y362552D01*
X48461Y362551D01*
X48683Y361917D01*
X48684Y361917D01*
X48684Y361916D01*
X49041Y361347D01*
X49042Y361347D01*
X49517Y360872D01*
X49517Y360871D01*
X50086Y360514D01*
X50087Y360514D01*
X50087Y360513D01*
X50721Y360291D01*
X50722Y360291D01*
X51390Y360216D01*
X62390Y360216D01*
X62390Y360216D01*
G37*
G36*
X62390Y446576D02*
X62390Y446576D01*
X63058Y446651D01*
X63058Y446652D01*
X63059Y446651D01*
X63693Y446873D01*
X63693Y446874D01*
X63694Y446874D01*
X64263Y447231D01*
X64263Y447232D01*
X64739Y447707D01*
X65097Y448276D01*
X65096Y448277D01*
X65097Y448277D01*
X65319Y448911D01*
X65319Y448912D01*
X65320Y448917D01*
X65320Y448921D01*
X65321Y448930D01*
X65321Y448934D01*
X65322Y448934D01*
X65321Y448934D01*
X65322Y448942D01*
X65322Y448943D01*
X65323Y448947D01*
X65324Y448955D01*
X65324Y448959D01*
X65324Y448960D01*
X65325Y448968D01*
X65326Y448972D01*
X65327Y448981D01*
X65327Y448985D01*
X65328Y448993D01*
X65328Y448994D01*
X65329Y448998D01*
X65330Y449006D01*
X65330Y449010D01*
X65330Y449011D01*
X65331Y449015D01*
X65331Y449019D01*
X65332Y449023D01*
X65332Y449027D01*
X65332Y449028D01*
X65333Y449032D01*
X65333Y449036D01*
X65333Y449040D01*
X65334Y449049D01*
X65335Y449053D01*
X65336Y449061D01*
X65336Y449062D01*
X65336Y449066D01*
X65337Y449074D01*
X65338Y449078D01*
X65338Y449079D01*
X65339Y449087D01*
X65339Y449091D01*
X65340Y449100D01*
X65341Y449104D01*
X65342Y449112D01*
X65342Y449113D01*
X65342Y449117D01*
X65343Y449125D01*
X65344Y449129D01*
X65344Y449130D01*
X65344Y449138D01*
X65345Y449138D01*
X65344Y449138D01*
X65345Y449142D01*
X65346Y449151D01*
X65346Y449155D01*
X65347Y449159D01*
X65347Y449163D01*
X65347Y449164D01*
X65348Y449168D01*
X65348Y449172D01*
X65349Y449176D01*
X65349Y449180D01*
X65349Y449181D01*
X65350Y449185D01*
X65351Y449193D01*
X65351Y449197D01*
X65351Y449198D01*
X65352Y449206D01*
X65353Y449210D01*
X65354Y449219D01*
X65354Y449223D01*
X65355Y449231D01*
X65355Y449232D01*
X65355Y449236D01*
X65356Y449236D01*
X65355Y449236D01*
X65356Y449244D01*
X65357Y449248D01*
X65357Y449249D01*
X65358Y449257D01*
X65358Y449261D01*
X65359Y449270D01*
X65360Y449274D01*
X65361Y449282D01*
X65361Y449283D01*
X65361Y449287D01*
X65362Y449295D01*
X65363Y449299D01*
X65363Y449300D01*
X65364Y449308D01*
X65364Y449312D01*
X65365Y449316D01*
X65365Y449317D01*
X65365Y449321D01*
X65366Y449325D01*
X65366Y449329D01*
X65367Y449333D01*
X65367Y449334D01*
X65367Y449338D01*
X65367Y449342D01*
X65368Y449350D01*
X65368Y449351D01*
X65369Y449355D01*
X65370Y449363D01*
X65370Y449367D01*
X65370Y449368D01*
X65371Y449376D01*
X65372Y449380D01*
X65373Y449389D01*
X65373Y449393D01*
X65374Y449401D01*
X65374Y449402D01*
X65375Y449406D01*
X65376Y449414D01*
X65376Y449418D01*
X65376Y449419D01*
X65377Y449427D01*
X65378Y449431D01*
X65378Y449440D01*
X65379Y449440D01*
X65378Y449440D01*
X65379Y449444D01*
X65380Y449452D01*
X65380Y449453D01*
X65380Y449457D01*
X65381Y449465D01*
X65382Y449469D01*
X65382Y449470D01*
X65382Y449474D01*
X65383Y449478D01*
X65383Y449482D01*
X65384Y449486D01*
X65384Y449487D01*
X65385Y449495D01*
X65385Y449499D01*
X65386Y449508D01*
X65387Y449512D01*
X65388Y449520D01*
X65388Y449521D01*
X65388Y449525D01*
X65389Y449533D01*
X65389Y449537D01*
X65390Y449537D01*
X65389Y449538D01*
X65390Y449546D01*
X65391Y449550D01*
X65392Y449559D01*
X65392Y449563D01*
X65393Y449571D01*
X65393Y449572D01*
X65394Y449576D01*
X65394Y449580D01*
X65319Y450248D01*
X65319Y450249D01*
X65097Y450883D01*
X65096Y450883D01*
X65097Y450884D01*
X64739Y451453D01*
X64738Y451453D01*
X64739Y451453D01*
X64263Y451929D01*
X63694Y452287D01*
X63693Y452286D01*
X63693Y452287D01*
X63059Y452509D01*
X63058Y452509D01*
X62390Y452584D01*
X51390Y452584D01*
X50722Y452509D01*
X50721Y452509D01*
X50087Y452287D01*
X50087Y452286D01*
X50086Y452287D01*
X49517Y451929D01*
X49517Y451928D01*
X49517Y451929D01*
X49042Y451453D01*
X49041Y451453D01*
X48684Y450884D01*
X48684Y450883D01*
X48683Y450883D01*
X48461Y450249D01*
X48461Y450248D01*
X48461Y450244D01*
X48460Y450236D01*
X48459Y450231D01*
X48458Y450223D01*
X48458Y450219D01*
X48457Y450210D01*
X48456Y450206D01*
X48455Y450197D01*
X48455Y450193D01*
X48454Y450185D01*
X48453Y450180D01*
X48452Y450172D01*
X48452Y450168D01*
X48451Y450159D01*
X48451Y450155D01*
X48450Y450155D01*
X48451Y450155D01*
X48450Y450146D01*
X48449Y450142D01*
X48448Y450134D01*
X48448Y450129D01*
X48447Y450125D01*
X48447Y450121D01*
X48446Y450117D01*
X48446Y450112D01*
X48445Y450108D01*
X48445Y450104D01*
X48444Y450100D01*
X48443Y450091D01*
X48443Y450087D01*
X48442Y450078D01*
X48441Y450074D01*
X48440Y450066D01*
X48440Y450061D01*
X48439Y450053D01*
X48439Y450049D01*
X48438Y450040D01*
X48437Y450036D01*
X48436Y450027D01*
X48436Y450023D01*
X48435Y450015D01*
X48434Y450010D01*
X48433Y450002D01*
X48433Y449998D01*
X48432Y449989D01*
X48431Y449985D01*
X48430Y449976D01*
X48430Y449972D01*
X48429Y449968D01*
X48429Y449964D01*
X48428Y449959D01*
X48428Y449955D01*
X48428Y449951D01*
X48427Y449951D01*
X48428Y449951D01*
X48427Y449947D01*
X48427Y449942D01*
X48426Y449934D01*
X48425Y449930D01*
X48424Y449921D01*
X48424Y449917D01*
X48423Y449908D01*
X48422Y449904D01*
X48421Y449896D01*
X48421Y449891D01*
X48420Y449883D01*
X48419Y449879D01*
X48418Y449870D01*
X48418Y449866D01*
X48417Y449857D01*
X48417Y449853D01*
X48416Y449853D01*
X48417Y449853D01*
X48416Y449845D01*
X48415Y449840D01*
X48414Y449832D01*
X48414Y449828D01*
X48413Y449819D01*
X48412Y449815D01*
X48412Y449811D01*
X48411Y449806D01*
X48411Y449802D01*
X48410Y449798D01*
X48409Y449789D01*
X48409Y449785D01*
X48408Y449777D01*
X48407Y449772D01*
X48406Y449764D01*
X48406Y449760D01*
X48405Y449751D01*
X48405Y449747D01*
X48404Y449738D01*
X48403Y449734D01*
X48402Y449726D01*
X48402Y449721D01*
X48401Y449713D01*
X48400Y449709D01*
X48399Y449700D01*
X48399Y449696D01*
X48398Y449687D01*
X48397Y449683D01*
X48396Y449675D01*
X48396Y449670D01*
X48395Y449666D01*
X48395Y449662D01*
X48394Y449658D01*
X48394Y449653D01*
X48394Y449649D01*
X48393Y449649D01*
X48394Y449649D01*
X48393Y449645D01*
X48393Y449641D01*
X48392Y449632D01*
X48391Y449628D01*
X48390Y449619D01*
X48390Y449615D01*
X48389Y449607D01*
X48388Y449602D01*
X48387Y449594D01*
X48387Y449590D01*
X48386Y449581D01*
X48386Y449580D01*
X48461Y448912D01*
X48462Y448912D01*
X48461Y448911D01*
X48683Y448277D01*
X48684Y448277D01*
X48684Y448276D01*
X49041Y447707D01*
X49042Y447707D01*
X49517Y447232D01*
X49517Y447231D01*
X50086Y446874D01*
X50087Y446874D01*
X50087Y446873D01*
X50721Y446651D01*
X50722Y446651D01*
X51390Y446576D01*
X62390Y446576D01*
X62390Y446576D01*
G37*
G36*
X18240Y360216D02*
X18240Y360216D01*
X18908Y360291D01*
X18908Y360292D01*
X18909Y360291D01*
X19543Y360513D01*
X19543Y360514D01*
X19544Y360514D01*
X20113Y360871D01*
X20113Y360872D01*
X20589Y361347D01*
X20947Y361916D01*
X20946Y361917D01*
X20947Y361917D01*
X21169Y362551D01*
X21169Y362552D01*
X21170Y362557D01*
X21170Y362561D01*
X21171Y362570D01*
X21171Y362574D01*
X21172Y362574D01*
X21171Y362574D01*
X21172Y362582D01*
X21172Y362583D01*
X21173Y362587D01*
X21174Y362595D01*
X21174Y362599D01*
X21174Y362600D01*
X21175Y362608D01*
X21176Y362612D01*
X21177Y362621D01*
X21177Y362625D01*
X21178Y362633D01*
X21178Y362634D01*
X21179Y362638D01*
X21180Y362646D01*
X21180Y362650D01*
X21180Y362651D01*
X21181Y362655D01*
X21181Y362659D01*
X21182Y362663D01*
X21182Y362667D01*
X21182Y362668D01*
X21183Y362672D01*
X21183Y362676D01*
X21183Y362680D01*
X21184Y362689D01*
X21185Y362693D01*
X21186Y362701D01*
X21186Y362702D01*
X21186Y362706D01*
X21187Y362714D01*
X21188Y362718D01*
X21188Y362719D01*
X21189Y362727D01*
X21189Y362731D01*
X21190Y362740D01*
X21191Y362744D01*
X21192Y362752D01*
X21192Y362753D01*
X21192Y362757D01*
X21193Y362765D01*
X21194Y362769D01*
X21194Y362770D01*
X21194Y362778D01*
X21195Y362778D01*
X21194Y362778D01*
X21195Y362782D01*
X21196Y362791D01*
X21196Y362795D01*
X21197Y362799D01*
X21197Y362803D01*
X21197Y362804D01*
X21198Y362808D01*
X21198Y362812D01*
X21199Y362816D01*
X21199Y362820D01*
X21199Y362821D01*
X21200Y362825D01*
X21201Y362833D01*
X21201Y362837D01*
X21201Y362838D01*
X21202Y362846D01*
X21203Y362850D01*
X21204Y362859D01*
X21204Y362863D01*
X21205Y362871D01*
X21205Y362872D01*
X21205Y362876D01*
X21206Y362876D01*
X21205Y362876D01*
X21206Y362884D01*
X21207Y362888D01*
X21207Y362889D01*
X21208Y362897D01*
X21208Y362901D01*
X21209Y362910D01*
X21210Y362914D01*
X21211Y362922D01*
X21211Y362923D01*
X21211Y362927D01*
X21212Y362935D01*
X21213Y362939D01*
X21213Y362940D01*
X21214Y362948D01*
X21214Y362952D01*
X21215Y362956D01*
X21215Y362957D01*
X21215Y362961D01*
X21216Y362965D01*
X21216Y362969D01*
X21217Y362973D01*
X21217Y362974D01*
X21217Y362978D01*
X21217Y362982D01*
X21218Y362990D01*
X21218Y362991D01*
X21219Y362995D01*
X21220Y363003D01*
X21220Y363007D01*
X21220Y363008D01*
X21221Y363016D01*
X21222Y363020D01*
X21223Y363029D01*
X21223Y363033D01*
X21224Y363041D01*
X21224Y363042D01*
X21225Y363046D01*
X21226Y363054D01*
X21226Y363058D01*
X21226Y363059D01*
X21227Y363067D01*
X21228Y363071D01*
X21228Y363080D01*
X21229Y363080D01*
X21228Y363080D01*
X21229Y363084D01*
X21230Y363092D01*
X21230Y363093D01*
X21230Y363097D01*
X21231Y363105D01*
X21232Y363109D01*
X21232Y363110D01*
X21232Y363114D01*
X21233Y363118D01*
X21233Y363122D01*
X21234Y363126D01*
X21234Y363127D01*
X21235Y363135D01*
X21235Y363139D01*
X21236Y363148D01*
X21237Y363152D01*
X21238Y363160D01*
X21238Y363161D01*
X21238Y363165D01*
X21239Y363173D01*
X21239Y363177D01*
X21240Y363177D01*
X21239Y363178D01*
X21240Y363186D01*
X21241Y363190D01*
X21242Y363199D01*
X21242Y363203D01*
X21243Y363211D01*
X21243Y363212D01*
X21244Y363216D01*
X21244Y363220D01*
X21169Y363888D01*
X21169Y363889D01*
X20947Y364523D01*
X20946Y364523D01*
X20947Y364524D01*
X20589Y365093D01*
X20588Y365093D01*
X20589Y365093D01*
X20113Y365569D01*
X19544Y365927D01*
X19543Y365926D01*
X19543Y365927D01*
X18909Y366149D01*
X18908Y366149D01*
X18240Y366224D01*
X12040Y366224D01*
X11372Y366149D01*
X11371Y366149D01*
X10737Y365927D01*
X10737Y365926D01*
X10736Y365927D01*
X10167Y365569D01*
X10167Y365568D01*
X10167Y365569D01*
X9692Y365093D01*
X9691Y365093D01*
X9334Y364524D01*
X9334Y364523D01*
X9333Y364523D01*
X9111Y363889D01*
X9111Y363888D01*
X9111Y363884D01*
X9110Y363876D01*
X9109Y363871D01*
X9108Y363863D01*
X9108Y363859D01*
X9107Y363850D01*
X9106Y363846D01*
X9105Y363837D01*
X9105Y363833D01*
X9104Y363825D01*
X9103Y363820D01*
X9102Y363812D01*
X9102Y363808D01*
X9101Y363799D01*
X9101Y363795D01*
X9100Y363795D01*
X9101Y363795D01*
X9100Y363786D01*
X9099Y363782D01*
X9098Y363774D01*
X9098Y363769D01*
X9097Y363765D01*
X9097Y363761D01*
X9096Y363757D01*
X9096Y363752D01*
X9095Y363748D01*
X9095Y363744D01*
X9094Y363740D01*
X9093Y363731D01*
X9093Y363727D01*
X9092Y363718D01*
X9091Y363714D01*
X9090Y363706D01*
X9090Y363701D01*
X9089Y363693D01*
X9089Y363689D01*
X9088Y363680D01*
X9087Y363676D01*
X9086Y363667D01*
X9086Y363663D01*
X9085Y363655D01*
X9084Y363650D01*
X9083Y363642D01*
X9083Y363638D01*
X9082Y363629D01*
X9081Y363625D01*
X9080Y363616D01*
X9080Y363612D01*
X9079Y363608D01*
X9079Y363604D01*
X9078Y363599D01*
X9078Y363595D01*
X9078Y363591D01*
X9077Y363591D01*
X9078Y363591D01*
X9077Y363587D01*
X9077Y363582D01*
X9076Y363574D01*
X9075Y363570D01*
X9074Y363561D01*
X9074Y363557D01*
X9073Y363548D01*
X9072Y363544D01*
X9071Y363536D01*
X9071Y363531D01*
X9070Y363523D01*
X9069Y363519D01*
X9068Y363510D01*
X9068Y363506D01*
X9067Y363497D01*
X9067Y363493D01*
X9066Y363493D01*
X9067Y363493D01*
X9066Y363485D01*
X9065Y363480D01*
X9064Y363472D01*
X9064Y363468D01*
X9063Y363459D01*
X9062Y363455D01*
X9062Y363451D01*
X9061Y363446D01*
X9061Y363442D01*
X9060Y363438D01*
X9059Y363429D01*
X9059Y363425D01*
X9058Y363417D01*
X9057Y363412D01*
X9056Y363404D01*
X9056Y363400D01*
X9055Y363391D01*
X9055Y363387D01*
X9054Y363378D01*
X9053Y363374D01*
X9052Y363366D01*
X9052Y363361D01*
X9051Y363353D01*
X9050Y363349D01*
X9049Y363340D01*
X9049Y363336D01*
X9048Y363327D01*
X9047Y363323D01*
X9046Y363315D01*
X9046Y363310D01*
X9045Y363306D01*
X9045Y363302D01*
X9044Y363298D01*
X9044Y363293D01*
X9044Y363289D01*
X9043Y363289D01*
X9044Y363289D01*
X9043Y363285D01*
X9043Y363281D01*
X9042Y363272D01*
X9041Y363268D01*
X9040Y363259D01*
X9040Y363255D01*
X9039Y363247D01*
X9038Y363242D01*
X9037Y363234D01*
X9037Y363230D01*
X9036Y363221D01*
X9036Y363220D01*
X9111Y362552D01*
X9112Y362552D01*
X9111Y362551D01*
X9333Y361917D01*
X9334Y361917D01*
X9334Y361916D01*
X9691Y361347D01*
X9692Y361347D01*
X10167Y360872D01*
X10167Y360871D01*
X10736Y360514D01*
X10737Y360514D01*
X10737Y360513D01*
X11371Y360291D01*
X11372Y360291D01*
X12040Y360216D01*
X18240Y360216D01*
X18240Y360216D01*
G37*
G36*
X18240Y446576D02*
X18240Y446576D01*
X18908Y446651D01*
X18908Y446652D01*
X18909Y446651D01*
X19543Y446873D01*
X19543Y446874D01*
X19544Y446874D01*
X20113Y447231D01*
X20113Y447232D01*
X20589Y447707D01*
X20947Y448276D01*
X20946Y448277D01*
X20947Y448277D01*
X21169Y448911D01*
X21169Y448912D01*
X21170Y448917D01*
X21170Y448921D01*
X21171Y448930D01*
X21171Y448934D01*
X21172Y448934D01*
X21171Y448934D01*
X21172Y448942D01*
X21172Y448943D01*
X21173Y448947D01*
X21174Y448955D01*
X21174Y448959D01*
X21174Y448960D01*
X21175Y448968D01*
X21176Y448972D01*
X21177Y448981D01*
X21177Y448985D01*
X21178Y448993D01*
X21178Y448994D01*
X21179Y448998D01*
X21180Y449006D01*
X21180Y449010D01*
X21180Y449011D01*
X21181Y449015D01*
X21181Y449019D01*
X21182Y449023D01*
X21182Y449027D01*
X21182Y449028D01*
X21183Y449032D01*
X21183Y449036D01*
X21183Y449040D01*
X21184Y449049D01*
X21185Y449053D01*
X21186Y449061D01*
X21186Y449062D01*
X21186Y449066D01*
X21187Y449074D01*
X21188Y449078D01*
X21188Y449079D01*
X21189Y449087D01*
X21189Y449091D01*
X21190Y449100D01*
X21191Y449104D01*
X21192Y449112D01*
X21192Y449113D01*
X21192Y449117D01*
X21193Y449125D01*
X21194Y449129D01*
X21194Y449130D01*
X21194Y449138D01*
X21195Y449138D01*
X21194Y449138D01*
X21195Y449142D01*
X21196Y449151D01*
X21196Y449155D01*
X21197Y449159D01*
X21197Y449163D01*
X21197Y449164D01*
X21198Y449168D01*
X21198Y449172D01*
X21199Y449176D01*
X21199Y449180D01*
X21199Y449181D01*
X21200Y449185D01*
X21201Y449193D01*
X21201Y449197D01*
X21201Y449198D01*
X21202Y449206D01*
X21203Y449210D01*
X21204Y449219D01*
X21204Y449223D01*
X21205Y449231D01*
X21205Y449232D01*
X21205Y449236D01*
X21206Y449236D01*
X21205Y449236D01*
X21206Y449244D01*
X21207Y449248D01*
X21207Y449249D01*
X21208Y449257D01*
X21208Y449261D01*
X21209Y449270D01*
X21210Y449274D01*
X21211Y449282D01*
X21211Y449283D01*
X21211Y449287D01*
X21212Y449295D01*
X21213Y449299D01*
X21213Y449300D01*
X21214Y449308D01*
X21214Y449312D01*
X21215Y449316D01*
X21215Y449317D01*
X21215Y449321D01*
X21216Y449325D01*
X21216Y449329D01*
X21217Y449333D01*
X21217Y449334D01*
X21217Y449338D01*
X21217Y449342D01*
X21218Y449350D01*
X21218Y449351D01*
X21219Y449355D01*
X21220Y449363D01*
X21220Y449367D01*
X21220Y449368D01*
X21221Y449376D01*
X21222Y449380D01*
X21223Y449389D01*
X21223Y449393D01*
X21224Y449401D01*
X21224Y449402D01*
X21225Y449406D01*
X21226Y449414D01*
X21226Y449418D01*
X21226Y449419D01*
X21227Y449427D01*
X21228Y449431D01*
X21228Y449440D01*
X21229Y449440D01*
X21228Y449440D01*
X21229Y449444D01*
X21230Y449452D01*
X21230Y449453D01*
X21230Y449457D01*
X21231Y449465D01*
X21232Y449469D01*
X21232Y449470D01*
X21232Y449474D01*
X21233Y449478D01*
X21233Y449482D01*
X21234Y449486D01*
X21234Y449487D01*
X21235Y449495D01*
X21235Y449499D01*
X21236Y449508D01*
X21237Y449512D01*
X21238Y449520D01*
X21238Y449521D01*
X21238Y449525D01*
X21239Y449533D01*
X21239Y449537D01*
X21240Y449537D01*
X21239Y449538D01*
X21240Y449546D01*
X21241Y449550D01*
X21242Y449559D01*
X21242Y449563D01*
X21243Y449571D01*
X21243Y449572D01*
X21244Y449576D01*
X21244Y449580D01*
X21169Y450248D01*
X21169Y450249D01*
X20947Y450883D01*
X20946Y450883D01*
X20947Y450884D01*
X20589Y451453D01*
X20588Y451453D01*
X20589Y451453D01*
X20113Y451929D01*
X19544Y452287D01*
X19543Y452286D01*
X19543Y452287D01*
X18909Y452509D01*
X18908Y452509D01*
X18240Y452584D01*
X12040Y452584D01*
X11372Y452509D01*
X11371Y452509D01*
X10737Y452287D01*
X10737Y452286D01*
X10736Y452287D01*
X10167Y451929D01*
X10167Y451928D01*
X10167Y451929D01*
X9692Y451453D01*
X9691Y451453D01*
X9334Y450884D01*
X9334Y450883D01*
X9333Y450883D01*
X9111Y450249D01*
X9111Y450248D01*
X9111Y450244D01*
X9110Y450236D01*
X9109Y450231D01*
X9108Y450223D01*
X9108Y450219D01*
X9107Y450210D01*
X9106Y450206D01*
X9105Y450197D01*
X9105Y450193D01*
X9104Y450185D01*
X9103Y450180D01*
X9102Y450172D01*
X9102Y450168D01*
X9101Y450159D01*
X9101Y450155D01*
X9100Y450155D01*
X9101Y450155D01*
X9100Y450146D01*
X9099Y450142D01*
X9098Y450134D01*
X9098Y450129D01*
X9097Y450125D01*
X9097Y450121D01*
X9096Y450117D01*
X9096Y450112D01*
X9095Y450108D01*
X9095Y450104D01*
X9094Y450100D01*
X9093Y450091D01*
X9093Y450087D01*
X9092Y450078D01*
X9091Y450074D01*
X9090Y450066D01*
X9090Y450061D01*
X9089Y450053D01*
X9089Y450049D01*
X9088Y450040D01*
X9087Y450036D01*
X9086Y450027D01*
X9086Y450023D01*
X9085Y450015D01*
X9084Y450010D01*
X9083Y450002D01*
X9083Y449998D01*
X9082Y449989D01*
X9081Y449985D01*
X9080Y449976D01*
X9080Y449972D01*
X9079Y449968D01*
X9079Y449964D01*
X9078Y449959D01*
X9078Y449955D01*
X9078Y449951D01*
X9077Y449951D01*
X9078Y449951D01*
X9077Y449947D01*
X9077Y449942D01*
X9076Y449934D01*
X9075Y449930D01*
X9074Y449921D01*
X9074Y449917D01*
X9073Y449908D01*
X9072Y449904D01*
X9071Y449896D01*
X9071Y449891D01*
X9070Y449883D01*
X9069Y449879D01*
X9068Y449870D01*
X9068Y449866D01*
X9067Y449857D01*
X9067Y449853D01*
X9066Y449853D01*
X9067Y449853D01*
X9066Y449845D01*
X9065Y449840D01*
X9064Y449832D01*
X9064Y449828D01*
X9063Y449819D01*
X9062Y449815D01*
X9062Y449811D01*
X9061Y449806D01*
X9061Y449802D01*
X9060Y449798D01*
X9059Y449789D01*
X9059Y449785D01*
X9058Y449777D01*
X9057Y449772D01*
X9056Y449764D01*
X9056Y449760D01*
X9055Y449751D01*
X9055Y449747D01*
X9054Y449738D01*
X9053Y449734D01*
X9052Y449726D01*
X9052Y449721D01*
X9051Y449713D01*
X9050Y449709D01*
X9049Y449700D01*
X9049Y449696D01*
X9048Y449687D01*
X9047Y449683D01*
X9046Y449675D01*
X9046Y449670D01*
X9045Y449666D01*
X9045Y449662D01*
X9044Y449658D01*
X9044Y449653D01*
X9044Y449649D01*
X9043Y449649D01*
X9044Y449649D01*
X9043Y449645D01*
X9043Y449641D01*
X9042Y449632D01*
X9041Y449628D01*
X9040Y449619D01*
X9040Y449615D01*
X9039Y449607D01*
X9038Y449602D01*
X9037Y449594D01*
X9037Y449590D01*
X9036Y449581D01*
X9036Y449580D01*
X9111Y448912D01*
X9112Y448912D01*
X9111Y448911D01*
X9333Y448277D01*
X9334Y448277D01*
X9334Y448276D01*
X9691Y447707D01*
X9692Y447707D01*
X10167Y447232D01*
X10167Y447231D01*
X10736Y446874D01*
X10737Y446874D01*
X10737Y446873D01*
X11371Y446651D01*
X11372Y446651D01*
X12040Y446576D01*
X18240Y446576D01*
X18240Y446576D01*
G37*
%LPC*%
G36*
X78739Y27939D02*
X78739Y27939D01*
X78739Y35259D01*
X80100Y34816D01*
X81525Y34090D01*
X82819Y33150D01*
X83950Y32019D01*
X84890Y30725D01*
X85616Y29300D01*
X86059Y27939D01*
X78739Y27939D01*
G37*
%LPD*%
%LPC*%
G36*
X66341Y27939D02*
X66341Y27939D01*
X66784Y29300D01*
X67510Y30725D01*
X68450Y32019D01*
X69581Y33150D01*
X70875Y34090D01*
X72300Y34816D01*
X73661Y35259D01*
X73661Y27939D01*
X66341Y27939D01*
G37*
%LPD*%
%LPC*%
G36*
X78739Y22861D02*
X78739Y22861D01*
X86059Y22861D01*
X85616Y21500D01*
X84890Y20075D01*
X83950Y18781D01*
X82819Y17650D01*
X81525Y16710D01*
X80100Y15984D01*
X78739Y15541D01*
X78739Y22861D01*
G37*
%LPD*%
%LPC*%
G36*
X72300Y15984D02*
X72300Y15984D01*
X70875Y16710D01*
X69581Y17650D01*
X68450Y18781D01*
X67510Y20075D01*
X66784Y21500D01*
X66341Y22861D01*
X73661Y22861D01*
X73661Y15541D01*
X72300Y15984D01*
G37*
%LPD*%
%LPC*%
G36*
X76199Y25399D02*
X76199Y25399D01*
X76199Y25401D01*
X76201Y25401D01*
X76201Y25399D01*
X76199Y25399D01*
G37*
%LPD*%
D10*
X15090Y449580D03*
X15090Y363220D03*
X56890Y363220D03*
X56890Y449580D03*
D11*
X76200Y25400D03*
X101600Y25400D03*
X127000Y25400D03*
X152400Y25400D03*
X177800Y25400D03*
X203200Y25400D03*
X228600Y25400D03*
X254000Y25400D03*
X304800Y25400D03*
X330200Y25400D03*
X355600Y25400D03*
X381000Y25400D03*
X406400Y25400D03*
X431800Y25400D03*
X457200Y25400D03*
X482600Y25400D03*
X269240Y367030D03*
X294640Y367030D03*
D12*
X701040Y184150D03*
X480060Y204470D03*
X297180Y574040D03*
X293370Y259080D03*
X203200Y449580D03*
X69850Y125730D03*
X80010Y97790D03*
X293370Y269240D03*
X480060Y160020D03*
X248920Y460836D03*
X429260Y562610D03*
X469900Y82550D03*
X436880Y405130D03*
X698500Y400050D03*
X568960Y298450D03*
X485140Y273050D03*
X570230Y342900D03*
X561340Y325120D03*
X607060Y531939D03*
X114300Y228600D03*
X139700Y228600D03*
X165100Y228600D03*
X190500Y228600D03*
X190500Y158750D03*
X165100Y157480D03*
X139700Y152400D03*
X114300Y152400D03*
X190500Y203200D03*
X190500Y177800D03*
X76200Y311150D03*
X368300Y596900D03*
X393700Y596900D03*
X38100Y508000D03*
X342900Y596900D03*
X336550Y259080D03*
X482600Y520700D03*
X457200Y127000D03*
X74930Y279400D03*
X66040Y152400D03*
X66040Y190500D03*
X66040Y241300D03*
X482600Y596900D03*
X825500Y266700D03*
X751840Y403860D03*
X330200Y558800D03*
X25400Y406400D03*
X8890Y406400D03*
X688340Y140970D03*
X703580Y149860D03*
X723900Y581660D03*
X558800Y524510D03*
X618490Y603250D03*
X276860Y485140D03*
X279400Y25400D03*
X41910Y82550D03*
X50800Y50800D03*
X12700Y76200D03*
X283210Y97790D03*
X641350Y509270D03*
X633730Y603250D03*
X749300Y546100D03*
X723900Y542290D03*
X744220Y372110D03*
X283210Y118110D03*
X345440Y96520D03*
X267970Y146050D03*
X345440Y172720D03*
X289560Y171450D03*
X262890Y443230D03*
X232410Y459740D03*
X373380Y345440D03*
X596900Y596900D03*
X825500Y546100D03*
X76200Y190500D03*
X774700Y584200D03*
X546100Y38100D03*
X533400Y76200D03*
X838200Y63500D03*
X190500Y254000D03*
X165100Y254000D03*
X584200Y12700D03*
X571500Y596900D03*
X533400Y596900D03*
X453390Y457200D03*
X368300Y520700D03*
X171450Y457200D03*
X635000Y533400D03*
X629920Y528320D03*
X640080Y528320D03*
X640080Y538480D03*
X629920Y538480D03*
X447040Y342900D03*
X355600Y392430D03*
X82550Y355600D03*
X532130Y516890D03*
X622300Y393700D03*
X577850Y414020D03*
X617220Y482600D03*
X330200Y435610D03*
X368300Y190500D03*
X469900Y177800D03*
X127000Y469900D03*
X101600Y469900D03*
X139700Y63500D03*
X114300Y63500D03*
X139700Y88900D03*
X190500Y63500D03*
X419100Y170180D03*
X317500Y342900D03*
X355600Y431800D03*
X454660Y407670D03*
X38100Y469900D03*
X825500Y317500D03*
X571500Y368300D03*
X825500Y419100D03*
X825500Y368300D03*
X457200Y266700D03*
X419100Y266700D03*
X415290Y408940D03*
X266700Y127000D03*
X524510Y464820D03*
X524510Y431800D03*
X524510Y393700D03*
X725170Y566420D03*
X577850Y353060D03*
X731520Y519430D03*
X750570Y417830D03*
X723900Y505460D03*
X659130Y461772D03*
X73660Y408940D03*
X73660Y398780D03*
X524510Y518160D03*
X660400Y515620D03*
X664591Y547370D03*
X678180Y579120D03*
X650240Y495300D03*
X699770Y387350D03*
X670560Y457200D03*
X556260Y582930D03*
X73660Y365760D03*
X73660Y388620D03*
X99060Y406400D03*
X300990Y426720D03*
X284480Y393700D03*
X46990Y406400D03*
X72390Y430530D03*
X105410Y364490D03*
X237490Y151130D03*
X270510Y208280D03*
X665480Y180340D03*
X139700Y307340D03*
X495300Y111760D03*
X107950Y261620D03*
X287020Y547370D03*
X673100Y143510D03*
X277100Y541020D03*
X101600Y306070D03*
X487680Y118110D03*
X95250Y256540D03*
X356870Y346710D03*
X247650Y400050D03*
X364490Y97790D03*
X342900Y46990D03*
X364490Y269240D03*
X635000Y563880D03*
X215900Y313690D03*
X598170Y532130D03*
X232410Y276860D03*
X223520Y261620D03*
X177800Y147320D03*
X469900Y118110D03*
X732032Y346710D03*
X165100Y142240D03*
X266700Y67310D03*
X567182Y316230D03*
X683260Y501650D03*
X659130Y469900D03*
X684530Y516890D03*
X744220Y387858D03*
X684530Y566420D03*
X571500Y381000D03*
X415290Y67310D03*
X243840Y132080D03*
X683260Y190500D03*
X469900Y93980D03*
X113030Y99060D03*
X704850Y444500D03*
X146050Y274320D03*
X497840Y337820D03*
X113538Y135890D03*
X146050Y262890D03*
X273050Y469900D03*
X269240Y247650D03*
X241300Y99060D03*
X614680Y518160D03*
X190500Y320040D03*
X269240Y260350D03*
X598170Y547370D03*
X203200Y278130D03*
X627380Y563880D03*
X176530Y313690D03*
X617220Y559101D03*
X165100Y307340D03*
X598170Y516890D03*
X88900Y276860D03*
X190500Y93980D03*
X214630Y100330D03*
X201930Y100330D03*
X273050Y297180D03*
X151130Y127000D03*
X589280Y455930D03*
X243836Y231140D03*
X391160Y154686D03*
X284480Y158750D03*
X275590Y67310D03*
X281940Y55118D03*
X146050Y132080D03*
X603885Y499745D03*
X549910Y589280D03*
X559507Y288997D03*
X525601Y308789D03*
X410210Y533400D03*
X386080Y582930D03*
X317500Y392430D03*
X358140Y373380D03*
X400050Y414020D03*
X364490Y342900D03*
X400050Y254000D03*
X393700Y8890D03*
X669290Y593090D03*
X671830Y535940D03*
X566420Y472440D03*
X683260Y542290D03*
X351790Y483870D03*
X367030Y483870D03*
X425450Y502920D03*
X374650Y502920D03*
X359410Y499110D03*
X425450Y457200D03*
X438150Y457200D03*
X336550Y488950D03*
M02*
