G04 EAGLE Gerber RS-274X export*
G75*
%MOMM*%
%FSLAX34Y34*%
%LPD*%
%INSoldermask Top*%
%IPPOS*%
%AMOC8*
5,1,8,0,0,1.08239X$1,22.5*%
G01*
%ADD10C,0.225400*%
%ADD11C,0.428259*%
%ADD12C,0.227100*%
%ADD13C,0.762000*%
%ADD14C,3.429000*%
%ADD15C,0.230578*%
%ADD16C,0.225369*%
%ADD17C,0.777000*%
%ADD18C,2.006600*%
%ADD19C,0.327000*%
%ADD20R,3.403600X3.378200*%
%ADD21C,0.225938*%
%ADD22C,0.233119*%
%ADD23C,0.223409*%
%ADD24C,0.231559*%
%ADD25C,0.225588*%
%ADD26C,0.226312*%
%ADD27C,0.224709*%
%ADD28C,0.222250*%
%ADD29C,1.905000*%
%ADD30C,0.231750*%
%ADD31C,0.222700*%
%ADD32C,0.226609*%
%ADD33R,1.590000X0.900000*%
%ADD34R,0.390000X0.700000*%
%ADD35R,1.830000X0.500000*%
%ADD36C,0.228600*%

G36*
X643516Y524656D02*
X643516Y524656D01*
X643533Y524653D01*
X643583Y524675D01*
X643634Y524690D01*
X643645Y524703D01*
X643661Y524710D01*
X643691Y524755D01*
X643726Y524795D01*
X643729Y524812D01*
X643738Y524827D01*
X643749Y524900D01*
X643749Y538400D01*
X643732Y538458D01*
X643720Y538516D01*
X643712Y538528D01*
X643710Y538534D01*
X643702Y538541D01*
X643676Y538576D01*
X640176Y542076D01*
X640124Y542105D01*
X640074Y542138D01*
X640059Y542140D01*
X640054Y542143D01*
X640043Y542143D01*
X640000Y542149D01*
X626500Y542149D01*
X626484Y542144D01*
X626467Y542147D01*
X626417Y542125D01*
X626366Y542110D01*
X626355Y542097D01*
X626339Y542090D01*
X626309Y542045D01*
X626274Y542005D01*
X626271Y541988D01*
X626262Y541974D01*
X626251Y541900D01*
X626251Y524900D01*
X626256Y524884D01*
X626253Y524867D01*
X626275Y524817D01*
X626290Y524766D01*
X626303Y524755D01*
X626310Y524739D01*
X626355Y524709D01*
X626395Y524674D01*
X626412Y524671D01*
X626427Y524662D01*
X626500Y524651D01*
X643500Y524651D01*
X643516Y524656D01*
G37*
G36*
X62844Y443554D02*
X62844Y443554D01*
X62847Y443551D01*
X63969Y443706D01*
X63974Y443711D01*
X63978Y443708D01*
X65049Y444079D01*
X65053Y444085D01*
X65058Y444083D01*
X66035Y444656D01*
X66038Y444662D01*
X66043Y444661D01*
X66890Y445414D01*
X66892Y445421D01*
X66897Y445421D01*
X67581Y446324D01*
X67581Y446331D01*
X67586Y446332D01*
X68081Y447351D01*
X68079Y447358D01*
X68084Y447360D01*
X68371Y448457D01*
X68369Y448461D01*
X68371Y448462D01*
X68369Y448464D01*
X68372Y448466D01*
X68439Y449597D01*
X68437Y449601D01*
X68439Y449603D01*
X68372Y450734D01*
X68367Y450739D01*
X68371Y450743D01*
X68084Y451840D01*
X68078Y451844D01*
X68081Y451849D01*
X67586Y452868D01*
X67580Y452871D01*
X67581Y452876D01*
X66897Y453779D01*
X66890Y453781D01*
X66890Y453786D01*
X66043Y454539D01*
X66036Y454539D01*
X66035Y454544D01*
X65058Y455117D01*
X65051Y455116D01*
X65049Y455121D01*
X63978Y455492D01*
X63972Y455489D01*
X63969Y455494D01*
X62847Y455649D01*
X62842Y455646D01*
X62840Y455649D01*
X50840Y455649D01*
X50835Y455646D01*
X50832Y455649D01*
X49565Y455444D01*
X49559Y455438D01*
X49555Y455441D01*
X48365Y454959D01*
X48361Y454952D01*
X48355Y454954D01*
X47302Y454220D01*
X47300Y454212D01*
X47294Y454213D01*
X46431Y453263D01*
X46430Y453254D01*
X46425Y453254D01*
X45795Y452135D01*
X45796Y452127D01*
X45790Y452125D01*
X45425Y450895D01*
X45428Y450887D01*
X45423Y450884D01*
X45341Y449603D01*
X45344Y449599D01*
X45341Y449597D01*
X45423Y448316D01*
X45429Y448310D01*
X45425Y448305D01*
X45790Y447075D01*
X45797Y447070D01*
X45795Y447065D01*
X46425Y445946D01*
X46432Y445943D01*
X46431Y445937D01*
X47294Y444987D01*
X47302Y444986D01*
X47302Y444980D01*
X48355Y444246D01*
X48363Y444246D01*
X48365Y444241D01*
X49555Y443759D01*
X49562Y443761D01*
X49565Y443756D01*
X50832Y443551D01*
X50837Y443554D01*
X50840Y443551D01*
X62840Y443551D01*
X62844Y443554D01*
G37*
G36*
X62844Y357154D02*
X62844Y357154D01*
X62847Y357151D01*
X63969Y357306D01*
X63974Y357311D01*
X63978Y357308D01*
X65049Y357679D01*
X65053Y357685D01*
X65058Y357683D01*
X66035Y358256D01*
X66038Y358262D01*
X66043Y358261D01*
X66890Y359014D01*
X66892Y359021D01*
X66897Y359021D01*
X67581Y359924D01*
X67581Y359931D01*
X67586Y359932D01*
X68081Y360951D01*
X68079Y360958D01*
X68084Y360960D01*
X68371Y362057D01*
X68369Y362061D01*
X68371Y362062D01*
X68369Y362064D01*
X68372Y362066D01*
X68439Y363197D01*
X68437Y363201D01*
X68439Y363203D01*
X68372Y364334D01*
X68367Y364339D01*
X68371Y364343D01*
X68084Y365440D01*
X68078Y365444D01*
X68081Y365449D01*
X67586Y366468D01*
X67580Y366471D01*
X67581Y366476D01*
X66897Y367379D01*
X66890Y367381D01*
X66890Y367386D01*
X66043Y368139D01*
X66036Y368139D01*
X66035Y368144D01*
X65058Y368717D01*
X65051Y368716D01*
X65049Y368721D01*
X63978Y369092D01*
X63972Y369089D01*
X63969Y369094D01*
X62847Y369249D01*
X62842Y369246D01*
X62840Y369249D01*
X50840Y369249D01*
X50835Y369246D01*
X50832Y369249D01*
X49565Y369044D01*
X49559Y369038D01*
X49555Y369041D01*
X48365Y368559D01*
X48361Y368552D01*
X48355Y368554D01*
X47302Y367820D01*
X47300Y367812D01*
X47294Y367813D01*
X46431Y366863D01*
X46430Y366854D01*
X46425Y366854D01*
X45795Y365735D01*
X45796Y365727D01*
X45790Y365725D01*
X45425Y364495D01*
X45428Y364487D01*
X45423Y364484D01*
X45341Y363203D01*
X45344Y363199D01*
X45341Y363197D01*
X45423Y361916D01*
X45429Y361910D01*
X45425Y361905D01*
X45790Y360675D01*
X45797Y360670D01*
X45795Y360665D01*
X46425Y359546D01*
X46432Y359543D01*
X46431Y359537D01*
X47294Y358587D01*
X47302Y358586D01*
X47302Y358580D01*
X48355Y357846D01*
X48363Y357846D01*
X48365Y357841D01*
X49555Y357359D01*
X49562Y357361D01*
X49565Y357356D01*
X50832Y357151D01*
X50837Y357154D01*
X50840Y357151D01*
X62840Y357151D01*
X62844Y357154D01*
G37*
G36*
X18043Y443553D02*
X18043Y443553D01*
X18045Y443551D01*
X19221Y443662D01*
X19226Y443667D01*
X19230Y443664D01*
X20362Y444002D01*
X20366Y444008D01*
X20371Y444006D01*
X21415Y444558D01*
X21418Y444565D01*
X21423Y444563D01*
X22339Y445309D01*
X22340Y445316D01*
X22346Y445316D01*
X23099Y446226D01*
X23099Y446233D01*
X23104Y446234D01*
X23665Y447273D01*
X23664Y447278D01*
X23668Y447280D01*
X23667Y447281D01*
X23669Y447282D01*
X24016Y448411D01*
X24016Y448412D01*
X24017Y448413D01*
X24014Y448417D01*
X24018Y448420D01*
X24139Y449595D01*
X24135Y449602D01*
X24139Y449606D01*
X23982Y450946D01*
X23977Y450952D01*
X23980Y450957D01*
X23529Y452228D01*
X23522Y452233D01*
X23524Y452238D01*
X22802Y453377D01*
X22794Y453380D01*
X22795Y453386D01*
X21837Y454336D01*
X21829Y454337D01*
X21828Y454343D01*
X20683Y455056D01*
X20675Y455055D01*
X20673Y455061D01*
X19397Y455501D01*
X19390Y455499D01*
X19387Y455503D01*
X18045Y455649D01*
X18042Y455647D01*
X18040Y455649D01*
X12040Y455649D01*
X12037Y455647D01*
X12034Y455649D01*
X10705Y455494D01*
X10699Y455488D01*
X10695Y455491D01*
X9434Y455044D01*
X9429Y455037D01*
X9424Y455039D01*
X8294Y454322D01*
X8291Y454315D01*
X8285Y454316D01*
X7343Y453366D01*
X7342Y453357D01*
X7336Y453357D01*
X6629Y452221D01*
X6630Y452213D01*
X6624Y452211D01*
X6188Y450946D01*
X6190Y450938D01*
X6185Y450936D01*
X6041Y449605D01*
X6045Y449599D01*
X6041Y449595D01*
X6151Y448429D01*
X6156Y448424D01*
X6153Y448420D01*
X6488Y447297D01*
X6494Y447293D01*
X6492Y447289D01*
X7040Y446253D01*
X7046Y446250D01*
X7045Y446245D01*
X7784Y445337D01*
X7791Y445335D01*
X7791Y445330D01*
X8693Y444583D01*
X8701Y444583D01*
X8701Y444578D01*
X9732Y444021D01*
X9739Y444022D01*
X9741Y444017D01*
X10860Y443673D01*
X10867Y443675D01*
X10870Y443671D01*
X12035Y443551D01*
X12038Y443553D01*
X12040Y443551D01*
X18040Y443551D01*
X18043Y443553D01*
G37*
G36*
X18043Y357153D02*
X18043Y357153D01*
X18045Y357151D01*
X19221Y357262D01*
X19226Y357267D01*
X19230Y357264D01*
X20362Y357602D01*
X20366Y357608D01*
X20371Y357606D01*
X21415Y358158D01*
X21418Y358165D01*
X21423Y358163D01*
X22339Y358909D01*
X22340Y358916D01*
X22346Y358916D01*
X23099Y359826D01*
X23099Y359833D01*
X23104Y359834D01*
X23665Y360873D01*
X23664Y360878D01*
X23668Y360880D01*
X23667Y360881D01*
X23669Y360882D01*
X24016Y362011D01*
X24016Y362012D01*
X24017Y362013D01*
X24014Y362017D01*
X24018Y362020D01*
X24139Y363195D01*
X24135Y363202D01*
X24139Y363206D01*
X23982Y364546D01*
X23977Y364552D01*
X23980Y364557D01*
X23529Y365828D01*
X23522Y365833D01*
X23524Y365838D01*
X22802Y366977D01*
X22794Y366980D01*
X22795Y366986D01*
X21837Y367936D01*
X21829Y367937D01*
X21828Y367943D01*
X20683Y368656D01*
X20675Y368655D01*
X20673Y368661D01*
X19397Y369101D01*
X19390Y369099D01*
X19387Y369103D01*
X18045Y369249D01*
X18042Y369247D01*
X18040Y369249D01*
X12040Y369249D01*
X12037Y369247D01*
X12034Y369249D01*
X10705Y369094D01*
X10699Y369088D01*
X10695Y369091D01*
X9434Y368644D01*
X9429Y368637D01*
X9424Y368639D01*
X8294Y367922D01*
X8291Y367915D01*
X8285Y367916D01*
X7343Y366966D01*
X7342Y366957D01*
X7336Y366957D01*
X6629Y365821D01*
X6630Y365813D01*
X6624Y365811D01*
X6188Y364546D01*
X6190Y364538D01*
X6185Y364536D01*
X6041Y363205D01*
X6045Y363199D01*
X6041Y363195D01*
X6151Y362029D01*
X6156Y362024D01*
X6153Y362020D01*
X6488Y360897D01*
X6494Y360893D01*
X6492Y360889D01*
X7040Y359853D01*
X7046Y359850D01*
X7045Y359845D01*
X7784Y358937D01*
X7791Y358935D01*
X7791Y358930D01*
X8693Y358183D01*
X8701Y358183D01*
X8701Y358178D01*
X9732Y357621D01*
X9739Y357622D01*
X9741Y357617D01*
X10860Y357273D01*
X10867Y357275D01*
X10870Y357271D01*
X12035Y357151D01*
X12038Y357153D01*
X12040Y357151D01*
X18040Y357151D01*
X18043Y357153D01*
G37*
D10*
X208598Y455232D02*
X198582Y455232D01*
X198582Y464248D01*
X208598Y464248D01*
X208598Y455232D01*
X208598Y457373D02*
X198582Y457373D01*
X198582Y459514D02*
X208598Y459514D01*
X208598Y461655D02*
X198582Y461655D01*
X198582Y463796D02*
X208598Y463796D01*
X215582Y455232D02*
X225598Y455232D01*
X215582Y455232D02*
X215582Y464248D01*
X225598Y464248D01*
X225598Y455232D01*
X225598Y457373D02*
X215582Y457373D01*
X215582Y459514D02*
X225598Y459514D01*
X225598Y461655D02*
X215582Y461655D01*
X215582Y463796D02*
X225598Y463796D01*
X690072Y530162D02*
X700088Y530162D01*
X690072Y530162D02*
X690072Y539178D01*
X700088Y539178D01*
X700088Y530162D01*
X700088Y532303D02*
X690072Y532303D01*
X690072Y534444D02*
X700088Y534444D01*
X700088Y536585D02*
X690072Y536585D01*
X690072Y538726D02*
X700088Y538726D01*
X707072Y530162D02*
X717088Y530162D01*
X707072Y530162D02*
X707072Y539178D01*
X717088Y539178D01*
X717088Y530162D01*
X717088Y532303D02*
X707072Y532303D01*
X707072Y534444D02*
X717088Y534444D01*
X717088Y536585D02*
X707072Y536585D01*
X707072Y538726D02*
X717088Y538726D01*
X700088Y545402D02*
X690072Y545402D01*
X690072Y554418D01*
X700088Y554418D01*
X700088Y545402D01*
X700088Y547543D02*
X690072Y547543D01*
X690072Y549684D02*
X700088Y549684D01*
X700088Y551825D02*
X690072Y551825D01*
X690072Y553966D02*
X700088Y553966D01*
X707072Y545402D02*
X717088Y545402D01*
X707072Y545402D02*
X707072Y554418D01*
X717088Y554418D01*
X717088Y545402D01*
X717088Y547543D02*
X707072Y547543D01*
X707072Y549684D02*
X717088Y549684D01*
X717088Y551825D02*
X707072Y551825D01*
X707072Y553966D02*
X717088Y553966D01*
X652082Y587692D02*
X652082Y597708D01*
X661098Y597708D01*
X661098Y587692D01*
X652082Y587692D01*
X652082Y589833D02*
X661098Y589833D01*
X661098Y591974D02*
X652082Y591974D01*
X652082Y594115D02*
X661098Y594115D01*
X661098Y596256D02*
X652082Y596256D01*
X652082Y580708D02*
X652082Y570692D01*
X652082Y580708D02*
X661098Y580708D01*
X661098Y570692D01*
X652082Y570692D01*
X652082Y572833D02*
X661098Y572833D01*
X661098Y574974D02*
X652082Y574974D01*
X652082Y577115D02*
X661098Y577115D01*
X661098Y579256D02*
X652082Y579256D01*
X639618Y498538D02*
X629602Y498538D01*
X639618Y498538D02*
X639618Y489522D01*
X629602Y489522D01*
X629602Y498538D01*
X629602Y491663D02*
X639618Y491663D01*
X639618Y493804D02*
X629602Y493804D01*
X629602Y495945D02*
X639618Y495945D01*
X639618Y498086D02*
X629602Y498086D01*
X622618Y498538D02*
X612602Y498538D01*
X622618Y498538D02*
X622618Y489522D01*
X612602Y489522D01*
X612602Y498538D01*
X612602Y491663D02*
X622618Y491663D01*
X622618Y493804D02*
X612602Y493804D01*
X612602Y495945D02*
X622618Y495945D01*
X622618Y498086D02*
X612602Y498086D01*
D11*
X528124Y551496D02*
X528124Y558484D01*
X528124Y551496D02*
X521136Y551496D01*
X521136Y558484D01*
X528124Y558484D01*
X528124Y555565D02*
X521136Y555565D01*
X545664Y558484D02*
X545664Y551496D01*
X538676Y551496D01*
X538676Y558484D01*
X545664Y558484D01*
X545664Y555565D02*
X538676Y555565D01*
D12*
X542250Y454500D02*
X547550Y454500D01*
X547550Y447200D01*
X542250Y447200D01*
X542250Y454500D01*
X542250Y449357D02*
X547550Y449357D01*
X547550Y451514D02*
X542250Y451514D01*
X542250Y453671D02*
X547550Y453671D01*
X524550Y454500D02*
X519250Y454500D01*
X524550Y454500D02*
X524550Y447200D01*
X519250Y447200D01*
X519250Y454500D01*
X519250Y449357D02*
X524550Y449357D01*
X524550Y451514D02*
X519250Y451514D01*
X519250Y453671D02*
X524550Y453671D01*
D13*
X787400Y12700D03*
X63500Y596900D03*
D14*
X825500Y25400D03*
X825500Y584200D03*
X25400Y584200D03*
X25400Y25400D03*
D15*
X58158Y397918D02*
X58158Y399882D01*
X67122Y399882D01*
X67122Y397918D01*
X58158Y397918D01*
X58158Y402918D02*
X58158Y404882D01*
X67122Y404882D01*
X67122Y402918D01*
X58158Y402918D01*
D16*
X58132Y376658D02*
X58132Y371642D01*
X58132Y376658D02*
X67148Y376658D01*
X67148Y371642D01*
X58132Y371642D01*
X58132Y373783D02*
X67148Y373783D01*
X67148Y375924D02*
X58132Y375924D01*
X58132Y379392D02*
X58132Y384408D01*
X67148Y384408D01*
X67148Y379392D01*
X58132Y379392D01*
X58132Y381533D02*
X67148Y381533D01*
X67148Y383674D02*
X58132Y383674D01*
D15*
X58158Y387918D02*
X58158Y389882D01*
X67122Y389882D01*
X67122Y387918D01*
X58158Y387918D01*
X58158Y392918D02*
X58158Y394882D01*
X67122Y394882D01*
X67122Y392918D01*
X58158Y392918D01*
X67122Y412918D02*
X67122Y414882D01*
X67122Y412918D02*
X58158Y412918D01*
X58158Y414882D01*
X67122Y414882D01*
X67122Y409882D02*
X67122Y407918D01*
X58158Y407918D01*
X58158Y409882D01*
X67122Y409882D01*
D16*
X67148Y436142D02*
X67148Y441158D01*
X67148Y436142D02*
X58132Y436142D01*
X58132Y441158D01*
X67148Y441158D01*
X67148Y438283D02*
X58132Y438283D01*
X58132Y440424D02*
X67148Y440424D01*
X67148Y433408D02*
X67148Y428392D01*
X58132Y428392D01*
X58132Y433408D01*
X67148Y433408D01*
X67148Y430533D02*
X58132Y430533D01*
X58132Y432674D02*
X67148Y432674D01*
D15*
X67122Y424882D02*
X67122Y422918D01*
X58158Y422918D01*
X58158Y424882D01*
X67122Y424882D01*
X67122Y419882D02*
X67122Y417918D01*
X58158Y417918D01*
X58158Y419882D01*
X67122Y419882D01*
D17*
X51590Y435300D03*
X51590Y377500D03*
D18*
X76200Y25400D03*
X101600Y25400D03*
X127000Y25400D03*
X152400Y25400D03*
X177800Y25400D03*
X203200Y25400D03*
X228600Y25400D03*
X254000Y25400D03*
X304800Y25400D03*
X330200Y25400D03*
X355600Y25400D03*
X381000Y25400D03*
X406400Y25400D03*
X431800Y25400D03*
X457200Y25400D03*
X482600Y25400D03*
D10*
X621602Y587692D02*
X621602Y597708D01*
X630618Y597708D01*
X630618Y587692D01*
X621602Y587692D01*
X621602Y589833D02*
X630618Y589833D01*
X630618Y591974D02*
X621602Y591974D01*
X621602Y594115D02*
X630618Y594115D01*
X630618Y596256D02*
X621602Y596256D01*
X621602Y580708D02*
X621602Y570692D01*
X621602Y580708D02*
X630618Y580708D01*
X630618Y570692D01*
X621602Y570692D01*
X621602Y572833D02*
X630618Y572833D01*
X630618Y574974D02*
X621602Y574974D01*
X621602Y577115D02*
X630618Y577115D01*
X630618Y579256D02*
X621602Y579256D01*
X574358Y542862D02*
X564342Y542862D01*
X564342Y551878D01*
X574358Y551878D01*
X574358Y542862D01*
X574358Y545003D02*
X564342Y545003D01*
X564342Y547144D02*
X574358Y547144D01*
X574358Y549285D02*
X564342Y549285D01*
X564342Y551426D02*
X574358Y551426D01*
X581342Y542862D02*
X591358Y542862D01*
X581342Y542862D02*
X581342Y551878D01*
X591358Y551878D01*
X591358Y542862D01*
X591358Y545003D02*
X581342Y545003D01*
X581342Y547144D02*
X591358Y547144D01*
X591358Y549285D02*
X581342Y549285D01*
X581342Y551426D02*
X591358Y551426D01*
X636842Y587692D02*
X636842Y597708D01*
X645858Y597708D01*
X645858Y587692D01*
X636842Y587692D01*
X636842Y589833D02*
X645858Y589833D01*
X645858Y591974D02*
X636842Y591974D01*
X636842Y594115D02*
X645858Y594115D01*
X645858Y596256D02*
X636842Y596256D01*
X636842Y580708D02*
X636842Y570692D01*
X636842Y580708D02*
X645858Y580708D01*
X645858Y570692D01*
X636842Y570692D01*
X636842Y572833D02*
X645858Y572833D01*
X645858Y574974D02*
X636842Y574974D01*
X636842Y577115D02*
X645858Y577115D01*
X645858Y579256D02*
X636842Y579256D01*
X529908Y474282D02*
X519892Y474282D01*
X519892Y483298D01*
X529908Y483298D01*
X529908Y474282D01*
X529908Y476423D02*
X519892Y476423D01*
X519892Y478564D02*
X529908Y478564D01*
X529908Y480705D02*
X519892Y480705D01*
X519892Y482846D02*
X529908Y482846D01*
X536892Y474282D02*
X546908Y474282D01*
X536892Y474282D02*
X536892Y483298D01*
X546908Y483298D01*
X546908Y474282D01*
X546908Y476423D02*
X536892Y476423D01*
X536892Y478564D02*
X546908Y478564D01*
X546908Y480705D02*
X536892Y480705D01*
X536892Y482846D02*
X546908Y482846D01*
X707072Y586168D02*
X717088Y586168D01*
X717088Y577152D01*
X707072Y577152D01*
X707072Y586168D01*
X707072Y579293D02*
X717088Y579293D01*
X717088Y581434D02*
X707072Y581434D01*
X707072Y583575D02*
X717088Y583575D01*
X717088Y585716D02*
X707072Y585716D01*
X700088Y586168D02*
X690072Y586168D01*
X700088Y586168D02*
X700088Y577152D01*
X690072Y577152D01*
X690072Y586168D01*
X690072Y579293D02*
X700088Y579293D01*
X700088Y581434D02*
X690072Y581434D01*
X690072Y583575D02*
X700088Y583575D01*
X700088Y585716D02*
X690072Y585716D01*
X546908Y544258D02*
X536892Y544258D01*
X546908Y544258D02*
X546908Y535242D01*
X536892Y535242D01*
X536892Y544258D01*
X536892Y537383D02*
X546908Y537383D01*
X546908Y539524D02*
X536892Y539524D01*
X536892Y541665D02*
X546908Y541665D01*
X546908Y543806D02*
X536892Y543806D01*
X529908Y544258D02*
X519892Y544258D01*
X529908Y544258D02*
X529908Y535242D01*
X519892Y535242D01*
X519892Y544258D01*
X519892Y537383D02*
X529908Y537383D01*
X529908Y539524D02*
X519892Y539524D01*
X519892Y541665D02*
X529908Y541665D01*
X529908Y543806D02*
X519892Y543806D01*
X47308Y325692D02*
X37292Y325692D01*
X37292Y334708D01*
X47308Y334708D01*
X47308Y325692D01*
X47308Y327833D02*
X37292Y327833D01*
X37292Y329974D02*
X47308Y329974D01*
X47308Y332115D02*
X37292Y332115D01*
X37292Y334256D02*
X47308Y334256D01*
X54292Y325692D02*
X64308Y325692D01*
X54292Y325692D02*
X54292Y334708D01*
X64308Y334708D01*
X64308Y325692D01*
X64308Y327833D02*
X54292Y327833D01*
X54292Y329974D02*
X64308Y329974D01*
X64308Y332115D02*
X54292Y332115D01*
X54292Y334256D02*
X64308Y334256D01*
X97092Y447992D02*
X97092Y458008D01*
X106108Y458008D01*
X106108Y447992D01*
X97092Y447992D01*
X97092Y450133D02*
X106108Y450133D01*
X106108Y452274D02*
X97092Y452274D01*
X97092Y454415D02*
X106108Y454415D01*
X106108Y456556D02*
X97092Y456556D01*
X97092Y441008D02*
X97092Y430992D01*
X97092Y441008D02*
X106108Y441008D01*
X106108Y430992D01*
X97092Y430992D01*
X97092Y433133D02*
X106108Y433133D01*
X106108Y435274D02*
X97092Y435274D01*
X97092Y437415D02*
X106108Y437415D01*
X106108Y439556D02*
X97092Y439556D01*
X564342Y527622D02*
X574358Y527622D01*
X564342Y527622D02*
X564342Y536638D01*
X574358Y536638D01*
X574358Y527622D01*
X574358Y529763D02*
X564342Y529763D01*
X564342Y531904D02*
X574358Y531904D01*
X574358Y534045D02*
X564342Y534045D01*
X564342Y536186D02*
X574358Y536186D01*
X581342Y527622D02*
X591358Y527622D01*
X581342Y527622D02*
X581342Y536638D01*
X591358Y536638D01*
X591358Y527622D01*
X591358Y529763D02*
X581342Y529763D01*
X581342Y531904D02*
X591358Y531904D01*
X591358Y534045D02*
X581342Y534045D01*
X581342Y536186D02*
X591358Y536186D01*
X606362Y587692D02*
X606362Y597708D01*
X615378Y597708D01*
X615378Y587692D01*
X606362Y587692D01*
X606362Y589833D02*
X615378Y589833D01*
X615378Y591974D02*
X606362Y591974D01*
X606362Y594115D02*
X615378Y594115D01*
X615378Y596256D02*
X606362Y596256D01*
X606362Y580708D02*
X606362Y570692D01*
X606362Y580708D02*
X615378Y580708D01*
X615378Y570692D01*
X606362Y570692D01*
X606362Y572833D02*
X615378Y572833D01*
X615378Y574974D02*
X606362Y574974D01*
X606362Y577115D02*
X615378Y577115D01*
X615378Y579256D02*
X606362Y579256D01*
X574358Y512382D02*
X564342Y512382D01*
X564342Y521398D01*
X574358Y521398D01*
X574358Y512382D01*
X574358Y514523D02*
X564342Y514523D01*
X564342Y516664D02*
X574358Y516664D01*
X574358Y518805D02*
X564342Y518805D01*
X564342Y520946D02*
X574358Y520946D01*
X581342Y512382D02*
X591358Y512382D01*
X581342Y512382D02*
X581342Y521398D01*
X591358Y521398D01*
X591358Y512382D01*
X591358Y514523D02*
X581342Y514523D01*
X581342Y516664D02*
X591358Y516664D01*
X591358Y518805D02*
X581342Y518805D01*
X581342Y520946D02*
X591358Y520946D01*
D19*
X647000Y533400D02*
X651000Y533400D01*
X651000Y541400D02*
X647000Y541400D01*
X647000Y525400D02*
X651000Y525400D01*
X651000Y537400D02*
X647000Y537400D01*
X647000Y529400D02*
X651000Y529400D01*
X635000Y545400D02*
X635000Y549400D01*
X627000Y549400D02*
X627000Y545400D01*
X643000Y545400D02*
X643000Y549400D01*
X631000Y549400D02*
X631000Y545400D01*
X639000Y545400D02*
X639000Y549400D01*
X635000Y521400D02*
X635000Y517400D01*
X643000Y517400D02*
X643000Y521400D01*
X627000Y521400D02*
X627000Y517400D01*
X639000Y517400D02*
X639000Y521400D01*
X631000Y521400D02*
X631000Y517400D01*
X623000Y533400D02*
X619000Y533400D01*
X619000Y525400D02*
X623000Y525400D01*
X623000Y541400D02*
X619000Y541400D01*
X619000Y529400D02*
X623000Y529400D01*
X623000Y537400D02*
X619000Y537400D01*
D20*
X635000Y533273D03*
D21*
X79406Y120206D02*
X71394Y120206D01*
X79406Y120206D02*
X79406Y106194D01*
X71394Y106194D01*
X71394Y120206D01*
X71394Y108340D02*
X79406Y108340D01*
X79406Y110486D02*
X71394Y110486D01*
X71394Y112632D02*
X79406Y112632D01*
X79406Y114778D02*
X71394Y114778D01*
X71394Y116924D02*
X79406Y116924D01*
X79406Y119070D02*
X71394Y119070D01*
X84094Y120206D02*
X92106Y120206D01*
X92106Y106194D01*
X84094Y106194D01*
X84094Y120206D01*
X84094Y108340D02*
X92106Y108340D01*
X92106Y110486D02*
X84094Y110486D01*
X84094Y112632D02*
X92106Y112632D01*
X92106Y114778D02*
X84094Y114778D01*
X84094Y116924D02*
X92106Y116924D01*
X92106Y119070D02*
X84094Y119070D01*
X96794Y120206D02*
X104806Y120206D01*
X104806Y106194D01*
X96794Y106194D01*
X96794Y120206D01*
X96794Y108340D02*
X104806Y108340D01*
X104806Y110486D02*
X96794Y110486D01*
X96794Y112632D02*
X104806Y112632D01*
X104806Y114778D02*
X96794Y114778D01*
X96794Y116924D02*
X104806Y116924D01*
X104806Y119070D02*
X96794Y119070D01*
X109494Y120206D02*
X117506Y120206D01*
X117506Y106194D01*
X109494Y106194D01*
X109494Y120206D01*
X109494Y108340D02*
X117506Y108340D01*
X117506Y110486D02*
X109494Y110486D01*
X109494Y112632D02*
X117506Y112632D01*
X117506Y114778D02*
X109494Y114778D01*
X109494Y116924D02*
X117506Y116924D01*
X117506Y119070D02*
X109494Y119070D01*
X122194Y120206D02*
X130206Y120206D01*
X130206Y106194D01*
X122194Y106194D01*
X122194Y120206D01*
X122194Y108340D02*
X130206Y108340D01*
X130206Y110486D02*
X122194Y110486D01*
X122194Y112632D02*
X130206Y112632D01*
X130206Y114778D02*
X122194Y114778D01*
X122194Y116924D02*
X130206Y116924D01*
X130206Y119070D02*
X122194Y119070D01*
X134894Y120206D02*
X142906Y120206D01*
X142906Y106194D01*
X134894Y106194D01*
X134894Y120206D01*
X134894Y108340D02*
X142906Y108340D01*
X142906Y110486D02*
X134894Y110486D01*
X134894Y112632D02*
X142906Y112632D01*
X142906Y114778D02*
X134894Y114778D01*
X134894Y116924D02*
X142906Y116924D01*
X142906Y119070D02*
X134894Y119070D01*
X147594Y120206D02*
X155606Y120206D01*
X155606Y106194D01*
X147594Y106194D01*
X147594Y120206D01*
X147594Y108340D02*
X155606Y108340D01*
X155606Y110486D02*
X147594Y110486D01*
X147594Y112632D02*
X155606Y112632D01*
X155606Y114778D02*
X147594Y114778D01*
X147594Y116924D02*
X155606Y116924D01*
X155606Y119070D02*
X147594Y119070D01*
X160294Y120206D02*
X168306Y120206D01*
X168306Y106194D01*
X160294Y106194D01*
X160294Y120206D01*
X160294Y108340D02*
X168306Y108340D01*
X168306Y110486D02*
X160294Y110486D01*
X160294Y112632D02*
X168306Y112632D01*
X168306Y114778D02*
X160294Y114778D01*
X160294Y116924D02*
X168306Y116924D01*
X168306Y119070D02*
X160294Y119070D01*
X172994Y120206D02*
X181006Y120206D01*
X181006Y106194D01*
X172994Y106194D01*
X172994Y120206D01*
X172994Y108340D02*
X181006Y108340D01*
X181006Y110486D02*
X172994Y110486D01*
X172994Y112632D02*
X181006Y112632D01*
X181006Y114778D02*
X172994Y114778D01*
X172994Y116924D02*
X181006Y116924D01*
X181006Y119070D02*
X172994Y119070D01*
X185694Y120206D02*
X193706Y120206D01*
X193706Y106194D01*
X185694Y106194D01*
X185694Y120206D01*
X185694Y108340D02*
X193706Y108340D01*
X193706Y110486D02*
X185694Y110486D01*
X185694Y112632D02*
X193706Y112632D01*
X193706Y114778D02*
X185694Y114778D01*
X185694Y116924D02*
X193706Y116924D01*
X193706Y119070D02*
X185694Y119070D01*
X198394Y120206D02*
X206406Y120206D01*
X206406Y106194D01*
X198394Y106194D01*
X198394Y120206D01*
X198394Y108340D02*
X206406Y108340D01*
X206406Y110486D02*
X198394Y110486D01*
X198394Y112632D02*
X206406Y112632D01*
X206406Y114778D02*
X198394Y114778D01*
X198394Y116924D02*
X206406Y116924D01*
X206406Y119070D02*
X198394Y119070D01*
X211094Y120206D02*
X219106Y120206D01*
X219106Y106194D01*
X211094Y106194D01*
X211094Y120206D01*
X211094Y108340D02*
X219106Y108340D01*
X219106Y110486D02*
X211094Y110486D01*
X211094Y112632D02*
X219106Y112632D01*
X219106Y114778D02*
X211094Y114778D01*
X211094Y116924D02*
X219106Y116924D01*
X219106Y119070D02*
X211094Y119070D01*
X223794Y120206D02*
X231806Y120206D01*
X231806Y106194D01*
X223794Y106194D01*
X223794Y120206D01*
X223794Y108340D02*
X231806Y108340D01*
X231806Y110486D02*
X223794Y110486D01*
X223794Y112632D02*
X231806Y112632D01*
X231806Y114778D02*
X223794Y114778D01*
X223794Y116924D02*
X231806Y116924D01*
X231806Y119070D02*
X223794Y119070D01*
X236494Y120206D02*
X244506Y120206D01*
X244506Y106194D01*
X236494Y106194D01*
X236494Y120206D01*
X236494Y108340D02*
X244506Y108340D01*
X244506Y110486D02*
X236494Y110486D01*
X236494Y112632D02*
X244506Y112632D01*
X244506Y114778D02*
X236494Y114778D01*
X236494Y116924D02*
X244506Y116924D01*
X244506Y119070D02*
X236494Y119070D01*
X248394Y142044D02*
X248394Y150056D01*
X262406Y150056D01*
X262406Y142044D01*
X248394Y142044D01*
X248394Y144190D02*
X262406Y144190D01*
X262406Y146336D02*
X248394Y146336D01*
X248394Y148482D02*
X262406Y148482D01*
X248394Y154744D02*
X248394Y162756D01*
X262406Y162756D01*
X262406Y154744D01*
X248394Y154744D01*
X248394Y156890D02*
X262406Y156890D01*
X262406Y159036D02*
X248394Y159036D01*
X248394Y161182D02*
X262406Y161182D01*
X248394Y167444D02*
X248394Y175456D01*
X262406Y175456D01*
X262406Y167444D01*
X248394Y167444D01*
X248394Y169590D02*
X262406Y169590D01*
X262406Y171736D02*
X248394Y171736D01*
X248394Y173882D02*
X262406Y173882D01*
X248394Y180144D02*
X248394Y188156D01*
X262406Y188156D01*
X262406Y180144D01*
X248394Y180144D01*
X248394Y182290D02*
X262406Y182290D01*
X262406Y184436D02*
X248394Y184436D01*
X248394Y186582D02*
X262406Y186582D01*
X248394Y192844D02*
X248394Y200856D01*
X262406Y200856D01*
X262406Y192844D01*
X248394Y192844D01*
X248394Y194990D02*
X262406Y194990D01*
X262406Y197136D02*
X248394Y197136D01*
X248394Y199282D02*
X262406Y199282D01*
X248394Y205544D02*
X248394Y213556D01*
X262406Y213556D01*
X262406Y205544D01*
X248394Y205544D01*
X248394Y207690D02*
X262406Y207690D01*
X262406Y209836D02*
X248394Y209836D01*
X248394Y211982D02*
X262406Y211982D01*
X248394Y218244D02*
X248394Y226256D01*
X262406Y226256D01*
X262406Y218244D01*
X248394Y218244D01*
X248394Y220390D02*
X262406Y220390D01*
X262406Y222536D02*
X248394Y222536D01*
X248394Y224682D02*
X262406Y224682D01*
X248394Y230944D02*
X248394Y238956D01*
X262406Y238956D01*
X262406Y230944D01*
X248394Y230944D01*
X248394Y233090D02*
X262406Y233090D01*
X262406Y235236D02*
X248394Y235236D01*
X248394Y237382D02*
X262406Y237382D01*
X248394Y243644D02*
X248394Y251656D01*
X262406Y251656D01*
X262406Y243644D01*
X248394Y243644D01*
X248394Y245790D02*
X262406Y245790D01*
X262406Y247936D02*
X248394Y247936D01*
X248394Y250082D02*
X262406Y250082D01*
X248394Y256344D02*
X248394Y264356D01*
X262406Y264356D01*
X262406Y256344D01*
X248394Y256344D01*
X248394Y258490D02*
X262406Y258490D01*
X262406Y260636D02*
X248394Y260636D01*
X248394Y262782D02*
X262406Y262782D01*
X244506Y300206D02*
X236494Y300206D01*
X244506Y300206D02*
X244506Y286194D01*
X236494Y286194D01*
X236494Y300206D01*
X236494Y288340D02*
X244506Y288340D01*
X244506Y290486D02*
X236494Y290486D01*
X236494Y292632D02*
X244506Y292632D01*
X244506Y294778D02*
X236494Y294778D01*
X236494Y296924D02*
X244506Y296924D01*
X244506Y299070D02*
X236494Y299070D01*
X231806Y300206D02*
X223794Y300206D01*
X231806Y300206D02*
X231806Y286194D01*
X223794Y286194D01*
X223794Y300206D01*
X223794Y288340D02*
X231806Y288340D01*
X231806Y290486D02*
X223794Y290486D01*
X223794Y292632D02*
X231806Y292632D01*
X231806Y294778D02*
X223794Y294778D01*
X223794Y296924D02*
X231806Y296924D01*
X231806Y299070D02*
X223794Y299070D01*
X219106Y300206D02*
X211094Y300206D01*
X219106Y300206D02*
X219106Y286194D01*
X211094Y286194D01*
X211094Y300206D01*
X211094Y288340D02*
X219106Y288340D01*
X219106Y290486D02*
X211094Y290486D01*
X211094Y292632D02*
X219106Y292632D01*
X219106Y294778D02*
X211094Y294778D01*
X211094Y296924D02*
X219106Y296924D01*
X219106Y299070D02*
X211094Y299070D01*
X206406Y300206D02*
X198394Y300206D01*
X206406Y300206D02*
X206406Y286194D01*
X198394Y286194D01*
X198394Y300206D01*
X198394Y288340D02*
X206406Y288340D01*
X206406Y290486D02*
X198394Y290486D01*
X198394Y292632D02*
X206406Y292632D01*
X206406Y294778D02*
X198394Y294778D01*
X198394Y296924D02*
X206406Y296924D01*
X206406Y299070D02*
X198394Y299070D01*
X193706Y300206D02*
X185694Y300206D01*
X193706Y300206D02*
X193706Y286194D01*
X185694Y286194D01*
X185694Y300206D01*
X185694Y288340D02*
X193706Y288340D01*
X193706Y290486D02*
X185694Y290486D01*
X185694Y292632D02*
X193706Y292632D01*
X193706Y294778D02*
X185694Y294778D01*
X185694Y296924D02*
X193706Y296924D01*
X193706Y299070D02*
X185694Y299070D01*
X181006Y300206D02*
X172994Y300206D01*
X181006Y300206D02*
X181006Y286194D01*
X172994Y286194D01*
X172994Y300206D01*
X172994Y288340D02*
X181006Y288340D01*
X181006Y290486D02*
X172994Y290486D01*
X172994Y292632D02*
X181006Y292632D01*
X181006Y294778D02*
X172994Y294778D01*
X172994Y296924D02*
X181006Y296924D01*
X181006Y299070D02*
X172994Y299070D01*
X168306Y300206D02*
X160294Y300206D01*
X168306Y300206D02*
X168306Y286194D01*
X160294Y286194D01*
X160294Y300206D01*
X160294Y288340D02*
X168306Y288340D01*
X168306Y290486D02*
X160294Y290486D01*
X160294Y292632D02*
X168306Y292632D01*
X168306Y294778D02*
X160294Y294778D01*
X160294Y296924D02*
X168306Y296924D01*
X168306Y299070D02*
X160294Y299070D01*
X155606Y300206D02*
X147594Y300206D01*
X155606Y300206D02*
X155606Y286194D01*
X147594Y286194D01*
X147594Y300206D01*
X147594Y288340D02*
X155606Y288340D01*
X155606Y290486D02*
X147594Y290486D01*
X147594Y292632D02*
X155606Y292632D01*
X155606Y294778D02*
X147594Y294778D01*
X147594Y296924D02*
X155606Y296924D01*
X155606Y299070D02*
X147594Y299070D01*
X142906Y300206D02*
X134894Y300206D01*
X142906Y300206D02*
X142906Y286194D01*
X134894Y286194D01*
X134894Y300206D01*
X134894Y288340D02*
X142906Y288340D01*
X142906Y290486D02*
X134894Y290486D01*
X134894Y292632D02*
X142906Y292632D01*
X142906Y294778D02*
X134894Y294778D01*
X134894Y296924D02*
X142906Y296924D01*
X142906Y299070D02*
X134894Y299070D01*
X130206Y300206D02*
X122194Y300206D01*
X130206Y300206D02*
X130206Y286194D01*
X122194Y286194D01*
X122194Y300206D01*
X122194Y288340D02*
X130206Y288340D01*
X130206Y290486D02*
X122194Y290486D01*
X122194Y292632D02*
X130206Y292632D01*
X130206Y294778D02*
X122194Y294778D01*
X122194Y296924D02*
X130206Y296924D01*
X130206Y299070D02*
X122194Y299070D01*
X117506Y300206D02*
X109494Y300206D01*
X117506Y300206D02*
X117506Y286194D01*
X109494Y286194D01*
X109494Y300206D01*
X109494Y288340D02*
X117506Y288340D01*
X117506Y290486D02*
X109494Y290486D01*
X109494Y292632D02*
X117506Y292632D01*
X117506Y294778D02*
X109494Y294778D01*
X109494Y296924D02*
X117506Y296924D01*
X117506Y299070D02*
X109494Y299070D01*
X104806Y300206D02*
X96794Y300206D01*
X104806Y300206D02*
X104806Y286194D01*
X96794Y286194D01*
X96794Y300206D01*
X96794Y288340D02*
X104806Y288340D01*
X104806Y290486D02*
X96794Y290486D01*
X96794Y292632D02*
X104806Y292632D01*
X104806Y294778D02*
X96794Y294778D01*
X96794Y296924D02*
X104806Y296924D01*
X104806Y299070D02*
X96794Y299070D01*
X92106Y300206D02*
X84094Y300206D01*
X92106Y300206D02*
X92106Y286194D01*
X84094Y286194D01*
X84094Y300206D01*
X84094Y288340D02*
X92106Y288340D01*
X92106Y290486D02*
X84094Y290486D01*
X84094Y292632D02*
X92106Y292632D01*
X92106Y294778D02*
X84094Y294778D01*
X84094Y296924D02*
X92106Y296924D01*
X92106Y299070D02*
X84094Y299070D01*
X79406Y300206D02*
X71394Y300206D01*
X79406Y300206D02*
X79406Y286194D01*
X71394Y286194D01*
X71394Y300206D01*
X71394Y288340D02*
X79406Y288340D01*
X79406Y290486D02*
X71394Y290486D01*
X71394Y292632D02*
X79406Y292632D01*
X79406Y294778D02*
X71394Y294778D01*
X71394Y296924D02*
X79406Y296924D01*
X79406Y299070D02*
X71394Y299070D01*
D22*
X142700Y194010D02*
X154940Y194010D01*
X154940Y181770D01*
X142700Y181770D01*
X142700Y194010D01*
X142700Y183984D02*
X154940Y183984D01*
X154940Y186198D02*
X142700Y186198D01*
X142700Y188412D02*
X154940Y188412D01*
X154940Y190626D02*
X142700Y190626D01*
X142700Y192840D02*
X154940Y192840D01*
X136730Y212460D02*
X124490Y212460D01*
X136730Y212460D02*
X136730Y200220D01*
X124490Y200220D01*
X124490Y212460D01*
X124490Y202434D02*
X136730Y202434D01*
X136730Y204648D02*
X124490Y204648D01*
X124490Y206862D02*
X136730Y206862D01*
X136730Y209076D02*
X124490Y209076D01*
X124490Y211290D02*
X136730Y211290D01*
X136730Y194160D02*
X124490Y194160D01*
X136730Y194160D02*
X136730Y181920D01*
X124490Y181920D01*
X124490Y194160D01*
X124490Y184134D02*
X136730Y184134D01*
X136730Y186348D02*
X124490Y186348D01*
X124490Y188562D02*
X136730Y188562D01*
X136730Y190776D02*
X124490Y190776D01*
X124490Y192990D02*
X136730Y192990D01*
X136730Y175860D02*
X124490Y175860D01*
X136730Y175860D02*
X136730Y163620D01*
X124490Y163620D01*
X124490Y175860D01*
X124490Y165834D02*
X136730Y165834D01*
X136730Y168048D02*
X124490Y168048D01*
X124490Y170262D02*
X136730Y170262D01*
X136730Y172476D02*
X124490Y172476D01*
X124490Y174690D02*
X136730Y174690D01*
X142790Y175860D02*
X155030Y175860D01*
X155030Y163620D01*
X142790Y163620D01*
X142790Y175860D01*
X142790Y165834D02*
X155030Y165834D01*
X155030Y168048D02*
X142790Y168048D01*
X142790Y170262D02*
X155030Y170262D01*
X155030Y172476D02*
X142790Y172476D01*
X142790Y174690D02*
X155030Y174690D01*
X154730Y212560D02*
X142490Y212560D01*
X154730Y212560D02*
X154730Y200320D01*
X142490Y200320D01*
X142490Y212560D01*
X142490Y202534D02*
X154730Y202534D01*
X154730Y204748D02*
X142490Y204748D01*
X142490Y206962D02*
X154730Y206962D01*
X154730Y209176D02*
X142490Y209176D01*
X142490Y211390D02*
X154730Y211390D01*
X161090Y212460D02*
X173330Y212460D01*
X173330Y200220D01*
X161090Y200220D01*
X161090Y212460D01*
X161090Y202434D02*
X173330Y202434D01*
X173330Y204648D02*
X161090Y204648D01*
X161090Y206862D02*
X173330Y206862D01*
X173330Y209076D02*
X161090Y209076D01*
X161090Y211290D02*
X173330Y211290D01*
X173430Y194160D02*
X161190Y194160D01*
X173430Y194160D02*
X173430Y181920D01*
X161190Y181920D01*
X161190Y194160D01*
X161190Y184134D02*
X173430Y184134D01*
X173430Y186348D02*
X161190Y186348D01*
X161190Y188562D02*
X173430Y188562D01*
X173430Y190776D02*
X161190Y190776D01*
X161190Y192990D02*
X173430Y192990D01*
X173330Y175860D02*
X161090Y175860D01*
X173330Y175860D02*
X173330Y163620D01*
X161090Y163620D01*
X161090Y175860D01*
X161090Y165834D02*
X173330Y165834D01*
X173330Y168048D02*
X161090Y168048D01*
X161090Y170262D02*
X173330Y170262D01*
X173330Y172476D02*
X161090Y172476D01*
X161090Y174690D02*
X173330Y174690D01*
D10*
X232092Y433768D02*
X242108Y433768D01*
X242108Y424752D01*
X232092Y424752D01*
X232092Y433768D01*
X232092Y426893D02*
X242108Y426893D01*
X242108Y429034D02*
X232092Y429034D01*
X232092Y431175D02*
X242108Y431175D01*
X242108Y433316D02*
X232092Y433316D01*
X225108Y433768D02*
X215092Y433768D01*
X225108Y433768D02*
X225108Y424752D01*
X215092Y424752D01*
X215092Y433768D01*
X215092Y426893D02*
X225108Y426893D01*
X225108Y429034D02*
X215092Y429034D01*
X215092Y431175D02*
X225108Y431175D01*
X225108Y433316D02*
X215092Y433316D01*
X232092Y385508D02*
X242108Y385508D01*
X242108Y376492D01*
X232092Y376492D01*
X232092Y385508D01*
X232092Y378633D02*
X242108Y378633D01*
X242108Y380774D02*
X232092Y380774D01*
X232092Y382915D02*
X242108Y382915D01*
X242108Y385056D02*
X232092Y385056D01*
X225108Y385508D02*
X215092Y385508D01*
X225108Y385508D02*
X225108Y376492D01*
X215092Y376492D01*
X215092Y385508D01*
X215092Y378633D02*
X225108Y378633D01*
X225108Y380774D02*
X215092Y380774D01*
X215092Y382915D02*
X225108Y382915D01*
X225108Y385056D02*
X215092Y385056D01*
D15*
X235018Y398918D02*
X235018Y400882D01*
X240582Y400882D01*
X240582Y398918D01*
X235018Y398918D01*
X222182Y405418D02*
X222182Y407382D01*
X222182Y405418D02*
X216618Y405418D01*
X216618Y407382D01*
X222182Y407382D01*
X222182Y411918D02*
X222182Y413882D01*
X222182Y411918D02*
X216618Y411918D01*
X216618Y413882D01*
X222182Y413882D01*
X222182Y400882D02*
X222182Y398918D01*
X216618Y398918D01*
X216618Y400882D01*
X222182Y400882D01*
X235018Y405418D02*
X235018Y407382D01*
X240582Y407382D01*
X240582Y405418D01*
X235018Y405418D01*
X235018Y411918D02*
X235018Y413882D01*
X240582Y413882D01*
X240582Y411918D01*
X235018Y411918D01*
D10*
X465392Y226868D02*
X465392Y216852D01*
X465392Y226868D02*
X474408Y226868D01*
X474408Y216852D01*
X465392Y216852D01*
X465392Y218993D02*
X474408Y218993D01*
X474408Y221134D02*
X465392Y221134D01*
X465392Y223275D02*
X474408Y223275D01*
X474408Y225416D02*
X465392Y225416D01*
X465392Y209868D02*
X465392Y199852D01*
X465392Y209868D02*
X474408Y209868D01*
X474408Y199852D01*
X465392Y199852D01*
X465392Y201993D02*
X474408Y201993D01*
X474408Y204134D02*
X465392Y204134D01*
X465392Y206275D02*
X474408Y206275D01*
X474408Y208416D02*
X465392Y208416D01*
D16*
X137942Y435642D02*
X137942Y440658D01*
X148958Y440658D01*
X148958Y435642D01*
X137942Y435642D01*
X137942Y437783D02*
X148958Y437783D01*
X148958Y439924D02*
X137942Y439924D01*
X137942Y427958D02*
X137942Y422942D01*
X137942Y427958D02*
X148958Y427958D01*
X148958Y422942D01*
X137942Y422942D01*
X137942Y425083D02*
X148958Y425083D01*
X148958Y427224D02*
X137942Y427224D01*
X137942Y415258D02*
X137942Y410242D01*
X137942Y415258D02*
X148958Y415258D01*
X148958Y410242D01*
X137942Y410242D01*
X137942Y412383D02*
X148958Y412383D01*
X148958Y414524D02*
X137942Y414524D01*
X137942Y402558D02*
X137942Y397542D01*
X137942Y402558D02*
X148958Y402558D01*
X148958Y397542D01*
X137942Y397542D01*
X137942Y399683D02*
X148958Y399683D01*
X148958Y401824D02*
X137942Y401824D01*
X137942Y389858D02*
X137942Y384842D01*
X137942Y389858D02*
X148958Y389858D01*
X148958Y384842D01*
X137942Y384842D01*
X137942Y386983D02*
X148958Y386983D01*
X148958Y389124D02*
X137942Y389124D01*
X137942Y377158D02*
X137942Y372142D01*
X137942Y377158D02*
X148958Y377158D01*
X148958Y372142D01*
X137942Y372142D01*
X137942Y374283D02*
X148958Y374283D01*
X148958Y376424D02*
X137942Y376424D01*
X137942Y364458D02*
X137942Y359442D01*
X137942Y364458D02*
X148958Y364458D01*
X148958Y359442D01*
X137942Y359442D01*
X137942Y361583D02*
X148958Y361583D01*
X148958Y363724D02*
X137942Y363724D01*
X137942Y351758D02*
X137942Y346742D01*
X137942Y351758D02*
X148958Y351758D01*
X148958Y346742D01*
X137942Y346742D01*
X137942Y348883D02*
X148958Y348883D01*
X148958Y351024D02*
X137942Y351024D01*
X193942Y351758D02*
X193942Y346742D01*
X193942Y351758D02*
X204958Y351758D01*
X204958Y346742D01*
X193942Y346742D01*
X193942Y348883D02*
X204958Y348883D01*
X204958Y351024D02*
X193942Y351024D01*
X193942Y359442D02*
X193942Y364458D01*
X204958Y364458D01*
X204958Y359442D01*
X193942Y359442D01*
X193942Y361583D02*
X204958Y361583D01*
X204958Y363724D02*
X193942Y363724D01*
X193942Y372142D02*
X193942Y377158D01*
X204958Y377158D01*
X204958Y372142D01*
X193942Y372142D01*
X193942Y374283D02*
X204958Y374283D01*
X204958Y376424D02*
X193942Y376424D01*
X193942Y384842D02*
X193942Y389858D01*
X204958Y389858D01*
X204958Y384842D01*
X193942Y384842D01*
X193942Y386983D02*
X204958Y386983D01*
X204958Y389124D02*
X193942Y389124D01*
X193942Y397542D02*
X193942Y402558D01*
X204958Y402558D01*
X204958Y397542D01*
X193942Y397542D01*
X193942Y399683D02*
X204958Y399683D01*
X204958Y401824D02*
X193942Y401824D01*
X193942Y410242D02*
X193942Y415258D01*
X204958Y415258D01*
X204958Y410242D01*
X193942Y410242D01*
X193942Y412383D02*
X204958Y412383D01*
X204958Y414524D02*
X193942Y414524D01*
X193942Y422942D02*
X193942Y427958D01*
X204958Y427958D01*
X204958Y422942D01*
X193942Y422942D01*
X193942Y425083D02*
X204958Y425083D01*
X204958Y427224D02*
X193942Y427224D01*
X193942Y435642D02*
X193942Y440658D01*
X204958Y440658D01*
X204958Y435642D01*
X193942Y435642D01*
X193942Y437783D02*
X204958Y437783D01*
X204958Y439924D02*
X193942Y439924D01*
D23*
X121619Y399168D02*
X121619Y394632D01*
X109083Y394632D01*
X109083Y399168D01*
X121619Y399168D01*
X121619Y396754D02*
X109083Y396754D01*
X109083Y398876D02*
X121619Y398876D01*
X121619Y404132D02*
X121619Y408668D01*
X121619Y404132D02*
X109083Y404132D01*
X109083Y408668D01*
X121619Y408668D01*
X121619Y406254D02*
X109083Y406254D01*
X109083Y408376D02*
X121619Y408376D01*
X121619Y413632D02*
X121619Y418168D01*
X121619Y413632D02*
X109083Y413632D01*
X109083Y418168D01*
X121619Y418168D01*
X121619Y415754D02*
X109083Y415754D01*
X109083Y417876D02*
X121619Y417876D01*
X94117Y418168D02*
X94117Y413632D01*
X81581Y413632D01*
X81581Y418168D01*
X94117Y418168D01*
X94117Y415754D02*
X81581Y415754D01*
X81581Y417876D02*
X94117Y417876D01*
X94117Y408668D02*
X94117Y404132D01*
X81581Y404132D01*
X81581Y408668D01*
X94117Y408668D01*
X94117Y406254D02*
X81581Y406254D01*
X81581Y408376D02*
X94117Y408376D01*
X94117Y399168D02*
X94117Y394632D01*
X81581Y394632D01*
X81581Y399168D01*
X94117Y399168D01*
X94117Y396754D02*
X81581Y396754D01*
X81581Y398876D02*
X94117Y398876D01*
D24*
X322403Y281923D02*
X328357Y281923D01*
X322403Y281923D02*
X322403Y287877D01*
X328357Y287877D01*
X328357Y281923D01*
X328357Y284123D02*
X322403Y284123D01*
X322403Y286323D02*
X328357Y286323D01*
X328357Y270923D02*
X322403Y270923D01*
X322403Y276877D01*
X328357Y276877D01*
X328357Y270923D01*
X328357Y273123D02*
X322403Y273123D01*
X322403Y275323D02*
X328357Y275323D01*
X310057Y270923D02*
X304103Y270923D01*
X304103Y276877D01*
X310057Y276877D01*
X310057Y270923D01*
X310057Y273123D02*
X304103Y273123D01*
X304103Y275323D02*
X310057Y275323D01*
X310057Y281923D02*
X304103Y281923D01*
X304103Y287877D01*
X310057Y287877D01*
X310057Y281923D01*
X310057Y284123D02*
X304103Y284123D01*
X304103Y286323D02*
X310057Y286323D01*
D25*
X314593Y605057D02*
X325607Y605057D01*
X325607Y586043D01*
X314593Y586043D01*
X314593Y605057D01*
X314593Y588186D02*
X325607Y588186D01*
X325607Y590329D02*
X314593Y590329D01*
X314593Y592472D02*
X325607Y592472D01*
X325607Y594615D02*
X314593Y594615D01*
X314593Y596758D02*
X325607Y596758D01*
X325607Y598901D02*
X314593Y598901D01*
X314593Y601044D02*
X325607Y601044D01*
X325607Y603187D02*
X314593Y603187D01*
X269607Y605057D02*
X258593Y605057D01*
X269607Y605057D02*
X269607Y586043D01*
X258593Y586043D01*
X258593Y605057D01*
X258593Y588186D02*
X269607Y588186D01*
X269607Y590329D02*
X258593Y590329D01*
X258593Y592472D02*
X269607Y592472D01*
X269607Y594615D02*
X258593Y594615D01*
X258593Y596758D02*
X269607Y596758D01*
X269607Y598901D02*
X258593Y598901D01*
X258593Y601044D02*
X269607Y601044D01*
X269607Y603187D02*
X258593Y603187D01*
D16*
X304592Y565058D02*
X309608Y565058D01*
X309608Y552542D01*
X304592Y552542D01*
X304592Y565058D01*
X304592Y554683D02*
X309608Y554683D01*
X309608Y556824D02*
X304592Y556824D01*
X304592Y558965D02*
X309608Y558965D01*
X309608Y561106D02*
X304592Y561106D01*
X304592Y563247D02*
X309608Y563247D01*
X299608Y565058D02*
X294592Y565058D01*
X299608Y565058D02*
X299608Y552542D01*
X294592Y552542D01*
X294592Y565058D01*
X294592Y554683D02*
X299608Y554683D01*
X299608Y556824D02*
X294592Y556824D01*
X294592Y558965D02*
X299608Y558965D01*
X299608Y561106D02*
X294592Y561106D01*
X294592Y563247D02*
X299608Y563247D01*
X289608Y565058D02*
X284592Y565058D01*
X289608Y565058D02*
X289608Y552542D01*
X284592Y552542D01*
X284592Y565058D01*
X284592Y554683D02*
X289608Y554683D01*
X289608Y556824D02*
X284592Y556824D01*
X284592Y558965D02*
X289608Y558965D01*
X289608Y561106D02*
X284592Y561106D01*
X284592Y563247D02*
X289608Y563247D01*
X279608Y565058D02*
X274592Y565058D01*
X279608Y565058D02*
X279608Y552542D01*
X274592Y552542D01*
X274592Y565058D01*
X274592Y554683D02*
X279608Y554683D01*
X279608Y556824D02*
X274592Y556824D01*
X274592Y558965D02*
X279608Y558965D01*
X279608Y561106D02*
X274592Y561106D01*
X274592Y563247D02*
X279608Y563247D01*
D10*
X432262Y390462D02*
X442278Y390462D01*
X432262Y390462D02*
X432262Y399478D01*
X442278Y399478D01*
X442278Y390462D01*
X442278Y392603D02*
X432262Y392603D01*
X432262Y394744D02*
X442278Y394744D01*
X442278Y396885D02*
X432262Y396885D01*
X432262Y399026D02*
X442278Y399026D01*
X449262Y390462D02*
X459278Y390462D01*
X449262Y390462D02*
X449262Y399478D01*
X459278Y399478D01*
X459278Y390462D01*
X459278Y392603D02*
X449262Y392603D01*
X449262Y394744D02*
X459278Y394744D01*
X459278Y396885D02*
X449262Y396885D01*
X449262Y399026D02*
X459278Y399026D01*
X404432Y352598D02*
X404432Y342582D01*
X404432Y352598D02*
X413448Y352598D01*
X413448Y342582D01*
X404432Y342582D01*
X404432Y344723D02*
X413448Y344723D01*
X413448Y346864D02*
X404432Y346864D01*
X404432Y349005D02*
X413448Y349005D01*
X413448Y351146D02*
X404432Y351146D01*
X404432Y335598D02*
X404432Y325582D01*
X404432Y335598D02*
X413448Y335598D01*
X413448Y325582D01*
X404432Y325582D01*
X404432Y327723D02*
X413448Y327723D01*
X413448Y329864D02*
X404432Y329864D01*
X404432Y332005D02*
X413448Y332005D01*
X413448Y334146D02*
X404432Y334146D01*
X450532Y333438D02*
X460548Y333438D01*
X460548Y324422D01*
X450532Y324422D01*
X450532Y333438D01*
X450532Y326563D02*
X460548Y326563D01*
X460548Y328704D02*
X450532Y328704D01*
X450532Y330845D02*
X460548Y330845D01*
X460548Y332986D02*
X450532Y332986D01*
X443548Y333438D02*
X433532Y333438D01*
X443548Y333438D02*
X443548Y324422D01*
X433532Y324422D01*
X433532Y333438D01*
X433532Y326563D02*
X443548Y326563D01*
X443548Y328704D02*
X433532Y328704D01*
X433532Y330845D02*
X443548Y330845D01*
X443548Y332986D02*
X433532Y332986D01*
D26*
X675348Y157690D02*
X675348Y148904D01*
X670752Y148904D01*
X670752Y157690D01*
X675348Y157690D01*
X675348Y151054D02*
X670752Y151054D01*
X670752Y153204D02*
X675348Y153204D01*
X675348Y155354D02*
X670752Y155354D01*
X670752Y157504D02*
X675348Y157504D01*
X684848Y157690D02*
X684848Y148904D01*
X680252Y148904D01*
X680252Y157690D01*
X684848Y157690D01*
X684848Y151054D02*
X680252Y151054D01*
X680252Y153204D02*
X684848Y153204D01*
X684848Y155354D02*
X680252Y155354D01*
X680252Y157504D02*
X684848Y157504D01*
X694348Y157690D02*
X694348Y148904D01*
X689752Y148904D01*
X689752Y157690D01*
X694348Y157690D01*
X694348Y151054D02*
X689752Y151054D01*
X689752Y153204D02*
X694348Y153204D01*
X694348Y155354D02*
X689752Y155354D01*
X689752Y157504D02*
X694348Y157504D01*
X694348Y176209D02*
X694348Y184995D01*
X694348Y176209D02*
X689752Y176209D01*
X689752Y184995D01*
X694348Y184995D01*
X694348Y178359D02*
X689752Y178359D01*
X689752Y180509D02*
X694348Y180509D01*
X694348Y182659D02*
X689752Y182659D01*
X689752Y184809D02*
X694348Y184809D01*
X684848Y184995D02*
X684848Y176209D01*
X680252Y176209D01*
X680252Y184995D01*
X684848Y184995D01*
X684848Y178359D02*
X680252Y178359D01*
X680252Y180509D02*
X684848Y180509D01*
X684848Y182659D02*
X680252Y182659D01*
X680252Y184809D02*
X684848Y184809D01*
X675348Y184995D02*
X675348Y176209D01*
X670752Y176209D01*
X670752Y184995D01*
X675348Y184995D01*
X675348Y178359D02*
X670752Y178359D01*
X670752Y180509D02*
X675348Y180509D01*
X675348Y182659D02*
X670752Y182659D01*
X670752Y184809D02*
X675348Y184809D01*
D10*
X419908Y93408D02*
X409892Y93408D01*
X419908Y93408D02*
X419908Y84392D01*
X409892Y84392D01*
X409892Y93408D01*
X409892Y86533D02*
X419908Y86533D01*
X419908Y88674D02*
X409892Y88674D01*
X409892Y90815D02*
X419908Y90815D01*
X419908Y92956D02*
X409892Y92956D01*
X402908Y93408D02*
X392892Y93408D01*
X402908Y93408D02*
X402908Y84392D01*
X392892Y84392D01*
X392892Y93408D01*
X392892Y86533D02*
X402908Y86533D01*
X402908Y88674D02*
X392892Y88674D01*
X392892Y90815D02*
X402908Y90815D01*
X402908Y92956D02*
X392892Y92956D01*
X93028Y78042D02*
X83012Y78042D01*
X83012Y87058D01*
X93028Y87058D01*
X93028Y78042D01*
X93028Y80183D02*
X83012Y80183D01*
X83012Y82324D02*
X93028Y82324D01*
X93028Y84465D02*
X83012Y84465D01*
X83012Y86606D02*
X93028Y86606D01*
X100012Y78042D02*
X110028Y78042D01*
X100012Y78042D02*
X100012Y87058D01*
X110028Y87058D01*
X110028Y78042D01*
X110028Y80183D02*
X100012Y80183D01*
X100012Y82324D02*
X110028Y82324D01*
X110028Y84465D02*
X100012Y84465D01*
X100012Y86606D02*
X110028Y86606D01*
X77008Y87058D02*
X66992Y87058D01*
X77008Y87058D02*
X77008Y78042D01*
X66992Y78042D01*
X66992Y87058D01*
X66992Y80183D02*
X77008Y80183D01*
X77008Y82324D02*
X66992Y82324D01*
X66992Y84465D02*
X77008Y84465D01*
X77008Y86606D02*
X66992Y86606D01*
X60008Y87058D02*
X49992Y87058D01*
X60008Y87058D02*
X60008Y78042D01*
X49992Y78042D01*
X49992Y87058D01*
X49992Y80183D02*
X60008Y80183D01*
X60008Y82324D02*
X49992Y82324D01*
X49992Y84465D02*
X60008Y84465D01*
X60008Y86606D02*
X49992Y86606D01*
D27*
X702108Y169678D02*
X702108Y177202D01*
X710132Y177202D01*
X710132Y169678D01*
X702108Y169678D01*
X702108Y171813D02*
X710132Y171813D01*
X710132Y173948D02*
X702108Y173948D01*
X702108Y176083D02*
X710132Y176083D01*
X702108Y165602D02*
X702108Y158078D01*
X702108Y165602D02*
X710132Y165602D01*
X710132Y158078D01*
X702108Y158078D01*
X702108Y160213D02*
X710132Y160213D01*
X710132Y162348D02*
X702108Y162348D01*
X702108Y164483D02*
X710132Y164483D01*
D11*
X538676Y490536D02*
X538676Y497524D01*
X545664Y497524D01*
X545664Y490536D01*
X538676Y490536D01*
X538676Y494605D02*
X545664Y494605D01*
X521136Y497524D02*
X521136Y490536D01*
X521136Y497524D02*
X528124Y497524D01*
X528124Y490536D01*
X521136Y490536D01*
X521136Y494605D02*
X528124Y494605D01*
D10*
X312738Y254572D02*
X302722Y254572D01*
X302722Y263588D01*
X312738Y263588D01*
X312738Y254572D01*
X312738Y256713D02*
X302722Y256713D01*
X302722Y258854D02*
X312738Y258854D01*
X312738Y260995D02*
X302722Y260995D01*
X302722Y263136D02*
X312738Y263136D01*
X319722Y254572D02*
X329738Y254572D01*
X319722Y254572D02*
X319722Y263588D01*
X329738Y263588D01*
X329738Y254572D01*
X329738Y256713D02*
X319722Y256713D01*
X319722Y258854D02*
X329738Y258854D01*
X329738Y260995D02*
X319722Y260995D01*
X319722Y263136D02*
X329738Y263136D01*
D16*
X693908Y359442D02*
X693908Y364458D01*
X693908Y359442D02*
X682892Y359442D01*
X682892Y364458D01*
X693908Y364458D01*
X693908Y361583D02*
X682892Y361583D01*
X682892Y363724D02*
X693908Y363724D01*
X693908Y372142D02*
X693908Y377158D01*
X693908Y372142D02*
X682892Y372142D01*
X682892Y377158D01*
X693908Y377158D01*
X693908Y374283D02*
X682892Y374283D01*
X682892Y376424D02*
X693908Y376424D01*
X693908Y384842D02*
X693908Y389858D01*
X693908Y384842D02*
X682892Y384842D01*
X682892Y389858D01*
X693908Y389858D01*
X693908Y386983D02*
X682892Y386983D01*
X682892Y389124D02*
X693908Y389124D01*
X693908Y397542D02*
X693908Y402558D01*
X693908Y397542D02*
X682892Y397542D01*
X682892Y402558D01*
X693908Y402558D01*
X693908Y399683D02*
X682892Y399683D01*
X682892Y401824D02*
X693908Y401824D01*
X693908Y410242D02*
X693908Y415258D01*
X693908Y410242D02*
X682892Y410242D01*
X682892Y415258D01*
X693908Y415258D01*
X693908Y412383D02*
X682892Y412383D01*
X682892Y414524D02*
X693908Y414524D01*
X693908Y422942D02*
X693908Y427958D01*
X693908Y422942D02*
X682892Y422942D01*
X682892Y427958D01*
X693908Y427958D01*
X693908Y425083D02*
X682892Y425083D01*
X682892Y427224D02*
X693908Y427224D01*
X693908Y435642D02*
X693908Y440658D01*
X693908Y435642D02*
X682892Y435642D01*
X682892Y440658D01*
X693908Y440658D01*
X693908Y437783D02*
X682892Y437783D01*
X682892Y439924D02*
X693908Y439924D01*
X637908Y440658D02*
X637908Y435642D01*
X626892Y435642D01*
X626892Y440658D01*
X637908Y440658D01*
X637908Y437783D02*
X626892Y437783D01*
X626892Y439924D02*
X637908Y439924D01*
X637908Y427958D02*
X637908Y422942D01*
X626892Y422942D01*
X626892Y427958D01*
X637908Y427958D01*
X637908Y425083D02*
X626892Y425083D01*
X626892Y427224D02*
X637908Y427224D01*
X637908Y415258D02*
X637908Y410242D01*
X626892Y410242D01*
X626892Y415258D01*
X637908Y415258D01*
X637908Y412383D02*
X626892Y412383D01*
X626892Y414524D02*
X637908Y414524D01*
X637908Y402558D02*
X637908Y397542D01*
X626892Y397542D01*
X626892Y402558D01*
X637908Y402558D01*
X637908Y399683D02*
X626892Y399683D01*
X626892Y401824D02*
X637908Y401824D01*
X637908Y389858D02*
X637908Y384842D01*
X626892Y384842D01*
X626892Y389858D01*
X637908Y389858D01*
X637908Y386983D02*
X626892Y386983D01*
X626892Y389124D02*
X637908Y389124D01*
X637908Y377158D02*
X637908Y372142D01*
X626892Y372142D01*
X626892Y377158D01*
X637908Y377158D01*
X637908Y374283D02*
X626892Y374283D01*
X626892Y376424D02*
X637908Y376424D01*
X637908Y364458D02*
X637908Y359442D01*
X626892Y359442D01*
X626892Y364458D01*
X637908Y364458D01*
X637908Y361583D02*
X626892Y361583D01*
X626892Y363724D02*
X637908Y363724D01*
D10*
X710392Y352362D02*
X720408Y352362D01*
X710392Y352362D02*
X710392Y361378D01*
X720408Y361378D01*
X720408Y352362D01*
X720408Y354503D02*
X710392Y354503D01*
X710392Y356644D02*
X720408Y356644D01*
X720408Y358785D02*
X710392Y358785D01*
X710392Y360926D02*
X720408Y360926D01*
X727392Y352362D02*
X737408Y352362D01*
X727392Y352362D02*
X727392Y361378D01*
X737408Y361378D01*
X737408Y352362D01*
X737408Y354503D02*
X727392Y354503D01*
X727392Y356644D02*
X737408Y356644D01*
X737408Y358785D02*
X727392Y358785D01*
X727392Y360926D02*
X737408Y360926D01*
X585008Y487108D02*
X574992Y487108D01*
X585008Y487108D02*
X585008Y478092D01*
X574992Y478092D01*
X574992Y487108D01*
X574992Y480233D02*
X585008Y480233D01*
X585008Y482374D02*
X574992Y482374D01*
X574992Y484515D02*
X585008Y484515D01*
X585008Y486656D02*
X574992Y486656D01*
X568008Y487108D02*
X557992Y487108D01*
X568008Y487108D02*
X568008Y478092D01*
X557992Y478092D01*
X557992Y487108D01*
X557992Y480233D02*
X568008Y480233D01*
X568008Y482374D02*
X557992Y482374D01*
X557992Y484515D02*
X568008Y484515D01*
X568008Y486656D02*
X557992Y486656D01*
X690072Y497142D02*
X700088Y497142D01*
X690072Y497142D02*
X690072Y506158D01*
X700088Y506158D01*
X700088Y497142D01*
X700088Y499283D02*
X690072Y499283D01*
X690072Y501424D02*
X700088Y501424D01*
X700088Y503565D02*
X690072Y503565D01*
X690072Y505706D02*
X700088Y505706D01*
X707072Y497142D02*
X717088Y497142D01*
X707072Y497142D02*
X707072Y506158D01*
X717088Y506158D01*
X717088Y497142D01*
X717088Y499283D02*
X707072Y499283D01*
X707072Y501424D02*
X717088Y501424D01*
X717088Y503565D02*
X707072Y503565D01*
X707072Y505706D02*
X717088Y505706D01*
X700088Y513652D02*
X690072Y513652D01*
X690072Y522668D01*
X700088Y522668D01*
X700088Y513652D01*
X700088Y515793D02*
X690072Y515793D01*
X690072Y517934D02*
X700088Y517934D01*
X700088Y520075D02*
X690072Y520075D01*
X690072Y522216D02*
X700088Y522216D01*
X707072Y513652D02*
X717088Y513652D01*
X707072Y513652D02*
X707072Y522668D01*
X717088Y522668D01*
X717088Y513652D01*
X717088Y515793D02*
X707072Y515793D01*
X707072Y517934D02*
X717088Y517934D01*
X717088Y520075D02*
X707072Y520075D01*
X707072Y522216D02*
X717088Y522216D01*
X700088Y561912D02*
X690072Y561912D01*
X690072Y570928D01*
X700088Y570928D01*
X700088Y561912D01*
X700088Y564053D02*
X690072Y564053D01*
X690072Y566194D02*
X700088Y566194D01*
X700088Y568335D02*
X690072Y568335D01*
X690072Y570476D02*
X700088Y570476D01*
X707072Y561912D02*
X717088Y561912D01*
X707072Y561912D02*
X707072Y570928D01*
X717088Y570928D01*
X717088Y561912D01*
X717088Y564053D02*
X707072Y564053D01*
X707072Y566194D02*
X717088Y566194D01*
X717088Y568335D02*
X707072Y568335D01*
X707072Y570476D02*
X717088Y570476D01*
X250508Y465392D02*
X240492Y465392D01*
X240492Y474408D01*
X250508Y474408D01*
X250508Y465392D01*
X250508Y467533D02*
X240492Y467533D01*
X240492Y469674D02*
X250508Y469674D01*
X250508Y471815D02*
X240492Y471815D01*
X240492Y473956D02*
X250508Y473956D01*
X257492Y465392D02*
X267508Y465392D01*
X257492Y465392D02*
X257492Y474408D01*
X267508Y474408D01*
X267508Y465392D01*
X267508Y467533D02*
X257492Y467533D01*
X257492Y469674D02*
X267508Y469674D01*
X267508Y471815D02*
X257492Y471815D01*
X257492Y473956D02*
X267508Y473956D01*
D28*
X296704Y149384D02*
X296704Y142716D01*
X282416Y142716D01*
X282416Y149384D01*
X296704Y149384D01*
X296704Y144828D02*
X282416Y144828D01*
X282416Y146940D02*
X296704Y146940D01*
X296704Y149052D02*
X282416Y149052D01*
X352584Y149384D02*
X352584Y142716D01*
X338296Y142716D01*
X338296Y149384D01*
X352584Y149384D01*
X352584Y144828D02*
X338296Y144828D01*
X338296Y146940D02*
X352584Y146940D01*
X352584Y149052D02*
X338296Y149052D01*
X296704Y111284D02*
X296704Y104616D01*
X282416Y104616D01*
X282416Y111284D01*
X296704Y111284D01*
X296704Y106728D02*
X282416Y106728D01*
X282416Y108840D02*
X296704Y108840D01*
X296704Y110952D02*
X282416Y110952D01*
X352584Y111284D02*
X352584Y104616D01*
X338296Y104616D01*
X338296Y111284D01*
X352584Y111284D01*
X352584Y106728D02*
X338296Y106728D01*
X338296Y108840D02*
X352584Y108840D01*
X352584Y110952D02*
X338296Y110952D01*
X398304Y142716D02*
X398304Y149384D01*
X398304Y142716D02*
X384016Y142716D01*
X384016Y149384D01*
X398304Y149384D01*
X398304Y144828D02*
X384016Y144828D01*
X384016Y146940D02*
X398304Y146940D01*
X398304Y149052D02*
X384016Y149052D01*
X454184Y149384D02*
X454184Y142716D01*
X439896Y142716D01*
X439896Y149384D01*
X454184Y149384D01*
X454184Y144828D02*
X439896Y144828D01*
X439896Y146940D02*
X454184Y146940D01*
X454184Y149052D02*
X439896Y149052D01*
X398304Y111284D02*
X398304Y104616D01*
X384016Y104616D01*
X384016Y111284D01*
X398304Y111284D01*
X398304Y106728D02*
X384016Y106728D01*
X384016Y108840D02*
X398304Y108840D01*
X398304Y110952D02*
X384016Y110952D01*
X454184Y111284D02*
X454184Y104616D01*
X439896Y104616D01*
X439896Y111284D01*
X454184Y111284D01*
X454184Y106728D02*
X439896Y106728D01*
X439896Y108840D02*
X454184Y108840D01*
X454184Y110952D02*
X439896Y110952D01*
X296704Y218916D02*
X296704Y225584D01*
X296704Y218916D02*
X282416Y218916D01*
X282416Y225584D01*
X296704Y225584D01*
X296704Y221028D02*
X282416Y221028D01*
X282416Y223140D02*
X296704Y223140D01*
X296704Y225252D02*
X282416Y225252D01*
X352584Y225584D02*
X352584Y218916D01*
X338296Y218916D01*
X338296Y225584D01*
X352584Y225584D01*
X352584Y221028D02*
X338296Y221028D01*
X338296Y223140D02*
X352584Y223140D01*
X352584Y225252D02*
X338296Y225252D01*
X296704Y187484D02*
X296704Y180816D01*
X282416Y180816D01*
X282416Y187484D01*
X296704Y187484D01*
X296704Y182928D02*
X282416Y182928D01*
X282416Y185040D02*
X296704Y185040D01*
X296704Y187152D02*
X282416Y187152D01*
X352584Y187484D02*
X352584Y180816D01*
X338296Y180816D01*
X338296Y187484D01*
X352584Y187484D01*
X352584Y182928D02*
X338296Y182928D01*
X338296Y185040D02*
X352584Y185040D01*
X352584Y187152D02*
X338296Y187152D01*
X398304Y218916D02*
X398304Y225584D01*
X398304Y218916D02*
X384016Y218916D01*
X384016Y225584D01*
X398304Y225584D01*
X398304Y221028D02*
X384016Y221028D01*
X384016Y223140D02*
X398304Y223140D01*
X398304Y225252D02*
X384016Y225252D01*
X454184Y225584D02*
X454184Y218916D01*
X439896Y218916D01*
X439896Y225584D01*
X454184Y225584D01*
X454184Y221028D02*
X439896Y221028D01*
X439896Y223140D02*
X454184Y223140D01*
X454184Y225252D02*
X439896Y225252D01*
X398304Y187484D02*
X398304Y180816D01*
X384016Y180816D01*
X384016Y187484D01*
X398304Y187484D01*
X398304Y182928D02*
X384016Y182928D01*
X384016Y185040D02*
X398304Y185040D01*
X398304Y187152D02*
X384016Y187152D01*
X454184Y187484D02*
X454184Y180816D01*
X439896Y180816D01*
X439896Y187484D01*
X454184Y187484D01*
X454184Y182928D02*
X439896Y182928D01*
X439896Y185040D02*
X454184Y185040D01*
X454184Y187152D02*
X439896Y187152D01*
D11*
X259276Y481646D02*
X259276Y488634D01*
X266264Y488634D01*
X266264Y481646D01*
X259276Y481646D01*
X259276Y485715D02*
X266264Y485715D01*
X241736Y488634D02*
X241736Y481646D01*
X241736Y488634D02*
X248724Y488634D01*
X248724Y481646D01*
X241736Y481646D01*
X241736Y485715D02*
X248724Y485715D01*
D29*
X597032Y216350D03*
X685800Y62600D03*
X774568Y216350D03*
D23*
X439808Y348511D02*
X435272Y348511D01*
X435272Y359547D01*
X439808Y359547D01*
X439808Y348511D01*
X439808Y350633D02*
X435272Y350633D01*
X435272Y352755D02*
X439808Y352755D01*
X439808Y354877D02*
X435272Y354877D01*
X435272Y356999D02*
X439808Y356999D01*
X439808Y359121D02*
X435272Y359121D01*
X444772Y348511D02*
X449308Y348511D01*
X444772Y348511D02*
X444772Y359547D01*
X449308Y359547D01*
X449308Y348511D01*
X449308Y350633D02*
X444772Y350633D01*
X444772Y352755D02*
X449308Y352755D01*
X449308Y354877D02*
X444772Y354877D01*
X444772Y356999D02*
X449308Y356999D01*
X449308Y359121D02*
X444772Y359121D01*
X454272Y348511D02*
X458808Y348511D01*
X454272Y348511D02*
X454272Y359547D01*
X458808Y359547D01*
X458808Y348511D01*
X458808Y350633D02*
X454272Y350633D01*
X454272Y352755D02*
X458808Y352755D01*
X458808Y354877D02*
X454272Y354877D01*
X454272Y356999D02*
X458808Y356999D01*
X458808Y359121D02*
X454272Y359121D01*
X454272Y374513D02*
X458808Y374513D01*
X454272Y374513D02*
X454272Y385549D01*
X458808Y385549D01*
X458808Y374513D01*
X458808Y376635D02*
X454272Y376635D01*
X454272Y378757D02*
X458808Y378757D01*
X458808Y380879D02*
X454272Y380879D01*
X454272Y383001D02*
X458808Y383001D01*
X458808Y385123D02*
X454272Y385123D01*
X439808Y374513D02*
X435272Y374513D01*
X435272Y385549D01*
X439808Y385549D01*
X439808Y374513D01*
X439808Y376635D02*
X435272Y376635D01*
X435272Y378757D02*
X439808Y378757D01*
X439808Y380879D02*
X435272Y380879D01*
X435272Y383001D02*
X439808Y383001D01*
X439808Y385123D02*
X435272Y385123D01*
D10*
X99758Y352108D02*
X99758Y342092D01*
X90742Y342092D01*
X90742Y352108D01*
X99758Y352108D01*
X99758Y344233D02*
X90742Y344233D01*
X90742Y346374D02*
X99758Y346374D01*
X99758Y348515D02*
X90742Y348515D01*
X90742Y350656D02*
X99758Y350656D01*
X99758Y359092D02*
X99758Y369108D01*
X99758Y359092D02*
X90742Y359092D01*
X90742Y369108D01*
X99758Y369108D01*
X99758Y361233D02*
X90742Y361233D01*
X90742Y363374D02*
X99758Y363374D01*
X99758Y365515D02*
X90742Y365515D01*
X90742Y367656D02*
X99758Y367656D01*
D30*
X796424Y487824D02*
X803376Y487824D01*
X796424Y487824D02*
X796424Y502776D01*
X803376Y502776D01*
X803376Y487824D01*
X803376Y490026D02*
X796424Y490026D01*
X796424Y492228D02*
X803376Y492228D01*
X803376Y494430D02*
X796424Y494430D01*
X796424Y496632D02*
X803376Y496632D01*
X803376Y498834D02*
X796424Y498834D01*
X796424Y501036D02*
X803376Y501036D01*
X790876Y487824D02*
X783924Y487824D01*
X783924Y502776D01*
X790876Y502776D01*
X790876Y487824D01*
X790876Y490026D02*
X783924Y490026D01*
X783924Y492228D02*
X790876Y492228D01*
X790876Y494430D02*
X783924Y494430D01*
X783924Y496632D02*
X790876Y496632D01*
X790876Y498834D02*
X783924Y498834D01*
X783924Y501036D02*
X790876Y501036D01*
X778376Y487824D02*
X771424Y487824D01*
X771424Y502776D01*
X778376Y502776D01*
X778376Y487824D01*
X778376Y490026D02*
X771424Y490026D01*
X771424Y492228D02*
X778376Y492228D01*
X778376Y494430D02*
X771424Y494430D01*
X771424Y496632D02*
X778376Y496632D01*
X778376Y498834D02*
X771424Y498834D01*
X771424Y501036D02*
X778376Y501036D01*
D31*
X759422Y451778D02*
X739378Y451778D01*
X739378Y480822D01*
X759422Y480822D01*
X759422Y451778D01*
X759422Y453894D02*
X739378Y453894D01*
X739378Y456010D02*
X759422Y456010D01*
X759422Y458126D02*
X739378Y458126D01*
X739378Y460242D02*
X759422Y460242D01*
X759422Y462358D02*
X739378Y462358D01*
X739378Y464474D02*
X759422Y464474D01*
X759422Y466590D02*
X739378Y466590D01*
X739378Y468706D02*
X759422Y468706D01*
X759422Y470822D02*
X739378Y470822D01*
X739378Y472938D02*
X759422Y472938D01*
X759422Y475054D02*
X739378Y475054D01*
X739378Y477170D02*
X759422Y477170D01*
X759422Y479286D02*
X739378Y479286D01*
X815378Y451778D02*
X835422Y451778D01*
X815378Y451778D02*
X815378Y480822D01*
X835422Y480822D01*
X835422Y451778D01*
X835422Y453894D02*
X815378Y453894D01*
X815378Y456010D02*
X835422Y456010D01*
X835422Y458126D02*
X815378Y458126D01*
X815378Y460242D02*
X835422Y460242D01*
X835422Y462358D02*
X815378Y462358D01*
X815378Y464474D02*
X835422Y464474D01*
X835422Y466590D02*
X815378Y466590D01*
X815378Y468706D02*
X835422Y468706D01*
X835422Y470822D02*
X815378Y470822D01*
X815378Y472938D02*
X835422Y472938D01*
X835422Y475054D02*
X815378Y475054D01*
X815378Y477170D02*
X835422Y477170D01*
X835422Y479286D02*
X815378Y479286D01*
D10*
X131508Y441008D02*
X131508Y430992D01*
X122492Y430992D01*
X122492Y441008D01*
X131508Y441008D01*
X131508Y433133D02*
X122492Y433133D01*
X122492Y435274D02*
X131508Y435274D01*
X131508Y437415D02*
X122492Y437415D01*
X122492Y439556D02*
X131508Y439556D01*
X131508Y447992D02*
X131508Y458008D01*
X131508Y447992D02*
X122492Y447992D01*
X122492Y458008D01*
X131508Y458008D01*
X131508Y450133D02*
X122492Y450133D01*
X122492Y452274D02*
X131508Y452274D01*
X131508Y454415D02*
X122492Y454415D01*
X122492Y456556D02*
X131508Y456556D01*
X111062Y369108D02*
X111062Y359092D01*
X111062Y369108D02*
X120078Y369108D01*
X120078Y359092D01*
X111062Y359092D01*
X111062Y361233D02*
X120078Y361233D01*
X120078Y363374D02*
X111062Y363374D01*
X111062Y365515D02*
X120078Y365515D01*
X120078Y367656D02*
X111062Y367656D01*
X111062Y352108D02*
X111062Y342092D01*
X111062Y352108D02*
X120078Y352108D01*
X120078Y342092D01*
X111062Y342092D01*
X111062Y344233D02*
X120078Y344233D01*
X120078Y346374D02*
X111062Y346374D01*
X111062Y348515D02*
X120078Y348515D01*
X120078Y350656D02*
X111062Y350656D01*
X583392Y394272D02*
X593408Y394272D01*
X583392Y394272D02*
X583392Y403288D01*
X593408Y403288D01*
X593408Y394272D01*
X593408Y396413D02*
X583392Y396413D01*
X583392Y398554D02*
X593408Y398554D01*
X593408Y400695D02*
X583392Y400695D01*
X583392Y402836D02*
X593408Y402836D01*
X600392Y394272D02*
X610408Y394272D01*
X600392Y394272D02*
X600392Y403288D01*
X610408Y403288D01*
X610408Y394272D01*
X610408Y396413D02*
X600392Y396413D01*
X600392Y398554D02*
X610408Y398554D01*
X610408Y400695D02*
X600392Y400695D01*
X600392Y402836D02*
X610408Y402836D01*
X610408Y418528D02*
X600392Y418528D01*
X610408Y418528D02*
X610408Y409512D01*
X600392Y409512D01*
X600392Y418528D01*
X600392Y411653D02*
X610408Y411653D01*
X610408Y413794D02*
X600392Y413794D01*
X600392Y415935D02*
X610408Y415935D01*
X610408Y418076D02*
X600392Y418076D01*
X593408Y418528D02*
X583392Y418528D01*
X593408Y418528D02*
X593408Y409512D01*
X583392Y409512D01*
X583392Y418528D01*
X583392Y411653D02*
X593408Y411653D01*
X593408Y413794D02*
X583392Y413794D01*
X583392Y415935D02*
X593408Y415935D01*
X593408Y418076D02*
X583392Y418076D01*
X600392Y449008D02*
X610408Y449008D01*
X610408Y439992D01*
X600392Y439992D01*
X600392Y449008D01*
X600392Y442133D02*
X610408Y442133D01*
X610408Y444274D02*
X600392Y444274D01*
X600392Y446415D02*
X610408Y446415D01*
X610408Y448556D02*
X600392Y448556D01*
X593408Y449008D02*
X583392Y449008D01*
X593408Y449008D02*
X593408Y439992D01*
X583392Y439992D01*
X583392Y449008D01*
X583392Y442133D02*
X593408Y442133D01*
X593408Y444274D02*
X583392Y444274D01*
X583392Y446415D02*
X593408Y446415D01*
X593408Y448556D02*
X583392Y448556D01*
X583392Y424752D02*
X593408Y424752D01*
X583392Y424752D02*
X583392Y433768D01*
X593408Y433768D01*
X593408Y424752D01*
X593408Y426893D02*
X583392Y426893D01*
X583392Y429034D02*
X593408Y429034D01*
X593408Y431175D02*
X583392Y431175D01*
X583392Y433316D02*
X593408Y433316D01*
X600392Y424752D02*
X610408Y424752D01*
X600392Y424752D02*
X600392Y433768D01*
X610408Y433768D01*
X610408Y424752D01*
X610408Y426893D02*
X600392Y426893D01*
X600392Y429034D02*
X610408Y429034D01*
X610408Y431175D02*
X600392Y431175D01*
X600392Y433316D02*
X610408Y433316D01*
X727392Y422338D02*
X737408Y422338D01*
X737408Y413322D01*
X727392Y413322D01*
X727392Y422338D01*
X727392Y415463D02*
X737408Y415463D01*
X737408Y417604D02*
X727392Y417604D01*
X727392Y419745D02*
X737408Y419745D01*
X737408Y421886D02*
X727392Y421886D01*
X720408Y422338D02*
X710392Y422338D01*
X720408Y422338D02*
X720408Y413322D01*
X710392Y413322D01*
X710392Y422338D01*
X710392Y415463D02*
X720408Y415463D01*
X720408Y417604D02*
X710392Y417604D01*
X710392Y419745D02*
X720408Y419745D01*
X720408Y421886D02*
X710392Y421886D01*
X710392Y428562D02*
X720408Y428562D01*
X710392Y428562D02*
X710392Y437578D01*
X720408Y437578D01*
X720408Y428562D01*
X720408Y430703D02*
X710392Y430703D01*
X710392Y432844D02*
X720408Y432844D01*
X720408Y434985D02*
X710392Y434985D01*
X710392Y437126D02*
X720408Y437126D01*
X727392Y428562D02*
X737408Y428562D01*
X727392Y428562D02*
X727392Y437578D01*
X737408Y437578D01*
X737408Y428562D01*
X737408Y430703D02*
X727392Y430703D01*
X727392Y432844D02*
X737408Y432844D01*
X737408Y434985D02*
X727392Y434985D01*
X727392Y437126D02*
X737408Y437126D01*
X737408Y391858D02*
X727392Y391858D01*
X737408Y391858D02*
X737408Y382842D01*
X727392Y382842D01*
X727392Y391858D01*
X727392Y384983D02*
X737408Y384983D01*
X737408Y387124D02*
X727392Y387124D01*
X727392Y389265D02*
X737408Y389265D01*
X737408Y391406D02*
X727392Y391406D01*
X720408Y391858D02*
X710392Y391858D01*
X720408Y391858D02*
X720408Y382842D01*
X710392Y382842D01*
X710392Y391858D01*
X710392Y384983D02*
X720408Y384983D01*
X720408Y387124D02*
X710392Y387124D01*
X710392Y389265D02*
X720408Y389265D01*
X720408Y391406D02*
X710392Y391406D01*
X710392Y398082D02*
X720408Y398082D01*
X710392Y398082D02*
X710392Y407098D01*
X720408Y407098D01*
X720408Y398082D01*
X720408Y400223D02*
X710392Y400223D01*
X710392Y402364D02*
X720408Y402364D01*
X720408Y404505D02*
X710392Y404505D01*
X710392Y406646D02*
X720408Y406646D01*
X727392Y398082D02*
X737408Y398082D01*
X727392Y398082D02*
X727392Y407098D01*
X737408Y407098D01*
X737408Y398082D01*
X737408Y400223D02*
X727392Y400223D01*
X727392Y402364D02*
X737408Y402364D01*
X737408Y404505D02*
X727392Y404505D01*
X727392Y406646D02*
X737408Y406646D01*
X593408Y348552D02*
X583392Y348552D01*
X583392Y357568D01*
X593408Y357568D01*
X593408Y348552D01*
X593408Y350693D02*
X583392Y350693D01*
X583392Y352834D02*
X593408Y352834D01*
X593408Y354975D02*
X583392Y354975D01*
X583392Y357116D02*
X593408Y357116D01*
X600392Y348552D02*
X610408Y348552D01*
X600392Y348552D02*
X600392Y357568D01*
X610408Y357568D01*
X610408Y348552D01*
X610408Y350693D02*
X600392Y350693D01*
X600392Y352834D02*
X610408Y352834D01*
X610408Y354975D02*
X600392Y354975D01*
X600392Y357116D02*
X610408Y357116D01*
X610408Y342328D02*
X600392Y342328D01*
X610408Y342328D02*
X610408Y333312D01*
X600392Y333312D01*
X600392Y342328D01*
X600392Y335453D02*
X610408Y335453D01*
X610408Y337594D02*
X600392Y337594D01*
X600392Y339735D02*
X610408Y339735D01*
X610408Y341876D02*
X600392Y341876D01*
X593408Y342328D02*
X583392Y342328D01*
X593408Y342328D02*
X593408Y333312D01*
X583392Y333312D01*
X583392Y342328D01*
X583392Y335453D02*
X593408Y335453D01*
X593408Y337594D02*
X583392Y337594D01*
X583392Y339735D02*
X593408Y339735D01*
X593408Y341876D02*
X583392Y341876D01*
X600392Y372808D02*
X610408Y372808D01*
X610408Y363792D01*
X600392Y363792D01*
X600392Y372808D01*
X600392Y365933D02*
X610408Y365933D01*
X610408Y368074D02*
X600392Y368074D01*
X600392Y370215D02*
X610408Y370215D01*
X610408Y372356D02*
X600392Y372356D01*
X593408Y372808D02*
X583392Y372808D01*
X593408Y372808D02*
X593408Y363792D01*
X583392Y363792D01*
X583392Y372808D01*
X583392Y365933D02*
X593408Y365933D01*
X593408Y368074D02*
X583392Y368074D01*
X583392Y370215D02*
X593408Y370215D01*
X593408Y372356D02*
X583392Y372356D01*
X583392Y379032D02*
X593408Y379032D01*
X583392Y379032D02*
X583392Y388048D01*
X593408Y388048D01*
X593408Y379032D01*
X593408Y381173D02*
X583392Y381173D01*
X583392Y383314D02*
X593408Y383314D01*
X593408Y385455D02*
X583392Y385455D01*
X583392Y387596D02*
X593408Y387596D01*
X600392Y379032D02*
X610408Y379032D01*
X600392Y379032D02*
X600392Y388048D01*
X610408Y388048D01*
X610408Y379032D01*
X610408Y381173D02*
X600392Y381173D01*
X600392Y383314D02*
X610408Y383314D01*
X610408Y385455D02*
X600392Y385455D01*
X600392Y387596D02*
X610408Y387596D01*
X377508Y532702D02*
X367492Y532702D01*
X367492Y541718D01*
X377508Y541718D01*
X377508Y532702D01*
X377508Y534843D02*
X367492Y534843D01*
X367492Y536984D02*
X377508Y536984D01*
X377508Y539125D02*
X367492Y539125D01*
X367492Y541266D02*
X377508Y541266D01*
X384492Y532702D02*
X394508Y532702D01*
X384492Y532702D02*
X384492Y541718D01*
X394508Y541718D01*
X394508Y532702D01*
X394508Y534843D02*
X384492Y534843D01*
X384492Y536984D02*
X394508Y536984D01*
X394508Y539125D02*
X384492Y539125D01*
X384492Y541266D02*
X394508Y541266D01*
X377508Y566992D02*
X367492Y566992D01*
X367492Y576008D01*
X377508Y576008D01*
X377508Y566992D01*
X377508Y569133D02*
X367492Y569133D01*
X367492Y571274D02*
X377508Y571274D01*
X377508Y573415D02*
X367492Y573415D01*
X367492Y575556D02*
X377508Y575556D01*
X384492Y566992D02*
X394508Y566992D01*
X384492Y566992D02*
X384492Y576008D01*
X394508Y576008D01*
X394508Y566992D01*
X394508Y569133D02*
X384492Y569133D01*
X384492Y571274D02*
X394508Y571274D01*
X394508Y573415D02*
X384492Y573415D01*
X384492Y575556D02*
X394508Y575556D01*
D32*
X302642Y454732D02*
X299638Y454732D01*
X302642Y454732D02*
X302642Y447728D01*
X299638Y447728D01*
X299638Y454732D01*
X299638Y449881D02*
X302642Y449881D01*
X302642Y452034D02*
X299638Y452034D01*
X299638Y454187D02*
X302642Y454187D01*
X296142Y454732D02*
X293138Y454732D01*
X296142Y454732D02*
X296142Y447728D01*
X293138Y447728D01*
X293138Y454732D01*
X293138Y449881D02*
X296142Y449881D01*
X296142Y452034D02*
X293138Y452034D01*
X293138Y454187D02*
X296142Y454187D01*
X289642Y454732D02*
X286638Y454732D01*
X289642Y454732D02*
X289642Y447728D01*
X286638Y447728D01*
X286638Y454732D01*
X286638Y449881D02*
X289642Y449881D01*
X289642Y452034D02*
X286638Y452034D01*
X286638Y454187D02*
X289642Y454187D01*
X289642Y438732D02*
X286638Y438732D01*
X289642Y438732D02*
X289642Y431728D01*
X286638Y431728D01*
X286638Y438732D01*
X286638Y433881D02*
X289642Y433881D01*
X289642Y436034D02*
X286638Y436034D01*
X286638Y438187D02*
X289642Y438187D01*
X293138Y438732D02*
X296142Y438732D01*
X296142Y431728D01*
X293138Y431728D01*
X293138Y438732D01*
X293138Y433881D02*
X296142Y433881D01*
X296142Y436034D02*
X293138Y436034D01*
X293138Y438187D02*
X296142Y438187D01*
X299638Y438732D02*
X302642Y438732D01*
X302642Y431728D01*
X299638Y431728D01*
X299638Y438732D01*
X299638Y433881D02*
X302642Y433881D01*
X302642Y436034D02*
X299638Y436034D01*
X299638Y438187D02*
X302642Y438187D01*
D10*
X313232Y353522D02*
X322248Y353522D01*
X313232Y353522D02*
X313232Y380538D01*
X322248Y380538D01*
X322248Y353522D01*
X322248Y355663D02*
X313232Y355663D01*
X313232Y357804D02*
X322248Y357804D01*
X322248Y359945D02*
X313232Y359945D01*
X313232Y362086D02*
X322248Y362086D01*
X322248Y364227D02*
X313232Y364227D01*
X313232Y366368D02*
X322248Y366368D01*
X322248Y368509D02*
X313232Y368509D01*
X313232Y370650D02*
X322248Y370650D01*
X322248Y372791D02*
X313232Y372791D01*
X313232Y374932D02*
X322248Y374932D01*
X322248Y377073D02*
X313232Y377073D01*
X313232Y379214D02*
X322248Y379214D01*
X343232Y353522D02*
X352248Y353522D01*
X343232Y353522D02*
X343232Y380538D01*
X352248Y380538D01*
X352248Y353522D01*
X352248Y355663D02*
X343232Y355663D01*
X343232Y357804D02*
X352248Y357804D01*
X352248Y359945D02*
X343232Y359945D01*
X343232Y362086D02*
X352248Y362086D01*
X352248Y364227D02*
X343232Y364227D01*
X343232Y366368D02*
X352248Y366368D01*
X352248Y368509D02*
X343232Y368509D01*
X343232Y370650D02*
X352248Y370650D01*
X352248Y372791D02*
X343232Y372791D01*
X343232Y374932D02*
X352248Y374932D01*
X352248Y377073D02*
X343232Y377073D01*
X343232Y379214D02*
X352248Y379214D01*
X333058Y387922D02*
X323042Y387922D01*
X323042Y396938D01*
X333058Y396938D01*
X333058Y387922D01*
X333058Y390063D02*
X323042Y390063D01*
X323042Y392204D02*
X333058Y392204D01*
X333058Y394345D02*
X323042Y394345D01*
X323042Y396486D02*
X333058Y396486D01*
X340042Y387922D02*
X350058Y387922D01*
X340042Y387922D02*
X340042Y396938D01*
X350058Y396938D01*
X350058Y387922D01*
X350058Y390063D02*
X340042Y390063D01*
X340042Y392204D02*
X350058Y392204D01*
X350058Y394345D02*
X340042Y394345D01*
X340042Y396486D02*
X350058Y396486D01*
X386652Y351328D02*
X386652Y341312D01*
X386652Y351328D02*
X395668Y351328D01*
X395668Y341312D01*
X386652Y341312D01*
X386652Y343453D02*
X395668Y343453D01*
X395668Y345594D02*
X386652Y345594D01*
X386652Y347735D02*
X395668Y347735D01*
X395668Y349876D02*
X386652Y349876D01*
X386652Y334328D02*
X386652Y324312D01*
X386652Y334328D02*
X395668Y334328D01*
X395668Y324312D01*
X386652Y324312D01*
X386652Y326453D02*
X395668Y326453D01*
X395668Y328594D02*
X386652Y328594D01*
X386652Y330735D02*
X395668Y330735D01*
X395668Y332876D02*
X386652Y332876D01*
D18*
X269240Y367030D03*
X294640Y367030D03*
D30*
X300664Y419106D02*
X307616Y419106D01*
X307616Y411154D01*
X300664Y411154D01*
X300664Y419106D01*
X300664Y413356D02*
X307616Y413356D01*
X307616Y415558D02*
X300664Y415558D01*
X300664Y417760D02*
X307616Y417760D01*
X288616Y419106D02*
X281664Y419106D01*
X288616Y419106D02*
X288616Y411154D01*
X281664Y411154D01*
X281664Y419106D01*
X281664Y413356D02*
X288616Y413356D01*
X288616Y415558D02*
X281664Y415558D01*
X281664Y417760D02*
X288616Y417760D01*
X291164Y398106D02*
X298116Y398106D01*
X298116Y390154D01*
X291164Y390154D01*
X291164Y398106D01*
X291164Y392356D02*
X298116Y392356D01*
X298116Y394558D02*
X291164Y394558D01*
X291164Y396760D02*
X298116Y396760D01*
D10*
X324548Y429722D02*
X324548Y439738D01*
X324548Y429722D02*
X315532Y429722D01*
X315532Y439738D01*
X324548Y439738D01*
X324548Y431863D02*
X315532Y431863D01*
X315532Y434004D02*
X324548Y434004D01*
X324548Y436145D02*
X315532Y436145D01*
X315532Y438286D02*
X324548Y438286D01*
X324548Y446722D02*
X324548Y456738D01*
X324548Y446722D02*
X315532Y446722D01*
X315532Y456738D01*
X324548Y456738D01*
X324548Y448863D02*
X315532Y448863D01*
X315532Y451004D02*
X324548Y451004D01*
X324548Y453145D02*
X315532Y453145D01*
X315532Y455286D02*
X324548Y455286D01*
X336232Y419798D02*
X346248Y419798D01*
X346248Y410782D01*
X336232Y410782D01*
X336232Y419798D01*
X336232Y412923D02*
X346248Y412923D01*
X346248Y415064D02*
X336232Y415064D01*
X336232Y417205D02*
X346248Y417205D01*
X346248Y419346D02*
X336232Y419346D01*
X329248Y419798D02*
X319232Y419798D01*
X329248Y419798D02*
X329248Y410782D01*
X319232Y410782D01*
X319232Y419798D01*
X319232Y412923D02*
X329248Y412923D01*
X329248Y415064D02*
X319232Y415064D01*
X319232Y417205D02*
X329248Y417205D01*
X329248Y419346D02*
X319232Y419346D01*
D33*
X386950Y424300D03*
D34*
X397450Y423300D03*
X401950Y423300D03*
X406450Y423300D03*
X397450Y440300D03*
X401950Y440300D03*
X406450Y440300D03*
D33*
X386950Y439300D03*
D35*
X385850Y431800D03*
D10*
X390698Y395668D02*
X380682Y395668D01*
X390698Y395668D02*
X390698Y386652D01*
X380682Y386652D01*
X380682Y395668D01*
X380682Y388793D02*
X390698Y388793D01*
X390698Y390934D02*
X380682Y390934D01*
X380682Y393075D02*
X390698Y393075D01*
X390698Y395216D02*
X380682Y395216D01*
X373698Y395668D02*
X363682Y395668D01*
X373698Y395668D02*
X373698Y386652D01*
X363682Y386652D01*
X363682Y395668D01*
X363682Y388793D02*
X373698Y388793D01*
X373698Y390934D02*
X363682Y390934D01*
X363682Y393075D02*
X373698Y393075D01*
X373698Y395216D02*
X363682Y395216D01*
X380682Y410908D02*
X390698Y410908D01*
X390698Y401892D01*
X380682Y401892D01*
X380682Y410908D01*
X380682Y404033D02*
X390698Y404033D01*
X390698Y406174D02*
X380682Y406174D01*
X380682Y408315D02*
X390698Y408315D01*
X390698Y410456D02*
X380682Y410456D01*
X373698Y410908D02*
X363682Y410908D01*
X373698Y410908D02*
X373698Y401892D01*
X363682Y401892D01*
X363682Y410908D01*
X363682Y404033D02*
X373698Y404033D01*
X373698Y406174D02*
X363682Y406174D01*
X363682Y408315D02*
X373698Y408315D01*
X373698Y410456D02*
X363682Y410456D01*
X408622Y461708D02*
X418638Y461708D01*
X418638Y452692D01*
X408622Y452692D01*
X408622Y461708D01*
X408622Y454833D02*
X418638Y454833D01*
X418638Y456974D02*
X408622Y456974D01*
X408622Y459115D02*
X418638Y459115D01*
X418638Y461256D02*
X408622Y461256D01*
X401638Y461708D02*
X391622Y461708D01*
X401638Y461708D02*
X401638Y452692D01*
X391622Y452692D01*
X391622Y461708D01*
X391622Y454833D02*
X401638Y454833D01*
X401638Y456974D02*
X391622Y456974D01*
X391622Y459115D02*
X401638Y459115D01*
X401638Y461256D02*
X391622Y461256D01*
D36*
X380111Y478155D02*
X419989Y478155D01*
X419989Y467741D01*
X380111Y467741D01*
X380111Y478155D01*
X380111Y469913D02*
X419989Y469913D01*
X419989Y472085D02*
X380111Y472085D01*
X380111Y474257D02*
X419989Y474257D01*
X419989Y476429D02*
X380111Y476429D01*
X380111Y507619D02*
X419989Y507619D01*
X419989Y497205D01*
X380111Y497205D01*
X380111Y507619D01*
X380111Y499377D02*
X419989Y499377D01*
X419989Y501549D02*
X380111Y501549D01*
X380111Y503721D02*
X419989Y503721D01*
X419989Y505893D02*
X380111Y505893D01*
D10*
X427418Y429578D02*
X427418Y419562D01*
X418402Y419562D01*
X418402Y429578D01*
X427418Y429578D01*
X427418Y421703D02*
X418402Y421703D01*
X418402Y423844D02*
X427418Y423844D01*
X427418Y425985D02*
X418402Y425985D01*
X418402Y428126D02*
X427418Y428126D01*
X427418Y436562D02*
X427418Y446578D01*
X427418Y436562D02*
X418402Y436562D01*
X418402Y446578D01*
X427418Y446578D01*
X427418Y438703D02*
X418402Y438703D01*
X418402Y440844D02*
X427418Y440844D01*
X427418Y442985D02*
X418402Y442985D01*
X418402Y445126D02*
X427418Y445126D01*
X442658Y429578D02*
X442658Y419562D01*
X433642Y419562D01*
X433642Y429578D01*
X442658Y429578D01*
X442658Y421703D02*
X433642Y421703D01*
X433642Y423844D02*
X442658Y423844D01*
X442658Y425985D02*
X433642Y425985D01*
X433642Y428126D02*
X442658Y428126D01*
X442658Y436562D02*
X442658Y446578D01*
X442658Y436562D02*
X433642Y436562D01*
X433642Y446578D01*
X442658Y446578D01*
X442658Y438703D02*
X433642Y438703D01*
X433642Y440844D02*
X442658Y440844D01*
X442658Y442985D02*
X433642Y442985D01*
X433642Y445126D02*
X442658Y445126D01*
X448882Y446578D02*
X448882Y436562D01*
X448882Y446578D02*
X457898Y446578D01*
X457898Y436562D01*
X448882Y436562D01*
X448882Y438703D02*
X457898Y438703D01*
X457898Y440844D02*
X448882Y440844D01*
X448882Y442985D02*
X457898Y442985D01*
X457898Y445126D02*
X448882Y445126D01*
X448882Y429578D02*
X448882Y419562D01*
X448882Y429578D02*
X457898Y429578D01*
X457898Y419562D01*
X448882Y419562D01*
X448882Y421703D02*
X457898Y421703D01*
X457898Y423844D02*
X448882Y423844D01*
X448882Y425985D02*
X457898Y425985D01*
X457898Y428126D02*
X448882Y428126D01*
X362522Y468312D02*
X362522Y478328D01*
X371538Y478328D01*
X371538Y468312D01*
X362522Y468312D01*
X362522Y470453D02*
X371538Y470453D01*
X371538Y472594D02*
X362522Y472594D01*
X362522Y474735D02*
X371538Y474735D01*
X371538Y476876D02*
X362522Y476876D01*
X362522Y461328D02*
X362522Y451312D01*
X362522Y461328D02*
X371538Y461328D01*
X371538Y451312D01*
X362522Y451312D01*
X362522Y453453D02*
X371538Y453453D01*
X371538Y455594D02*
X362522Y455594D01*
X362522Y457735D02*
X371538Y457735D01*
X371538Y459876D02*
X362522Y459876D01*
X347282Y468312D02*
X347282Y478328D01*
X356298Y478328D01*
X356298Y468312D01*
X347282Y468312D01*
X347282Y470453D02*
X356298Y470453D01*
X356298Y472594D02*
X347282Y472594D01*
X347282Y474735D02*
X356298Y474735D01*
X356298Y476876D02*
X347282Y476876D01*
X347282Y461328D02*
X347282Y451312D01*
X347282Y461328D02*
X356298Y461328D01*
X356298Y451312D01*
X347282Y451312D01*
X347282Y453453D02*
X356298Y453453D01*
X356298Y455594D02*
X347282Y455594D01*
X347282Y457735D02*
X356298Y457735D01*
X356298Y459876D02*
X347282Y459876D01*
X314008Y475552D02*
X303992Y475552D01*
X303992Y484568D01*
X314008Y484568D01*
X314008Y475552D01*
X314008Y477693D02*
X303992Y477693D01*
X303992Y479834D02*
X314008Y479834D01*
X314008Y481975D02*
X303992Y481975D01*
X303992Y484116D02*
X314008Y484116D01*
X320992Y475552D02*
X331008Y475552D01*
X320992Y475552D02*
X320992Y484568D01*
X331008Y484568D01*
X331008Y475552D01*
X331008Y477693D02*
X320992Y477693D01*
X320992Y479834D02*
X331008Y479834D01*
X331008Y481975D02*
X320992Y481975D01*
X320992Y484116D02*
X331008Y484116D01*
D11*
X322776Y491806D02*
X322776Y498794D01*
X329764Y498794D01*
X329764Y491806D01*
X322776Y491806D01*
X322776Y495875D02*
X329764Y495875D01*
X305236Y498794D02*
X305236Y491806D01*
X305236Y498794D02*
X312224Y498794D01*
X312224Y491806D01*
X305236Y491806D01*
X305236Y495875D02*
X312224Y495875D01*
D10*
X727392Y376618D02*
X737408Y376618D01*
X737408Y367602D01*
X727392Y367602D01*
X727392Y376618D01*
X727392Y369743D02*
X737408Y369743D01*
X737408Y371884D02*
X727392Y371884D01*
X727392Y374025D02*
X737408Y374025D01*
X737408Y376166D02*
X727392Y376166D01*
X720408Y376618D02*
X710392Y376618D01*
X720408Y376618D02*
X720408Y367602D01*
X710392Y367602D01*
X710392Y376618D01*
X710392Y369743D02*
X720408Y369743D01*
X720408Y371884D02*
X710392Y371884D01*
X710392Y374025D02*
X720408Y374025D01*
X720408Y376166D02*
X710392Y376166D01*
M02*
