G04 EAGLE Gerber RS-274X export*
G75*
%MOMM*%
%FSLAX34Y34*%
%LPD*%
%IN*%
%IPPOS*%
%AMOC8*
5,1,8,0,0,1.08239X$1,22.5*%
G01*
%ADD10C,0.254000*%
%ADD11C,0.000000*%
%ADD12C,0.254000*%


D10*
X-140970Y76200D02*
X-142791Y72730D01*
X-144527Y69217D01*
X-146176Y65663D01*
X-147738Y62069D01*
X-149212Y58438D01*
X-150596Y54772D01*
X-151890Y51073D01*
X-153094Y47344D01*
X-154205Y43587D01*
X-155225Y39803D01*
X-156152Y35996D01*
X-156985Y32167D01*
X-157725Y28319D01*
X-158370Y24454D01*
X-158921Y20574D01*
X-159376Y16682D01*
X-159737Y12780D01*
X-160001Y8870D01*
X-160170Y4955D01*
X-160244Y1038D01*
X-160221Y-2881D01*
X-160103Y-6798D01*
X-159889Y-10710D01*
X-159579Y-14617D01*
X-159174Y-18514D01*
X-158674Y-22401D01*
X-158078Y-26274D01*
X-157389Y-30131D01*
X-156605Y-33971D01*
X-155727Y-37790D01*
X-154757Y-41586D01*
X-153694Y-45358D01*
X-152539Y-49102D01*
X-151293Y-52817D01*
X-149956Y-56501D01*
X-148530Y-60150D01*
X-147014Y-63764D01*
X-145411Y-67340D01*
X-143721Y-70875D01*
X-141945Y-74368D01*
X-140084Y-77817D01*
X-138140Y-81219D01*
X-136113Y-84572D01*
X-134004Y-87875D01*
X-131815Y-91125D01*
X-129548Y-94321D01*
X-127203Y-97461D01*
X-124782Y-100542D01*
X-122286Y-103563D01*
X-119717Y-106522D01*
X-117077Y-109417D01*
X-114366Y-112247D01*
X-111588Y-115010D01*
X-108742Y-117704D01*
X-105832Y-120328D01*
X-102858Y-122880D01*
X-99822Y-125358D01*
X-96727Y-127761D01*
X-93574Y-130088D01*
X-90366Y-132337D01*
X-87103Y-134507D01*
X-83788Y-136597D01*
X-80423Y-138605D01*
X-77010Y-140530D01*
X-73551Y-142371D01*
X-70047Y-144127D01*
X-66502Y-145796D01*
X-62918Y-147379D01*
X-59295Y-148873D01*
X-55637Y-150278D01*
X-51946Y-151594D01*
X-48224Y-152819D01*
X-44473Y-153952D01*
X-40695Y-154994D01*
X-36893Y-155942D01*
X-33069Y-156798D01*
X-29225Y-157559D01*
X-25364Y-158227D01*
X-21488Y-158800D01*
X-17598Y-159278D01*
X-13699Y-159660D01*
X-9791Y-159948D01*
X-5877Y-160139D01*
X-1959Y-160235D01*
X1959Y-160235D01*
X5877Y-160139D01*
X9791Y-159948D01*
X13699Y-159660D01*
X17598Y-159278D01*
X21488Y-158800D01*
X25364Y-158227D01*
X29225Y-157559D01*
X33069Y-156798D01*
X36893Y-155942D01*
X40695Y-154994D01*
X44473Y-153952D01*
X48224Y-152819D01*
X51946Y-151594D01*
X55637Y-150278D01*
X59295Y-148873D01*
X62918Y-147379D01*
X66502Y-145796D01*
X70047Y-144127D01*
X73551Y-142371D01*
X77010Y-140530D01*
X80423Y-138605D01*
X83788Y-136597D01*
X87103Y-134507D01*
X90366Y-132337D01*
X93574Y-130088D01*
X96727Y-127761D01*
X99822Y-125358D01*
X102858Y-122880D01*
X105832Y-120328D01*
X108742Y-117704D01*
X111588Y-115010D01*
X114366Y-112247D01*
X117077Y-109417D01*
X119717Y-106522D01*
X122286Y-103563D01*
X124782Y-100542D01*
X127203Y-97461D01*
X129548Y-94321D01*
X131815Y-91125D01*
X134004Y-87875D01*
X136113Y-84572D01*
X138140Y-81219D01*
X140084Y-77817D01*
X141945Y-74368D01*
X143721Y-70875D01*
X145411Y-67340D01*
X147014Y-63764D01*
X148530Y-60150D01*
X149956Y-56501D01*
X151293Y-52817D01*
X152539Y-49102D01*
X153694Y-45358D01*
X154757Y-41586D01*
X155727Y-37790D01*
X156605Y-33971D01*
X157389Y-30131D01*
X158078Y-26274D01*
X158674Y-22401D01*
X159174Y-18514D01*
X159579Y-14617D01*
X159889Y-10710D01*
X160103Y-6798D01*
X160221Y-2881D01*
X160244Y1038D01*
X160170Y4955D01*
X160001Y8870D01*
X159737Y12780D01*
X159376Y16682D01*
X158921Y20574D01*
X158370Y24454D01*
X157725Y28319D01*
X156985Y32167D01*
X156152Y35996D01*
X155225Y39803D01*
X154205Y43587D01*
X153094Y47344D01*
X151890Y51073D01*
X150596Y54772D01*
X149212Y58438D01*
X147738Y62069D01*
X146176Y65663D01*
X144527Y69217D01*
X142791Y72730D01*
X140970Y76200D01*
X-62230Y30480D02*
X-61664Y31440D01*
X-61122Y32412D01*
X-60604Y33398D01*
X-60110Y34396D01*
X-59640Y35406D01*
X-59196Y36427D01*
X-58776Y37459D01*
X-58382Y38501D01*
X-58014Y39552D01*
X-57671Y40611D01*
X-57354Y41679D01*
X-57064Y42754D01*
X-56800Y43836D01*
X-56562Y44924D01*
X-56351Y46018D01*
X-56167Y47116D01*
X-56010Y48219D01*
X-55880Y49325D01*
X-55777Y50434D01*
X-55701Y51545D01*
X-55653Y52658D01*
X-55631Y53771D01*
X-55637Y54885D01*
X-55670Y55998D01*
X-55730Y57110D01*
X-55818Y58220D01*
X-55932Y59328D01*
X-56074Y60433D01*
X-56242Y61534D01*
X-56438Y62630D01*
X-56660Y63721D01*
X-56909Y64807D01*
X-57184Y65886D01*
X-57486Y66958D01*
X-57814Y68023D01*
X-58167Y69079D01*
X-58547Y70126D01*
X-58952Y71163D01*
X-59382Y72191D01*
X-59837Y73207D01*
X-60317Y74212D01*
X-60821Y75205D01*
X-61350Y76185D01*
X-61902Y77152D01*
X-62478Y78106D01*
X-63077Y79045D01*
X-63698Y79969D01*
X-64342Y80877D01*
X-65008Y81770D01*
X-65696Y82646D01*
X-66405Y83505D01*
X-67135Y84346D01*
X-67885Y85169D01*
X-68655Y85974D01*
X-69445Y86759D01*
X-70253Y87525D01*
X-71080Y88271D01*
X-71925Y88997D01*
X-72787Y89702D01*
X-73667Y90385D01*
X-74563Y91047D01*
X-75474Y91686D01*
X-76402Y92303D01*
X-77344Y92897D01*
X-78300Y93468D01*
X-79270Y94016D01*
X-80253Y94539D01*
X-81248Y95039D01*
X-82256Y95513D01*
X-83274Y95963D01*
X-84304Y96388D01*
X-85343Y96788D01*
X-86392Y97162D01*
X-87450Y97511D01*
X-88516Y97833D01*
X-89590Y98129D01*
X-90670Y98399D01*
X-91757Y98643D01*
X-92849Y98859D01*
X-93947Y99049D01*
X-95048Y99212D01*
X-96154Y99349D01*
X-97262Y99458D01*
X-98373Y99539D01*
X-99485Y99594D01*
X-100599Y99621D01*
X-101712Y99622D01*
X-102826Y99595D01*
X-103938Y99540D01*
X-105049Y99459D01*
X-106157Y99350D01*
X-107263Y99215D01*
X-108364Y99052D01*
X-109462Y98863D01*
X-110554Y98646D01*
X-111641Y98403D01*
X-112722Y98134D01*
X-113795Y97838D01*
X-114862Y97516D01*
X-115920Y97168D01*
X-116969Y96794D01*
X-118008Y96395D01*
X-119038Y95970D01*
X-120057Y95521D01*
X-121064Y95046D01*
X-122060Y94547D01*
X-123043Y94024D01*
X-124013Y93477D01*
X-124970Y92906D01*
X-125912Y92313D01*
X-126839Y91696D01*
X-127751Y91057D01*
X-128647Y90395D01*
X-129527Y89712D01*
X-130390Y89008D01*
X-131235Y88283D01*
X-132062Y87537D01*
X-132871Y86771D01*
X-133661Y85986D01*
X-134431Y85182D01*
X-135182Y84359D01*
X-135912Y83518D01*
X-136621Y82659D01*
X-137309Y81784D01*
X-137976Y80891D01*
X-138620Y79983D01*
X-139242Y79059D01*
X-139841Y78120D01*
X-140417Y77167D01*
X-140970Y76200D01*
X59690Y34290D02*
X59171Y35280D01*
X58677Y36283D01*
X58207Y37298D01*
X57762Y38324D01*
X57342Y39361D01*
X56948Y40407D01*
X56580Y41463D01*
X56237Y42528D01*
X55921Y43600D01*
X55630Y44680D01*
X55367Y45767D01*
X55130Y46860D01*
X54919Y47958D01*
X54736Y49061D01*
X54580Y50169D01*
X54451Y51280D01*
X54349Y52393D01*
X54274Y53509D01*
X54227Y54626D01*
X54207Y55744D01*
X54214Y56863D01*
X54249Y57980D01*
X54311Y59097D01*
X54400Y60212D01*
X54516Y61324D01*
X54660Y62433D01*
X54831Y63538D01*
X55028Y64639D01*
X55253Y65734D01*
X55504Y66824D01*
X55782Y67907D01*
X56086Y68983D01*
X56417Y70052D01*
X56773Y71112D01*
X57155Y72163D01*
X57563Y73204D01*
X57997Y74235D01*
X58455Y75255D01*
X58938Y76264D01*
X59446Y77260D01*
X59977Y78244D01*
X60533Y79214D01*
X61112Y80171D01*
X61715Y81113D01*
X62340Y82040D01*
X62988Y82952D01*
X63658Y83847D01*
X64350Y84726D01*
X65063Y85587D01*
X65796Y86431D01*
X66550Y87257D01*
X67325Y88064D01*
X68118Y88852D01*
X68931Y89620D01*
X69762Y90368D01*
X70611Y91096D01*
X71478Y91802D01*
X72362Y92488D01*
X73262Y93151D01*
X74179Y93792D01*
X75110Y94411D01*
X76057Y95006D01*
X77017Y95579D01*
X77992Y96127D01*
X78980Y96652D01*
X79980Y97152D01*
X80992Y97628D01*
X82015Y98079D01*
X83049Y98504D01*
X84093Y98904D01*
X85147Y99279D01*
X86210Y99628D01*
X87280Y99950D01*
X88359Y100247D01*
X89444Y100517D01*
X90536Y100760D01*
X91633Y100977D01*
X92735Y101166D01*
X93841Y101329D01*
X94951Y101464D01*
X96064Y101573D01*
X97180Y101654D01*
X98297Y101708D01*
X99415Y101734D01*
X100533Y101733D01*
X101651Y101705D01*
X102768Y101649D01*
X103883Y101567D01*
X104996Y101456D01*
X106106Y101319D01*
X107212Y101155D01*
X108314Y100963D01*
X109410Y100745D01*
X110502Y100500D01*
X111586Y100229D01*
X112664Y99931D01*
X113734Y99606D01*
X114796Y99256D01*
X115850Y98880D01*
X116893Y98478D01*
X117927Y98051D01*
X118949Y97598D01*
X119961Y97121D01*
X120960Y96619D01*
X121947Y96093D01*
X122920Y95543D01*
X123880Y94969D01*
X124826Y94372D01*
X125757Y93752D01*
X126672Y93109D01*
X127571Y92444D01*
X128454Y91758D01*
X129319Y91050D01*
X130168Y90321D01*
X130998Y89572D01*
X131809Y88802D01*
X132601Y88013D01*
X133374Y87205D01*
X134127Y86378D01*
X134860Y85533D01*
X135571Y84670D01*
X136261Y83790D01*
X136930Y82894D01*
X137576Y81981D01*
X138200Y81053D01*
X138801Y80110D01*
X139379Y79153D01*
X139933Y78181D01*
X140464Y77197D01*
X140970Y76200D01*
X59690Y34290D02*
X60494Y32816D01*
X61262Y31323D01*
X61993Y29811D01*
X62687Y28282D01*
X63343Y26737D01*
X63962Y25175D01*
X64542Y23600D01*
X65084Y22010D01*
X65586Y20408D01*
X66050Y18794D01*
X66474Y17169D01*
X66858Y15535D01*
X67202Y13891D01*
X67505Y12239D01*
X67769Y10581D01*
X67991Y8917D01*
X68173Y7247D01*
X68315Y5574D01*
X68415Y3898D01*
X68475Y2220D01*
X68493Y541D01*
X68470Y-1138D01*
X68407Y-2816D01*
X68302Y-4492D01*
X68157Y-6165D01*
X67971Y-7834D01*
X67744Y-9498D01*
X67476Y-11155D01*
X67168Y-12806D01*
X66820Y-14449D01*
X66432Y-16083D01*
X66005Y-17706D01*
X65537Y-19319D01*
X65031Y-20920D01*
X64485Y-22508D01*
X63901Y-24083D01*
X63279Y-25642D01*
X62618Y-27186D01*
X61920Y-28713D01*
X61186Y-30223D01*
X60414Y-31715D01*
X59606Y-33187D01*
X58763Y-34639D01*
X57884Y-36070D01*
X56971Y-37479D01*
X56024Y-38865D01*
X55043Y-40228D01*
X54029Y-41567D01*
X52982Y-42880D01*
X51904Y-44168D01*
X50795Y-45428D01*
X49655Y-46661D01*
X48486Y-47867D01*
X47288Y-49043D01*
X46061Y-50189D01*
X44806Y-51305D01*
X43525Y-52391D01*
X42217Y-53444D01*
X40885Y-54466D01*
X39527Y-55454D01*
X38146Y-56409D01*
X36742Y-57331D01*
X35316Y-58217D01*
X33869Y-59069D01*
X32401Y-59885D01*
X30914Y-60664D01*
X29408Y-61408D01*
X27885Y-62114D01*
X26345Y-62783D01*
X24789Y-63414D01*
X23218Y-64007D01*
X21632Y-64561D01*
X20034Y-65077D01*
X18424Y-65553D01*
X16803Y-65990D01*
X15171Y-66387D01*
X13531Y-66744D01*
X11882Y-67061D01*
X10225Y-67338D01*
X8563Y-67574D01*
X6895Y-67770D01*
X5223Y-67925D01*
X3548Y-68039D01*
X1870Y-68111D01*
X191Y-68143D01*
X-1488Y-68134D01*
X-3166Y-68084D01*
X-4843Y-67993D01*
X-6517Y-67861D01*
X-8187Y-67689D01*
X-9853Y-67475D01*
X-11513Y-67221D01*
X-13166Y-66927D01*
X-14812Y-66592D01*
X-16448Y-66217D01*
X-18075Y-65802D01*
X-19692Y-65348D01*
X-21297Y-64854D01*
X-22889Y-64321D01*
X-24468Y-63750D01*
X-26033Y-63140D01*
X-27582Y-62492D01*
X-29115Y-61807D01*
X-30631Y-61084D01*
X-32128Y-60325D01*
X-33607Y-59529D01*
X-35066Y-58697D01*
X-36504Y-57830D01*
X-37920Y-56928D01*
X-39314Y-55992D01*
X-40685Y-55022D01*
X-42032Y-54019D01*
X-43353Y-52983D01*
X-44649Y-51916D01*
X-45919Y-50817D01*
X-47161Y-49687D01*
X-48376Y-48527D01*
X-49562Y-47338D01*
X-50718Y-46121D01*
X-51844Y-44875D01*
X-52940Y-43603D01*
X-54004Y-42304D01*
X-55036Y-40979D01*
X-56036Y-39630D01*
X-57002Y-38257D01*
X-57934Y-36860D01*
X-58832Y-35441D01*
X-59695Y-34001D01*
X-60523Y-32540D01*
X-61315Y-31059D01*
X-62070Y-29559D01*
X-62789Y-28042D01*
X-63470Y-26507D01*
X-64114Y-24956D01*
X-64719Y-23390D01*
X-65287Y-21809D01*
X-65815Y-20215D01*
X-66304Y-18609D01*
X-66754Y-16991D01*
X-67164Y-15363D01*
X-67535Y-13725D01*
X-67865Y-12079D01*
X-68155Y-10425D01*
X-68405Y-8764D01*
X-68614Y-7098D01*
X-68782Y-5427D01*
X-68909Y-3753D01*
X-68996Y-2076D01*
X-69041Y-397D01*
X-69046Y1282D01*
X-69009Y2960D01*
X-68932Y4638D01*
X-68813Y6313D01*
X-68654Y7985D01*
X-68454Y9652D01*
X-68213Y11314D01*
X-67932Y12969D01*
X-67611Y14617D01*
X-67249Y16257D01*
X-66847Y17887D01*
X-66406Y19508D01*
X-65925Y21117D01*
X-65406Y22713D01*
X-64847Y24297D01*
X-64250Y25866D01*
X-63614Y27421D01*
X-62941Y28959D01*
X-62231Y30480D01*
D11*
X-97658Y51250D02*
X-97655Y51468D01*
X-97647Y51686D01*
X-97634Y51904D01*
X-97615Y52121D01*
X-97591Y52338D01*
X-97562Y52554D01*
X-97527Y52770D01*
X-97487Y52984D01*
X-97442Y53198D01*
X-97392Y53410D01*
X-97336Y53621D01*
X-97275Y53831D01*
X-97209Y54039D01*
X-97138Y54245D01*
X-97062Y54449D01*
X-96981Y54652D01*
X-96895Y54853D01*
X-96804Y55051D01*
X-96709Y55247D01*
X-96608Y55441D01*
X-96503Y55632D01*
X-96393Y55820D01*
X-96279Y56006D01*
X-96160Y56189D01*
X-96036Y56369D01*
X-95909Y56546D01*
X-95776Y56719D01*
X-95640Y56890D01*
X-95500Y57057D01*
X-95355Y57220D01*
X-95207Y57380D01*
X-95054Y57536D01*
X-94898Y57689D01*
X-94738Y57837D01*
X-94575Y57982D01*
X-94408Y58122D01*
X-94237Y58258D01*
X-94064Y58391D01*
X-93887Y58518D01*
X-93707Y58642D01*
X-93524Y58761D01*
X-93338Y58875D01*
X-93150Y58985D01*
X-92959Y59090D01*
X-92765Y59191D01*
X-92569Y59286D01*
X-92371Y59377D01*
X-92170Y59463D01*
X-91967Y59544D01*
X-91763Y59620D01*
X-91557Y59691D01*
X-91349Y59757D01*
X-91139Y59818D01*
X-90928Y59874D01*
X-90716Y59924D01*
X-90502Y59969D01*
X-90288Y60009D01*
X-90072Y60044D01*
X-89856Y60073D01*
X-89639Y60097D01*
X-89422Y60116D01*
X-89204Y60129D01*
X-88986Y60137D01*
X-88768Y60140D01*
X-88550Y60137D01*
X-88332Y60129D01*
X-88114Y60116D01*
X-87897Y60097D01*
X-87680Y60073D01*
X-87464Y60044D01*
X-87248Y60009D01*
X-87034Y59969D01*
X-86820Y59924D01*
X-86608Y59874D01*
X-86397Y59818D01*
X-86187Y59757D01*
X-85979Y59691D01*
X-85773Y59620D01*
X-85569Y59544D01*
X-85366Y59463D01*
X-85165Y59377D01*
X-84967Y59286D01*
X-84771Y59191D01*
X-84577Y59090D01*
X-84386Y58985D01*
X-84198Y58875D01*
X-84012Y58761D01*
X-83829Y58642D01*
X-83649Y58518D01*
X-83472Y58391D01*
X-83299Y58258D01*
X-83128Y58122D01*
X-82961Y57982D01*
X-82798Y57837D01*
X-82638Y57689D01*
X-82482Y57536D01*
X-82329Y57380D01*
X-82181Y57220D01*
X-82036Y57057D01*
X-81896Y56890D01*
X-81760Y56719D01*
X-81627Y56546D01*
X-81500Y56369D01*
X-81376Y56189D01*
X-81257Y56006D01*
X-81143Y55820D01*
X-81033Y55632D01*
X-80928Y55441D01*
X-80827Y55247D01*
X-80732Y55051D01*
X-80641Y54853D01*
X-80555Y54652D01*
X-80474Y54449D01*
X-80398Y54245D01*
X-80327Y54039D01*
X-80261Y53831D01*
X-80200Y53621D01*
X-80144Y53410D01*
X-80094Y53198D01*
X-80049Y52984D01*
X-80009Y52770D01*
X-79974Y52554D01*
X-79945Y52338D01*
X-79921Y52121D01*
X-79902Y51904D01*
X-79889Y51686D01*
X-79881Y51468D01*
X-79878Y51250D01*
X-79881Y51032D01*
X-79889Y50814D01*
X-79902Y50596D01*
X-79921Y50379D01*
X-79945Y50162D01*
X-79974Y49946D01*
X-80009Y49730D01*
X-80049Y49516D01*
X-80094Y49302D01*
X-80144Y49090D01*
X-80200Y48879D01*
X-80261Y48669D01*
X-80327Y48461D01*
X-80398Y48255D01*
X-80474Y48051D01*
X-80555Y47848D01*
X-80641Y47647D01*
X-80732Y47449D01*
X-80827Y47253D01*
X-80928Y47059D01*
X-81033Y46868D01*
X-81143Y46680D01*
X-81257Y46494D01*
X-81376Y46311D01*
X-81500Y46131D01*
X-81627Y45954D01*
X-81760Y45781D01*
X-81896Y45610D01*
X-82036Y45443D01*
X-82181Y45280D01*
X-82329Y45120D01*
X-82482Y44964D01*
X-82638Y44811D01*
X-82798Y44663D01*
X-82961Y44518D01*
X-83128Y44378D01*
X-83299Y44242D01*
X-83472Y44109D01*
X-83649Y43982D01*
X-83829Y43858D01*
X-84012Y43739D01*
X-84198Y43625D01*
X-84386Y43515D01*
X-84577Y43410D01*
X-84771Y43309D01*
X-84967Y43214D01*
X-85165Y43123D01*
X-85366Y43037D01*
X-85569Y42956D01*
X-85773Y42880D01*
X-85979Y42809D01*
X-86187Y42743D01*
X-86397Y42682D01*
X-86608Y42626D01*
X-86820Y42576D01*
X-87034Y42531D01*
X-87248Y42491D01*
X-87464Y42456D01*
X-87680Y42427D01*
X-87897Y42403D01*
X-88114Y42384D01*
X-88332Y42371D01*
X-88550Y42363D01*
X-88768Y42360D01*
X-88986Y42363D01*
X-89204Y42371D01*
X-89422Y42384D01*
X-89639Y42403D01*
X-89856Y42427D01*
X-90072Y42456D01*
X-90288Y42491D01*
X-90502Y42531D01*
X-90716Y42576D01*
X-90928Y42626D01*
X-91139Y42682D01*
X-91349Y42743D01*
X-91557Y42809D01*
X-91763Y42880D01*
X-91967Y42956D01*
X-92170Y43037D01*
X-92371Y43123D01*
X-92569Y43214D01*
X-92765Y43309D01*
X-92959Y43410D01*
X-93150Y43515D01*
X-93338Y43625D01*
X-93524Y43739D01*
X-93707Y43858D01*
X-93887Y43982D01*
X-94064Y44109D01*
X-94237Y44242D01*
X-94408Y44378D01*
X-94575Y44518D01*
X-94738Y44663D01*
X-94898Y44811D01*
X-95054Y44964D01*
X-95207Y45120D01*
X-95355Y45280D01*
X-95500Y45443D01*
X-95640Y45610D01*
X-95776Y45781D01*
X-95909Y45954D01*
X-96036Y46131D01*
X-96160Y46311D01*
X-96279Y46494D01*
X-96393Y46680D01*
X-96503Y46868D01*
X-96608Y47059D01*
X-96709Y47253D01*
X-96804Y47449D01*
X-96895Y47647D01*
X-96981Y47848D01*
X-97062Y48051D01*
X-97138Y48255D01*
X-97209Y48461D01*
X-97275Y48669D01*
X-97336Y48879D01*
X-97392Y49090D01*
X-97442Y49302D01*
X-97487Y49516D01*
X-97527Y49730D01*
X-97562Y49946D01*
X-97591Y50162D01*
X-97615Y50379D01*
X-97634Y50596D01*
X-97647Y50814D01*
X-97655Y51032D01*
X-97658Y51250D01*
X-8890Y-102500D02*
X-8887Y-102282D01*
X-8879Y-102064D01*
X-8866Y-101846D01*
X-8847Y-101629D01*
X-8823Y-101412D01*
X-8794Y-101196D01*
X-8759Y-100980D01*
X-8719Y-100766D01*
X-8674Y-100552D01*
X-8624Y-100340D01*
X-8568Y-100129D01*
X-8507Y-99919D01*
X-8441Y-99711D01*
X-8370Y-99505D01*
X-8294Y-99301D01*
X-8213Y-99098D01*
X-8127Y-98897D01*
X-8036Y-98699D01*
X-7941Y-98503D01*
X-7840Y-98309D01*
X-7735Y-98118D01*
X-7625Y-97930D01*
X-7511Y-97744D01*
X-7392Y-97561D01*
X-7268Y-97381D01*
X-7141Y-97204D01*
X-7008Y-97031D01*
X-6872Y-96860D01*
X-6732Y-96693D01*
X-6587Y-96530D01*
X-6439Y-96370D01*
X-6286Y-96214D01*
X-6130Y-96061D01*
X-5970Y-95913D01*
X-5807Y-95768D01*
X-5640Y-95628D01*
X-5469Y-95492D01*
X-5296Y-95359D01*
X-5119Y-95232D01*
X-4939Y-95108D01*
X-4756Y-94989D01*
X-4570Y-94875D01*
X-4382Y-94765D01*
X-4191Y-94660D01*
X-3997Y-94559D01*
X-3801Y-94464D01*
X-3603Y-94373D01*
X-3402Y-94287D01*
X-3199Y-94206D01*
X-2995Y-94130D01*
X-2789Y-94059D01*
X-2581Y-93993D01*
X-2371Y-93932D01*
X-2160Y-93876D01*
X-1948Y-93826D01*
X-1734Y-93781D01*
X-1520Y-93741D01*
X-1304Y-93706D01*
X-1088Y-93677D01*
X-871Y-93653D01*
X-654Y-93634D01*
X-436Y-93621D01*
X-218Y-93613D01*
X0Y-93610D01*
X218Y-93613D01*
X436Y-93621D01*
X654Y-93634D01*
X871Y-93653D01*
X1088Y-93677D01*
X1304Y-93706D01*
X1520Y-93741D01*
X1734Y-93781D01*
X1948Y-93826D01*
X2160Y-93876D01*
X2371Y-93932D01*
X2581Y-93993D01*
X2789Y-94059D01*
X2995Y-94130D01*
X3199Y-94206D01*
X3402Y-94287D01*
X3603Y-94373D01*
X3801Y-94464D01*
X3997Y-94559D01*
X4191Y-94660D01*
X4382Y-94765D01*
X4570Y-94875D01*
X4756Y-94989D01*
X4939Y-95108D01*
X5119Y-95232D01*
X5296Y-95359D01*
X5469Y-95492D01*
X5640Y-95628D01*
X5807Y-95768D01*
X5970Y-95913D01*
X6130Y-96061D01*
X6286Y-96214D01*
X6439Y-96370D01*
X6587Y-96530D01*
X6732Y-96693D01*
X6872Y-96860D01*
X7008Y-97031D01*
X7141Y-97204D01*
X7268Y-97381D01*
X7392Y-97561D01*
X7511Y-97744D01*
X7625Y-97930D01*
X7735Y-98118D01*
X7840Y-98309D01*
X7941Y-98503D01*
X8036Y-98699D01*
X8127Y-98897D01*
X8213Y-99098D01*
X8294Y-99301D01*
X8370Y-99505D01*
X8441Y-99711D01*
X8507Y-99919D01*
X8568Y-100129D01*
X8624Y-100340D01*
X8674Y-100552D01*
X8719Y-100766D01*
X8759Y-100980D01*
X8794Y-101196D01*
X8823Y-101412D01*
X8847Y-101629D01*
X8866Y-101846D01*
X8879Y-102064D01*
X8887Y-102282D01*
X8890Y-102500D01*
X8887Y-102718D01*
X8879Y-102936D01*
X8866Y-103154D01*
X8847Y-103371D01*
X8823Y-103588D01*
X8794Y-103804D01*
X8759Y-104020D01*
X8719Y-104234D01*
X8674Y-104448D01*
X8624Y-104660D01*
X8568Y-104871D01*
X8507Y-105081D01*
X8441Y-105289D01*
X8370Y-105495D01*
X8294Y-105699D01*
X8213Y-105902D01*
X8127Y-106103D01*
X8036Y-106301D01*
X7941Y-106497D01*
X7840Y-106691D01*
X7735Y-106882D01*
X7625Y-107070D01*
X7511Y-107256D01*
X7392Y-107439D01*
X7268Y-107619D01*
X7141Y-107796D01*
X7008Y-107969D01*
X6872Y-108140D01*
X6732Y-108307D01*
X6587Y-108470D01*
X6439Y-108630D01*
X6286Y-108786D01*
X6130Y-108939D01*
X5970Y-109087D01*
X5807Y-109232D01*
X5640Y-109372D01*
X5469Y-109508D01*
X5296Y-109641D01*
X5119Y-109768D01*
X4939Y-109892D01*
X4756Y-110011D01*
X4570Y-110125D01*
X4382Y-110235D01*
X4191Y-110340D01*
X3997Y-110441D01*
X3801Y-110536D01*
X3603Y-110627D01*
X3402Y-110713D01*
X3199Y-110794D01*
X2995Y-110870D01*
X2789Y-110941D01*
X2581Y-111007D01*
X2371Y-111068D01*
X2160Y-111124D01*
X1948Y-111174D01*
X1734Y-111219D01*
X1520Y-111259D01*
X1304Y-111294D01*
X1088Y-111323D01*
X871Y-111347D01*
X654Y-111366D01*
X436Y-111379D01*
X218Y-111387D01*
X0Y-111390D01*
X-218Y-111387D01*
X-436Y-111379D01*
X-654Y-111366D01*
X-871Y-111347D01*
X-1088Y-111323D01*
X-1304Y-111294D01*
X-1520Y-111259D01*
X-1734Y-111219D01*
X-1948Y-111174D01*
X-2160Y-111124D01*
X-2371Y-111068D01*
X-2581Y-111007D01*
X-2789Y-110941D01*
X-2995Y-110870D01*
X-3199Y-110794D01*
X-3402Y-110713D01*
X-3603Y-110627D01*
X-3801Y-110536D01*
X-3997Y-110441D01*
X-4191Y-110340D01*
X-4382Y-110235D01*
X-4570Y-110125D01*
X-4756Y-110011D01*
X-4939Y-109892D01*
X-5119Y-109768D01*
X-5296Y-109641D01*
X-5469Y-109508D01*
X-5640Y-109372D01*
X-5807Y-109232D01*
X-5970Y-109087D01*
X-6130Y-108939D01*
X-6286Y-108786D01*
X-6439Y-108630D01*
X-6587Y-108470D01*
X-6732Y-108307D01*
X-6872Y-108140D01*
X-7008Y-107969D01*
X-7141Y-107796D01*
X-7268Y-107619D01*
X-7392Y-107439D01*
X-7511Y-107256D01*
X-7625Y-107070D01*
X-7735Y-106882D01*
X-7840Y-106691D01*
X-7941Y-106497D01*
X-8036Y-106301D01*
X-8127Y-106103D01*
X-8213Y-105902D01*
X-8294Y-105699D01*
X-8370Y-105495D01*
X-8441Y-105289D01*
X-8507Y-105081D01*
X-8568Y-104871D01*
X-8624Y-104660D01*
X-8674Y-104448D01*
X-8719Y-104234D01*
X-8759Y-104020D01*
X-8794Y-103804D01*
X-8823Y-103588D01*
X-8847Y-103371D01*
X-8866Y-103154D01*
X-8879Y-102936D01*
X-8887Y-102718D01*
X-8890Y-102500D01*
X79878Y51250D02*
X79881Y51468D01*
X79889Y51686D01*
X79902Y51904D01*
X79921Y52121D01*
X79945Y52338D01*
X79974Y52554D01*
X80009Y52770D01*
X80049Y52984D01*
X80094Y53198D01*
X80144Y53410D01*
X80200Y53621D01*
X80261Y53831D01*
X80327Y54039D01*
X80398Y54245D01*
X80474Y54449D01*
X80555Y54652D01*
X80641Y54853D01*
X80732Y55051D01*
X80827Y55247D01*
X80928Y55441D01*
X81033Y55632D01*
X81143Y55820D01*
X81257Y56006D01*
X81376Y56189D01*
X81500Y56369D01*
X81627Y56546D01*
X81760Y56719D01*
X81896Y56890D01*
X82036Y57057D01*
X82181Y57220D01*
X82329Y57380D01*
X82482Y57536D01*
X82638Y57689D01*
X82798Y57837D01*
X82961Y57982D01*
X83128Y58122D01*
X83299Y58258D01*
X83472Y58391D01*
X83649Y58518D01*
X83829Y58642D01*
X84012Y58761D01*
X84198Y58875D01*
X84386Y58985D01*
X84577Y59090D01*
X84771Y59191D01*
X84967Y59286D01*
X85165Y59377D01*
X85366Y59463D01*
X85569Y59544D01*
X85773Y59620D01*
X85979Y59691D01*
X86187Y59757D01*
X86397Y59818D01*
X86608Y59874D01*
X86820Y59924D01*
X87034Y59969D01*
X87248Y60009D01*
X87464Y60044D01*
X87680Y60073D01*
X87897Y60097D01*
X88114Y60116D01*
X88332Y60129D01*
X88550Y60137D01*
X88768Y60140D01*
X88986Y60137D01*
X89204Y60129D01*
X89422Y60116D01*
X89639Y60097D01*
X89856Y60073D01*
X90072Y60044D01*
X90288Y60009D01*
X90502Y59969D01*
X90716Y59924D01*
X90928Y59874D01*
X91139Y59818D01*
X91349Y59757D01*
X91557Y59691D01*
X91763Y59620D01*
X91967Y59544D01*
X92170Y59463D01*
X92371Y59377D01*
X92569Y59286D01*
X92765Y59191D01*
X92959Y59090D01*
X93150Y58985D01*
X93338Y58875D01*
X93524Y58761D01*
X93707Y58642D01*
X93887Y58518D01*
X94064Y58391D01*
X94237Y58258D01*
X94408Y58122D01*
X94575Y57982D01*
X94738Y57837D01*
X94898Y57689D01*
X95054Y57536D01*
X95207Y57380D01*
X95355Y57220D01*
X95500Y57057D01*
X95640Y56890D01*
X95776Y56719D01*
X95909Y56546D01*
X96036Y56369D01*
X96160Y56189D01*
X96279Y56006D01*
X96393Y55820D01*
X96503Y55632D01*
X96608Y55441D01*
X96709Y55247D01*
X96804Y55051D01*
X96895Y54853D01*
X96981Y54652D01*
X97062Y54449D01*
X97138Y54245D01*
X97209Y54039D01*
X97275Y53831D01*
X97336Y53621D01*
X97392Y53410D01*
X97442Y53198D01*
X97487Y52984D01*
X97527Y52770D01*
X97562Y52554D01*
X97591Y52338D01*
X97615Y52121D01*
X97634Y51904D01*
X97647Y51686D01*
X97655Y51468D01*
X97658Y51250D01*
X97655Y51032D01*
X97647Y50814D01*
X97634Y50596D01*
X97615Y50379D01*
X97591Y50162D01*
X97562Y49946D01*
X97527Y49730D01*
X97487Y49516D01*
X97442Y49302D01*
X97392Y49090D01*
X97336Y48879D01*
X97275Y48669D01*
X97209Y48461D01*
X97138Y48255D01*
X97062Y48051D01*
X96981Y47848D01*
X96895Y47647D01*
X96804Y47449D01*
X96709Y47253D01*
X96608Y47059D01*
X96503Y46868D01*
X96393Y46680D01*
X96279Y46494D01*
X96160Y46311D01*
X96036Y46131D01*
X95909Y45954D01*
X95776Y45781D01*
X95640Y45610D01*
X95500Y45443D01*
X95355Y45280D01*
X95207Y45120D01*
X95054Y44964D01*
X94898Y44811D01*
X94738Y44663D01*
X94575Y44518D01*
X94408Y44378D01*
X94237Y44242D01*
X94064Y44109D01*
X93887Y43982D01*
X93707Y43858D01*
X93524Y43739D01*
X93338Y43625D01*
X93150Y43515D01*
X92959Y43410D01*
X92765Y43309D01*
X92569Y43214D01*
X92371Y43123D01*
X92170Y43037D01*
X91967Y42956D01*
X91763Y42880D01*
X91557Y42809D01*
X91349Y42743D01*
X91139Y42682D01*
X90928Y42626D01*
X90716Y42576D01*
X90502Y42531D01*
X90288Y42491D01*
X90072Y42456D01*
X89856Y42427D01*
X89639Y42403D01*
X89422Y42384D01*
X89204Y42371D01*
X88986Y42363D01*
X88768Y42360D01*
X88550Y42363D01*
X88332Y42371D01*
X88114Y42384D01*
X87897Y42403D01*
X87680Y42427D01*
X87464Y42456D01*
X87248Y42491D01*
X87034Y42531D01*
X86820Y42576D01*
X86608Y42626D01*
X86397Y42682D01*
X86187Y42743D01*
X85979Y42809D01*
X85773Y42880D01*
X85569Y42956D01*
X85366Y43037D01*
X85165Y43123D01*
X84967Y43214D01*
X84771Y43309D01*
X84577Y43410D01*
X84386Y43515D01*
X84198Y43625D01*
X84012Y43739D01*
X83829Y43858D01*
X83649Y43982D01*
X83472Y44109D01*
X83299Y44242D01*
X83128Y44378D01*
X82961Y44518D01*
X82798Y44663D01*
X82638Y44811D01*
X82482Y44964D01*
X82329Y45120D01*
X82181Y45280D01*
X82036Y45443D01*
X81896Y45610D01*
X81760Y45781D01*
X81627Y45954D01*
X81500Y46131D01*
X81376Y46311D01*
X81257Y46494D01*
X81143Y46680D01*
X81033Y46868D01*
X80928Y47059D01*
X80827Y47253D01*
X80732Y47449D01*
X80641Y47647D01*
X80555Y47848D01*
X80474Y48051D01*
X80398Y48255D01*
X80327Y48461D01*
X80261Y48669D01*
X80200Y48879D01*
X80144Y49090D01*
X80094Y49302D01*
X80049Y49516D01*
X80009Y49730D01*
X79974Y49946D01*
X79945Y50162D01*
X79921Y50379D01*
X79902Y50596D01*
X79889Y50814D01*
X79881Y51032D01*
X79878Y51250D01*
D12*
X-140970Y76200D02*
X-147075Y63624D01*
X-152060Y50563D01*
X-155889Y37118D01*
X-158530Y23390D01*
X-159966Y9484D01*
X-160184Y-4494D01*
X-159182Y-18438D01*
X-156970Y-32241D01*
X-153562Y-45799D01*
X-148986Y-59009D01*
X-143276Y-71769D01*
X-136476Y-83984D01*
X-128637Y-95559D01*
X-119819Y-106407D01*
X-110089Y-116445D01*
X-99522Y-125596D01*
X-88196Y-133792D01*
X-76200Y-140970D01*
X-63624Y-147075D01*
X-50563Y-152060D01*
X-37118Y-155889D01*
X-23390Y-158530D01*
X-9484Y-159966D01*
X4494Y-160184D01*
X18438Y-159182D01*
X32241Y-156970D01*
X45799Y-153562D01*
X59009Y-148986D01*
X71769Y-143276D01*
X83984Y-136476D01*
X95559Y-128637D01*
X106407Y-119819D01*
X116445Y-110089D01*
X125596Y-99522D01*
X133792Y-88196D01*
X140970Y-76200D01*
X147075Y-63624D01*
X152060Y-50563D01*
X155889Y-37118D01*
X158530Y-23390D01*
X159966Y-9484D01*
X160184Y4494D01*
X159182Y18438D01*
X156970Y32241D01*
X153562Y45799D01*
X148986Y59009D01*
X143276Y71769D01*
X140970Y76200D01*
X139054Y79699D01*
X136840Y83018D01*
X134345Y86132D01*
X131588Y89016D01*
X128591Y91649D01*
X125375Y94010D01*
X121966Y96083D01*
X118389Y97850D01*
X114672Y99299D01*
X110843Y100419D01*
X106930Y101200D01*
X102965Y101637D01*
X98976Y101728D01*
X94995Y101470D01*
X91051Y100866D01*
X87175Y99921D01*
X83396Y98641D01*
X79743Y97037D01*
X76244Y95121D01*
X72925Y92907D01*
X69812Y90412D01*
X66927Y87656D01*
X64294Y84658D01*
X61933Y81443D01*
X59860Y78034D01*
X58093Y74457D01*
X56644Y70740D01*
X55525Y66910D01*
X54743Y62998D01*
X54306Y59032D01*
X54216Y55044D01*
X54473Y51062D01*
X55077Y47119D01*
X56022Y43243D01*
X57302Y39464D01*
X58906Y35811D01*
X59690Y34290D01*
X62396Y28935D01*
X64625Y23365D01*
X66360Y17622D01*
X67587Y11750D01*
X68299Y5793D01*
X68488Y-204D01*
X68154Y-6194D01*
X67299Y-12132D01*
X65930Y-17973D01*
X64057Y-23673D01*
X61695Y-29188D01*
X58860Y-34476D01*
X55576Y-39496D01*
X51867Y-44211D01*
X47760Y-48585D01*
X43289Y-52585D01*
X38485Y-56180D01*
X33387Y-59342D01*
X28032Y-62048D01*
X22462Y-64276D01*
X16719Y-66011D01*
X10846Y-67239D01*
X4889Y-67950D01*
X-1107Y-68140D01*
X-7097Y-67806D01*
X-13036Y-66951D01*
X-18877Y-65582D01*
X-24576Y-63709D01*
X-30091Y-61346D01*
X-35379Y-58512D01*
X-40399Y-55228D01*
X-45115Y-51518D01*
X-49489Y-47412D01*
X-53488Y-42940D01*
X-57083Y-38137D01*
X-60245Y-33038D01*
X-62951Y-27684D01*
X-65180Y-22114D01*
X-66915Y-16371D01*
X-68142Y-10498D01*
X-68854Y-4541D01*
X-69043Y1455D01*
X-68709Y7446D01*
X-67854Y13384D01*
X-66485Y19225D01*
X-64612Y24925D01*
X-62250Y30439D01*
X-62230Y30480D01*
X-60320Y33963D01*
X-58722Y37600D01*
X-57446Y41361D01*
X-56503Y45220D01*
X-55900Y49146D01*
X-55641Y53110D01*
X-55729Y57082D01*
X-56162Y61030D01*
X-56938Y64926D01*
X-58051Y68739D01*
X-59492Y72441D01*
X-61250Y76003D01*
X-63311Y79399D01*
X-65661Y82601D01*
X-68281Y85587D01*
X-71151Y88333D01*
X-74250Y90819D01*
X-77554Y93025D01*
X-81037Y94934D01*
X-84673Y96533D01*
X-88435Y97809D01*
X-92294Y98752D01*
X-96220Y99355D01*
X-100184Y99614D01*
X-104155Y99526D01*
X-108104Y99093D01*
X-111999Y98316D01*
X-115813Y97204D01*
X-119515Y95763D01*
X-123077Y94005D01*
X-126472Y91943D01*
X-129675Y89594D01*
X-132661Y86974D01*
X-135407Y84103D01*
X-137892Y81005D01*
X-140098Y77701D01*
X-140970Y76200D01*
X-79878Y50862D02*
X-79945Y50089D01*
X-80080Y49324D01*
X-80281Y48574D01*
X-80546Y47845D01*
X-80875Y47141D01*
X-81263Y46469D01*
X-81708Y45833D01*
X-82207Y45238D01*
X-82756Y44689D01*
X-83351Y44190D01*
X-83986Y43745D01*
X-84659Y43357D01*
X-85362Y43029D01*
X-86092Y42763D01*
X-86842Y42562D01*
X-87606Y42428D01*
X-88379Y42360D01*
X-89156Y42360D01*
X-89929Y42428D01*
X-90694Y42562D01*
X-91443Y42763D01*
X-92173Y43029D01*
X-92876Y43357D01*
X-93549Y43745D01*
X-94185Y44190D01*
X-94779Y44689D01*
X-95328Y45238D01*
X-95827Y45833D01*
X-96273Y46469D01*
X-96661Y47141D01*
X-96989Y47845D01*
X-97254Y48574D01*
X-97455Y49324D01*
X-97590Y50089D01*
X-97658Y50862D01*
X-97658Y51638D01*
X-97590Y52411D01*
X-97455Y53176D01*
X-97254Y53926D01*
X-96989Y54655D01*
X-96661Y55359D01*
X-96273Y56031D01*
X-95827Y56667D01*
X-95328Y57262D01*
X-94779Y57811D01*
X-94185Y58310D01*
X-93549Y58755D01*
X-92876Y59143D01*
X-92173Y59471D01*
X-91443Y59737D01*
X-90694Y59938D01*
X-89929Y60072D01*
X-89156Y60140D01*
X-88379Y60140D01*
X-87606Y60072D01*
X-86842Y59938D01*
X-86092Y59737D01*
X-85362Y59471D01*
X-84659Y59143D01*
X-83986Y58755D01*
X-83351Y58310D01*
X-82756Y57811D01*
X-82207Y57262D01*
X-81708Y56667D01*
X-81263Y56031D01*
X-80875Y55359D01*
X-80546Y54655D01*
X-80281Y53926D01*
X-80080Y53176D01*
X-79945Y52411D01*
X-79878Y51638D01*
X-79878Y50862D01*
X8890Y-102888D02*
X8822Y-103661D01*
X8688Y-104426D01*
X8487Y-105176D01*
X8221Y-105905D01*
X7893Y-106609D01*
X7505Y-107281D01*
X7060Y-107917D01*
X6561Y-108512D01*
X6012Y-109061D01*
X5417Y-109560D01*
X4781Y-110005D01*
X4109Y-110393D01*
X3405Y-110721D01*
X2676Y-110987D01*
X1926Y-111188D01*
X1161Y-111322D01*
X388Y-111390D01*
X-388Y-111390D01*
X-1161Y-111322D01*
X-1926Y-111188D01*
X-2676Y-110987D01*
X-3405Y-110721D01*
X-4109Y-110393D01*
X-4781Y-110005D01*
X-5417Y-109560D01*
X-6012Y-109061D01*
X-6561Y-108512D01*
X-7060Y-107917D01*
X-7505Y-107281D01*
X-7893Y-106609D01*
X-8221Y-105905D01*
X-8487Y-105176D01*
X-8688Y-104426D01*
X-8822Y-103661D01*
X-8890Y-102888D01*
X-8890Y-102112D01*
X-8822Y-101339D01*
X-8688Y-100574D01*
X-8487Y-99824D01*
X-8221Y-99095D01*
X-7893Y-98391D01*
X-7505Y-97719D01*
X-7060Y-97083D01*
X-6561Y-96488D01*
X-6012Y-95939D01*
X-5417Y-95440D01*
X-4781Y-94995D01*
X-4109Y-94607D01*
X-3405Y-94279D01*
X-2676Y-94013D01*
X-1926Y-93812D01*
X-1161Y-93678D01*
X-388Y-93610D01*
X388Y-93610D01*
X1161Y-93678D01*
X1926Y-93812D01*
X2676Y-94013D01*
X3405Y-94279D01*
X4109Y-94607D01*
X4781Y-94995D01*
X5417Y-95440D01*
X6012Y-95939D01*
X6561Y-96488D01*
X7060Y-97083D01*
X7505Y-97719D01*
X7893Y-98391D01*
X8221Y-99095D01*
X8487Y-99824D01*
X8688Y-100574D01*
X8822Y-101339D01*
X8890Y-102112D01*
X8890Y-102888D01*
X97658Y50862D02*
X97590Y50089D01*
X97455Y49324D01*
X97254Y48574D01*
X96989Y47845D01*
X96661Y47141D01*
X96273Y46469D01*
X95827Y45833D01*
X95328Y45238D01*
X94779Y44689D01*
X94185Y44190D01*
X93549Y43745D01*
X92876Y43357D01*
X92173Y43029D01*
X91443Y42763D01*
X90694Y42562D01*
X89929Y42428D01*
X89156Y42360D01*
X88379Y42360D01*
X87606Y42428D01*
X86842Y42562D01*
X86092Y42763D01*
X85362Y43029D01*
X84659Y43357D01*
X83986Y43745D01*
X83351Y44190D01*
X82756Y44689D01*
X82207Y45238D01*
X81708Y45833D01*
X81263Y46469D01*
X80875Y47141D01*
X80546Y47845D01*
X80281Y48574D01*
X80080Y49324D01*
X79945Y50089D01*
X79878Y50862D01*
X79878Y51638D01*
X79945Y52411D01*
X80080Y53176D01*
X80281Y53926D01*
X80546Y54655D01*
X80875Y55359D01*
X81263Y56031D01*
X81708Y56667D01*
X82207Y57262D01*
X82756Y57811D01*
X83351Y58310D01*
X83986Y58755D01*
X84659Y59143D01*
X85362Y59471D01*
X86092Y59737D01*
X86842Y59938D01*
X87606Y60072D01*
X88379Y60140D01*
X89156Y60140D01*
X89929Y60072D01*
X90694Y59938D01*
X91443Y59737D01*
X92173Y59471D01*
X92876Y59143D01*
X93549Y58755D01*
X94185Y58310D01*
X94779Y57811D01*
X95328Y57262D01*
X95827Y56667D01*
X96273Y56031D01*
X96661Y55359D01*
X96989Y54655D01*
X97254Y53926D01*
X97455Y53176D01*
X97590Y52411D01*
X97658Y51638D01*
X97658Y50862D01*
M02*
