G04 EAGLE Gerber RS-274X export*
G75*
%MOMM*%
%FSLAX34Y34*%
%LPD*%
%INTop Copper*%
%IPPOS*%
%AMOC8*
5,1,8,0,0,1.08239X$1,22.5*%
G01*
%ADD10C,0.279400*%


D10*
X-45240Y-131953D02*
X-45240Y-116967D01*
X-49403Y-116967D02*
X-41077Y-116967D01*
X-35023Y-125293D02*
X-35023Y-128623D01*
X-35023Y-125293D02*
X-35021Y-125179D01*
X-35015Y-125066D01*
X-35006Y-124952D01*
X-34992Y-124840D01*
X-34975Y-124727D01*
X-34953Y-124615D01*
X-34928Y-124505D01*
X-34900Y-124395D01*
X-34867Y-124286D01*
X-34831Y-124178D01*
X-34791Y-124071D01*
X-34747Y-123966D01*
X-34700Y-123863D01*
X-34650Y-123761D01*
X-34596Y-123661D01*
X-34538Y-123563D01*
X-34477Y-123467D01*
X-34414Y-123373D01*
X-34346Y-123281D01*
X-34276Y-123191D01*
X-34203Y-123105D01*
X-34127Y-123020D01*
X-34048Y-122938D01*
X-33966Y-122859D01*
X-33881Y-122783D01*
X-33795Y-122710D01*
X-33705Y-122640D01*
X-33613Y-122572D01*
X-33519Y-122509D01*
X-33423Y-122448D01*
X-33325Y-122390D01*
X-33225Y-122336D01*
X-33123Y-122286D01*
X-33020Y-122239D01*
X-32915Y-122195D01*
X-32808Y-122155D01*
X-32700Y-122119D01*
X-32591Y-122086D01*
X-32481Y-122058D01*
X-32371Y-122033D01*
X-32259Y-122011D01*
X-32146Y-121994D01*
X-32034Y-121980D01*
X-31920Y-121971D01*
X-31807Y-121965D01*
X-31693Y-121963D01*
X-31579Y-121965D01*
X-31466Y-121971D01*
X-31352Y-121980D01*
X-31240Y-121994D01*
X-31127Y-122011D01*
X-31015Y-122033D01*
X-30905Y-122058D01*
X-30795Y-122086D01*
X-30686Y-122119D01*
X-30578Y-122155D01*
X-30471Y-122195D01*
X-30366Y-122239D01*
X-30263Y-122286D01*
X-30161Y-122336D01*
X-30061Y-122390D01*
X-29963Y-122448D01*
X-29867Y-122509D01*
X-29773Y-122572D01*
X-29681Y-122640D01*
X-29591Y-122710D01*
X-29505Y-122783D01*
X-29420Y-122859D01*
X-29338Y-122938D01*
X-29259Y-123020D01*
X-29183Y-123105D01*
X-29110Y-123191D01*
X-29040Y-123281D01*
X-28972Y-123373D01*
X-28909Y-123467D01*
X-28848Y-123563D01*
X-28790Y-123661D01*
X-28736Y-123761D01*
X-28686Y-123863D01*
X-28639Y-123966D01*
X-28595Y-124071D01*
X-28555Y-124178D01*
X-28519Y-124286D01*
X-28486Y-124395D01*
X-28458Y-124505D01*
X-28433Y-124615D01*
X-28411Y-124727D01*
X-28394Y-124840D01*
X-28380Y-124952D01*
X-28371Y-125066D01*
X-28365Y-125179D01*
X-28363Y-125293D01*
X-28363Y-128623D01*
X-28365Y-128737D01*
X-28371Y-128850D01*
X-28380Y-128964D01*
X-28394Y-129076D01*
X-28411Y-129189D01*
X-28433Y-129301D01*
X-28458Y-129411D01*
X-28486Y-129521D01*
X-28519Y-129630D01*
X-28555Y-129738D01*
X-28595Y-129845D01*
X-28639Y-129950D01*
X-28686Y-130053D01*
X-28736Y-130155D01*
X-28790Y-130255D01*
X-28848Y-130353D01*
X-28909Y-130449D01*
X-28972Y-130543D01*
X-29040Y-130635D01*
X-29110Y-130725D01*
X-29183Y-130811D01*
X-29259Y-130896D01*
X-29338Y-130978D01*
X-29420Y-131057D01*
X-29505Y-131133D01*
X-29591Y-131206D01*
X-29681Y-131276D01*
X-29773Y-131344D01*
X-29867Y-131407D01*
X-29963Y-131468D01*
X-30061Y-131526D01*
X-30161Y-131580D01*
X-30263Y-131630D01*
X-30366Y-131677D01*
X-30471Y-131721D01*
X-30578Y-131761D01*
X-30686Y-131797D01*
X-30795Y-131830D01*
X-30905Y-131858D01*
X-31015Y-131883D01*
X-31127Y-131905D01*
X-31240Y-131922D01*
X-31352Y-131936D01*
X-31466Y-131945D01*
X-31579Y-131951D01*
X-31693Y-131953D01*
X-31807Y-131951D01*
X-31920Y-131945D01*
X-32034Y-131936D01*
X-32146Y-131922D01*
X-32259Y-131905D01*
X-32371Y-131883D01*
X-32481Y-131858D01*
X-32591Y-131830D01*
X-32700Y-131797D01*
X-32808Y-131761D01*
X-32915Y-131721D01*
X-33020Y-131677D01*
X-33123Y-131630D01*
X-33225Y-131580D01*
X-33325Y-131526D01*
X-33423Y-131468D01*
X-33519Y-131407D01*
X-33613Y-131344D01*
X-33705Y-131276D01*
X-33795Y-131206D01*
X-33881Y-131133D01*
X-33966Y-131057D01*
X-34048Y-130978D01*
X-34127Y-130896D01*
X-34203Y-130811D01*
X-34276Y-130725D01*
X-34346Y-130635D01*
X-34414Y-130543D01*
X-34477Y-130449D01*
X-34538Y-130353D01*
X-34596Y-130255D01*
X-34650Y-130155D01*
X-34700Y-130053D01*
X-34747Y-129950D01*
X-34791Y-129845D01*
X-34831Y-129738D01*
X-34867Y-129630D01*
X-34900Y-129521D01*
X-34928Y-129411D01*
X-34953Y-129301D01*
X-34975Y-129189D01*
X-34992Y-129076D01*
X-35006Y-128964D01*
X-35015Y-128850D01*
X-35021Y-128737D01*
X-35023Y-128623D01*
X-20845Y-121962D02*
X-20845Y-136948D01*
X-20845Y-121962D02*
X-16682Y-121962D01*
X-16584Y-121964D01*
X-16486Y-121970D01*
X-16388Y-121979D01*
X-16291Y-121993D01*
X-16195Y-122010D01*
X-16099Y-122031D01*
X-16004Y-122056D01*
X-15910Y-122084D01*
X-15817Y-122116D01*
X-15726Y-122152D01*
X-15636Y-122191D01*
X-15548Y-122234D01*
X-15461Y-122281D01*
X-15377Y-122330D01*
X-15294Y-122383D01*
X-15214Y-122439D01*
X-15136Y-122498D01*
X-15060Y-122560D01*
X-14986Y-122626D01*
X-14916Y-122694D01*
X-14848Y-122764D01*
X-14783Y-122838D01*
X-14720Y-122913D01*
X-14661Y-122992D01*
X-14605Y-123072D01*
X-14552Y-123155D01*
X-14503Y-123239D01*
X-14456Y-123326D01*
X-14413Y-123414D01*
X-14374Y-123504D01*
X-14338Y-123595D01*
X-14306Y-123688D01*
X-14278Y-123782D01*
X-14253Y-123877D01*
X-14232Y-123973D01*
X-14215Y-124069D01*
X-14201Y-124166D01*
X-14192Y-124264D01*
X-14186Y-124362D01*
X-14184Y-124460D01*
X-14184Y-129455D01*
X-14186Y-129553D01*
X-14192Y-129651D01*
X-14201Y-129749D01*
X-14215Y-129846D01*
X-14232Y-129942D01*
X-14253Y-130038D01*
X-14278Y-130133D01*
X-14306Y-130227D01*
X-14338Y-130320D01*
X-14374Y-130411D01*
X-14413Y-130501D01*
X-14456Y-130589D01*
X-14503Y-130676D01*
X-14552Y-130760D01*
X-14605Y-130843D01*
X-14661Y-130923D01*
X-14720Y-131002D01*
X-14783Y-131077D01*
X-14848Y-131151D01*
X-14916Y-131221D01*
X-14986Y-131289D01*
X-15060Y-131355D01*
X-15136Y-131417D01*
X-15214Y-131476D01*
X-15294Y-131532D01*
X-15377Y-131585D01*
X-15461Y-131635D01*
X-15548Y-131681D01*
X-15636Y-131724D01*
X-15726Y-131763D01*
X-15817Y-131799D01*
X-15910Y-131831D01*
X-16004Y-131859D01*
X-16099Y-131884D01*
X-16195Y-131905D01*
X-16291Y-131922D01*
X-16388Y-131936D01*
X-16486Y-131945D01*
X-16584Y-131951D01*
X-16682Y-131953D01*
X-20845Y-131953D01*
X1704Y-131953D02*
X1704Y-116967D01*
X1704Y-131953D02*
X8364Y-131953D01*
X17279Y-126125D02*
X21025Y-126125D01*
X17279Y-126125D02*
X17173Y-126127D01*
X17066Y-126133D01*
X16960Y-126142D01*
X16855Y-126156D01*
X16750Y-126173D01*
X16645Y-126195D01*
X16542Y-126220D01*
X16439Y-126249D01*
X16338Y-126281D01*
X16238Y-126317D01*
X16139Y-126357D01*
X16042Y-126401D01*
X15947Y-126447D01*
X15853Y-126498D01*
X15761Y-126552D01*
X15671Y-126609D01*
X15583Y-126669D01*
X15498Y-126733D01*
X15415Y-126799D01*
X15334Y-126869D01*
X15256Y-126941D01*
X15181Y-127016D01*
X15109Y-127094D01*
X15039Y-127175D01*
X14973Y-127258D01*
X14909Y-127343D01*
X14849Y-127431D01*
X14792Y-127521D01*
X14738Y-127613D01*
X14687Y-127707D01*
X14641Y-127802D01*
X14597Y-127899D01*
X14557Y-127998D01*
X14521Y-128098D01*
X14489Y-128199D01*
X14460Y-128302D01*
X14435Y-128405D01*
X14413Y-128510D01*
X14396Y-128615D01*
X14382Y-128720D01*
X14373Y-128826D01*
X14367Y-128933D01*
X14365Y-129039D01*
X14367Y-129145D01*
X14373Y-129252D01*
X14382Y-129358D01*
X14396Y-129463D01*
X14413Y-129568D01*
X14435Y-129673D01*
X14460Y-129776D01*
X14489Y-129879D01*
X14521Y-129980D01*
X14557Y-130080D01*
X14597Y-130179D01*
X14641Y-130276D01*
X14687Y-130371D01*
X14738Y-130465D01*
X14792Y-130557D01*
X14849Y-130647D01*
X14909Y-130735D01*
X14973Y-130820D01*
X15039Y-130903D01*
X15109Y-130984D01*
X15181Y-131062D01*
X15256Y-131137D01*
X15334Y-131209D01*
X15415Y-131279D01*
X15498Y-131345D01*
X15583Y-131409D01*
X15671Y-131469D01*
X15761Y-131526D01*
X15853Y-131580D01*
X15947Y-131631D01*
X16042Y-131677D01*
X16139Y-131721D01*
X16238Y-131761D01*
X16338Y-131797D01*
X16439Y-131829D01*
X16542Y-131858D01*
X16645Y-131883D01*
X16750Y-131905D01*
X16855Y-131922D01*
X16960Y-131936D01*
X17066Y-131945D01*
X17173Y-131951D01*
X17279Y-131953D01*
X21025Y-131953D01*
X21025Y-124460D01*
X21026Y-124460D02*
X21024Y-124362D01*
X21018Y-124264D01*
X21009Y-124166D01*
X20995Y-124069D01*
X20978Y-123973D01*
X20957Y-123877D01*
X20932Y-123782D01*
X20904Y-123688D01*
X20872Y-123595D01*
X20836Y-123504D01*
X20797Y-123414D01*
X20754Y-123326D01*
X20707Y-123239D01*
X20658Y-123155D01*
X20605Y-123072D01*
X20549Y-122992D01*
X20490Y-122913D01*
X20427Y-122838D01*
X20362Y-122764D01*
X20294Y-122694D01*
X20224Y-122626D01*
X20150Y-122560D01*
X20074Y-122498D01*
X19996Y-122439D01*
X19916Y-122383D01*
X19833Y-122330D01*
X19749Y-122280D01*
X19662Y-122234D01*
X19574Y-122191D01*
X19484Y-122152D01*
X19393Y-122116D01*
X19300Y-122084D01*
X19206Y-122056D01*
X19111Y-122031D01*
X19015Y-122010D01*
X18919Y-121993D01*
X18822Y-121979D01*
X18724Y-121970D01*
X18626Y-121964D01*
X18528Y-121962D01*
X15198Y-121962D01*
X28023Y-136948D02*
X29688Y-136948D01*
X34683Y-121962D01*
X28023Y-121962D02*
X31353Y-131953D01*
X43546Y-131953D02*
X47709Y-131953D01*
X43546Y-131953D02*
X43448Y-131951D01*
X43350Y-131945D01*
X43252Y-131936D01*
X43155Y-131922D01*
X43059Y-131905D01*
X42963Y-131884D01*
X42868Y-131859D01*
X42774Y-131831D01*
X42681Y-131799D01*
X42590Y-131763D01*
X42500Y-131724D01*
X42412Y-131681D01*
X42325Y-131634D01*
X42241Y-131585D01*
X42158Y-131532D01*
X42078Y-131476D01*
X42000Y-131417D01*
X41924Y-131355D01*
X41850Y-131289D01*
X41780Y-131221D01*
X41712Y-131151D01*
X41647Y-131077D01*
X41584Y-131002D01*
X41525Y-130923D01*
X41469Y-130843D01*
X41416Y-130760D01*
X41367Y-130676D01*
X41320Y-130589D01*
X41277Y-130501D01*
X41238Y-130411D01*
X41202Y-130320D01*
X41170Y-130227D01*
X41142Y-130133D01*
X41117Y-130038D01*
X41096Y-129942D01*
X41079Y-129846D01*
X41065Y-129749D01*
X41056Y-129651D01*
X41050Y-129553D01*
X41048Y-129455D01*
X41049Y-129455D02*
X41049Y-125293D01*
X41051Y-125179D01*
X41057Y-125066D01*
X41066Y-124952D01*
X41080Y-124840D01*
X41097Y-124727D01*
X41119Y-124615D01*
X41144Y-124505D01*
X41172Y-124395D01*
X41205Y-124286D01*
X41241Y-124178D01*
X41281Y-124071D01*
X41325Y-123966D01*
X41372Y-123863D01*
X41422Y-123761D01*
X41476Y-123661D01*
X41534Y-123563D01*
X41595Y-123467D01*
X41658Y-123373D01*
X41726Y-123281D01*
X41796Y-123191D01*
X41869Y-123105D01*
X41945Y-123020D01*
X42024Y-122938D01*
X42106Y-122859D01*
X42191Y-122783D01*
X42277Y-122710D01*
X42367Y-122640D01*
X42459Y-122572D01*
X42553Y-122509D01*
X42649Y-122448D01*
X42747Y-122390D01*
X42847Y-122336D01*
X42949Y-122286D01*
X43052Y-122239D01*
X43157Y-122195D01*
X43264Y-122155D01*
X43372Y-122119D01*
X43481Y-122086D01*
X43591Y-122058D01*
X43701Y-122033D01*
X43813Y-122011D01*
X43926Y-121994D01*
X44038Y-121980D01*
X44152Y-121971D01*
X44265Y-121965D01*
X44379Y-121963D01*
X44493Y-121965D01*
X44606Y-121971D01*
X44720Y-121980D01*
X44832Y-121994D01*
X44945Y-122011D01*
X45057Y-122033D01*
X45167Y-122058D01*
X45277Y-122086D01*
X45386Y-122119D01*
X45494Y-122155D01*
X45601Y-122195D01*
X45706Y-122239D01*
X45809Y-122286D01*
X45911Y-122336D01*
X46011Y-122390D01*
X46109Y-122448D01*
X46205Y-122509D01*
X46299Y-122572D01*
X46391Y-122640D01*
X46481Y-122710D01*
X46567Y-122783D01*
X46652Y-122859D01*
X46734Y-122938D01*
X46813Y-123020D01*
X46889Y-123105D01*
X46962Y-123191D01*
X47032Y-123281D01*
X47100Y-123373D01*
X47163Y-123467D01*
X47224Y-123563D01*
X47282Y-123661D01*
X47336Y-123761D01*
X47386Y-123863D01*
X47433Y-123966D01*
X47477Y-124071D01*
X47517Y-124178D01*
X47553Y-124286D01*
X47586Y-124395D01*
X47614Y-124505D01*
X47639Y-124615D01*
X47661Y-124727D01*
X47678Y-124840D01*
X47692Y-124952D01*
X47701Y-125066D01*
X47707Y-125179D01*
X47709Y-125293D01*
X47709Y-126958D01*
X41049Y-126958D01*
X55245Y-131953D02*
X55245Y-121962D01*
X60240Y-121962D01*
X60240Y-123627D01*
M02*
