G04 EAGLE Gerber RS-274X export*
G75*
%MOMM*%
%FSLAX34Y34*%
%LPD*%
%INBottom Copper*%
%IPPOS*%
%AMOC8*
5,1,8,0,0,1.08239X$1,22.5*%
G01*
%ADD10C,0.279400*%


D10*
X74803Y-123627D02*
X70640Y-123627D01*
X70512Y-123629D01*
X70384Y-123635D01*
X70256Y-123645D01*
X70128Y-123659D01*
X70001Y-123676D01*
X69875Y-123698D01*
X69749Y-123723D01*
X69625Y-123753D01*
X69501Y-123786D01*
X69378Y-123823D01*
X69256Y-123864D01*
X69136Y-123908D01*
X69017Y-123956D01*
X68900Y-124008D01*
X68784Y-124063D01*
X68671Y-124122D01*
X68559Y-124185D01*
X68448Y-124251D01*
X68341Y-124320D01*
X68235Y-124392D01*
X68131Y-124468D01*
X68030Y-124547D01*
X67931Y-124629D01*
X67835Y-124714D01*
X67742Y-124801D01*
X67651Y-124892D01*
X67564Y-124985D01*
X67479Y-125081D01*
X67397Y-125180D01*
X67318Y-125281D01*
X67242Y-125385D01*
X67170Y-125491D01*
X67101Y-125598D01*
X67035Y-125708D01*
X66972Y-125821D01*
X66913Y-125934D01*
X66858Y-126050D01*
X66806Y-126167D01*
X66758Y-126286D01*
X66714Y-126406D01*
X66673Y-126528D01*
X66636Y-126651D01*
X66603Y-126775D01*
X66573Y-126899D01*
X66548Y-127025D01*
X66526Y-127151D01*
X66509Y-127278D01*
X66495Y-127406D01*
X66485Y-127534D01*
X66479Y-127662D01*
X66477Y-127790D01*
X66479Y-127918D01*
X66485Y-128046D01*
X66495Y-128174D01*
X66509Y-128302D01*
X66526Y-128429D01*
X66548Y-128555D01*
X66573Y-128681D01*
X66603Y-128805D01*
X66636Y-128929D01*
X66673Y-129052D01*
X66714Y-129174D01*
X66758Y-129294D01*
X66806Y-129413D01*
X66858Y-129530D01*
X66913Y-129646D01*
X66972Y-129759D01*
X67035Y-129871D01*
X67101Y-129982D01*
X67170Y-130089D01*
X67242Y-130195D01*
X67318Y-130299D01*
X67397Y-130400D01*
X67479Y-130499D01*
X67564Y-130595D01*
X67651Y-130688D01*
X67742Y-130779D01*
X67835Y-130866D01*
X67931Y-130951D01*
X68030Y-131033D01*
X68131Y-131112D01*
X68235Y-131188D01*
X68341Y-131260D01*
X68448Y-131329D01*
X68558Y-131395D01*
X68671Y-131458D01*
X68784Y-131517D01*
X68900Y-131572D01*
X69017Y-131624D01*
X69136Y-131672D01*
X69256Y-131716D01*
X69378Y-131757D01*
X69501Y-131794D01*
X69625Y-131827D01*
X69749Y-131857D01*
X69875Y-131882D01*
X70001Y-131904D01*
X70128Y-131921D01*
X70256Y-131935D01*
X70384Y-131945D01*
X70512Y-131951D01*
X70640Y-131953D01*
X74803Y-131953D01*
X74803Y-116967D01*
X70640Y-116967D01*
X70526Y-116969D01*
X70413Y-116975D01*
X70299Y-116984D01*
X70187Y-116998D01*
X70074Y-117015D01*
X69962Y-117037D01*
X69852Y-117062D01*
X69742Y-117090D01*
X69633Y-117123D01*
X69525Y-117159D01*
X69418Y-117199D01*
X69313Y-117243D01*
X69210Y-117290D01*
X69108Y-117340D01*
X69008Y-117394D01*
X68910Y-117452D01*
X68814Y-117513D01*
X68720Y-117576D01*
X68628Y-117644D01*
X68538Y-117714D01*
X68452Y-117787D01*
X68367Y-117863D01*
X68285Y-117942D01*
X68206Y-118024D01*
X68130Y-118109D01*
X68057Y-118195D01*
X67987Y-118285D01*
X67919Y-118377D01*
X67856Y-118471D01*
X67795Y-118567D01*
X67737Y-118665D01*
X67683Y-118765D01*
X67633Y-118867D01*
X67586Y-118970D01*
X67542Y-119075D01*
X67502Y-119182D01*
X67466Y-119290D01*
X67433Y-119399D01*
X67405Y-119509D01*
X67380Y-119619D01*
X67358Y-119731D01*
X67341Y-119844D01*
X67327Y-119956D01*
X67318Y-120070D01*
X67312Y-120183D01*
X67310Y-120297D01*
X67312Y-120411D01*
X67318Y-120524D01*
X67327Y-120638D01*
X67341Y-120750D01*
X67358Y-120863D01*
X67380Y-120975D01*
X67405Y-121085D01*
X67433Y-121195D01*
X67466Y-121304D01*
X67502Y-121412D01*
X67542Y-121519D01*
X67586Y-121624D01*
X67633Y-121727D01*
X67683Y-121829D01*
X67737Y-121929D01*
X67795Y-122027D01*
X67856Y-122123D01*
X67919Y-122217D01*
X67987Y-122309D01*
X68057Y-122399D01*
X68130Y-122485D01*
X68206Y-122570D01*
X68285Y-122652D01*
X68367Y-122731D01*
X68452Y-122807D01*
X68538Y-122880D01*
X68628Y-122950D01*
X68720Y-123018D01*
X68814Y-123081D01*
X68910Y-123142D01*
X69008Y-123200D01*
X69108Y-123254D01*
X69210Y-123304D01*
X69313Y-123351D01*
X69418Y-123395D01*
X69525Y-123435D01*
X69633Y-123471D01*
X69742Y-123504D01*
X69852Y-123532D01*
X69962Y-123557D01*
X70074Y-123579D01*
X70187Y-123596D01*
X70299Y-123610D01*
X70413Y-123619D01*
X70526Y-123625D01*
X70640Y-123627D01*
X60220Y-125293D02*
X60220Y-128623D01*
X60220Y-125293D02*
X60218Y-125179D01*
X60212Y-125066D01*
X60203Y-124952D01*
X60189Y-124840D01*
X60172Y-124727D01*
X60150Y-124615D01*
X60125Y-124505D01*
X60097Y-124395D01*
X60064Y-124286D01*
X60028Y-124178D01*
X59988Y-124071D01*
X59944Y-123966D01*
X59897Y-123863D01*
X59847Y-123761D01*
X59793Y-123661D01*
X59735Y-123563D01*
X59674Y-123467D01*
X59611Y-123373D01*
X59543Y-123281D01*
X59473Y-123191D01*
X59400Y-123105D01*
X59324Y-123020D01*
X59245Y-122938D01*
X59163Y-122859D01*
X59078Y-122783D01*
X58992Y-122710D01*
X58902Y-122640D01*
X58810Y-122572D01*
X58716Y-122509D01*
X58620Y-122448D01*
X58522Y-122390D01*
X58422Y-122336D01*
X58320Y-122286D01*
X58217Y-122239D01*
X58112Y-122195D01*
X58005Y-122155D01*
X57897Y-122119D01*
X57788Y-122086D01*
X57678Y-122058D01*
X57568Y-122033D01*
X57456Y-122011D01*
X57343Y-121994D01*
X57231Y-121980D01*
X57117Y-121971D01*
X57004Y-121965D01*
X56890Y-121963D01*
X56776Y-121965D01*
X56663Y-121971D01*
X56549Y-121980D01*
X56437Y-121994D01*
X56324Y-122011D01*
X56212Y-122033D01*
X56102Y-122058D01*
X55992Y-122086D01*
X55883Y-122119D01*
X55775Y-122155D01*
X55668Y-122195D01*
X55563Y-122239D01*
X55460Y-122286D01*
X55358Y-122336D01*
X55258Y-122390D01*
X55160Y-122448D01*
X55064Y-122509D01*
X54970Y-122572D01*
X54878Y-122640D01*
X54788Y-122710D01*
X54702Y-122783D01*
X54617Y-122859D01*
X54535Y-122938D01*
X54456Y-123020D01*
X54380Y-123105D01*
X54307Y-123191D01*
X54237Y-123281D01*
X54169Y-123373D01*
X54106Y-123467D01*
X54045Y-123563D01*
X53987Y-123661D01*
X53933Y-123761D01*
X53883Y-123863D01*
X53836Y-123966D01*
X53792Y-124071D01*
X53752Y-124178D01*
X53716Y-124286D01*
X53683Y-124395D01*
X53655Y-124505D01*
X53630Y-124615D01*
X53608Y-124727D01*
X53591Y-124840D01*
X53577Y-124952D01*
X53568Y-125066D01*
X53562Y-125179D01*
X53560Y-125293D01*
X53560Y-128623D01*
X53562Y-128737D01*
X53568Y-128850D01*
X53577Y-128964D01*
X53591Y-129076D01*
X53608Y-129189D01*
X53630Y-129301D01*
X53655Y-129411D01*
X53683Y-129521D01*
X53716Y-129630D01*
X53752Y-129738D01*
X53792Y-129845D01*
X53836Y-129950D01*
X53883Y-130053D01*
X53933Y-130155D01*
X53987Y-130255D01*
X54045Y-130353D01*
X54106Y-130449D01*
X54169Y-130543D01*
X54237Y-130635D01*
X54307Y-130725D01*
X54380Y-130811D01*
X54456Y-130896D01*
X54535Y-130978D01*
X54617Y-131057D01*
X54702Y-131133D01*
X54788Y-131206D01*
X54878Y-131276D01*
X54970Y-131344D01*
X55064Y-131407D01*
X55160Y-131468D01*
X55258Y-131526D01*
X55358Y-131580D01*
X55460Y-131630D01*
X55563Y-131677D01*
X55668Y-131721D01*
X55775Y-131761D01*
X55883Y-131797D01*
X55992Y-131830D01*
X56102Y-131858D01*
X56212Y-131883D01*
X56324Y-131905D01*
X56437Y-131922D01*
X56549Y-131936D01*
X56663Y-131945D01*
X56776Y-131951D01*
X56890Y-131953D01*
X57004Y-131951D01*
X57117Y-131945D01*
X57231Y-131936D01*
X57343Y-131922D01*
X57456Y-131905D01*
X57568Y-131883D01*
X57678Y-131858D01*
X57788Y-131830D01*
X57897Y-131797D01*
X58005Y-131761D01*
X58112Y-131721D01*
X58217Y-131677D01*
X58320Y-131630D01*
X58422Y-131580D01*
X58522Y-131526D01*
X58620Y-131468D01*
X58716Y-131407D01*
X58810Y-131344D01*
X58902Y-131276D01*
X58992Y-131206D01*
X59078Y-131133D01*
X59163Y-131057D01*
X59245Y-130978D01*
X59324Y-130896D01*
X59400Y-130811D01*
X59473Y-130725D01*
X59543Y-130635D01*
X59611Y-130543D01*
X59674Y-130449D01*
X59735Y-130353D01*
X59793Y-130255D01*
X59847Y-130155D01*
X59897Y-130053D01*
X59944Y-129950D01*
X59988Y-129845D01*
X60028Y-129738D01*
X60064Y-129630D01*
X60097Y-129521D01*
X60125Y-129411D01*
X60150Y-129301D01*
X60172Y-129189D01*
X60189Y-129076D01*
X60203Y-128964D01*
X60212Y-128850D01*
X60218Y-128737D01*
X60220Y-128623D01*
X48100Y-121962D02*
X43105Y-121962D01*
X46435Y-116967D02*
X46435Y-129455D01*
X46433Y-129553D01*
X46427Y-129651D01*
X46418Y-129749D01*
X46404Y-129846D01*
X46387Y-129942D01*
X46366Y-130038D01*
X46341Y-130133D01*
X46313Y-130227D01*
X46281Y-130320D01*
X46245Y-130411D01*
X46206Y-130501D01*
X46163Y-130589D01*
X46116Y-130676D01*
X46067Y-130760D01*
X46014Y-130843D01*
X45958Y-130923D01*
X45899Y-131001D01*
X45836Y-131077D01*
X45771Y-131151D01*
X45703Y-131221D01*
X45633Y-131289D01*
X45559Y-131354D01*
X45483Y-131417D01*
X45405Y-131476D01*
X45325Y-131532D01*
X45242Y-131585D01*
X45158Y-131634D01*
X45071Y-131681D01*
X44983Y-131724D01*
X44893Y-131763D01*
X44802Y-131799D01*
X44709Y-131831D01*
X44615Y-131859D01*
X44520Y-131884D01*
X44424Y-131905D01*
X44328Y-131922D01*
X44231Y-131936D01*
X44133Y-131945D01*
X44035Y-131951D01*
X43937Y-131953D01*
X43105Y-131953D01*
X38200Y-121962D02*
X33205Y-121962D01*
X36535Y-116967D02*
X36535Y-129455D01*
X36536Y-129455D02*
X36534Y-129553D01*
X36528Y-129651D01*
X36519Y-129749D01*
X36505Y-129846D01*
X36488Y-129942D01*
X36467Y-130038D01*
X36442Y-130133D01*
X36414Y-130227D01*
X36382Y-130320D01*
X36346Y-130411D01*
X36307Y-130501D01*
X36264Y-130589D01*
X36217Y-130676D01*
X36168Y-130760D01*
X36115Y-130843D01*
X36059Y-130923D01*
X36000Y-131001D01*
X35937Y-131077D01*
X35872Y-131151D01*
X35804Y-131221D01*
X35734Y-131289D01*
X35660Y-131354D01*
X35584Y-131417D01*
X35506Y-131476D01*
X35426Y-131532D01*
X35343Y-131585D01*
X35259Y-131634D01*
X35172Y-131681D01*
X35084Y-131724D01*
X34994Y-131763D01*
X34903Y-131799D01*
X34810Y-131831D01*
X34716Y-131859D01*
X34621Y-131884D01*
X34525Y-131905D01*
X34429Y-131922D01*
X34332Y-131936D01*
X34234Y-131945D01*
X34136Y-131951D01*
X34038Y-131953D01*
X33205Y-131953D01*
X26874Y-128623D02*
X26874Y-125293D01*
X26872Y-125179D01*
X26866Y-125066D01*
X26857Y-124952D01*
X26843Y-124840D01*
X26826Y-124727D01*
X26804Y-124615D01*
X26779Y-124505D01*
X26751Y-124395D01*
X26718Y-124286D01*
X26682Y-124178D01*
X26642Y-124071D01*
X26598Y-123966D01*
X26551Y-123863D01*
X26501Y-123761D01*
X26447Y-123661D01*
X26389Y-123563D01*
X26328Y-123467D01*
X26265Y-123373D01*
X26197Y-123281D01*
X26127Y-123191D01*
X26054Y-123105D01*
X25978Y-123020D01*
X25899Y-122938D01*
X25817Y-122859D01*
X25732Y-122783D01*
X25646Y-122710D01*
X25556Y-122640D01*
X25464Y-122572D01*
X25370Y-122509D01*
X25274Y-122448D01*
X25176Y-122390D01*
X25076Y-122336D01*
X24974Y-122286D01*
X24871Y-122239D01*
X24766Y-122195D01*
X24659Y-122155D01*
X24551Y-122119D01*
X24442Y-122086D01*
X24332Y-122058D01*
X24222Y-122033D01*
X24110Y-122011D01*
X23997Y-121994D01*
X23885Y-121980D01*
X23771Y-121971D01*
X23658Y-121965D01*
X23544Y-121963D01*
X23430Y-121965D01*
X23317Y-121971D01*
X23203Y-121980D01*
X23091Y-121994D01*
X22978Y-122011D01*
X22866Y-122033D01*
X22756Y-122058D01*
X22646Y-122086D01*
X22537Y-122119D01*
X22429Y-122155D01*
X22322Y-122195D01*
X22217Y-122239D01*
X22114Y-122286D01*
X22012Y-122336D01*
X21912Y-122390D01*
X21814Y-122448D01*
X21718Y-122509D01*
X21624Y-122572D01*
X21532Y-122640D01*
X21442Y-122710D01*
X21356Y-122783D01*
X21271Y-122859D01*
X21189Y-122938D01*
X21110Y-123020D01*
X21034Y-123105D01*
X20961Y-123191D01*
X20891Y-123281D01*
X20823Y-123373D01*
X20760Y-123467D01*
X20699Y-123563D01*
X20641Y-123661D01*
X20587Y-123761D01*
X20537Y-123863D01*
X20490Y-123966D01*
X20446Y-124071D01*
X20406Y-124178D01*
X20370Y-124286D01*
X20337Y-124395D01*
X20309Y-124505D01*
X20284Y-124615D01*
X20262Y-124727D01*
X20245Y-124840D01*
X20231Y-124952D01*
X20222Y-125066D01*
X20216Y-125179D01*
X20214Y-125293D01*
X20213Y-125293D02*
X20213Y-128623D01*
X20214Y-128623D02*
X20216Y-128737D01*
X20222Y-128850D01*
X20231Y-128964D01*
X20245Y-129076D01*
X20262Y-129189D01*
X20284Y-129301D01*
X20309Y-129411D01*
X20337Y-129521D01*
X20370Y-129630D01*
X20406Y-129738D01*
X20446Y-129845D01*
X20490Y-129950D01*
X20537Y-130053D01*
X20587Y-130155D01*
X20641Y-130255D01*
X20699Y-130353D01*
X20760Y-130449D01*
X20823Y-130543D01*
X20891Y-130635D01*
X20961Y-130725D01*
X21034Y-130811D01*
X21110Y-130896D01*
X21189Y-130978D01*
X21271Y-131057D01*
X21356Y-131133D01*
X21442Y-131206D01*
X21532Y-131276D01*
X21624Y-131344D01*
X21718Y-131407D01*
X21814Y-131468D01*
X21912Y-131526D01*
X22012Y-131580D01*
X22114Y-131630D01*
X22217Y-131677D01*
X22322Y-131721D01*
X22429Y-131761D01*
X22537Y-131797D01*
X22646Y-131830D01*
X22756Y-131858D01*
X22866Y-131883D01*
X22978Y-131905D01*
X23091Y-131922D01*
X23203Y-131936D01*
X23317Y-131945D01*
X23430Y-131951D01*
X23544Y-131953D01*
X23658Y-131951D01*
X23771Y-131945D01*
X23885Y-131936D01*
X23997Y-131922D01*
X24110Y-131905D01*
X24222Y-131883D01*
X24332Y-131858D01*
X24442Y-131830D01*
X24551Y-131797D01*
X24659Y-131761D01*
X24766Y-131721D01*
X24871Y-131677D01*
X24974Y-131630D01*
X25076Y-131580D01*
X25176Y-131526D01*
X25274Y-131468D01*
X25370Y-131407D01*
X25464Y-131344D01*
X25556Y-131276D01*
X25646Y-131206D01*
X25732Y-131133D01*
X25817Y-131057D01*
X25899Y-130978D01*
X25978Y-130896D01*
X26054Y-130811D01*
X26127Y-130725D01*
X26197Y-130635D01*
X26265Y-130543D01*
X26328Y-130449D01*
X26389Y-130353D01*
X26447Y-130255D01*
X26501Y-130155D01*
X26551Y-130053D01*
X26598Y-129950D01*
X26642Y-129845D01*
X26682Y-129738D01*
X26718Y-129630D01*
X26751Y-129521D01*
X26779Y-129411D01*
X26804Y-129301D01*
X26826Y-129189D01*
X26843Y-129076D01*
X26857Y-128964D01*
X26866Y-128850D01*
X26872Y-128737D01*
X26874Y-128623D01*
X12387Y-131953D02*
X12387Y-121962D01*
X4894Y-121962D01*
X4796Y-121964D01*
X4698Y-121970D01*
X4600Y-121979D01*
X4503Y-121993D01*
X4407Y-122010D01*
X4311Y-122031D01*
X4216Y-122056D01*
X4122Y-122084D01*
X4029Y-122116D01*
X3938Y-122152D01*
X3848Y-122191D01*
X3760Y-122234D01*
X3673Y-122281D01*
X3589Y-122330D01*
X3506Y-122383D01*
X3426Y-122439D01*
X3348Y-122498D01*
X3272Y-122561D01*
X3198Y-122626D01*
X3128Y-122694D01*
X3060Y-122764D01*
X2995Y-122838D01*
X2932Y-122914D01*
X2873Y-122992D01*
X2817Y-123072D01*
X2764Y-123155D01*
X2715Y-123239D01*
X2668Y-123326D01*
X2625Y-123414D01*
X2586Y-123504D01*
X2550Y-123595D01*
X2518Y-123688D01*
X2490Y-123782D01*
X2465Y-123877D01*
X2444Y-123973D01*
X2427Y-124069D01*
X2413Y-124166D01*
X2404Y-124264D01*
X2398Y-124362D01*
X2396Y-124460D01*
X2396Y-131953D01*
X7391Y-131953D02*
X7391Y-121962D01*
X-14543Y-116967D02*
X-14543Y-131953D01*
X-21203Y-131953D01*
X-30118Y-126125D02*
X-33864Y-126125D01*
X-30118Y-126125D02*
X-30012Y-126127D01*
X-29905Y-126133D01*
X-29799Y-126142D01*
X-29694Y-126156D01*
X-29589Y-126173D01*
X-29484Y-126195D01*
X-29381Y-126220D01*
X-29278Y-126249D01*
X-29177Y-126281D01*
X-29077Y-126317D01*
X-28978Y-126357D01*
X-28881Y-126401D01*
X-28786Y-126447D01*
X-28692Y-126498D01*
X-28600Y-126552D01*
X-28510Y-126609D01*
X-28422Y-126669D01*
X-28337Y-126733D01*
X-28254Y-126799D01*
X-28173Y-126869D01*
X-28095Y-126941D01*
X-28020Y-127016D01*
X-27948Y-127094D01*
X-27878Y-127175D01*
X-27812Y-127258D01*
X-27748Y-127343D01*
X-27688Y-127431D01*
X-27631Y-127521D01*
X-27577Y-127613D01*
X-27526Y-127707D01*
X-27480Y-127802D01*
X-27436Y-127899D01*
X-27396Y-127998D01*
X-27360Y-128098D01*
X-27328Y-128199D01*
X-27299Y-128302D01*
X-27274Y-128405D01*
X-27252Y-128510D01*
X-27235Y-128615D01*
X-27221Y-128720D01*
X-27212Y-128826D01*
X-27206Y-128933D01*
X-27204Y-129039D01*
X-27206Y-129145D01*
X-27212Y-129252D01*
X-27221Y-129358D01*
X-27235Y-129463D01*
X-27252Y-129568D01*
X-27274Y-129673D01*
X-27299Y-129776D01*
X-27328Y-129879D01*
X-27360Y-129980D01*
X-27396Y-130080D01*
X-27436Y-130179D01*
X-27480Y-130276D01*
X-27526Y-130371D01*
X-27577Y-130465D01*
X-27631Y-130557D01*
X-27688Y-130647D01*
X-27748Y-130735D01*
X-27812Y-130820D01*
X-27878Y-130903D01*
X-27948Y-130984D01*
X-28020Y-131062D01*
X-28095Y-131137D01*
X-28173Y-131209D01*
X-28254Y-131279D01*
X-28337Y-131345D01*
X-28422Y-131409D01*
X-28510Y-131469D01*
X-28600Y-131526D01*
X-28692Y-131580D01*
X-28786Y-131631D01*
X-28881Y-131677D01*
X-28978Y-131721D01*
X-29077Y-131761D01*
X-29177Y-131797D01*
X-29278Y-131829D01*
X-29381Y-131858D01*
X-29484Y-131883D01*
X-29589Y-131905D01*
X-29694Y-131922D01*
X-29799Y-131936D01*
X-29905Y-131945D01*
X-30012Y-131951D01*
X-30118Y-131953D01*
X-33864Y-131953D01*
X-33864Y-124460D01*
X-33865Y-124460D02*
X-33863Y-124362D01*
X-33857Y-124264D01*
X-33848Y-124166D01*
X-33834Y-124069D01*
X-33817Y-123973D01*
X-33796Y-123877D01*
X-33771Y-123782D01*
X-33743Y-123688D01*
X-33711Y-123595D01*
X-33675Y-123504D01*
X-33636Y-123414D01*
X-33593Y-123326D01*
X-33546Y-123239D01*
X-33497Y-123155D01*
X-33444Y-123072D01*
X-33388Y-122992D01*
X-33329Y-122913D01*
X-33266Y-122838D01*
X-33201Y-122764D01*
X-33133Y-122694D01*
X-33063Y-122626D01*
X-32989Y-122560D01*
X-32913Y-122498D01*
X-32835Y-122439D01*
X-32755Y-122383D01*
X-32672Y-122330D01*
X-32588Y-122280D01*
X-32501Y-122234D01*
X-32413Y-122191D01*
X-32323Y-122152D01*
X-32232Y-122116D01*
X-32139Y-122084D01*
X-32045Y-122056D01*
X-31950Y-122031D01*
X-31854Y-122010D01*
X-31758Y-121993D01*
X-31661Y-121979D01*
X-31563Y-121970D01*
X-31465Y-121964D01*
X-31367Y-121962D01*
X-28037Y-121962D01*
X-40861Y-136948D02*
X-42527Y-136948D01*
X-47522Y-121962D01*
X-40861Y-121962D02*
X-44192Y-131953D01*
X-56385Y-131953D02*
X-60548Y-131953D01*
X-56385Y-131953D02*
X-56287Y-131951D01*
X-56189Y-131945D01*
X-56091Y-131936D01*
X-55994Y-131922D01*
X-55898Y-131905D01*
X-55802Y-131884D01*
X-55707Y-131859D01*
X-55613Y-131831D01*
X-55520Y-131799D01*
X-55429Y-131763D01*
X-55339Y-131724D01*
X-55251Y-131681D01*
X-55164Y-131634D01*
X-55080Y-131585D01*
X-54997Y-131532D01*
X-54917Y-131476D01*
X-54839Y-131417D01*
X-54763Y-131355D01*
X-54689Y-131289D01*
X-54619Y-131221D01*
X-54551Y-131151D01*
X-54486Y-131077D01*
X-54423Y-131002D01*
X-54364Y-130923D01*
X-54308Y-130843D01*
X-54255Y-130760D01*
X-54206Y-130676D01*
X-54159Y-130589D01*
X-54116Y-130501D01*
X-54077Y-130411D01*
X-54041Y-130320D01*
X-54009Y-130227D01*
X-53981Y-130133D01*
X-53956Y-130038D01*
X-53935Y-129942D01*
X-53918Y-129846D01*
X-53904Y-129749D01*
X-53895Y-129651D01*
X-53889Y-129553D01*
X-53887Y-129455D01*
X-53887Y-125293D01*
X-53888Y-125293D02*
X-53890Y-125179D01*
X-53896Y-125066D01*
X-53905Y-124952D01*
X-53919Y-124840D01*
X-53936Y-124727D01*
X-53958Y-124615D01*
X-53983Y-124505D01*
X-54011Y-124395D01*
X-54044Y-124286D01*
X-54080Y-124178D01*
X-54120Y-124071D01*
X-54164Y-123966D01*
X-54211Y-123863D01*
X-54261Y-123761D01*
X-54315Y-123661D01*
X-54373Y-123563D01*
X-54434Y-123467D01*
X-54497Y-123373D01*
X-54565Y-123281D01*
X-54635Y-123191D01*
X-54708Y-123105D01*
X-54784Y-123020D01*
X-54863Y-122938D01*
X-54945Y-122859D01*
X-55030Y-122783D01*
X-55116Y-122710D01*
X-55206Y-122640D01*
X-55298Y-122572D01*
X-55392Y-122509D01*
X-55488Y-122448D01*
X-55586Y-122390D01*
X-55686Y-122336D01*
X-55788Y-122286D01*
X-55891Y-122239D01*
X-55996Y-122195D01*
X-56103Y-122155D01*
X-56211Y-122119D01*
X-56320Y-122086D01*
X-56430Y-122058D01*
X-56540Y-122033D01*
X-56652Y-122011D01*
X-56765Y-121994D01*
X-56877Y-121980D01*
X-56991Y-121971D01*
X-57104Y-121965D01*
X-57218Y-121963D01*
X-57332Y-121965D01*
X-57445Y-121971D01*
X-57559Y-121980D01*
X-57671Y-121994D01*
X-57784Y-122011D01*
X-57896Y-122033D01*
X-58006Y-122058D01*
X-58116Y-122086D01*
X-58225Y-122119D01*
X-58333Y-122155D01*
X-58440Y-122195D01*
X-58545Y-122239D01*
X-58648Y-122286D01*
X-58750Y-122336D01*
X-58850Y-122390D01*
X-58948Y-122448D01*
X-59044Y-122509D01*
X-59138Y-122572D01*
X-59230Y-122640D01*
X-59320Y-122710D01*
X-59406Y-122783D01*
X-59491Y-122859D01*
X-59573Y-122938D01*
X-59652Y-123020D01*
X-59728Y-123105D01*
X-59801Y-123191D01*
X-59871Y-123281D01*
X-59939Y-123373D01*
X-60002Y-123467D01*
X-60063Y-123563D01*
X-60121Y-123661D01*
X-60175Y-123761D01*
X-60225Y-123863D01*
X-60272Y-123966D01*
X-60316Y-124071D01*
X-60356Y-124178D01*
X-60392Y-124286D01*
X-60425Y-124395D01*
X-60453Y-124505D01*
X-60478Y-124615D01*
X-60500Y-124727D01*
X-60517Y-124840D01*
X-60531Y-124952D01*
X-60540Y-125066D01*
X-60546Y-125179D01*
X-60548Y-125293D01*
X-60548Y-126958D01*
X-53887Y-126958D01*
X-68084Y-131953D02*
X-68084Y-121962D01*
X-73079Y-121962D01*
X-73079Y-123627D01*
X-136017Y-11303D02*
X-151003Y-6308D01*
X-136017Y-1312D01*
X-139347Y5161D02*
X-136017Y9324D01*
X-151003Y9324D01*
X-151003Y13486D02*
X-151003Y5161D01*
X-143510Y20792D02*
X-143215Y20796D01*
X-142921Y20806D01*
X-142626Y20824D01*
X-142332Y20848D01*
X-142039Y20880D01*
X-141747Y20918D01*
X-141456Y20964D01*
X-141166Y21017D01*
X-140877Y21076D01*
X-140590Y21142D01*
X-140304Y21215D01*
X-140020Y21295D01*
X-139738Y21382D01*
X-139459Y21475D01*
X-139181Y21575D01*
X-138907Y21682D01*
X-138634Y21795D01*
X-138365Y21915D01*
X-138098Y22041D01*
X-137995Y22079D01*
X-137894Y22120D01*
X-137795Y22164D01*
X-137696Y22212D01*
X-137600Y22263D01*
X-137506Y22318D01*
X-137413Y22376D01*
X-137323Y22437D01*
X-137235Y22502D01*
X-137149Y22569D01*
X-137066Y22640D01*
X-136985Y22713D01*
X-136907Y22789D01*
X-136831Y22868D01*
X-136759Y22950D01*
X-136689Y23034D01*
X-136623Y23121D01*
X-136559Y23209D01*
X-136499Y23300D01*
X-136442Y23394D01*
X-136388Y23489D01*
X-136338Y23586D01*
X-136291Y23684D01*
X-136248Y23784D01*
X-136208Y23886D01*
X-136172Y23989D01*
X-136140Y24093D01*
X-136111Y24199D01*
X-136086Y24305D01*
X-136065Y24412D01*
X-136048Y24520D01*
X-136034Y24628D01*
X-136025Y24737D01*
X-136019Y24846D01*
X-136017Y24955D01*
X-136019Y25064D01*
X-136025Y25173D01*
X-136034Y25282D01*
X-136048Y25390D01*
X-136065Y25498D01*
X-136086Y25605D01*
X-136111Y25711D01*
X-136140Y25817D01*
X-136172Y25921D01*
X-136208Y26024D01*
X-136248Y26126D01*
X-136291Y26226D01*
X-136338Y26324D01*
X-136388Y26421D01*
X-136442Y26516D01*
X-136499Y26610D01*
X-136559Y26701D01*
X-136623Y26789D01*
X-136689Y26876D01*
X-136759Y26960D01*
X-136831Y27042D01*
X-136907Y27121D01*
X-136985Y27197D01*
X-137066Y27270D01*
X-137149Y27341D01*
X-137235Y27408D01*
X-137323Y27473D01*
X-137413Y27534D01*
X-137506Y27592D01*
X-137600Y27647D01*
X-137696Y27698D01*
X-137795Y27746D01*
X-137894Y27790D01*
X-137996Y27831D01*
X-138098Y27869D01*
X-138365Y27995D01*
X-138634Y28115D01*
X-138907Y28228D01*
X-139181Y28335D01*
X-139459Y28435D01*
X-139738Y28528D01*
X-140020Y28615D01*
X-140304Y28695D01*
X-140590Y28768D01*
X-140877Y28834D01*
X-141166Y28893D01*
X-141456Y28946D01*
X-141747Y28992D01*
X-142039Y29030D01*
X-142332Y29062D01*
X-142626Y29086D01*
X-142921Y29104D01*
X-143215Y29114D01*
X-143510Y29118D01*
X-143510Y20792D02*
X-143805Y20796D01*
X-144099Y20806D01*
X-144394Y20824D01*
X-144688Y20848D01*
X-144981Y20880D01*
X-145273Y20918D01*
X-145564Y20964D01*
X-145854Y21017D01*
X-146143Y21076D01*
X-146430Y21142D01*
X-146716Y21215D01*
X-147000Y21295D01*
X-147282Y21382D01*
X-147561Y21475D01*
X-147839Y21575D01*
X-148113Y21682D01*
X-148386Y21795D01*
X-148655Y21915D01*
X-148922Y22041D01*
X-149025Y22079D01*
X-149126Y22120D01*
X-149225Y22164D01*
X-149324Y22212D01*
X-149420Y22263D01*
X-149514Y22318D01*
X-149607Y22376D01*
X-149697Y22437D01*
X-149785Y22502D01*
X-149871Y22569D01*
X-149954Y22640D01*
X-150035Y22713D01*
X-150113Y22789D01*
X-150189Y22868D01*
X-150261Y22950D01*
X-150331Y23034D01*
X-150397Y23121D01*
X-150461Y23209D01*
X-150521Y23300D01*
X-150578Y23394D01*
X-150632Y23489D01*
X-150682Y23586D01*
X-150729Y23684D01*
X-150772Y23784D01*
X-150812Y23886D01*
X-150848Y23989D01*
X-150880Y24093D01*
X-150909Y24199D01*
X-150934Y24305D01*
X-150955Y24412D01*
X-150972Y24520D01*
X-150986Y24628D01*
X-150995Y24737D01*
X-151001Y24846D01*
X-151003Y24955D01*
X-148922Y27869D02*
X-148655Y27995D01*
X-148386Y28115D01*
X-148113Y28228D01*
X-147839Y28335D01*
X-147561Y28435D01*
X-147282Y28528D01*
X-147000Y28615D01*
X-146716Y28695D01*
X-146430Y28768D01*
X-146143Y28834D01*
X-145854Y28893D01*
X-145564Y28946D01*
X-145273Y28992D01*
X-144981Y29030D01*
X-144688Y29062D01*
X-144394Y29086D01*
X-144099Y29104D01*
X-143805Y29114D01*
X-143510Y29118D01*
X-148922Y27869D02*
X-149025Y27831D01*
X-149126Y27790D01*
X-149225Y27746D01*
X-149324Y27698D01*
X-149420Y27647D01*
X-149514Y27592D01*
X-149607Y27534D01*
X-149697Y27473D01*
X-149785Y27408D01*
X-149871Y27341D01*
X-149954Y27270D01*
X-150035Y27197D01*
X-150113Y27121D01*
X-150189Y27042D01*
X-150261Y26960D01*
X-150331Y26876D01*
X-150397Y26789D01*
X-150461Y26701D01*
X-150521Y26609D01*
X-150578Y26516D01*
X-150632Y26421D01*
X-150682Y26324D01*
X-150729Y26226D01*
X-150772Y26126D01*
X-150812Y26024D01*
X-150848Y25921D01*
X-150880Y25817D01*
X-150909Y25711D01*
X-150934Y25605D01*
X-150955Y25498D01*
X-150972Y25390D01*
X-150986Y25282D01*
X-150995Y25173D01*
X-151001Y25064D01*
X-151003Y24955D01*
X-147673Y21625D02*
X-139347Y28285D01*
M02*
