G04 EAGLE Gerber RS-274X export*
G75*
%MOMM*%
%FSLAX34Y34*%
%LPD*%
%IN*%
%IPPOS*%
%AMOC8*
5,1,8,0,0,1.08239X$1,22.5*%
G01*
%ADD10C,0.254000*%
%ADD11C,0.000000*%
%ADD12C,0.254000*%


D10*
X-140970Y76200D02*
X-142791Y72730D01*
X-144527Y69217D01*
X-146176Y65663D01*
X-147738Y62069D01*
X-149212Y58438D01*
X-150596Y54772D01*
X-151890Y51073D01*
X-153094Y47344D01*
X-154205Y43587D01*
X-155225Y39803D01*
X-156152Y35996D01*
X-156985Y32167D01*
X-157725Y28319D01*
X-158370Y24454D01*
X-158921Y20574D01*
X-159376Y16682D01*
X-159737Y12780D01*
X-160001Y8870D01*
X-160170Y4955D01*
X-160244Y1038D01*
X-160221Y-2881D01*
X-160103Y-6798D01*
X-159889Y-10710D01*
X-159579Y-14617D01*
X-159174Y-18514D01*
X-158674Y-22401D01*
X-158078Y-26274D01*
X-157389Y-30131D01*
X-156605Y-33971D01*
X-155727Y-37790D01*
X-154757Y-41586D01*
X-153694Y-45358D01*
X-152539Y-49102D01*
X-151293Y-52817D01*
X-149956Y-56501D01*
X-148530Y-60150D01*
X-147014Y-63764D01*
X-145411Y-67340D01*
X-143721Y-70875D01*
X-141945Y-74368D01*
X-140084Y-77817D01*
X-138140Y-81219D01*
X-136113Y-84572D01*
X-134004Y-87875D01*
X-131815Y-91125D01*
X-129548Y-94321D01*
X-127203Y-97461D01*
X-124782Y-100542D01*
X-122286Y-103563D01*
X-119717Y-106522D01*
X-117077Y-109417D01*
X-114366Y-112247D01*
X-111588Y-115010D01*
X-108742Y-117704D01*
X-105832Y-120328D01*
X-102858Y-122880D01*
X-99822Y-125358D01*
X-96727Y-127761D01*
X-93574Y-130088D01*
X-90366Y-132337D01*
X-87103Y-134507D01*
X-83788Y-136597D01*
X-80423Y-138605D01*
X-77010Y-140530D01*
X-73551Y-142371D01*
X-70047Y-144127D01*
X-66502Y-145796D01*
X-62918Y-147379D01*
X-59295Y-148873D01*
X-55637Y-150278D01*
X-51946Y-151594D01*
X-48224Y-152819D01*
X-44473Y-153952D01*
X-40695Y-154994D01*
X-36893Y-155942D01*
X-33069Y-156798D01*
X-29225Y-157559D01*
X-25364Y-158227D01*
X-21488Y-158800D01*
X-17598Y-159278D01*
X-13699Y-159660D01*
X-9791Y-159948D01*
X-5877Y-160139D01*
X-1959Y-160235D01*
X1959Y-160235D01*
X5877Y-160139D01*
X9791Y-159948D01*
X13699Y-159660D01*
X17598Y-159278D01*
X21488Y-158800D01*
X25364Y-158227D01*
X29225Y-157559D01*
X33069Y-156798D01*
X36893Y-155942D01*
X40695Y-154994D01*
X44473Y-153952D01*
X48224Y-152819D01*
X51946Y-151594D01*
X55637Y-150278D01*
X59295Y-148873D01*
X62918Y-147379D01*
X66502Y-145796D01*
X70047Y-144127D01*
X73551Y-142371D01*
X77010Y-140530D01*
X80423Y-138605D01*
X83788Y-136597D01*
X87103Y-134507D01*
X90366Y-132337D01*
X93574Y-130088D01*
X96727Y-127761D01*
X99822Y-125358D01*
X102858Y-122880D01*
X105832Y-120328D01*
X108742Y-117704D01*
X111588Y-115010D01*
X114366Y-112247D01*
X117077Y-109417D01*
X119717Y-106522D01*
X122286Y-103563D01*
X124782Y-100542D01*
X127203Y-97461D01*
X129548Y-94321D01*
X131815Y-91125D01*
X134004Y-87875D01*
X136113Y-84572D01*
X138140Y-81219D01*
X140084Y-77817D01*
X141945Y-74368D01*
X143721Y-70875D01*
X145411Y-67340D01*
X147014Y-63764D01*
X148530Y-60150D01*
X149956Y-56501D01*
X151293Y-52817D01*
X152539Y-49102D01*
X153694Y-45358D01*
X154757Y-41586D01*
X155727Y-37790D01*
X156605Y-33971D01*
X157389Y-30131D01*
X158078Y-26274D01*
X158674Y-22401D01*
X159174Y-18514D01*
X159579Y-14617D01*
X159889Y-10710D01*
X160103Y-6798D01*
X160221Y-2881D01*
X160244Y1038D01*
X160170Y4955D01*
X160001Y8870D01*
X159737Y12780D01*
X159376Y16682D01*
X158921Y20574D01*
X158370Y24454D01*
X157725Y28319D01*
X156985Y32167D01*
X156152Y35996D01*
X155225Y39803D01*
X154205Y43587D01*
X153094Y47344D01*
X151890Y51073D01*
X150596Y54772D01*
X149212Y58438D01*
X147738Y62069D01*
X146176Y65663D01*
X144527Y69217D01*
X142791Y72730D01*
X140970Y76200D01*
X-53340Y21590D02*
X-52822Y22754D01*
X-52332Y23930D01*
X-51870Y25118D01*
X-51438Y26317D01*
X-51036Y27527D01*
X-50663Y28745D01*
X-50321Y29973D01*
X-50008Y31208D01*
X-49726Y32451D01*
X-49474Y33700D01*
X-49253Y34956D01*
X-49063Y36216D01*
X-48903Y37480D01*
X-48775Y38748D01*
X-48678Y40019D01*
X-48612Y41292D01*
X-48577Y42566D01*
X-48573Y43840D01*
X-48601Y45114D01*
X-48660Y46387D01*
X-48749Y47659D01*
X-48870Y48927D01*
X-49022Y50193D01*
X-49205Y51454D01*
X-49419Y52710D01*
X-49664Y53961D01*
X-49939Y55205D01*
X-50244Y56443D01*
X-50580Y57672D01*
X-50946Y58893D01*
X-51341Y60105D01*
X-51766Y61306D01*
X-52220Y62497D01*
X-52704Y63676D01*
X-53216Y64843D01*
X-53756Y65997D01*
X-54325Y67138D01*
X-54921Y68264D01*
X-55545Y69375D01*
X-56196Y70471D01*
X-56873Y71551D01*
X-57577Y72613D01*
X-58306Y73658D01*
X-59061Y74685D01*
X-59841Y75693D01*
X-60645Y76682D01*
X-61473Y77651D01*
X-62325Y78599D01*
X-63199Y79526D01*
X-64096Y80431D01*
X-65015Y81314D01*
X-65956Y82174D01*
X-66917Y83011D01*
X-67898Y83824D01*
X-68899Y84613D01*
X-69919Y85378D01*
X-70957Y86117D01*
X-72013Y86830D01*
X-73086Y87517D01*
X-74176Y88178D01*
X-75282Y88812D01*
X-76403Y89418D01*
X-77538Y89997D01*
X-78687Y90548D01*
X-79850Y91071D01*
X-81024Y91565D01*
X-82211Y92030D01*
X-83408Y92466D01*
X-84616Y92873D01*
X-85834Y93249D01*
X-87060Y93596D01*
X-88295Y93913D01*
X-89536Y94199D01*
X-90785Y94455D01*
X-92039Y94681D01*
X-93299Y94875D01*
X-94563Y95039D01*
X-95830Y95171D01*
X-97101Y95273D01*
X-98373Y95343D01*
X-99647Y95382D01*
X-100921Y95390D01*
X-102196Y95367D01*
X-103469Y95312D01*
X-104740Y95227D01*
X-106010Y95110D01*
X-107275Y94962D01*
X-108537Y94783D01*
X-109794Y94574D01*
X-111046Y94334D01*
X-112291Y94063D01*
X-113530Y93761D01*
X-114760Y93430D01*
X-115982Y93068D01*
X-117195Y92677D01*
X-118398Y92256D01*
X-119590Y91806D01*
X-120771Y91326D01*
X-121940Y90818D01*
X-123096Y90282D01*
X-124238Y89717D01*
X-125367Y89124D01*
X-126480Y88504D01*
X-127578Y87857D01*
X-128660Y87183D01*
X-129725Y86483D01*
X-130772Y85757D01*
X-131802Y85006D01*
X-132812Y84230D01*
X-133804Y83429D01*
X-134775Y82604D01*
X-135726Y81755D01*
X-136656Y80884D01*
X-137564Y79990D01*
X-138450Y79074D01*
X-139314Y78137D01*
X-140154Y77178D01*
X-140970Y76200D01*
X53340Y21590D02*
X52810Y22746D01*
X52309Y23914D01*
X51837Y25094D01*
X51394Y26286D01*
X50980Y27488D01*
X50596Y28699D01*
X50241Y29920D01*
X49916Y31149D01*
X49621Y32385D01*
X49357Y33629D01*
X49123Y34878D01*
X48920Y36133D01*
X48748Y37392D01*
X48606Y38656D01*
X48496Y39922D01*
X48416Y41191D01*
X48368Y42461D01*
X48350Y43732D01*
X48364Y45003D01*
X48408Y46273D01*
X48484Y47542D01*
X48591Y48809D01*
X48729Y50072D01*
X48897Y51332D01*
X49096Y52588D01*
X49326Y53838D01*
X49587Y55082D01*
X49878Y56320D01*
X50199Y57549D01*
X50550Y58771D01*
X50930Y59984D01*
X51341Y61187D01*
X51780Y62380D01*
X52249Y63561D01*
X52746Y64731D01*
X53272Y65889D01*
X53826Y67033D01*
X54408Y68163D01*
X55017Y69278D01*
X55654Y70379D01*
X56317Y71463D01*
X57006Y72531D01*
X57722Y73582D01*
X58462Y74615D01*
X59228Y75629D01*
X60019Y76625D01*
X60833Y77601D01*
X61671Y78556D01*
X62533Y79491D01*
X63417Y80405D01*
X64323Y81296D01*
X65250Y82166D01*
X66199Y83012D01*
X67167Y83835D01*
X68156Y84634D01*
X69164Y85408D01*
X70191Y86158D01*
X71235Y86882D01*
X72298Y87580D01*
X73376Y88253D01*
X74471Y88898D01*
X75582Y89517D01*
X76707Y90109D01*
X77846Y90672D01*
X78999Y91208D01*
X80164Y91715D01*
X81342Y92194D01*
X82531Y92644D01*
X83730Y93064D01*
X84940Y93455D01*
X86159Y93817D01*
X87386Y94148D01*
X88621Y94449D01*
X89863Y94720D01*
X91111Y94961D01*
X92365Y95171D01*
X93623Y95350D01*
X94885Y95499D01*
X96151Y95616D01*
X97419Y95703D01*
X98689Y95758D01*
X99960Y95783D01*
X101231Y95776D01*
X102502Y95738D01*
X103771Y95669D01*
X105038Y95570D01*
X106303Y95439D01*
X107564Y95277D01*
X108820Y95085D01*
X110072Y94862D01*
X111317Y94608D01*
X112556Y94324D01*
X113788Y94010D01*
X115011Y93665D01*
X116226Y93291D01*
X117432Y92887D01*
X118627Y92454D01*
X119811Y91992D01*
X120983Y91501D01*
X122143Y90982D01*
X123291Y90434D01*
X124424Y89858D01*
X125543Y89255D01*
X126647Y88625D01*
X127735Y87967D01*
X128806Y87284D01*
X129861Y86574D01*
X130898Y85839D01*
X131917Y85079D01*
X132917Y84294D01*
X133897Y83485D01*
X134857Y82652D01*
X135797Y81795D01*
X136715Y80917D01*
X137611Y80015D01*
X138486Y79093D01*
X139337Y78149D01*
X140165Y77184D01*
X140970Y76200D01*
X53340Y21590D02*
X53852Y20280D01*
X54332Y18958D01*
X54779Y17624D01*
X55193Y16280D01*
X55574Y14926D01*
X55923Y13564D01*
X56237Y12193D01*
X56519Y10815D01*
X56766Y9430D01*
X56980Y8040D01*
X57159Y6645D01*
X57304Y5246D01*
X57415Y3844D01*
X57492Y2440D01*
X57535Y1034D01*
X57543Y-373D01*
X57516Y-1779D01*
X57456Y-3184D01*
X57361Y-4587D01*
X57232Y-5988D01*
X57068Y-7385D01*
X56871Y-8777D01*
X56639Y-10165D01*
X56374Y-11546D01*
X56075Y-12920D01*
X55742Y-14287D01*
X55376Y-15645D01*
X54978Y-16994D01*
X54546Y-18332D01*
X54081Y-19660D01*
X53585Y-20976D01*
X53056Y-22279D01*
X52496Y-23569D01*
X51904Y-24845D01*
X51281Y-26106D01*
X50628Y-27352D01*
X49944Y-28581D01*
X49231Y-29793D01*
X48488Y-30987D01*
X47716Y-32163D01*
X46916Y-33320D01*
X46088Y-34456D01*
X45232Y-35572D01*
X44349Y-36667D01*
X43439Y-37740D01*
X42504Y-38791D01*
X41543Y-39818D01*
X40558Y-40821D01*
X39548Y-41800D01*
X38515Y-42754D01*
X37458Y-43683D01*
X36379Y-44585D01*
X35279Y-45461D01*
X34157Y-46310D01*
X33015Y-47131D01*
X31853Y-47924D01*
X30673Y-48688D01*
X29474Y-49423D01*
X28257Y-50128D01*
X27023Y-50804D01*
X25774Y-51449D01*
X24508Y-52064D01*
X23229Y-52647D01*
X21935Y-53199D01*
X20628Y-53720D01*
X19309Y-54208D01*
X17979Y-54663D01*
X16637Y-55086D01*
X15286Y-55477D01*
X13926Y-55834D01*
X12557Y-56157D01*
X11181Y-56447D01*
X9798Y-56704D01*
X8409Y-56926D01*
X7015Y-57115D01*
X5617Y-57269D01*
X4216Y-57389D01*
X2812Y-57475D01*
X1406Y-57527D01*
X0Y-57544D01*
X-1406Y-57527D01*
X-2812Y-57475D01*
X-4216Y-57389D01*
X-5617Y-57269D01*
X-7015Y-57115D01*
X-8409Y-56926D01*
X-9798Y-56704D01*
X-11181Y-56447D01*
X-12557Y-56157D01*
X-13926Y-55834D01*
X-15286Y-55477D01*
X-16637Y-55086D01*
X-17979Y-54663D01*
X-19309Y-54208D01*
X-20628Y-53720D01*
X-21935Y-53199D01*
X-23229Y-52647D01*
X-24508Y-52064D01*
X-25774Y-51449D01*
X-27023Y-50804D01*
X-28257Y-50128D01*
X-29474Y-49423D01*
X-30673Y-48688D01*
X-31853Y-47924D01*
X-33015Y-47131D01*
X-34157Y-46310D01*
X-35279Y-45461D01*
X-36379Y-44585D01*
X-37458Y-43683D01*
X-38515Y-42754D01*
X-39548Y-41800D01*
X-40558Y-40821D01*
X-41543Y-39818D01*
X-42504Y-38791D01*
X-43439Y-37740D01*
X-44349Y-36667D01*
X-45232Y-35572D01*
X-46088Y-34456D01*
X-46916Y-33320D01*
X-47716Y-32163D01*
X-48488Y-30987D01*
X-49231Y-29793D01*
X-49944Y-28581D01*
X-50628Y-27352D01*
X-51281Y-26106D01*
X-51904Y-24845D01*
X-52496Y-23569D01*
X-53056Y-22279D01*
X-53585Y-20976D01*
X-54081Y-19660D01*
X-54546Y-18332D01*
X-54978Y-16994D01*
X-55376Y-15645D01*
X-55742Y-14287D01*
X-56075Y-12920D01*
X-56374Y-11546D01*
X-56639Y-10165D01*
X-56871Y-8777D01*
X-57068Y-7385D01*
X-57232Y-5988D01*
X-57361Y-4587D01*
X-57456Y-3184D01*
X-57516Y-1779D01*
X-57543Y-373D01*
X-57535Y1034D01*
X-57492Y2440D01*
X-57415Y3844D01*
X-57304Y5246D01*
X-57159Y6645D01*
X-56980Y8040D01*
X-56766Y9430D01*
X-56519Y10815D01*
X-56237Y12193D01*
X-55923Y13564D01*
X-55574Y14926D01*
X-55193Y16280D01*
X-54779Y17624D01*
X-54332Y18958D01*
X-53852Y20280D01*
X-53340Y21590D01*
D11*
X-97658Y51250D02*
X-97655Y51468D01*
X-97647Y51686D01*
X-97634Y51904D01*
X-97615Y52121D01*
X-97591Y52338D01*
X-97562Y52554D01*
X-97527Y52770D01*
X-97487Y52984D01*
X-97442Y53198D01*
X-97392Y53410D01*
X-97336Y53621D01*
X-97275Y53831D01*
X-97209Y54039D01*
X-97138Y54245D01*
X-97062Y54449D01*
X-96981Y54652D01*
X-96895Y54853D01*
X-96804Y55051D01*
X-96709Y55247D01*
X-96608Y55441D01*
X-96503Y55632D01*
X-96393Y55820D01*
X-96279Y56006D01*
X-96160Y56189D01*
X-96036Y56369D01*
X-95909Y56546D01*
X-95776Y56719D01*
X-95640Y56890D01*
X-95500Y57057D01*
X-95355Y57220D01*
X-95207Y57380D01*
X-95054Y57536D01*
X-94898Y57689D01*
X-94738Y57837D01*
X-94575Y57982D01*
X-94408Y58122D01*
X-94237Y58258D01*
X-94064Y58391D01*
X-93887Y58518D01*
X-93707Y58642D01*
X-93524Y58761D01*
X-93338Y58875D01*
X-93150Y58985D01*
X-92959Y59090D01*
X-92765Y59191D01*
X-92569Y59286D01*
X-92371Y59377D01*
X-92170Y59463D01*
X-91967Y59544D01*
X-91763Y59620D01*
X-91557Y59691D01*
X-91349Y59757D01*
X-91139Y59818D01*
X-90928Y59874D01*
X-90716Y59924D01*
X-90502Y59969D01*
X-90288Y60009D01*
X-90072Y60044D01*
X-89856Y60073D01*
X-89639Y60097D01*
X-89422Y60116D01*
X-89204Y60129D01*
X-88986Y60137D01*
X-88768Y60140D01*
X-88550Y60137D01*
X-88332Y60129D01*
X-88114Y60116D01*
X-87897Y60097D01*
X-87680Y60073D01*
X-87464Y60044D01*
X-87248Y60009D01*
X-87034Y59969D01*
X-86820Y59924D01*
X-86608Y59874D01*
X-86397Y59818D01*
X-86187Y59757D01*
X-85979Y59691D01*
X-85773Y59620D01*
X-85569Y59544D01*
X-85366Y59463D01*
X-85165Y59377D01*
X-84967Y59286D01*
X-84771Y59191D01*
X-84577Y59090D01*
X-84386Y58985D01*
X-84198Y58875D01*
X-84012Y58761D01*
X-83829Y58642D01*
X-83649Y58518D01*
X-83472Y58391D01*
X-83299Y58258D01*
X-83128Y58122D01*
X-82961Y57982D01*
X-82798Y57837D01*
X-82638Y57689D01*
X-82482Y57536D01*
X-82329Y57380D01*
X-82181Y57220D01*
X-82036Y57057D01*
X-81896Y56890D01*
X-81760Y56719D01*
X-81627Y56546D01*
X-81500Y56369D01*
X-81376Y56189D01*
X-81257Y56006D01*
X-81143Y55820D01*
X-81033Y55632D01*
X-80928Y55441D01*
X-80827Y55247D01*
X-80732Y55051D01*
X-80641Y54853D01*
X-80555Y54652D01*
X-80474Y54449D01*
X-80398Y54245D01*
X-80327Y54039D01*
X-80261Y53831D01*
X-80200Y53621D01*
X-80144Y53410D01*
X-80094Y53198D01*
X-80049Y52984D01*
X-80009Y52770D01*
X-79974Y52554D01*
X-79945Y52338D01*
X-79921Y52121D01*
X-79902Y51904D01*
X-79889Y51686D01*
X-79881Y51468D01*
X-79878Y51250D01*
X-79881Y51032D01*
X-79889Y50814D01*
X-79902Y50596D01*
X-79921Y50379D01*
X-79945Y50162D01*
X-79974Y49946D01*
X-80009Y49730D01*
X-80049Y49516D01*
X-80094Y49302D01*
X-80144Y49090D01*
X-80200Y48879D01*
X-80261Y48669D01*
X-80327Y48461D01*
X-80398Y48255D01*
X-80474Y48051D01*
X-80555Y47848D01*
X-80641Y47647D01*
X-80732Y47449D01*
X-80827Y47253D01*
X-80928Y47059D01*
X-81033Y46868D01*
X-81143Y46680D01*
X-81257Y46494D01*
X-81376Y46311D01*
X-81500Y46131D01*
X-81627Y45954D01*
X-81760Y45781D01*
X-81896Y45610D01*
X-82036Y45443D01*
X-82181Y45280D01*
X-82329Y45120D01*
X-82482Y44964D01*
X-82638Y44811D01*
X-82798Y44663D01*
X-82961Y44518D01*
X-83128Y44378D01*
X-83299Y44242D01*
X-83472Y44109D01*
X-83649Y43982D01*
X-83829Y43858D01*
X-84012Y43739D01*
X-84198Y43625D01*
X-84386Y43515D01*
X-84577Y43410D01*
X-84771Y43309D01*
X-84967Y43214D01*
X-85165Y43123D01*
X-85366Y43037D01*
X-85569Y42956D01*
X-85773Y42880D01*
X-85979Y42809D01*
X-86187Y42743D01*
X-86397Y42682D01*
X-86608Y42626D01*
X-86820Y42576D01*
X-87034Y42531D01*
X-87248Y42491D01*
X-87464Y42456D01*
X-87680Y42427D01*
X-87897Y42403D01*
X-88114Y42384D01*
X-88332Y42371D01*
X-88550Y42363D01*
X-88768Y42360D01*
X-88986Y42363D01*
X-89204Y42371D01*
X-89422Y42384D01*
X-89639Y42403D01*
X-89856Y42427D01*
X-90072Y42456D01*
X-90288Y42491D01*
X-90502Y42531D01*
X-90716Y42576D01*
X-90928Y42626D01*
X-91139Y42682D01*
X-91349Y42743D01*
X-91557Y42809D01*
X-91763Y42880D01*
X-91967Y42956D01*
X-92170Y43037D01*
X-92371Y43123D01*
X-92569Y43214D01*
X-92765Y43309D01*
X-92959Y43410D01*
X-93150Y43515D01*
X-93338Y43625D01*
X-93524Y43739D01*
X-93707Y43858D01*
X-93887Y43982D01*
X-94064Y44109D01*
X-94237Y44242D01*
X-94408Y44378D01*
X-94575Y44518D01*
X-94738Y44663D01*
X-94898Y44811D01*
X-95054Y44964D01*
X-95207Y45120D01*
X-95355Y45280D01*
X-95500Y45443D01*
X-95640Y45610D01*
X-95776Y45781D01*
X-95909Y45954D01*
X-96036Y46131D01*
X-96160Y46311D01*
X-96279Y46494D01*
X-96393Y46680D01*
X-96503Y46868D01*
X-96608Y47059D01*
X-96709Y47253D01*
X-96804Y47449D01*
X-96895Y47647D01*
X-96981Y47848D01*
X-97062Y48051D01*
X-97138Y48255D01*
X-97209Y48461D01*
X-97275Y48669D01*
X-97336Y48879D01*
X-97392Y49090D01*
X-97442Y49302D01*
X-97487Y49516D01*
X-97527Y49730D01*
X-97562Y49946D01*
X-97591Y50162D01*
X-97615Y50379D01*
X-97634Y50596D01*
X-97647Y50814D01*
X-97655Y51032D01*
X-97658Y51250D01*
X-8890Y-102500D02*
X-8887Y-102282D01*
X-8879Y-102064D01*
X-8866Y-101846D01*
X-8847Y-101629D01*
X-8823Y-101412D01*
X-8794Y-101196D01*
X-8759Y-100980D01*
X-8719Y-100766D01*
X-8674Y-100552D01*
X-8624Y-100340D01*
X-8568Y-100129D01*
X-8507Y-99919D01*
X-8441Y-99711D01*
X-8370Y-99505D01*
X-8294Y-99301D01*
X-8213Y-99098D01*
X-8127Y-98897D01*
X-8036Y-98699D01*
X-7941Y-98503D01*
X-7840Y-98309D01*
X-7735Y-98118D01*
X-7625Y-97930D01*
X-7511Y-97744D01*
X-7392Y-97561D01*
X-7268Y-97381D01*
X-7141Y-97204D01*
X-7008Y-97031D01*
X-6872Y-96860D01*
X-6732Y-96693D01*
X-6587Y-96530D01*
X-6439Y-96370D01*
X-6286Y-96214D01*
X-6130Y-96061D01*
X-5970Y-95913D01*
X-5807Y-95768D01*
X-5640Y-95628D01*
X-5469Y-95492D01*
X-5296Y-95359D01*
X-5119Y-95232D01*
X-4939Y-95108D01*
X-4756Y-94989D01*
X-4570Y-94875D01*
X-4382Y-94765D01*
X-4191Y-94660D01*
X-3997Y-94559D01*
X-3801Y-94464D01*
X-3603Y-94373D01*
X-3402Y-94287D01*
X-3199Y-94206D01*
X-2995Y-94130D01*
X-2789Y-94059D01*
X-2581Y-93993D01*
X-2371Y-93932D01*
X-2160Y-93876D01*
X-1948Y-93826D01*
X-1734Y-93781D01*
X-1520Y-93741D01*
X-1304Y-93706D01*
X-1088Y-93677D01*
X-871Y-93653D01*
X-654Y-93634D01*
X-436Y-93621D01*
X-218Y-93613D01*
X0Y-93610D01*
X218Y-93613D01*
X436Y-93621D01*
X654Y-93634D01*
X871Y-93653D01*
X1088Y-93677D01*
X1304Y-93706D01*
X1520Y-93741D01*
X1734Y-93781D01*
X1948Y-93826D01*
X2160Y-93876D01*
X2371Y-93932D01*
X2581Y-93993D01*
X2789Y-94059D01*
X2995Y-94130D01*
X3199Y-94206D01*
X3402Y-94287D01*
X3603Y-94373D01*
X3801Y-94464D01*
X3997Y-94559D01*
X4191Y-94660D01*
X4382Y-94765D01*
X4570Y-94875D01*
X4756Y-94989D01*
X4939Y-95108D01*
X5119Y-95232D01*
X5296Y-95359D01*
X5469Y-95492D01*
X5640Y-95628D01*
X5807Y-95768D01*
X5970Y-95913D01*
X6130Y-96061D01*
X6286Y-96214D01*
X6439Y-96370D01*
X6587Y-96530D01*
X6732Y-96693D01*
X6872Y-96860D01*
X7008Y-97031D01*
X7141Y-97204D01*
X7268Y-97381D01*
X7392Y-97561D01*
X7511Y-97744D01*
X7625Y-97930D01*
X7735Y-98118D01*
X7840Y-98309D01*
X7941Y-98503D01*
X8036Y-98699D01*
X8127Y-98897D01*
X8213Y-99098D01*
X8294Y-99301D01*
X8370Y-99505D01*
X8441Y-99711D01*
X8507Y-99919D01*
X8568Y-100129D01*
X8624Y-100340D01*
X8674Y-100552D01*
X8719Y-100766D01*
X8759Y-100980D01*
X8794Y-101196D01*
X8823Y-101412D01*
X8847Y-101629D01*
X8866Y-101846D01*
X8879Y-102064D01*
X8887Y-102282D01*
X8890Y-102500D01*
X8887Y-102718D01*
X8879Y-102936D01*
X8866Y-103154D01*
X8847Y-103371D01*
X8823Y-103588D01*
X8794Y-103804D01*
X8759Y-104020D01*
X8719Y-104234D01*
X8674Y-104448D01*
X8624Y-104660D01*
X8568Y-104871D01*
X8507Y-105081D01*
X8441Y-105289D01*
X8370Y-105495D01*
X8294Y-105699D01*
X8213Y-105902D01*
X8127Y-106103D01*
X8036Y-106301D01*
X7941Y-106497D01*
X7840Y-106691D01*
X7735Y-106882D01*
X7625Y-107070D01*
X7511Y-107256D01*
X7392Y-107439D01*
X7268Y-107619D01*
X7141Y-107796D01*
X7008Y-107969D01*
X6872Y-108140D01*
X6732Y-108307D01*
X6587Y-108470D01*
X6439Y-108630D01*
X6286Y-108786D01*
X6130Y-108939D01*
X5970Y-109087D01*
X5807Y-109232D01*
X5640Y-109372D01*
X5469Y-109508D01*
X5296Y-109641D01*
X5119Y-109768D01*
X4939Y-109892D01*
X4756Y-110011D01*
X4570Y-110125D01*
X4382Y-110235D01*
X4191Y-110340D01*
X3997Y-110441D01*
X3801Y-110536D01*
X3603Y-110627D01*
X3402Y-110713D01*
X3199Y-110794D01*
X2995Y-110870D01*
X2789Y-110941D01*
X2581Y-111007D01*
X2371Y-111068D01*
X2160Y-111124D01*
X1948Y-111174D01*
X1734Y-111219D01*
X1520Y-111259D01*
X1304Y-111294D01*
X1088Y-111323D01*
X871Y-111347D01*
X654Y-111366D01*
X436Y-111379D01*
X218Y-111387D01*
X0Y-111390D01*
X-218Y-111387D01*
X-436Y-111379D01*
X-654Y-111366D01*
X-871Y-111347D01*
X-1088Y-111323D01*
X-1304Y-111294D01*
X-1520Y-111259D01*
X-1734Y-111219D01*
X-1948Y-111174D01*
X-2160Y-111124D01*
X-2371Y-111068D01*
X-2581Y-111007D01*
X-2789Y-110941D01*
X-2995Y-110870D01*
X-3199Y-110794D01*
X-3402Y-110713D01*
X-3603Y-110627D01*
X-3801Y-110536D01*
X-3997Y-110441D01*
X-4191Y-110340D01*
X-4382Y-110235D01*
X-4570Y-110125D01*
X-4756Y-110011D01*
X-4939Y-109892D01*
X-5119Y-109768D01*
X-5296Y-109641D01*
X-5469Y-109508D01*
X-5640Y-109372D01*
X-5807Y-109232D01*
X-5970Y-109087D01*
X-6130Y-108939D01*
X-6286Y-108786D01*
X-6439Y-108630D01*
X-6587Y-108470D01*
X-6732Y-108307D01*
X-6872Y-108140D01*
X-7008Y-107969D01*
X-7141Y-107796D01*
X-7268Y-107619D01*
X-7392Y-107439D01*
X-7511Y-107256D01*
X-7625Y-107070D01*
X-7735Y-106882D01*
X-7840Y-106691D01*
X-7941Y-106497D01*
X-8036Y-106301D01*
X-8127Y-106103D01*
X-8213Y-105902D01*
X-8294Y-105699D01*
X-8370Y-105495D01*
X-8441Y-105289D01*
X-8507Y-105081D01*
X-8568Y-104871D01*
X-8624Y-104660D01*
X-8674Y-104448D01*
X-8719Y-104234D01*
X-8759Y-104020D01*
X-8794Y-103804D01*
X-8823Y-103588D01*
X-8847Y-103371D01*
X-8866Y-103154D01*
X-8879Y-102936D01*
X-8887Y-102718D01*
X-8890Y-102500D01*
X79878Y51250D02*
X79881Y51468D01*
X79889Y51686D01*
X79902Y51904D01*
X79921Y52121D01*
X79945Y52338D01*
X79974Y52554D01*
X80009Y52770D01*
X80049Y52984D01*
X80094Y53198D01*
X80144Y53410D01*
X80200Y53621D01*
X80261Y53831D01*
X80327Y54039D01*
X80398Y54245D01*
X80474Y54449D01*
X80555Y54652D01*
X80641Y54853D01*
X80732Y55051D01*
X80827Y55247D01*
X80928Y55441D01*
X81033Y55632D01*
X81143Y55820D01*
X81257Y56006D01*
X81376Y56189D01*
X81500Y56369D01*
X81627Y56546D01*
X81760Y56719D01*
X81896Y56890D01*
X82036Y57057D01*
X82181Y57220D01*
X82329Y57380D01*
X82482Y57536D01*
X82638Y57689D01*
X82798Y57837D01*
X82961Y57982D01*
X83128Y58122D01*
X83299Y58258D01*
X83472Y58391D01*
X83649Y58518D01*
X83829Y58642D01*
X84012Y58761D01*
X84198Y58875D01*
X84386Y58985D01*
X84577Y59090D01*
X84771Y59191D01*
X84967Y59286D01*
X85165Y59377D01*
X85366Y59463D01*
X85569Y59544D01*
X85773Y59620D01*
X85979Y59691D01*
X86187Y59757D01*
X86397Y59818D01*
X86608Y59874D01*
X86820Y59924D01*
X87034Y59969D01*
X87248Y60009D01*
X87464Y60044D01*
X87680Y60073D01*
X87897Y60097D01*
X88114Y60116D01*
X88332Y60129D01*
X88550Y60137D01*
X88768Y60140D01*
X88986Y60137D01*
X89204Y60129D01*
X89422Y60116D01*
X89639Y60097D01*
X89856Y60073D01*
X90072Y60044D01*
X90288Y60009D01*
X90502Y59969D01*
X90716Y59924D01*
X90928Y59874D01*
X91139Y59818D01*
X91349Y59757D01*
X91557Y59691D01*
X91763Y59620D01*
X91967Y59544D01*
X92170Y59463D01*
X92371Y59377D01*
X92569Y59286D01*
X92765Y59191D01*
X92959Y59090D01*
X93150Y58985D01*
X93338Y58875D01*
X93524Y58761D01*
X93707Y58642D01*
X93887Y58518D01*
X94064Y58391D01*
X94237Y58258D01*
X94408Y58122D01*
X94575Y57982D01*
X94738Y57837D01*
X94898Y57689D01*
X95054Y57536D01*
X95207Y57380D01*
X95355Y57220D01*
X95500Y57057D01*
X95640Y56890D01*
X95776Y56719D01*
X95909Y56546D01*
X96036Y56369D01*
X96160Y56189D01*
X96279Y56006D01*
X96393Y55820D01*
X96503Y55632D01*
X96608Y55441D01*
X96709Y55247D01*
X96804Y55051D01*
X96895Y54853D01*
X96981Y54652D01*
X97062Y54449D01*
X97138Y54245D01*
X97209Y54039D01*
X97275Y53831D01*
X97336Y53621D01*
X97392Y53410D01*
X97442Y53198D01*
X97487Y52984D01*
X97527Y52770D01*
X97562Y52554D01*
X97591Y52338D01*
X97615Y52121D01*
X97634Y51904D01*
X97647Y51686D01*
X97655Y51468D01*
X97658Y51250D01*
X97655Y51032D01*
X97647Y50814D01*
X97634Y50596D01*
X97615Y50379D01*
X97591Y50162D01*
X97562Y49946D01*
X97527Y49730D01*
X97487Y49516D01*
X97442Y49302D01*
X97392Y49090D01*
X97336Y48879D01*
X97275Y48669D01*
X97209Y48461D01*
X97138Y48255D01*
X97062Y48051D01*
X96981Y47848D01*
X96895Y47647D01*
X96804Y47449D01*
X96709Y47253D01*
X96608Y47059D01*
X96503Y46868D01*
X96393Y46680D01*
X96279Y46494D01*
X96160Y46311D01*
X96036Y46131D01*
X95909Y45954D01*
X95776Y45781D01*
X95640Y45610D01*
X95500Y45443D01*
X95355Y45280D01*
X95207Y45120D01*
X95054Y44964D01*
X94898Y44811D01*
X94738Y44663D01*
X94575Y44518D01*
X94408Y44378D01*
X94237Y44242D01*
X94064Y44109D01*
X93887Y43982D01*
X93707Y43858D01*
X93524Y43739D01*
X93338Y43625D01*
X93150Y43515D01*
X92959Y43410D01*
X92765Y43309D01*
X92569Y43214D01*
X92371Y43123D01*
X92170Y43037D01*
X91967Y42956D01*
X91763Y42880D01*
X91557Y42809D01*
X91349Y42743D01*
X91139Y42682D01*
X90928Y42626D01*
X90716Y42576D01*
X90502Y42531D01*
X90288Y42491D01*
X90072Y42456D01*
X89856Y42427D01*
X89639Y42403D01*
X89422Y42384D01*
X89204Y42371D01*
X88986Y42363D01*
X88768Y42360D01*
X88550Y42363D01*
X88332Y42371D01*
X88114Y42384D01*
X87897Y42403D01*
X87680Y42427D01*
X87464Y42456D01*
X87248Y42491D01*
X87034Y42531D01*
X86820Y42576D01*
X86608Y42626D01*
X86397Y42682D01*
X86187Y42743D01*
X85979Y42809D01*
X85773Y42880D01*
X85569Y42956D01*
X85366Y43037D01*
X85165Y43123D01*
X84967Y43214D01*
X84771Y43309D01*
X84577Y43410D01*
X84386Y43515D01*
X84198Y43625D01*
X84012Y43739D01*
X83829Y43858D01*
X83649Y43982D01*
X83472Y44109D01*
X83299Y44242D01*
X83128Y44378D01*
X82961Y44518D01*
X82798Y44663D01*
X82638Y44811D01*
X82482Y44964D01*
X82329Y45120D01*
X82181Y45280D01*
X82036Y45443D01*
X81896Y45610D01*
X81760Y45781D01*
X81627Y45954D01*
X81500Y46131D01*
X81376Y46311D01*
X81257Y46494D01*
X81143Y46680D01*
X81033Y46868D01*
X80928Y47059D01*
X80827Y47253D01*
X80732Y47449D01*
X80641Y47647D01*
X80555Y47848D01*
X80474Y48051D01*
X80398Y48255D01*
X80327Y48461D01*
X80261Y48669D01*
X80200Y48879D01*
X80144Y49090D01*
X80094Y49302D01*
X80049Y49516D01*
X80009Y49730D01*
X79974Y49946D01*
X79945Y50162D01*
X79921Y50379D01*
X79902Y50596D01*
X79889Y50814D01*
X79881Y51032D01*
X79878Y51250D01*
D12*
X-140970Y76200D02*
X-147075Y63624D01*
X-152060Y50563D01*
X-155889Y37118D01*
X-158530Y23390D01*
X-159966Y9484D01*
X-160184Y-4494D01*
X-159182Y-18438D01*
X-156970Y-32241D01*
X-153562Y-45799D01*
X-148986Y-59009D01*
X-143276Y-71769D01*
X-136476Y-83984D01*
X-128637Y-95559D01*
X-119819Y-106407D01*
X-110089Y-116445D01*
X-99522Y-125596D01*
X-88196Y-133792D01*
X-76200Y-140970D01*
X-63624Y-147075D01*
X-50563Y-152060D01*
X-37118Y-155889D01*
X-23390Y-158530D01*
X-9484Y-159966D01*
X4494Y-160184D01*
X18438Y-159182D01*
X32241Y-156970D01*
X45799Y-153562D01*
X59009Y-148986D01*
X71769Y-143276D01*
X83984Y-136476D01*
X95559Y-128637D01*
X106407Y-119819D01*
X116445Y-110089D01*
X125596Y-99522D01*
X133792Y-88196D01*
X140970Y-76200D01*
X147075Y-63624D01*
X152060Y-50563D01*
X155889Y-37118D01*
X158530Y-23390D01*
X159966Y-9484D01*
X160184Y4494D01*
X159182Y18438D01*
X156970Y32241D01*
X153562Y45799D01*
X148986Y59009D01*
X143276Y71769D01*
X140970Y76200D01*
X137992Y79619D01*
X134728Y82766D01*
X131202Y85617D01*
X127441Y88149D01*
X123473Y90343D01*
X119330Y92184D01*
X115041Y93656D01*
X110641Y94750D01*
X106162Y95455D01*
X101639Y95767D01*
X97106Y95684D01*
X92597Y95206D01*
X88147Y94337D01*
X83789Y93084D01*
X79558Y91455D01*
X75484Y89464D01*
X71600Y87126D01*
X67934Y84458D01*
X64515Y81480D01*
X61368Y78216D01*
X58518Y74690D01*
X55986Y70928D01*
X53791Y66961D01*
X51950Y62817D01*
X50478Y58529D01*
X49385Y54129D01*
X48679Y49650D01*
X48367Y45126D01*
X48450Y40593D01*
X48928Y36084D01*
X49797Y31634D01*
X51050Y27277D01*
X52679Y23045D01*
X53340Y21590D01*
X55019Y16859D01*
X56279Y12000D01*
X57110Y7049D01*
X57507Y2045D01*
X57467Y-2975D01*
X56989Y-7973D01*
X56077Y-12909D01*
X54739Y-17747D01*
X52984Y-22451D01*
X50825Y-26983D01*
X48280Y-31310D01*
X45368Y-35399D01*
X42110Y-39218D01*
X38531Y-42739D01*
X34660Y-45935D01*
X30524Y-48781D01*
X26157Y-51255D01*
X21590Y-53340D01*
X16859Y-55019D01*
X12000Y-56279D01*
X7049Y-57110D01*
X2045Y-57507D01*
X-2975Y-57467D01*
X-7973Y-56989D01*
X-12909Y-56077D01*
X-17747Y-54739D01*
X-22451Y-52984D01*
X-26983Y-50825D01*
X-31310Y-48280D01*
X-35399Y-45368D01*
X-39218Y-42110D01*
X-42739Y-38531D01*
X-45935Y-34660D01*
X-48781Y-30524D01*
X-51255Y-26157D01*
X-53340Y-21590D01*
X-55019Y-16859D01*
X-56279Y-12000D01*
X-57110Y-7049D01*
X-57507Y-2045D01*
X-57467Y2975D01*
X-56989Y7973D01*
X-56077Y12909D01*
X-54739Y17747D01*
X-53340Y21590D01*
X-51623Y25793D01*
X-50279Y30129D01*
X-49318Y34566D01*
X-48747Y39069D01*
X-48571Y43606D01*
X-48791Y48140D01*
X-49406Y52638D01*
X-50410Y57065D01*
X-51796Y61388D01*
X-53553Y65574D01*
X-55669Y69590D01*
X-58127Y73407D01*
X-60908Y76996D01*
X-63991Y80328D01*
X-67353Y83378D01*
X-70968Y86125D01*
X-74808Y88545D01*
X-78845Y90622D01*
X-83048Y92339D01*
X-87384Y93683D01*
X-91821Y94644D01*
X-96325Y95215D01*
X-100861Y95391D01*
X-105395Y95171D01*
X-109893Y94556D01*
X-114321Y93552D01*
X-118644Y92166D01*
X-122829Y90409D01*
X-126846Y88293D01*
X-130663Y85835D01*
X-134251Y83054D01*
X-137583Y79971D01*
X-140634Y76609D01*
X-140970Y76200D01*
X-79878Y50862D02*
X-79945Y50089D01*
X-80080Y49324D01*
X-80281Y48574D01*
X-80546Y47845D01*
X-80875Y47141D01*
X-81263Y46469D01*
X-81708Y45833D01*
X-82207Y45238D01*
X-82756Y44689D01*
X-83351Y44190D01*
X-83986Y43745D01*
X-84659Y43357D01*
X-85362Y43029D01*
X-86092Y42763D01*
X-86842Y42562D01*
X-87606Y42428D01*
X-88379Y42360D01*
X-89156Y42360D01*
X-89929Y42428D01*
X-90694Y42562D01*
X-91443Y42763D01*
X-92173Y43029D01*
X-92876Y43357D01*
X-93549Y43745D01*
X-94185Y44190D01*
X-94779Y44689D01*
X-95328Y45238D01*
X-95827Y45833D01*
X-96273Y46469D01*
X-96661Y47141D01*
X-96989Y47845D01*
X-97254Y48574D01*
X-97455Y49324D01*
X-97590Y50089D01*
X-97658Y50862D01*
X-97658Y51638D01*
X-97590Y52411D01*
X-97455Y53176D01*
X-97254Y53926D01*
X-96989Y54655D01*
X-96661Y55359D01*
X-96273Y56031D01*
X-95827Y56667D01*
X-95328Y57262D01*
X-94779Y57811D01*
X-94185Y58310D01*
X-93549Y58755D01*
X-92876Y59143D01*
X-92173Y59471D01*
X-91443Y59737D01*
X-90694Y59938D01*
X-89929Y60072D01*
X-89156Y60140D01*
X-88379Y60140D01*
X-87606Y60072D01*
X-86842Y59938D01*
X-86092Y59737D01*
X-85362Y59471D01*
X-84659Y59143D01*
X-83986Y58755D01*
X-83351Y58310D01*
X-82756Y57811D01*
X-82207Y57262D01*
X-81708Y56667D01*
X-81263Y56031D01*
X-80875Y55359D01*
X-80546Y54655D01*
X-80281Y53926D01*
X-80080Y53176D01*
X-79945Y52411D01*
X-79878Y51638D01*
X-79878Y50862D01*
X8890Y-102888D02*
X8822Y-103661D01*
X8688Y-104426D01*
X8487Y-105176D01*
X8221Y-105905D01*
X7893Y-106609D01*
X7505Y-107281D01*
X7060Y-107917D01*
X6561Y-108512D01*
X6012Y-109061D01*
X5417Y-109560D01*
X4781Y-110005D01*
X4109Y-110393D01*
X3405Y-110721D01*
X2676Y-110987D01*
X1926Y-111188D01*
X1161Y-111322D01*
X388Y-111390D01*
X-388Y-111390D01*
X-1161Y-111322D01*
X-1926Y-111188D01*
X-2676Y-110987D01*
X-3405Y-110721D01*
X-4109Y-110393D01*
X-4781Y-110005D01*
X-5417Y-109560D01*
X-6012Y-109061D01*
X-6561Y-108512D01*
X-7060Y-107917D01*
X-7505Y-107281D01*
X-7893Y-106609D01*
X-8221Y-105905D01*
X-8487Y-105176D01*
X-8688Y-104426D01*
X-8822Y-103661D01*
X-8890Y-102888D01*
X-8890Y-102112D01*
X-8822Y-101339D01*
X-8688Y-100574D01*
X-8487Y-99824D01*
X-8221Y-99095D01*
X-7893Y-98391D01*
X-7505Y-97719D01*
X-7060Y-97083D01*
X-6561Y-96488D01*
X-6012Y-95939D01*
X-5417Y-95440D01*
X-4781Y-94995D01*
X-4109Y-94607D01*
X-3405Y-94279D01*
X-2676Y-94013D01*
X-1926Y-93812D01*
X-1161Y-93678D01*
X-388Y-93610D01*
X388Y-93610D01*
X1161Y-93678D01*
X1926Y-93812D01*
X2676Y-94013D01*
X3405Y-94279D01*
X4109Y-94607D01*
X4781Y-94995D01*
X5417Y-95440D01*
X6012Y-95939D01*
X6561Y-96488D01*
X7060Y-97083D01*
X7505Y-97719D01*
X7893Y-98391D01*
X8221Y-99095D01*
X8487Y-99824D01*
X8688Y-100574D01*
X8822Y-101339D01*
X8890Y-102112D01*
X8890Y-102888D01*
X97658Y50862D02*
X97590Y50089D01*
X97455Y49324D01*
X97254Y48574D01*
X96989Y47845D01*
X96661Y47141D01*
X96273Y46469D01*
X95827Y45833D01*
X95328Y45238D01*
X94779Y44689D01*
X94185Y44190D01*
X93549Y43745D01*
X92876Y43357D01*
X92173Y43029D01*
X91443Y42763D01*
X90694Y42562D01*
X89929Y42428D01*
X89156Y42360D01*
X88379Y42360D01*
X87606Y42428D01*
X86842Y42562D01*
X86092Y42763D01*
X85362Y43029D01*
X84659Y43357D01*
X83986Y43745D01*
X83351Y44190D01*
X82756Y44689D01*
X82207Y45238D01*
X81708Y45833D01*
X81263Y46469D01*
X80875Y47141D01*
X80546Y47845D01*
X80281Y48574D01*
X80080Y49324D01*
X79945Y50089D01*
X79878Y50862D01*
X79878Y51638D01*
X79945Y52411D01*
X80080Y53176D01*
X80281Y53926D01*
X80546Y54655D01*
X80875Y55359D01*
X81263Y56031D01*
X81708Y56667D01*
X82207Y57262D01*
X82756Y57811D01*
X83351Y58310D01*
X83986Y58755D01*
X84659Y59143D01*
X85362Y59471D01*
X86092Y59737D01*
X86842Y59938D01*
X87606Y60072D01*
X88379Y60140D01*
X89156Y60140D01*
X89929Y60072D01*
X90694Y59938D01*
X91443Y59737D01*
X92173Y59471D01*
X92876Y59143D01*
X93549Y58755D01*
X94185Y58310D01*
X94779Y57811D01*
X95328Y57262D01*
X95827Y56667D01*
X96273Y56031D01*
X96661Y55359D01*
X96989Y54655D01*
X97254Y53926D01*
X97455Y53176D01*
X97590Y52411D01*
X97658Y51638D01*
X97658Y50862D01*
M02*
