M48
;GenerationSoftware,Autodesk,EAGLE,9.6.2*%
;CreationDate,2023-06-14T18:11:57Z*%
FMAT,2
ICI,OFF
METRIC,TZ,000.000
T6C0.305
T5C0.400
T4C0.650
T3C1.016
T2C1.778
T1C3.302
%
G90
M71
T1
X82550Y2540
X82550Y58420
X2540Y58420
X2540Y2540
X170688Y64008
X170688Y119888
X170688Y2540
X170688Y58420
X90678Y58420
X90678Y2540
X90678Y119888
X90678Y64008
X82550Y64008
X82550Y119888
X2540Y119888
X2540Y64008
T2
X147841Y21635
X59703Y21635
X68580Y6260
X77457Y21635
X156718Y67728
X156718Y6260
X165595Y21635
X165595Y83103
X147841Y83103
X59703Y83103
X68580Y67728
X77457Y83103
T3
X103378Y64008
X105918Y64008
X108458Y64008
X110998Y64008
X131318Y119888
X113538Y64008
X118618Y64008
X121158Y64008
X123698Y64008
X126238Y64008
X128778Y64008
X131318Y64008
X133858Y64008
X7620Y2540
X10160Y2540
X12700Y2540
X15240Y2540
X17780Y2540
X20320Y2540
X22860Y2540
X25400Y2540
X30480Y2540
X33020Y2540
X35560Y2540
X38100Y2540
X40640Y2540
X43180Y2540
X45720Y2540
X48260Y2540
X26670Y36830
X29210Y36830
X45720Y58420
X43180Y58420
X136398Y64008
X114808Y98298
X117348Y98298
X133858Y119888
X95758Y2540
X98298Y2540
X100838Y2540
X103378Y2540
X105918Y2540
X108458Y2540
X110998Y2540
X113538Y2540
X118618Y2540
X121158Y2540
X123698Y2540
X126238Y2540
X128778Y2540
X131318Y2540
X133858Y2540
X136398Y2540
X114808Y36830
X117348Y36830
X133858Y58420
X131318Y58420
X7620Y64008
X10160Y64008
X12700Y64008
X15240Y64008
X17780Y64008
X20320Y64008
X22860Y64008
X25400Y64008
X30480Y64008
X33020Y64008
X35560Y64008
X38100Y64008
X40640Y64008
X43180Y64008
X45720Y64008
X48260Y64008
X26670Y98298
X29210Y98298
X45720Y119888
X43180Y119888
X95758Y64008
X98298Y64008
X100838Y64008
T4
X5159Y43530
X5159Y37750
X93297Y43530
X93297Y37750
X5159Y104998
X5159Y99218
X93297Y104998
X93297Y99218
T5
X1509Y44958
X1509Y36322
X5689Y36322
X5689Y44958
X89647Y44958
X89647Y36322
X93827Y36322
X93827Y44958
X5689Y106426
X89647Y106426
X89647Y97790
X93827Y97790
X93827Y106426
X1509Y106426
X1509Y97790
X5689Y97790
T6
X38227Y45085
X35560Y12700
X41910Y10668
X59690Y56515
X53340Y25400
X10160Y58420
X15240Y58420
X20320Y58420
X72390Y38735
X58166Y41275
X64770Y48260
X59055Y34036
X77597Y42672
X62230Y41148
X57658Y34290
X72390Y37338
X68453Y40894
X68580Y35179
X82550Y36830
X66802Y45593
X70866Y56769
X74168Y45339
X70861Y51303
X58293Y39497
X66040Y47117
X60833Y47117
X7366Y40894
X7366Y39878
X52451Y51816
X66040Y51562
X74138Y34260
X68326Y59309
X66040Y54318
X55626Y58293
X7366Y36576
X7366Y38862
X9906Y40640
X30099Y42672
X28448Y39370
X4699Y40640
X7239Y43053
X10541Y36449
X23749Y15113
X27051Y20828
X66548Y18034
X13970Y30734
X49530Y11176
X10795Y26162
X28702Y54737
X67310Y14351
X27710Y54102
X10160Y30607
X48768Y11811
X9525Y25654
X35687Y34671
X24765Y40005
X36449Y9779
X34290Y4699
X36449Y26924
X63500Y56388
X21590Y31369
X59817Y53213
X23241Y27686
X22352Y26162
X17780Y14732
X46990Y11811
X16510Y14224
X26670Y6731
X56718Y31623
X70104Y51308
X65024Y39497
X70104Y56769
X75057Y45593
X41529Y6731
X24384Y13208
X68326Y19050
X46990Y9398
X11303Y9906
X64897Y34163
X14605Y27432
X49784Y33782
X11354Y13589
X14605Y26289
X57150Y36957
X69088Y37973
X27305Y48006
X26924Y24765
X24130Y9906
X61468Y51816
X19050Y32004
X26924Y26035
X59817Y54737
X20320Y27813
X62738Y56388
X17653Y31369
X61722Y55910
X16510Y30734
X59817Y51689
X8890Y27686
X19050Y9398
X21463Y10033
X20193Y10033
X27305Y29718
X15113Y12700
X56769Y40386
X24384Y23114
X39116Y15469
X28448Y15875
X27559Y6731
X28194Y5512
X14605Y13208
X60388Y49974
X54991Y58928
X55951Y28900
X52560Y30879
X39751Y53340
X37338Y58293
X31750Y39243
X35814Y37338
X40005Y41402
X36449Y34290
X40005Y25400
X39370Y889
X66929Y59309
X67183Y53594
X56642Y47244
X68326Y53975
X35433Y48387
X36957Y48387
X42545Y50292
X37465Y50292
X35941Y49911
X42545Y45720
X43815Y45720
X33655Y48895
X158242Y18415
X136144Y20447
X117856Y57404
X117475Y25908
X108458Y44958
X96139Y9779
X117475Y26924
X136144Y16002
X113030Y47100
X129794Y56261
X135128Y8255
X131826Y40513
X156591Y40005
X146431Y42545
X146431Y36195
X156083Y43434
X157099Y36957
X155829Y35814
X165989Y39497
X148844Y53194
X99822Y22860
X102108Y22860
X104648Y22860
X107188Y22860
X107188Y15875
X104648Y15748
X102108Y15240
X99568Y15240
X107188Y20320
X107188Y17780
X95758Y31115
X123698Y59690
X126238Y59690
X91948Y50800
X121158Y59690
X121793Y25908
X136398Y52070
X133858Y12700
X95631Y27940
X94742Y15240
X94742Y19050
X94742Y24130
X130048Y59690
X170688Y26670
X121158Y55880
X90678Y40640
X89027Y40640
X157226Y14097
X158496Y14986
X160782Y60198
X144018Y52451
X149987Y60325
X115824Y49530
X116078Y2540
X92329Y8255
X93218Y5080
X89408Y7620
X116459Y9779
X151511Y60325
X160528Y54229
X116459Y11811
X122682Y9652
X114935Y14605
X122682Y17272
X117094Y17145
X113538Y44450
X111252Y45974
X125476Y34544
X147828Y59690
X170688Y54610
X95758Y19050
X165608Y59690
X142748Y3810
X141478Y7620
X171958Y6350
X107188Y25400
X104648Y25400
X146558Y1270
X145288Y59690
X141478Y59690
X133477Y45720
X123698Y52070
X105283Y45720
X151638Y53340
X151130Y52832
X152146Y52832
X152146Y53848
X151130Y53848
X132842Y34290
X123825Y39116
X96393Y35560
X141351Y51689
X149860Y48260
X121158Y43561
X124968Y19050
X135128Y17780
X100838Y46990
X98298Y46990
X102108Y6350
X99568Y6350
X102108Y8890
X107188Y6350
X130048Y17018
X119380Y34290
X123825Y41656
X133604Y40767
X91948Y46990
X170688Y31750
X145288Y39370
X170688Y40640
X170688Y44450
X135128Y24130
X131318Y26670
X129667Y40894
X114808Y12700
X140716Y46482
X140843Y43180
X140716Y39370
X165608Y31750
X145288Y37719
X164338Y55245
X168148Y36830
X151638Y37592
X160528Y33147
X146304Y43815
X124333Y44577
X95631Y12573
X99949Y18796
X150368Y43815
X161798Y41275
X159258Y41275
X159766Y48260
X126365Y45085
X123698Y12700
X130048Y10668
X147828Y56515
X141478Y25400
X98298Y58420
X103378Y58420
X108458Y58420
X160528Y38735
X146304Y41275
X152908Y48260
X147193Y34036
X165735Y42672
X150368Y41148
X145796Y34290
X160528Y37338
X156591Y40894
X156718Y35179
X170688Y36830
X154940Y45593
X159004Y56769
X162306Y45339
X158999Y51303
X146431Y39497
X154178Y47117
X148971Y47117
X95504Y40894
X95504Y39878
X140589Y51816
X154178Y51562
X162276Y34260
X156464Y59309
X154178Y54318
X143764Y58293
X95504Y36576
X95504Y38862
X98044Y40640
X118237Y42672
X116586Y39370
X92837Y40640
X95377Y43053
X98679Y36449
X111887Y15113
X115189Y20828
X154686Y18034
X102108Y30734
X137668Y11176
X98933Y26162
X116840Y54737
X155448Y14351
X115848Y54102
X98298Y30607
X136906Y11811
X97663Y25654
X123825Y34671
X112903Y40005
X124587Y9779
X122428Y4699
X124587Y26924
X151638Y56388
X109728Y31369
X147955Y53213
X111379Y27686
X110490Y26162
X105918Y14732
X135128Y11811
X104648Y14224
X114808Y6731
X144856Y31623
X158242Y51308
X153162Y39497
X158242Y56769
X163195Y45593
X129667Y6731
X112522Y13208
X156464Y19050
X135128Y9398
X99441Y9906
X153035Y34163
X102743Y27432
X137922Y33782
X99492Y13589
X102743Y26289
X145288Y36957
X157226Y37973
X115443Y48006
X115062Y24765
X112268Y9906
X149606Y51816
X107188Y32004
X115062Y26035
X147955Y54737
X108458Y27813
X150876Y56388
X105791Y31369
X149860Y55910
X104648Y30734
X147955Y51689
X97028Y27686
X107188Y9398
X109601Y10033
X108331Y10033
X115443Y29718
X103251Y12700
X144907Y40386
X112522Y23114
X127254Y15469
X116586Y15875
X115697Y6731
X116332Y5512
X102743Y13208
X148527Y49974
X143129Y58928
X144089Y28900
X140698Y30879
X127889Y53340
X125476Y58293
X119888Y39243
X123952Y37338
X128143Y41402
X124587Y34290
X128143Y25400
X127508Y889
X155067Y59309
X155321Y53594
X144780Y47244
X156464Y53975
X123571Y48387
X125095Y48387
X130683Y50292
X125603Y50292
X124079Y49911
X130683Y45720
X131953Y45720
X121793Y48895
X70104Y79883
X48006Y81915
X29718Y118872
X29337Y87376
X20320Y106426
X8001Y71247
X29337Y88392
X48006Y77470
X24892Y108568
X41656Y117729
X46990Y69723
X43688Y101981
X68453Y101473
X58293Y104013
X58293Y97663
X67945Y104902
X68961Y98425
X67691Y97282
X77851Y100965
X60706Y114662
X11684Y84328
X13970Y84328
X16510Y84328
X19050Y84328
X19050Y77343
X16510Y77216
X13970Y76708
X11430Y76708
X19050Y81788
X19050Y79248
X7620Y92583
X35560Y121158
X38100Y121158
X3810Y112268
X33020Y121158
X33655Y87376
X48260Y113538
X45720Y74168
X7493Y89408
X6604Y76708
X6604Y80518
X6604Y85598
X41910Y121158
X82550Y88138
X33020Y117348
X2540Y102108
X889Y102108
X69088Y75565
X70358Y76454
X72644Y121666
X55880Y113919
X61849Y121793
X27686Y110998
X27940Y64008
X4191Y69723
X5080Y66548
X1270Y69088
X28321Y71247
X63373Y121793
X72390Y115697
X28321Y73279
X34544Y71120
X26797Y76073
X34544Y78740
X28956Y78613
X25400Y105918
X23114Y107442
X37338Y96012
X59690Y121158
X82550Y116078
X7620Y80518
X77470Y121158
X54610Y65278
X53340Y69088
X83820Y67818
X19050Y86868
X16510Y86868
X58420Y62738
X57150Y121158
X53340Y121158
X45339Y107188
X35560Y113538
X17145Y107188
X63500Y114808
X62992Y114300
X64008Y114300
X64008Y115316
X62992Y115316
X44704Y95758
X35687Y100584
X8255Y97028
X53213Y113157
X61722Y109728
X33020Y105029
X36830Y80518
X46990Y79248
X12700Y108458
X10160Y108458
X13970Y67818
X11430Y67818
X13970Y70358
X19050Y67818
X41910Y78486
X31242Y95758
X35687Y103124
X45466Y102235
X3810Y108458
X82550Y93218
X57150Y100838
X82550Y102108
X82550Y105918
X46990Y85598
X43180Y88138
X41529Y102362
X26670Y74168
X52578Y107950
X52705Y104648
X52578Y100838
X77470Y93218
X57150Y99187
X76200Y116713
X80010Y98298
X63500Y99060
X72390Y94615
X58166Y105283
X36195Y106045
X7493Y74041
X11811Y80264
X62230Y105283
X73660Y102743
X71120Y102743
X71628Y109728
X38227Y106553
X35560Y74168
X41910Y72136
X59690Y117983
X53340Y86868
X10160Y119888
X15240Y119888
X20320Y119888
X72390Y100203
X58166Y102743
X64770Y109728
X59055Y95504
X77597Y104140
X62230Y102616
X57658Y95758
X72390Y98806
X68453Y102362
X68580Y96647
X82550Y98298
X66802Y107061
X70866Y118237
X74168Y106807
X70861Y112771
X58293Y100965
X66040Y108585
X60833Y108585
X7366Y102362
X7366Y101346
X52451Y113284
X66040Y113030
X74138Y95728
X68326Y120777
X66040Y115786
X55626Y119761
X7366Y98044
X7366Y100330
X9906Y102108
X30099Y104140
X28448Y100838
X4699Y102108
X7239Y104521
X10541Y97917
X23749Y76581
X27051Y82296
X66548Y79502
X13970Y92202
X49530Y72644
X10795Y87630
X28702Y116205
X67310Y75819
X27710Y115570
X10160Y92075
X48768Y73279
X9525Y87122
X35687Y96139
X24765Y101473
X36449Y71247
X34290Y66167
X36449Y88392
X63500Y117856
X21590Y92837
X59817Y114681
X23241Y89154
X22352Y87630
X17780Y76200
X46990Y73279
X16510Y75692
X26670Y68199
X56718Y93091
X70104Y112776
X65024Y100965
X70104Y118237
X75057Y107061
X41529Y68199
X24384Y74676
X68326Y80518
X46990Y70866
X11303Y71374
X64897Y95631
X14605Y88900
X49784Y95250
X11354Y75057
X14605Y87757
X57150Y98425
X69088Y99441
X27305Y109474
X26924Y86233
X24130Y71374
X61468Y113284
X19050Y93472
X26924Y87503
X59817Y116205
X20320Y89281
X62738Y117856
X17653Y92837
X61722Y117378
X16510Y92202
X59817Y113157
X8890Y89154
X19050Y70866
X21463Y71501
X20193Y71501
X27305Y91186
X15113Y74168
X56769Y101854
X24384Y84582
X39116Y76937
X28448Y77343
X27559Y68199
X28194Y66980
X14605Y74676
X60388Y111442
X54991Y120396
X55951Y90368
X52560Y92347
X39751Y114808
X37338Y119761
X31750Y100711
X35814Y98806
X40005Y102870
X36449Y95758
X40005Y86868
X39370Y62357
X66929Y120777
X67183Y115062
X56642Y108712
X68326Y115443
X35433Y109855
X36957Y109855
X42545Y111760
X37465Y111760
X35941Y111379
X42545Y107188
X43815Y107188
X33655Y110363
X158242Y79883
X136144Y81915
X117856Y118872
X117475Y87376
X108458Y106426
X96139Y71247
X117475Y88392
X136144Y77470
X113030Y108568
X129794Y117729
X135128Y69723
X131826Y101981
X156591Y101473
X146431Y104013
X146431Y97663
X156083Y104902
X157099Y98425
X155829Y97282
X165989Y100965
X148844Y114662
X99822Y84328
X102108Y84328
X104648Y84328
X107188Y84328
X107188Y77343
X104648Y77216
X102108Y76708
X99568Y76708
X107188Y81788
X107188Y79248
X95758Y92583
X123698Y121158
X126238Y121158
X91948Y112268
X121158Y121158
X121793Y87376
X136398Y113538
X133858Y74168
X95631Y89408
X94742Y76708
X94742Y80518
X94742Y85598
X130048Y121158
X170688Y88138
X121158Y117348
X90678Y102108
X89027Y102108
X157226Y75565
X158496Y76454
X160782Y121666
X144018Y113919
X149987Y121793
X115824Y110998
X116078Y64008
X92329Y69723
X93218Y66548
X89408Y69088
X116459Y71247
X151511Y121793
X160528Y115697
X116459Y73279
X122682Y71120
X114935Y76073
X122682Y78740
X117094Y78613
X113538Y105918
X111252Y107442
X125476Y96012
X147828Y121158
X170688Y116078
X95758Y80518
X165608Y121158
X142748Y65278
X141478Y69088
X171958Y67818
X107188Y86868
X104648Y86868
X146558Y62738
X145288Y121158
X141478Y121158
X133477Y107188
X123698Y113538
X105283Y107188
X151638Y114808
X151130Y114300
X152146Y114300
X152146Y115316
X151130Y115316
X132842Y95758
X123825Y100584
X96393Y97028
X141351Y113157
X149860Y109728
X121158Y105029
X124968Y80518
X135128Y79248
X100838Y108458
X98298Y108458
X70104Y18415
X99568Y67818
X102108Y70358
X107188Y67818
X130048Y78486
X119380Y95758
X123825Y103124
X133604Y102235
X91948Y108458
X170688Y93218
X145288Y100838
X170688Y102108
X170688Y105918
X135128Y85598
X131318Y88138
X129667Y102362
X114808Y74168
X140716Y107950
X140843Y104648
X140716Y100838
X165608Y93218
X145288Y99187
X164338Y116713
X168148Y98298
X151638Y99060
X160528Y94615
X146304Y105283
X124333Y106045
X95631Y74041
X99949Y80264
X150368Y105283
X161798Y102743
X159258Y102743
X159766Y109728
X126365Y106553
X123698Y74168
X130048Y72136
X147828Y117983
X141478Y86868
X98298Y119888
X103378Y119888
X108458Y119888
X160528Y100203
X146304Y102743
X152908Y109728
X147193Y95504
X165735Y104140
X150368Y102616
X145796Y95758
X160528Y98806
X156591Y102362
X156718Y96647
X170688Y98298
X154940Y107061
X159004Y118237
X162306Y106807
X158999Y112771
X146431Y100965
X154178Y108585
X148971Y108585
X95504Y102362
X95504Y101346
X140589Y113284
X154178Y113030
X162276Y95728
X156464Y120777
X154178Y115786
X143764Y119761
X95504Y98044
X95504Y100330
X98044Y102108
X118237Y104140
X116586Y100838
X92837Y102108
X95377Y104521
X98679Y97917
X111887Y76581
X115189Y82296
X154686Y79502
X102108Y92202
X137668Y72644
X98933Y87630
X116840Y116205
X155448Y75819
X115848Y115570
X98298Y92075
X136906Y73279
X97663Y87122
X123825Y96139
X112903Y101473
X124587Y71247
X122428Y66167
X124587Y88392
X151638Y117856
X109728Y92837
X147955Y114681
X111379Y89154
X110490Y87630
X105918Y76200
X135128Y73279
X104648Y75692
X114808Y68199
X144856Y93091
X158242Y112776
X153162Y100965
X158242Y118237
X163195Y107061
X129667Y68199
X112522Y74676
X156464Y80518
X135128Y70866
X99441Y71374
X153035Y95631
X102743Y88900
X137922Y95250
X99492Y75057
X102743Y87757
X145288Y98425
X157226Y99441
X115443Y109474
X115062Y86233
X112268Y71374
X149606Y113284
X107188Y93472
X115062Y87503
X147955Y116205
X108458Y89281
X150876Y117856
X105791Y92837
X149860Y117378
X104648Y92202
X147955Y113157
X97028Y89154
X107188Y70866
X109601Y71501
X108331Y71501
X115443Y91186
X103251Y74168
X144907Y101854
X112522Y84582
X127254Y76937
X116586Y77343
X115697Y68199
X116332Y66980
X102743Y74676
X148527Y111442
X143129Y120396
X144089Y90368
X140698Y92347
X127889Y114808
X102108Y67818
X119888Y100711
X123952Y98806
X128143Y102870
X124587Y95758
X128143Y86868
X127508Y62357
X155067Y120777
X155321Y115062
X144780Y108712
X156464Y115443
X123571Y109855
X125095Y109855
X130683Y111760
X125603Y111760
X124079Y111379
X130683Y107188
X131953Y107188
X121793Y110363
X48006Y20447
X29718Y57404
X29337Y25908
X20320Y44958
X8001Y9779
X29337Y26924
X48006Y16002
X24892Y47100
X41656Y56261
X46990Y8255
X43688Y40513
X68453Y40005
X58293Y42545
X58293Y36195
X67945Y43434
X68961Y36957
X67691Y35814
X77851Y39497
X60706Y53194
X11684Y22860
X13970Y22860
X16510Y22860
X19050Y22860
X19050Y15875
X16510Y15748
X13970Y15240
X11430Y15240
X19050Y20320
X19050Y17780
X7620Y31115
X35560Y59690
X38100Y59690
X3810Y50800
X33020Y59690
X33655Y25908
X48260Y52070
X45720Y12700
X7493Y27940
X6604Y15240
X6604Y19050
X6604Y24130
X41910Y59690
X82550Y26670
X33020Y55880
X2540Y40640
X889Y40640
X69088Y14097
X70358Y14986
X72644Y60198
X55880Y52451
X61849Y60325
X27686Y49530
X27940Y2540
X4191Y8255
X5080Y5080
X1270Y7620
X28321Y9779
X63373Y60325
X72390Y54229
X28321Y11811
X34544Y9652
X26797Y14605
X34544Y17272
X28956Y17145
X25400Y44450
X23114Y45974
X37338Y34544
X59690Y59690
X82550Y54610
X7620Y19050
X77470Y59690
X54610Y3810
X53340Y7620
X83820Y6350
X19050Y25400
X16510Y25400
X58420Y1270
X57150Y59690
X53340Y59690
X45339Y45720
X35560Y52070
X17145Y45720
X63500Y53340
X62992Y52832
X64008Y52832
X64008Y53848
X62992Y53848
X44704Y34290
X35687Y39116
X8255Y35560
X53213Y51689
X61722Y48260
X33020Y43561
X36830Y19050
X46990Y17780
X12700Y46990
X10160Y46990
X13970Y6350
X11430Y6350
X13970Y8890
X19050Y6350
X41910Y17018
X31242Y34290
X35687Y41656
X45466Y40767
X3810Y46990
X82550Y31750
X57150Y39370
X82550Y40640
X82550Y44450
X46990Y24130
X43180Y26670
X41529Y40894
X26670Y12700
X52578Y46482
X52705Y43180
X52578Y39370
X77470Y31750
X57150Y37719
X76200Y55245
X80010Y36830
X63500Y37592
X72390Y33147
X58166Y43815
X36195Y44577
X7493Y12573
X11811Y18796
X62230Y43815
X73660Y41275
X71120Y41275
X71628Y48260
X125476Y119761
M30