G04 EAGLE Gerber RS-274X export*
G75*
%MOMM*%
%FSLAX34Y34*%
%LPD*%
%INSoldermask Bottom*%
%IPPOS*%
%AMOC8*
5,1,8,0,0,1.08239X$1,22.5*%
G01*
%ADD10C,0.228344*%
%ADD11C,0.762000*%
%ADD12C,3.429000*%
%ADD13C,0.777000*%
%ADD14C,2.006600*%
%ADD15C,1.143000*%
%ADD16C,1.905000*%
%ADD17C,0.228600*%
%ADD18C,1.127000*%
%ADD19C,1.270000*%
%ADD20C,1.627000*%

G36*
X1162750Y975753D02*
X1162750Y975753D01*
X1162816Y975755D01*
X1162859Y975773D01*
X1162906Y975781D01*
X1162963Y975815D01*
X1163023Y975840D01*
X1163058Y975871D01*
X1163099Y975896D01*
X1163141Y975947D01*
X1163189Y975991D01*
X1163211Y976033D01*
X1163240Y976070D01*
X1163261Y976132D01*
X1163292Y976191D01*
X1163300Y976245D01*
X1163312Y976282D01*
X1163311Y976322D01*
X1163319Y976376D01*
X1163319Y989584D01*
X1163308Y989649D01*
X1163306Y989715D01*
X1163288Y989758D01*
X1163280Y989805D01*
X1163246Y989862D01*
X1163221Y989922D01*
X1163190Y989957D01*
X1163165Y989998D01*
X1163114Y990040D01*
X1163070Y990088D01*
X1163028Y990110D01*
X1162991Y990139D01*
X1162929Y990160D01*
X1162870Y990191D01*
X1162816Y990199D01*
X1162779Y990211D01*
X1162739Y990210D01*
X1162685Y990218D01*
X1158875Y990218D01*
X1158810Y990207D01*
X1158744Y990205D01*
X1158701Y990187D01*
X1158654Y990179D01*
X1158597Y990145D01*
X1158537Y990120D01*
X1158502Y990089D01*
X1158461Y990064D01*
X1158420Y990013D01*
X1158371Y989969D01*
X1158349Y989927D01*
X1158320Y989890D01*
X1158299Y989828D01*
X1158268Y989769D01*
X1158260Y989715D01*
X1158248Y989678D01*
X1158249Y989638D01*
X1158241Y989584D01*
X1158241Y976376D01*
X1158252Y976311D01*
X1158254Y976245D01*
X1158272Y976202D01*
X1158280Y976155D01*
X1158314Y976098D01*
X1158339Y976038D01*
X1158370Y976003D01*
X1158395Y975962D01*
X1158446Y975921D01*
X1158490Y975872D01*
X1158532Y975850D01*
X1158569Y975821D01*
X1158631Y975800D01*
X1158690Y975769D01*
X1158744Y975761D01*
X1158781Y975749D01*
X1158821Y975750D01*
X1158875Y975742D01*
X1162685Y975742D01*
X1162750Y975753D01*
G37*
G36*
X281370Y975753D02*
X281370Y975753D01*
X281436Y975755D01*
X281479Y975773D01*
X281526Y975781D01*
X281583Y975815D01*
X281643Y975840D01*
X281678Y975871D01*
X281719Y975896D01*
X281761Y975947D01*
X281809Y975991D01*
X281831Y976033D01*
X281860Y976070D01*
X281881Y976132D01*
X281912Y976191D01*
X281920Y976245D01*
X281932Y976282D01*
X281931Y976322D01*
X281939Y976376D01*
X281939Y989584D01*
X281928Y989649D01*
X281926Y989715D01*
X281908Y989758D01*
X281900Y989805D01*
X281866Y989862D01*
X281841Y989922D01*
X281810Y989957D01*
X281785Y989998D01*
X281734Y990040D01*
X281690Y990088D01*
X281648Y990110D01*
X281611Y990139D01*
X281549Y990160D01*
X281490Y990191D01*
X281436Y990199D01*
X281399Y990211D01*
X281359Y990210D01*
X281305Y990218D01*
X277495Y990218D01*
X277430Y990207D01*
X277364Y990205D01*
X277321Y990187D01*
X277274Y990179D01*
X277217Y990145D01*
X277157Y990120D01*
X277122Y990089D01*
X277081Y990064D01*
X277040Y990013D01*
X276991Y989969D01*
X276969Y989927D01*
X276940Y989890D01*
X276919Y989828D01*
X276888Y989769D01*
X276880Y989715D01*
X276868Y989678D01*
X276869Y989638D01*
X276861Y989584D01*
X276861Y976376D01*
X276872Y976311D01*
X276874Y976245D01*
X276892Y976202D01*
X276900Y976155D01*
X276934Y976098D01*
X276959Y976038D01*
X276990Y976003D01*
X277015Y975962D01*
X277066Y975921D01*
X277110Y975872D01*
X277152Y975850D01*
X277189Y975821D01*
X277251Y975800D01*
X277310Y975769D01*
X277364Y975761D01*
X277401Y975749D01*
X277441Y975750D01*
X277495Y975742D01*
X281305Y975742D01*
X281370Y975753D01*
G37*
G36*
X1162750Y361073D02*
X1162750Y361073D01*
X1162816Y361075D01*
X1162859Y361093D01*
X1162906Y361101D01*
X1162963Y361135D01*
X1163023Y361160D01*
X1163058Y361191D01*
X1163099Y361216D01*
X1163141Y361267D01*
X1163189Y361311D01*
X1163211Y361353D01*
X1163240Y361390D01*
X1163261Y361452D01*
X1163292Y361511D01*
X1163300Y361565D01*
X1163312Y361602D01*
X1163311Y361642D01*
X1163319Y361696D01*
X1163319Y374904D01*
X1163308Y374969D01*
X1163306Y375035D01*
X1163288Y375078D01*
X1163280Y375125D01*
X1163246Y375182D01*
X1163221Y375242D01*
X1163190Y375277D01*
X1163165Y375318D01*
X1163114Y375360D01*
X1163070Y375408D01*
X1163028Y375430D01*
X1162991Y375459D01*
X1162929Y375480D01*
X1162870Y375511D01*
X1162816Y375519D01*
X1162779Y375531D01*
X1162739Y375530D01*
X1162685Y375538D01*
X1158875Y375538D01*
X1158810Y375527D01*
X1158744Y375525D01*
X1158701Y375507D01*
X1158654Y375499D01*
X1158597Y375465D01*
X1158537Y375440D01*
X1158502Y375409D01*
X1158461Y375384D01*
X1158420Y375333D01*
X1158371Y375289D01*
X1158349Y375247D01*
X1158320Y375210D01*
X1158299Y375148D01*
X1158268Y375089D01*
X1158260Y375035D01*
X1158248Y374998D01*
X1158249Y374958D01*
X1158241Y374904D01*
X1158241Y361696D01*
X1158252Y361631D01*
X1158254Y361565D01*
X1158272Y361522D01*
X1158280Y361475D01*
X1158314Y361418D01*
X1158339Y361358D01*
X1158370Y361323D01*
X1158395Y361282D01*
X1158446Y361241D01*
X1158490Y361192D01*
X1158532Y361170D01*
X1158569Y361141D01*
X1158631Y361120D01*
X1158690Y361089D01*
X1158744Y361081D01*
X1158781Y361069D01*
X1158821Y361070D01*
X1158875Y361062D01*
X1162685Y361062D01*
X1162750Y361073D01*
G37*
G36*
X281370Y361073D02*
X281370Y361073D01*
X281436Y361075D01*
X281479Y361093D01*
X281526Y361101D01*
X281583Y361135D01*
X281643Y361160D01*
X281678Y361191D01*
X281719Y361216D01*
X281761Y361267D01*
X281809Y361311D01*
X281831Y361353D01*
X281860Y361390D01*
X281881Y361452D01*
X281912Y361511D01*
X281920Y361565D01*
X281932Y361602D01*
X281931Y361642D01*
X281939Y361696D01*
X281939Y374904D01*
X281928Y374969D01*
X281926Y375035D01*
X281908Y375078D01*
X281900Y375125D01*
X281866Y375182D01*
X281841Y375242D01*
X281810Y375277D01*
X281785Y375318D01*
X281734Y375360D01*
X281690Y375408D01*
X281648Y375430D01*
X281611Y375459D01*
X281549Y375480D01*
X281490Y375511D01*
X281436Y375519D01*
X281399Y375531D01*
X281359Y375530D01*
X281305Y375538D01*
X277495Y375538D01*
X277430Y375527D01*
X277364Y375525D01*
X277321Y375507D01*
X277274Y375499D01*
X277217Y375465D01*
X277157Y375440D01*
X277122Y375409D01*
X277081Y375384D01*
X277040Y375333D01*
X276991Y375289D01*
X276969Y375247D01*
X276940Y375210D01*
X276919Y375148D01*
X276888Y375089D01*
X276880Y375035D01*
X276868Y374998D01*
X276869Y374958D01*
X276861Y374904D01*
X276861Y361696D01*
X276872Y361631D01*
X276874Y361565D01*
X276892Y361522D01*
X276900Y361475D01*
X276934Y361418D01*
X276959Y361358D01*
X276990Y361323D01*
X277015Y361282D01*
X277066Y361241D01*
X277110Y361192D01*
X277152Y361170D01*
X277189Y361141D01*
X277251Y361120D01*
X277310Y361089D01*
X277364Y361081D01*
X277401Y361069D01*
X277441Y361070D01*
X277495Y361062D01*
X281305Y361062D01*
X281370Y361073D01*
G37*
G36*
X35625Y970292D02*
X35625Y970292D01*
X35691Y970294D01*
X35734Y970312D01*
X35781Y970320D01*
X35838Y970354D01*
X35898Y970379D01*
X35933Y970410D01*
X35974Y970435D01*
X36016Y970486D01*
X36064Y970530D01*
X36086Y970572D01*
X36115Y970609D01*
X36136Y970671D01*
X36167Y970730D01*
X36175Y970784D01*
X36187Y970821D01*
X36186Y970861D01*
X36194Y970915D01*
X36194Y974725D01*
X36183Y974790D01*
X36181Y974856D01*
X36163Y974899D01*
X36155Y974946D01*
X36121Y975003D01*
X36096Y975063D01*
X36065Y975098D01*
X36040Y975139D01*
X35989Y975181D01*
X35945Y975229D01*
X35903Y975251D01*
X35866Y975280D01*
X35804Y975301D01*
X35745Y975332D01*
X35691Y975340D01*
X35654Y975352D01*
X35614Y975351D01*
X35560Y975359D01*
X33020Y975359D01*
X32955Y975348D01*
X32889Y975346D01*
X32846Y975328D01*
X32799Y975320D01*
X32742Y975286D01*
X32682Y975261D01*
X32647Y975230D01*
X32606Y975205D01*
X32565Y975154D01*
X32516Y975110D01*
X32494Y975068D01*
X32465Y975031D01*
X32444Y974969D01*
X32413Y974910D01*
X32405Y974856D01*
X32393Y974819D01*
X32393Y974815D01*
X32393Y974814D01*
X32394Y974779D01*
X32386Y974725D01*
X32386Y970915D01*
X32397Y970850D01*
X32399Y970784D01*
X32417Y970741D01*
X32425Y970694D01*
X32459Y970637D01*
X32484Y970577D01*
X32515Y970542D01*
X32540Y970501D01*
X32591Y970460D01*
X32635Y970411D01*
X32677Y970389D01*
X32714Y970360D01*
X32776Y970339D01*
X32835Y970308D01*
X32889Y970300D01*
X32926Y970288D01*
X32966Y970289D01*
X33020Y970281D01*
X35560Y970281D01*
X35625Y970292D01*
G37*
G36*
X917005Y970292D02*
X917005Y970292D01*
X917071Y970294D01*
X917114Y970312D01*
X917161Y970320D01*
X917218Y970354D01*
X917278Y970379D01*
X917313Y970410D01*
X917354Y970435D01*
X917396Y970486D01*
X917444Y970530D01*
X917466Y970572D01*
X917495Y970609D01*
X917516Y970671D01*
X917547Y970730D01*
X917555Y970784D01*
X917567Y970821D01*
X917566Y970861D01*
X917574Y970915D01*
X917574Y974725D01*
X917563Y974790D01*
X917561Y974856D01*
X917543Y974899D01*
X917535Y974946D01*
X917501Y975003D01*
X917476Y975063D01*
X917445Y975098D01*
X917420Y975139D01*
X917369Y975181D01*
X917325Y975229D01*
X917283Y975251D01*
X917246Y975280D01*
X917184Y975301D01*
X917125Y975332D01*
X917071Y975340D01*
X917034Y975352D01*
X916994Y975351D01*
X916940Y975359D01*
X914400Y975359D01*
X914335Y975348D01*
X914269Y975346D01*
X914226Y975328D01*
X914179Y975320D01*
X914122Y975286D01*
X914062Y975261D01*
X914027Y975230D01*
X913986Y975205D01*
X913945Y975154D01*
X913896Y975110D01*
X913874Y975068D01*
X913845Y975031D01*
X913824Y974969D01*
X913793Y974910D01*
X913785Y974856D01*
X913773Y974819D01*
X913773Y974815D01*
X913773Y974814D01*
X913774Y974779D01*
X913766Y974725D01*
X913766Y970915D01*
X913777Y970850D01*
X913779Y970784D01*
X913797Y970741D01*
X913805Y970694D01*
X913839Y970637D01*
X913864Y970577D01*
X913895Y970542D01*
X913920Y970501D01*
X913971Y970460D01*
X914015Y970411D01*
X914057Y970389D01*
X914094Y970360D01*
X914156Y970339D01*
X914215Y970308D01*
X914269Y970300D01*
X914306Y970288D01*
X914346Y970289D01*
X914400Y970281D01*
X916940Y970281D01*
X917005Y970292D01*
G37*
G36*
X1280225Y1173492D02*
X1280225Y1173492D01*
X1280291Y1173494D01*
X1280334Y1173512D01*
X1280381Y1173520D01*
X1280438Y1173554D01*
X1280498Y1173579D01*
X1280533Y1173610D01*
X1280574Y1173635D01*
X1280616Y1173686D01*
X1280664Y1173730D01*
X1280686Y1173772D01*
X1280715Y1173809D01*
X1280736Y1173871D01*
X1280767Y1173930D01*
X1280775Y1173984D01*
X1280787Y1174021D01*
X1280786Y1174061D01*
X1280794Y1174115D01*
X1280794Y1177925D01*
X1280783Y1177990D01*
X1280781Y1178056D01*
X1280763Y1178099D01*
X1280755Y1178146D01*
X1280721Y1178203D01*
X1280696Y1178263D01*
X1280665Y1178298D01*
X1280640Y1178339D01*
X1280589Y1178381D01*
X1280545Y1178429D01*
X1280503Y1178451D01*
X1280466Y1178480D01*
X1280404Y1178501D01*
X1280345Y1178532D01*
X1280291Y1178540D01*
X1280254Y1178552D01*
X1280214Y1178551D01*
X1280160Y1178559D01*
X1277620Y1178559D01*
X1277555Y1178548D01*
X1277489Y1178546D01*
X1277446Y1178528D01*
X1277399Y1178520D01*
X1277342Y1178486D01*
X1277282Y1178461D01*
X1277247Y1178430D01*
X1277206Y1178405D01*
X1277165Y1178354D01*
X1277116Y1178310D01*
X1277094Y1178268D01*
X1277065Y1178231D01*
X1277044Y1178169D01*
X1277013Y1178110D01*
X1277005Y1178056D01*
X1276993Y1178019D01*
X1276993Y1178015D01*
X1276993Y1178014D01*
X1276994Y1177979D01*
X1276986Y1177925D01*
X1276986Y1174115D01*
X1276997Y1174050D01*
X1276999Y1173984D01*
X1277017Y1173941D01*
X1277025Y1173894D01*
X1277059Y1173837D01*
X1277084Y1173777D01*
X1277115Y1173742D01*
X1277140Y1173701D01*
X1277191Y1173660D01*
X1277235Y1173611D01*
X1277277Y1173589D01*
X1277314Y1173560D01*
X1277376Y1173539D01*
X1277435Y1173508D01*
X1277489Y1173500D01*
X1277526Y1173488D01*
X1277566Y1173489D01*
X1277620Y1173481D01*
X1280160Y1173481D01*
X1280225Y1173492D01*
G37*
G36*
X398845Y1173492D02*
X398845Y1173492D01*
X398911Y1173494D01*
X398954Y1173512D01*
X399001Y1173520D01*
X399058Y1173554D01*
X399118Y1173579D01*
X399153Y1173610D01*
X399194Y1173635D01*
X399236Y1173686D01*
X399284Y1173730D01*
X399306Y1173772D01*
X399335Y1173809D01*
X399356Y1173871D01*
X399387Y1173930D01*
X399395Y1173984D01*
X399407Y1174021D01*
X399406Y1174061D01*
X399414Y1174115D01*
X399414Y1177925D01*
X399403Y1177990D01*
X399401Y1178056D01*
X399383Y1178099D01*
X399375Y1178146D01*
X399341Y1178203D01*
X399316Y1178263D01*
X399285Y1178298D01*
X399260Y1178339D01*
X399209Y1178381D01*
X399165Y1178429D01*
X399123Y1178451D01*
X399086Y1178480D01*
X399024Y1178501D01*
X398965Y1178532D01*
X398911Y1178540D01*
X398874Y1178552D01*
X398834Y1178551D01*
X398780Y1178559D01*
X396240Y1178559D01*
X396175Y1178548D01*
X396109Y1178546D01*
X396066Y1178528D01*
X396019Y1178520D01*
X395962Y1178486D01*
X395902Y1178461D01*
X395867Y1178430D01*
X395826Y1178405D01*
X395785Y1178354D01*
X395736Y1178310D01*
X395714Y1178268D01*
X395685Y1178231D01*
X395664Y1178169D01*
X395633Y1178110D01*
X395625Y1178056D01*
X395613Y1178019D01*
X395613Y1178015D01*
X395613Y1178014D01*
X395614Y1177979D01*
X395606Y1177925D01*
X395606Y1174115D01*
X395617Y1174050D01*
X395619Y1173984D01*
X395637Y1173941D01*
X395645Y1173894D01*
X395679Y1173837D01*
X395704Y1173777D01*
X395735Y1173742D01*
X395760Y1173701D01*
X395811Y1173660D01*
X395855Y1173611D01*
X395897Y1173589D01*
X395934Y1173560D01*
X395996Y1173539D01*
X396055Y1173508D01*
X396109Y1173500D01*
X396146Y1173488D01*
X396186Y1173489D01*
X396240Y1173481D01*
X398780Y1173481D01*
X398845Y1173492D01*
G37*
G36*
X1280225Y1163332D02*
X1280225Y1163332D01*
X1280291Y1163334D01*
X1280334Y1163352D01*
X1280381Y1163360D01*
X1280438Y1163394D01*
X1280498Y1163419D01*
X1280533Y1163450D01*
X1280574Y1163475D01*
X1280616Y1163526D01*
X1280664Y1163570D01*
X1280686Y1163612D01*
X1280715Y1163649D01*
X1280736Y1163711D01*
X1280767Y1163770D01*
X1280775Y1163824D01*
X1280787Y1163861D01*
X1280786Y1163901D01*
X1280794Y1163955D01*
X1280794Y1167765D01*
X1280783Y1167830D01*
X1280781Y1167896D01*
X1280763Y1167939D01*
X1280755Y1167986D01*
X1280721Y1168043D01*
X1280696Y1168103D01*
X1280665Y1168138D01*
X1280640Y1168179D01*
X1280589Y1168221D01*
X1280545Y1168269D01*
X1280503Y1168291D01*
X1280466Y1168320D01*
X1280404Y1168341D01*
X1280345Y1168372D01*
X1280291Y1168380D01*
X1280254Y1168392D01*
X1280214Y1168391D01*
X1280160Y1168399D01*
X1277620Y1168399D01*
X1277555Y1168388D01*
X1277489Y1168386D01*
X1277446Y1168368D01*
X1277399Y1168360D01*
X1277342Y1168326D01*
X1277282Y1168301D01*
X1277247Y1168270D01*
X1277206Y1168245D01*
X1277165Y1168194D01*
X1277116Y1168150D01*
X1277094Y1168108D01*
X1277065Y1168071D01*
X1277044Y1168009D01*
X1277013Y1167950D01*
X1277005Y1167896D01*
X1276993Y1167859D01*
X1276993Y1167855D01*
X1276993Y1167854D01*
X1276994Y1167819D01*
X1276986Y1167765D01*
X1276986Y1163955D01*
X1276997Y1163890D01*
X1276999Y1163824D01*
X1277017Y1163781D01*
X1277025Y1163734D01*
X1277059Y1163677D01*
X1277084Y1163617D01*
X1277115Y1163582D01*
X1277140Y1163541D01*
X1277191Y1163500D01*
X1277235Y1163451D01*
X1277277Y1163429D01*
X1277314Y1163400D01*
X1277376Y1163379D01*
X1277435Y1163348D01*
X1277489Y1163340D01*
X1277526Y1163328D01*
X1277566Y1163329D01*
X1277620Y1163321D01*
X1280160Y1163321D01*
X1280225Y1163332D01*
G37*
G36*
X398845Y1163332D02*
X398845Y1163332D01*
X398911Y1163334D01*
X398954Y1163352D01*
X399001Y1163360D01*
X399058Y1163394D01*
X399118Y1163419D01*
X399153Y1163450D01*
X399194Y1163475D01*
X399236Y1163526D01*
X399284Y1163570D01*
X399306Y1163612D01*
X399335Y1163649D01*
X399356Y1163711D01*
X399387Y1163770D01*
X399395Y1163824D01*
X399407Y1163861D01*
X399406Y1163901D01*
X399414Y1163955D01*
X399414Y1167765D01*
X399403Y1167830D01*
X399401Y1167896D01*
X399383Y1167939D01*
X399375Y1167986D01*
X399341Y1168043D01*
X399316Y1168103D01*
X399285Y1168138D01*
X399260Y1168179D01*
X399209Y1168221D01*
X399165Y1168269D01*
X399123Y1168291D01*
X399086Y1168320D01*
X399024Y1168341D01*
X398965Y1168372D01*
X398911Y1168380D01*
X398874Y1168392D01*
X398834Y1168391D01*
X398780Y1168399D01*
X396240Y1168399D01*
X396175Y1168388D01*
X396109Y1168386D01*
X396066Y1168368D01*
X396019Y1168360D01*
X395962Y1168326D01*
X395902Y1168301D01*
X395867Y1168270D01*
X395826Y1168245D01*
X395785Y1168194D01*
X395736Y1168150D01*
X395714Y1168108D01*
X395685Y1168071D01*
X395664Y1168009D01*
X395633Y1167950D01*
X395625Y1167896D01*
X395613Y1167859D01*
X395613Y1167855D01*
X395613Y1167854D01*
X395614Y1167819D01*
X395606Y1167765D01*
X395606Y1163955D01*
X395617Y1163890D01*
X395619Y1163824D01*
X395637Y1163781D01*
X395645Y1163734D01*
X395679Y1163677D01*
X395704Y1163617D01*
X395735Y1163582D01*
X395760Y1163541D01*
X395811Y1163500D01*
X395855Y1163451D01*
X395897Y1163429D01*
X395934Y1163400D01*
X395996Y1163379D01*
X396055Y1163348D01*
X396109Y1163340D01*
X396146Y1163328D01*
X396186Y1163329D01*
X396240Y1163321D01*
X398780Y1163321D01*
X398845Y1163332D01*
G37*
G36*
X1408495Y1145552D02*
X1408495Y1145552D01*
X1408561Y1145554D01*
X1408604Y1145572D01*
X1408651Y1145580D01*
X1408708Y1145614D01*
X1408768Y1145639D01*
X1408803Y1145670D01*
X1408844Y1145695D01*
X1408886Y1145746D01*
X1408934Y1145790D01*
X1408956Y1145832D01*
X1408985Y1145869D01*
X1409006Y1145931D01*
X1409037Y1145990D01*
X1409045Y1146044D01*
X1409057Y1146081D01*
X1409056Y1146121D01*
X1409064Y1146175D01*
X1409064Y1149985D01*
X1409053Y1150050D01*
X1409051Y1150116D01*
X1409033Y1150159D01*
X1409025Y1150206D01*
X1408991Y1150263D01*
X1408966Y1150323D01*
X1408935Y1150358D01*
X1408910Y1150399D01*
X1408859Y1150441D01*
X1408815Y1150489D01*
X1408773Y1150511D01*
X1408736Y1150540D01*
X1408674Y1150561D01*
X1408615Y1150592D01*
X1408561Y1150600D01*
X1408524Y1150612D01*
X1408484Y1150611D01*
X1408430Y1150619D01*
X1405890Y1150619D01*
X1405825Y1150608D01*
X1405759Y1150606D01*
X1405716Y1150588D01*
X1405669Y1150580D01*
X1405612Y1150546D01*
X1405552Y1150521D01*
X1405517Y1150490D01*
X1405476Y1150465D01*
X1405435Y1150414D01*
X1405386Y1150370D01*
X1405364Y1150328D01*
X1405335Y1150291D01*
X1405314Y1150229D01*
X1405283Y1150170D01*
X1405275Y1150116D01*
X1405263Y1150079D01*
X1405263Y1150075D01*
X1405263Y1150074D01*
X1405264Y1150039D01*
X1405256Y1149985D01*
X1405256Y1146175D01*
X1405267Y1146110D01*
X1405269Y1146044D01*
X1405287Y1146001D01*
X1405295Y1145954D01*
X1405329Y1145897D01*
X1405354Y1145837D01*
X1405385Y1145802D01*
X1405410Y1145761D01*
X1405461Y1145720D01*
X1405505Y1145671D01*
X1405547Y1145649D01*
X1405584Y1145620D01*
X1405646Y1145599D01*
X1405705Y1145568D01*
X1405759Y1145560D01*
X1405796Y1145548D01*
X1405836Y1145549D01*
X1405890Y1145541D01*
X1408430Y1145541D01*
X1408495Y1145552D01*
G37*
G36*
X527115Y1145552D02*
X527115Y1145552D01*
X527181Y1145554D01*
X527224Y1145572D01*
X527271Y1145580D01*
X527328Y1145614D01*
X527388Y1145639D01*
X527423Y1145670D01*
X527464Y1145695D01*
X527506Y1145746D01*
X527554Y1145790D01*
X527576Y1145832D01*
X527605Y1145869D01*
X527626Y1145931D01*
X527657Y1145990D01*
X527665Y1146044D01*
X527677Y1146081D01*
X527676Y1146121D01*
X527684Y1146175D01*
X527684Y1149985D01*
X527673Y1150050D01*
X527671Y1150116D01*
X527653Y1150159D01*
X527645Y1150206D01*
X527611Y1150263D01*
X527586Y1150323D01*
X527555Y1150358D01*
X527530Y1150399D01*
X527479Y1150441D01*
X527435Y1150489D01*
X527393Y1150511D01*
X527356Y1150540D01*
X527294Y1150561D01*
X527235Y1150592D01*
X527181Y1150600D01*
X527144Y1150612D01*
X527104Y1150611D01*
X527050Y1150619D01*
X524510Y1150619D01*
X524445Y1150608D01*
X524379Y1150606D01*
X524336Y1150588D01*
X524289Y1150580D01*
X524232Y1150546D01*
X524172Y1150521D01*
X524137Y1150490D01*
X524096Y1150465D01*
X524055Y1150414D01*
X524006Y1150370D01*
X523984Y1150328D01*
X523955Y1150291D01*
X523934Y1150229D01*
X523903Y1150170D01*
X523895Y1150116D01*
X523883Y1150079D01*
X523883Y1150075D01*
X523883Y1150074D01*
X523884Y1150039D01*
X523876Y1149985D01*
X523876Y1146175D01*
X523887Y1146110D01*
X523889Y1146044D01*
X523907Y1146001D01*
X523915Y1145954D01*
X523949Y1145897D01*
X523974Y1145837D01*
X524005Y1145802D01*
X524030Y1145761D01*
X524081Y1145720D01*
X524125Y1145671D01*
X524167Y1145649D01*
X524204Y1145620D01*
X524266Y1145599D01*
X524325Y1145568D01*
X524379Y1145560D01*
X524416Y1145548D01*
X524456Y1145549D01*
X524510Y1145541D01*
X527050Y1145541D01*
X527115Y1145552D01*
G37*
G36*
X1280225Y558812D02*
X1280225Y558812D01*
X1280291Y558814D01*
X1280334Y558832D01*
X1280381Y558840D01*
X1280438Y558874D01*
X1280498Y558899D01*
X1280533Y558930D01*
X1280574Y558955D01*
X1280616Y559006D01*
X1280664Y559050D01*
X1280686Y559092D01*
X1280715Y559129D01*
X1280736Y559191D01*
X1280767Y559250D01*
X1280775Y559304D01*
X1280787Y559341D01*
X1280786Y559381D01*
X1280794Y559435D01*
X1280794Y563245D01*
X1280783Y563310D01*
X1280781Y563376D01*
X1280763Y563419D01*
X1280755Y563466D01*
X1280721Y563523D01*
X1280696Y563583D01*
X1280665Y563618D01*
X1280640Y563659D01*
X1280589Y563701D01*
X1280545Y563749D01*
X1280503Y563771D01*
X1280466Y563800D01*
X1280404Y563821D01*
X1280345Y563852D01*
X1280291Y563860D01*
X1280254Y563872D01*
X1280214Y563871D01*
X1280160Y563879D01*
X1277620Y563879D01*
X1277555Y563868D01*
X1277489Y563866D01*
X1277446Y563848D01*
X1277399Y563840D01*
X1277342Y563806D01*
X1277282Y563781D01*
X1277247Y563750D01*
X1277206Y563725D01*
X1277165Y563674D01*
X1277116Y563630D01*
X1277094Y563588D01*
X1277065Y563551D01*
X1277044Y563489D01*
X1277013Y563430D01*
X1277005Y563376D01*
X1276993Y563339D01*
X1276993Y563335D01*
X1276993Y563334D01*
X1276994Y563299D01*
X1276986Y563245D01*
X1276986Y559435D01*
X1276997Y559370D01*
X1276999Y559304D01*
X1277017Y559261D01*
X1277025Y559214D01*
X1277059Y559157D01*
X1277084Y559097D01*
X1277115Y559062D01*
X1277140Y559021D01*
X1277191Y558980D01*
X1277235Y558931D01*
X1277277Y558909D01*
X1277314Y558880D01*
X1277376Y558859D01*
X1277435Y558828D01*
X1277489Y558820D01*
X1277526Y558808D01*
X1277566Y558809D01*
X1277620Y558801D01*
X1280160Y558801D01*
X1280225Y558812D01*
G37*
G36*
X398845Y558812D02*
X398845Y558812D01*
X398911Y558814D01*
X398954Y558832D01*
X399001Y558840D01*
X399058Y558874D01*
X399118Y558899D01*
X399153Y558930D01*
X399194Y558955D01*
X399236Y559006D01*
X399284Y559050D01*
X399306Y559092D01*
X399335Y559129D01*
X399356Y559191D01*
X399387Y559250D01*
X399395Y559304D01*
X399407Y559341D01*
X399406Y559381D01*
X399414Y559435D01*
X399414Y563245D01*
X399403Y563310D01*
X399401Y563376D01*
X399383Y563419D01*
X399375Y563466D01*
X399341Y563523D01*
X399316Y563583D01*
X399285Y563618D01*
X399260Y563659D01*
X399209Y563701D01*
X399165Y563749D01*
X399123Y563771D01*
X399086Y563800D01*
X399024Y563821D01*
X398965Y563852D01*
X398911Y563860D01*
X398874Y563872D01*
X398834Y563871D01*
X398780Y563879D01*
X396240Y563879D01*
X396175Y563868D01*
X396109Y563866D01*
X396066Y563848D01*
X396019Y563840D01*
X395962Y563806D01*
X395902Y563781D01*
X395867Y563750D01*
X395826Y563725D01*
X395785Y563674D01*
X395736Y563630D01*
X395714Y563588D01*
X395685Y563551D01*
X395664Y563489D01*
X395633Y563430D01*
X395625Y563376D01*
X395613Y563339D01*
X395613Y563335D01*
X395613Y563334D01*
X395614Y563299D01*
X395606Y563245D01*
X395606Y559435D01*
X395617Y559370D01*
X395619Y559304D01*
X395637Y559261D01*
X395645Y559214D01*
X395679Y559157D01*
X395704Y559097D01*
X395735Y559062D01*
X395760Y559021D01*
X395811Y558980D01*
X395855Y558931D01*
X395897Y558909D01*
X395934Y558880D01*
X395996Y558859D01*
X396055Y558828D01*
X396109Y558820D01*
X396146Y558808D01*
X396186Y558809D01*
X396240Y558801D01*
X398780Y558801D01*
X398845Y558812D01*
G37*
G36*
X1280225Y548652D02*
X1280225Y548652D01*
X1280291Y548654D01*
X1280334Y548672D01*
X1280381Y548680D01*
X1280438Y548714D01*
X1280498Y548739D01*
X1280533Y548770D01*
X1280574Y548795D01*
X1280616Y548846D01*
X1280664Y548890D01*
X1280686Y548932D01*
X1280715Y548969D01*
X1280736Y549031D01*
X1280767Y549090D01*
X1280775Y549144D01*
X1280787Y549181D01*
X1280786Y549221D01*
X1280794Y549275D01*
X1280794Y553085D01*
X1280783Y553150D01*
X1280781Y553216D01*
X1280763Y553259D01*
X1280755Y553306D01*
X1280721Y553363D01*
X1280696Y553423D01*
X1280665Y553458D01*
X1280640Y553499D01*
X1280589Y553541D01*
X1280545Y553589D01*
X1280503Y553611D01*
X1280466Y553640D01*
X1280404Y553661D01*
X1280345Y553692D01*
X1280291Y553700D01*
X1280254Y553712D01*
X1280214Y553711D01*
X1280160Y553719D01*
X1277620Y553719D01*
X1277555Y553708D01*
X1277489Y553706D01*
X1277446Y553688D01*
X1277399Y553680D01*
X1277342Y553646D01*
X1277282Y553621D01*
X1277247Y553590D01*
X1277206Y553565D01*
X1277165Y553514D01*
X1277116Y553470D01*
X1277094Y553428D01*
X1277065Y553391D01*
X1277044Y553329D01*
X1277013Y553270D01*
X1277005Y553216D01*
X1276993Y553179D01*
X1276993Y553175D01*
X1276993Y553174D01*
X1276994Y553139D01*
X1276986Y553085D01*
X1276986Y549275D01*
X1276997Y549210D01*
X1276999Y549144D01*
X1277017Y549101D01*
X1277025Y549054D01*
X1277059Y548997D01*
X1277084Y548937D01*
X1277115Y548902D01*
X1277140Y548861D01*
X1277191Y548820D01*
X1277235Y548771D01*
X1277277Y548749D01*
X1277314Y548720D01*
X1277376Y548699D01*
X1277435Y548668D01*
X1277489Y548660D01*
X1277526Y548648D01*
X1277566Y548649D01*
X1277620Y548641D01*
X1280160Y548641D01*
X1280225Y548652D01*
G37*
G36*
X398845Y548652D02*
X398845Y548652D01*
X398911Y548654D01*
X398954Y548672D01*
X399001Y548680D01*
X399058Y548714D01*
X399118Y548739D01*
X399153Y548770D01*
X399194Y548795D01*
X399236Y548846D01*
X399284Y548890D01*
X399306Y548932D01*
X399335Y548969D01*
X399356Y549031D01*
X399387Y549090D01*
X399395Y549144D01*
X399407Y549181D01*
X399406Y549221D01*
X399414Y549275D01*
X399414Y553085D01*
X399403Y553150D01*
X399401Y553216D01*
X399383Y553259D01*
X399375Y553306D01*
X399341Y553363D01*
X399316Y553423D01*
X399285Y553458D01*
X399260Y553499D01*
X399209Y553541D01*
X399165Y553589D01*
X399123Y553611D01*
X399086Y553640D01*
X399024Y553661D01*
X398965Y553692D01*
X398911Y553700D01*
X398874Y553712D01*
X398834Y553711D01*
X398780Y553719D01*
X396240Y553719D01*
X396175Y553708D01*
X396109Y553706D01*
X396066Y553688D01*
X396019Y553680D01*
X395962Y553646D01*
X395902Y553621D01*
X395867Y553590D01*
X395826Y553565D01*
X395785Y553514D01*
X395736Y553470D01*
X395714Y553428D01*
X395685Y553391D01*
X395664Y553329D01*
X395633Y553270D01*
X395625Y553216D01*
X395613Y553179D01*
X395613Y553175D01*
X395613Y553174D01*
X395614Y553139D01*
X395606Y553085D01*
X395606Y549275D01*
X395617Y549210D01*
X395619Y549144D01*
X395637Y549101D01*
X395645Y549054D01*
X395679Y548997D01*
X395704Y548937D01*
X395735Y548902D01*
X395760Y548861D01*
X395811Y548820D01*
X395855Y548771D01*
X395897Y548749D01*
X395934Y548720D01*
X395996Y548699D01*
X396055Y548668D01*
X396109Y548660D01*
X396146Y548648D01*
X396186Y548649D01*
X396240Y548641D01*
X398780Y548641D01*
X398845Y548652D01*
G37*
G36*
X1408495Y530872D02*
X1408495Y530872D01*
X1408561Y530874D01*
X1408604Y530892D01*
X1408651Y530900D01*
X1408708Y530934D01*
X1408768Y530959D01*
X1408803Y530990D01*
X1408844Y531015D01*
X1408886Y531066D01*
X1408934Y531110D01*
X1408956Y531152D01*
X1408985Y531189D01*
X1409006Y531251D01*
X1409037Y531310D01*
X1409045Y531364D01*
X1409057Y531401D01*
X1409056Y531441D01*
X1409064Y531495D01*
X1409064Y535305D01*
X1409053Y535370D01*
X1409051Y535436D01*
X1409033Y535479D01*
X1409025Y535526D01*
X1408991Y535583D01*
X1408966Y535643D01*
X1408935Y535678D01*
X1408910Y535719D01*
X1408859Y535761D01*
X1408815Y535809D01*
X1408773Y535831D01*
X1408736Y535860D01*
X1408674Y535881D01*
X1408615Y535912D01*
X1408561Y535920D01*
X1408524Y535932D01*
X1408484Y535931D01*
X1408430Y535939D01*
X1405890Y535939D01*
X1405825Y535928D01*
X1405759Y535926D01*
X1405716Y535908D01*
X1405669Y535900D01*
X1405612Y535866D01*
X1405552Y535841D01*
X1405517Y535810D01*
X1405476Y535785D01*
X1405435Y535734D01*
X1405386Y535690D01*
X1405364Y535648D01*
X1405335Y535611D01*
X1405314Y535549D01*
X1405283Y535490D01*
X1405275Y535436D01*
X1405263Y535399D01*
X1405263Y535395D01*
X1405263Y535394D01*
X1405264Y535359D01*
X1405256Y535305D01*
X1405256Y531495D01*
X1405267Y531430D01*
X1405269Y531364D01*
X1405287Y531321D01*
X1405295Y531274D01*
X1405329Y531217D01*
X1405354Y531157D01*
X1405385Y531122D01*
X1405410Y531081D01*
X1405461Y531040D01*
X1405505Y530991D01*
X1405547Y530969D01*
X1405584Y530940D01*
X1405646Y530919D01*
X1405705Y530888D01*
X1405759Y530880D01*
X1405796Y530868D01*
X1405836Y530869D01*
X1405890Y530861D01*
X1408430Y530861D01*
X1408495Y530872D01*
G37*
G36*
X527115Y530872D02*
X527115Y530872D01*
X527181Y530874D01*
X527224Y530892D01*
X527271Y530900D01*
X527328Y530934D01*
X527388Y530959D01*
X527423Y530990D01*
X527464Y531015D01*
X527506Y531066D01*
X527554Y531110D01*
X527576Y531152D01*
X527605Y531189D01*
X527626Y531251D01*
X527657Y531310D01*
X527665Y531364D01*
X527677Y531401D01*
X527676Y531441D01*
X527684Y531495D01*
X527684Y535305D01*
X527673Y535370D01*
X527671Y535436D01*
X527653Y535479D01*
X527645Y535526D01*
X527611Y535583D01*
X527586Y535643D01*
X527555Y535678D01*
X527530Y535719D01*
X527479Y535761D01*
X527435Y535809D01*
X527393Y535831D01*
X527356Y535860D01*
X527294Y535881D01*
X527235Y535912D01*
X527181Y535920D01*
X527144Y535932D01*
X527104Y535931D01*
X527050Y535939D01*
X524510Y535939D01*
X524445Y535928D01*
X524379Y535926D01*
X524336Y535908D01*
X524289Y535900D01*
X524232Y535866D01*
X524172Y535841D01*
X524137Y535810D01*
X524096Y535785D01*
X524055Y535734D01*
X524006Y535690D01*
X523984Y535648D01*
X523955Y535611D01*
X523934Y535549D01*
X523903Y535490D01*
X523895Y535436D01*
X523883Y535399D01*
X523883Y535395D01*
X523883Y535394D01*
X523884Y535359D01*
X523876Y535305D01*
X523876Y531495D01*
X523887Y531430D01*
X523889Y531364D01*
X523907Y531321D01*
X523915Y531274D01*
X523949Y531217D01*
X523974Y531157D01*
X524005Y531122D01*
X524030Y531081D01*
X524081Y531040D01*
X524125Y530991D01*
X524167Y530969D01*
X524204Y530940D01*
X524266Y530919D01*
X524325Y530888D01*
X524379Y530880D01*
X524416Y530868D01*
X524456Y530869D01*
X524510Y530861D01*
X527050Y530861D01*
X527115Y530872D01*
G37*
G36*
X917005Y355612D02*
X917005Y355612D01*
X917071Y355614D01*
X917114Y355632D01*
X917161Y355640D01*
X917218Y355674D01*
X917278Y355699D01*
X917313Y355730D01*
X917354Y355755D01*
X917396Y355806D01*
X917444Y355850D01*
X917466Y355892D01*
X917495Y355929D01*
X917516Y355991D01*
X917547Y356050D01*
X917555Y356104D01*
X917567Y356141D01*
X917566Y356181D01*
X917574Y356235D01*
X917574Y360045D01*
X917563Y360110D01*
X917561Y360176D01*
X917543Y360219D01*
X917535Y360266D01*
X917501Y360323D01*
X917476Y360383D01*
X917445Y360418D01*
X917420Y360459D01*
X917369Y360501D01*
X917325Y360549D01*
X917283Y360571D01*
X917246Y360600D01*
X917184Y360621D01*
X917125Y360652D01*
X917071Y360660D01*
X917034Y360672D01*
X916994Y360671D01*
X916940Y360679D01*
X914400Y360679D01*
X914335Y360668D01*
X914269Y360666D01*
X914226Y360648D01*
X914179Y360640D01*
X914122Y360606D01*
X914062Y360581D01*
X914027Y360550D01*
X913986Y360525D01*
X913945Y360474D01*
X913896Y360430D01*
X913874Y360388D01*
X913845Y360351D01*
X913824Y360289D01*
X913793Y360230D01*
X913785Y360176D01*
X913773Y360139D01*
X913773Y360135D01*
X913773Y360134D01*
X913774Y360099D01*
X913766Y360045D01*
X913766Y356235D01*
X913777Y356170D01*
X913779Y356104D01*
X913797Y356061D01*
X913805Y356014D01*
X913839Y355957D01*
X913864Y355897D01*
X913895Y355862D01*
X913920Y355821D01*
X913971Y355780D01*
X914015Y355731D01*
X914057Y355709D01*
X914094Y355680D01*
X914156Y355659D01*
X914215Y355628D01*
X914269Y355620D01*
X914306Y355608D01*
X914346Y355609D01*
X914400Y355601D01*
X916940Y355601D01*
X917005Y355612D01*
G37*
G36*
X35625Y355612D02*
X35625Y355612D01*
X35691Y355614D01*
X35734Y355632D01*
X35781Y355640D01*
X35838Y355674D01*
X35898Y355699D01*
X35933Y355730D01*
X35974Y355755D01*
X36016Y355806D01*
X36064Y355850D01*
X36086Y355892D01*
X36115Y355929D01*
X36136Y355991D01*
X36167Y356050D01*
X36175Y356104D01*
X36187Y356141D01*
X36186Y356181D01*
X36194Y356235D01*
X36194Y360045D01*
X36183Y360110D01*
X36181Y360176D01*
X36163Y360219D01*
X36155Y360266D01*
X36121Y360323D01*
X36096Y360383D01*
X36065Y360418D01*
X36040Y360459D01*
X35989Y360501D01*
X35945Y360549D01*
X35903Y360571D01*
X35866Y360600D01*
X35804Y360621D01*
X35745Y360652D01*
X35691Y360660D01*
X35654Y360672D01*
X35614Y360671D01*
X35560Y360679D01*
X33020Y360679D01*
X32955Y360668D01*
X32889Y360666D01*
X32846Y360648D01*
X32799Y360640D01*
X32742Y360606D01*
X32682Y360581D01*
X32647Y360550D01*
X32606Y360525D01*
X32565Y360474D01*
X32516Y360430D01*
X32494Y360388D01*
X32465Y360351D01*
X32444Y360289D01*
X32413Y360230D01*
X32405Y360176D01*
X32393Y360139D01*
X32393Y360135D01*
X32393Y360134D01*
X32394Y360099D01*
X32386Y360045D01*
X32386Y356235D01*
X32397Y356170D01*
X32399Y356104D01*
X32417Y356061D01*
X32425Y356014D01*
X32459Y355957D01*
X32484Y355897D01*
X32515Y355862D01*
X32540Y355821D01*
X32591Y355780D01*
X32635Y355731D01*
X32677Y355709D01*
X32714Y355680D01*
X32776Y355659D01*
X32835Y355628D01*
X32889Y355620D01*
X32926Y355608D01*
X32966Y355609D01*
X33020Y355601D01*
X35560Y355601D01*
X35625Y355612D01*
G37*
G36*
X1358330Y746137D02*
X1358330Y746137D01*
X1358396Y746139D01*
X1358439Y746157D01*
X1358486Y746165D01*
X1358543Y746199D01*
X1358603Y746224D01*
X1358638Y746255D01*
X1358679Y746280D01*
X1358721Y746331D01*
X1358769Y746375D01*
X1358791Y746417D01*
X1358820Y746454D01*
X1358841Y746516D01*
X1358872Y746575D01*
X1358880Y746629D01*
X1358892Y746666D01*
X1358891Y746706D01*
X1358899Y746760D01*
X1358899Y749300D01*
X1358888Y749365D01*
X1358886Y749431D01*
X1358868Y749474D01*
X1358860Y749521D01*
X1358826Y749578D01*
X1358801Y749638D01*
X1358770Y749673D01*
X1358745Y749714D01*
X1358694Y749756D01*
X1358650Y749804D01*
X1358608Y749826D01*
X1358571Y749855D01*
X1358509Y749876D01*
X1358450Y749907D01*
X1358396Y749915D01*
X1358359Y749927D01*
X1358319Y749926D01*
X1358265Y749934D01*
X1354455Y749934D01*
X1354390Y749923D01*
X1354324Y749921D01*
X1354281Y749903D01*
X1354234Y749895D01*
X1354177Y749861D01*
X1354117Y749836D01*
X1354082Y749805D01*
X1354041Y749780D01*
X1354000Y749729D01*
X1353951Y749685D01*
X1353929Y749643D01*
X1353900Y749606D01*
X1353879Y749544D01*
X1353848Y749485D01*
X1353840Y749431D01*
X1353828Y749394D01*
X1353828Y749391D01*
X1353829Y749354D01*
X1353821Y749300D01*
X1353821Y746760D01*
X1353832Y746695D01*
X1353834Y746629D01*
X1353852Y746586D01*
X1353860Y746539D01*
X1353894Y746482D01*
X1353919Y746422D01*
X1353950Y746387D01*
X1353975Y746346D01*
X1354026Y746305D01*
X1354070Y746256D01*
X1354112Y746234D01*
X1354149Y746205D01*
X1354211Y746184D01*
X1354270Y746153D01*
X1354324Y746145D01*
X1354361Y746133D01*
X1354401Y746134D01*
X1354455Y746126D01*
X1358265Y746126D01*
X1358330Y746137D01*
G37*
G36*
X476950Y746137D02*
X476950Y746137D01*
X477016Y746139D01*
X477059Y746157D01*
X477106Y746165D01*
X477163Y746199D01*
X477223Y746224D01*
X477258Y746255D01*
X477299Y746280D01*
X477341Y746331D01*
X477389Y746375D01*
X477411Y746417D01*
X477440Y746454D01*
X477461Y746516D01*
X477492Y746575D01*
X477500Y746629D01*
X477512Y746666D01*
X477511Y746706D01*
X477519Y746760D01*
X477519Y749300D01*
X477508Y749365D01*
X477506Y749431D01*
X477488Y749474D01*
X477480Y749521D01*
X477446Y749578D01*
X477421Y749638D01*
X477390Y749673D01*
X477365Y749714D01*
X477314Y749756D01*
X477270Y749804D01*
X477228Y749826D01*
X477191Y749855D01*
X477129Y749876D01*
X477070Y749907D01*
X477016Y749915D01*
X476979Y749927D01*
X476939Y749926D01*
X476885Y749934D01*
X473075Y749934D01*
X473010Y749923D01*
X472944Y749921D01*
X472901Y749903D01*
X472854Y749895D01*
X472797Y749861D01*
X472737Y749836D01*
X472702Y749805D01*
X472661Y749780D01*
X472620Y749729D01*
X472571Y749685D01*
X472549Y749643D01*
X472520Y749606D01*
X472499Y749544D01*
X472468Y749485D01*
X472460Y749431D01*
X472448Y749394D01*
X472448Y749391D01*
X472449Y749354D01*
X472441Y749300D01*
X472441Y746760D01*
X472452Y746695D01*
X472454Y746629D01*
X472472Y746586D01*
X472480Y746539D01*
X472514Y746482D01*
X472539Y746422D01*
X472570Y746387D01*
X472595Y746346D01*
X472646Y746305D01*
X472690Y746256D01*
X472732Y746234D01*
X472769Y746205D01*
X472831Y746184D01*
X472890Y746153D01*
X472944Y746145D01*
X472981Y746133D01*
X473021Y746134D01*
X473075Y746126D01*
X476885Y746126D01*
X476950Y746137D01*
G37*
G36*
X1137350Y1099197D02*
X1137350Y1099197D01*
X1137416Y1099199D01*
X1137459Y1099217D01*
X1137506Y1099225D01*
X1137563Y1099259D01*
X1137623Y1099284D01*
X1137658Y1099315D01*
X1137699Y1099340D01*
X1137741Y1099391D01*
X1137789Y1099435D01*
X1137811Y1099477D01*
X1137840Y1099514D01*
X1137861Y1099576D01*
X1137892Y1099635D01*
X1137900Y1099689D01*
X1137912Y1099726D01*
X1137911Y1099766D01*
X1137919Y1099820D01*
X1137919Y1102360D01*
X1137908Y1102425D01*
X1137906Y1102491D01*
X1137888Y1102534D01*
X1137880Y1102581D01*
X1137846Y1102638D01*
X1137821Y1102698D01*
X1137790Y1102733D01*
X1137765Y1102774D01*
X1137714Y1102816D01*
X1137670Y1102864D01*
X1137628Y1102886D01*
X1137591Y1102915D01*
X1137529Y1102936D01*
X1137470Y1102967D01*
X1137416Y1102975D01*
X1137379Y1102987D01*
X1137339Y1102986D01*
X1137285Y1102994D01*
X1133475Y1102994D01*
X1133410Y1102983D01*
X1133344Y1102981D01*
X1133301Y1102963D01*
X1133254Y1102955D01*
X1133197Y1102921D01*
X1133137Y1102896D01*
X1133102Y1102865D01*
X1133061Y1102840D01*
X1133020Y1102789D01*
X1132971Y1102745D01*
X1132949Y1102703D01*
X1132920Y1102666D01*
X1132899Y1102604D01*
X1132868Y1102545D01*
X1132860Y1102491D01*
X1132848Y1102454D01*
X1132848Y1102451D01*
X1132849Y1102414D01*
X1132841Y1102360D01*
X1132841Y1099820D01*
X1132852Y1099755D01*
X1132854Y1099689D01*
X1132872Y1099646D01*
X1132880Y1099599D01*
X1132914Y1099542D01*
X1132939Y1099482D01*
X1132970Y1099447D01*
X1132995Y1099406D01*
X1133046Y1099365D01*
X1133090Y1099316D01*
X1133132Y1099294D01*
X1133169Y1099265D01*
X1133231Y1099244D01*
X1133290Y1099213D01*
X1133344Y1099205D01*
X1133381Y1099193D01*
X1133421Y1099194D01*
X1133475Y1099186D01*
X1137285Y1099186D01*
X1137350Y1099197D01*
G37*
G36*
X255970Y1099197D02*
X255970Y1099197D01*
X256036Y1099199D01*
X256079Y1099217D01*
X256126Y1099225D01*
X256183Y1099259D01*
X256243Y1099284D01*
X256278Y1099315D01*
X256319Y1099340D01*
X256361Y1099391D01*
X256409Y1099435D01*
X256431Y1099477D01*
X256460Y1099514D01*
X256481Y1099576D01*
X256512Y1099635D01*
X256520Y1099689D01*
X256532Y1099726D01*
X256531Y1099766D01*
X256539Y1099820D01*
X256539Y1102360D01*
X256528Y1102425D01*
X256526Y1102491D01*
X256508Y1102534D01*
X256500Y1102581D01*
X256466Y1102638D01*
X256441Y1102698D01*
X256410Y1102733D01*
X256385Y1102774D01*
X256334Y1102816D01*
X256290Y1102864D01*
X256248Y1102886D01*
X256211Y1102915D01*
X256149Y1102936D01*
X256090Y1102967D01*
X256036Y1102975D01*
X255999Y1102987D01*
X255959Y1102986D01*
X255905Y1102994D01*
X252095Y1102994D01*
X252030Y1102983D01*
X251964Y1102981D01*
X251921Y1102963D01*
X251874Y1102955D01*
X251817Y1102921D01*
X251757Y1102896D01*
X251722Y1102865D01*
X251681Y1102840D01*
X251640Y1102789D01*
X251591Y1102745D01*
X251569Y1102703D01*
X251540Y1102666D01*
X251519Y1102604D01*
X251488Y1102545D01*
X251480Y1102491D01*
X251468Y1102454D01*
X251468Y1102451D01*
X251469Y1102414D01*
X251461Y1102360D01*
X251461Y1099820D01*
X251472Y1099755D01*
X251474Y1099689D01*
X251492Y1099646D01*
X251500Y1099599D01*
X251534Y1099542D01*
X251559Y1099482D01*
X251590Y1099447D01*
X251615Y1099406D01*
X251666Y1099365D01*
X251710Y1099316D01*
X251752Y1099294D01*
X251789Y1099265D01*
X251851Y1099244D01*
X251910Y1099213D01*
X251964Y1099205D01*
X252001Y1099193D01*
X252041Y1099194D01*
X252095Y1099186D01*
X255905Y1099186D01*
X255970Y1099197D01*
G37*
G36*
X319470Y1095387D02*
X319470Y1095387D01*
X319536Y1095389D01*
X319579Y1095407D01*
X319626Y1095415D01*
X319683Y1095449D01*
X319743Y1095474D01*
X319778Y1095505D01*
X319819Y1095530D01*
X319861Y1095581D01*
X319909Y1095625D01*
X319931Y1095667D01*
X319960Y1095704D01*
X319981Y1095766D01*
X320012Y1095825D01*
X320020Y1095879D01*
X320032Y1095916D01*
X320031Y1095956D01*
X320039Y1096010D01*
X320039Y1098550D01*
X320028Y1098615D01*
X320026Y1098681D01*
X320008Y1098724D01*
X320000Y1098771D01*
X319966Y1098828D01*
X319941Y1098888D01*
X319910Y1098923D01*
X319885Y1098964D01*
X319834Y1099006D01*
X319790Y1099054D01*
X319748Y1099076D01*
X319711Y1099105D01*
X319649Y1099126D01*
X319590Y1099157D01*
X319536Y1099165D01*
X319499Y1099177D01*
X319459Y1099176D01*
X319405Y1099184D01*
X315595Y1099184D01*
X315530Y1099173D01*
X315464Y1099171D01*
X315421Y1099153D01*
X315374Y1099145D01*
X315317Y1099111D01*
X315257Y1099086D01*
X315222Y1099055D01*
X315181Y1099030D01*
X315140Y1098979D01*
X315091Y1098935D01*
X315069Y1098893D01*
X315040Y1098856D01*
X315019Y1098794D01*
X314988Y1098735D01*
X314980Y1098681D01*
X314968Y1098644D01*
X314968Y1098641D01*
X314969Y1098604D01*
X314961Y1098550D01*
X314961Y1096010D01*
X314972Y1095945D01*
X314974Y1095879D01*
X314992Y1095836D01*
X315000Y1095789D01*
X315034Y1095732D01*
X315059Y1095672D01*
X315090Y1095637D01*
X315115Y1095596D01*
X315166Y1095555D01*
X315210Y1095506D01*
X315252Y1095484D01*
X315289Y1095455D01*
X315351Y1095434D01*
X315410Y1095403D01*
X315464Y1095395D01*
X315501Y1095383D01*
X315541Y1095384D01*
X315595Y1095376D01*
X319405Y1095376D01*
X319470Y1095387D01*
G37*
G36*
X1200850Y1095387D02*
X1200850Y1095387D01*
X1200916Y1095389D01*
X1200959Y1095407D01*
X1201006Y1095415D01*
X1201063Y1095449D01*
X1201123Y1095474D01*
X1201158Y1095505D01*
X1201199Y1095530D01*
X1201241Y1095581D01*
X1201289Y1095625D01*
X1201311Y1095667D01*
X1201340Y1095704D01*
X1201361Y1095766D01*
X1201392Y1095825D01*
X1201400Y1095879D01*
X1201412Y1095916D01*
X1201411Y1095956D01*
X1201419Y1096010D01*
X1201419Y1098550D01*
X1201408Y1098615D01*
X1201406Y1098681D01*
X1201388Y1098724D01*
X1201380Y1098771D01*
X1201346Y1098828D01*
X1201321Y1098888D01*
X1201290Y1098923D01*
X1201265Y1098964D01*
X1201214Y1099006D01*
X1201170Y1099054D01*
X1201128Y1099076D01*
X1201091Y1099105D01*
X1201029Y1099126D01*
X1200970Y1099157D01*
X1200916Y1099165D01*
X1200879Y1099177D01*
X1200839Y1099176D01*
X1200785Y1099184D01*
X1196975Y1099184D01*
X1196910Y1099173D01*
X1196844Y1099171D01*
X1196801Y1099153D01*
X1196754Y1099145D01*
X1196697Y1099111D01*
X1196637Y1099086D01*
X1196602Y1099055D01*
X1196561Y1099030D01*
X1196520Y1098979D01*
X1196471Y1098935D01*
X1196449Y1098893D01*
X1196420Y1098856D01*
X1196399Y1098794D01*
X1196368Y1098735D01*
X1196360Y1098681D01*
X1196348Y1098644D01*
X1196348Y1098641D01*
X1196349Y1098604D01*
X1196341Y1098550D01*
X1196341Y1096010D01*
X1196352Y1095945D01*
X1196354Y1095879D01*
X1196372Y1095836D01*
X1196380Y1095789D01*
X1196414Y1095732D01*
X1196439Y1095672D01*
X1196470Y1095637D01*
X1196495Y1095596D01*
X1196546Y1095555D01*
X1196590Y1095506D01*
X1196632Y1095484D01*
X1196669Y1095455D01*
X1196731Y1095434D01*
X1196790Y1095403D01*
X1196844Y1095395D01*
X1196881Y1095383D01*
X1196921Y1095384D01*
X1196975Y1095376D01*
X1200785Y1095376D01*
X1200850Y1095387D01*
G37*
G36*
X1137350Y484517D02*
X1137350Y484517D01*
X1137416Y484519D01*
X1137459Y484537D01*
X1137506Y484545D01*
X1137563Y484579D01*
X1137623Y484604D01*
X1137658Y484635D01*
X1137699Y484660D01*
X1137741Y484711D01*
X1137789Y484755D01*
X1137811Y484797D01*
X1137840Y484834D01*
X1137861Y484896D01*
X1137892Y484955D01*
X1137900Y485009D01*
X1137912Y485046D01*
X1137911Y485086D01*
X1137919Y485140D01*
X1137919Y487680D01*
X1137908Y487745D01*
X1137906Y487811D01*
X1137888Y487854D01*
X1137880Y487901D01*
X1137846Y487958D01*
X1137821Y488018D01*
X1137790Y488053D01*
X1137765Y488094D01*
X1137714Y488136D01*
X1137670Y488184D01*
X1137628Y488206D01*
X1137591Y488235D01*
X1137529Y488256D01*
X1137470Y488287D01*
X1137416Y488295D01*
X1137379Y488307D01*
X1137339Y488306D01*
X1137285Y488314D01*
X1133475Y488314D01*
X1133410Y488303D01*
X1133344Y488301D01*
X1133301Y488283D01*
X1133254Y488275D01*
X1133197Y488241D01*
X1133137Y488216D01*
X1133102Y488185D01*
X1133061Y488160D01*
X1133020Y488109D01*
X1132971Y488065D01*
X1132949Y488023D01*
X1132920Y487986D01*
X1132899Y487924D01*
X1132868Y487865D01*
X1132860Y487811D01*
X1132848Y487774D01*
X1132848Y487771D01*
X1132849Y487734D01*
X1132841Y487680D01*
X1132841Y485140D01*
X1132852Y485075D01*
X1132854Y485009D01*
X1132872Y484966D01*
X1132880Y484919D01*
X1132914Y484862D01*
X1132939Y484802D01*
X1132970Y484767D01*
X1132995Y484726D01*
X1133046Y484685D01*
X1133090Y484636D01*
X1133132Y484614D01*
X1133169Y484585D01*
X1133231Y484564D01*
X1133290Y484533D01*
X1133344Y484525D01*
X1133381Y484513D01*
X1133421Y484514D01*
X1133475Y484506D01*
X1137285Y484506D01*
X1137350Y484517D01*
G37*
G36*
X255970Y484517D02*
X255970Y484517D01*
X256036Y484519D01*
X256079Y484537D01*
X256126Y484545D01*
X256183Y484579D01*
X256243Y484604D01*
X256278Y484635D01*
X256319Y484660D01*
X256361Y484711D01*
X256409Y484755D01*
X256431Y484797D01*
X256460Y484834D01*
X256481Y484896D01*
X256512Y484955D01*
X256520Y485009D01*
X256532Y485046D01*
X256531Y485086D01*
X256539Y485140D01*
X256539Y487680D01*
X256528Y487745D01*
X256526Y487811D01*
X256508Y487854D01*
X256500Y487901D01*
X256466Y487958D01*
X256441Y488018D01*
X256410Y488053D01*
X256385Y488094D01*
X256334Y488136D01*
X256290Y488184D01*
X256248Y488206D01*
X256211Y488235D01*
X256149Y488256D01*
X256090Y488287D01*
X256036Y488295D01*
X255999Y488307D01*
X255959Y488306D01*
X255905Y488314D01*
X252095Y488314D01*
X252030Y488303D01*
X251964Y488301D01*
X251921Y488283D01*
X251874Y488275D01*
X251817Y488241D01*
X251757Y488216D01*
X251722Y488185D01*
X251681Y488160D01*
X251640Y488109D01*
X251591Y488065D01*
X251569Y488023D01*
X251540Y487986D01*
X251519Y487924D01*
X251488Y487865D01*
X251480Y487811D01*
X251468Y487774D01*
X251468Y487771D01*
X251469Y487734D01*
X251461Y487680D01*
X251461Y485140D01*
X251472Y485075D01*
X251474Y485009D01*
X251492Y484966D01*
X251500Y484919D01*
X251534Y484862D01*
X251559Y484802D01*
X251590Y484767D01*
X251615Y484726D01*
X251666Y484685D01*
X251710Y484636D01*
X251752Y484614D01*
X251789Y484585D01*
X251851Y484564D01*
X251910Y484533D01*
X251964Y484525D01*
X252001Y484513D01*
X252041Y484514D01*
X252095Y484506D01*
X255905Y484506D01*
X255970Y484517D01*
G37*
G36*
X319470Y480707D02*
X319470Y480707D01*
X319536Y480709D01*
X319579Y480727D01*
X319626Y480735D01*
X319683Y480769D01*
X319743Y480794D01*
X319778Y480825D01*
X319819Y480850D01*
X319861Y480901D01*
X319909Y480945D01*
X319931Y480987D01*
X319960Y481024D01*
X319981Y481086D01*
X320012Y481145D01*
X320020Y481199D01*
X320032Y481236D01*
X320031Y481276D01*
X320039Y481330D01*
X320039Y483870D01*
X320028Y483935D01*
X320026Y484001D01*
X320008Y484044D01*
X320000Y484091D01*
X319966Y484148D01*
X319941Y484208D01*
X319910Y484243D01*
X319885Y484284D01*
X319834Y484326D01*
X319790Y484374D01*
X319748Y484396D01*
X319711Y484425D01*
X319649Y484446D01*
X319590Y484477D01*
X319536Y484485D01*
X319499Y484497D01*
X319459Y484496D01*
X319405Y484504D01*
X315595Y484504D01*
X315530Y484493D01*
X315464Y484491D01*
X315421Y484473D01*
X315374Y484465D01*
X315317Y484431D01*
X315257Y484406D01*
X315222Y484375D01*
X315181Y484350D01*
X315140Y484299D01*
X315091Y484255D01*
X315069Y484213D01*
X315040Y484176D01*
X315019Y484114D01*
X314988Y484055D01*
X314980Y484001D01*
X314968Y483964D01*
X314968Y483961D01*
X314969Y483924D01*
X314961Y483870D01*
X314961Y481330D01*
X314972Y481265D01*
X314974Y481199D01*
X314992Y481156D01*
X315000Y481109D01*
X315034Y481052D01*
X315059Y480992D01*
X315090Y480957D01*
X315115Y480916D01*
X315166Y480875D01*
X315210Y480826D01*
X315252Y480804D01*
X315289Y480775D01*
X315351Y480754D01*
X315410Y480723D01*
X315464Y480715D01*
X315501Y480703D01*
X315541Y480704D01*
X315595Y480696D01*
X319405Y480696D01*
X319470Y480707D01*
G37*
G36*
X1200850Y480707D02*
X1200850Y480707D01*
X1200916Y480709D01*
X1200959Y480727D01*
X1201006Y480735D01*
X1201063Y480769D01*
X1201123Y480794D01*
X1201158Y480825D01*
X1201199Y480850D01*
X1201241Y480901D01*
X1201289Y480945D01*
X1201311Y480987D01*
X1201340Y481024D01*
X1201361Y481086D01*
X1201392Y481145D01*
X1201400Y481199D01*
X1201412Y481236D01*
X1201411Y481276D01*
X1201419Y481330D01*
X1201419Y483870D01*
X1201408Y483935D01*
X1201406Y484001D01*
X1201388Y484044D01*
X1201380Y484091D01*
X1201346Y484148D01*
X1201321Y484208D01*
X1201290Y484243D01*
X1201265Y484284D01*
X1201214Y484326D01*
X1201170Y484374D01*
X1201128Y484396D01*
X1201091Y484425D01*
X1201029Y484446D01*
X1200970Y484477D01*
X1200916Y484485D01*
X1200879Y484497D01*
X1200839Y484496D01*
X1200785Y484504D01*
X1196975Y484504D01*
X1196910Y484493D01*
X1196844Y484491D01*
X1196801Y484473D01*
X1196754Y484465D01*
X1196697Y484431D01*
X1196637Y484406D01*
X1196602Y484375D01*
X1196561Y484350D01*
X1196520Y484299D01*
X1196471Y484255D01*
X1196449Y484213D01*
X1196420Y484176D01*
X1196399Y484114D01*
X1196368Y484055D01*
X1196360Y484001D01*
X1196348Y483964D01*
X1196348Y483961D01*
X1196349Y483924D01*
X1196341Y483870D01*
X1196341Y481330D01*
X1196352Y481265D01*
X1196354Y481199D01*
X1196372Y481156D01*
X1196380Y481109D01*
X1196414Y481052D01*
X1196439Y480992D01*
X1196470Y480957D01*
X1196495Y480916D01*
X1196546Y480875D01*
X1196590Y480826D01*
X1196632Y480804D01*
X1196669Y480775D01*
X1196731Y480754D01*
X1196790Y480723D01*
X1196844Y480715D01*
X1196881Y480703D01*
X1196921Y480704D01*
X1196975Y480696D01*
X1200785Y480696D01*
X1200850Y480707D01*
G37*
G36*
X1416750Y572147D02*
X1416750Y572147D01*
X1416816Y572149D01*
X1416859Y572167D01*
X1416906Y572175D01*
X1416963Y572209D01*
X1417023Y572234D01*
X1417058Y572265D01*
X1417099Y572290D01*
X1417141Y572341D01*
X1417189Y572385D01*
X1417211Y572427D01*
X1417240Y572464D01*
X1417261Y572526D01*
X1417292Y572585D01*
X1417300Y572639D01*
X1417312Y572676D01*
X1417311Y572716D01*
X1417319Y572770D01*
X1417319Y575310D01*
X1417308Y575375D01*
X1417306Y575441D01*
X1417288Y575484D01*
X1417280Y575531D01*
X1417246Y575588D01*
X1417221Y575648D01*
X1417190Y575683D01*
X1417165Y575724D01*
X1417114Y575766D01*
X1417070Y575814D01*
X1417028Y575836D01*
X1416991Y575865D01*
X1416929Y575886D01*
X1416870Y575917D01*
X1416816Y575925D01*
X1416779Y575937D01*
X1416739Y575936D01*
X1416685Y575944D01*
X1412875Y575944D01*
X1412810Y575933D01*
X1412744Y575931D01*
X1412701Y575913D01*
X1412654Y575905D01*
X1412597Y575871D01*
X1412537Y575846D01*
X1412502Y575815D01*
X1412461Y575790D01*
X1412420Y575739D01*
X1412371Y575695D01*
X1412349Y575653D01*
X1412320Y575616D01*
X1412299Y575554D01*
X1412268Y575495D01*
X1412260Y575441D01*
X1412248Y575404D01*
X1412248Y575401D01*
X1412249Y575364D01*
X1412241Y575310D01*
X1412241Y572770D01*
X1412252Y572705D01*
X1412254Y572639D01*
X1412272Y572596D01*
X1412280Y572549D01*
X1412314Y572492D01*
X1412339Y572432D01*
X1412370Y572397D01*
X1412395Y572356D01*
X1412446Y572315D01*
X1412490Y572266D01*
X1412532Y572244D01*
X1412569Y572215D01*
X1412631Y572194D01*
X1412690Y572163D01*
X1412744Y572155D01*
X1412781Y572143D01*
X1412821Y572144D01*
X1412875Y572136D01*
X1416685Y572136D01*
X1416750Y572147D01*
G37*
G36*
X535370Y572147D02*
X535370Y572147D01*
X535436Y572149D01*
X535479Y572167D01*
X535526Y572175D01*
X535583Y572209D01*
X535643Y572234D01*
X535678Y572265D01*
X535719Y572290D01*
X535761Y572341D01*
X535809Y572385D01*
X535831Y572427D01*
X535860Y572464D01*
X535881Y572526D01*
X535912Y572585D01*
X535920Y572639D01*
X535932Y572676D01*
X535931Y572716D01*
X535939Y572770D01*
X535939Y575310D01*
X535928Y575375D01*
X535926Y575441D01*
X535908Y575484D01*
X535900Y575531D01*
X535866Y575588D01*
X535841Y575648D01*
X535810Y575683D01*
X535785Y575724D01*
X535734Y575766D01*
X535690Y575814D01*
X535648Y575836D01*
X535611Y575865D01*
X535549Y575886D01*
X535490Y575917D01*
X535436Y575925D01*
X535399Y575937D01*
X535359Y575936D01*
X535305Y575944D01*
X531495Y575944D01*
X531430Y575933D01*
X531364Y575931D01*
X531321Y575913D01*
X531274Y575905D01*
X531217Y575871D01*
X531157Y575846D01*
X531122Y575815D01*
X531081Y575790D01*
X531040Y575739D01*
X530991Y575695D01*
X530969Y575653D01*
X530940Y575616D01*
X530919Y575554D01*
X530888Y575495D01*
X530880Y575441D01*
X530868Y575404D01*
X530868Y575401D01*
X530869Y575364D01*
X530861Y575310D01*
X530861Y572770D01*
X530872Y572705D01*
X530874Y572639D01*
X530892Y572596D01*
X530900Y572549D01*
X530934Y572492D01*
X530959Y572432D01*
X530990Y572397D01*
X531015Y572356D01*
X531066Y572315D01*
X531110Y572266D01*
X531152Y572244D01*
X531189Y572215D01*
X531251Y572194D01*
X531310Y572163D01*
X531364Y572155D01*
X531401Y572143D01*
X531441Y572144D01*
X531495Y572136D01*
X535305Y572136D01*
X535370Y572147D01*
G37*
G36*
X1416750Y1186827D02*
X1416750Y1186827D01*
X1416816Y1186829D01*
X1416859Y1186847D01*
X1416906Y1186855D01*
X1416963Y1186889D01*
X1417023Y1186914D01*
X1417058Y1186945D01*
X1417099Y1186970D01*
X1417141Y1187021D01*
X1417189Y1187065D01*
X1417211Y1187107D01*
X1417240Y1187144D01*
X1417261Y1187206D01*
X1417292Y1187265D01*
X1417300Y1187319D01*
X1417312Y1187356D01*
X1417311Y1187396D01*
X1417319Y1187450D01*
X1417319Y1189990D01*
X1417308Y1190055D01*
X1417306Y1190121D01*
X1417288Y1190164D01*
X1417280Y1190211D01*
X1417246Y1190268D01*
X1417221Y1190328D01*
X1417190Y1190363D01*
X1417165Y1190404D01*
X1417114Y1190446D01*
X1417070Y1190494D01*
X1417028Y1190516D01*
X1416991Y1190545D01*
X1416929Y1190566D01*
X1416870Y1190597D01*
X1416816Y1190605D01*
X1416779Y1190617D01*
X1416739Y1190616D01*
X1416685Y1190624D01*
X1412875Y1190624D01*
X1412810Y1190613D01*
X1412744Y1190611D01*
X1412701Y1190593D01*
X1412654Y1190585D01*
X1412597Y1190551D01*
X1412537Y1190526D01*
X1412502Y1190495D01*
X1412461Y1190470D01*
X1412420Y1190419D01*
X1412371Y1190375D01*
X1412349Y1190333D01*
X1412320Y1190296D01*
X1412299Y1190234D01*
X1412268Y1190175D01*
X1412260Y1190121D01*
X1412248Y1190084D01*
X1412248Y1190081D01*
X1412249Y1190044D01*
X1412241Y1189990D01*
X1412241Y1187450D01*
X1412252Y1187385D01*
X1412254Y1187319D01*
X1412272Y1187276D01*
X1412280Y1187229D01*
X1412314Y1187172D01*
X1412339Y1187112D01*
X1412370Y1187077D01*
X1412395Y1187036D01*
X1412446Y1186995D01*
X1412490Y1186946D01*
X1412532Y1186924D01*
X1412569Y1186895D01*
X1412631Y1186874D01*
X1412690Y1186843D01*
X1412744Y1186835D01*
X1412781Y1186823D01*
X1412821Y1186824D01*
X1412875Y1186816D01*
X1416685Y1186816D01*
X1416750Y1186827D01*
G37*
G36*
X535370Y1186827D02*
X535370Y1186827D01*
X535436Y1186829D01*
X535479Y1186847D01*
X535526Y1186855D01*
X535583Y1186889D01*
X535643Y1186914D01*
X535678Y1186945D01*
X535719Y1186970D01*
X535761Y1187021D01*
X535809Y1187065D01*
X535831Y1187107D01*
X535860Y1187144D01*
X535881Y1187206D01*
X535912Y1187265D01*
X535920Y1187319D01*
X535932Y1187356D01*
X535931Y1187396D01*
X535939Y1187450D01*
X535939Y1189990D01*
X535928Y1190055D01*
X535926Y1190121D01*
X535908Y1190164D01*
X535900Y1190211D01*
X535866Y1190268D01*
X535841Y1190328D01*
X535810Y1190363D01*
X535785Y1190404D01*
X535734Y1190446D01*
X535690Y1190494D01*
X535648Y1190516D01*
X535611Y1190545D01*
X535549Y1190566D01*
X535490Y1190597D01*
X535436Y1190605D01*
X535399Y1190617D01*
X535359Y1190616D01*
X535305Y1190624D01*
X531495Y1190624D01*
X531430Y1190613D01*
X531364Y1190611D01*
X531321Y1190593D01*
X531274Y1190585D01*
X531217Y1190551D01*
X531157Y1190526D01*
X531122Y1190495D01*
X531081Y1190470D01*
X531040Y1190419D01*
X530991Y1190375D01*
X530969Y1190333D01*
X530940Y1190296D01*
X530919Y1190234D01*
X530888Y1190175D01*
X530880Y1190121D01*
X530868Y1190084D01*
X530868Y1190081D01*
X530869Y1190044D01*
X530861Y1189990D01*
X530861Y1187450D01*
X530872Y1187385D01*
X530874Y1187319D01*
X530892Y1187276D01*
X530900Y1187229D01*
X530934Y1187172D01*
X530959Y1187112D01*
X530990Y1187077D01*
X531015Y1187036D01*
X531066Y1186995D01*
X531110Y1186946D01*
X531152Y1186924D01*
X531189Y1186895D01*
X531251Y1186874D01*
X531310Y1186843D01*
X531364Y1186835D01*
X531401Y1186823D01*
X531441Y1186824D01*
X531495Y1186816D01*
X535305Y1186816D01*
X535370Y1186827D01*
G37*
G36*
X1358330Y131457D02*
X1358330Y131457D01*
X1358396Y131459D01*
X1358439Y131477D01*
X1358486Y131485D01*
X1358543Y131519D01*
X1358603Y131544D01*
X1358638Y131575D01*
X1358679Y131600D01*
X1358721Y131651D01*
X1358769Y131695D01*
X1358791Y131737D01*
X1358820Y131774D01*
X1358841Y131836D01*
X1358872Y131895D01*
X1358880Y131949D01*
X1358892Y131986D01*
X1358891Y132026D01*
X1358899Y132080D01*
X1358899Y134620D01*
X1358888Y134685D01*
X1358886Y134751D01*
X1358868Y134794D01*
X1358860Y134841D01*
X1358826Y134898D01*
X1358801Y134958D01*
X1358770Y134993D01*
X1358745Y135034D01*
X1358694Y135076D01*
X1358650Y135124D01*
X1358608Y135146D01*
X1358571Y135175D01*
X1358509Y135196D01*
X1358450Y135227D01*
X1358396Y135235D01*
X1358359Y135247D01*
X1358319Y135246D01*
X1358265Y135254D01*
X1354455Y135254D01*
X1354390Y135243D01*
X1354324Y135241D01*
X1354281Y135223D01*
X1354234Y135215D01*
X1354177Y135181D01*
X1354117Y135156D01*
X1354082Y135125D01*
X1354041Y135100D01*
X1354000Y135049D01*
X1353951Y135005D01*
X1353929Y134963D01*
X1353900Y134926D01*
X1353879Y134864D01*
X1353848Y134805D01*
X1353840Y134751D01*
X1353828Y134714D01*
X1353828Y134711D01*
X1353829Y134674D01*
X1353821Y134620D01*
X1353821Y132080D01*
X1353832Y132015D01*
X1353834Y131949D01*
X1353852Y131906D01*
X1353860Y131859D01*
X1353894Y131802D01*
X1353919Y131742D01*
X1353950Y131707D01*
X1353975Y131666D01*
X1354026Y131625D01*
X1354070Y131576D01*
X1354112Y131554D01*
X1354149Y131525D01*
X1354211Y131504D01*
X1354270Y131473D01*
X1354324Y131465D01*
X1354361Y131453D01*
X1354401Y131454D01*
X1354455Y131446D01*
X1358265Y131446D01*
X1358330Y131457D01*
G37*
G36*
X476950Y131457D02*
X476950Y131457D01*
X477016Y131459D01*
X477059Y131477D01*
X477106Y131485D01*
X477163Y131519D01*
X477223Y131544D01*
X477258Y131575D01*
X477299Y131600D01*
X477341Y131651D01*
X477389Y131695D01*
X477411Y131737D01*
X477440Y131774D01*
X477461Y131836D01*
X477492Y131895D01*
X477500Y131949D01*
X477512Y131986D01*
X477511Y132026D01*
X477519Y132080D01*
X477519Y134620D01*
X477508Y134685D01*
X477506Y134751D01*
X477488Y134794D01*
X477480Y134841D01*
X477446Y134898D01*
X477421Y134958D01*
X477390Y134993D01*
X477365Y135034D01*
X477314Y135076D01*
X477270Y135124D01*
X477228Y135146D01*
X477191Y135175D01*
X477129Y135196D01*
X477070Y135227D01*
X477016Y135235D01*
X476979Y135247D01*
X476939Y135246D01*
X476885Y135254D01*
X473075Y135254D01*
X473010Y135243D01*
X472944Y135241D01*
X472901Y135223D01*
X472854Y135215D01*
X472797Y135181D01*
X472737Y135156D01*
X472702Y135125D01*
X472661Y135100D01*
X472620Y135049D01*
X472571Y135005D01*
X472549Y134963D01*
X472520Y134926D01*
X472499Y134864D01*
X472468Y134805D01*
X472460Y134751D01*
X472448Y134714D01*
X472448Y134711D01*
X472449Y134674D01*
X472441Y134620D01*
X472441Y132080D01*
X472452Y132015D01*
X472454Y131949D01*
X472472Y131906D01*
X472480Y131859D01*
X472514Y131802D01*
X472539Y131742D01*
X472570Y131707D01*
X472595Y131666D01*
X472646Y131625D01*
X472690Y131576D01*
X472732Y131554D01*
X472769Y131525D01*
X472831Y131504D01*
X472890Y131473D01*
X472944Y131465D01*
X472981Y131453D01*
X473021Y131454D01*
X473075Y131446D01*
X476885Y131446D01*
X476950Y131457D01*
G37*
D10*
X535811Y579884D02*
X541403Y579884D01*
X541403Y568196D01*
X535811Y568196D01*
X535811Y579884D01*
X535811Y570365D02*
X541403Y570365D01*
X541403Y572534D02*
X535811Y572534D01*
X535811Y574703D02*
X541403Y574703D01*
X541403Y576872D02*
X535811Y576872D01*
X535811Y579041D02*
X541403Y579041D01*
X530989Y579884D02*
X525397Y579884D01*
X530989Y579884D02*
X530989Y568196D01*
X525397Y568196D01*
X525397Y579884D01*
X525397Y570365D02*
X530989Y570365D01*
X530989Y572534D02*
X525397Y572534D01*
X525397Y574703D02*
X530989Y574703D01*
X530989Y576872D02*
X525397Y576872D01*
X525397Y579041D02*
X530989Y579041D01*
D11*
X787400Y12700D03*
X63500Y596900D03*
D12*
X825500Y25400D03*
X825500Y584200D03*
X25400Y584200D03*
X25400Y25400D03*
D13*
X51590Y435300D03*
X51590Y377500D03*
D14*
X76200Y25400D03*
X101600Y25400D03*
X127000Y25400D03*
X152400Y25400D03*
X177800Y25400D03*
X203200Y25400D03*
X228600Y25400D03*
X254000Y25400D03*
X304800Y25400D03*
X330200Y25400D03*
X355600Y25400D03*
X381000Y25400D03*
X406400Y25400D03*
X431800Y25400D03*
X457200Y25400D03*
X482600Y25400D03*
D10*
X531624Y525397D02*
X531624Y530989D01*
X531624Y525397D02*
X519936Y525397D01*
X519936Y530989D01*
X531624Y530989D01*
X531624Y527566D02*
X519936Y527566D01*
X519936Y529735D02*
X531624Y529735D01*
X531624Y535811D02*
X531624Y541403D01*
X531624Y535811D02*
X519936Y535811D01*
X519936Y541403D01*
X531624Y541403D01*
X531624Y537980D02*
X519936Y537980D01*
X519936Y540149D02*
X531624Y540149D01*
X40134Y355729D02*
X40134Y350137D01*
X28446Y350137D01*
X28446Y355729D01*
X40134Y355729D01*
X40134Y352306D02*
X28446Y352306D01*
X28446Y354475D02*
X40134Y354475D01*
X40134Y360551D02*
X40134Y366143D01*
X40134Y360551D02*
X28446Y360551D01*
X28446Y366143D01*
X40134Y366143D01*
X40134Y362720D02*
X28446Y362720D01*
X28446Y364889D02*
X40134Y364889D01*
D15*
X368300Y254000D03*
X203200Y317500D03*
X190500Y279400D03*
X190500Y342900D03*
X76200Y266700D03*
X165100Y317500D03*
X215900Y279400D03*
X571500Y330200D03*
D10*
X472569Y127506D02*
X466977Y127506D01*
X466977Y139194D01*
X472569Y139194D01*
X472569Y127506D01*
X472569Y129675D02*
X466977Y129675D01*
X466977Y131844D02*
X472569Y131844D01*
X472569Y134013D02*
X466977Y134013D01*
X466977Y136182D02*
X472569Y136182D01*
X472569Y138351D02*
X466977Y138351D01*
X477391Y127506D02*
X482983Y127506D01*
X477391Y127506D02*
X477391Y139194D01*
X482983Y139194D01*
X482983Y127506D01*
X482983Y129675D02*
X477391Y129675D01*
X477391Y131844D02*
X482983Y131844D01*
X482983Y134013D02*
X477391Y134013D01*
X477391Y136182D02*
X482983Y136182D01*
X482983Y138351D02*
X477391Y138351D01*
X262003Y492254D02*
X256411Y492254D01*
X262003Y492254D02*
X262003Y480566D01*
X256411Y480566D01*
X256411Y492254D01*
X256411Y482735D02*
X262003Y482735D01*
X262003Y484904D02*
X256411Y484904D01*
X256411Y487073D02*
X262003Y487073D01*
X262003Y489242D02*
X256411Y489242D01*
X256411Y491411D02*
X262003Y491411D01*
X251589Y492254D02*
X245997Y492254D01*
X251589Y492254D02*
X251589Y480566D01*
X245997Y480566D01*
X245997Y492254D01*
X245997Y482735D02*
X251589Y482735D01*
X251589Y484904D02*
X245997Y484904D01*
X245997Y487073D02*
X251589Y487073D01*
X251589Y489242D02*
X245997Y489242D01*
X245997Y491411D02*
X251589Y491411D01*
D15*
X584200Y469900D03*
X127000Y152400D03*
X165100Y279400D03*
X444500Y101600D03*
D16*
X597032Y216350D03*
X685800Y62600D03*
X774568Y216350D03*
D10*
X391666Y563878D02*
X391666Y569470D01*
X403354Y569470D01*
X403354Y563878D01*
X391666Y563878D01*
X391666Y566047D02*
X403354Y566047D01*
X403354Y568216D02*
X391666Y568216D01*
X391666Y559056D02*
X391666Y553464D01*
X391666Y559056D02*
X403354Y559056D01*
X403354Y553464D01*
X391666Y553464D01*
X391666Y555633D02*
X403354Y555633D01*
X403354Y557802D02*
X391666Y557802D01*
X391666Y548642D02*
X391666Y543050D01*
X391666Y548642D02*
X403354Y548642D01*
X403354Y543050D01*
X391666Y543050D01*
X391666Y545219D02*
X403354Y545219D01*
X403354Y547388D02*
X391666Y547388D01*
D17*
X331343Y386588D02*
X326009Y386588D01*
X326009Y398272D01*
X331343Y398272D01*
X331343Y386588D01*
X331343Y388760D02*
X326009Y388760D01*
X326009Y390932D02*
X331343Y390932D01*
X331343Y393104D02*
X326009Y393104D01*
X326009Y395276D02*
X331343Y395276D01*
X331343Y397448D02*
X326009Y397448D01*
X334137Y386588D02*
X339471Y386588D01*
X334137Y386588D02*
X334137Y398272D01*
X339471Y398272D01*
X339471Y386588D01*
X339471Y388760D02*
X334137Y388760D01*
X334137Y390932D02*
X339471Y390932D01*
X339471Y393104D02*
X334137Y393104D01*
X334137Y395276D02*
X339471Y395276D01*
X339471Y397448D02*
X334137Y397448D01*
X276987Y362458D02*
X271653Y362458D01*
X271653Y374142D01*
X276987Y374142D01*
X276987Y362458D01*
X276987Y364630D02*
X271653Y364630D01*
X271653Y366802D02*
X276987Y366802D01*
X276987Y368974D02*
X271653Y368974D01*
X271653Y371146D02*
X276987Y371146D01*
X276987Y373318D02*
X271653Y373318D01*
X281813Y362458D02*
X287147Y362458D01*
X281813Y362458D02*
X281813Y374142D01*
X287147Y374142D01*
X287147Y362458D01*
X287147Y364630D02*
X281813Y364630D01*
X281813Y366802D02*
X287147Y366802D01*
X287147Y368974D02*
X281813Y368974D01*
X281813Y371146D02*
X287147Y371146D01*
X287147Y373318D02*
X281813Y373318D01*
D14*
X266700Y368300D03*
X292100Y368300D03*
D10*
X319911Y488444D02*
X325503Y488444D01*
X325503Y476756D01*
X319911Y476756D01*
X319911Y488444D01*
X319911Y478925D02*
X325503Y478925D01*
X325503Y481094D02*
X319911Y481094D01*
X319911Y483263D02*
X325503Y483263D01*
X325503Y485432D02*
X319911Y485432D01*
X319911Y487601D02*
X325503Y487601D01*
X315089Y488444D02*
X309497Y488444D01*
X315089Y488444D02*
X315089Y476756D01*
X309497Y476756D01*
X309497Y488444D01*
X309497Y478925D02*
X315089Y478925D01*
X315089Y481094D02*
X309497Y481094D01*
X309497Y483263D02*
X315089Y483263D01*
X315089Y485432D02*
X309497Y485432D01*
X309497Y487601D02*
X315089Y487601D01*
D14*
X457200Y584200D03*
X431800Y584200D03*
D15*
X673100Y482600D03*
X584200Y381000D03*
X749300Y444500D03*
D10*
X1417191Y579884D02*
X1422783Y579884D01*
X1422783Y568196D01*
X1417191Y568196D01*
X1417191Y579884D01*
X1417191Y570365D02*
X1422783Y570365D01*
X1422783Y572534D02*
X1417191Y572534D01*
X1417191Y574703D02*
X1422783Y574703D01*
X1422783Y576872D02*
X1417191Y576872D01*
X1417191Y579041D02*
X1422783Y579041D01*
X1412369Y579884D02*
X1406777Y579884D01*
X1412369Y579884D02*
X1412369Y568196D01*
X1406777Y568196D01*
X1406777Y579884D01*
X1406777Y570365D02*
X1412369Y570365D01*
X1412369Y572534D02*
X1406777Y572534D01*
X1406777Y574703D02*
X1412369Y574703D01*
X1412369Y576872D02*
X1406777Y576872D01*
X1406777Y579041D02*
X1412369Y579041D01*
D11*
X1668780Y12700D03*
X944880Y596900D03*
D12*
X1706880Y25400D03*
X1706880Y584200D03*
X906780Y584200D03*
X906780Y25400D03*
D13*
X932970Y435300D03*
X932970Y377500D03*
D14*
X957580Y25400D03*
X982980Y25400D03*
X1008380Y25400D03*
X1033780Y25400D03*
X1059180Y25400D03*
X1084580Y25400D03*
X1109980Y25400D03*
X1135380Y25400D03*
X1186180Y25400D03*
X1211580Y25400D03*
X1236980Y25400D03*
X1262380Y25400D03*
X1287780Y25400D03*
X1313180Y25400D03*
X1338580Y25400D03*
X1363980Y25400D03*
D10*
X1413004Y525397D02*
X1413004Y530989D01*
X1413004Y525397D02*
X1401316Y525397D01*
X1401316Y530989D01*
X1413004Y530989D01*
X1413004Y527566D02*
X1401316Y527566D01*
X1401316Y529735D02*
X1413004Y529735D01*
X1413004Y535811D02*
X1413004Y541403D01*
X1413004Y535811D02*
X1401316Y535811D01*
X1401316Y541403D01*
X1413004Y541403D01*
X1413004Y537980D02*
X1401316Y537980D01*
X1401316Y540149D02*
X1413004Y540149D01*
X921514Y355729D02*
X921514Y350137D01*
X909826Y350137D01*
X909826Y355729D01*
X921514Y355729D01*
X921514Y352306D02*
X909826Y352306D01*
X909826Y354475D02*
X921514Y354475D01*
X921514Y360551D02*
X921514Y366143D01*
X921514Y360551D02*
X909826Y360551D01*
X909826Y366143D01*
X921514Y366143D01*
X921514Y362720D02*
X909826Y362720D01*
X909826Y364889D02*
X921514Y364889D01*
D15*
X1249680Y254000D03*
X1084580Y317500D03*
X1071880Y279400D03*
X1071880Y342900D03*
X957580Y266700D03*
X1046480Y317500D03*
X1097280Y279400D03*
X1452880Y330200D03*
D10*
X1353949Y127506D02*
X1348357Y127506D01*
X1348357Y139194D01*
X1353949Y139194D01*
X1353949Y127506D01*
X1353949Y129675D02*
X1348357Y129675D01*
X1348357Y131844D02*
X1353949Y131844D01*
X1353949Y134013D02*
X1348357Y134013D01*
X1348357Y136182D02*
X1353949Y136182D01*
X1353949Y138351D02*
X1348357Y138351D01*
X1358771Y127506D02*
X1364363Y127506D01*
X1358771Y127506D02*
X1358771Y139194D01*
X1364363Y139194D01*
X1364363Y127506D01*
X1364363Y129675D02*
X1358771Y129675D01*
X1358771Y131844D02*
X1364363Y131844D01*
X1364363Y134013D02*
X1358771Y134013D01*
X1358771Y136182D02*
X1364363Y136182D01*
X1364363Y138351D02*
X1358771Y138351D01*
X1143383Y492254D02*
X1137791Y492254D01*
X1143383Y492254D02*
X1143383Y480566D01*
X1137791Y480566D01*
X1137791Y492254D01*
X1137791Y482735D02*
X1143383Y482735D01*
X1143383Y484904D02*
X1137791Y484904D01*
X1137791Y487073D02*
X1143383Y487073D01*
X1143383Y489242D02*
X1137791Y489242D01*
X1137791Y491411D02*
X1143383Y491411D01*
X1132969Y492254D02*
X1127377Y492254D01*
X1132969Y492254D02*
X1132969Y480566D01*
X1127377Y480566D01*
X1127377Y492254D01*
X1127377Y482735D02*
X1132969Y482735D01*
X1132969Y484904D02*
X1127377Y484904D01*
X1127377Y487073D02*
X1132969Y487073D01*
X1132969Y489242D02*
X1127377Y489242D01*
X1127377Y491411D02*
X1132969Y491411D01*
D15*
X1465580Y469900D03*
X1008380Y152400D03*
X1046480Y279400D03*
X1325880Y101600D03*
D16*
X1478412Y216350D03*
X1567180Y62600D03*
X1655948Y216350D03*
D10*
X1273046Y563878D02*
X1273046Y569470D01*
X1284734Y569470D01*
X1284734Y563878D01*
X1273046Y563878D01*
X1273046Y566047D02*
X1284734Y566047D01*
X1284734Y568216D02*
X1273046Y568216D01*
X1273046Y559056D02*
X1273046Y553464D01*
X1273046Y559056D02*
X1284734Y559056D01*
X1284734Y553464D01*
X1273046Y553464D01*
X1273046Y555633D02*
X1284734Y555633D01*
X1284734Y557802D02*
X1273046Y557802D01*
X1273046Y548642D02*
X1273046Y543050D01*
X1273046Y548642D02*
X1284734Y548642D01*
X1284734Y543050D01*
X1273046Y543050D01*
X1273046Y545219D02*
X1284734Y545219D01*
X1284734Y547388D02*
X1273046Y547388D01*
D17*
X1212723Y386588D02*
X1207389Y386588D01*
X1207389Y398272D01*
X1212723Y398272D01*
X1212723Y386588D01*
X1212723Y388760D02*
X1207389Y388760D01*
X1207389Y390932D02*
X1212723Y390932D01*
X1212723Y393104D02*
X1207389Y393104D01*
X1207389Y395276D02*
X1212723Y395276D01*
X1212723Y397448D02*
X1207389Y397448D01*
X1215517Y386588D02*
X1220851Y386588D01*
X1215517Y386588D02*
X1215517Y398272D01*
X1220851Y398272D01*
X1220851Y386588D01*
X1220851Y388760D02*
X1215517Y388760D01*
X1215517Y390932D02*
X1220851Y390932D01*
X1220851Y393104D02*
X1215517Y393104D01*
X1215517Y395276D02*
X1220851Y395276D01*
X1220851Y397448D02*
X1215517Y397448D01*
X1158367Y362458D02*
X1153033Y362458D01*
X1153033Y374142D01*
X1158367Y374142D01*
X1158367Y362458D01*
X1158367Y364630D02*
X1153033Y364630D01*
X1153033Y366802D02*
X1158367Y366802D01*
X1158367Y368974D02*
X1153033Y368974D01*
X1153033Y371146D02*
X1158367Y371146D01*
X1158367Y373318D02*
X1153033Y373318D01*
X1163193Y362458D02*
X1168527Y362458D01*
X1163193Y362458D02*
X1163193Y374142D01*
X1168527Y374142D01*
X1168527Y362458D01*
X1168527Y364630D02*
X1163193Y364630D01*
X1163193Y366802D02*
X1168527Y366802D01*
X1168527Y368974D02*
X1163193Y368974D01*
X1163193Y371146D02*
X1168527Y371146D01*
X1168527Y373318D02*
X1163193Y373318D01*
D14*
X1148080Y368300D03*
X1173480Y368300D03*
D10*
X1201291Y488444D02*
X1206883Y488444D01*
X1206883Y476756D01*
X1201291Y476756D01*
X1201291Y488444D01*
X1201291Y478925D02*
X1206883Y478925D01*
X1206883Y481094D02*
X1201291Y481094D01*
X1201291Y483263D02*
X1206883Y483263D01*
X1206883Y485432D02*
X1201291Y485432D01*
X1201291Y487601D02*
X1206883Y487601D01*
X1196469Y488444D02*
X1190877Y488444D01*
X1196469Y488444D02*
X1196469Y476756D01*
X1190877Y476756D01*
X1190877Y488444D01*
X1190877Y478925D02*
X1196469Y478925D01*
X1196469Y481094D02*
X1190877Y481094D01*
X1190877Y483263D02*
X1196469Y483263D01*
X1196469Y485432D02*
X1190877Y485432D01*
X1190877Y487601D02*
X1196469Y487601D01*
D14*
X1338580Y584200D03*
X1313180Y584200D03*
D15*
X1554480Y482600D03*
X1465580Y381000D03*
X1630680Y444500D03*
D10*
X541403Y1194564D02*
X535811Y1194564D01*
X541403Y1194564D02*
X541403Y1182876D01*
X535811Y1182876D01*
X535811Y1194564D01*
X535811Y1185045D02*
X541403Y1185045D01*
X541403Y1187214D02*
X535811Y1187214D01*
X535811Y1189383D02*
X541403Y1189383D01*
X541403Y1191552D02*
X535811Y1191552D01*
X535811Y1193721D02*
X541403Y1193721D01*
X530989Y1194564D02*
X525397Y1194564D01*
X530989Y1194564D02*
X530989Y1182876D01*
X525397Y1182876D01*
X525397Y1194564D01*
X525397Y1185045D02*
X530989Y1185045D01*
X530989Y1187214D02*
X525397Y1187214D01*
X525397Y1189383D02*
X530989Y1189383D01*
X530989Y1191552D02*
X525397Y1191552D01*
X525397Y1193721D02*
X530989Y1193721D01*
D11*
X787400Y627380D03*
X63500Y1211580D03*
D12*
X825500Y640080D03*
X825500Y1198880D03*
X25400Y1198880D03*
X25400Y640080D03*
D13*
X51590Y1049980D03*
X51590Y992180D03*
D14*
X76200Y640080D03*
X101600Y640080D03*
X127000Y640080D03*
X152400Y640080D03*
X177800Y640080D03*
X203200Y640080D03*
X228600Y640080D03*
X254000Y640080D03*
X304800Y640080D03*
X330200Y640080D03*
X355600Y640080D03*
X381000Y640080D03*
X406400Y640080D03*
X431800Y640080D03*
X457200Y640080D03*
X482600Y640080D03*
D10*
X531624Y1140077D02*
X531624Y1145669D01*
X531624Y1140077D02*
X519936Y1140077D01*
X519936Y1145669D01*
X531624Y1145669D01*
X531624Y1142246D02*
X519936Y1142246D01*
X519936Y1144415D02*
X531624Y1144415D01*
X531624Y1150491D02*
X531624Y1156083D01*
X531624Y1150491D02*
X519936Y1150491D01*
X519936Y1156083D01*
X531624Y1156083D01*
X531624Y1152660D02*
X519936Y1152660D01*
X519936Y1154829D02*
X531624Y1154829D01*
X40134Y970409D02*
X40134Y964817D01*
X28446Y964817D01*
X28446Y970409D01*
X40134Y970409D01*
X40134Y966986D02*
X28446Y966986D01*
X28446Y969155D02*
X40134Y969155D01*
X40134Y975231D02*
X40134Y980823D01*
X40134Y975231D02*
X28446Y975231D01*
X28446Y980823D01*
X40134Y980823D01*
X40134Y977400D02*
X28446Y977400D01*
X28446Y979569D02*
X40134Y979569D01*
D15*
X368300Y868680D03*
X203200Y932180D03*
X190500Y894080D03*
X190500Y957580D03*
X76200Y881380D03*
X165100Y932180D03*
X215900Y894080D03*
X571500Y944880D03*
D10*
X472569Y742186D02*
X466977Y742186D01*
X466977Y753874D01*
X472569Y753874D01*
X472569Y742186D01*
X472569Y744355D02*
X466977Y744355D01*
X466977Y746524D02*
X472569Y746524D01*
X472569Y748693D02*
X466977Y748693D01*
X466977Y750862D02*
X472569Y750862D01*
X472569Y753031D02*
X466977Y753031D01*
X477391Y742186D02*
X482983Y742186D01*
X477391Y742186D02*
X477391Y753874D01*
X482983Y753874D01*
X482983Y742186D01*
X482983Y744355D02*
X477391Y744355D01*
X477391Y746524D02*
X482983Y746524D01*
X482983Y748693D02*
X477391Y748693D01*
X477391Y750862D02*
X482983Y750862D01*
X482983Y753031D02*
X477391Y753031D01*
X262003Y1106934D02*
X256411Y1106934D01*
X262003Y1106934D02*
X262003Y1095246D01*
X256411Y1095246D01*
X256411Y1106934D01*
X256411Y1097415D02*
X262003Y1097415D01*
X262003Y1099584D02*
X256411Y1099584D01*
X256411Y1101753D02*
X262003Y1101753D01*
X262003Y1103922D02*
X256411Y1103922D01*
X256411Y1106091D02*
X262003Y1106091D01*
X251589Y1106934D02*
X245997Y1106934D01*
X251589Y1106934D02*
X251589Y1095246D01*
X245997Y1095246D01*
X245997Y1106934D01*
X245997Y1097415D02*
X251589Y1097415D01*
X251589Y1099584D02*
X245997Y1099584D01*
X245997Y1101753D02*
X251589Y1101753D01*
X251589Y1103922D02*
X245997Y1103922D01*
X245997Y1106091D02*
X251589Y1106091D01*
D15*
X584200Y1084580D03*
X127000Y767080D03*
X165100Y894080D03*
X444500Y716280D03*
D16*
X597032Y831030D03*
X685800Y677280D03*
X774568Y831030D03*
D10*
X391666Y1178558D02*
X391666Y1184150D01*
X403354Y1184150D01*
X403354Y1178558D01*
X391666Y1178558D01*
X391666Y1180727D02*
X403354Y1180727D01*
X403354Y1182896D02*
X391666Y1182896D01*
X391666Y1173736D02*
X391666Y1168144D01*
X391666Y1173736D02*
X403354Y1173736D01*
X403354Y1168144D01*
X391666Y1168144D01*
X391666Y1170313D02*
X403354Y1170313D01*
X403354Y1172482D02*
X391666Y1172482D01*
X391666Y1163322D02*
X391666Y1157730D01*
X391666Y1163322D02*
X403354Y1163322D01*
X403354Y1157730D01*
X391666Y1157730D01*
X391666Y1159899D02*
X403354Y1159899D01*
X403354Y1162068D02*
X391666Y1162068D01*
D17*
X331343Y1001268D02*
X326009Y1001268D01*
X326009Y1012952D01*
X331343Y1012952D01*
X331343Y1001268D01*
X331343Y1003440D02*
X326009Y1003440D01*
X326009Y1005612D02*
X331343Y1005612D01*
X331343Y1007784D02*
X326009Y1007784D01*
X326009Y1009956D02*
X331343Y1009956D01*
X331343Y1012128D02*
X326009Y1012128D01*
X334137Y1001268D02*
X339471Y1001268D01*
X334137Y1001268D02*
X334137Y1012952D01*
X339471Y1012952D01*
X339471Y1001268D01*
X339471Y1003440D02*
X334137Y1003440D01*
X334137Y1005612D02*
X339471Y1005612D01*
X339471Y1007784D02*
X334137Y1007784D01*
X334137Y1009956D02*
X339471Y1009956D01*
X339471Y1012128D02*
X334137Y1012128D01*
X276987Y977138D02*
X271653Y977138D01*
X271653Y988822D01*
X276987Y988822D01*
X276987Y977138D01*
X276987Y979310D02*
X271653Y979310D01*
X271653Y981482D02*
X276987Y981482D01*
X276987Y983654D02*
X271653Y983654D01*
X271653Y985826D02*
X276987Y985826D01*
X276987Y987998D02*
X271653Y987998D01*
X281813Y977138D02*
X287147Y977138D01*
X281813Y977138D02*
X281813Y988822D01*
X287147Y988822D01*
X287147Y977138D01*
X287147Y979310D02*
X281813Y979310D01*
X281813Y981482D02*
X287147Y981482D01*
X287147Y983654D02*
X281813Y983654D01*
X281813Y985826D02*
X287147Y985826D01*
X287147Y987998D02*
X281813Y987998D01*
D14*
X266700Y982980D03*
X292100Y982980D03*
D10*
X319911Y1103124D02*
X325503Y1103124D01*
X325503Y1091436D01*
X319911Y1091436D01*
X319911Y1103124D01*
X319911Y1093605D02*
X325503Y1093605D01*
X325503Y1095774D02*
X319911Y1095774D01*
X319911Y1097943D02*
X325503Y1097943D01*
X325503Y1100112D02*
X319911Y1100112D01*
X319911Y1102281D02*
X325503Y1102281D01*
X315089Y1103124D02*
X309497Y1103124D01*
X315089Y1103124D02*
X315089Y1091436D01*
X309497Y1091436D01*
X309497Y1103124D01*
X309497Y1093605D02*
X315089Y1093605D01*
X315089Y1095774D02*
X309497Y1095774D01*
X309497Y1097943D02*
X315089Y1097943D01*
X315089Y1100112D02*
X309497Y1100112D01*
X309497Y1102281D02*
X315089Y1102281D01*
D14*
X457200Y1198880D03*
X431800Y1198880D03*
D15*
X673100Y1097280D03*
X584200Y995680D03*
X749300Y1059180D03*
D10*
X1417191Y1194564D02*
X1422783Y1194564D01*
X1422783Y1182876D01*
X1417191Y1182876D01*
X1417191Y1194564D01*
X1417191Y1185045D02*
X1422783Y1185045D01*
X1422783Y1187214D02*
X1417191Y1187214D01*
X1417191Y1189383D02*
X1422783Y1189383D01*
X1422783Y1191552D02*
X1417191Y1191552D01*
X1417191Y1193721D02*
X1422783Y1193721D01*
X1412369Y1194564D02*
X1406777Y1194564D01*
X1412369Y1194564D02*
X1412369Y1182876D01*
X1406777Y1182876D01*
X1406777Y1194564D01*
X1406777Y1185045D02*
X1412369Y1185045D01*
X1412369Y1187214D02*
X1406777Y1187214D01*
X1406777Y1189383D02*
X1412369Y1189383D01*
X1412369Y1191552D02*
X1406777Y1191552D01*
X1406777Y1193721D02*
X1412369Y1193721D01*
D11*
X1668780Y627380D03*
X944880Y1211580D03*
D12*
X1706880Y640080D03*
X1706880Y1198880D03*
X906780Y1198880D03*
X906780Y640080D03*
D13*
X932970Y1049980D03*
X932970Y992180D03*
D14*
X957580Y640080D03*
X982980Y640080D03*
X1008380Y640080D03*
X1033780Y640080D03*
X1059180Y640080D03*
X1084580Y640080D03*
X1109980Y640080D03*
X1135380Y640080D03*
X1186180Y640080D03*
X1211580Y640080D03*
X1236980Y640080D03*
X1262380Y640080D03*
X1287780Y640080D03*
X1313180Y640080D03*
X1338580Y640080D03*
X1363980Y640080D03*
D10*
X1413004Y1140077D02*
X1413004Y1145669D01*
X1413004Y1140077D02*
X1401316Y1140077D01*
X1401316Y1145669D01*
X1413004Y1145669D01*
X1413004Y1142246D02*
X1401316Y1142246D01*
X1401316Y1144415D02*
X1413004Y1144415D01*
X1413004Y1150491D02*
X1413004Y1156083D01*
X1413004Y1150491D02*
X1401316Y1150491D01*
X1401316Y1156083D01*
X1413004Y1156083D01*
X1413004Y1152660D02*
X1401316Y1152660D01*
X1401316Y1154829D02*
X1413004Y1154829D01*
X921514Y970409D02*
X921514Y964817D01*
X909826Y964817D01*
X909826Y970409D01*
X921514Y970409D01*
X921514Y966986D02*
X909826Y966986D01*
X909826Y969155D02*
X921514Y969155D01*
X921514Y975231D02*
X921514Y980823D01*
X921514Y975231D02*
X909826Y975231D01*
X909826Y980823D01*
X921514Y980823D01*
X921514Y977400D02*
X909826Y977400D01*
X909826Y979569D02*
X921514Y979569D01*
D15*
X1249680Y868680D03*
X1084580Y932180D03*
X1071880Y894080D03*
X1071880Y957580D03*
X957580Y881380D03*
X1046480Y932180D03*
X1097280Y894080D03*
X1452880Y944880D03*
D10*
X1353949Y742186D02*
X1348357Y742186D01*
X1348357Y753874D01*
X1353949Y753874D01*
X1353949Y742186D01*
X1353949Y744355D02*
X1348357Y744355D01*
X1348357Y746524D02*
X1353949Y746524D01*
X1353949Y748693D02*
X1348357Y748693D01*
X1348357Y750862D02*
X1353949Y750862D01*
X1353949Y753031D02*
X1348357Y753031D01*
X1358771Y742186D02*
X1364363Y742186D01*
X1358771Y742186D02*
X1358771Y753874D01*
X1364363Y753874D01*
X1364363Y742186D01*
X1364363Y744355D02*
X1358771Y744355D01*
X1358771Y746524D02*
X1364363Y746524D01*
X1364363Y748693D02*
X1358771Y748693D01*
X1358771Y750862D02*
X1364363Y750862D01*
X1364363Y753031D02*
X1358771Y753031D01*
X1143383Y1106934D02*
X1137791Y1106934D01*
X1143383Y1106934D02*
X1143383Y1095246D01*
X1137791Y1095246D01*
X1137791Y1106934D01*
X1137791Y1097415D02*
X1143383Y1097415D01*
X1143383Y1099584D02*
X1137791Y1099584D01*
X1137791Y1101753D02*
X1143383Y1101753D01*
X1143383Y1103922D02*
X1137791Y1103922D01*
X1137791Y1106091D02*
X1143383Y1106091D01*
X1132969Y1106934D02*
X1127377Y1106934D01*
X1132969Y1106934D02*
X1132969Y1095246D01*
X1127377Y1095246D01*
X1127377Y1106934D01*
X1127377Y1097415D02*
X1132969Y1097415D01*
X1132969Y1099584D02*
X1127377Y1099584D01*
X1127377Y1101753D02*
X1132969Y1101753D01*
X1132969Y1103922D02*
X1127377Y1103922D01*
X1127377Y1106091D02*
X1132969Y1106091D01*
D15*
X1465580Y1084580D03*
X1008380Y767080D03*
X1046480Y894080D03*
X1325880Y716280D03*
D16*
X1478412Y831030D03*
X1567180Y677280D03*
X1655948Y831030D03*
D10*
X1273046Y1178558D02*
X1273046Y1184150D01*
X1284734Y1184150D01*
X1284734Y1178558D01*
X1273046Y1178558D01*
X1273046Y1180727D02*
X1284734Y1180727D01*
X1284734Y1182896D02*
X1273046Y1182896D01*
X1273046Y1173736D02*
X1273046Y1168144D01*
X1273046Y1173736D02*
X1284734Y1173736D01*
X1284734Y1168144D01*
X1273046Y1168144D01*
X1273046Y1170313D02*
X1284734Y1170313D01*
X1284734Y1172482D02*
X1273046Y1172482D01*
X1273046Y1163322D02*
X1273046Y1157730D01*
X1273046Y1163322D02*
X1284734Y1163322D01*
X1284734Y1157730D01*
X1273046Y1157730D01*
X1273046Y1159899D02*
X1284734Y1159899D01*
X1284734Y1162068D02*
X1273046Y1162068D01*
D17*
X1212723Y1001268D02*
X1207389Y1001268D01*
X1207389Y1012952D01*
X1212723Y1012952D01*
X1212723Y1001268D01*
X1212723Y1003440D02*
X1207389Y1003440D01*
X1207389Y1005612D02*
X1212723Y1005612D01*
X1212723Y1007784D02*
X1207389Y1007784D01*
X1207389Y1009956D02*
X1212723Y1009956D01*
X1212723Y1012128D02*
X1207389Y1012128D01*
X1215517Y1001268D02*
X1220851Y1001268D01*
X1215517Y1001268D02*
X1215517Y1012952D01*
X1220851Y1012952D01*
X1220851Y1001268D01*
X1220851Y1003440D02*
X1215517Y1003440D01*
X1215517Y1005612D02*
X1220851Y1005612D01*
X1220851Y1007784D02*
X1215517Y1007784D01*
X1215517Y1009956D02*
X1220851Y1009956D01*
X1220851Y1012128D02*
X1215517Y1012128D01*
X1158367Y977138D02*
X1153033Y977138D01*
X1153033Y988822D01*
X1158367Y988822D01*
X1158367Y977138D01*
X1158367Y979310D02*
X1153033Y979310D01*
X1153033Y981482D02*
X1158367Y981482D01*
X1158367Y983654D02*
X1153033Y983654D01*
X1153033Y985826D02*
X1158367Y985826D01*
X1158367Y987998D02*
X1153033Y987998D01*
X1163193Y977138D02*
X1168527Y977138D01*
X1163193Y977138D02*
X1163193Y988822D01*
X1168527Y988822D01*
X1168527Y977138D01*
X1168527Y979310D02*
X1163193Y979310D01*
X1163193Y981482D02*
X1168527Y981482D01*
X1168527Y983654D02*
X1163193Y983654D01*
X1163193Y985826D02*
X1168527Y985826D01*
X1168527Y987998D02*
X1163193Y987998D01*
D14*
X1148080Y982980D03*
X1173480Y982980D03*
D10*
X1201291Y1103124D02*
X1206883Y1103124D01*
X1206883Y1091436D01*
X1201291Y1091436D01*
X1201291Y1103124D01*
X1201291Y1093605D02*
X1206883Y1093605D01*
X1206883Y1095774D02*
X1201291Y1095774D01*
X1201291Y1097943D02*
X1206883Y1097943D01*
X1206883Y1100112D02*
X1201291Y1100112D01*
X1201291Y1102281D02*
X1206883Y1102281D01*
X1196469Y1103124D02*
X1190877Y1103124D01*
X1196469Y1103124D02*
X1196469Y1091436D01*
X1190877Y1091436D01*
X1190877Y1103124D01*
X1190877Y1093605D02*
X1196469Y1093605D01*
X1196469Y1095774D02*
X1190877Y1095774D01*
X1190877Y1097943D02*
X1196469Y1097943D01*
X1196469Y1100112D02*
X1190877Y1100112D01*
X1190877Y1102281D02*
X1196469Y1102281D01*
D14*
X1338580Y1198880D03*
X1313180Y1198880D03*
D15*
X1554480Y1097280D03*
X1465580Y995680D03*
X1630680Y1059180D03*
D18*
X93980Y1245235D03*
X1713865Y1245235D03*
D19*
X84925Y-20955D02*
X84928Y-20733D01*
X84936Y-20511D01*
X84950Y-20289D01*
X84969Y-20067D01*
X84993Y-19847D01*
X85023Y-19626D01*
X85058Y-19407D01*
X85099Y-19188D01*
X85145Y-18971D01*
X85196Y-18755D01*
X85253Y-18540D01*
X85315Y-18326D01*
X85382Y-18115D01*
X85454Y-17904D01*
X85532Y-17696D01*
X85614Y-17490D01*
X85702Y-17286D01*
X85794Y-17083D01*
X85892Y-16884D01*
X85994Y-16687D01*
X86101Y-16492D01*
X86213Y-16300D01*
X86330Y-16111D01*
X86451Y-15924D01*
X86577Y-15741D01*
X86707Y-15561D01*
X86842Y-15384D01*
X86980Y-15211D01*
X87123Y-15041D01*
X87271Y-14874D01*
X87422Y-14711D01*
X87577Y-14552D01*
X87736Y-14397D01*
X87899Y-14246D01*
X88066Y-14098D01*
X88236Y-13955D01*
X88409Y-13817D01*
X88586Y-13682D01*
X88766Y-13552D01*
X88949Y-13426D01*
X89136Y-13305D01*
X89325Y-13188D01*
X89517Y-13076D01*
X89712Y-12969D01*
X89909Y-12867D01*
X90108Y-12769D01*
X90311Y-12677D01*
X90515Y-12589D01*
X90721Y-12507D01*
X90929Y-12429D01*
X91140Y-12357D01*
X91351Y-12290D01*
X91565Y-12228D01*
X91780Y-12171D01*
X91996Y-12120D01*
X92213Y-12074D01*
X92432Y-12033D01*
X92651Y-11998D01*
X92872Y-11968D01*
X93092Y-11944D01*
X93314Y-11925D01*
X93536Y-11911D01*
X93758Y-11903D01*
X93980Y-11900D01*
X94202Y-11903D01*
X94424Y-11911D01*
X94646Y-11925D01*
X94868Y-11944D01*
X95088Y-11968D01*
X95309Y-11998D01*
X95528Y-12033D01*
X95747Y-12074D01*
X95964Y-12120D01*
X96180Y-12171D01*
X96395Y-12228D01*
X96609Y-12290D01*
X96820Y-12357D01*
X97031Y-12429D01*
X97239Y-12507D01*
X97445Y-12589D01*
X97649Y-12677D01*
X97852Y-12769D01*
X98051Y-12867D01*
X98248Y-12969D01*
X98443Y-13076D01*
X98635Y-13188D01*
X98824Y-13305D01*
X99011Y-13426D01*
X99194Y-13552D01*
X99374Y-13682D01*
X99551Y-13817D01*
X99724Y-13955D01*
X99894Y-14098D01*
X100061Y-14246D01*
X100224Y-14397D01*
X100383Y-14552D01*
X100538Y-14711D01*
X100689Y-14874D01*
X100837Y-15041D01*
X100980Y-15211D01*
X101118Y-15384D01*
X101253Y-15561D01*
X101383Y-15741D01*
X101509Y-15924D01*
X101630Y-16111D01*
X101747Y-16300D01*
X101859Y-16492D01*
X101966Y-16687D01*
X102068Y-16884D01*
X102166Y-17083D01*
X102258Y-17286D01*
X102346Y-17490D01*
X102428Y-17696D01*
X102506Y-17904D01*
X102578Y-18115D01*
X102645Y-18326D01*
X102707Y-18540D01*
X102764Y-18755D01*
X102815Y-18971D01*
X102861Y-19188D01*
X102902Y-19407D01*
X102937Y-19626D01*
X102967Y-19847D01*
X102991Y-20067D01*
X103010Y-20289D01*
X103024Y-20511D01*
X103032Y-20733D01*
X103035Y-20955D01*
X103032Y-21177D01*
X103024Y-21399D01*
X103010Y-21621D01*
X102991Y-21843D01*
X102967Y-22063D01*
X102937Y-22284D01*
X102902Y-22503D01*
X102861Y-22722D01*
X102815Y-22939D01*
X102764Y-23155D01*
X102707Y-23370D01*
X102645Y-23584D01*
X102578Y-23795D01*
X102506Y-24006D01*
X102428Y-24214D01*
X102346Y-24420D01*
X102258Y-24624D01*
X102166Y-24827D01*
X102068Y-25026D01*
X101966Y-25223D01*
X101859Y-25418D01*
X101747Y-25610D01*
X101630Y-25799D01*
X101509Y-25986D01*
X101383Y-26169D01*
X101253Y-26349D01*
X101118Y-26526D01*
X100980Y-26699D01*
X100837Y-26869D01*
X100689Y-27036D01*
X100538Y-27199D01*
X100383Y-27358D01*
X100224Y-27513D01*
X100061Y-27664D01*
X99894Y-27812D01*
X99724Y-27955D01*
X99551Y-28093D01*
X99374Y-28228D01*
X99194Y-28358D01*
X99011Y-28484D01*
X98824Y-28605D01*
X98635Y-28722D01*
X98443Y-28834D01*
X98248Y-28941D01*
X98051Y-29043D01*
X97852Y-29141D01*
X97649Y-29233D01*
X97445Y-29321D01*
X97239Y-29403D01*
X97031Y-29481D01*
X96820Y-29553D01*
X96609Y-29620D01*
X96395Y-29682D01*
X96180Y-29739D01*
X95964Y-29790D01*
X95747Y-29836D01*
X95528Y-29877D01*
X95309Y-29912D01*
X95088Y-29942D01*
X94868Y-29966D01*
X94646Y-29985D01*
X94424Y-29999D01*
X94202Y-30007D01*
X93980Y-30010D01*
X93758Y-30007D01*
X93536Y-29999D01*
X93314Y-29985D01*
X93092Y-29966D01*
X92872Y-29942D01*
X92651Y-29912D01*
X92432Y-29877D01*
X92213Y-29836D01*
X91996Y-29790D01*
X91780Y-29739D01*
X91565Y-29682D01*
X91351Y-29620D01*
X91140Y-29553D01*
X90929Y-29481D01*
X90721Y-29403D01*
X90515Y-29321D01*
X90311Y-29233D01*
X90108Y-29141D01*
X89909Y-29043D01*
X89712Y-28941D01*
X89517Y-28834D01*
X89325Y-28722D01*
X89136Y-28605D01*
X88949Y-28484D01*
X88766Y-28358D01*
X88586Y-28228D01*
X88409Y-28093D01*
X88236Y-27955D01*
X88066Y-27812D01*
X87899Y-27664D01*
X87736Y-27513D01*
X87577Y-27358D01*
X87422Y-27199D01*
X87271Y-27036D01*
X87123Y-26869D01*
X86980Y-26699D01*
X86842Y-26526D01*
X86707Y-26349D01*
X86577Y-26169D01*
X86451Y-25986D01*
X86330Y-25799D01*
X86213Y-25610D01*
X86101Y-25418D01*
X85994Y-25223D01*
X85892Y-25026D01*
X85794Y-24827D01*
X85702Y-24624D01*
X85614Y-24420D01*
X85532Y-24214D01*
X85454Y-24006D01*
X85382Y-23795D01*
X85315Y-23584D01*
X85253Y-23370D01*
X85196Y-23155D01*
X85145Y-22939D01*
X85099Y-22722D01*
X85058Y-22503D01*
X85023Y-22284D01*
X84993Y-22063D01*
X84969Y-21843D01*
X84950Y-21621D01*
X84936Y-21399D01*
X84928Y-21177D01*
X84925Y-20955D01*
D20*
X93980Y-20955D03*
M02*
